<svg width="29" height="29" viewBox="0 0 29 29" fill="none" xmlns="http://www.w3.org/2000/svg">
<path d="M14.1605 28.1803C13.6196 28.1726 13.1069 27.9429 12.7422 27.548L10.0043 24.7449H6.13545C5.00328 24.7404 4.08992 23.8297 4.09441 22.7115V18.7569L1.39022 15.9615C0.60365 15.1451 0.60365 13.8617 1.39022 13.0441L4.09441 10.2409V6.28745C4.07645 5.16486 4.98196 4.23971 6.11862 4.22196H10.0043L12.7422 1.42656C13.4794 0.650065 14.7137 0.61124 15.4991 1.34115C15.5294 1.36888 15.5575 1.39772 15.5855 1.42656L18.3234 4.22196H22.1922C23.3255 4.24415 24.2266 5.16818 24.2086 6.28856V10.2421L26.9375 13.0452C27.724 13.8617 27.724 15.1451 26.9375 15.9626L24.2086 18.758V22.6882C24.2221 23.8053 23.3222 24.7238 22.1922 24.746H18.3234L15.5698 27.5491C15.2051 27.9396 14.6968 28.167 14.1605 28.1814V28.1803Z" fill="#FBAD26"/>
<path d="M17.8085 12.0568C18.8902 10.7367 19.164 8.94079 18.521 7.3656C18.3639 6.95517 18.1238 6.58023 17.8164 6.26408L15.1279 3.53302C14.6252 3.005 13.7848 2.97949 13.2507 3.47645C13.2305 3.49531 13.2114 3.51416 13.1934 3.53302L3.44941 13.5066C2.9153 14.0635 2.9153 14.9354 3.44941 15.4922L5.84278 17.9227C6.84142 16.6858 8.10711 15.6864 9.54785 14.9975C13.2529 13.2149 15.506 14.8355 17.8096 12.0568H17.8085Z" fill="#0F8C70"/>
<path d="M22.4793 11.0762C21.4829 12.3164 20.2172 13.3192 18.7743 14.0091C15.0692 15.7918 12.8161 14.1711 10.5125 16.9499C9.451 18.2666 9.19068 20.0481 9.8325 21.6089C9.98286 22.0082 10.2106 22.3743 10.5046 22.686L13.1931 25.4326C13.6868 25.9695 14.5261 26.0083 15.0692 25.5213C15.0894 25.5036 15.1085 25.4847 15.1275 25.4647L24.8727 15.49C25.4068 14.9332 25.4068 14.0613 24.8727 13.5044L22.4793 11.074V11.0762Z" fill="#0F8C70"/>
<path d="M27.7577 13.094L24.7584 10.0235V5.67289C24.7809 4.58801 23.9124 3.68948 22.8161 3.66397H18.5702L15.5709 0.584593C15.2018 0.210764 14.6969 0 14.1695 0C13.6421 0 13.1473 0.210764 12.7848 0.583484L9.77658 3.66286H5.5217C4.42207 3.68505 3.5491 4.58468 3.57154 5.67178V10.0069L0.572255 13.0862C-0.190752 13.8783 -0.190752 15.1218 0.572255 15.9138L3.57154 18.9932V23.336C3.55359 24.4242 4.43105 25.3194 5.53068 25.3372H9.77658L12.7759 28.4166C13.1405 28.786 13.6387 28.9956 14.1605 29.0001C14.6912 29.0056 15.2018 28.7948 15.5698 28.4166L18.5534 25.3372H22.7993C23.8989 25.3194 24.7764 24.4231 24.7573 23.336V19.001L27.7566 15.9216C28.5196 15.1295 28.5196 13.886 27.7566 13.094H27.7577ZM26.3967 15.3947L23.4378 18.433V22.6971C23.4647 23.3904 22.9171 23.9728 22.2158 23.9994H18.0283L15.0447 26.9978C15.0335 27.01 15.0211 27.0211 15.0088 27.0333C14.5218 27.4948 13.7487 27.4792 13.2819 26.9978L10.323 23.9672H6.15903C5.45774 23.9539 4.90007 23.3804 4.91354 22.6871V18.433L1.92996 15.4024C1.43961 14.8977 1.43961 14.1001 1.92996 13.5954L4.91354 10.5327V6.27856C4.90007 5.59413 5.44315 5.02506 6.13435 4.99844H10.3219L13.2808 1.96787C13.292 1.95567 13.3044 1.94458 13.3167 1.93238C13.8037 1.47091 14.5768 1.48644 15.0436 1.96787L18.0272 4.99844H22.1911C22.8924 5.01175 23.4501 5.58525 23.4366 6.27856V10.5327L26.3955 13.5876C26.8859 14.0924 26.8859 14.8899 26.3955 15.3947H26.3967Z" fill="#0F8C70"/>
</svg>
