<svg width="93" height="26" viewBox="0 0 93 26" fill="none" xmlns="http://www.w3.org/2000/svg">
<path d="M89.9653 26C90.3505 26 90.6341 25.8444 90.8208 25.5967V25.9307H91.4106V22.0752H90.8208V23.5137C90.6341 23.2661 90.3504 23.1113 89.9653 23.1113C89.2062 23.1114 88.6108 23.7159 88.6108 24.5557C88.6109 25.396 89.2062 25.9999 89.9653 26ZM74.188 26C74.4434 26 74.7376 25.9194 74.9243 25.7871L74.7544 25.2744C74.5789 25.3777 74.3868 25.4306 74.2339 25.4307C73.9395 25.4307 73.8433 25.2457 73.8433 24.9697V23.7266H74.8062V23.1797H73.8433V22.3457H73.2476V23.1797H72.6987V23.7266H73.2476V24.9814C73.2476 25.6197 73.4917 26 74.188 26ZM62.3032 24.4062C62.3032 23.9287 62.5637 23.6748 62.9663 23.6748C63.3573 23.6748 63.5552 23.934 63.5552 24.4004V25.9307H64.1499V24.4062C64.1499 23.9287 64.422 23.6748 64.813 23.6748C65.215 23.6748 65.4077 23.934 65.4077 24.4004V25.9307H66.0024V24.2041C66.0023 23.5541 65.5944 23.1173 64.937 23.1113C64.5916 23.1055 64.2354 23.2148 63.9858 23.6006C63.7992 23.2957 63.5048 23.1115 63.0913 23.1113C62.8021 23.1113 62.5194 23.1975 62.2983 23.5195V23.1797H61.7085V25.9307H62.3032V24.4062ZM67.8784 26C68.2633 25.9999 68.5462 25.8442 68.7329 25.5967V25.9307H69.3218V23.1797H68.7329V23.5137C68.5462 23.2663 68.2632 23.1114 67.8784 23.1113C67.1191 23.1113 66.5239 23.7158 66.5239 24.5557C66.524 25.3961 67.1192 26 67.8784 26ZM71.0669 26C71.8486 26 72.302 25.626 72.3022 25.1025C72.3022 24.619 71.9453 24.3656 71.356 24.2793L71.0786 24.2383C70.8239 24.204 70.6198 24.153 70.6196 23.9688C70.6196 23.7672 70.8124 23.6465 71.1353 23.6465C71.4805 23.6466 71.8149 23.7785 71.979 23.8818L72.2339 23.3984C71.9506 23.2088 71.5599 23.1113 71.1294 23.1113C70.4437 23.1114 70.0027 23.4448 70.0024 23.9912C70.0024 24.4397 70.3307 24.7164 70.936 24.8027L71.2144 24.8438C71.537 24.8898 71.6897 24.9756 71.6899 25.1309C71.6899 25.3436 71.4747 25.4648 71.0728 25.4648C70.6652 25.4648 70.3708 25.333 70.1724 25.1777L69.894 25.6426C70.2169 25.8843 70.6253 26 71.0669 26ZM76.6812 26C77.089 26 77.4628 25.8962 77.7915 25.6143L77.5024 25.1709C77.2756 25.3546 76.9869 25.4589 76.7153 25.459C76.336 25.459 75.9897 25.2805 75.9048 24.7852L77.9155 24.7852C77.9214 24.7108 77.9272 24.6359 77.9272 24.5557C77.9214 23.6982 77.4005 23.1115 76.6421 23.1113C75.8485 23.1113 75.2935 23.698 75.2935 24.5557C75.2936 25.4303 75.8708 26 76.6812 26ZM79.1226 24.3887C79.1226 23.9338 79.3149 23.6809 79.6997 23.6807C79.819 23.6807 79.9444 23.698 80.0688 23.75L80.2505 23.1855C80.1202 23.1335 79.9499 23.1113 79.8306 23.1113C79.491 23.1113 79.27 23.2722 79.1177 23.5137V23.1797H78.5337V25.9307H79.1226V24.3887ZM81.8706 26C82.2783 26 82.5499 25.9076 82.8442 25.6719L82.561 25.1885C82.3401 25.3497 82.1083 25.4365 81.853 25.4365C81.383 25.4306 81.0377 25.0851 81.0376 24.5557C81.0376 24.0261 81.3829 23.6807 81.853 23.6748C82.1084 23.6749 82.34 23.7616 82.561 23.9229L82.8442 23.4385C82.55 23.2028 82.2782 23.1114 81.8706 23.1113C80.9979 23.1113 80.4253 23.7211 80.4253 24.5557L80.4321 24.709C80.4981 25.4638 81.0523 26 81.8706 26ZM84.4985 26C84.8837 26 85.1666 25.8444 85.354 25.5967V25.9307H85.9429V23.1797H85.354V23.5137C85.1666 23.2662 84.8835 23.1113 84.4985 23.1113C83.7395 23.1115 83.144 23.716 83.144 24.5557C83.1441 25.3959 83.7395 25.9998 84.4985 26ZM87.3081 24.3887C87.3081 23.9336 87.5011 23.6807 87.8862 23.6807C88.0055 23.6807 88.13 23.698 88.2544 23.75L88.436 23.1855C88.3057 23.1335 88.1354 23.1113 88.0161 23.1113C87.6766 23.1114 87.4552 23.2721 87.3022 23.5137V23.1797H86.7192V25.9307H87.3081V24.3887ZM75.9106 24.3135C75.9736 23.9164 76.211 23.6465 76.6304 23.6465C77.0094 23.6466 77.2526 23.8883 77.3149 24.3135L75.9106 24.3135ZM67.9517 25.4365C67.4421 25.4365 67.1295 25.0391 67.1294 24.5557C67.1294 24.0722 67.442 23.6748 67.9517 23.6748C68.4384 23.675 68.7671 24.0552 68.7671 24.5557C68.767 25.056 68.4383 25.4363 67.9517 25.4365ZM84.5718 25.4365C84.0625 25.4363 83.7506 25.0389 83.7505 24.5557C83.7505 24.0723 84.0624 23.675 84.5718 23.6748C85.0587 23.6748 85.3882 24.055 85.3882 24.5557C85.3881 25.0562 85.0586 25.4365 84.5718 25.4365ZM90.0386 25.4365C89.5292 25.4364 89.2174 25.039 89.2173 24.5557C89.2173 24.0723 89.5291 23.6749 90.0386 23.6748C90.5262 23.6748 90.855 24.055 90.855 24.5557C90.8549 25.0562 90.5261 25.4365 90.0386 25.4365Z" fill="#231F20"/>
<path d="M80.9618 18.5059H72.0386V2.21484H80.9618V18.5059Z" fill="#FF5F00"/>
<path d="M72.6048 10.3608C72.6048 7.05607 74.1278 4.11232 76.4997 2.21525C74.7652 0.828014 72.5762 2.245e-05 70.1973 2.245e-05C64.5653 2.245e-05 60 4.63862 60 10.3608C60 16.083 64.5653 20.7216 70.1973 20.7216C72.5762 20.7216 74.7652 19.8936 76.4997 18.5063C74.1278 16.6093 72.6048 13.6655 72.6048 10.3608" fill="#EB001B"/>
<path d="M92.9998 10.3608C92.9998 16.083 88.4345 20.7216 82.8025 20.7216C80.4236 20.7216 78.2346 19.8936 76.4995 18.5063C78.872 16.6093 80.3951 13.6655 80.3951 10.3608C80.3951 7.05607 78.872 4.11232 76.4995 2.21525C78.2346 0.828014 80.4236 2.245e-05 82.8025 2.245e-05C88.4345 2.245e-05 92.9998 4.63862 92.9998 10.3608" fill="#F79E1B"/>
<path fill-rule="evenodd" clip-rule="evenodd" d="M12.2505 20.8754H8.00987L4.82991 8.46306C4.67897 7.8921 4.35849 7.38733 3.88708 7.14942C2.71062 6.55156 1.41424 6.07576 0 5.83579V5.35791H6.83134C7.77416 5.35791 8.48128 6.07576 8.59913 6.90945L10.2491 15.8629L14.4877 5.35791H18.6104L12.2505 20.8754ZM20.9675 20.8754H16.9626L20.2604 5.35791H24.2653L20.9675 20.8754ZM29.4467 9.6567C29.5646 8.82093 30.2717 8.34306 31.0967 8.34306C32.393 8.22307 33.8052 8.46304 34.9837 9.05884L35.6909 5.71785C34.5123 5.23997 33.216 5 32.0395 5C28.1524 5 25.3239 7.1494 25.3239 10.1325C25.3239 12.4019 27.3274 13.5935 28.7417 14.3113C30.2717 15.0271 30.861 15.505 30.7431 16.2208C30.7431 17.2944 29.5646 17.7723 28.3881 17.7723C26.9739 17.7723 25.5596 17.4144 24.2653 16.8166L23.5582 20.1596C24.9724 20.7554 26.5025 20.9954 27.9167 20.9954C32.2752 21.1133 34.9837 18.966 34.9837 15.7429C34.9837 11.684 29.4467 11.4461 29.4467 9.6567V9.6567ZM49 20.8754L45.82 5.35791H42.4044C41.6972 5.35791 40.9901 5.83579 40.7544 6.55156L34.8659 20.8754H38.9887L39.8116 18.6081H44.8772L45.3486 20.8754H49ZM42.9936 9.53677L44.1701 15.3851H40.8723L42.9936 9.53677Z" fill="#172B85"/>
</svg>
