<svg width="22" height="22" viewBox="0 0 22 22" fill="none" xmlns="http://www.w3.org/2000/svg">
<g clip-path="url(#clip0_64_4615)">
<path d="M21.1961 10.5981C21.1961 4.74491 16.4512 0 10.5981 0C4.74491 0 0 4.74491 0 10.5981C0 15.8878 3.87554 20.2723 8.94211 21.0674V13.6616H6.2512V10.5981H8.94211V8.26317C8.94211 5.60703 10.5244 4.13987 12.9452 4.13987C14.1043 4.13987 15.3175 4.34686 15.3175 4.34686V6.95497H13.9812C12.6647 6.95497 12.254 7.77198 12.254 8.61092V10.5981H15.1933L14.7234 13.6616H12.254V21.0674C17.3206 20.2723 21.1961 15.8878 21.1961 10.5981Z" fill="white"/>
</g>
<defs>
<clipPath id="clip0_64_4615">
<rect width="21.1961" height="21.1961" fill="white"/>
</clipPath>
</defs>
</svg>
