<svg width="16" height="15" viewBox="0 0 16 15" fill="none" xmlns="http://www.w3.org/2000/svg">
<g id="Group">
<path id="Vector" d="M0.722656 14.9815L1.75159 11.2451C1.11546 10.1484 0.78175 8.90642 0.785227 7.63675C0.785227 3.6582 4.03888 0.423462 8.03295 0.423462C9.97263 0.423462 11.7941 1.1742 13.1602 2.53728C14.5298 3.90037 15.2842 5.7132 15.2807 7.64021C15.2807 11.6188 12.027 14.8535 8.02947 14.8535H8.026C6.81283 14.8535 5.62052 14.549 4.5603 13.9748L0.722656 14.9815ZM4.74453 12.6705L4.96353 12.8019C5.88818 13.3486 6.9484 13.6357 8.02947 13.6392H8.03295C11.3527 13.6392 14.0571 10.9511 14.0571 7.64367C14.0571 6.04187 13.4314 4.53694 12.2947 3.40219C11.158 2.26743 9.6424 1.6447 8.03295 1.6447C4.71325 1.64124 2.00882 4.32936 2.00882 7.63675C2.00882 8.76804 2.32515 9.87165 2.93 10.8265L3.07252 11.0548L2.4642 13.2655L4.74453 12.6705Z" fill="white"/>
<path id="Vector_2" d="M0.976562 14.729L1.97073 11.1206C1.35546 10.0654 1.03218 8.86492 1.03218 7.64022C1.03566 3.80005 4.1746 0.676025 8.0331 0.676025C9.90673 0.676025 11.6622 1.40254 12.9831 2.7172C14.304 4.03185 15.0305 5.78241 15.0305 7.64368C15.0305 11.4838 11.8881 14.6079 8.0331 14.6079H8.02962C6.85817 14.6079 5.70757 14.3138 4.68559 13.7603L0.976562 14.729Z" fill="url(#paint0_linear_2059_3879)"/>
<path id="Vector_3" d="M0.722656 14.9815L1.75159 11.2451C1.11546 10.1484 0.78175 8.90642 0.785227 7.63675C0.785227 3.6582 4.03888 0.423462 8.03295 0.423462C9.97263 0.423462 11.7941 1.1742 13.1602 2.53728C14.5298 3.90037 15.2842 5.7132 15.2807 7.64021C15.2807 11.6188 12.027 14.8535 8.02947 14.8535H8.026C6.81283 14.8535 5.62052 14.549 4.5603 13.9748L0.722656 14.9815ZM4.74453 12.6705L4.96353 12.8019C5.88818 13.3486 6.9484 13.6357 8.02947 13.6392H8.03295C11.3527 13.6392 14.0571 10.9511 14.0571 7.64367C14.0571 6.04187 13.4314 4.53694 12.2947 3.40219C11.158 2.26743 9.6424 1.6447 8.03295 1.6447C4.71325 1.64124 2.00882 4.32936 2.00882 7.63675C2.00882 8.76804 2.32515 9.87165 2.93 10.8265L3.07252 11.0548L2.4642 13.2655L4.74453 12.6705Z" fill="url(#paint1_linear_2059_3879)"/>
<path id="Vector_4" fill-rule="evenodd" clip-rule="evenodd" d="M6.22172 4.62C6.08615 4.31901 5.94363 4.3121 5.81501 4.30864C5.71073 4.30518 5.58906 4.30518 5.4674 4.30518C5.34573 4.30518 5.15107 4.35015 4.98422 4.53005C4.81736 4.70995 4.35156 5.14586 4.35156 6.03498C4.35156 6.92064 5.0016 7.77862 5.09198 7.89971C5.18236 8.0208 6.34686 9.89936 8.18573 10.6224C9.71523 11.2244 10.0281 11.1033 10.3583 11.0722C10.6885 11.041 11.429 10.6363 11.5819 10.2142C11.7314 9.79212 11.7314 9.43232 11.6862 9.35621C11.641 9.28009 11.5193 9.23512 11.3386 9.14517C11.1578 9.05522 10.2679 8.61931 10.1011 8.55704C9.93422 8.49822 9.81256 8.46709 9.69437 8.64699C9.57271 8.82688 9.22509 9.23166 9.12081 9.35275C9.01653 9.47383 8.90876 9.48767 8.72801 9.39772C8.54725 9.30777 7.96326 9.11749 7.27151 8.50168C6.73271 8.02426 6.36772 7.43266 6.26343 7.25276C6.15915 7.07286 6.253 6.97599 6.34338 6.88604C6.42333 6.80647 6.52414 6.67501 6.61452 6.57122C6.7049 6.46743 6.73619 6.39132 6.79528 6.27023C6.85437 6.14915 6.82656 6.04536 6.78138 5.95541C6.73619 5.86892 6.38162 4.97634 6.22172 4.62Z" fill="white"/>
</g>
<defs>
<linearGradient id="paint0_linear_2059_3879" x1="8.00319" y1="14.7283" x2="8.00319" y2="0.675534" gradientUnits="userSpaceOnUse">
<stop stop-color="#20B038"/>
<stop offset="1" stop-color="#60D66A"/>
</linearGradient>
<linearGradient id="paint1_linear_2059_3879" x1="8.00309" y1="14.9801" x2="8.00309" y2="0.423462" gradientUnits="userSpaceOnUse">
<stop stop-color="#F9F9F9"/>
<stop offset="1" stop-color="white"/>
</linearGradient>
</defs>
</svg>
