<svg width="22" height="22" viewBox="0 0 22 22" fill="none" xmlns="http://www.w3.org/2000/svg">
<g clip-path="url(#clip0_64_4617)">
<path d="M10.7939 1.90842C13.6255 1.90842 13.9609 1.92084 15.0745 1.97051C16.1094 2.01605 16.6683 2.18993 17.0409 2.33482C17.5336 2.52526 17.8896 2.75709 18.258 3.12554C18.6306 3.49813 18.8583 3.85001 19.0487 4.34266C19.1936 4.71525 19.3675 5.27827 19.4131 6.30909C19.4627 7.42686 19.4752 7.76219 19.4752 10.5897C19.4752 13.4214 19.4627 13.7567 19.4131 14.8703C19.3675 15.9053 19.1936 16.4642 19.0487 16.8368C18.8583 17.3294 18.6265 17.6854 18.258 18.0539C17.8854 18.4265 17.5336 18.6542 17.0409 18.8446C16.6683 18.9895 16.1053 19.1634 15.0745 19.2089C13.9567 19.2586 13.6214 19.271 10.7939 19.271C7.96219 19.271 7.62686 19.2586 6.51324 19.2089C5.47827 19.1634 4.91939 18.9895 4.5468 18.8446C4.05416 18.6542 3.69813 18.4223 3.32968 18.0539C2.95709 17.6813 2.7294 17.3294 2.53896 16.8368C2.39407 16.4642 2.2202 15.9012 2.17466 14.8703C2.12498 13.7526 2.11256 13.4172 2.11256 10.5897C2.11256 7.75805 2.12498 7.42272 2.17466 6.30909C2.2202 5.27413 2.39407 4.71525 2.53896 4.34266C2.7294 3.85001 2.96123 3.49399 3.32968 3.12554C3.70227 2.75295 4.05416 2.52526 4.5468 2.33482C4.91939 2.18993 5.48241 2.01605 6.51324 1.97051C7.62686 1.92084 7.96219 1.90842 10.7939 1.90842ZM10.7939 -6.10352e-05C7.91665 -6.10352e-05 7.55648 0.0123586 6.4263 0.0620369C5.30026 0.111715 4.5261 0.293869 3.85544 0.554681C3.1558 0.827912 2.5638 1.18808 1.97594 1.78008C1.38394 2.36794 1.02377 2.95994 0.750543 3.65544C0.489731 4.33024 0.307577 5.10025 0.257899 6.2263C0.20822 7.36062 0.195801 7.72079 0.195801 10.598C0.195801 13.4752 0.20822 13.8354 0.257899 14.9656C0.307577 16.0916 0.489731 16.8658 0.750543 17.5364C1.02377 18.236 1.38394 18.828 1.97594 19.4159C2.5638 20.0038 3.1558 20.3681 3.8513 20.6372C4.5261 20.898 5.29612 21.0801 6.42216 21.1298C7.55234 21.1795 7.91251 21.1919 10.7897 21.1919C13.6669 21.1919 14.0271 21.1795 15.1573 21.1298C16.2833 21.0801 17.0575 20.898 17.7281 20.6372C18.4236 20.3681 19.0156 20.0038 19.6035 19.4159C20.1914 18.828 20.5557 18.236 20.8248 17.5406C21.0856 16.8658 21.2677 16.0957 21.3174 14.9697C21.3671 13.8395 21.3795 13.4793 21.3795 10.6021C21.3795 7.72493 21.3671 7.36476 21.3174 6.23458C21.2677 5.10853 21.0856 4.33438 20.8248 3.66372C20.5639 2.95994 20.2038 2.36794 19.6118 1.78008C19.0239 1.19222 18.4319 0.827912 17.7364 0.558821C17.0616 0.298009 16.2916 0.115855 15.1656 0.0661768C14.0312 0.0123586 13.6711 -6.10352e-05 10.7939 -6.10352e-05Z" fill="white"/>
<path d="M10.794 5.15405C7.78848 5.15405 5.3501 7.59243 5.3501 10.598C5.3501 13.6035 7.78848 16.0419 10.794 16.0419C13.7996 16.0419 16.2379 13.6035 16.2379 10.598C16.2379 7.59243 13.7996 5.15405 10.794 5.15405ZM10.794 14.1293C8.84414 14.1293 7.26272 12.5479 7.26272 10.598C7.26272 8.6481 8.84414 7.06667 10.794 7.06667C12.7439 7.06667 14.3253 8.6481 14.3253 10.598C14.3253 12.5479 12.7439 14.1293 10.794 14.1293Z" fill="white"/>
<path d="M17.724 4.93879C17.724 5.64256 17.1527 6.20973 16.4531 6.20973C15.7493 6.20973 15.1821 5.63842 15.1821 4.93879C15.1821 4.23501 15.7534 3.66785 16.4531 3.66785C17.1527 3.66785 17.724 4.23915 17.724 4.93879Z" fill="white"/>
</g>
<defs>
<clipPath id="clip0_64_4617">
<rect width="21.1961" height="21.1961" fill="white" transform="translate(0.195801 -6.10352e-05)"/>
</clipPath>
</defs>
</svg>
