<svg width="22" height="22" viewBox="0 0 22 22" fill="none" xmlns="http://www.w3.org/2000/svg">
<g id="Instagram - Negative" clip-path="url(#clip0_23_742)">
<path id="Vector" d="M10.7943 1.90848C13.626 1.90848 13.9613 1.9209 15.075 1.97058C16.1099 2.01611 16.6688 2.18999 17.0414 2.33488C17.534 2.52532 17.8901 2.75715 18.2585 3.1256C18.6311 3.49819 18.8588 3.85008 19.0492 4.34272C19.1941 4.71531 19.368 5.27833 19.4135 6.30915C19.4632 7.42692 19.4756 7.76225 19.4756 10.5898C19.4756 13.4214 19.4632 13.7568 19.4135 14.8704C19.368 15.9054 19.1941 16.4642 19.0492 16.8368C18.8588 17.3295 18.627 17.6855 18.2585 18.054C17.8859 18.4265 17.534 18.6542 17.0414 18.8447C16.6688 18.9896 16.1058 19.1634 15.075 19.209C13.9572 19.2587 13.6219 19.2711 10.7943 19.2711C7.96268 19.2711 7.62735 19.2587 6.51372 19.209C5.47876 19.1634 4.91988 18.9896 4.54729 18.8447C4.05464 18.6542 3.69862 18.4224 3.33017 18.054C2.95758 17.6814 2.72989 17.3295 2.53945 16.8368C2.39456 16.4642 2.22068 15.9012 2.17514 14.8704C2.12547 13.7526 2.11305 13.4173 2.11305 10.5898C2.11305 7.75811 2.12547 7.42278 2.17514 6.30915C2.22068 5.27419 2.39456 4.71531 2.53945 4.34272C2.72989 3.85008 2.96172 3.49405 3.33017 3.1256C3.70276 2.75301 4.05464 2.52532 4.54729 2.33488C4.91988 2.18999 5.4829 2.01611 6.51372 1.97058C7.62735 1.9209 7.96268 1.90848 10.7943 1.90848ZM10.7943 0C7.91714 0 7.55697 0.0124196 6.42679 0.062098C5.30074 0.111776 4.52659 0.29393 3.85593 0.554742C3.15629 0.827973 2.56429 1.18814 1.97643 1.78014C1.38443 2.368 1.02426 2.96 0.751031 3.6555C0.49022 4.3303 0.308065 5.10031 0.258387 6.22636C0.208709 7.36068 0.196289 7.72085 0.196289 10.5981C0.196289 13.4753 0.208709 13.8354 0.258387 14.9656C0.308065 16.0917 0.49022 16.8658 0.751031 17.5365C1.02426 18.2361 1.38443 18.8281 1.97643 19.416C2.56429 20.0038 3.15629 20.3681 3.85179 20.6372C4.52659 20.898 5.2966 21.0802 6.42265 21.1299C7.55283 21.1796 7.913 21.192 10.7902 21.192C13.6674 21.192 14.0276 21.1796 15.1578 21.1299C16.2838 21.0802 17.058 20.898 17.7286 20.6372C18.4241 20.3681 19.0161 20.0038 19.604 19.416C20.1918 18.8281 20.5561 18.2361 20.8252 17.5406C21.0861 16.8658 21.2682 16.0958 21.3179 14.9698C21.3676 13.8396 21.38 13.4794 21.38 10.6022C21.38 7.72499 21.3676 7.36482 21.3179 6.23464C21.2682 5.10859 21.0861 4.33444 20.8252 3.66378C20.5644 2.96 20.2043 2.368 19.6123 1.78014C19.0244 1.19228 18.4324 0.827973 17.7369 0.558882C17.0621 0.29807 16.2921 0.115916 15.166 0.0662379C14.0317 0.0124196 13.6716 0 10.7943 0Z" fill="#231F20"/>
<path id="Vector_2" d="M10.7945 5.1543C7.78897 5.1543 5.35059 7.59268 5.35059 10.5982C5.35059 13.6038 7.78897 16.0421 10.7945 16.0421C13.8001 16.0421 16.2384 13.6038 16.2384 10.5982C16.2384 7.59268 13.8001 5.1543 10.7945 5.1543ZM10.7945 14.1295C8.84463 14.1295 7.2632 12.5481 7.2632 10.5982C7.2632 8.64834 8.84463 7.06691 10.7945 7.06691C12.7444 7.06691 14.3258 8.64834 14.3258 10.5982C14.3258 12.5481 12.7444 14.1295 10.7945 14.1295Z" fill="#231F20"/>
<path id="Vector_3" d="M17.7245 4.93891C17.7245 5.64269 17.1532 6.20985 16.4536 6.20985C15.7498 6.20985 15.1826 5.63855 15.1826 4.93891C15.1826 4.23513 15.7539 3.66797 16.4536 3.66797C17.1532 3.66797 17.7245 4.23927 17.7245 4.93891Z" fill="#231F20"/>
</g>
<defs>
<clipPath id="clip0_23_742">
<rect width="21.1961" height="21.1961" fill="white" transform="translate(0.196289)"/>
</clipPath>
</defs>
</svg>
