<svg width="195" height="72" viewBox="0 0 195 72" fill="none" xmlns="http://www.w3.org/2000/svg">
<g clip-path="url(#clip0_33_2699)">
<path d="M71.7508 0V72H0V0H71.7508ZM38.0036 33.1017C37.6311 26.1336 28.4844 24.1154 24.7145 29.758C22.0071 33.811 22.4875 42.0269 27.0555 44.6217C29.2384 45.8619 31.8272 45.7947 33.8217 44.2358C33.998 44.0969 34.787 43.1298 34.9633 43.3236V45.1541H38.0036V35.2388H31.1629V38.1371C32.3654 38.5627 33.6225 38.0197 34.8113 38.2912C34.5088 40.9393 32.4733 43.139 29.6762 42.1459C25.6539 40.7181 25.5734 31.5488 29.4938 29.9776C31.017 29.3675 32.5949 29.6985 33.5967 31.0424C34.0771 31.6876 34.1652 32.4503 34.5848 33.1017H38.0051H38.0036ZM69.3185 32.339C69.2517 24.4068 55.9185 24.5181 56.867 32.8592C57.3596 37.1868 62.2651 36.8069 64.9573 38.3171C67.1159 39.5283 66.2296 42.0925 63.9114 42.3961C62.0386 42.6402 60.6872 42.0575 59.9666 40.2742C59.8328 39.9447 59.9788 39.4932 59.5911 39.2736L56.6466 39.2232C56.0599 39.4154 56.7242 41.4793 56.9294 41.9507C59.1093 46.9434 68.107 46.6902 69.4325 41.2246C70.2048 38.0395 68.5129 35.9237 65.6672 34.8605C64.0588 34.2595 59.959 33.84 60.2053 31.5153C60.5063 28.6719 65.9986 28.9342 65.8511 32.0827L66.0502 32.3405H69.3185V32.339ZM8.5128 26.8475H2.1282V45.1525H8.5128V39.3559H16.2655V32.6441H8.5128V26.8475ZM54.8772 45.1525L51.39 37.6154C52.2306 37.0495 52.9329 36.6285 53.4847 35.7453C54.8665 33.5349 54.7875 29.7839 52.6714 28.0693C52.1272 27.6285 50.601 26.8475 49.9367 26.8475H41.4999V45.1525H44.8442V38.2881H48.0365L51.2288 45.1525H54.8772Z" fill="white"/>
<path d="M44.8438 35.2373V29.9745L45.0718 29.7457H48.4161C48.4647 29.7457 49.2415 29.9684 49.3631 30.0157C51.1797 30.7434 51.3241 34.1084 49.5942 34.8925C49.4635 34.952 48.6228 35.2357 48.5681 35.2357H44.8438V35.2373Z" fill="white"/>
</g>
<path d="M130.576 37.9946V40.3092C130.576 40.5778 130.568 40.8442 130.551 41.1085C130.538 41.3727 130.521 41.5774 130.5 41.7223H130.576C130.763 41.4282 131.018 41.1788 131.341 40.9742C131.664 40.7653 132.082 40.6609 132.596 40.6609C133.395 40.6609 134.042 40.9742 134.539 41.6008C135.036 42.2274 135.285 43.146 135.285 44.3566C135.285 45.1707 135.17 45.8549 134.941 46.409C134.711 46.9589 134.391 47.3745 133.979 47.6558C133.567 47.9329 133.089 48.0714 132.545 48.0714C132.023 48.0714 131.611 47.9777 131.309 47.7901C131.007 47.6025 130.763 47.3915 130.576 47.1571H130.442L130.117 47.9436H128.633V37.9946H130.576ZM131.972 42.221C131.632 42.221 131.362 42.2913 131.162 42.432C130.963 42.5727 130.816 42.7837 130.723 43.065C130.634 43.3463 130.585 43.7023 130.576 44.1328V44.3438C130.576 45.0386 130.678 45.5714 130.882 45.9423C131.086 46.3088 131.458 46.4921 131.997 46.4921C132.396 46.4921 132.713 46.3067 132.947 45.9359C133.184 45.565 133.303 45.0301 133.303 44.331C133.303 43.6319 133.184 43.1055 132.947 42.7517C132.709 42.3979 132.384 42.221 131.972 42.221Z" fill="white"/>
<path d="M123.661 40.6482C124.617 40.6482 125.35 40.8571 125.86 41.2748C126.369 41.6925 126.624 42.3277 126.624 43.1802V47.9436H125.267L124.891 46.9718H124.84C124.636 47.2275 124.428 47.4364 124.216 47.5984C124.003 47.7604 123.759 47.8797 123.483 47.9564C123.207 48.0332 122.871 48.0715 122.476 48.0715C122.056 48.0715 121.678 47.9905 121.342 47.8286C121.011 47.6666 120.749 47.4193 120.558 47.0869C120.367 46.7501 120.271 46.3239 120.271 45.8081C120.271 45.0493 120.537 44.4909 121.068 44.1329C121.599 43.7706 122.395 43.5702 123.457 43.5318L124.693 43.4935V43.1802C124.693 42.8051 124.596 42.5301 124.4 42.3554C124.205 42.1806 123.933 42.0932 123.585 42.0932C123.241 42.0932 122.903 42.1422 122.572 42.2403C122.24 42.3383 121.909 42.4619 121.578 42.6111L120.934 41.294C121.312 41.0936 121.735 40.9359 122.202 40.8208C122.674 40.7057 123.16 40.6482 123.661 40.6482ZM124.693 44.6316L123.942 44.6572C123.313 44.6742 122.875 44.7872 122.629 44.9961C122.387 45.2049 122.266 45.4799 122.266 45.8209C122.266 46.1193 122.353 46.3324 122.527 46.4603C122.701 46.5839 122.929 46.6457 123.209 46.6457C123.625 46.6457 123.976 46.5221 124.26 46.2748C124.549 46.0276 124.693 45.6759 124.693 45.2198V44.6316Z" fill="white"/>
<path d="M118.699 47.9436H116.756V37.9946H118.699V47.9436Z" fill="white"/>
<path d="M115.239 45.8208C115.239 46.3067 115.125 46.7181 114.895 47.0548C114.67 47.3873 114.332 47.6409 113.882 47.8157C113.432 47.9862 112.871 48.0714 112.2 48.0714C111.703 48.0714 111.276 48.0395 110.919 47.9755C110.567 47.9116 110.21 47.805 109.849 47.6558V46.0446C110.235 46.2193 110.649 46.3643 111.091 46.4794C111.537 46.5902 111.928 46.6456 112.264 46.6456C112.642 46.6456 112.911 46.5902 113.073 46.4794C113.238 46.3643 113.321 46.2151 113.321 46.0318C113.321 45.9124 113.287 45.8059 113.219 45.7121C113.156 45.614 113.015 45.5053 112.799 45.386C112.582 45.2624 112.242 45.1025 111.779 44.9064C111.333 44.7189 110.966 44.5292 110.677 44.3374C110.392 44.1456 110.18 43.9197 110.04 43.6596C109.904 43.3954 109.836 43.0607 109.836 42.6558C109.836 41.9951 110.091 41.4985 110.601 41.166C111.115 40.8293 111.801 40.6609 112.659 40.6609C113.1 40.6609 113.521 40.7056 113.92 40.7952C114.324 40.8847 114.738 41.0275 115.163 41.2236L114.577 42.6302C114.224 42.4768 113.891 42.351 113.576 42.253C113.266 42.1549 112.95 42.1059 112.627 42.1059C112.342 42.1059 112.128 42.1443 111.983 42.221C111.839 42.2977 111.767 42.415 111.767 42.5727C111.767 42.6878 111.803 42.7901 111.875 42.8796C111.951 42.9691 112.096 43.0693 112.308 43.1801C112.525 43.2867 112.841 43.4252 113.258 43.5957C113.661 43.7619 114.012 43.9367 114.309 44.12C114.606 44.299 114.836 44.5228 114.997 44.7914C115.159 45.0556 115.239 45.3988 115.239 45.8208Z" fill="white"/>
<path d="M108.753 45.8208C108.753 46.3067 108.638 46.7181 108.409 47.0548C108.184 47.3873 107.846 47.6409 107.396 47.8157C106.945 47.9862 106.385 48.0714 105.714 48.0714C105.217 48.0714 104.79 48.0395 104.433 47.9755C104.08 47.9116 103.723 47.805 103.362 47.6558V46.0446C103.749 46.2193 104.163 46.3643 104.605 46.4794C105.051 46.5902 105.442 46.6456 105.777 46.6456C106.155 46.6456 106.425 46.5902 106.586 46.4794C106.752 46.3643 106.835 46.2151 106.835 46.0318C106.835 45.9124 106.801 45.8059 106.733 45.7121C106.669 45.614 106.529 45.5053 106.312 45.386C106.096 45.2624 105.756 45.1025 105.293 44.9064C104.847 44.7189 104.48 44.5292 104.191 44.3374C103.906 44.1456 103.694 43.9197 103.554 43.6596C103.418 43.3954 103.35 43.0607 103.35 42.6558C103.35 41.9951 103.604 41.4985 104.114 41.166C104.628 40.8293 105.314 40.6609 106.172 40.6609C106.614 40.6609 107.035 40.7056 107.434 40.7952C107.837 40.8847 108.252 41.0275 108.676 41.2236L108.09 42.6302C107.738 42.4768 107.404 42.351 107.09 42.253C106.78 42.1549 106.463 42.1059 106.14 42.1059C105.856 42.1059 105.641 42.1443 105.497 42.221C105.352 42.2977 105.28 42.415 105.28 42.5727C105.28 42.6878 105.316 42.7901 105.389 42.8796C105.465 42.9691 105.609 43.0693 105.822 43.1801C106.038 43.2867 106.355 43.4252 106.771 43.5957C107.175 43.7619 107.525 43.9367 107.823 44.12C108.12 44.299 108.349 44.5228 108.511 44.7914C108.672 45.0556 108.753 45.3988 108.753 45.8208Z" fill="white"/>
<path d="M101.737 40.7952V47.9436H99.7938V40.7952H101.737ZM100.769 37.9946C101.058 37.9946 101.306 38.0628 101.514 38.1992C101.722 38.3314 101.826 38.5807 101.826 38.9473C101.826 39.3096 101.722 39.5611 101.514 39.7018C101.306 39.8382 101.058 39.9064 100.769 39.9064C100.476 39.9064 100.225 39.8382 100.017 39.7018C99.8129 39.5611 99.7109 39.3096 99.7109 38.9473C99.7109 38.5807 99.8129 38.3314 100.017 38.1992C100.225 38.0628 100.476 37.9946 100.769 37.9946Z" fill="white"/>
<path d="M94.4723 47.9437L93.9244 45.4437C93.8946 45.2945 93.8458 45.0749 93.7778 44.7851C93.7098 44.491 93.6355 44.1777 93.5548 43.8452C93.4783 43.5084 93.4061 43.1973 93.3381 42.9117C93.2744 42.6261 93.2277 42.4172 93.198 42.2851H93.1406C93.1109 42.4172 93.0642 42.6261 93.0004 42.9117C92.9367 43.1973 92.8645 43.5084 92.7838 43.8452C92.7073 44.1819 92.6351 44.4995 92.5672 44.7979C92.4992 45.092 92.4482 45.3158 92.4142 45.4692L91.8408 47.9437H89.7508L87.7246 40.7953H89.6616L90.4836 43.9603C90.5388 44.1819 90.5919 44.4462 90.6429 44.7531C90.6939 45.0558 90.7385 45.3499 90.7767 45.6355C90.8192 45.9168 90.851 46.1406 90.8723 46.3068H90.9232C90.9317 46.1832 90.9487 46.0191 90.9742 45.8145C91.004 45.6099 91.0358 45.3989 91.0698 45.1815C91.108 44.9599 91.142 44.7616 91.1717 44.5869C91.2057 44.4078 91.2312 44.2864 91.2482 44.2224L92.1275 40.7953H94.2684L95.1031 44.2224C95.1329 44.346 95.1711 44.5421 95.2178 44.8107C95.2688 45.0792 95.3134 45.3563 95.3516 45.6419C95.3899 45.9232 95.4111 46.1449 95.4154 46.3068H95.4663C95.4833 46.1619 95.5131 45.9467 95.5555 45.6611C95.598 45.3755 95.6469 45.0771 95.7021 44.7659C95.7616 44.4505 95.821 44.1819 95.8805 43.9603L96.7343 40.7953H98.6395L96.5878 47.9437H94.4723Z" fill="white"/>
<path d="M87.0821 45.3477C87.0821 45.9018 86.9483 46.3835 86.6806 46.7927C86.413 47.2019 86.0222 47.5173 85.5082 47.739C84.9985 47.9606 84.3783 48.0715 83.6477 48.0715C83.3248 48.0715 83.0084 48.0502 82.6983 48.0075C82.3924 47.9649 82.0972 47.9031 81.8126 47.8221C81.5323 47.7369 81.2646 47.6324 81.0098 47.5088V45.6674C81.4515 45.8634 81.9103 46.0403 82.3861 46.1981C82.8618 46.3558 83.3333 46.4346 83.8006 46.4346C84.1234 46.4346 84.3826 46.392 84.578 46.3068C84.7776 46.2215 84.922 46.1043 85.0112 45.9551C85.1004 45.8059 85.145 45.6354 85.145 45.4436C85.145 45.2091 85.0665 45.0088 84.9093 44.8425C84.7521 44.6763 84.5355 44.5207 84.2594 44.3758C83.9875 44.2309 83.6795 44.0753 83.3355 43.909C83.1188 43.8067 82.8831 43.6831 82.6282 43.5382C82.3733 43.389 82.1312 43.2078 81.9018 42.9947C81.6724 42.7816 81.4834 42.5237 81.3347 42.221C81.1903 41.9141 81.1181 41.5476 81.1181 41.1213C81.1181 40.5629 81.2455 40.0855 81.5004 39.6891C81.7553 39.2926 82.1185 38.99 82.59 38.7811C83.0657 38.568 83.6264 38.4614 84.2721 38.4614C84.7564 38.4614 85.2173 38.519 85.6548 38.6341C86.0966 38.7449 86.5575 38.9069 87.0375 39.12L86.4003 40.6609C85.9713 40.4862 85.5868 40.3519 85.247 40.2581C84.9072 40.1601 84.561 40.1111 84.2084 40.1111C83.962 40.1111 83.7518 40.1515 83.5776 40.2325C83.4034 40.3093 83.2717 40.4201 83.1825 40.565C83.0933 40.7057 83.0487 40.8698 83.0487 41.0574C83.0487 41.279 83.1125 41.4666 83.2399 41.62C83.3716 41.7692 83.567 41.9141 83.8261 42.0548C84.0895 42.1955 84.4165 42.3596 84.8073 42.5471C85.2831 42.7731 85.6888 43.0096 86.0244 43.2569C86.3642 43.4998 86.6254 43.7876 86.8081 44.12C86.9907 44.4483 87.0821 44.8575 87.0821 45.3477Z" fill="white"/>
<path d="M190.369 23.8087V25.8356C190.369 26.1894 190.356 26.5261 190.331 26.8458C190.31 27.1655 190.293 27.3914 190.28 27.5236H190.382C190.535 27.2763 190.715 27.076 190.924 26.9226C191.136 26.7691 191.37 26.6561 191.624 26.5837C191.879 26.5112 192.153 26.475 192.446 26.475C192.96 26.475 193.409 26.5666 193.791 26.7499C194.173 26.9289 194.47 27.2124 194.683 27.6003C194.895 27.9839 195.001 28.4827 195.001 29.0965V33.7576H193.058V29.5824C193.058 29.0709 192.965 28.6851 192.778 28.4251C192.591 28.1651 192.302 28.0351 191.911 28.0351C191.52 28.0351 191.212 28.1267 190.987 28.31C190.762 28.4891 190.603 28.7555 190.509 29.1093C190.416 29.4588 190.369 29.8872 190.369 30.3944V33.7576H188.426V23.8087H190.369Z" fill="white"/>
<path d="M184.601 33.8855C183.896 33.8855 183.295 33.7576 182.798 33.5019C182.301 33.2419 181.923 32.8412 181.664 32.2998C181.405 31.7585 181.275 31.0658 181.275 30.2218C181.275 29.348 181.422 28.6361 181.715 28.0862C182.012 27.5321 182.422 27.125 182.945 26.865C183.472 26.605 184.081 26.475 184.773 26.475C185.266 26.475 185.691 26.524 186.048 26.622C186.409 26.7158 186.723 26.8288 186.991 26.9609L186.417 28.4699C186.112 28.3463 185.827 28.2461 185.564 28.1694C185.3 28.0884 185.037 28.0479 184.773 28.0479C184.434 28.0479 184.151 28.1289 183.926 28.2908C183.701 28.4486 183.533 28.6873 183.423 29.007C183.312 29.3267 183.257 29.7273 183.257 30.209C183.257 30.6822 183.316 31.0743 183.435 31.3855C183.554 31.6967 183.726 31.929 183.952 32.0824C184.177 32.2316 184.451 32.3062 184.773 32.3062C185.177 32.3062 185.536 32.2529 185.85 32.1464C186.165 32.0355 186.471 31.8821 186.768 31.686V33.3548C186.471 33.5424 186.158 33.6767 185.831 33.7576C185.508 33.8429 185.098 33.8855 184.601 33.8855Z" fill="white"/>
<path d="M179.759 26.475C179.857 26.475 179.969 26.4814 180.097 26.4942C180.229 26.5027 180.335 26.5155 180.415 26.5325L180.269 28.3612C180.205 28.3399 180.114 28.3249 179.995 28.3164C179.88 28.3036 179.78 28.2972 179.695 28.2972C179.445 28.2972 179.201 28.3292 178.963 28.3931C178.729 28.4571 178.519 28.5615 178.332 28.7065C178.145 28.8471 177.996 29.0347 177.886 29.2691C177.78 29.4993 177.727 29.7828 177.727 30.1195V33.7576H175.783V26.6092H177.255L177.542 27.8113H177.637C177.778 27.5683 177.952 27.3467 178.16 27.1463C178.372 26.9417 178.612 26.7798 178.88 26.6604C179.152 26.5368 179.445 26.475 179.759 26.475Z" fill="white"/>
<path d="M170.814 26.4622C171.769 26.4622 172.502 26.671 173.012 27.0888C173.522 27.5065 173.776 28.1416 173.776 28.9941V33.7576H172.419L172.043 32.7857H171.992C171.788 33.0415 171.58 33.2504 171.368 33.4123C171.156 33.5743 170.911 33.6937 170.635 33.7704C170.359 33.8471 170.024 33.8855 169.628 33.8855C169.208 33.8855 168.83 33.8045 168.494 33.6425C168.163 33.4805 167.902 33.2333 167.711 32.9008C167.519 32.5641 167.424 32.1378 167.424 31.622C167.424 30.8633 167.689 30.3049 168.22 29.9468C168.751 29.5845 169.548 29.3842 170.61 29.3458L171.846 29.3074V28.9941C171.846 28.619 171.748 28.3441 171.553 28.1693C171.357 27.9946 171.085 27.9072 170.737 27.9072C170.393 27.9072 170.055 27.9562 169.724 28.0542C169.393 28.1523 169.061 28.2759 168.73 28.4251L168.086 27.1079C168.465 26.9076 168.887 26.7499 169.354 26.6348C169.826 26.5197 170.312 26.4622 170.814 26.4622ZM171.846 30.4456L171.094 30.4711C170.465 30.4882 170.028 30.6011 169.781 30.81C169.539 31.0189 169.418 31.2938 169.418 31.6348C169.418 31.9332 169.505 32.1463 169.679 32.2742C169.854 32.3978 170.081 32.4596 170.361 32.4596C170.778 32.4596 171.128 32.336 171.413 32.0888C171.701 31.8416 171.846 31.4899 171.846 31.0338V30.4456Z" fill="white"/>
<path d="M163.123 26.475C163.781 26.475 164.348 26.6029 164.824 26.8586C165.3 27.1101 165.667 27.4767 165.926 27.9584C166.185 28.44 166.315 29.0283 166.315 29.7231V30.6694H161.721C161.742 31.2193 161.906 31.6519 162.211 31.9673C162.522 32.2785 162.951 32.4341 163.499 32.4341C163.953 32.4341 164.369 32.3872 164.747 32.2934C165.125 32.1997 165.514 32.059 165.913 31.8714V33.3804C165.561 33.5552 165.191 33.683 164.805 33.764C164.422 33.845 163.957 33.8855 163.409 33.8855C162.696 33.8855 162.063 33.7534 161.511 33.4891C160.963 33.2248 160.531 32.822 160.217 32.2806C159.907 31.7393 159.752 31.0573 159.752 30.2346C159.752 29.3991 159.892 28.7043 160.172 28.1502C160.457 27.5918 160.852 27.174 161.358 26.897C161.863 26.6156 162.451 26.475 163.123 26.475ZM163.135 27.8625C162.757 27.8625 162.443 27.9839 162.192 28.2269C161.946 28.4699 161.804 28.8514 161.765 29.3714H164.493C164.488 29.0816 164.435 28.8237 164.333 28.5978C164.236 28.3718 164.087 28.1928 163.887 28.0607C163.692 27.9285 163.441 27.8625 163.135 27.8625Z" fill="white"/>
<path d="M158.669 31.6349C158.669 32.1208 158.554 32.5321 158.325 32.8689C158.1 33.2014 157.762 33.455 157.312 33.6298C156.861 33.8003 156.301 33.8855 155.63 33.8855C155.133 33.8855 154.706 33.8535 154.349 33.7896C153.996 33.7257 153.639 33.6191 153.278 33.4699V31.8586C153.665 32.0334 154.079 32.1783 154.521 32.2934C154.967 32.4043 155.358 32.4597 155.693 32.4597C156.071 32.4597 156.341 32.4043 156.502 32.2934C156.668 32.1783 156.751 32.0292 156.751 31.8459C156.751 31.7265 156.717 31.6199 156.649 31.5262C156.585 31.4281 156.445 31.3194 156.229 31.2001C156.012 31.0765 155.672 30.9166 155.209 30.7205C154.763 30.533 154.396 30.3433 154.107 30.1515C153.822 29.9597 153.61 29.7337 153.47 29.4737C153.334 29.2094 153.266 28.8748 153.266 28.4699C153.266 27.8092 153.52 27.3126 154.03 26.9801C154.544 26.6433 155.23 26.475 156.088 26.475C156.53 26.475 156.951 26.5197 157.35 26.6092C157.753 26.6988 158.168 26.8416 158.592 27.0376L158.006 28.4443C157.654 28.2908 157.32 28.1651 157.006 28.0671C156.696 27.969 156.379 27.92 156.056 27.92C155.772 27.92 155.557 27.9584 155.413 28.0351C155.268 28.1118 155.196 28.229 155.196 28.3868C155.196 28.5018 155.232 28.6041 155.305 28.6937C155.381 28.7832 155.525 28.8833 155.738 28.9942C155.955 29.1007 156.271 29.2393 156.687 29.4098C157.091 29.576 157.441 29.7508 157.739 29.9341C158.036 30.1131 158.265 30.3369 158.427 30.6054C158.588 30.8697 158.669 31.2129 158.669 31.6349Z" fill="white"/>
<path d="M148.927 26.475C149.586 26.475 150.153 26.6029 150.629 26.8586C151.104 27.1101 151.472 27.4767 151.731 27.9584C151.99 28.44 152.12 29.0283 152.12 29.7231V30.6694H147.526C147.547 31.2193 147.71 31.6519 148.016 31.9673C148.326 32.2785 148.755 32.4341 149.303 32.4341C149.758 32.4341 150.174 32.3872 150.552 32.2934C150.93 32.1997 151.319 32.059 151.718 31.8714V33.3804C151.366 33.5552 150.996 33.683 150.609 33.764C150.227 33.845 149.762 33.8855 149.214 33.8855C148.5 33.8855 147.867 33.7534 147.315 33.4891C146.767 33.2248 146.336 32.822 146.022 32.2806C145.712 31.7393 145.557 31.0573 145.557 30.2346C145.557 29.3991 145.697 28.7043 145.977 28.1502C146.262 27.5918 146.657 27.174 147.162 26.897C147.668 26.6156 148.256 26.475 148.927 26.475ZM148.94 27.8625C148.562 27.8625 148.248 27.9839 147.997 28.2269C147.751 28.4699 147.608 28.8514 147.57 29.3714H150.297C150.293 29.0816 150.24 28.8237 150.138 28.5978C150.04 28.3718 149.892 28.1928 149.692 28.0607C149.497 27.9285 149.246 27.8625 148.94 27.8625Z" fill="white"/>
<path d="M144.04 26.475C144.138 26.475 144.251 26.4814 144.378 26.4942C144.51 26.5027 144.616 26.5155 144.697 26.5325L144.55 28.3612C144.486 28.3399 144.395 28.3249 144.276 28.3164C144.162 28.3036 144.062 28.2972 143.977 28.2972C143.726 28.2972 143.482 28.3292 143.244 28.3931C143.01 28.4571 142.8 28.5615 142.613 28.7065C142.426 28.8471 142.278 29.0347 142.167 29.2691C142.061 29.4993 142.008 29.7828 142.008 30.1195V33.7576H140.064V26.6092H141.536L141.823 27.8113H141.919C142.059 27.5683 142.233 27.3467 142.441 27.1463C142.654 26.9417 142.894 26.7798 143.161 26.6604C143.433 26.5368 143.726 26.475 144.04 26.475Z" fill="white"/>
<path d="M135.61 26.475C136.417 26.475 137.027 26.6838 137.439 27.1016C137.855 27.5151 138.063 28.18 138.063 29.0965V33.7576H136.114V29.5824C136.114 29.0709 136.027 28.6851 135.852 28.4251C135.678 28.1651 135.409 28.0351 135.043 28.0351C134.529 28.0351 134.164 28.2205 133.947 28.5914C133.731 28.9579 133.622 29.4844 133.622 30.1707V33.7576H131.679V29.5824C131.679 29.2414 131.641 28.9558 131.564 28.7256C131.488 28.4955 131.371 28.3228 131.214 28.2077C131.057 28.0926 130.855 28.0351 130.608 28.0351C130.247 28.0351 129.963 28.1267 129.755 28.31C129.551 28.4891 129.404 28.7555 129.315 29.1093C129.23 29.4588 129.188 29.8872 129.188 30.3944V33.7576H127.244V26.6092H128.729L128.99 27.5236H129.098C129.243 27.2763 129.423 27.076 129.64 26.9225C129.861 26.7691 130.103 26.6561 130.366 26.5837C130.63 26.5112 130.897 26.475 131.169 26.475C131.692 26.475 132.133 26.5602 132.494 26.7307C132.86 26.9012 133.14 27.1655 133.336 27.5236H133.508C133.72 27.157 134.019 26.8906 134.406 26.7243C134.797 26.5581 135.198 26.475 135.61 26.475Z" fill="white"/>
<path d="M122.47 26.475C123.129 26.475 123.696 26.6029 124.172 26.8586C124.647 27.1101 125.015 27.4767 125.274 27.9584C125.533 28.44 125.663 29.0283 125.663 29.7231V30.6694H121.068C121.09 31.2193 121.253 31.6519 121.559 31.9673C121.869 32.2785 122.298 32.4341 122.846 32.4341C123.301 32.4341 123.717 32.3872 124.095 32.2934C124.473 32.1997 124.862 32.059 125.261 31.8714V33.3804C124.909 33.5552 124.539 33.683 124.152 33.764C123.77 33.845 123.305 33.8855 122.757 33.8855C122.043 33.8855 121.41 33.7534 120.858 33.4891C120.31 33.2248 119.879 32.822 119.565 32.2806C119.255 31.7393 119.1 31.0573 119.1 30.2346C119.1 29.3991 119.24 28.7043 119.52 28.1502C119.805 27.5918 120.2 27.174 120.705 26.897C121.211 26.6156 121.799 26.475 122.47 26.475ZM122.483 27.8625C122.105 27.8625 121.791 27.9839 121.54 28.2269C121.294 28.4699 121.151 28.8514 121.113 29.3714H123.84C123.836 29.0816 123.783 28.8237 123.681 28.5978C123.583 28.3718 123.435 28.1928 123.235 28.0607C123.039 27.9285 122.789 27.8625 122.483 27.8625Z" fill="white"/>
<path d="M113.767 28.5083H117.463V33.3549C116.974 33.5168 116.466 33.6469 115.94 33.7449C115.413 33.8387 114.816 33.8856 114.149 33.8856C113.223 33.8856 112.437 33.7023 111.792 33.3357C111.146 32.9691 110.655 32.4278 110.32 31.7116C109.984 30.9955 109.816 30.1153 109.816 29.0709C109.816 28.0905 110.003 27.2423 110.377 26.5262C110.755 25.8101 111.305 25.2559 112.027 24.8638C112.754 24.4716 113.639 24.2755 114.684 24.2755C115.177 24.2755 115.664 24.3288 116.144 24.4354C116.624 24.5419 117.059 24.6805 117.45 24.851L116.794 26.4367C116.509 26.2917 116.184 26.1702 115.819 26.0722C115.453 25.9742 115.071 25.9251 114.672 25.9251C114.098 25.9251 113.599 26.0573 113.174 26.3216C112.754 26.5858 112.427 26.9567 112.193 27.4341C111.964 27.9073 111.849 28.4657 111.849 29.1093C111.849 29.7189 111.932 30.2602 112.098 30.7334C112.263 31.2023 112.524 31.571 112.881 31.8395C113.238 32.1038 113.703 32.2359 114.277 32.2359C114.557 32.2359 114.793 32.2231 114.984 32.1976C115.179 32.1677 115.362 32.1379 115.532 32.1081V30.1579H113.767V28.5083Z" fill="white"/>
<path d="M105.152 31.1618C105.152 31.7159 105.019 32.1976 104.751 32.6068C104.483 33.016 104.093 33.3314 103.579 33.5531C103.069 33.7747 102.449 33.8856 101.718 33.8856C101.395 33.8856 101.079 33.8643 100.769 33.8216C100.463 33.779 100.168 33.7172 99.8829 33.6362C99.6026 33.551 99.3349 33.4465 99.0801 33.3229V31.4815C99.5219 31.6775 99.9806 31.8544 100.456 32.0121C100.932 32.1699 101.404 32.2487 101.871 32.2487C102.194 32.2487 102.453 32.2061 102.648 32.1208C102.848 32.0356 102.992 31.9184 103.082 31.7692C103.171 31.62 103.215 31.4495 103.215 31.2577C103.215 31.0232 103.137 30.8229 102.98 30.6566C102.822 30.4904 102.606 30.3348 102.33 30.1899C102.058 30.045 101.75 29.8894 101.406 29.7231C101.189 29.6208 100.953 29.4972 100.699 29.3523C100.444 29.2031 100.202 29.0219 99.9721 28.8088C99.7427 28.5957 99.5537 28.3378 99.405 28.0351C99.2606 27.7282 99.1884 27.3616 99.1884 26.9354C99.1884 26.377 99.3158 25.8996 99.5707 25.5031C99.8256 25.1067 100.189 24.8041 100.66 24.5952C101.136 24.3821 101.697 24.2755 102.342 24.2755C102.827 24.2755 103.288 24.3331 103.725 24.4481C104.167 24.559 104.628 24.721 105.108 24.9341L104.471 26.475C104.042 26.3003 103.657 26.166 103.317 26.0722C102.977 25.9742 102.631 25.9251 102.279 25.9251C102.032 25.9251 101.822 25.9656 101.648 26.0466C101.474 26.1234 101.342 26.2342 101.253 26.3791C101.164 26.5198 101.119 26.6839 101.119 26.8714C101.119 27.0931 101.183 27.2807 101.31 27.4341C101.442 27.5833 101.637 27.7282 101.896 27.8689C102.16 28.0096 102.487 28.1737 102.878 28.3612C103.353 28.5871 103.759 28.8237 104.095 29.0709C104.435 29.3139 104.696 29.6016 104.878 29.9341C105.061 30.2623 105.152 30.6716 105.152 31.1618Z" fill="white"/>
<path d="M93.7534 24.4098C94.5988 24.4098 95.2954 24.5121 95.8434 24.7167C96.3956 24.9213 96.8055 25.2303 97.0731 25.6438C97.3408 26.0573 97.4746 26.5795 97.4746 27.2103C97.4746 27.6366 97.3938 28.0096 97.2324 28.3293C97.071 28.649 96.8586 28.9196 96.5953 29.1413C96.3319 29.3629 96.0473 29.5441 95.7414 29.6848L98.4813 33.7577H96.2894L94.0657 30.1707H93.0143V33.7577H91.0391V24.4098H93.7534ZM93.6133 26.0338H93.0143V28.5594H93.6515C94.3057 28.5594 94.7729 28.4507 95.0533 28.2333C95.3379 28.0117 95.4802 27.6877 95.4802 27.2615C95.4802 26.8182 95.3273 26.5027 95.0214 26.3152C94.7198 26.1276 94.2504 26.0338 93.6133 26.0338Z" fill="white"/>
<path d="M85.1204 28.5083H88.8161V33.3549C88.3276 33.5168 87.8199 33.6469 87.2932 33.7449C86.7665 33.8387 86.1696 33.8856 85.5027 33.8856C84.5767 33.8856 83.7908 33.7023 83.1452 33.3357C82.4995 32.9691 82.0089 32.4278 81.6733 31.7116C81.3377 30.9955 81.1699 30.1153 81.1699 29.0709C81.1699 28.0905 81.3568 27.2423 81.7306 26.5262C82.1087 25.8101 82.6588 25.2559 83.3809 24.8638C84.1073 24.4716 84.993 24.2755 86.038 24.2755C86.5307 24.2755 87.0171 24.3288 87.4971 24.4354C87.9771 24.5419 88.4125 24.6805 88.8033 24.851L88.147 26.4367C87.8624 26.2917 87.5375 26.1702 87.1721 26.0722C86.8068 25.9742 86.4245 25.9251 86.0252 25.9251C85.4518 25.9251 84.9526 26.0573 84.5279 26.3216C84.1073 26.5858 83.7802 26.9567 83.5466 27.4341C83.3172 27.9073 83.2025 28.4657 83.2025 29.1093C83.2025 29.7189 83.2854 30.2602 83.451 30.7334C83.6167 31.2023 83.8779 31.571 84.2348 31.8395C84.5916 32.1038 85.0567 32.2359 85.6302 32.2359C85.9105 32.2359 86.1463 32.2231 86.3374 32.1976C86.5328 32.1677 86.7155 32.1379 86.8854 32.1081V30.1579H85.1204V28.5083Z" fill="white"/>
<defs>
<clipPath id="clip0_33_2699">
<rect width="71.7508" height="72" fill="white"/>
</clipPath>
</defs>
</svg>
