<svg width="158" height="76" viewBox="0 0 158 76" fill="none" xmlns="http://www.w3.org/2000/svg">
<g clip-path="url(#clip0_143_5677)">
<path d="M33.9986 1.27076C34.7392 1.90929 35.4601 2.57539 36.2221 3.19153L38.6177 0.480661L40.974 3.18378L44.6936 0.00488053L47.2696 4.21887L50.3704 2.28647L51.7036 5.64363L56.3301 3.75041L57.4201 8.51166L61.003 7.66817L61.2213 11.2423L66.1977 10.8755L65.7191 15.7198L69.3858 15.9808L68.5146 19.508L73.2989 20.5827L71.3967 25.1041L74.8019 26.4626L72.8395 29.5158L77.0722 31.9967L73.8469 35.728L76.6355 38.0454L73.8373 40.3317L77.0695 44.0742L72.8329 46.5762L74.7578 49.6919L71.353 50.9857L73.2731 55.5476L68.4448 56.6232L69.2994 60.1551L65.6754 60.3709L66.1112 65.2789L61.1335 64.8053L60.8947 68.3812L57.2904 67.5605L56.2424 72.2972L51.6402 70.3988L50.2385 73.7603L47.1194 71.8253L44.6037 75.9997L40.809 72.8101L38.4911 75.5679L36.1344 72.8109L32.3772 75.9967L29.8388 71.8262L26.6799 73.7173L25.369 70.3588L20.7412 72.2537L19.6512 67.4921L16.253 68.3265L16.088 68.2947L15.85 64.7188L10.8933 65.1493L11.3531 60.2839L7.6846 60.0247L8.55751 56.4957L3.77287 55.421L5.67371 50.9241L2.31612 49.5368L4.23225 46.466L0 44.0079L3.23401 40.2835L0.436674 37.9592L3.27418 35.6342L0.000873349 31.9308L4.27897 29.3909L2.31481 26.3334L5.71956 25.0189L3.79907 20.4565L8.62869 19.3818L7.7728 15.8494L11.4409 15.6337L10.9623 10.7894L15.9386 11.1993L16.2011 7.58206L19.7805 8.44277L20.8735 3.6643L25.4328 5.59799L26.8122 2.24342L29.9297 4.1784L32.4453 0.00444996C32.4846 -0.0243983 32.6432 0.103481 32.6838 0.134913C33.1213 0.470327 33.575 0.906065 33.9986 1.27119V1.27076ZM32.6624 0.651167L28.531 7.37065L21.18 4.31102L19.3901 11.9114L11.4845 11.2423L12.1837 19.0787L4.41041 20.7584L7.50774 28.0066L0.702172 32.0217L5.88943 37.9519L0.655885 43.8581L7.46189 47.914L4.36762 55.1162L12.0954 56.8402L11.3976 64.7192L19.3442 63.9872L21.0477 71.6518L28.4009 68.5999L32.4715 75.3091L38.4924 70.2021L44.4744 75.3543L48.5582 68.6568L55.869 71.6919L57.6816 64.0927L65.6317 64.7623L64.9077 56.9672L72.6626 55.2466L69.5675 47.9963L76.373 43.9842L71.1823 38.0824L76.415 32.1461L69.6138 28.094L72.7495 20.888L64.9771 19.1648L65.7173 11.3496L57.769 11.9997L56.0249 4.35321L48.673 7.41414L44.6032 0.694224L38.6177 5.81457L32.6624 0.651167Z" fill="black"/>
<path d="M37.1439 5.40408C37.5303 5.73777 37.9251 6.1494 38.3207 6.46113C38.4094 6.53088 38.5421 6.66953 38.6443 6.61355L44.4328 1.64047L48.4494 8.217L55.5248 5.21506L57.2532 12.6583L64.9784 12.0164L64.2819 19.6357L71.8342 21.3175L68.7875 28.3587L75.4145 32.2545L70.3477 38.0448L75.414 43.8144L68.7818 47.7395L71.7905 54.772L64.2404 56.456L64.891 64.0732L57.1637 63.3864L55.4584 70.8331L48.3236 67.8222L44.3665 74.3634L38.4928 69.3688L32.6212 74.3638L28.7287 67.8243L21.5293 70.7901L19.8197 63.3468L12.0971 64.0301L12.7906 56.3703L5.24089 54.6863L8.29411 47.6512L1.66016 43.7494L6.76837 37.9587L1.66059 32.189L8.30023 28.307L5.28412 21.2314L12.8827 19.5513L12.1836 11.9307L19.9083 12.6153L21.6162 5.17071L28.751 8.18169L32.7317 1.63745L32.9033 1.72658C34.2959 2.97523 35.7273 4.18169 37.143 5.40408H37.1439ZM69.2473 38.0026C69.2473 21.2809 55.4995 7.72529 38.5408 7.72529C21.5821 7.72529 7.8343 21.2809 7.8343 38.0026C7.8343 54.7242 21.5821 68.2799 38.5408 68.2799C55.4995 68.2799 69.2473 54.7242 69.2473 38.0026Z" fill="black"/>
<path d="M67.8896 38.0021C67.8896 53.9845 54.7496 66.9408 38.5407 66.9408C22.3318 66.9408 9.19141 53.9845 9.19141 38.0021C9.19141 22.0198 22.3314 9.06348 38.5407 9.06348C54.7501 9.06348 67.8896 22.0198 67.8896 38.0021ZM67.4512 38.0017C67.4512 22.2579 54.5073 9.49491 38.5403 9.49491C22.5733 9.49491 9.62939 22.2579 9.62939 38.0017C9.62939 53.7455 22.5733 66.5085 38.5403 66.5085C54.5073 66.5085 67.4512 53.7455 67.4512 38.0017Z" fill="black"/>
<path d="M33.0123 51.9096L38.4271 46.8082L19.0156 29.6271L27.7513 23.2129L49.682 23.2448L58.0303 29.7412L58.0141 29.7993L38.6013 46.8073H44.0598L41.4397 49.3907H43.7541V51.6512C43.7541 51.7197 43.7017 51.8402 43.6462 51.8889L38.7542 56.6674H33.0119V51.9096H33.0123ZM51.5531 26.8465C50.5282 26.0702 49.5064 25.2702 48.4462 24.549C42.0249 24.5688 35.6101 24.5175 29.1923 24.5046L22.7287 29.2396L22.6662 29.3416L39.0978 43.919L55.4129 29.8209C54.1382 28.8155 52.8465 27.8256 51.5531 26.846V26.8465ZM35.8071 49.3477V54.2131H41.1782V51.845L38.4275 51.7808L41.3092 49.3911L35.8071 49.3477Z" fill="black"/>
<path d="M29.7383 56.5812V49.4553L32.5767 47.1086V54.1054C32.3164 54.3491 32.0575 54.601 31.7911 54.8378C31.2116 55.3541 30.4929 56.0378 29.8907 56.4947C29.8453 56.5291 29.792 56.5618 29.7383 56.5812Z" fill="black"/>
<path d="M44.2773 56.6244V49.4339C44.3909 49.3986 44.5123 49.2935 44.604 49.2177C45.438 48.5262 46.252 47.8042 47.1157 47.1519V54.1486L44.2773 56.6244Z" fill="black"/>
<path d="M38.3794 11.6345L38.7313 15.5027L37.9916 15.5905L37.7746 12.8547L37.6859 12.7057L36.9362 15.6052C36.8711 15.7115 36.4641 15.6995 36.3174 15.7137L34.9786 12.9214L35.1991 15.7809C35.189 15.839 34.5698 15.8812 34.4952 15.8299L34.1484 11.9733C34.4829 11.9815 34.8602 11.864 35.1746 11.9294L36.5934 14.9012L37.3759 11.743C37.4414 11.6521 38.213 11.647 38.3794 11.634V11.6345Z" fill="black"/>
<path d="M29.3869 14.4274C29.1615 14.4632 28.8222 14.7435 28.6161 14.7611C28.517 14.7693 28.3484 14.6634 28.2262 14.647C26.4742 14.4115 25.8721 16.8821 27.5952 17.2929C28.4812 17.5039 29.2812 16.9553 29.3869 16.0645L27.8367 16.7521L27.5716 16.1497L29.9344 15.0371C30.5528 16.1549 29.8489 17.4871 28.7 17.9052C27.1559 18.4675 25.5598 17.3049 25.8611 15.6658C26.138 14.1579 28.2301 13.3441 29.3873 14.427L29.3869 14.4274Z" fill="black"/>
<path d="M56.0686 19.5517L55.4114 19.0591C55.331 17.1926 52.4258 17.175 52.6197 19.1422C52.7114 20.0701 53.6669 20.6027 54.5406 20.3263C54.5572 20.2544 54.5171 20.2389 54.4747 20.198C54.2979 20.0288 53.3389 19.3536 53.2944 19.2486C53.2459 19.1358 53.6354 18.728 53.6835 18.7366L55.7101 20.3474C54.8454 21.5134 53.0415 21.2822 52.2512 20.1515C51.1093 18.5175 52.5848 16.5119 54.5302 17.0432C55.5834 17.3308 56.3594 18.4826 56.0686 19.5513V19.5517Z" fill="black"/>
<path d="M16.0704 41.7693L16.2246 42.5435L13.8434 44.8694L16.6578 44.2227L16.7944 44.9155L12.9705 45.8601C12.9827 45.6457 12.7342 45.151 12.8364 44.9865L15.2403 42.7174L12.3818 43.4072L12.1836 42.6743L16.07 41.7697L16.0704 41.7693Z" fill="black"/>
<path d="M61.3103 37.507L65.2844 37.6788L65.2338 38.5334L62.2714 40.0043L62.4674 40.09L65.1534 40.2187V40.8861C65.1534 40.9076 65.0814 40.9571 65.0447 40.952L61.1797 40.7354V40.1111C61.1797 40.0792 61.2181 40.0086 61.2068 39.9591L64.1923 38.4099L63.908 38.3246L61.3103 38.2381V37.5061V37.507Z" fill="black"/>
<path d="M21.9214 57.2272L23.9078 55.1178L24.3899 55.5471L24.3891 55.6767L21.762 58.4724L21.1454 57.904L21.8332 54.6868L19.911 56.7342L19.8241 56.7372L19.3477 56.264L22.024 53.4412L22.6101 54.0099L21.9214 57.2272Z" fill="black"/>
<path d="M18.4946 25.1495C18.5221 25.1512 18.6465 25.2554 18.647 25.15L16.1348 23.686L16.4898 23.0793L19.864 25.0268C19.9247 25.1289 19.5417 25.6477 19.4548 25.7523H16.1798C16.1724 25.7523 16.1029 25.6602 16.071 25.7308L18.5413 27.2154C18.6072 27.3149 18.2151 27.7183 18.2099 27.8621L14.8047 25.8806L15.1977 25.1491C16.2806 25.1965 17.4177 25.0854 18.4946 25.1491V25.1495Z" fill="black"/>
<path d="M43.8892 13.8703C43.8892 15.0143 42.9486 15.9418 41.7883 15.9418C40.6281 15.9418 39.6875 15.0143 39.6875 13.8703C39.6875 12.7263 40.6281 11.7988 41.7883 11.7988C42.9486 11.7988 43.8892 12.7263 43.8892 13.8703ZM43.1695 13.8673C43.1695 13.1155 42.5516 12.5063 41.7892 12.5063C41.0268 12.5063 40.4089 13.1155 40.4089 13.8673C40.4089 14.6191 41.0268 15.2283 41.7892 15.2283C42.5516 15.2283 43.1695 14.6191 43.1695 13.8673Z" fill="black"/>
<path d="M17.3523 29.8604C17.3523 31.004 16.4121 31.931 15.2523 31.931C14.0925 31.931 13.1523 31.004 13.1523 29.8604C13.1523 28.7168 14.0925 27.7898 15.2523 27.7898C16.4121 27.7898 17.3523 28.7168 17.3523 29.8604ZM16.627 29.86C16.627 29.1082 16.0091 28.4989 15.2466 28.4989C14.4842 28.4989 13.8663 29.1082 13.8663 29.86C13.8663 30.6118 14.4842 31.221 15.2466 31.221C16.0091 31.221 16.627 30.6118 16.627 29.86Z" fill="black"/>
<path d="M51.6248 16.2213C51.6248 17.3645 50.6847 18.2915 49.5253 18.2915C48.3659 18.2915 47.4258 17.3645 47.4258 16.2213C47.4258 15.0781 48.3659 14.1511 49.5253 14.1511C50.6847 14.1511 51.6248 15.0781 51.6248 16.2213ZM50.9083 16.2174C50.9083 15.4661 50.2904 14.8568 49.5284 14.8568C48.7664 14.8568 48.1485 15.4661 48.1485 16.2174C48.1485 16.9688 48.7664 17.578 49.5284 17.578C50.2904 17.578 50.9083 16.9688 50.9083 16.2174Z" fill="black"/>
<path d="M16.506 47.9695L17.8767 47.4068L18.1479 48.0104L18.1239 48.0771L14.4973 49.6061C14.2615 48.7295 13.3807 47.8154 14.1916 46.9585C14.7746 46.3428 15.7183 46.5064 16.1995 47.1519C16.4641 46.7041 16.7012 46.1379 16.9934 45.7168C17.0143 45.6866 17.096 45.5807 17.1165 45.6022L17.4161 46.4315L16.506 47.9699V47.9695ZM15.982 48.2278C15.8427 47.743 15.4183 46.9404 14.8056 47.3913C14.3654 47.715 14.7056 48.2662 14.8502 48.6554L15.982 48.2274V48.2278Z" fill="black"/>
<path d="M58.5353 26.226C56.8563 26.0021 56.1777 23.6387 57.5523 22.5442C59.3287 21.1297 61.7331 23.2085 60.7431 25.1676L60.654 25.1926C60.6008 24.9958 60.2545 24.6897 60.223 24.5153C60.2043 24.4107 60.2706 24.2458 60.2601 24.0959C60.2182 23.491 59.723 22.9101 59.099 22.8288C57.4899 22.6182 56.8471 24.7973 58.3833 25.429C58.4811 25.469 58.6606 25.4699 58.7196 25.5069C58.8235 25.5719 59.0964 26.1015 59.2121 26.2268C58.9986 26.2066 58.7423 26.2544 58.5353 26.2268V26.226Z" fill="black"/>
<path d="M22.9245 21.5763C22.9424 21.6414 22.907 21.6478 22.8817 21.684C22.8459 21.7352 22.4468 22.1645 22.4136 22.1723L21.3407 21.8846C21.2948 21.898 20.7547 22.4758 20.6756 22.5658C20.5966 22.6558 20.3866 22.8823 20.3918 22.9714C20.4014 23.1415 20.8416 23.8011 20.8097 23.9479C20.6743 24.1055 20.5123 24.3152 20.3678 24.4582C20.332 24.4939 20.3289 24.5197 20.2621 24.5038L18.4805 20.7001C18.4888 20.608 18.8246 20.2317 18.9608 20.2928L22.9254 21.5768L22.9245 21.5763ZM20.6368 21.7326C20.6595 21.7029 20.6734 21.6698 20.6962 21.6401L19.3874 21.1458L19.9992 22.3509C20.0604 22.3647 20.0708 22.3423 20.1088 22.3092C20.2123 22.2192 20.5477 21.8485 20.6368 21.7326Z" fill="black"/>
<path d="M14.8535 39.9557L15.8758 40.3471L15.9391 41.1238L11.8828 39.6991L11.8854 39.129L15.7207 37.2061L15.7439 38.025L14.7666 38.5266L14.8535 39.9561V39.9557ZM14.1928 39.6814C14.1885 39.4666 14.1928 39.2508 14.1928 39.0355C14.1928 39.0222 14.1487 38.7535 14.0845 38.7996L12.8828 39.3163C12.888 39.3774 12.947 39.3839 12.9902 39.4037C13.3439 39.563 13.8094 39.6207 14.1714 39.7882C14.2784 39.7219 14.1928 39.6991 14.1928 39.6818V39.6814Z" fill="black"/>
<path d="M62.8335 27.0488L63.0378 27.6025L60.1536 30.7035L59.8326 29.9591L60.5614 29.1401L59.9955 27.8669L58.8645 27.8411L58.5156 27.1306L62.833 27.0493L62.8335 27.0488ZM62.0531 27.6904L60.6121 27.7765L61.0055 28.6803C61.0715 28.6979 61.078 28.663 61.1147 28.6381C61.4173 28.4322 61.764 27.9431 62.0531 27.6908V27.6904Z" fill="black"/>
<path d="M57.1945 51.3387C57.5111 51.2931 57.8085 51.3529 58.0757 51.5256L60.3036 53.25C60.3307 53.3379 59.97 53.718 59.8923 53.8175L57.6299 52.0944C57.0041 51.8365 56.446 52.4771 56.8565 53.0287L59.0643 54.8156L58.6255 55.3645C57.8098 54.7437 56.9639 54.143 56.226 53.4347C55.6941 52.6024 56.2033 51.4812 57.1941 51.3378L57.1945 51.3387Z" fill="black"/>
<path d="M43.8861 59.9827V60.6285H42.5542L42.4018 61.3174C43.8263 60.728 44.9201 62.5243 43.8874 63.5792C43.0241 64.461 41.5385 63.9534 41.4844 62.7383L42.1424 62.7172C42.2569 62.7689 42.2651 63.2098 42.6516 63.2882C43.252 63.41 43.5712 62.9786 43.4891 62.4188C43.4053 61.8466 42.5717 61.6731 42.2887 62.1794L41.6608 62.0477L42.0084 59.9827H43.8861Z" fill="black"/>
<path d="M32.6202 12.3181L32.7756 12.9653L31.3997 13.3545L31.6193 14.2096L32.9424 13.9147L33.1433 14.5554L31.8355 14.9037L32.0534 15.8062L33.4289 15.4212L33.6236 16.1058L31.5294 16.6673L30.4805 12.8787L32.6202 12.3181Z" fill="black"/>
<path d="M35.9366 63.944L36.8095 62.5662C35.7824 62.8323 35.1143 61.7756 35.4104 60.8633C35.9051 59.3378 38.2304 59.724 38.1658 61.3408C38.1322 62.1812 37.1125 63.2202 36.7012 63.944H35.937H35.9366ZM36.6243 60.5954C35.8685 60.713 35.9375 62.0232 36.7427 62.0077C37.7261 61.9888 37.599 60.4435 36.6243 60.5954Z" fill="black"/>
<path d="M17.329 51.2789C17.4111 51.1398 16.6364 50.2197 16.6836 50.0651C16.767 49.9867 17.1713 49.7064 17.2477 49.7542C17.3849 49.8399 17.8473 50.8307 17.9735 50.8518L18.7272 50.4195L18.7093 50.2967C18.5984 50.0492 18.0586 49.4145 18.032 49.1941C18.0233 49.1204 18.06 49.1411 18.087 49.1183C18.1272 49.0838 18.5525 48.8345 18.5809 48.8367L19.7324 50.618C18.8717 51.1777 17.9966 51.7262 17.1132 52.2502C16.9831 52.3273 16.5229 52.6326 16.4298 52.6563C16.3923 52.6657 16.3613 52.6713 16.3294 52.6438L15.2578 50.8543L15.7853 50.5103L16.5766 51.712L17.3294 51.278L17.329 51.2789Z" fill="black"/>
<path d="M55.1885 58.5993L53.4466 59.792L53.0549 59.2516L54.1929 58.4116L53.7043 57.7067L53.5794 57.7222L52.5523 58.468L52.1379 57.9173L53.2327 57.1595C53.2427 57.0962 52.7711 56.4606 52.7047 56.4279C52.6724 56.412 52.6514 56.4055 52.6204 56.4292L51.5484 57.2266L51.1523 56.6665L52.8811 55.4385L55.1885 58.5993Z" fill="black"/>
<path d="M62.0908 41.6456L61.9611 42.3677C61.2039 42.2759 61.0777 43.4398 61.8179 43.4897C62.5148 43.5371 62.5637 42.279 63.4323 42.1601C65.1921 41.9199 65.1152 44.6884 63.3633 44.4813L63.5427 43.7115C63.9886 43.7937 64.2475 43.144 63.8397 42.9141C63.3275 42.6251 63.0379 43.448 62.7742 43.7502C61.7091 44.9696 60.0734 43.5711 60.8231 42.257C61.0681 41.8282 61.5925 41.5117 62.0912 41.6452L62.0908 41.6456Z" fill="black"/>
<path d="M41.0488 59.9827V60.6931L39.5859 63.9439H38.8217L40.3064 60.6716H38.7344V59.9827H41.0488Z" fill="black"/>
<path d="M63.4518 45.4731L64.1007 45.7129L63.3614 47.7978L62.7073 47.582L62.9239 46.8092L59.875 45.7538L60.0925 45.1334L60.2353 45.1304L63.1671 46.1513L63.4518 45.4731Z" fill="black"/>
<path d="M12.7477 34.3656L12.6635 35.0941L15.8656 35.4029L15.9263 35.4597L15.8477 36.1266L12.5748 35.8274L12.5311 36.5598L11.832 36.5167L12.0508 34.2773L12.7477 34.3656Z" fill="black"/>
<path d="M62.095 50.3816L60.9313 52.2718L60.3531 51.9536C60.4042 51.7805 60.7811 51.4197 60.6579 51.2612L57.9453 49.669C57.9916 49.5579 58.2549 49.0412 58.354 49.0507L61.0758 50.6782L61.5099 50.0832L62.095 50.382V50.3816Z" fill="black"/>
<path d="M55.8254 55.4007C55.9599 55.5381 56.6294 56.2623 56.7232 56.3023C56.8075 56.3381 57.17 55.9131 57.2761 55.8524L57.7721 56.2808L56.1337 57.8291L55.6796 57.3404C55.7289 57.2238 56.225 56.8952 56.1813 56.7962L53.9766 54.5301L54.4757 53.9988C54.9482 54.4449 55.3731 54.937 55.8259 55.4007H55.8254Z" fill="black"/>
<path d="M18.5667 54.3061C18.4846 54.4456 18.9126 54.7802 18.9549 54.9235L18.4506 55.3731L17.082 53.6676L17.5781 53.2236L18.0956 53.7791L20.5986 51.8066L21.0291 52.3625L18.5667 54.3061Z" fill="black"/>
<path d="M46.2856 12.8357L45.3236 15.9104L46.5031 16.2815L46.3289 16.9687L44.418 16.3461L45.5433 12.6626L46.2856 12.8357Z" fill="black"/>
<path d="M64.1018 30.3604L64.2774 31.0475L61.1368 31.8695L61.4394 33.0712L60.7403 33.2443L60.2617 31.3515L64.1018 30.3604Z" fill="black"/>
<path d="M23.4085 21.1879L20.9941 18.2463C20.9317 18.1055 21.3902 17.867 21.4705 17.7468L23.5386 20.18C23.5718 20.2097 23.5936 20.1882 23.6242 20.1778C23.8259 20.1098 24.4098 19.4902 24.5277 19.4695C24.6399 19.4924 24.9879 19.9212 24.9595 19.9832L23.4085 21.1879Z" fill="black"/>
<path d="M34.191 59.9827V63.9439H33.4487V60.5424H32.75V59.9827H34.191Z" fill="black"/>
<path d="M12.3677 32.5653L12.2227 33.291L16.1458 34.0535L16.2909 33.3277L12.3677 32.5653Z" fill="black"/>
<path d="M65.1264 35.3762L61.1484 35.7021L61.2121 36.4578L65.1901 36.1319L65.1264 35.3762Z" fill="black"/>
<path d="M59.3227 47.0775L59.0039 47.751L62.6174 49.4139L62.9362 48.7405L59.3227 47.0775Z" fill="black"/>
<path d="M25.303 56.1852L23.0312 59.4214L23.6499 59.8436L25.9217 56.6074L25.303 56.1852Z" fill="black"/>
<path d="M57.8383 19.7885L54.9062 22.4731L55.4265 23.0256L58.3586 20.341L57.8383 19.7885Z" fill="black"/>
<path d="M52.7068 29.8863L38.7114 42.2854L24.8906 30.167L30.7875 25.8617L47.051 25.8394L52.7068 29.8867V29.8863ZM50.6981 30.1877L46.3121 26.6105L46.1375 26.5675L32.2071 26.5722L27.5552 29.9931L39.0166 40.1657L50.6981 30.1877Z" fill="black"/>
<path d="M47.9463 30.4464L38.7111 38.4559L29.7383 30.5962L33.7828 27.739C37.2609 27.5995 40.7604 27.7596 44.2477 27.742L47.9463 30.4464ZM46.2869 30.66C46.3022 30.5846 46.2472 30.5536 46.2005 30.5093C45.4127 29.7601 44.3944 29.0836 43.5568 28.3797C40.6774 28.4051 37.7761 28.3241 34.9103 28.4206L31.7902 30.8115L38.9294 37.069L46.2865 30.66H46.2869Z" fill="black"/>
</g>
<path d="M151.461 16.9082H158.002V59.0844H151.461V16.9082Z" fill="black"/>
<path d="M125.613 43.0871V37.1432H143.247V37.4593C143.247 44.7943 141.131 50.4853 136.899 54.5322C133.137 58.1154 128.285 59.907 122.342 59.907C116.4 59.907 111.548 57.9889 107.786 54.1528C103.554 49.853 101.438 44.5414 101.438 38.2181C101.438 35.0565 102.015 32.1056 103.169 29.3655C104.323 26.5833 105.819 24.2858 107.658 22.4732C109.581 20.5762 111.933 19.0586 114.711 17.9204C117.533 16.7401 120.547 16.1499 123.753 16.1499C127.985 16.1499 131.705 17.0352 134.911 18.8057C137.861 20.4497 140.169 22.5575 141.836 25.129L136.642 28.7332C135.103 26.6255 133.35 25.0236 131.384 23.9275C129.289 22.705 126.767 22.0938 123.817 22.0938C119.243 22.0938 115.481 23.5481 112.531 26.4568C111.12 27.848 110.009 29.5974 109.197 31.7052C108.384 33.8129 107.978 36.005 107.978 38.2814C107.978 42.792 109.453 46.607 112.403 49.7265C115.096 52.5509 118.666 53.9631 123.112 53.9631C126.917 53.9631 130.101 52.7195 132.666 50.2324C134.761 48.2089 135.958 45.8271 136.257 43.0871H125.613Z" fill="black"/>
<path d="M86.707 16.9082H93.2478V59.0844H86.707V16.9082Z" fill="black"/>
<defs>
<clipPath id="clip0_143_5677">
<rect width="77.0726" height="76" fill="white"/>
</clipPath>
</defs>
</svg>
