<svg width="239" height="78" viewBox="0 0 239 78" fill="none" xmlns="http://www.w3.org/2000/svg">
<g clip-path="url(#clip0_33_2607)">
<path fill-rule="evenodd" clip-rule="evenodd" d="M234.25 21.3319C231.961 21.3319 229.857 19.546 229.857 16.9663C229.857 14.3866 231.889 12.6007 234.25 12.6007C236.61 12.6007 238.671 14.5 238.671 16.9805C238.671 19.305 236.811 21.3319 234.25 21.3319ZM234.25 12.9834C232.075 12.9834 230.244 14.7268 230.244 16.9663C230.244 19.2058 232.046 20.9492 234.264 20.9492C236.582 20.9492 238.284 19.1066 238.284 16.9805C238.284 14.8544 236.567 12.9976 234.264 12.9976L234.25 12.9834ZM234.207 14.174C234.779 14.174 235.18 14.174 235.509 14.3016C236.11 14.5142 236.396 15.067 236.396 15.5773C236.396 15.96 236.253 16.6261 235.265 16.8813C235.795 17.1081 235.952 17.4199 236.052 18.0436C236.167 18.809 236.224 19.1917 236.467 19.6878H235.337C235.18 19.3617 235.151 19.1633 235.037 18.483C234.851 17.3207 234.779 17.2073 233.377 17.2073V19.6878H232.39V14.174H234.207ZM233.391 16.4135H234.207C234.622 16.4135 235.394 16.4135 235.394 15.6481C235.394 15.4214 235.294 15.1379 234.994 14.9961C234.793 14.9253 234.622 14.9253 234.021 14.9253H233.391V16.4135Z" fill="white"/>
<path fill-rule="evenodd" clip-rule="evenodd" d="M223.335 63.0463C223.063 62.2809 222.748 61.2746 222.748 61.2746L217.383 47.1714C217.254 46.8595 217.025 46.7036 216.71 46.7036H201.745C201.473 46.7036 201.273 46.8737 201.144 47.2281L197.525 56.7389C196.852 58.3831 196.523 59.7296 196.523 60.7927C196.523 61.4588 196.723 61.9691 197.124 62.3235C197.525 62.6778 198.226 62.8479 199.213 62.8479H200.214C200.887 62.8479 201.216 63.0322 201.216 63.3865C201.216 63.8259 200.829 64.0527 200.071 64.0527C199.227 64.0527 198.011 64.0243 196.451 63.9818C194.706 63.8968 193.547 63.8543 192.961 63.8543C192.832 63.8543 192.331 63.8826 191.487 63.9251C190.814 63.9251 189.87 63.9535 188.64 63.996C187.409 64.0385 186.208 64.0669 185.049 64.0669C184.205 64.0669 183.775 63.8401 183.775 63.4007C183.775 63.0463 184.047 62.8621 184.577 62.8621C185.249 62.8621 185.95 62.8195 186.665 62.7345C188.096 62.5644 189.212 61.9975 190.028 61.0336C190.829 60.084 191.616 58.6524 192.374 56.7389L209.228 14.9678C209.628 13.9473 209.972 13.2528 210.229 12.8701C210.501 12.4874 210.787 12.3031 211.102 12.3031C211.603 12.3031 212.161 13.0118 212.776 14.4292C213.091 15.0954 213.763 16.7112 214.793 19.2909L218.828 29.3404L225.237 45.1445L227.011 49.5384L229.429 55.364C230.545 58.0287 231.575 59.843 232.52 60.821C233.464 61.799 234.408 62.3943 235.338 62.6211C236.24 62.7912 237.169 62.8904 238.157 62.8904C238.743 62.8904 239.029 63.0747 239.029 63.429C239.029 63.6983 238.829 63.8684 238.428 63.9535C238.028 64.0385 237.198 64.081 235.939 64.081L229.529 63.9393C227.627 63.9393 225.724 64.081 224.264 64.081C223.85 64.081 223.635 63.8259 223.363 63.0747M203.076 43.3727H215.423C215.652 43.3727 215.752 43.2451 215.752 42.9758L209.714 26.5481V26.4772C209.628 26.1228 209.514 25.9386 209.385 25.9386C209.199 25.9386 209.07 26.137 208.985 26.5339L202.804 42.8908C202.804 43.2026 202.89 43.3585 203.076 43.3585" fill="white"/>
<path fill-rule="evenodd" clip-rule="evenodd" d="M141.111 38.7519C141.111 38.9078 141.082 43.4293 141.082 43.4293C141.039 44.7617 141.011 48.3477 141.011 52.3307V59.6303C141.011 60.5091 140.968 61.0761 140.882 61.317C140.796 61.558 140.553 61.799 140.152 62.0116C138.149 63.0321 135.689 63.7833 132.784 64.2653C129.88 64.7472 126.961 64.9881 124.014 64.9881C119.779 64.9881 115.802 64.4779 112.096 63.4573C108.391 62.4368 105.114 60.8635 102.253 58.7515C99.3915 56.6254 97.1452 53.904 95.5285 50.5873C93.8975 47.2705 93.082 43.401 93.082 38.9787C93.082 34.0319 94.1837 29.6663 96.4013 25.9102C98.6046 22.154 101.394 19.2767 104.742 17.2923C107.647 15.5631 110.522 14.415 113.384 13.848C116.245 13.2669 119.364 12.9834 122.755 12.9834C123.871 12.9834 125.015 13.0117 126.174 13.0826C127.333 13.1535 128.535 13.2527 129.794 13.3803C131.039 13.5078 132.069 13.6354 132.87 13.7488C133.671 13.8622 134.258 13.9614 134.616 14.0465C135.503 14.2165 136.447 14.3866 137.434 14.5142C138.421 14.6418 139.237 14.741 139.909 14.7835C140.539 14.826 140.839 15.0953 140.839 15.5773C140.839 15.7048 140.825 15.9458 140.768 16.3001C140.682 17.2781 140.596 18.4971 140.496 19.9854C140.396 21.4737 140.367 23.6281 140.367 26.4488C140.367 27.3843 140.124 27.8378 139.623 27.8378C139.265 27.8378 139.051 27.5544 138.951 26.9732C138.822 25.9102 138.593 24.9322 138.278 24.025C137.963 23.1179 137.434 22.2674 136.676 21.4737C135.474 20.198 133.542 19.0074 130.881 17.9302C128.22 16.8388 125.173 16.3001 121.739 16.3001C119.278 16.3001 116.989 16.5553 114.843 17.0655C112.697 17.5758 110.58 18.6956 108.476 20.4106C106.516 22.0406 105 24.1809 103.927 26.8173C102.854 29.4537 102.324 32.7279 102.324 36.6683C102.324 40.2118 102.868 43.5002 103.97 46.5476C105.071 49.5951 106.631 52.2456 108.691 54.5135C110.751 56.7672 113.212 58.5106 116.088 59.7579C118.964 60.991 122.154 61.6147 125.631 61.6147C126.875 61.6147 127.963 61.5722 128.878 61.4871C129.794 61.4021 130.61 61.2036 131.325 60.8918C132.169 60.4949 132.598 59.6728 132.598 58.4397V52.2031C132.598 48.3052 132.57 44.7617 132.527 43.4293C132.484 42.2812 132.255 41.4166 131.854 40.8497C131.454 40.2685 130.71 39.8716 129.637 39.659C129.107 39.5315 128.235 39.4606 127.018 39.4606C126.346 39.4606 126.017 39.2905 126.017 38.9362C126.017 38.4968 126.489 38.27 127.419 38.27C128.621 38.27 130.652 38.3125 133.514 38.3975C135.474 38.4401 136.69 38.4684 137.134 38.4684C137.634 38.4684 138.822 38.4259 140.639 38.355C141.025 38.355 141.111 38.6102 141.111 38.7802M162.099 44.8326V22.9336C162.099 21.4737 162.057 20.198 161.971 19.0783C161.842 16.9096 161.069 15.6765 159.696 15.3646C159.023 15.1946 158.222 15.0953 157.292 15.0953C156.577 15.0953 156.219 14.8686 156.219 14.4292C156.219 14.0748 156.749 13.9047 157.822 13.9047C158.666 13.9047 160.297 13.9472 162.715 14.0323C164.589 14.0748 165.862 14.1032 166.535 14.1032C167.064 14.1032 168.166 14.089 169.811 14.0323C172.129 13.9472 173.76 13.9047 174.704 13.9047C175.648 13.9047 176.106 14.0748 176.106 14.4292C176.106 14.8686 175.748 15.0953 175.033 15.0953C174.504 15.0953 173.831 15.1662 173.03 15.2938C172.143 15.4639 171.528 15.8466 171.184 16.4277C170.855 16.9947 170.641 17.8876 170.555 19.0783C170.469 20.1838 170.426 21.4737 170.426 22.9336V44.8326C170.426 48.9431 170.426 52.0755 170.469 54.2158C170.483 56.3561 170.569 58.0712 170.698 59.361C170.827 60.3815 171.07 61.147 171.428 61.643C171.785 62.1533 172.429 62.4651 173.373 62.6069C173.86 62.6494 174.418 62.7061 175.047 62.777C175.677 62.8478 176.249 62.8762 176.793 62.8762C177.508 62.8762 177.866 63.0463 177.866 63.4006C177.866 63.84 177.437 64.0668 176.593 64.0668C174.718 64.0668 172.257 64.0243 169.224 63.9251C167.794 63.8825 166.764 63.8542 166.148 63.8542C165.791 63.8542 164.746 63.8825 163.001 63.9251C160.411 64.0101 158.651 64.0668 157.707 64.0668C156.763 64.0668 156.362 63.84 156.362 63.4006C156.362 63.0463 156.72 62.8762 157.435 62.8762C158.237 62.8762 159.038 62.7911 159.853 62.6069C160.926 62.3801 161.57 61.2745 161.799 59.2901C161.928 58.0145 162.028 56.2852 162.071 54.145C162.114 52.0047 162.142 48.8864 162.142 44.8184" fill="white"/>
<path fill-rule="evenodd" clip-rule="evenodd" d="M53.2798 19.7728L55.197 18.7665L54.6247 18.3696L53.38 19.1066L53.6375 17.6751L53.0652 17.2924L52.7648 19.4185L51.9922 20.4957L52.5215 20.8642L53.2798 19.7728Z" fill="white"/>
<path fill-rule="evenodd" clip-rule="evenodd" d="M42.9932 15.6482L43.451 15.7333L43.8516 17.1081L44.5813 17.2357L44.0948 15.7333C44.1807 15.7191 44.2522 15.6907 44.3381 15.6624C44.4239 15.6199 44.4954 15.5773 44.5527 15.5207C44.6242 15.464 44.6814 15.3931 44.7243 15.308C44.7673 15.223 44.8102 15.1238 44.8245 15.0104C44.8531 14.8686 44.8531 14.7411 44.8245 14.6135C44.7959 14.4859 44.753 14.3726 44.6671 14.2733C44.5956 14.1741 44.4954 14.0749 44.381 14.004C44.2665 13.9332 44.1234 13.8765 43.9518 13.8481L42.6927 13.6355L42.1348 16.8247L42.7643 16.9381L42.9932 15.6624V15.6482ZM43.2364 14.2875L43.823 14.3867C43.9661 14.4151 44.0662 14.4718 44.1378 14.5568C44.2093 14.656 44.2379 14.7553 44.2093 14.8828C44.1807 15.0104 44.1235 15.1096 44.0376 15.1663C43.9375 15.223 43.823 15.2513 43.6799 15.223L43.079 15.1238L43.2221 14.2733L43.2364 14.2875Z" fill="white"/>
<path fill-rule="evenodd" clip-rule="evenodd" d="M57.6147 21.6296L56.0409 21.5446L55.9551 23.1037L57.5289 23.1887L57.6147 21.6296Z" fill="white"/>
<path fill-rule="evenodd" clip-rule="evenodd" d="M16.8687 37.1502L16.2964 37.1361L16.2535 38.6243L15.4666 38.6102L15.4952 37.3345L14.9373 37.3062L14.8943 38.5818L14.1217 38.5677L14.1647 37.0652L13.6067 37.051L13.5352 39.1771L16.7972 39.2764L16.8687 37.1502Z" fill="white"/>
<path fill-rule="evenodd" clip-rule="evenodd" d="M42.0049 50.8708L41.7188 51.6363H46.5975L46.4401 50.8708H42.0049Z" fill="white"/>
<path fill-rule="evenodd" clip-rule="evenodd" d="M49.3301 18.9649L50.489 16.5553L51.2616 16.9097L51.5048 16.3994L49.3873 15.4072L49.1441 15.9175L49.9167 16.2718L48.7578 18.6956L49.3301 18.9649Z" fill="white"/>
<path fill-rule="evenodd" clip-rule="evenodd" d="M52.7207 57.0506L53.0784 57.49L54.2516 56.5404L54.7523 57.1499L53.7508 57.9578L54.1085 58.3972L55.11 57.5893L55.5964 58.1704L54.4232 59.1201L54.7809 59.5595L56.4549 58.2129L54.3803 55.7041L52.7207 57.0506Z" fill="white"/>
<path fill-rule="evenodd" clip-rule="evenodd" d="M59.6035 29.0568L59.8897 29.723L61.1773 29.8506L60.3761 30.8711L60.6622 31.5373L61.8068 29.964L63.6524 30.2191L63.3663 29.5529L62.1788 29.4395L62.9228 28.5182L62.6366 27.8521L61.535 29.3403L59.6035 29.0568Z" fill="white"/>
<path fill-rule="evenodd" clip-rule="evenodd" d="M54.8828 27.7103L54.8542 27.5686H23.7792L23.7506 27.7103C23.7506 27.7103 22.7205 33.7485 24.1083 40.5521C25.3959 46.8454 29.0871 55.1514 39.3024 59.0209L39.3596 59.0493L39.4312 59.0209C49.7895 55.0096 53.4378 46.7036 54.6682 40.4529C56.0131 33.6776 54.8828 27.7812 54.8685 27.7245L54.8828 27.7103ZM42.9507 39.6874C42.9507 39.6874 43.0795 39.73 43.0938 39.8008C43.0938 39.8717 43.1939 39.9568 43.2368 40.0418C43.2655 40.0985 43.3084 40.1127 43.2941 40.1552C43.2941 40.1835 43.1796 40.2828 43.1367 40.2969C43.1081 40.2969 43.0652 40.2544 42.9793 40.2686C42.8935 40.2969 42.7075 40.2686 42.6646 40.3253C42.6359 40.3536 42.5072 40.3962 42.4356 40.4103C42.3784 40.1694 42.3212 39.9284 42.264 39.6874C42.4786 39.6591 42.6932 39.6308 42.9078 39.6166C42.9078 39.6449 42.9364 39.6874 42.9507 39.7016V39.6874ZM31.7482 39.9568C31.7482 40.1977 31.3047 40.3111 31.505 40.467C31.6767 40.6088 31.5479 40.7505 31.4049 40.9206H30.5321C30.5321 40.6796 30.5035 40.4387 30.5035 40.1977C30.8898 40.0276 31.3047 39.8575 31.7339 39.7016C31.7339 39.7867 31.7626 39.9284 31.7626 39.9568H31.7482ZM49.4032 40.1127C49.4175 40.1977 49.5177 40.2969 49.532 40.3962C49.5606 40.5946 49.5033 40.8072 49.489 40.8639C49.489 40.8639 49.489 40.8922 49.489 40.9064H48.0011C47.9725 40.7505 47.9296 40.5804 47.901 40.4245C47.858 40.2261 47.8008 40.0135 47.7579 39.815C47.858 39.8292 48.044 39.8859 48.0726 39.9568C48.1012 40.0135 48.0297 40.0843 48.0726 40.1127C48.1156 40.141 48.1728 40.1694 48.23 40.1977C48.2872 40.2261 48.23 40.2969 48.2872 40.3253C48.3731 40.3678 48.3731 40.3253 48.4589 40.382C48.6306 40.5095 48.6735 40.2119 48.7165 40.1835C48.8309 40.1127 48.9168 40.2544 49.0598 40.2544C49.1457 40.2544 49.2601 40.056 49.3746 39.9709C49.4175 39.9426 49.4461 39.9284 49.4747 39.9284C49.5033 39.9284 49.4318 40.0276 49.4461 40.1127H49.4032ZM34.5238 40.3111C34.4237 40.2544 34.2091 40.3111 34.0946 40.2828C34.0946 40.2828 33.8657 40.1694 33.7799 40.1268C33.7512 40.1127 33.7799 40.0985 33.7942 40.0843C33.8228 40.0701 33.8657 40.0418 33.88 40.0418C33.8943 40.0418 33.8371 39.9284 33.8085 39.9142C33.7799 39.8859 33.7512 39.8434 33.7226 39.8008C33.694 39.7583 33.6511 39.6874 33.6511 39.6874C33.5796 39.5599 33.6511 39.4748 33.4651 39.4607C33.4222 39.4607 33.2219 39.7867 33.0788 39.7867C33.0645 39.5882 33.0359 39.404 33.0216 39.2197C34.1375 38.8512 34.4809 38.752 35.4395 38.4826C35.5396 39.1488 35.6684 39.8575 35.8115 40.5662C35.4538 40.6655 35.0961 40.7647 34.7384 40.8781C34.767 40.8214 34.81 40.7222 34.81 40.6938C34.81 40.6088 34.5524 40.3395 34.5238 40.3253V40.3111ZM29.2588 38.9787C29.2588 38.9787 29.1873 38.9787 29.1587 38.9787C29.13 38.9787 29.1157 38.9929 29.1014 39.0071C29.1014 39.0213 29.1014 39.0921 29.1014 39.1347C29.1014 39.1772 28.9297 39.4465 28.9011 39.4748C28.8868 39.489 28.7724 39.5032 28.6865 39.4748C28.7294 39.2481 28.7724 39.0354 28.8296 38.8228C28.9297 38.7661 29.0299 38.7094 29.13 38.6527C29.316 38.7378 29.2588 38.9362 29.2588 38.9504V38.9787ZM28.9584 38.3693C29.0585 38.0433 29.173 37.7314 29.3017 37.4196C29.3876 37.5046 29.5163 37.5897 29.4877 37.7314C29.4591 37.8448 29.3733 37.9015 29.3447 38.0007C29.316 38.0858 29.3017 38.1283 29.2588 38.1992C29.1587 38.2559 29.0585 38.3126 28.9584 38.3551V38.3693ZM30.4606 36.5833C30.3605 36.6542 30.432 36.6825 30.2746 36.7676C30.2603 36.7676 30.0457 37.0511 30.0886 37.1219C30.1315 37.1928 29.9885 37.5188 30.0743 37.5613C30.1602 37.6039 30.0171 37.7172 30.0171 37.7456C30.0171 37.7598 29.8168 37.7456 29.7739 37.6606C29.6594 37.4763 29.8168 37.3062 29.8025 37.2495C29.7596 37.1503 29.6022 37.0511 29.502 37.0369C29.545 36.966 29.5736 36.881 29.6165 36.8101C29.9599 36.6117 30.3318 36.4132 30.7467 36.2148C30.7038 36.3282 30.6609 36.4558 30.6323 36.5691C30.5894 36.5691 30.5464 36.5408 30.4892 36.5691L30.4606 36.5833ZM31.1903 36.0022C31.6338 35.8037 32.1202 35.6195 32.6353 35.421C32.6925 35.4069 32.7354 35.3927 32.7927 35.3644C32.7068 35.8037 32.6496 36.2857 32.6067 36.7818C32.5351 36.8101 32.4636 36.8385 32.3921 36.8526C32.3205 36.7959 32.3062 36.6684 32.2776 36.64C32.2204 36.5691 32.1202 36.6117 32.0916 36.5975C32.0487 36.5691 32.0487 36.4983 31.9915 36.4983C31.9629 36.4983 31.7626 36.4416 31.6767 36.3849C31.6195 36.3424 31.319 36.1864 31.2618 36.1864C31.2046 36.1864 31.1473 36.2148 31.1044 36.2431C31.133 36.1723 31.1617 36.0872 31.1903 36.0022ZM31.176 39.5174C31.176 39.5174 31.0758 39.5599 31.0329 39.5741C31.0329 39.3898 31.0758 39.4607 31.1044 39.3331C31.1044 39.3047 30.947 39.2481 30.8898 39.2197C30.6752 39.0638 30.7611 38.8228 30.8183 38.752C30.8755 38.6811 31.2475 38.3551 31.133 38.2984C30.9041 38.1992 31.319 37.7456 31.4621 37.8023C31.6052 37.859 31.7769 37.5188 31.9342 37.5755C32.1059 37.6322 32.0344 37.6464 32.0773 37.7598C32.1059 37.8306 32.0487 37.9299 32.0344 38.0007C32.0201 38.0716 31.8913 38.0999 31.9199 38.2275C31.9485 38.3551 31.5766 38.7945 31.5479 38.8228C31.4764 38.8653 31.4621 39.1488 31.6338 39.0638C31.7769 38.9929 31.8484 39.1914 31.877 39.2339C31.6338 39.3331 31.3906 39.4181 31.1473 39.5174H31.176ZM33.9086 35.2651C33.9086 35.2651 33.9658 35.3927 33.9658 35.4494C33.9658 35.5061 34.0374 35.5486 34.0517 35.5486C34.0803 35.5486 34.0946 35.5344 34.1232 35.5203C34.2091 35.4919 34.2234 35.5486 34.3235 35.5486C34.3378 35.5486 34.3951 35.5628 34.438 35.5911C34.4952 35.6195 34.4809 35.7045 34.438 35.7471C34.4094 35.7896 34.3808 35.8179 34.3521 35.8321C34.1518 35.8746 33.9515 35.7471 34.0088 36.1298C34.0088 36.2148 34.0517 36.2857 34.0946 36.3282C33.7369 36.4274 33.4508 36.5266 32.9787 36.6825C33.0216 36.1723 33.0788 35.6904 33.179 35.251C33.5223 35.1376 33.7655 35.0525 33.9945 34.9958C33.9372 35.095 33.88 35.2084 33.8943 35.2793L33.9086 35.2651ZM48.8595 38.922C48.6592 38.8795 48.5591 38.9787 48.4446 39.078C48.2157 39.0638 47.9725 39.0354 47.715 39.0213C47.715 39.0213 47.715 39.0213 47.715 39.0071C47.8008 38.7803 47.715 38.511 47.8151 38.27C47.8437 38.2133 47.9582 38.0999 48.0583 38.1141C48.1013 38.1141 48.1156 38.2133 48.1871 38.2417C48.2157 38.2417 48.23 38.3126 48.2443 38.3693C48.2443 38.3976 48.3159 38.3551 48.3731 38.3693C48.4446 38.3976 48.5448 38.4685 48.602 38.426C48.7022 38.3551 48.8023 38.27 48.8738 38.2417C48.8738 38.2417 48.8738 38.2417 48.8881 38.2417C48.974 38.4543 49.0598 38.6811 49.1457 38.8937C49.0455 38.8937 48.9168 38.9362 48.8452 38.922H48.8595ZM46.2699 40.141C46.2699 40.141 46.3415 40.1552 46.413 40.141C46.4416 40.141 46.4559 40.0418 46.4559 40.0418C46.3844 39.9993 46.1984 39.9709 46.0553 39.9001C46.0267 39.8859 46.041 39.8292 45.9981 39.815C45.8407 39.7583 45.6834 39.7441 45.6404 39.6874C45.5546 39.5882 45.5832 39.4465 45.712 39.4323C45.8121 39.4323 46.0696 39.5174 46.2413 39.5741H46.5275C46.5704 39.6166 46.5561 39.8575 46.6276 39.8717C46.7564 39.9001 46.7707 40.0135 46.8422 40.1127C46.8708 40.1552 46.9567 40.141 47.0139 40.1977C47.0998 40.2828 47.1856 40.4528 47.2285 40.5095C47.3287 40.6513 47.4717 40.6088 47.5576 40.5662C47.5862 40.6796 47.6005 40.793 47.6291 40.8922H46.2842C46.2842 40.8922 46.2413 40.7789 46.2556 40.7363C46.2556 40.708 46.2986 40.708 46.3129 40.6796C46.3415 40.6088 46.3987 40.5379 46.413 40.4387C46.413 40.3678 46.2843 40.1835 46.2986 40.1268L46.2699 40.141ZM43.852 37.2353C44.038 37.4905 44.0237 37.4905 43.7805 37.618C43.6804 37.6606 43.4371 37.8165 43.4371 37.944C43.4371 38.0574 43.5659 38.1141 43.4085 38.1708C43.337 38.185 43.1081 38.3976 43.0508 38.27C43.0079 38.1708 43.0938 38.0433 43.0508 37.9582C43.0222 37.9157 42.9364 37.9157 42.8935 37.9299C42.8792 37.9299 42.8505 37.9157 42.8505 37.8873C42.7647 37.6747 42.2783 37.4905 42.1352 37.3771C42.078 37.3346 42.0923 37.2779 42.1066 37.2212C42.8076 37.1361 43.1653 37.1078 43.895 37.0652V37.0936C43.895 37.1645 43.8234 37.1928 43.852 37.2495V37.2353ZM38.3295 37.8023C38.4869 38.4401 38.6443 39.1347 38.8159 39.8575C37.9432 40.0276 37.0705 40.2402 36.2121 40.467C36.069 39.73 35.9402 39.0354 35.8401 38.3834C36.6699 38.1708 37.514 37.9724 38.3295 37.8023ZM37.9003 33.2099C37.9003 33.2099 37.9289 33.1248 37.9289 33.0823C37.9289 33.0115 37.8288 32.9264 37.8001 32.8839C37.8001 32.8555 37.7429 32.8414 37.6857 32.813C38.072 32.7421 38.4583 32.6854 38.8446 32.6288C39.0449 32.8414 39.2452 33.1107 39.4312 33.4083C38.9018 33.4792 38.3724 33.5642 37.8431 33.6776C37.8145 33.5642 37.7715 33.3942 37.886 33.2241L37.9003 33.2099ZM44.3099 34.6415C44.3528 34.5281 44.41 34.4714 44.3814 34.2729C44.3814 34.2729 44.4243 34.2163 44.4529 34.1737C44.596 34.3155 44.7248 34.4714 44.8535 34.6415C44.7105 34.6415 44.5817 34.6415 44.4673 34.6415C44.41 34.6415 44.3528 34.6415 44.2956 34.6415H44.3099ZM42.9364 35.3927C42.9364 35.3927 42.779 35.5344 42.7504 35.6478C42.6646 35.9171 42.9936 36.2006 42.965 36.2148V36.2431C42.9936 36.2857 43.0365 36.3991 43.0938 36.4558C43.151 36.5125 43.2082 36.5266 43.2511 36.5266C43.2511 36.5266 43.2798 36.5266 43.2941 36.5125C43.2941 36.5125 43.3227 36.5125 43.3513 36.5125C43.3799 36.5125 43.4085 36.5125 43.4658 36.4841C43.5087 36.4558 43.5516 36.4132 43.5945 36.3707C43.6374 36.4699 43.6804 36.5691 43.7376 36.6825C42.9078 36.7392 42.5358 36.7818 41.892 36.8526C41.8777 36.7959 41.8204 36.7251 41.7632 36.6825C41.7346 36.6542 41.52 36.7818 41.4485 36.8526C41.2482 36.2857 41.0479 35.7471 40.8333 35.251C41.5486 35.1659 42.2353 35.095 42.9078 35.0525C42.9364 35.095 42.9507 35.1234 42.9793 35.1659C42.8792 35.2935 42.9793 35.2935 42.9364 35.3927ZM35.7685 37.8023C35.9116 37.7739 35.9259 37.8732 36.069 37.618C36.1262 37.5188 36.069 37.4196 36.0976 37.2779C36.1119 37.1645 36.2979 36.7109 36.1834 36.6258C36.0547 36.5266 36.4553 36.2998 36.5554 36.314C36.6413 36.314 36.6413 36.2715 36.6556 36.2148C36.6556 36.2148 36.6842 36.0731 36.6985 35.988C37.0705 35.903 37.4568 35.8179 37.8288 35.7471C37.9575 36.2573 38.1006 36.8243 38.258 37.4338C37.0991 37.6747 36.7843 37.7598 35.7972 38.0007C35.7972 37.9299 35.7828 37.859 35.7685 37.7881C35.7685 37.7881 35.7685 37.7881 35.7828 37.7881L35.7685 37.8023ZM38.0291 34.3013C38.0291 34.3013 38.072 34.1737 38.0291 34.1454C38.0004 34.1312 37.9432 34.0603 37.9003 34.0036C38.4869 33.8902 39.0592 33.791 39.6315 33.7202C39.8461 34.0887 40.0607 34.4997 40.261 34.9533C39.5313 35.0525 38.8016 35.1801 38.0863 35.3218C38.0291 35.095 37.9575 34.8683 37.9003 34.6415C38.0004 34.5281 38.0863 34.4147 38.0148 34.3013H38.0291ZM42.6932 34.7123C41.8204 34.7832 41.52 34.8116 40.6759 34.9108C40.4613 34.4572 40.261 34.0462 40.0464 33.6776C40.6616 33.6068 41.2482 33.5501 41.7918 33.5075C42.1066 33.8477 42.407 34.2588 42.6932 34.7123ZM41.9492 33.1532C41.6774 32.8697 41.4055 32.6288 41.1337 32.4161C41.4771 32.4161 41.8204 32.402 42.1352 32.4161C42.5358 32.6146 42.9221 32.8414 43.2941 33.1248C42.8649 33.1248 42.4213 33.1248 41.9492 33.1532ZM41.4771 33.1815C40.9477 33.2241 40.3897 33.2808 39.8461 33.3516C39.6601 33.054 39.4741 32.7988 39.2738 32.5721C39.8174 32.5012 40.0321 32.487 40.5757 32.4445C40.8762 32.6429 41.1766 32.8981 41.4771 33.1815ZM37.7286 35.3927C37.4711 35.4494 37.2136 35.5061 36.956 35.5628C37.142 35.0809 37.4425 35.0525 37.5998 34.9391C37.6428 35.0809 37.6857 35.2368 37.7286 35.4069V35.3927ZM38.9018 35.5486C38.8303 35.6337 38.7158 35.7329 38.6586 35.7612C38.63 35.7754 38.5012 36.0305 38.5584 36.1156C38.6157 36.1864 38.6586 36.2857 38.7301 36.3424C38.6872 36.3849 38.9876 36.1864 38.9733 36.2715C38.9304 36.4558 39.2165 36.2006 39.2309 36.1864C39.4025 36.0305 39.5885 35.8179 39.7459 35.6762C39.8031 35.6337 39.6601 35.5203 39.5313 35.4352C39.7888 35.3927 40.0607 35.3502 40.4327 35.3077C40.6473 35.8179 40.8619 36.3707 41.0622 36.966C40.2753 37.0794 39.4598 37.207 38.63 37.3629C38.4869 36.7676 38.3438 36.2006 38.2007 35.6762C38.4726 35.6195 38.7015 35.577 38.8875 35.5486H38.9018ZM44.7248 36.229C44.8106 36.1298 44.6532 36.0305 44.6246 35.9597C44.6103 35.903 44.8535 35.6195 44.7534 35.5344C44.7248 35.5061 44.41 35.3644 44.41 35.336C44.41 35.336 44.3814 35.095 44.3528 35.01C44.5817 35.01 44.7677 35.01 44.9966 35.01C44.9966 35.0525 44.9966 35.1092 44.968 35.1659C44.9251 35.336 45.2398 35.3502 45.2541 35.3502C45.2684 35.3502 45.3114 35.3502 45.3543 35.3502C45.4401 35.4777 45.5117 35.5911 45.5975 35.7187C45.4687 35.7612 45.3829 36.1156 45.3829 36.2148C45.3829 36.6258 45.526 36.3565 45.5403 36.4983C45.5403 36.5408 45.5117 36.5975 45.4687 36.64C45.1254 36.64 44.782 36.64 44.4386 36.6684C44.4672 36.4558 44.782 36.555 44.7963 36.3565C44.7963 36.3282 44.6389 36.314 44.6962 36.2431L44.7248 36.229ZM46.2699 35.0809C46.2699 35.0809 46.2843 35.0809 46.2986 35.095C46.3129 35.095 46.4989 35.5061 46.4846 35.5911C46.4559 35.6762 46.1555 35.6337 45.9981 35.6478C45.898 35.4919 45.7978 35.336 45.6977 35.1943C45.6977 35.1943 45.7263 35.1801 45.7406 35.1659C45.8121 35.1234 45.9123 35.0809 45.9981 35.0667C46.084 35.0667 46.1698 35.0809 46.2699 35.095V35.0809ZM45.154 34.443C45.0109 34.2588 44.8535 34.0887 44.6962 33.9186C44.8392 33.791 45.1397 33.6493 45.2255 33.7769C45.3257 33.9044 45.1397 34.3013 45.154 34.443ZM43.4801 33.6351C43.4801 33.6351 43.4801 33.7769 43.5087 33.8336C43.5945 34.0462 43.4658 33.9044 43.4085 34.1879C43.3513 34.4572 43.5373 34.3155 43.3084 34.5423C43.2798 34.5706 43.2511 34.6273 43.2225 34.6982C43.1939 34.6982 43.151 34.6982 43.1224 34.6982C42.8505 34.2588 42.5501 33.8619 42.2497 33.4934C42.8505 33.465 43.0795 33.465 43.5516 33.4792C43.5945 33.5501 43.4944 33.5926 43.4801 33.6493V33.6351ZM40.6759 32.1043C40.5328 32.0193 40.3897 31.9484 40.2467 31.8775C40.3039 31.8775 40.3754 31.8775 40.4327 31.8775C40.7331 31.92 41.0192 31.9909 41.3197 32.076C41.1337 32.076 40.9477 32.076 40.6902 32.1043H40.6759ZM38.9876 32.2602C38.8303 32.1185 38.7301 32.0193 38.63 31.9484C38.8732 31.92 39.1021 31.9059 39.3167 31.8917C39.5599 31.9484 39.8031 32.0334 40.0607 32.1468C39.7173 32.1752 39.3596 32.2177 39.0019 32.2602H38.9876ZM41.1766 37.3204C41.2338 37.4905 41.2911 37.6606 41.334 37.8306C41.2911 37.8448 41.2482 37.859 41.2338 37.8732C41.1623 37.8732 41.1909 38.1283 41.1909 38.1425C41.1623 38.1992 41.1909 38.2842 41.2052 38.3551C41.2338 38.426 41.3197 38.3693 41.334 38.3976C41.4055 38.4968 41.1623 38.7803 41.3626 38.7945C41.4055 38.7945 41.4914 38.7661 41.5629 38.7094C41.6201 38.922 41.6774 39.1347 41.7346 39.3473C40.8762 39.4607 40.0177 39.6024 39.1736 39.7725C38.9876 38.9646 38.8303 38.3126 38.6872 37.7173C39.5027 37.5613 40.3325 37.4196 41.148 37.3062L41.1766 37.3204ZM42.1638 39.3047C42.0637 38.9362 41.9778 38.596 41.8777 38.2559C42.2497 38.1283 42.1209 38.5535 42.2783 38.426C42.3069 38.3976 42.4929 38.5252 42.2783 38.6102C42.1495 38.6669 42.3212 38.7661 42.3641 38.7945C42.4929 38.8795 42.6503 38.2984 42.9793 38.5677C43.0079 38.596 42.9793 38.6244 42.9507 38.6669C42.9221 38.7094 42.9364 38.7236 42.8792 38.7661C42.8076 38.8087 42.7933 38.8228 42.7361 38.837C42.7075 38.837 42.7504 38.9929 42.7647 39.0071C42.7933 39.078 42.6073 39.2055 42.4929 39.2906C42.3784 39.2906 42.2783 39.3189 42.1781 39.3331L42.1638 39.3047ZM45.34 40.4812C45.2971 40.2686 45.2398 40.0701 45.1969 39.8575C45.2971 39.9709 45.3972 40.056 45.5546 40.0701C45.6261 40.0701 45.6834 40.0843 45.7406 40.0985C45.8121 40.0985 45.8693 40.1835 45.9409 40.2119C46.0267 40.2402 46.1126 40.3678 46.1412 40.4387C46.1412 40.467 46.1841 40.6371 46.0983 40.6796C46.0267 40.7222 45.898 40.7222 45.7978 40.7222C45.7406 40.7222 45.669 40.7647 45.669 40.8639C45.669 40.8922 45.669 40.9064 45.669 40.9206H45.4258C45.3972 40.7789 45.3686 40.6229 45.3257 40.4812H45.34ZM49.3174 38.3267C49.5749 38.3693 50.1329 38.3267 50.3188 38.7661C50.4762 39.1347 49.8181 38.922 49.5463 38.9079C49.4747 38.7094 49.4032 38.511 49.3174 38.3267ZM44.038 32.8697C44.038 32.8697 43.8377 32.813 43.7948 32.8555C43.7948 32.8839 43.7662 32.9689 43.7805 32.9831C43.7805 32.9831 43.7662 32.9831 43.709 33.0256C43.3513 32.7563 43.151 32.6146 42.8935 32.4587C43.0795 32.4728 43.2655 32.5012 43.4371 32.5295C43.6374 32.6146 43.8234 32.6996 44.0237 32.7988C44.0523 32.8272 44.0667 32.8697 44.038 32.8839V32.8697ZM38.0863 32.0193C38.2437 32.0901 38.3867 32.1894 38.5441 32.3169C38.2723 32.3594 37.9861 32.402 37.7143 32.4587C37.7143 32.4587 37.6857 32.4587 37.6857 32.4303C37.6857 32.4303 37.6428 32.3878 37.5998 32.3878C37.514 32.3878 37.4139 32.4161 37.3566 32.3878C37.2994 32.3878 37.3137 32.3594 37.328 32.3169C37.3566 32.2461 37.5283 32.3169 37.5426 32.1327C37.5426 32.1185 37.5426 32.0901 37.5426 32.076C37.7143 32.0476 37.9003 32.0193 38.072 31.9909L38.0863 32.0193ZM35.3966 38.1141C34.252 38.4401 33.9372 38.5393 33.0073 38.837C33.0073 38.752 33.0073 38.6669 32.993 38.5819C33.2505 38.5252 33.1933 38.2842 33.1933 38.27C33.1933 38.1992 33.2791 37.9866 33.2791 37.9866C33.4651 37.9582 33.3649 37.5755 33.4651 37.4905C33.5652 37.4196 33.4508 37.2212 33.3649 37.2495C33.2934 37.2779 33.2362 37.3204 33.2076 37.3771C33.179 37.4338 33.0788 37.4054 33.0788 37.3771C33.0788 37.3487 33.0359 37.2495 32.9787 37.2212C32.9787 37.1645 32.9787 37.0936 32.9787 37.0369C33.6654 36.8101 34.0231 36.6967 34.4523 36.5691C34.3951 36.6967 34.3807 36.881 34.4094 36.966C34.4237 37.0369 34.5095 37.0085 34.5381 37.0652C34.5667 37.1078 34.5381 37.2495 34.5667 37.292C34.6097 37.3629 34.7098 37.4621 34.7098 37.4763C34.7957 37.5755 34.8529 37.7456 34.9244 37.7598C34.9673 37.7598 35.0389 37.7739 35.0675 37.8165C35.0818 37.8448 35.1963 37.8448 35.2249 37.8732C35.2821 37.9299 35.325 37.9582 35.3679 37.944C35.3679 38.0007 35.3822 38.0574 35.3966 38.0999V38.1141ZM34.2806 34.5139C33.9372 34.6131 33.694 34.6982 33.2934 34.8257C33.322 34.7123 33.3649 34.599 33.3936 34.4997C33.9515 34.1879 34.2234 34.5139 34.2806 34.5139ZM32.2347 34.5848C32.3635 34.5848 32.5065 34.769 32.5781 34.7832C32.6639 34.7832 32.8356 34.6273 32.9787 34.6131C32.9357 34.7265 32.9071 34.8541 32.8785 34.9817L32.807 35.01C32.7211 35.0383 32.6353 35.0667 32.5494 35.1092C32.1345 35.2651 31.7482 35.4069 31.3906 35.5628C31.5766 35.1659 31.8055 34.7974 32.0487 34.4714C32.0773 34.4714 32.1059 34.4572 32.1202 34.443C32.1488 34.5281 32.1632 34.6131 32.2347 34.6131V34.5848ZM30.7754 35.0809C30.9757 34.9533 31.2046 34.8399 31.4478 34.7265C31.3047 34.9391 31.1903 35.1659 31.0758 35.4069C31.0186 35.3502 30.9327 35.2935 30.8898 35.2935C30.8755 35.2935 30.7754 35.251 30.6895 35.2084C30.7181 35.1659 30.7611 35.1234 30.7897 35.095L30.7754 35.0809ZM30.3748 35.6337C30.3748 35.6337 30.8469 35.5628 30.8755 35.6195C30.8755 35.6337 30.9184 35.662 30.947 35.662C30.947 35.6904 30.9184 35.7045 30.9184 35.7329C30.5751 35.8888 30.2317 36.0447 29.9312 36.2148C30.0457 36.0305 30.1745 35.8463 30.3032 35.662C30.3318 35.662 30.3605 35.6337 30.3748 35.6195V35.6337ZM28.4719 37.5755C28.7438 37.3487 28.8582 37.2637 29.0585 37.1361C28.8439 37.6039 28.6579 38.0999 28.5148 38.6244C28.3861 38.7094 28.2859 38.7661 28.2001 38.8228C28.2144 38.7661 28.2287 38.6953 28.2001 38.6386C28.1715 38.6102 28.0999 38.4968 28.0713 38.3693C28.1715 38.1708 28.3002 37.9299 28.4862 37.5897L28.4719 37.5755ZM30.1172 40.3678C30.1172 40.5521 30.1172 40.7363 30.1315 40.9206H29.502C29.502 40.9206 29.4448 40.7789 29.4448 40.6938C29.6594 40.5804 29.8883 40.4812 30.1172 40.3678ZM36.2979 40.9206C36.2979 40.9206 36.2979 40.8781 36.2836 40.8497C37.142 40.6229 38.0148 40.4245 38.9018 40.2402C38.9447 40.467 39.0019 40.6938 39.0592 40.9206H36.3122H36.2979ZM39.4598 40.9206C39.4168 40.7222 39.3739 40.5379 39.331 40.3395L39.2881 40.1552C40.5042 39.9284 40.8619 39.8717 41.8634 39.73C41.9492 40.0701 42.035 40.4245 42.1209 40.8214C42.1209 40.8497 42.1352 40.8781 42.1352 40.9206H39.4598ZM43.7233 40.8355C43.8091 40.7647 43.7948 40.6655 43.8664 40.5521C43.9236 40.467 44.0667 40.3962 44.0667 40.3253C44.0667 40.2828 43.9808 40.1835 43.9808 40.1127C43.9808 40.0418 44.0523 39.9993 44.0953 39.9709C44.2097 39.9001 44.3814 39.9993 44.4386 39.9426C44.5531 39.8434 44.6103 39.6449 44.7248 39.5741C44.8106 39.8859 44.8822 40.2119 44.9537 40.5379C44.9823 40.6655 45.0109 40.793 45.0395 40.9064H43.6804C43.6804 40.9064 43.6947 40.8497 43.7376 40.8214L43.7233 40.8355ZM38.3867 56.6113C31.9915 53.7481 28.2287 49.425 26.4403 42.8483H38.3867V56.6113ZM40.3325 56.6113V42.8624H52.1645C50.5621 48.1352 47.1713 53.4221 40.3325 56.6113ZM52.6795 40.9206H52.6366C50.9054 35.2651 45.5975 31.1263 39.3167 31.1263C33.0359 31.1263 27.728 35.251 25.9968 40.9206H25.9825C25.9825 40.9206 25.9825 40.8781 25.9825 40.8639C25.0239 36.0872 25.2242 31.6933 25.4388 29.4112H53.2375C53.5379 32.1327 53.6953 36.4132 52.6795 40.9206ZM63.2954 31.9909C63.1809 31.9909 63.0665 32.0193 62.952 32.0476C62.8376 32.076 62.7088 32.1043 62.5657 32.1327C62.4226 32.161 62.3082 32.2035 62.1794 32.2319C62.065 32.2602 61.9505 32.3027 61.8504 32.3453C61.7502 32.3878 61.6644 32.4445 61.5785 32.5012C61.4927 32.5579 61.4355 32.6429 61.3639 32.7421C61.2781 32.8839 61.2209 33.0256 61.2065 33.1815C61.1779 33.3375 61.1922 33.5075 61.2352 33.6776C61.2638 33.8194 61.321 33.9469 61.3925 34.0745C61.4641 34.1879 61.5642 34.3013 61.6644 34.3722C61.7788 34.4572 61.8933 34.5139 62.0364 34.5564C62.1794 34.5989 62.3368 34.6131 62.5085 34.5989L62.3511 33.9753C62.208 33.9753 62.0936 33.9469 61.9934 33.8761C61.879 33.8194 61.8074 33.706 61.7788 33.5501C61.7645 33.465 61.7502 33.38 61.7788 33.3091C61.7788 33.2382 61.8218 33.1674 61.8647 33.1107C61.8933 33.0681 61.9219 33.0398 61.9505 33.0115C61.9791 32.9831 62.0364 32.9548 62.0936 32.9264C62.1508 32.8981 62.2367 32.8697 62.3368 32.8414C62.437 32.813 62.5657 32.7847 62.7088 32.7421C62.8662 32.6996 62.9806 32.6713 63.0951 32.6571C63.1952 32.6429 63.2811 32.6288 63.3526 32.6146C63.4241 32.6146 63.4814 32.6146 63.5243 32.6146C63.5672 32.6146 63.6101 32.6429 63.6531 32.6571C63.7103 32.6854 63.7675 32.728 63.8104 32.7988C63.8534 32.8555 63.8963 32.9264 63.9106 33.0115C63.9535 33.1674 63.9392 33.2949 63.8677 33.3942C63.7961 33.4934 63.7103 33.5784 63.5958 33.6493L63.7532 34.2729C63.9106 34.2021 64.0394 34.117 64.1538 34.0178C64.2683 33.9186 64.3398 33.8052 64.4113 33.6918C64.4686 33.5642 64.5115 33.4367 64.5115 33.2949C64.5115 33.1532 64.5115 33.0115 64.4686 32.8697C64.4256 32.6996 64.3541 32.5437 64.2683 32.4161C64.1681 32.2886 64.0537 32.1894 63.9106 32.1043C63.8104 32.0476 63.7103 32.0051 63.6101 31.9767C63.51 31.9626 63.4098 31.9484 63.2954 31.9626M58.9031 54.8395C58.8602 54.7403 58.803 54.6553 58.7457 54.5702C58.6742 54.4852 58.6027 54.4002 58.5025 54.3151C58.4167 54.2301 58.3165 54.145 58.2164 54.0458C58.1162 53.9466 58.0161 53.8615 57.9159 53.7907C57.8158 53.7056 57.7299 53.6489 57.6441 53.5922C57.5582 53.5355 57.4581 53.493 57.3579 53.4647C57.2578 53.4363 57.1576 53.4221 57.0289 53.4363C56.8715 53.4363 56.7141 53.4788 56.5711 53.5497C56.428 53.6206 56.2992 53.7198 56.1848 53.8474C56.0846 53.9608 56.0131 54.0742 55.9415 54.2017C55.8843 54.3293 55.8557 54.4568 55.8414 54.5986C55.8414 54.7403 55.8557 54.8679 55.9129 55.0096C55.9558 55.1514 56.0417 55.2789 56.1561 55.4207L56.5854 54.9388C56.5138 54.8254 56.4709 54.712 56.4566 54.5844C56.4566 54.4568 56.4995 54.3435 56.5997 54.2159C56.6569 54.145 56.7284 54.1025 56.7857 54.0742C56.8572 54.0458 56.9287 54.0316 56.986 54.0316C57.0289 54.0316 57.0718 54.0316 57.129 54.0458C57.1719 54.0458 57.2292 54.0741 57.2864 54.1167C57.3436 54.145 57.4152 54.2017 57.501 54.2726C57.5869 54.3435 57.6727 54.4285 57.8015 54.5277C57.9159 54.6269 58.0161 54.712 58.0876 54.7829C58.1591 54.8537 58.2164 54.9104 58.2593 54.9671C58.3022 55.0238 58.3308 55.0663 58.3451 55.1089C58.3594 55.1514 58.3737 55.1939 58.3737 55.2364C58.3737 55.3073 58.3737 55.3782 58.3451 55.449C58.3165 55.5199 58.2879 55.5908 58.2307 55.6616C58.1162 55.775 58.0018 55.8459 57.8873 55.8459C57.7585 55.8459 57.6441 55.8176 57.5153 55.7609L57.0861 56.2428C57.2292 56.3278 57.3722 56.3987 57.5153 56.427C57.6584 56.4554 57.8015 56.4696 57.9302 56.4412C58.0733 56.427 58.1877 56.3704 58.3165 56.2995C58.431 56.2286 58.5454 56.1436 58.6456 56.0302C58.76 55.9026 58.8459 55.7609 58.9031 55.6049C58.9603 55.4632 58.9746 55.3073 58.9603 55.1372C58.9603 55.0238 58.9317 54.9104 58.8888 54.8254" fill="white"/>
<path fill-rule="evenodd" clip-rule="evenodd" d="M59.5027 27.6962L58.6872 26.4347L59.3597 26.0095L60.0464 27.0867L60.5329 26.789L59.8461 25.6976L60.4899 25.3007L61.3054 26.5622L61.7776 26.2646L60.6187 24.4645L57.8574 26.1937L59.0163 27.9938L59.5027 27.6962Z" fill="white"/>
<path fill-rule="evenodd" clip-rule="evenodd" d="M49.1875 61.6148L50.704 62.04L51.1333 60.5375L49.6167 60.1123L49.1875 61.6148Z" fill="white"/>
<path fill-rule="evenodd" clip-rule="evenodd" d="M47.6147 14.7694L46.9995 14.5709L45.998 17.6467L46.5989 17.8451L47.6147 14.7694Z" fill="white"/>
<path fill-rule="evenodd" clip-rule="evenodd" d="M22.4618 23.1037L22.4332 21.5446L20.8594 21.5729L20.888 23.1321L22.4618 23.1037Z" fill="white"/>
<path fill-rule="evenodd" clip-rule="evenodd" d="M26.1386 20.9067L24.1928 18.3129L23.6777 18.6956L25.6378 21.2894L26.1386 20.9067Z" fill="white"/>
<path fill-rule="evenodd" clip-rule="evenodd" d="M28.0712 19.6736L27.1126 17.916L29.2015 19.0499L29.7022 18.7806L28.1427 15.9458L27.5848 16.2435L28.5433 17.9869L26.4402 16.8529L25.9395 17.1222L27.4989 19.9712L28.0712 19.6736Z" fill="white"/>
<path fill-rule="evenodd" clip-rule="evenodd" d="M20.6448 26.5197L20.1583 26.2221L19.3714 27.5119L18.6847 27.1008L19.3571 26.0094L18.8707 25.7118L18.1982 26.8174L17.5401 26.4205L18.327 25.1306L17.8406 24.8472L16.7246 26.6756L19.5288 28.3482L20.6448 26.5197Z" fill="white"/>
<path fill-rule="evenodd" clip-rule="evenodd" d="M73.424 41.771C75.0693 41.2466 78.7462 40.0985 78.7462 40.0985L73.5241 38.0574C73.5241 38.0574 77.0436 36.4983 78.6317 35.7754L73.2237 34.3438C74.6973 33.4083 78.0451 31.5657 78.0451 31.5657L72.5083 30.6586L76.9292 27.3418L71.378 27.1009L75.4556 23.3164L69.8901 23.6849C71.0061 22.3951 72.3652 20.7651 73.5098 19.5036L68.0159 20.4532L71.1205 15.875L65.784 17.4483C66.5422 15.9175 68.3592 12.5299 68.3592 12.5299L63.4519 14.4292L65.2403 9.53918L60.4045 12.2039C60.848 10.5455 61.4632 8.56116 61.8781 6.88862L57.3142 10.092C57.3142 10.092 57.9008 6.26496 58.1583 4.63494L53.9806 8.30603L54.2668 2.77814L53.9806 3.10414C52.8217 4.35146 51.7058 5.75469 50.504 6.87445L50.1749 1.41742L46.9129 5.88226C46.6125 4.19554 46.2262 2.197 45.9973 0.481933L43.1931 5.24443L41.6336 1.39307e-05L39.4446 5.01764L37.3129 -0.0141602L35.6962 5.24443L33.0064 0.439411L32.0049 5.82556L28.8001 1.34655L28.3709 6.83192L24.694 2.73561L24.88 8.24933L20.7309 4.60659L21.5464 10.0353L17.0683 6.80358L18.4275 12.1614C18.4275 12.1614 15.1369 10.2904 13.6346 9.43996L15.609 14.6135L10.4871 12.459L13.0051 17.3349L7.71148 15.7474L10.8018 20.3115L5.32219 19.3193L8.87035 23.5857L3.36212 23.1463L7.33949 27.0158L1.80265 27.1576L6.20923 30.5735L0.715307 31.3389L5.49388 34.2163C3.84856 34.7124 1.74542 35.1517 0.100102 35.6195L5.12189 37.8873C3.50519 38.5535 -0.0429688 39.9284 -0.0429688 39.9284C-0.0429688 39.9284 3.70549 41.0482 5.26496 41.686L0.286094 44.209C0.286094 44.209 4.09178 45.0027 5.78002 45.3571C4.36362 46.3068 1.1016 48.4187 1.1016 48.4187L6.69567 48.9573C5.40803 50.0771 2.38924 52.5292 2.38924 52.5292L8.01192 52.4867L4.1204 56.4837L9.68585 55.7892C8.64144 57.1499 6.26646 60.1974 6.26646 60.1974L11.7604 58.95L8.84174 63.6842L14.1783 61.8416L11.789 66.8308C11.789 66.8308 15.3228 65.0591 16.8537 64.4354L15.0653 69.7082L19.7724 66.7458L18.6421 72.1745L22.9915 68.7727L22.4478 74.2297L26.4681 70.2326L26.4252 75.8314C26.4252 75.8314 28.9003 72.7272 29.9876 71.4941C30.2308 73.195 30.6744 77.022 30.6744 77.022L33.6502 72.2879L34.852 77.7307L35.0953 77.3055L37.4273 72.6564L39.2872 77.9858L41.233 72.8406L43.6509 77.7591L44.9528 72.3162C44.9528 72.3162 47.0417 75.5904 47.9144 77.0645L48.6155 71.4941C48.6155 71.4941 50.9904 74.5699 52.1064 75.8881L52.2638 70.4594L56.1124 74.2297L55.6545 68.8152L59.9324 72.2312C59.589 70.672 58.7878 66.7316 58.7878 66.7316C60.2185 67.7096 62.0784 68.8294 63.5234 69.7649L61.7923 64.4638L66.8284 66.9159C66.8284 66.9159 65.1401 63.3865 64.482 61.8557C66.0272 62.4085 68.2019 63.1739 69.747 63.7834C69.933 63.9251 67.0001 58.9926 67.0001 58.9926L72.3509 60.2966L69.046 55.8459L74.5256 56.5688L70.6484 52.515L76.2711 52.6426L71.9932 49.0282L77.573 48.5321L72.9375 45.3996L78.4028 44.3366L73.4383 41.7144L73.424 41.771ZM77.3155 39.8717L70.0046 39.6024L73.2952 38.2984C74.6401 38.8087 75.9706 39.3331 77.3155 39.8575V39.8717ZM68.6597 46.7745L71.3637 48.8297L67.9157 49.0707C67.9157 49.0707 68.4451 47.5399 68.6597 46.7603V46.7745ZM67.3434 27.2851L70.7771 27.3418C69.9187 28.1214 69.1032 28.901 68.1733 29.5955L67.3434 27.2851ZM68.4308 30.3326L71.8216 30.8428C70.8344 31.509 70.0332 32.1752 69.0174 32.7847L68.4165 30.3326H68.4308ZM69.3607 43.5145L72.3509 45.3713L68.8743 45.9241L69.3607 43.5145ZM69.2177 33.6209L72.494 34.4572L69.5897 36.0305L69.2177 33.6209ZM69.6755 40.2402L72.8946 41.7285C71.7929 42.0829 70.6055 42.3522 69.4895 42.664L69.6755 40.2544V40.2402ZM69.6326 36.9093L72.9804 38.0574C71.936 38.511 70.8058 38.9504 69.7184 39.3898L69.6469 36.9235L69.6326 36.9093ZM77.1724 35.7187L69.8901 36.2715L72.9947 34.6273L77.1581 35.7045L77.1724 35.7187ZM76.5429 31.6508L69.4037 32.9548L72.2794 30.942L76.5429 31.6508ZM75.5414 27.6253L68.6025 29.7231L71.2779 27.4269L75.5414 27.6111V27.6253ZM74.0964 23.7274L67.3864 26.6189L69.79 23.9826C69.79 23.9826 72.68 23.8125 74.0964 23.7133V23.7274ZM67.0001 26.5056L65.8412 24.3086C67.0144 24.181 69.2749 23.9826 69.2749 23.9826C69.2749 23.9826 67.7727 25.6268 67.0001 26.5056ZM72.0934 20.0705L65.6838 23.7274L67.7297 20.8217C69.1461 20.5808 70.677 20.3257 72.0791 20.0705H72.0934ZM65.3977 23.5715L64.0099 21.4171L67.2862 20.921L65.412 23.5715H65.3977ZM69.8901 16.5837L63.9956 20.8076L65.784 17.7743C67.1574 17.3774 68.5309 16.9947 69.8758 16.5837H69.8901ZM63.595 20.8076H63.5091L61.9783 18.9224L65.3548 17.7743L63.595 20.8076ZM67.1861 13.3804L61.8638 18.2562L63.3375 14.897L67.1861 13.3945V13.3804ZM61.4346 18.3413L59.6176 16.6262C60.662 16.0876 61.778 15.5773 62.8796 15.1096L61.4346 18.3413ZM60.4903 12.615L64.2388 10.4888L59.403 15.9459L60.5047 12.6008L60.4903 12.615ZM59.0167 16.0309L57.028 14.5426L60.0325 12.6858C59.7893 13.7489 59.3315 14.897 59.0167 16.0309ZM57.4429 10.418L60.8909 7.98003L56.7419 13.919L57.4429 10.418ZM56.3699 14.0182C55.6689 13.6638 54.9678 13.1394 54.2238 12.7709L57.028 10.5739C56.7991 11.722 56.5702 12.8843 56.3556 14.0182H56.3699ZM54.1523 8.68873L57.3428 5.82556L53.8518 12.1756L54.1523 8.68873ZM50.7472 7.20045L53.5943 4.03963L50.8187 10.7298C50.8044 9.66674 50.7186 8.39107 50.7615 7.20045H50.7472ZM53.7803 8.8163L53.4799 12.3456L51.2337 11.3109L53.7803 8.8163ZM50.3752 7.41306L50.4325 10.9708L48.1147 10.1912V10.0778L50.3609 7.39889L50.3752 7.41306ZM49.617 2.73561L47.5853 9.66674L47.1275 6.13739L49.617 2.73561ZM46.8128 6.4067L47.2992 9.93605L44.8098 9.42578L46.8128 6.4067ZM45.5394 1.97021L44.2947 8.92969L43.4649 5.5846L45.5394 1.97021ZM43.1215 5.82556L44.0229 9.26987L41.5048 9.00056L43.1072 5.81139L43.1215 5.82556ZM41.4047 1.36073L40.9469 8.60369L39.6735 5.37199L41.4047 1.36073ZM39.4446 5.76887C39.4446 5.76887 40.3173 7.82411 40.6893 8.97221L38.1856 8.92969L39.4446 5.76887ZM37.1984 1.38907L37.5704 8.60369L35.9966 5.47121L37.1984 1.38907ZM35.7534 5.82556L37.3558 9.01473L34.8377 9.28404L35.7391 5.83974L35.7534 5.82556ZM33.0493 1.84265C33.0493 1.84265 33.8362 6.59096 34.2082 8.97221L32.3054 6.03818L33.0493 1.84265ZM32.1051 6.37835L34.0508 9.38326L31.6186 9.93605L32.1051 6.37835ZM28.9575 2.76396L30.9033 9.66674L28.6714 7.07288L28.9575 2.76396ZM28.5998 7.56898L30.8031 10.1203C30.0449 10.418 29.215 10.6589 28.4425 10.9708L28.5998 7.56898ZM27.7271 10.7865L25.1947 8.47612L25.0374 4.1105L27.7414 10.8007L27.7271 10.7865ZM27.6842 11.2826L25.3807 12.3173L25.1518 8.92969L27.6842 11.2826ZM9.14219 39.2481C8.02623 38.8795 6.91028 38.3693 5.79433 37.944C6.88167 37.5047 8.05485 37.1645 9.19941 36.7818C9.05634 37.5472 9.15649 38.4685 9.14219 39.2339V39.2481ZM9.32818 42.579L5.88017 41.5726C5.88017 41.5726 8.05485 40.5663 9.14219 40.0843L9.32818 42.579ZM6.09478 34.2588L9.5714 33.4792L9.27095 35.9172L6.08047 34.2446L6.09478 34.2588ZM9.42833 43.3585L9.91477 45.8248L6.38092 45.2154L9.42833 43.3585ZM6.81013 30.6586C7.98331 30.4885 9.19941 30.4034 10.4012 30.29L9.75739 32.6996L6.81013 30.6586ZM10.0721 46.6186C10.344 47.3556 10.5729 48.1919 10.859 48.9715L7.29657 48.7872L10.0721 46.6186ZM10.5729 29.5955L8.1693 27.3277L11.5315 27.1859L10.5729 29.6097V29.5955ZM21.9184 10.6164L24.7655 12.6858L22.505 14.0182L21.9184 10.6164ZM21.9327 14.4151L19.8868 15.9884L18.9139 12.7709L21.947 14.4151H21.9327ZM21.2317 5.89643L24.6797 12.2323L21.8612 10.1628L21.2317 5.88226V5.89643ZM17.7121 8.07924L21.8326 14.0182L18.8281 12.3173L17.7121 8.07924ZM14.4215 10.6022L19.1858 16.116L16.0239 14.7127L14.4215 10.6164V10.6022ZM19.3145 16.4845L17.4403 18.2704L16.1097 15.1521L19.3145 16.4845ZM11.417 13.5079C13.1768 15.1946 15.0081 16.7538 16.7822 18.4405L13.4915 17.42L11.4313 13.4937L11.417 13.5079ZM16.8823 18.8516C16.353 19.5036 15.8093 20.1556 15.2799 20.7934L13.6632 17.9019L16.8966 18.8516H16.8823ZM8.75589 16.6971C10.7017 18.157 12.6903 19.5603 14.6218 21.0485L11.2024 20.3115L8.75589 16.6971ZM14.7935 21.4171L13.4486 23.4865L13.42 23.5573L11.4027 20.6942L14.8078 21.4171H14.7935ZM6.50968 20.1981L12.8048 23.8408L9.3711 23.5857L6.50968 20.1981ZM12.9908 24.1952L11.8605 26.4205L9.58571 23.94L12.9908 24.181V24.1952ZM4.67837 23.8975C6.91028 24.8614 9.02773 25.8535 11.2596 26.8032L7.81163 26.945L4.67837 23.8975ZM3.13321 27.7671L10.1008 29.964L6.56691 30.3326L3.13321 27.7671ZM2.1174 31.7641L9.27095 33.1957L5.7514 33.9328L2.1174 31.7641ZM1.55943 35.903L8.82743 36.5408L5.45095 37.6606L1.55943 35.9172V35.903ZM1.44497 40.0135L8.75589 39.8717L5.56541 41.3175L1.44497 40.0135ZM1.83126 44.1523L9.01342 43.1743L6.06616 45.0027L1.83126 44.1523ZM2.63246 48.2344L9.70016 46.491L6.92459 48.603L2.64676 48.2344H2.63246ZM3.89148 52.1607L10.7017 49.666L8.19792 52.0756L3.89148 52.1607ZM11.1166 49.7511L12.1324 52.0614L8.5699 52.2032L11.1166 49.7652V49.7511ZM5.57972 55.9593L12.0608 52.7276L9.84323 55.4065L5.57972 55.9593ZM12.4614 52.7985C12.905 53.4647 13.3199 54.2017 13.7348 54.9104L10.2009 55.4916L12.4471 52.7843L12.4614 52.7985ZM7.69717 59.517L13.7348 55.6191L11.8176 58.5673L7.69717 59.5312V59.517ZM14.1926 55.6617L15.6948 57.6318L12.3041 58.5248L14.1926 55.6758V55.6617ZM10.1437 62.8621L15.8093 58.298L14.2355 61.4163L10.1294 62.8621H10.1437ZM16.2099 58.2839L17.8981 60.0698L14.7076 61.3171L16.2099 58.298V58.2839ZM16.868 63.9677L13.0051 65.7961L18.0984 60.7218L16.868 63.9677ZM18.5133 60.7076L20.3876 62.2951L17.3115 63.8259L18.5133 60.6935V60.7076ZM19.7437 66.3489L16.1384 68.6026L20.6308 62.9188L19.7437 66.3347V66.3489ZM21.0457 62.8196L23.063 64.2228L20.1873 66.1363L21.0457 62.8054V62.8196ZM22.9915 68.3333L19.5577 70.9838L23.4207 64.8039L22.9915 68.3191V68.3333ZM23.7783 64.7189L25.953 65.8812L23.2919 68.1774L23.7783 64.7331V64.7189ZM23.2633 72.9257L26.3822 66.434L26.4252 69.8074L23.249 72.9399L23.2633 72.9257ZM27.0117 74.5132L29.5155 67.6529C29.6586 68.8294 29.9161 71.0405 29.9161 71.0405L27.0117 74.499V74.5132ZM26.7542 69.5806L26.7828 66.2355L29.029 67.171L26.7542 69.5806ZM30.2451 70.7004L29.8589 67.4687L32.2195 68.1348L30.2451 70.7004ZM31.1036 75.6471L32.7775 68.5317L33.4929 71.8485L31.1036 75.6329V75.6471ZM33.7647 71.4941L33.078 68.3191L35.4815 68.716L33.7647 71.4941ZM35.2526 76.2991L36.1254 69.0845L37.1269 72.4296L35.2526 76.2991ZM37.4273 72.1319L36.3686 68.8436L38.8866 68.9853L37.4273 72.1319ZM39.5018 76.5117L39.5305 69.2688L40.9469 72.5855L39.5018 76.5117ZM41.1901 72.1886C41.1901 72.1886 40.303 70.02 39.7451 68.9853C40.5749 68.9428 42.2345 68.8436 42.2345 68.8436L41.1901 72.1886ZM43.6509 76.2708L42.864 69.0845L44.6095 72.1036L43.6366 76.2708H43.6509ZM44.8527 71.7634L43.0929 68.7585L45.5251 68.3475L44.8527 71.7634ZM47.7713 75.5904L46.1976 68.5034L48.3007 71.3665L47.7713 75.5904ZM48.501 70.998L46.3979 68.1632L48.7585 67.497L48.5153 70.998H48.501ZM51.7916 74.414L49.4596 67.5821L51.8918 70.2184L51.7773 74.414H51.7916ZM49.617 67.2277L51.8632 66.3064L51.9204 69.694L49.617 67.2419V67.2277ZM39.3731 67.1001C23.7068 67.1001 11.0021 54.5136 11.0021 38.9929C11.0021 23.4723 23.7068 10.8857 39.3731 10.8857C55.0393 10.8857 67.744 23.4723 67.744 38.9929C67.744 54.5136 55.0393 67.1001 39.3731 67.1001ZM70.0618 52.2882L66.6567 52.1181L67.6439 49.907L70.0618 52.2882ZM68.4022 55.5057L65.0257 55.0522C65.5407 54.2017 66.2275 52.9261 66.2275 52.9261L68.4022 55.5057ZM66.4135 58.5957L63.037 57.7452L64.4963 55.775L66.4135 58.5957ZM64.0814 61.5297L60.8623 60.2257L62.479 58.3973L64.0814 61.5297ZM60.147 60.8068L61.4203 64.0669L58.3443 62.3943L60.147 60.8068ZM57.6003 62.933L58.4874 66.3064L55.6116 64.3362L57.6003 62.933ZM55.3112 68.2057L52.693 65.9379L54.839 64.7898L55.3255 68.2057H55.3112ZM55.7118 73.0107L52.5785 66.3064L55.3255 68.7302L55.7118 73.0249V73.0107ZM59.3172 70.8846L55.5401 64.7047L58.3872 66.6749L59.3172 70.8846ZM62.7652 68.5317L58.3014 62.777L61.4203 64.4921L62.7652 68.5317ZM65.9413 65.7961L60.8623 60.5942L64.11 61.9266L65.927 65.7961H65.9413ZM68.7885 62.7487L63.1228 58.0996L66.5852 58.9926L68.7885 62.7487ZM71.2064 59.4036L65.0972 55.4207L68.5882 55.8884L71.2064 59.3894V59.4036ZM73.2666 55.8034L66.7855 52.515L70.2192 52.6567L73.2666 55.8034ZM74.9548 52.0047L68.1303 49.4534L71.5927 49.1699L74.9548 52.0047ZM76.2711 48.1069L69.1032 46.2501L72.6657 45.6973L76.2711 48.1069ZM69.7327 42.9617L73.1521 42.012L76.9721 43.9964L69.7184 42.9617H69.7327Z" fill="white"/>
<path fill-rule="evenodd" clip-rule="evenodd" d="M30.9755 15.4072L31.8339 17.9444L32.4491 17.746L31.5764 15.2088L32.3919 14.9395L32.2059 14.4009L29.9883 15.1521L30.16 15.6765L30.9755 15.4072Z" fill="white"/>
<path fill-rule="evenodd" clip-rule="evenodd" d="M15.4951 30.857C15.5667 30.9279 15.6525 30.9988 15.7383 31.0555C15.8385 31.1122 15.9386 31.1689 16.0531 31.2114C16.1676 31.2539 16.282 31.3106 16.4251 31.3531C16.5539 31.4098 16.6826 31.4524 16.7971 31.4949C16.9115 31.5374 17.026 31.5658 17.1261 31.5941C17.2263 31.6224 17.3407 31.6224 17.4409 31.6224C17.541 31.6224 17.6555 31.5941 17.7556 31.5374C17.913 31.4665 18.0418 31.3815 18.1419 31.2681C18.2564 31.1547 18.3422 31.013 18.3995 30.857C18.471 30.7011 18.4996 30.531 18.4996 30.3751C18.4996 30.2192 18.471 30.0491 18.3852 29.879C18.3136 29.7373 18.2135 29.6097 18.0847 29.5105C17.9559 29.4113 17.7843 29.3121 17.5697 29.227L17.1261 29.0569L16.6683 30.1909L17.1691 30.3893L17.3837 29.8365L17.4981 29.879C17.584 29.9074 17.6412 29.9499 17.7127 29.9924C17.77 30.0349 17.8129 30.1058 17.8558 30.1625C17.8844 30.2334 17.913 30.3043 17.913 30.3893C17.913 30.4743 17.8987 30.5594 17.8701 30.6444C17.8415 30.7295 17.7986 30.7862 17.7413 30.8429C17.6841 30.8996 17.6269 30.9279 17.5697 30.9563C17.5267 30.9704 17.4838 30.9846 17.4409 30.9846C17.398 30.9846 17.3407 30.9846 17.2692 30.9704C17.1977 30.9704 17.1261 30.9279 17.026 30.8996C16.9258 30.8712 16.8114 30.8145 16.654 30.7578C16.5109 30.7011 16.3965 30.6586 16.2963 30.6161C16.1962 30.5736 16.1246 30.531 16.0674 30.5027C16.0102 30.4602 15.9673 30.4318 15.9386 30.4035C15.91 30.3751 15.8814 30.3326 15.8671 30.2901C15.8385 30.2334 15.8242 30.1625 15.8099 30.0916C15.8099 30.0208 15.8099 29.9357 15.8528 29.8507C15.91 29.6948 15.9959 29.5956 16.1103 29.5389C16.2248 29.4822 16.3536 29.468 16.5109 29.4822L16.7542 28.8868C16.6111 28.8585 16.4823 28.8443 16.3392 28.8585C16.1962 28.8727 16.0674 28.901 15.9386 28.9577C15.8099 29.0144 15.6954 29.0995 15.581 29.2129C15.4665 29.3262 15.3807 29.468 15.3091 29.6381C15.2376 29.8082 15.209 29.9641 15.209 30.12C15.209 30.2759 15.2519 30.4318 15.3091 30.5736C15.3521 30.6728 15.4093 30.772 15.4808 30.8429M32.492 24.1244C32.6493 24.4504 32.8782 24.7338 33.1644 24.9323C33.4505 25.1449 33.7796 25.3008 34.1373 25.4C34.4949 25.4992 34.8955 25.5559 35.3104 25.5559C35.5966 25.5559 35.897 25.5276 36.1689 25.4851C36.455 25.4425 36.6982 25.3575 36.8985 25.2583C36.9415 25.2299 36.9701 25.2016 36.9844 25.1732C36.9844 25.1449 36.9987 25.0882 36.9987 24.989V24.2803C36.9987 23.8976 36.9987 23.5432 36.9987 23.4156V22.9621C36.9987 22.9621 36.9701 22.877 36.9128 22.877C36.7412 22.877 36.6267 22.877 36.5695 22.877C36.5266 22.877 36.4121 22.877 36.2118 22.877C35.9257 22.877 35.7397 22.877 35.6109 22.877C35.4535 22.877 35.4249 22.9337 35.4249 22.9904C35.4249 23.0188 35.4249 23.0896 35.568 23.0896C35.6824 23.0896 35.7683 23.0896 35.8112 23.1038C35.897 23.118 35.9686 23.1605 35.9972 23.203C36.0258 23.2456 36.0544 23.3306 36.0544 23.4298C36.0544 23.5574 36.0544 23.9117 36.0544 24.2803V24.8898C36.0544 24.989 36.0258 25.0598 35.9543 25.0882C35.897 25.1165 35.8112 25.1307 35.7254 25.1449C35.6395 25.1449 35.5251 25.1449 35.4106 25.1449C35.0815 25.1449 34.7668 25.0882 34.4949 24.9606C34.2231 24.8472 33.9799 24.6771 33.7796 24.4645C33.5793 24.2519 33.4362 23.9968 33.3218 23.6991C33.2216 23.4015 33.1644 23.0896 33.1644 22.7495C33.1644 22.3668 33.2216 22.0549 33.3218 21.7998C33.4219 21.5447 33.565 21.3462 33.751 21.1903C33.9513 21.0344 34.1516 20.921 34.3519 20.8785C34.8383 20.7651 35.4535 20.7793 35.897 20.9635C36.1546 21.0628 36.3406 21.1761 36.4407 21.3037C36.5122 21.3746 36.5552 21.4596 36.5838 21.5305C36.6124 21.6155 36.6267 21.7006 36.6553 21.814C36.6696 21.9132 36.7269 21.9274 36.7698 21.9274C36.827 21.9274 36.8842 21.899 36.8842 21.7431C36.8842 21.4738 36.8842 21.2612 36.8842 21.1194C36.8842 20.9777 36.8985 20.8501 36.9128 20.7651C36.9128 20.7226 36.9128 20.7084 36.9128 20.6942C36.9128 20.6659 36.9128 20.5808 36.7841 20.5667C36.7125 20.5667 36.641 20.5667 36.5409 20.5383C36.4407 20.5383 36.3549 20.51 36.269 20.4958C36.2404 20.4958 36.1689 20.4816 36.0973 20.4674C36.0115 20.4674 35.9113 20.4391 35.7969 20.4249C35.6681 20.4249 35.5537 20.3966 35.4392 20.3966C34.9814 20.3682 34.5522 20.3966 34.1802 20.4674C33.894 20.5241 33.6079 20.6375 33.3218 20.8076C32.9927 21.0061 32.7066 21.2895 32.492 21.6581C32.2773 22.0266 32.1629 22.466 32.1629 22.9621C32.1629 23.4015 32.2487 23.7842 32.4061 24.1102M40.3179 25.2441H40.1606C40.0747 25.2158 40.0318 25.1874 40.0032 25.1591C39.9746 25.1165 39.9459 25.0457 39.9316 24.9606C39.9316 24.8331 39.9173 24.6771 39.903 24.4645C39.903 24.2519 39.903 23.9543 39.903 23.5432V21.4029C39.903 21.2612 39.903 21.1336 39.9173 21.0344C39.9173 20.921 39.9459 20.8501 39.9746 20.7934C40.0032 20.7509 40.0461 20.7226 40.1176 20.7084C40.1892 20.7084 40.2607 20.6942 40.3036 20.6942C40.4324 20.6942 40.4467 20.6234 40.4467 20.5808C40.4467 20.4816 40.3036 20.4816 40.2607 20.4816C40.1749 20.4816 40.0032 20.4816 39.7886 20.4816C39.6312 20.4816 39.5167 20.4816 39.4738 20.4816C39.4023 20.4816 39.2878 20.4816 39.1018 20.4816C38.8586 20.4816 38.7012 20.4816 38.6154 20.4816C38.5582 20.4816 38.4151 20.4816 38.4151 20.5808C38.4151 20.6092 38.4294 20.6942 38.5582 20.6942C38.644 20.6942 38.7155 20.6942 38.7871 20.7226C38.9015 20.7509 38.9588 20.8501 38.9731 21.0486C38.9731 21.162 38.9874 21.2754 38.9874 21.4171V23.5574C38.9874 23.9543 38.9874 24.2519 38.9874 24.4645C38.9874 24.6771 38.9874 24.8331 38.9588 24.9606C38.9444 25.1307 38.8872 25.2299 38.8014 25.2441C38.7298 25.2583 38.644 25.2725 38.5725 25.2725C38.4437 25.2725 38.4294 25.3291 38.4294 25.3717C38.4294 25.4142 38.458 25.4851 38.6011 25.4851C38.6869 25.4851 38.8586 25.4851 39.1161 25.4851C39.2878 25.4851 39.388 25.4851 39.4166 25.4851C39.4738 25.4851 39.574 25.4851 39.717 25.4851C40.0175 25.4851 40.2464 25.4851 40.4324 25.4851C40.5755 25.4851 40.6041 25.4284 40.6041 25.3717C40.6041 25.3291 40.5898 25.2725 40.461 25.2725C40.4038 25.2725 40.3609 25.2725 40.3036 25.2725M41.2765 25.4567C41.391 25.4567 41.5054 25.4567 41.6342 25.4567C41.7486 25.4567 41.8488 25.4567 41.9203 25.4567C41.9919 25.4567 42.0348 25.4567 42.0491 25.4567C42.1063 25.4567 42.2208 25.4567 42.3925 25.4567C42.5498 25.4567 42.6643 25.4567 42.7501 25.4567C42.8789 25.4567 42.9075 25.3858 42.9075 25.3433C42.9075 25.315 42.8932 25.2441 42.7644 25.2441H42.6643C42.5785 25.2441 42.5212 25.2441 42.4926 25.2016C42.464 25.1732 42.4497 25.1307 42.4497 25.0882C42.4497 24.989 42.4783 24.8614 42.5498 24.7055L42.9218 23.7558H44.4098L44.9248 25.1449C44.9248 25.1449 44.9534 25.2441 44.982 25.315C45.0107 25.3858 45.0393 25.4425 45.1108 25.4425C45.1823 25.4425 45.2539 25.4425 45.3397 25.4425C45.4256 25.4425 45.5257 25.4425 45.6259 25.4425H46.2554C46.3841 25.4425 46.47 25.4425 46.5129 25.4425C46.5987 25.4284 46.6131 25.3717 46.6131 25.3433C46.6131 25.315 46.6131 25.2441 46.4843 25.2441C46.3841 25.2441 46.2983 25.2441 46.2125 25.2158C46.1266 25.2016 46.0408 25.1449 45.9549 25.0598C45.8691 24.9748 45.7689 24.7905 45.6688 24.5354L44.2381 21.0202C44.1379 20.7651 44.0664 20.6092 44.0378 20.5525C43.9662 20.3966 43.909 20.3115 43.8375 20.3115C43.8089 20.3115 43.7659 20.3115 43.723 20.3824C43.6944 20.4249 43.6658 20.4816 43.6229 20.595L41.9776 24.663C41.906 24.8472 41.8345 24.989 41.7486 25.074C41.6771 25.1591 41.577 25.2016 41.4482 25.2158C41.3767 25.2158 41.3194 25.2158 41.2479 25.2158C41.1334 25.2158 41.1191 25.2866 41.1191 25.315C41.1191 25.3575 41.1477 25.4284 41.2908 25.4284L41.2765 25.4567ZM43.6515 21.7856L44.2381 23.359H43.0506L43.6515 21.7856Z" fill="white"/>
<path fill-rule="evenodd" clip-rule="evenodd" d="M36.7842 16.7962L36.684 16.2293L35.1961 16.4844L35.0673 15.7048L36.3406 15.4922L36.2405 14.9394L34.9672 15.152L34.8384 14.4008L36.3406 14.1457L36.2405 13.5929L34.123 13.9472L34.6524 17.1364L36.7842 16.7962Z" fill="white"/>
<path fill-rule="evenodd" clip-rule="evenodd" d="M17.2826 34.4997C17.3112 34.3296 17.3256 34.1737 17.2969 34.0178C17.2826 33.8619 17.2254 33.7201 17.1396 33.6067C17.068 33.4934 16.9822 33.4083 16.8963 33.3516C16.7962 33.2807 16.696 33.2382 16.5959 33.1957C16.4957 33.1532 16.3813 33.1248 16.2525 33.0965L15.8948 33.0256L15.5372 32.9547C15.4227 32.9264 15.3083 32.9122 15.1938 32.9122C15.0793 32.9122 14.9792 32.9122 14.8647 32.9406C14.7503 32.9689 14.6501 33.0114 14.5357 33.0823C14.4069 33.1674 14.3068 33.2807 14.2209 33.4083C14.1351 33.5359 14.0778 33.6918 14.0492 33.8619L13.8203 35.01L17.0251 35.6478L17.254 34.4997H17.2826ZM16.7103 34.443L16.6102 34.9108L14.5214 34.4997L14.6215 34.032C14.6358 33.9186 14.6787 33.8335 14.7217 33.7627C14.7646 33.6918 14.8361 33.6351 14.9077 33.6067C14.9506 33.5784 14.9935 33.5642 15.0364 33.5642C15.0793 33.5642 15.1509 33.5642 15.2081 33.5642C15.2796 33.5642 15.3512 33.5642 15.437 33.5926C15.5229 33.6068 15.6373 33.6209 15.7518 33.6493C15.995 33.6918 16.181 33.7485 16.3097 33.791C16.4385 33.8335 16.5244 33.8902 16.5959 33.9611C16.6531 34.032 16.6817 34.1028 16.7103 34.1879C16.7247 34.2729 16.7247 34.358 16.7103 34.4714V34.443ZM38.171 15.4639C38.171 15.5915 38.1853 15.7049 38.2139 15.8041C38.2282 15.9175 38.2711 16.0025 38.3141 16.1018C38.357 16.201 38.4285 16.286 38.5144 16.3569C38.6288 16.4703 38.7576 16.5553 38.915 16.612C39.058 16.6687 39.2297 16.6971 39.4014 16.6971C39.5731 16.6971 39.7448 16.6687 39.8878 16.612C40.0452 16.5553 40.1883 16.4561 40.317 16.3144C40.4315 16.201 40.503 16.0592 40.546 15.9033C40.5889 15.7474 40.6175 15.549 40.6175 15.3222V14.8544L39.3728 14.8686V15.393H39.9737V15.5206C39.9737 15.6057 39.9737 15.6765 39.9451 15.7616C39.9308 15.8324 39.8878 15.9033 39.8306 15.96C39.7734 16.0167 39.7161 16.0592 39.6446 16.1018C39.5731 16.1301 39.4872 16.1443 39.3871 16.1584C39.3012 16.1584 39.2154 16.1584 39.1439 16.1159C39.0723 16.0876 39.0151 16.0451 38.9722 15.9884C38.9436 15.96 38.915 15.9175 38.9006 15.875C38.8863 15.8324 38.8577 15.7757 38.8434 15.7191C38.8434 15.6482 38.8148 15.5631 38.8148 15.4639C38.8148 15.3647 38.8148 15.2371 38.8148 15.0812C38.8148 14.9253 38.8148 14.7977 38.8148 14.6985C38.8148 14.5993 38.8148 14.5143 38.8434 14.4434C38.8434 14.3725 38.872 14.3158 38.8863 14.2875C38.9006 14.2449 38.9293 14.2166 38.9579 14.1741C39.0008 14.1174 39.058 14.0749 39.1296 14.0465C39.2011 14.0182 39.2726 14.004 39.3728 13.9898C39.5302 13.9898 39.6732 14.0323 39.7591 14.1032C39.8592 14.1883 39.9165 14.3016 39.9594 14.4576H40.6032C40.5746 14.3158 40.5317 14.1883 40.4744 14.0607C40.4172 13.9331 40.3314 13.8339 40.2312 13.7347C40.1311 13.6355 40.0023 13.5646 39.8592 13.5079C39.7162 13.4512 39.5445 13.4229 39.3585 13.4229C39.1725 13.4229 39.0151 13.4512 38.872 13.5221C38.729 13.5788 38.6002 13.678 38.4857 13.7914C38.3999 13.8764 38.3427 13.9615 38.2997 14.0607C38.2568 14.1599 38.2282 14.2591 38.2139 14.3583C38.1996 14.4717 38.1853 14.5851 38.1853 14.6985C38.1853 14.8261 38.1853 14.9537 38.1853 15.0954C38.1853 15.2371 38.1853 15.3647 38.1853 15.4923" fill="white"/>
<path fill-rule="evenodd" clip-rule="evenodd" d="M61.0625 45.2154L61.6205 45.343L61.9495 43.9114L64.582 44.5067L64.7251 43.8972L61.5489 43.1602L61.0625 45.2154Z" fill="white"/>
<path fill-rule="evenodd" clip-rule="evenodd" d="M16.8541 40.708L16.2961 40.7789L16.4821 42.2388L13.8066 42.579L13.8782 43.2026L17.1259 42.7916L16.8541 40.708Z" fill="white"/>
<path fill-rule="evenodd" clip-rule="evenodd" d="M19.2571 51.6645C19.3573 51.6078 19.4574 51.537 19.5432 51.4661C19.6291 51.3952 19.7006 51.3244 19.7579 51.2393C19.8151 51.1543 19.858 51.055 19.8866 50.9417C19.9295 50.7857 19.9438 50.6298 19.9295 50.4739C19.9152 50.318 19.858 50.1621 19.7722 50.0062C19.6863 49.8502 19.5719 49.7227 19.4431 49.6235C19.3143 49.5242 19.1856 49.4675 19.0282 49.425C18.9137 49.3967 18.8136 49.3825 18.6991 49.3967C18.599 49.3967 18.4988 49.425 18.3844 49.4675C18.2842 49.5101 18.1698 49.5526 18.0696 49.6093C17.9552 49.666 17.8407 49.7227 17.7262 49.7936C17.5975 49.8644 17.4973 49.9211 17.3829 49.992C17.2827 50.0487 17.1826 50.1196 17.0967 50.1904C17.0109 50.2613 16.9394 50.3322 16.8821 50.4172C16.8249 50.5023 16.782 50.6015 16.7534 50.7149C16.7104 50.8708 16.6961 51.0267 16.7104 51.1826C16.7248 51.3385 16.782 51.4944 16.8678 51.6504C16.9537 51.8063 17.0681 51.9338 17.1969 52.0331C17.3256 52.1323 17.4687 52.2031 17.6261 52.2457C17.7406 52.274 17.8407 52.2882 17.9552 52.274C18.0553 52.274 18.1555 52.2457 18.2699 52.2031C18.3701 52.1606 18.4702 52.1181 18.5847 52.0614C18.6991 52.0047 18.8136 51.948 18.928 51.8771C19.0568 51.8063 19.157 51.7496 19.2714 51.6787M18.2556 51.4944C18.1698 51.537 18.0839 51.5795 18.0267 51.5937C17.9552 51.622 17.9122 51.622 17.855 51.6362C17.8121 51.6362 17.7692 51.6362 17.7262 51.6362C17.6547 51.622 17.5975 51.5937 17.5259 51.5511C17.4687 51.5086 17.4115 51.4519 17.3686 51.3669C17.3256 51.296 17.297 51.211 17.297 51.1401C17.297 51.0692 17.297 50.9983 17.3256 50.9275C17.3256 50.885 17.3543 50.8424 17.3829 50.7999C17.4115 50.7574 17.4544 50.7149 17.4973 50.6723C17.5546 50.6298 17.6261 50.5731 17.7119 50.5306C17.7978 50.4739 17.9122 50.4172 18.041 50.3322C18.1698 50.2613 18.2842 50.1904 18.3844 50.1479C18.4702 50.1054 18.5561 50.0629 18.6133 50.0487C18.6848 50.0203 18.7277 50.0203 18.785 50.0203C18.8279 50.0203 18.8851 50.0203 18.928 50.0203C18.9996 50.0345 19.0568 50.0629 19.1283 50.1054C19.1856 50.1479 19.2428 50.2046 19.2857 50.2896C19.3286 50.3605 19.3573 50.4456 19.3573 50.5164C19.3573 50.5873 19.3573 50.6582 19.3286 50.729C19.3143 50.7716 19.3 50.8141 19.2714 50.8424C19.2428 50.885 19.1999 50.9275 19.157 50.97C19.0997 51.0125 19.0282 51.0692 18.9423 51.1117C18.8565 51.1684 18.7421 51.2251 18.6133 51.3102C18.4845 51.3811 18.3558 51.4519 18.2699 51.4944" fill="white"/>
<path fill-rule="evenodd" clip-rule="evenodd" d="M18.1408 46.6044L16.0663 46.6469L17.7689 45.4705L17.5972 44.9602L14.2207 45.1586L14.4353 45.7823L16.5528 45.6264L14.7787 46.8312L14.9218 47.2706L17.0678 47.1997L15.2651 48.3053L15.4797 48.9431L18.3125 47.1005L18.1408 46.6044Z" fill="white"/>
<path fill-rule="evenodd" clip-rule="evenodd" d="M59.832 48.4612L60.3614 48.6738L60.9337 47.2847L61.6633 47.5824L61.1769 48.773L61.7063 48.9856L62.1927 47.795L62.9081 48.0785L62.3358 49.4675L62.8651 49.6801L63.6663 47.7099L60.6475 46.491L59.832 48.4612Z" fill="white"/>
<path fill-rule="evenodd" clip-rule="evenodd" d="M58.8602 50.2613L60.5628 51.3102L58.1735 51.3527L57.873 51.8346L60.6486 53.5355L60.9777 53.011L59.2894 51.9622L61.6644 51.9196L61.9792 51.4377L59.1893 49.7227L58.8602 50.2613Z" fill="white"/>
<path fill-rule="evenodd" clip-rule="evenodd" d="M22.4048 53.7481L20.8596 55.0096L21.5749 52.7559L21.203 52.3165L18.6992 54.3859L19.0998 54.882L20.645 53.6064L19.9296 55.8601L20.3016 56.2995L22.8054 54.23L22.4048 53.7481Z" fill="white"/>
<path fill-rule="evenodd" clip-rule="evenodd" d="M42.4067 63.018C42.3208 62.9046 42.2064 62.8338 42.0919 62.7771C42.192 62.7062 42.2779 62.6212 42.3351 62.5078C42.3923 62.3944 42.421 62.2526 42.4067 62.0825C42.4067 61.9408 42.3637 61.8274 42.3065 61.714C42.2493 61.6006 42.1777 61.5156 42.0776 61.4447C41.9774 61.3738 41.8773 61.3171 41.7485 61.2888C41.6198 61.2604 41.491 61.2463 41.3479 61.2604C41.2049 61.2604 41.0904 61.303 40.9616 61.3597C40.8472 61.4164 40.747 61.4872 40.6612 61.5723C40.5753 61.6573 40.5181 61.7565 40.4752 61.8841C40.4323 61.9975 40.418 62.1392 40.418 62.281L41.0189 62.2243C41.0189 62.0967 41.0475 61.9975 41.119 61.9266C41.1906 61.8558 41.2764 61.8132 41.3909 61.7991C41.491 61.7991 41.5912 61.8132 41.677 61.8841C41.7628 61.9408 41.8058 62.04 41.8201 62.1818C41.8201 62.2951 41.8058 62.3944 41.7485 62.4794C41.6913 62.5645 41.5912 62.607 41.4481 62.6212H41.3622L41.4052 63.1456H41.491C41.6341 63.1314 41.7485 63.1456 41.8344 63.2306C41.9202 63.3015 41.9631 63.4149 41.9774 63.5425C41.9774 63.6842 41.9631 63.7976 41.8773 63.8826C41.8058 63.9677 41.7056 64.0102 41.5768 64.0244C41.5196 64.0244 41.4624 64.0244 41.4052 64.0244C41.3479 64.0244 41.305 63.996 41.2621 63.9535C41.2192 63.9252 41.1762 63.8826 41.1476 63.8259C41.119 63.7693 41.1047 63.7126 41.0904 63.6417L40.4895 63.6984C40.5038 63.8685 40.5467 64.0102 40.6183 64.1236C40.6898 64.237 40.7756 64.3362 40.8758 64.3929C40.9759 64.4638 41.0904 64.5063 41.2192 64.5347C41.3479 64.563 41.4767 64.563 41.6055 64.5488C41.7485 64.5488 41.8773 64.5063 41.9918 64.4496C42.1062 64.4071 42.2207 64.3362 42.3065 64.237C42.3923 64.152 42.4639 64.0386 42.5068 63.911C42.5497 63.7834 42.564 63.6417 42.5497 63.4858C42.5354 63.2873 42.4782 63.1314 42.3923 63.0322" fill="white"/>
<path fill-rule="evenodd" clip-rule="evenodd" d="M44.7963 60.7218L44.2812 61.4305L44.4386 62.0542L44.9537 61.3313L45.5832 63.8685L46.1555 63.7267L45.3686 60.5801L44.7963 60.7218Z" fill="white"/>
<path fill-rule="evenodd" clip-rule="evenodd" d="M24.6797 57.2349L24.0359 57.3483L24.3363 55.6899L23.764 55.208L23.392 57.4475L21.7324 57.7452L22.3333 58.2413L24.1217 57.8869L23.2204 58.9783L23.7068 59.3752L25.7956 56.8947L25.3092 56.4837L24.6797 57.2349Z" fill="white"/>
<path fill-rule="evenodd" clip-rule="evenodd" d="M38.3151 61.5864C38.2292 61.5013 38.1291 61.4305 38.0003 61.3738C37.8858 61.3171 37.7428 61.2887 37.5997 61.2745C37.4566 61.2745 37.3279 61.2745 37.1991 61.3171C37.0703 61.3454 36.9559 61.4163 36.8557 61.4871C36.7556 61.5722 36.684 61.6714 36.6125 61.7848C36.5553 61.9124 36.5124 62.0399 36.498 62.21C36.498 62.3659 36.498 62.4935 36.541 62.6211C36.5839 62.7486 36.6411 62.8479 36.7127 62.9329C36.7842 63.018 36.87 63.0888 36.9702 63.1455C37.0703 63.2022 37.1705 63.2306 37.2849 63.2306C37.3279 63.2306 37.3708 63.2306 37.4137 63.2306C37.4566 63.2306 37.4995 63.2306 37.5425 63.2022L36.7699 64.4921L37.4137 64.5346L38.2006 63.188C38.2864 63.0463 38.358 62.9046 38.4295 62.777C38.4867 62.6352 38.5297 62.4935 38.544 62.3518C38.544 62.1959 38.544 62.0399 38.501 61.9265C38.4581 61.799 38.4009 61.6856 38.3151 61.6005M37.9574 62.3092C37.9574 62.4652 37.9001 62.5786 37.8143 62.6494C37.7285 62.7203 37.6283 62.7628 37.4995 62.7486C37.3708 62.7486 37.2706 62.6919 37.1991 62.6069C37.1276 62.5219 37.0989 62.3943 37.1133 62.2525C37.1133 62.0966 37.1705 61.9832 37.2563 61.9124C37.3422 61.8415 37.4423 61.799 37.5711 61.8132C37.6998 61.8132 37.7857 61.8698 37.8572 61.9549C37.9288 62.0399 37.9574 62.1675 37.9431 62.3092" fill="white"/>
<path fill-rule="evenodd" clip-rule="evenodd" d="M33.2778 61.1753L33.1348 61.799L33.9073 61.3879L33.3208 63.9251L33.9073 64.0527L34.637 60.8918L34.0504 60.7643L33.2778 61.1753Z" fill="white"/>
<path fill-rule="evenodd" clip-rule="evenodd" d="M27.8711 60.5801L28.3718 62.0542L29.8598 61.5722L29.3733 60.0981L27.8711 60.5801Z" fill="white"/>
<path fill-rule="evenodd" clip-rule="evenodd" d="M61.7637 41.8277L62.336 41.8703L62.4361 40.4103L65.1401 40.5946L65.1831 39.9709L61.9211 39.73L61.7637 41.8277Z" fill="white"/>
<path fill-rule="evenodd" clip-rule="evenodd" d="M46.7279 45.6122L47.057 45.2295L46.8138 45.0311L47.4719 44.2657L46.7851 43.6987L46.127 44.4641L45.8838 44.2515L45.5977 44.5917C45.941 44.8468 46.3845 45.1587 46.7279 45.6122Z" fill="white"/>
<path fill-rule="evenodd" clip-rule="evenodd" d="M61.9354 38.3125L62.4933 38.27L62.3789 36.7676L63.1658 36.7109L63.2659 37.9865L63.8382 37.9298L63.7381 36.6542L64.4963 36.5975L64.6251 38.0999L65.1974 38.0432L65.0114 35.9171L61.7637 36.1864L61.9354 38.3125Z" fill="white"/>
<path fill-rule="evenodd" clip-rule="evenodd" d="M32.2624 50.3889L30.6171 47.0013H29.3438V47.1572C29.3438 47.1572 31.1894 49.1983 32.2767 50.3889M44.3948 47.7242L45.0816 46.9163L45.3963 47.1856L45.6252 46.9163C45.5108 46.5194 45.1674 46.2501 44.6523 45.8674C44.6237 45.839 44.5951 45.8249 44.5665 45.7965L44.2231 46.1934L44.5379 46.4485L43.8511 47.2564L44.3948 47.71V47.7242Z" fill="white"/>
<path fill-rule="evenodd" clip-rule="evenodd" d="M44.1801 49.5527L43.8081 50.5449H45.7825L45.6108 49.6519C46.2689 49.3259 46.784 48.5038 46.8841 47.4833C46.8841 47.3982 46.8841 47.3132 46.8841 47.2281C46.8841 47.1998 46.8841 47.1573 46.8841 47.1147C46.8841 47.0722 46.8841 47.0297 46.8841 46.9872C46.8841 46.9446 46.8841 46.9021 46.8698 46.8454C46.8698 46.8171 46.8698 46.7887 46.8698 46.7604C46.8698 46.7179 46.8555 46.6612 46.8412 46.6186C46.8412 46.6045 46.8412 46.5761 46.8412 46.5619C46.8269 46.5052 46.8126 46.4627 46.784 46.406V46.3777C46.7697 46.321 46.7411 46.2643 46.7124 46.2218C46.7124 46.2218 46.7124 46.2218 46.7124 46.2076C46.6838 46.1509 46.6552 46.0942 46.6266 46.0517C46.598 45.995 46.5551 45.9525 46.5265 45.8958C46.2117 45.4564 45.7825 45.1445 45.4248 44.8752C45.4248 44.8752 45.4105 44.861 45.3962 44.861C45.296 44.7902 45.2102 44.7193 45.1244 44.6484L44.5664 45.343C44.6522 45.3997 44.7381 45.4705 44.8239 45.5414C44.8525 45.5556 44.8668 45.5839 44.8954 45.5981C45.3104 45.8958 45.711 46.1934 45.9112 46.6186C45.9542 46.7037 45.9828 46.7887 45.9971 46.8738C45.9971 46.9163 46.0114 46.9588 46.0257 47.0013C46.0257 47.0297 46.0257 47.0722 46.0257 47.1006C46.0257 47.1856 46.0257 47.2848 46.0257 47.3699C45.9399 48.2345 45.4248 48.9857 44.6236 48.9148L42.6635 47.2848L42.1914 47.8376L44.2087 49.5243L44.1801 49.5527Z" fill="white"/>
<path fill-rule="evenodd" clip-rule="evenodd" d="M29.3301 46.3918V46.5051H32.4776L30.7036 45.3712L29.3301 46.3918Z" fill="white"/>
<path fill-rule="evenodd" clip-rule="evenodd" d="M34.123 46.5052H37.3278V46.3918L35.9973 45.4421L34.123 46.5052Z" fill="white"/>
<path fill-rule="evenodd" clip-rule="evenodd" d="M33.0207 50.8991V47.0012H31.1035L33.0207 50.8991Z" fill="white"/>
<path fill-rule="evenodd" clip-rule="evenodd" d="M34.2656 50.4314L37.3273 47.143V47.0012H36.0969L34.2656 50.4314Z" fill="white"/>
<path fill-rule="evenodd" clip-rule="evenodd" d="M33.4492 46.9871V50.9983L35.5953 46.9871H33.4492Z" fill="white"/>
<path fill-rule="evenodd" clip-rule="evenodd" d="M43.5943 49.5242L42.1636 48.3336L41.7773 49.1557L42.8361 50.0345L43.5943 49.5242Z" fill="white"/>
<path fill-rule="evenodd" clip-rule="evenodd" d="M31.332 45.2153L33.2635 46.4485L35.4382 45.2153H31.332Z" fill="white"/>
</g>
<defs>
<clipPath id="clip0_33_2607">
<rect width="239" height="78" fill="white"/>
</clipPath>
</defs>
</svg>
