<svg width="230" height="58" viewBox="0 0 230 58" fill="none" xmlns="http://www.w3.org/2000/svg">
<g clip-path="url(#clip0_143_5675)">
<path d="M49.3236 29.2584C48.4001 29.3435 47.3673 29.3074 46.4611 29.3899C42.2113 29.7766 36.7448 30.6285 33.797 33.897C30.9704 37.0315 30.1962 43.1794 29.9949 47.2329C29.835 50.4602 30.2322 54.4492 29.8723 57.5541C29.8497 57.7474 29.8444 57.9523 29.6032 58C29.3926 56.755 29.6151 55.4777 29.6005 54.1992C29.5418 49.2332 29.2753 41.1881 27.343 36.6629C23.6142 27.9348 8.51936 29.4518 0.483511 29.1295C0.303603 29.1218 -0.07087 29.2365 0.0170847 28.9375C0.992581 28.9362 2.06003 28.7674 3.01021 28.7377C9.84668 28.5212 21.8551 29.3834 26.2449 23.2407C29.9403 18.0698 29.5605 6.60929 29.4779 0.461425C29.4779 0.36605 29.5778 -0.00256427 29.6684 1.34527e-05C30.0056 0.389249 29.7031 0.855817 29.7231 1.22572C30.0523 7.37487 29.5978 17.4048 32.8761 22.6749C36.1558 27.9464 43.6119 28.2789 49.3236 28.614C49.3263 28.8292 49.321 29.0432 49.3236 29.2584Z" fill="black"/>
<path d="M70.3779 39.8271C70.3192 39.4791 70.4418 39.6041 70.6684 39.5345C71.993 39.1285 72.5221 39.2252 72.6487 37.578C73.0725 32.0553 72.3289 26.0183 72.6314 20.4414C72.4568 19.6745 72.1196 19.0249 71.3147 18.7504C70.9629 18.6305 70.3539 18.8329 70.3779 18.3044C74.5757 18.6099 81.6307 17.2295 84.8411 20.4903C86.7934 22.4739 86.6188 26.1136 84.5665 27.9657C83.4684 28.9569 82.361 29.1051 81.1363 29.6748C80.9857 29.7444 80.9018 29.7572 80.9204 29.9493C80.9271 30.015 81.4921 30.943 81.5947 31.1054C83.4338 33.9911 87.1865 37.5909 90.4102 38.9481C90.738 39.086 91.8948 39.5461 92.16 39.5552C92.9569 39.5822 94.027 38.903 94.0856 38.0768C93.7818 32.5476 94.5321 26.5441 94.103 21.0703C93.9937 19.6693 93.5153 18.5261 91.8308 18.6911V18.3057C95.4076 18.441 99.1297 18.1214 102.692 18.3057C108.773 18.6215 113.778 22.4971 113.821 28.6798C113.867 35.454 109.38 39.4636 102.565 39.8336C99.227 40.0153 94.556 40.0333 91.2258 39.8336C85.0743 39.4675 81.1216 34.9913 78.3058 30.1607H76.1069C76.0309 29.8771 76.2268 29.8475 76.4707 29.8088C77.2023 29.6941 78.0019 29.7456 78.7482 29.5575C85.5594 27.8381 84.5039 19.2053 77.2396 19.2053H75.3073C75.0621 22.5151 75.1847 25.8713 75.1794 29.1992C75.1754 31.8529 74.9182 34.6433 75.1767 37.3113C75.2647 38.2199 75.5392 39.0512 76.5027 39.3799C76.8545 39.4997 77.4622 39.2961 77.4395 39.8271H70.3765H70.3779ZM96.7642 19.4631V37.3138C96.7642 37.9608 97.3773 38.5653 98.0423 38.6555C105.844 39.7111 112.665 35.4824 110.938 27.2143C109.722 21.3938 104.927 19.4476 99.3682 19.4683C98.5007 19.4721 97.6305 19.4541 96.7642 19.4618V19.4631Z" fill="black"/>
<path d="M49.3215 28.6141C49.2855 26.2297 49.6427 22.6686 49.2895 20.4608C49.1003 19.2763 48.294 18.628 47.0547 18.6886V18.1743H54.3856L54.3069 18.5726C53.4794 18.7182 52.4786 18.851 52.1827 19.7171C51.7936 20.8551 51.8642 26.2297 51.9801 27.6539C52.0001 27.9026 52.0588 28.1205 52.1201 28.3563H63.7141V20.6876C63.7141 20.3512 63.3916 19.4542 63.1237 19.1951C63.0877 19.1603 62.4627 18.7027 62.4201 18.6937C62.0656 18.6241 61.4393 18.8755 61.4486 18.3019H68.5116C68.5663 18.6357 68.4623 18.5352 68.2238 18.5971C67.3029 18.8355 66.5873 18.8291 66.2541 19.9207C66.5193 25.4048 65.877 31.2318 66.2408 36.6746C66.3008 37.5704 66.47 38.8502 67.4095 39.282C67.8746 39.4959 68.6316 39.2704 68.6449 39.8272H61.5819C61.5579 39.2962 62.1736 39.4959 62.5214 39.3825C62.9625 39.2407 63.7141 38.8747 63.7141 38.345V29.5163H51.9868V37.7006C51.9868 38.229 52.7078 39.1054 53.2275 39.3348C53.5553 39.4792 54.3056 39.4238 54.2523 39.8272H47.3892C47.3612 39.8272 47.2373 40.0205 47.1906 39.9561C47.068 39.2433 48.0995 39.5668 48.7218 39.1827C49.0417 38.9855 49.3602 38.5525 49.4228 38.1852C49.4534 35.3574 49.4868 32.5232 49.4641 29.6941C49.4628 29.4596 49.3215 29.2817 49.3215 29.2585C49.3188 29.0433 49.3242 28.8293 49.3215 28.6141Z" fill="black"/>
<path d="M219.237 27.454C219.452 27.5042 219.546 27.4127 219.706 27.3289C221.825 26.2257 222.664 25.049 225.395 25.8145C232.599 27.8342 230.911 39.2496 223.398 40.1802C221.799 40.3787 220.792 40.0216 219.369 39.4404L219.519 45.1578L222.428 46.1463C222.5 46.2262 222.382 46.7727 222.268 46.8848C221.869 47.2766 215.792 46.9325 214.791 47.0253L214.56 46.7199C214.495 45.9169 216.294 45.6256 216.414 45.2841C216.717 39.5873 216.507 33.8699 216.57 28.1628C216.489 27.7362 215.259 27.3934 214.859 27.1782C214.778 26.8959 214.815 26.6214 215.029 26.4151C215.328 26.1277 218.75 25.4111 219.149 25.54C219.602 25.6857 219.054 27.017 219.237 27.454ZM222.526 27.5017C221.779 27.4849 219.523 28.159 219.373 28.94V37.8267C219.438 38.2598 220.651 38.6039 221.044 38.6593C228.229 39.6801 228.934 27.6409 222.526 27.5017Z" fill="black"/>
<path d="M115.29 39.9559C115.169 38.4634 117.324 38.783 117.921 37.7957C120.362 32.2214 123.123 26.7012 125.028 20.9452L124.779 19.7452C125.297 19.6202 126.708 18.4358 127.085 18.428C127.534 18.419 127.498 19.7208 127.61 20.1139C127.858 20.9813 128.351 22.0575 128.686 22.9403C130.54 27.8341 132.753 32.6184 134.707 37.4748C135.041 37.8447 135.36 38.1063 135.809 38.3474C136.258 38.5884 137.625 38.9518 137.817 39.1181C138.066 39.3333 137.704 39.9571 137.611 39.9571H130.548C130.244 39.9571 130.433 39.3656 130.556 39.1916C130.837 38.7933 131.712 38.6103 131.683 38.0999L129.413 32.4521C129.336 32.291 129.119 32.2472 128.955 32.2459C128.055 32.2433 126.919 32.4611 126.022 32.4869C125.392 32.505 122.232 32.358 122.017 32.6094L119.946 38.0793L122.625 39.1181C122.886 39.247 122.525 39.9559 122.418 39.9559H115.289H115.29ZM125.95 23.0718L125.654 23.2381L122.772 30.5085C122.717 30.6426 122.854 30.7521 122.973 30.7869C123.634 30.9802 125.929 30.774 126.823 30.8011C127.175 30.8114 128.629 31.1852 128.742 30.7328L125.95 23.0731V23.0718Z" fill="black"/>
<path d="M164.996 26.8095C164.431 27.5468 163.245 27.2452 162.399 27.3264C161.714 27.3921 161.019 27.5287 160.332 27.5829V36.7982C160.332 36.8743 160.69 37.6605 160.789 37.7739C161.335 38.4016 162.793 38.3758 163.565 38.2495C164.168 38.1515 164.639 37.6514 165.261 37.636C165.597 39.0254 163.823 39.9417 162.632 40.1828C159.98 40.7189 157.77 39.5074 157.535 36.7956C157.28 33.8622 157.734 30.6297 157.515 27.6641C157.407 27.3573 156.001 27.3225 155.596 27.1988C155.444 27.1524 155.362 27.2903 155.4 27.0042C155.44 26.7 155.747 26.3752 155.821 26.0569L157.606 25.9151L158.405 22.4339C158.639 21.9544 159.905 21.4427 160.464 21.5239C160.445 22.4042 160.488 23.291 160.466 24.1725C160.46 24.4677 160.163 26.0349 160.53 26.0349H165.394C165.221 26.2231 165.109 26.6575 164.995 26.8083C165.176 26.7735 165.393 26.7515 165.556 26.6691C166.295 26.2901 167.275 26.013 168.162 25.812C168.402 25.7578 169.86 25.4562 169.925 25.5194C169.88 26.2605 170.073 26.9964 170.257 27.713C170.813 29.8809 171.715 32.3388 172.455 34.4808C172.668 35.0982 172.84 35.7929 173.192 36.3458L177.128 26.2347C177.459 26.1535 177.984 25.8493 178.165 26.2515L181.921 36.6049L182.312 36.5984C183.649 33.5116 185.259 30.5163 184.991 26.9964C184.906 25.879 183.928 24.6249 185.683 25.1688C185.897 25.2359 186.917 25.763 187.045 25.9138C188.368 27.4707 186.018 32.0526 185.215 33.6676C184.582 34.941 182.263 39.559 181.321 40.2124C181.184 40.3078 180.982 40.4869 180.807 40.4547L180.489 40.117L177.023 30.8411L176.727 30.6774L173.356 39.211C173.052 39.8103 172.555 40.2975 171.871 40.4676L167.323 27.9785C166.956 27.4798 165.636 27.8277 165.005 27.5777L164.999 26.8108L164.996 26.8095Z" fill="black"/>
<path d="M138.475 39.956C138.241 38.6581 140.344 38.8282 140.481 37.8358L140.476 28.4207C140.401 28.0276 139.298 27.6435 138.882 27.5765C138.82 27.5095 138.96 26.8032 139.04 26.7116C139.184 26.5493 143.12 25.3661 143.273 25.5207L143.206 27.9683C145.317 26.3546 147.873 24.6637 150.594 26.1085C154.067 27.9528 152.269 34.7606 152.768 37.9325C152.887 38.5228 154.575 38.7393 155.077 39.1801C155.172 39.4378 154.956 39.9547 154.667 39.9547H148.537C148.459 39.9547 148.344 39.7614 148.341 39.6428C148.316 38.7844 149.607 38.6478 149.796 37.9492C150.121 36.7467 150.077 31.7395 149.936 30.354C149.55 26.575 145.084 26.9875 143.277 29.4531L143.286 37.6863C143.33 38.6027 144.411 38.671 145.083 39.046L145.007 39.9534H138.477L138.475 39.956Z" fill="black"/>
<path d="M192.382 32.4805C191.934 32.6029 192.15 33.9549 192.215 34.3171C192.639 36.659 194.451 38.444 196.951 38.6348C198.701 38.7688 199.656 37.1655 201.242 36.7337C201.465 37.6643 200.119 39.2199 199.337 39.595C197.707 40.376 194.867 40.465 193.197 39.8102C187.843 37.712 187.839 29.5999 192.402 26.6999C196.854 23.8696 202.663 26.6368 201.52 32.0075C201.48 32.068 200.184 32.4792 200.11 32.4792H192.38L192.382 32.4805ZM192.182 31.3205H198.578C199.109 29.7958 198.263 26.9783 196.386 26.8043C193.705 26.5543 192.343 29.0689 192.182 31.3205Z" fill="black"/>
<path d="M202.975 39.9559C202.734 38.6993 204.248 38.8591 204.909 38.1528C205.038 36.1228 204.938 34.0722 204.975 32.0307C204.994 31.0292 205.251 29.8667 205.094 28.8201C204.937 27.7736 203.715 27.8548 203.432 27.3251C202.919 26.3636 206.736 25.7359 207.298 25.5271C207.657 25.5993 207.689 27.8535 207.773 28.2917L208.036 28.3561C208.815 26.718 211.587 24.902 213.42 25.7952C213.661 25.9125 213.848 25.9382 213.905 26.2321C214.004 26.7322 213.136 29.4955 212.705 29.7159C212.563 29.7881 212.438 29.8203 212.298 29.7172C211.941 29.3421 211.449 27.6241 210.934 27.6151C209.689 27.5931 208.188 29.2364 207.902 30.3526L207.899 38.1966L210.972 39.1168C211.261 39.3192 211.007 39.6955 210.971 39.9572H202.975V39.9559Z" fill="black"/>
</g>
<defs>
<clipPath id="clip0_143_5675">
<rect width="230" height="58" fill="white"/>
</clipPath>
</defs>
</svg>
