<svg width="193" height="94" viewBox="0 0 193 94" fill="none" xmlns="http://www.w3.org/2000/svg">
<g clip-path="url(#clip0_33_2848)">
<path d="M41.4657 1.57155C42.3689 2.36132 43.2482 3.18517 44.1776 3.94724L47.0993 0.594322L49.9731 3.93766L54.5097 0.00585655L57.6514 5.2179L61.4332 2.82783L63.0592 6.9801L68.7019 4.63849L70.0312 10.5274L74.401 9.48414L74.6673 13.9048L80.7366 13.4511L80.1529 19.4428L84.625 19.7655L83.5625 24.1281L89.3974 25.4574L87.0775 31.0497L91.2306 32.7298L88.8372 36.5061L93.9995 39.5747L90.0658 44.1897L93.4669 47.0559L90.0541 49.8837L93.9963 54.5126L88.8292 57.6073L91.1768 61.4608L87.0243 63.0611L89.366 68.7034L83.4773 70.0337L84.5195 74.4022L80.0996 74.669L80.6312 80.7395L74.5603 80.1537L74.2689 84.5766L69.873 83.5615L68.5948 89.4201L62.982 87.0721L61.2724 91.2297L57.4682 88.8364L54.3999 93.9995L49.7718 90.0543L46.9449 93.4653L44.0705 90.0554L39.4882 93.9957L36.3923 88.8375L32.5396 91.1764L30.9408 87.0225L25.2965 89.3663L23.9672 83.4768L19.8227 84.5089L19.6213 84.4695L19.3311 80.0467L13.2858 80.5793L13.8466 74.5615L9.37236 74.2409L10.437 69.8761L4.6015 68.5469L6.91982 62.9849L2.82481 61.2691L5.16177 57.4709L0 54.4306L3.94429 49.8241L0.532581 46.9494L3.99329 44.0736L0.00106516 39.4932L5.21876 36.3517L2.82321 32.5701L6.97575 30.9442L4.63345 25.3013L10.5238 23.9721L9.47994 19.6031L13.9536 19.3363L13.3699 13.3446L19.4392 13.8516L19.7593 9.37763L24.1249 10.4422L25.4579 4.53198L31.0186 6.92365L32.701 2.77457L36.5031 5.16784L39.5713 0.005324C39.6192 -0.0303567 39.8126 0.12781 39.8621 0.166686C40.3957 0.581541 40.9491 1.12048 41.4657 1.57208V1.57155ZM39.836 0.805211L34.7972 9.11615L25.8318 5.33187L23.6487 14.7324L14.0069 13.9048L14.8595 23.5972L5.37907 25.6747L9.15666 34.6396L0.85639 39.6056L7.18292 46.9403L0.799937 54.2453L9.10074 59.2619L5.32687 68.1698L14.752 70.3021L13.9009 80.0472L23.5928 79.1419L25.6704 88.6218L34.6385 84.8471L39.6033 93.1453L46.9465 86.8287L54.2423 93.2012L59.223 84.9174L68.1395 88.6713L70.3502 79.2724L80.0464 80.1005L79.1634 70.4593L88.6215 68.3312L84.8465 59.3636L93.1468 54.4013L86.816 47.1017L93.1979 39.7595L84.903 34.7477L88.7275 25.835L79.248 23.7037L80.1508 14.0374L70.4567 14.8416L68.3296 5.38406L59.3631 9.16994L54.3994 0.858465L47.0993 7.19152L39.836 0.805211Z" fill="white"/>
<path d="M45.3004 6.684C45.7718 7.09672 46.2532 7.60584 46.7357 7.9914C46.8438 8.07767 47.0058 8.24915 47.1304 8.17992L54.1903 2.029L59.0889 10.1631L67.7184 6.45021L69.8263 15.6564L79.2482 14.8623L78.3987 24.2863L87.6097 26.3664L83.8939 35.0752L91.9763 39.8937L85.7968 47.0554L91.9758 54.1915L83.887 59.0462L87.5565 67.7443L78.3481 69.8271L79.1417 79.2484L69.7171 78.399L67.6374 87.6094L58.9356 83.8853L54.1093 91.9758L46.9456 85.7982L39.7845 91.9763L35.0371 83.888L26.2564 87.5562L24.1713 78.35L14.7527 79.1952L15.5984 69.7211L6.3906 67.6383L10.1144 58.937L2.02344 54.1111L8.25357 46.9489L2.02397 39.8127L10.1219 35.0113L6.44333 26.2599L15.7108 24.1819L14.8581 14.7564L24.2795 15.6031L26.3624 6.39536L35.0642 10.1195L39.9192 2.02527L40.1285 2.13551C41.8269 3.67989 43.5727 5.17209 45.2994 6.684H45.3004ZM84.4547 47.0032C84.4547 26.3212 67.6875 9.55496 47.0042 9.55496C26.3208 9.55496 9.5536 26.3212 9.5536 47.0032C9.5536 67.6852 26.3208 84.4514 47.0042 84.4514C67.6875 84.4514 84.4547 67.6852 84.4547 47.0032Z" fill="white"/>
<path d="M82.7991 47.0026C82.7991 66.7703 66.7732 82.7952 47.0043 82.7952C27.2354 82.7952 11.209 66.7703 11.209 47.0026C11.209 27.235 27.2349 11.2101 47.0043 11.2101C66.7737 11.2101 82.7991 27.235 82.7991 47.0026ZM82.2643 47.0021C82.2643 27.5295 66.4776 11.7437 47.0037 11.7437C27.5299 11.7437 11.7432 27.5295 11.7432 47.0021C11.7432 66.4747 27.5299 82.2605 47.0037 82.2605C66.4776 82.2605 82.2643 66.4747 82.2643 47.0021Z" fill="white"/>
<path d="M40.2622 64.2039L46.8662 57.8943L23.1914 36.6441L33.8457 28.7107L60.593 28.7501L70.7748 36.7852L70.7551 36.8571L47.0787 57.8932H53.736L50.5405 61.0885H53.3632V63.8844C53.3632 63.9691 53.2993 64.1182 53.2316 64.1784L47.2651 70.0886H40.2617V64.2039H40.2622ZM62.8751 33.2049C61.6251 32.2447 60.3789 31.2552 59.0858 30.3632C51.2542 30.3877 43.4305 30.3243 35.6032 30.3083L27.7199 36.1648L27.6438 36.291L47.6843 54.3209L67.5826 36.8837C66.028 35.6402 64.4526 34.4159 62.8751 33.2043V33.2049ZM43.6707 61.0353V67.0531H50.2215V64.1241L46.8668 64.0447L50.3813 61.0891L43.6707 61.0353Z" fill="white"/>
<path d="M36.2695 69.982V61.1684L39.7313 58.266V66.9199C39.4139 67.2213 39.0981 67.5329 38.7732 67.8258C38.0665 68.4643 37.1898 69.31 36.4554 69.875C36.4 69.9176 36.335 69.9581 36.2695 69.982Z" fill="white"/>
<path d="M54.0039 70.0354V61.1418C54.1424 61.0982 54.2904 60.9682 54.4023 60.8745C55.4195 60.0192 56.4122 59.1261 57.4657 58.3193V66.9732L54.0039 70.0354Z" fill="white"/>
<path d="M46.8086 14.3899L47.2379 19.1743L46.3357 19.283L46.071 15.8992L45.9629 15.7149L45.0484 19.3011C44.9691 19.4326 44.4727 19.4177 44.2938 19.4353L42.6609 15.9817L42.9298 19.5184C42.9176 19.5903 42.1624 19.6425 42.0713 19.5791L41.6484 14.8091C42.0564 14.8192 42.5165 14.6738 42.9 14.7547L44.6304 18.4304L45.5847 14.5241C45.6646 14.4118 46.6057 14.4054 46.8086 14.3894V14.3899Z" fill="white"/>
<path d="M35.8431 17.8447C35.5683 17.8889 35.1545 18.2356 34.9031 18.2574C34.7822 18.2675 34.5767 18.1365 34.4275 18.1163C32.2908 17.825 31.5564 20.8807 33.658 21.3888C34.7386 21.6497 35.7143 20.9713 35.8431 19.8694L33.9525 20.7199L33.6292 19.9749L36.511 18.5988C37.2651 19.9812 36.4066 21.629 35.0054 22.1461C33.1222 22.8416 31.1756 21.4037 31.5431 19.3763C31.8807 17.5113 34.4323 16.5048 35.8437 17.8441L35.8431 17.8447Z" fill="white"/>
<path d="M68.3834 24.1825L67.5819 23.5732C67.4839 21.2646 63.9406 21.2428 64.1771 23.676C64.2889 24.8236 65.4542 25.4824 66.5199 25.1405C66.5402 25.0516 66.4912 25.0324 66.4395 24.9818C66.2238 24.7725 65.0543 23.9375 64.9999 23.8075C64.9408 23.668 65.4159 23.1637 65.4745 23.1743L67.9462 25.1666C66.8917 26.6087 64.6916 26.3228 63.7276 24.9243C62.3349 22.9033 64.1345 20.4227 66.5071 21.0798C67.7917 21.4356 68.7381 22.8601 68.3834 24.1819V24.1825Z" fill="white"/>
<path d="M19.5999 51.6619L19.7879 52.6194L16.8837 55.4962L20.3162 54.6963L20.4829 55.5532L15.8191 56.7216C15.834 56.4564 15.531 55.8445 15.6556 55.6411L18.5874 52.8345L15.1012 53.6877L14.8594 52.7813L19.5993 51.6624L19.5999 51.6619Z" fill="white"/>
<path d="M74.7745 46.3902L79.6215 46.6027L79.5597 47.6598L75.9467 49.479L76.1858 49.585L79.4617 49.7442V50.5697C79.4617 50.5963 79.3738 50.6575 79.3291 50.6511L74.6152 50.3833V49.6111C74.6152 49.5717 74.6621 49.4843 74.6483 49.4231L78.2895 47.507L77.9428 47.4015L74.7745 47.2945V46.3892V46.3902Z" fill="white"/>
<path d="M26.7367 70.781L29.1594 68.172L29.7474 68.703L29.7463 68.8632L26.5423 72.3211L25.7903 71.6181L26.6291 67.6389L24.2847 70.1712L24.1787 70.1749L23.5977 69.5896L26.8618 66.0983L27.5766 66.8018L26.7367 70.781Z" fill="white"/>
<path d="M22.555 31.1061C22.5885 31.1083 22.7403 31.2371 22.7409 31.1067L19.6769 29.296L20.1099 28.5457L24.2252 30.9544C24.2992 31.0806 23.8321 31.7223 23.7261 31.8517H19.7318C19.7227 31.8517 19.6381 31.7377 19.5992 31.8251L22.612 33.6613C22.6924 33.7843 22.2141 34.2833 22.2078 34.4612L18.0547 32.0104L18.534 31.1056C19.8548 31.1642 21.2417 31.0268 22.555 31.1056V31.1061Z" fill="white"/>
<path d="M53.5288 17.1555C53.5288 18.5705 52.3816 19.7176 50.9665 19.7176C49.5515 19.7176 48.4043 18.5705 48.4043 17.1555C48.4043 15.7405 49.5515 14.5934 50.9665 14.5934C52.3816 14.5934 53.5288 15.7405 53.5288 17.1555ZM52.6511 17.1517C52.6511 16.2219 51.8975 15.4684 50.9676 15.4684C50.0377 15.4684 49.2841 16.2219 49.2841 17.1517C49.2841 18.0816 50.0377 18.8351 50.9676 18.8351C51.8975 18.8351 52.6511 18.0816 52.6511 17.1517Z" fill="white"/>
<path d="M21.1634 36.9327C21.1634 38.3472 20.0167 39.4937 18.6022 39.4937C17.1877 39.4937 16.041 38.3472 16.041 36.9327C16.041 35.5183 17.1877 34.3717 18.6022 34.3717C20.0167 34.3717 21.1634 35.5183 21.1634 36.9327ZM20.2788 36.9322C20.2788 36.0024 19.5252 35.2488 18.5953 35.2488C17.6654 35.2488 16.9118 36.0024 16.9118 36.9322C16.9118 37.862 17.6654 38.6156 18.5953 38.6156C19.5252 38.6156 20.2788 37.862 20.2788 36.9322Z" fill="white"/>
<path d="M62.965 20.0632C62.965 21.4771 61.8184 22.6237 60.4044 22.6237C58.9904 22.6237 57.8438 21.4771 57.8438 20.0632C57.8438 18.6493 58.9904 17.5027 60.4044 17.5027C61.8184 17.5027 62.965 18.6493 62.965 20.0632ZM62.0911 20.0584C62.0911 19.1291 61.3375 18.3755 60.4081 18.3755C59.4788 18.3755 58.7252 19.1291 58.7252 20.0584C58.7252 20.9877 59.4788 21.7412 60.4081 21.7412C61.3375 21.7412 62.0911 20.9877 62.0911 20.0584Z" fill="white"/>
<path d="M20.1311 59.3307L21.8029 58.6346L22.1336 59.3813L22.1043 59.4638L17.6813 61.3549C17.3937 60.2706 16.3194 59.14 17.3085 58.0802C18.0194 57.3187 19.1704 57.5211 19.7573 58.3194C20.08 57.7655 20.3692 57.0652 20.7255 56.5444C20.7511 56.5071 20.8506 56.3761 20.8757 56.4027L21.241 57.4284L20.1311 59.3312V59.3307ZM19.492 59.6502C19.3221 59.0505 18.8045 58.0579 18.0573 58.6155C17.5204 59.0159 17.9353 59.6976 18.1116 60.179L19.492 59.6497V59.6502Z" fill="white"/>
<path d="M71.3933 32.4375C69.3455 32.1605 68.5179 29.2374 70.1944 27.8837C72.361 26.1342 75.2934 28.7054 74.086 31.1285L73.9773 31.1594C73.9124 30.916 73.49 30.5373 73.4517 30.3217C73.4288 30.1923 73.5097 29.9883 73.497 29.803C73.4458 29.0547 72.8419 28.3363 72.0808 28.2357C70.1183 27.9753 69.3343 30.6705 71.2079 31.4517C71.3272 31.5013 71.5461 31.5023 71.618 31.5481C71.7448 31.6285 72.0776 32.2836 72.2188 32.4385C71.9583 32.4135 71.6457 32.4726 71.3933 32.4385V32.4375Z" fill="white"/>
<path d="M27.9611 26.6865C27.9829 26.7669 27.9398 26.7749 27.9089 26.8196C27.8652 26.883 27.3784 27.4139 27.338 27.4235L26.0294 27.0678C25.9735 27.0843 25.3147 27.799 25.2183 27.9103C25.1219 28.0216 24.8657 28.3017 24.8721 28.4119C24.8838 28.6223 25.4207 29.4382 25.3818 29.6198C25.2167 29.8147 25.0191 30.074 24.8428 30.2508C24.7992 30.295 24.7954 30.327 24.7139 30.3073L22.541 25.6028C22.5511 25.4888 22.9607 25.0233 23.1269 25.099L27.9622 26.687L27.9611 26.6865ZM25.1709 26.8798C25.1986 26.8431 25.2156 26.802 25.2433 26.7653L23.6472 26.1539L24.3933 27.6445C24.4679 27.6616 24.4807 27.6339 24.527 27.5929C24.6532 27.4816 25.0623 27.0231 25.1709 26.8798Z" fill="white"/>
<path d="M18.1153 49.4188L19.3621 49.9029L19.4393 50.8636L14.4922 49.1014L14.4954 48.3963L19.173 46.0179L19.2013 47.0309L18.0094 47.6513L18.1153 49.4193V49.4188ZM17.3095 49.0796C17.3042 48.8138 17.3095 48.547 17.3095 48.2807C17.3095 48.2642 17.2557 47.9319 17.1775 47.9889L15.7118 48.628C15.7182 48.7036 15.7901 48.7116 15.8428 48.7361C16.2742 48.9331 16.8419 49.0045 17.2834 49.2116C17.4139 49.1296 17.3095 49.1014 17.3095 49.0801V49.0796Z" fill="white"/>
<path d="M76.6314 33.4552L76.8806 34.1401L73.3629 37.9755L72.9715 37.0547L73.8604 36.0418L73.1702 34.467L71.7908 34.4351L71.3652 33.5564L76.6309 33.4557L76.6314 33.4552ZM75.6797 34.2487L73.9222 34.3552L74.402 35.473C74.4824 35.4949 74.4904 35.4517 74.5352 35.4208C74.9042 35.1663 75.3271 34.5613 75.6797 34.2492V34.2487Z" fill="white"/>
<path d="M69.7551 63.4978C70.1412 63.4414 70.5039 63.5154 70.8298 63.729L73.547 65.8618C73.5801 65.9705 73.1401 66.4407 73.0453 66.5637L70.286 64.4325C69.5229 64.1135 68.8422 64.9059 69.3428 65.5881L72.0356 67.7982L71.5003 68.4772C70.5055 67.7092 69.4739 66.9663 68.5738 66.0903C67.9251 65.0609 68.5461 63.6741 69.7545 63.4968L69.7551 63.4978Z" fill="white"/>
<path d="M53.5249 74.1892V74.988H51.9005L51.7147 75.8401C53.4519 75.111 54.7861 77.3328 53.5265 78.6376C52.4736 79.7282 50.6617 79.1004 50.5957 77.5975L51.3983 77.5714C51.5378 77.6353 51.548 78.1807 52.0193 78.2776C52.7516 78.4283 53.1409 77.8947 53.0408 77.2024C52.9385 76.4946 51.9218 76.28 51.5767 76.9063L50.8109 76.7433L51.2348 74.1892H53.5249Z" fill="white"/>
<path d="M39.7835 15.2357L39.9731 16.0361L38.2949 16.5176L38.5628 17.5752L40.1765 17.2104L40.4215 18.0028L38.8264 18.4337L39.0922 19.5499L40.7698 19.0738L41.0073 19.9205L38.4531 20.615L37.1738 15.9291L39.7835 15.2357Z" fill="white"/>
<path d="M43.8313 79.0887L44.8959 77.3845C43.6433 77.7136 42.8285 76.4067 43.1896 75.2783C43.793 73.3915 46.629 73.8692 46.5501 75.8689C46.5091 76.9084 45.2656 78.1934 44.7639 79.0887H43.8319H43.8313ZM44.6701 74.947C43.7482 75.0924 43.8324 76.713 44.8145 76.6938C46.0138 76.6704 45.8589 74.759 44.6701 74.947Z" fill="white"/>
<path d="M21.1354 63.4238C21.2355 63.2518 20.2907 62.1138 20.3483 61.9226C20.45 61.8257 20.9431 61.479 21.0363 61.5381C21.2036 61.6441 21.7676 62.8694 21.9215 62.8955L22.8407 62.3609L22.8189 62.2091C22.6836 61.9029 22.0253 61.1179 21.9929 60.8452C21.9822 60.7542 22.0269 60.7797 22.06 60.7515C22.109 60.7089 22.6277 60.4006 22.6623 60.4032L24.0667 62.6064C23.017 63.2987 21.9497 63.9771 20.8723 64.6253C20.7136 64.7206 20.1523 65.0982 20.0388 65.1274C19.993 65.1392 19.9552 65.1461 19.9163 65.112L18.6094 62.8987L19.2527 62.4732L20.2178 63.9596L21.1359 63.4228L21.1354 63.4238Z" fill="white"/>
<path d="M67.3113 72.4782L65.1868 73.9533L64.7091 73.285L66.097 72.246L65.5011 71.3742L65.3488 71.3934L64.0961 72.3157L63.5907 71.6346L64.9259 70.6973C64.9381 70.619 64.3629 69.833 64.282 69.7925C64.2426 69.7728 64.217 69.7648 64.1792 69.7941L62.8717 70.7804L62.3887 70.0875L64.4972 68.5687L67.3113 72.4782Z" fill="white"/>
<path d="M75.7274 51.5091L75.5692 52.4022C74.6457 52.2887 74.4918 53.7282 75.3946 53.79C76.2445 53.8486 76.3042 52.2925 77.3635 52.1455C79.5098 51.8483 79.4161 55.2726 77.2794 55.0164L77.4982 54.0643C78.042 54.166 78.3578 53.3624 77.8604 53.078C77.2357 52.7206 76.8826 53.7383 76.5609 54.1122C75.2619 55.6204 73.2669 53.8906 74.1813 52.2653C74.4801 51.7349 75.1197 51.3435 75.7279 51.5086L75.7274 51.5091Z" fill="white"/>
<path d="M50.0629 74.1892V75.0679L48.2788 79.0886H47.3468L49.1575 75.0413H47.2402V74.1892H50.0629Z" fill="white"/>
<path d="M77.3858 56.2429L78.1772 56.5395L77.2756 59.1181L76.4778 58.8513L76.7419 57.8954L73.0234 56.5901L73.2887 55.8227L73.4628 55.819L77.0386 57.0816L77.3858 56.2429Z" fill="white"/>
<path d="M15.5485 42.5048L15.4457 43.4059L19.3511 43.7877L19.4251 43.858L19.3293 44.6829L15.3376 44.3128L15.2843 45.2187L14.4316 45.1654L14.6985 42.3956L15.5485 42.5048Z" fill="white"/>
<path d="M75.733 62.314L74.3137 64.6519L73.6085 64.2583C73.6708 64.0442 74.1305 63.598 73.9803 63.402L70.6719 61.4326C70.7283 61.2952 71.0495 60.6562 71.1704 60.6679L74.49 62.6809L75.0193 61.9449L75.733 62.3145V62.314Z" fill="white"/>
<path d="M68.087 68.5218C68.251 68.6917 69.0675 69.5874 69.182 69.637C69.2848 69.6812 69.7268 69.1556 69.8562 69.0805L70.4612 69.6103L68.463 71.5254L67.9091 70.9209C67.9693 70.7766 68.5743 70.3703 68.521 70.2478L65.832 67.445L66.4408 66.7878C67.017 67.3396 67.5352 67.9483 68.0875 68.5218H68.087Z" fill="white"/>
<path d="M22.6428 67.1681C22.5427 67.3406 23.0646 67.7544 23.1163 67.9318L22.5011 68.4878L20.832 66.3783L21.437 65.8293L22.0682 66.5163L25.1209 64.0767L25.646 64.7642L22.6428 67.1681Z" fill="white"/>
<path d="M56.4536 15.8758L55.2804 19.6788L56.7189 20.1378L56.5064 20.9878L54.1758 20.2177L55.5482 15.6617L56.4536 15.8758Z" fill="white"/>
<path d="M78.1816 37.551L78.3957 38.401L74.5653 39.4176L74.9344 40.9039L74.0818 41.118L73.498 38.777L78.1816 37.551Z" fill="white"/>
<path d="M28.5474 26.2062L25.6028 22.5678C25.5266 22.3937 26.0859 22.0987 26.1839 21.9501L28.7062 24.9595C28.7466 24.9962 28.7733 24.9696 28.8105 24.9568C29.0566 24.8727 29.7687 24.1064 29.9125 24.0808C30.0493 24.109 30.4738 24.6394 30.4392 24.7161L28.5474 26.2062Z" fill="white"/>
<path d="M41.7009 74.1892V79.0886H40.7955V74.8815H39.9434V74.1892H41.7009Z" fill="white"/>
<path d="M15.0851 40.278L14.9082 41.1757L19.693 42.1187L19.8699 41.221L15.0851 40.278Z" fill="white"/>
<path d="M79.4297 43.7547L74.5781 44.1578L74.6558 45.0924L79.5074 44.6893L79.4297 43.7547Z" fill="white"/>
<path d="M72.3497 58.2274L71.9609 59.0603L76.3681 61.1171L76.7568 60.2842L72.3497 58.2274Z" fill="white"/>
<path d="M30.8606 69.4921L28.0898 73.4948L28.8444 74.017L31.6151 70.0143L30.8606 69.4921Z" fill="white"/>
<path d="M70.5408 24.4752L66.9648 27.7957L67.5994 28.479L71.1754 25.1585L70.5408 24.4752Z" fill="white"/>
<path d="M64.2828 36.9646L47.2136 52.3004L30.3574 37.3119L37.5494 31.9869L57.3848 31.9592L64.2828 36.9652V36.9646ZM61.8329 37.3374L56.4837 32.913L56.2707 32.8598L39.2808 32.8656L33.6072 37.0967L47.5859 49.6787L61.8329 37.3374Z" fill="white"/>
<path d="M58.4766 37.6575L47.213 47.564L36.2695 37.8429L41.2023 34.3089C45.4443 34.1363 49.7124 34.3344 53.9656 34.3126L58.4766 37.6575ZM56.4527 37.9217C56.4714 37.8285 56.4043 37.7901 56.3473 37.7353C55.3865 36.8087 54.1445 35.972 53.1231 35.1013C49.6112 35.1327 46.0727 35.0326 42.5774 35.1519L38.7721 38.1091L47.4793 45.8486L56.4522 37.9217H56.4527Z" fill="white"/>
</g>
<path d="M184.725 20.913H192.702V73.0783H184.725V20.913Z" fill="white"/>
<path d="M153.202 53.292V45.9403H174.709V46.3314C174.709 55.4036 172.128 62.4424 166.966 67.4478C162.378 71.8796 156.46 74.0956 149.213 74.0956C141.966 74.0956 136.048 71.7232 131.459 66.9785C126.298 61.6603 123.717 55.0908 123.717 47.2699C123.717 43.3594 124.421 39.7097 125.828 36.3206C127.236 32.8794 129.061 30.0379 131.303 27.7959C133.649 25.4496 136.517 23.5726 139.906 22.1648C143.347 20.7049 147.023 19.975 150.934 19.975C156.095 19.975 160.631 21.0699 164.542 23.2598C168.139 25.2932 170.955 27.9001 172.988 31.0806L166.653 35.5386C164.776 32.9316 162.639 30.9503 160.24 29.5947C157.686 28.0826 154.609 27.3266 151.012 27.3266C145.433 27.3266 140.845 29.1254 137.247 32.723C135.526 34.4436 134.171 36.6074 133.18 39.2144C132.189 41.8213 131.694 44.5326 131.694 47.3481C131.694 52.927 133.493 57.6456 137.091 61.5039C140.375 64.9973 144.729 66.7439 150.151 66.7439C154.792 66.7439 158.676 65.2058 161.805 62.1296C164.359 59.6269 165.819 56.681 166.184 53.292H153.202Z" fill="white"/>
<path d="M105.75 20.913H113.727V73.0783H105.75V20.913Z" fill="white"/>
<defs>
<clipPath id="clip0_33_2848">
<rect width="94" height="94" fill="white"/>
</clipPath>
</defs>
</svg>
