<svg width="160" height="58" viewBox="0 0 160 58" fill="none" xmlns="http://www.w3.org/2000/svg">
<g clip-path="url(#clip0_143_5674)">
<path d="M58.8724 0V58H0V0H58.8724ZM31.1824 26.6653C30.8768 21.052 23.3719 19.4263 20.2786 23.9717C18.0571 27.2367 18.4513 33.855 22.1994 35.9453C23.9905 36.9443 26.1147 36.8902 27.7511 35.6344C27.8958 35.5225 28.5431 34.7435 28.6878 34.8995V36.3741H31.1824V28.3868H25.5696V30.7216C26.5562 31.0644 27.5877 30.6269 28.5631 30.8457C28.3149 32.9789 26.6448 34.7508 24.3497 33.9509C21.0494 32.8007 20.9833 25.4143 24.2001 24.1486C25.4499 23.6571 26.7445 23.9238 27.5665 25.0064C27.9607 25.5261 28.033 26.1406 28.3773 26.6653H31.1837H31.1824ZM56.8768 26.0508C56.8219 19.661 45.8818 19.7507 46.6601 26.4699C47.0643 29.956 51.0893 29.65 53.2983 30.8666C55.0694 31.8422 54.3422 33.9079 52.4401 34.1524C50.9034 34.349 49.7946 33.8796 49.2034 32.4431C49.0936 32.1777 49.2134 31.814 48.8953 31.637L46.4793 31.5965C45.9978 31.7513 46.5429 33.4139 46.7113 33.7936C48.4999 37.8155 55.8827 37.6115 56.9703 33.2087C57.6039 30.6429 56.2157 28.9386 53.8807 28.0821C52.5611 27.5979 49.1971 27.26 49.3992 25.3873C49.6462 23.0968 54.1527 23.3081 54.0317 25.8444L54.1951 26.0521H56.8768V26.0508ZM6.98486 21.6271H1.74622V36.3729H6.98486V31.7034H13.3461V26.2966H6.98486V21.6271ZM45.0274 36.3729L42.1661 30.3013C42.8559 29.8454 43.4321 29.5063 43.8849 28.7948C45.0187 27.0142 44.9538 23.9926 43.2176 22.6114C42.7711 22.2563 41.5188 21.6271 40.9737 21.6271H34.0512V36.3729H36.7953V30.8432H39.4146L42.0339 36.3729H45.0274Z" fill="black"/>
<path d="M36.7969 28.3856V24.1462L36.984 23.9619H39.728C39.7679 23.9619 40.4053 24.1413 40.5051 24.1794C41.9956 24.7656 42.1141 27.4763 40.6947 28.1079C40.5874 28.1559 39.8977 28.3844 39.8528 28.3844H36.7969V28.3856Z" fill="black"/>
</g>
<path d="M107.138 30.6067V32.4712C107.138 32.6876 107.131 32.9022 107.117 33.1151C107.106 33.328 107.092 33.4928 107.075 33.6095H107.138C107.291 33.3726 107.5 33.1717 107.765 33.0069C108.03 32.8386 108.373 32.7545 108.795 32.7545C109.45 32.7545 109.982 33.0069 110.389 33.5117C110.797 34.0164 111.001 34.7564 111.001 35.7316C111.001 36.3874 110.907 36.9386 110.719 37.3849C110.531 37.8279 110.267 38.1627 109.929 38.3893C109.591 38.6125 109.199 38.7241 108.753 38.7241C108.324 38.7241 107.986 38.6486 107.739 38.4975C107.491 38.3464 107.291 38.1764 107.138 37.9876H107.028L106.761 38.6211H105.543V30.6067H107.138ZM108.283 34.0113C108.004 34.0113 107.782 34.0679 107.619 34.1812C107.455 34.2946 107.334 34.4645 107.258 34.6912C107.185 34.9178 107.145 35.2045 107.138 35.5513V35.7213C107.138 36.281 107.221 36.7102 107.388 37.009C107.556 37.3043 107.861 37.4519 108.303 37.4519C108.631 37.4519 108.891 37.3025 109.082 37.0038C109.278 36.7051 109.375 36.2741 109.375 35.711C109.375 35.1478 109.278 34.7238 109.082 34.4388C108.887 34.1538 108.621 34.0113 108.283 34.0113Z" fill="black"/>
<path d="M101.465 32.7444C102.249 32.7444 102.85 32.9126 103.269 33.2491C103.687 33.5857 103.896 34.0973 103.896 34.784V38.6213H102.782L102.474 37.8384H102.432C102.265 38.0444 102.094 38.2127 101.92 38.3431C101.746 38.4736 101.545 38.5698 101.319 38.6316C101.092 38.6934 100.817 38.7243 100.493 38.7243C100.147 38.7243 99.8373 38.659 99.5619 38.5286C99.2901 38.3981 99.0757 38.1989 98.9189 37.9311C98.762 37.6598 98.6836 37.3164 98.6836 36.901C98.6836 36.2897 98.9014 35.8399 99.3371 35.5515C99.7728 35.2596 100.426 35.0982 101.298 35.0673L102.312 35.0364V34.784C102.312 34.4819 102.232 34.2604 102.071 34.1196C101.911 33.9788 101.688 33.9084 101.402 33.9084C101.12 33.9084 100.843 33.9479 100.571 34.0269C100.299 34.1059 100.027 34.2055 99.7554 34.3256L99.2273 33.2646C99.5375 33.1032 99.8843 32.9762 100.268 32.8835C100.655 32.7907 101.054 32.7444 101.465 32.7444ZM102.312 35.9532L101.695 35.9738C101.179 35.9876 100.82 36.0786 100.618 36.2468C100.419 36.4151 100.32 36.6366 100.32 36.9113C100.32 37.1516 100.391 37.3233 100.534 37.4263C100.677 37.5259 100.864 37.5757 101.094 37.5757C101.435 37.5757 101.723 37.4761 101.956 37.277C102.193 37.0778 102.312 36.7945 102.312 36.4271V35.9532Z" fill="black"/>
<path d="M97.3914 38.6211H95.7969V30.6067H97.3914V38.6211Z" fill="black"/>
<path d="M94.5545 36.9112C94.5545 37.3027 94.4604 37.634 94.2722 37.9053C94.0875 38.1731 93.8104 38.3774 93.441 38.5182C93.0715 38.6556 92.6114 38.7242 92.0607 38.7242C91.6529 38.7242 91.3026 38.6985 91.0099 38.647C90.7206 38.5955 90.4278 38.5096 90.1315 38.3895V37.0915C90.4487 37.2323 90.7886 37.349 91.151 37.4417C91.517 37.531 91.8377 37.5756 92.113 37.5756C92.4232 37.5756 92.6445 37.531 92.777 37.4417C92.9129 37.349 92.9809 37.2288 92.9809 37.0812C92.9809 36.985 92.953 36.8992 92.8972 36.8237C92.8449 36.7447 92.7299 36.6571 92.5522 36.561C92.3744 36.4614 92.0956 36.3326 91.7157 36.1747C91.3497 36.0236 91.0482 35.8708 90.8112 35.7163C90.5777 35.5617 90.4034 35.3798 90.2884 35.1703C90.1769 34.9574 90.1211 34.6878 90.1211 34.3616C90.1211 33.8294 90.3302 33.4294 90.7485 33.1615C91.1702 32.8903 91.7331 32.7546 92.4372 32.7546C92.7996 32.7546 93.1447 32.7907 93.4723 32.8628C93.8034 32.9349 94.1433 33.0499 94.4918 33.2079L94.0108 34.341C93.7215 34.2174 93.4479 34.1161 93.19 34.0372C92.9356 33.9582 92.6759 33.9187 92.411 33.9187C92.1775 33.9187 92.0015 33.9496 91.883 34.0114C91.7645 34.0732 91.7052 34.1676 91.7052 34.2947C91.7052 34.3874 91.7348 34.4698 91.7941 34.5419C91.8568 34.614 91.9753 34.6947 92.1496 34.784C92.3274 34.8698 92.587 34.9814 92.9286 35.1188C93.2597 35.2527 93.5473 35.3935 93.7912 35.5411C94.0352 35.6854 94.2234 35.8656 94.3559 36.082C94.4883 36.2949 94.5545 36.5713 94.5545 36.9112Z" fill="black"/>
<path d="M89.2342 36.9112C89.2342 37.3027 89.1401 37.634 88.9519 37.9053C88.7672 38.1731 88.4901 38.3774 88.1206 38.5182C87.7512 38.6556 87.2911 38.7242 86.7404 38.7242C86.3326 38.7242 85.9823 38.6985 85.6896 38.647C85.4003 38.5955 85.1075 38.5096 84.8112 38.3895V37.0915C85.1284 37.2323 85.4682 37.349 85.8307 37.4417C86.1967 37.531 86.5174 37.5756 86.7927 37.5756C87.1029 37.5756 87.3242 37.531 87.4567 37.4417C87.5926 37.349 87.6606 37.2288 87.6606 37.0812C87.6606 36.985 87.6327 36.8992 87.5769 36.8237C87.5246 36.7447 87.4096 36.6571 87.2319 36.561C87.0541 36.4614 86.7753 36.3326 86.3954 36.1747C86.0294 36.0236 85.7279 35.8708 85.4909 35.7163C85.2574 35.5617 85.0831 35.3798 84.9681 35.1703C84.8565 34.9574 84.8008 34.6878 84.8008 34.3616C84.8008 33.8294 85.0099 33.4294 85.4282 33.1615C85.8499 32.8903 86.4128 32.7546 87.1168 32.7546C87.4793 32.7546 87.8244 32.7907 88.152 32.8628C88.4831 32.9349 88.823 33.0499 89.1715 33.2079L88.6905 34.341C88.4012 34.2174 88.1276 34.1161 87.8697 34.0372C87.6153 33.9582 87.3556 33.9187 87.0907 33.9187C86.8572 33.9187 86.6812 33.9496 86.5627 34.0114C86.4442 34.0732 86.3849 34.1676 86.3849 34.2947C86.3849 34.3874 86.4145 34.4698 86.4738 34.5419C86.5365 34.614 86.655 34.6947 86.8293 34.784C87.0071 34.8698 87.2667 34.9814 87.6083 35.1188C87.9394 35.2527 88.227 35.3935 88.4709 35.5411C88.7149 35.6854 88.9031 35.8656 89.0356 36.082C89.168 36.2949 89.2342 36.5713 89.2342 36.9112Z" fill="black"/>
<path d="M83.475 32.8627V38.6211H81.8805V32.8627H83.475ZM82.6804 30.6067C82.9174 30.6067 83.1213 30.6616 83.2921 30.7715C83.4628 30.878 83.5482 31.0788 83.5482 31.3741C83.5482 31.666 83.4628 31.8686 83.2921 31.9819C83.1213 32.0918 82.9174 32.1467 82.6804 32.1467C82.4399 32.1467 82.2342 32.0918 82.0635 31.9819C81.8962 31.8686 81.8125 31.666 81.8125 31.3741C81.8125 31.0788 81.8962 30.878 82.0635 30.7715C82.2342 30.6616 82.4399 30.6067 82.6804 30.6067Z" fill="black"/>
<path d="M77.5171 38.6212L77.0674 36.6073C77.043 36.4871 77.003 36.3103 76.9472 36.0768C76.8914 35.8399 76.8304 35.5875 76.7642 35.3197C76.7015 35.0484 76.6422 34.7977 76.5864 34.5677C76.5342 34.3376 76.4958 34.1693 76.4714 34.0629H76.4244C76.4 34.1693 76.3616 34.3376 76.3094 34.5677C76.2571 34.7977 76.1978 35.0484 76.1316 35.3197C76.0689 35.5909 76.0096 35.8467 75.9538 36.0871C75.8981 36.324 75.8563 36.5043 75.8284 36.6279L75.3578 38.6212H73.643L71.9805 32.8628H73.5698L74.2442 35.4124C74.2896 35.5909 74.3331 35.8038 74.375 36.051C74.4168 36.2948 74.4534 36.5318 74.4847 36.7618C74.5196 36.9885 74.5457 37.1687 74.5632 37.3027H74.605C74.612 37.2031 74.6259 37.0709 74.6468 36.9061C74.6712 36.7412 74.6974 36.5713 74.7252 36.3961C74.7566 36.2176 74.7845 36.0579 74.8089 35.9171C74.8368 35.7729 74.8577 35.675 74.8716 35.6235L75.5931 32.8628H77.3498L78.0346 35.6235C78.059 35.7231 78.0904 35.8811 78.1287 36.0974C78.1706 36.3137 78.2072 36.5369 78.2385 36.767C78.2699 36.9936 78.2873 37.1722 78.2908 37.3027H78.3326C78.3466 37.1859 78.371 37.0125 78.4058 36.7824C78.4407 36.5524 78.4808 36.312 78.5261 36.0613C78.5749 35.8072 78.6237 35.5909 78.6725 35.4124L79.373 32.8628H80.9362L79.2528 38.6212H77.5171Z" fill="black"/>
<path d="M71.4511 36.5302C71.4511 36.9766 71.3414 37.3646 71.1218 37.6942C70.9022 38.0239 70.5815 38.278 70.1598 38.4565C69.7416 38.6351 69.2327 38.7243 68.6332 38.7243C68.3683 38.7243 68.1086 38.7072 67.8542 38.6728C67.6033 38.6385 67.361 38.5887 67.1275 38.5235C66.8975 38.4548 66.6779 38.3707 66.4688 38.2711V36.7877C66.8312 36.9456 67.2077 37.0882 67.598 37.2152C67.9884 37.3422 68.3753 37.4058 68.7587 37.4058C69.0236 37.4058 69.2362 37.3714 69.3965 37.3028C69.5603 37.2341 69.6788 37.1397 69.752 37.0195C69.8252 36.8993 69.8618 36.7619 69.8618 36.6074C69.8618 36.4186 69.7973 36.2572 69.6684 36.1233C69.5394 35.9893 69.3616 35.864 69.1351 35.7473C68.912 35.6305 68.6593 35.5052 68.377 35.3713C68.1993 35.2889 68.0058 35.1893 67.7967 35.0725C67.5876 34.9523 67.3889 34.8064 67.2007 34.6347C67.0125 34.463 66.8574 34.2553 66.7354 34.0115C66.6169 33.7643 66.5576 33.469 66.5576 33.1256C66.5576 32.6758 66.6622 32.2912 66.8713 31.9718C67.0804 31.6525 67.3784 31.4087 67.7653 31.2404C68.1557 31.0688 68.6158 30.9829 69.1455 30.9829C69.5429 30.9829 69.9211 31.0293 70.28 31.122C70.6425 31.2113 71.0207 31.3417 71.4146 31.5134L70.8917 32.7547C70.5397 32.614 70.2243 32.5058 69.9455 32.4302C69.6666 32.3513 69.3826 32.3118 69.0933 32.3118C68.8911 32.3118 68.7186 32.3444 68.5757 32.4096C68.4328 32.4714 68.3247 32.5607 68.2515 32.6775C68.1783 32.7908 68.1417 32.923 68.1417 33.0741C68.1417 33.2526 68.194 33.4037 68.2986 33.5273C68.4066 33.6475 68.567 33.7643 68.7796 33.8776C68.9957 33.9909 69.2641 34.1231 69.5847 34.2742C69.9751 34.4562 70.3079 34.6467 70.5833 34.8459C70.8621 35.0416 71.0765 35.2734 71.2263 35.5412C71.3762 35.8056 71.4511 36.1353 71.4511 36.5302Z" fill="black"/>
<path d="M156.2 19.1792V20.812C156.2 21.097 156.19 21.3682 156.169 21.6258C156.151 21.8833 156.137 22.0653 156.127 22.1717H156.211C156.336 21.9726 156.484 21.8112 156.655 21.6876C156.829 21.564 157.021 21.473 157.23 21.4146C157.439 21.3562 157.664 21.327 157.904 21.327C158.326 21.327 158.694 21.4008 159.008 21.5485C159.321 21.6927 159.565 21.9211 159.739 22.2335C159.914 22.5426 160.001 22.9443 160.001 23.4388V27.1936H158.406V23.8302C158.406 23.4182 158.33 23.1074 158.176 22.898C158.023 22.6885 157.786 22.5838 157.465 22.5838C157.145 22.5838 156.892 22.6576 156.707 22.8053C156.522 22.9495 156.392 23.1641 156.315 23.4491C156.238 23.7307 156.2 24.0758 156.2 24.4844V27.1936H154.605V19.1792H156.2Z" fill="black"/>
<path d="M151.467 27.2965C150.889 27.2965 150.396 27.1935 149.988 26.9875C149.58 26.778 149.27 26.4552 149.057 26.0191C148.845 25.5831 148.738 25.0251 148.738 24.3452C148.738 23.6413 148.859 23.0678 149.099 22.6249C149.343 22.1785 149.679 21.8506 150.108 21.6411C150.54 21.4316 151.04 21.3269 151.609 21.3269C152.013 21.3269 152.361 21.3664 152.654 21.4454C152.95 21.5209 153.208 21.6119 153.428 21.7184L152.957 22.9339C152.706 22.8343 152.473 22.7536 152.257 22.6918C152.041 22.6266 151.825 22.594 151.609 22.594C151.33 22.594 151.098 22.6592 150.913 22.7897C150.728 22.9167 150.591 23.109 150.5 23.3666C150.41 23.6241 150.364 23.9469 150.364 24.3349C150.364 24.716 150.413 25.0319 150.511 25.2826C150.608 25.5333 150.749 25.7204 150.934 25.844C151.119 25.9642 151.344 26.0243 151.609 26.0243C151.94 26.0243 152.234 25.9814 152.492 25.8955C152.75 25.8063 153.001 25.6826 153.245 25.5247V26.869C153.001 27.0201 152.745 27.1283 152.476 27.1935C152.211 27.2622 151.875 27.2965 151.467 27.2965Z" fill="black"/>
<path d="M147.493 21.3269C147.573 21.3269 147.665 21.3321 147.77 21.3424C147.878 21.3492 147.965 21.3595 148.031 21.3733L147.911 22.8463C147.859 22.8292 147.784 22.8172 147.686 22.8103C147.592 22.8 147.51 22.7948 147.441 22.7948C147.235 22.7948 147.034 22.8206 146.839 22.8721C146.648 22.9236 146.475 23.0077 146.322 23.1245C146.168 23.2378 146.046 23.3889 145.956 23.5777C145.869 23.7632 145.825 23.9915 145.825 24.2628V27.1935H144.23V21.4351H145.438L145.673 22.4034H145.752C145.867 22.2077 146.01 22.0291 146.181 21.8677C146.355 21.7029 146.552 21.5724 146.771 21.4763C146.994 21.3767 147.235 21.3269 147.493 21.3269Z" fill="black"/>
<path d="M140.152 21.3167C140.937 21.3167 141.538 21.4849 141.956 21.8214C142.374 22.1579 142.584 22.6696 142.584 23.3563V27.1935H141.47L141.161 26.4106H141.12C140.952 26.6167 140.782 26.7849 140.607 26.9154C140.433 27.0459 140.233 27.142 140.006 27.2038C139.78 27.2657 139.504 27.2966 139.18 27.2966C138.835 27.2966 138.525 27.2313 138.249 27.1008C137.978 26.9703 137.763 26.7712 137.606 26.5034C137.45 26.2321 137.371 25.8887 137.371 25.4732C137.371 24.862 137.589 24.4122 138.025 24.1238C138.46 23.8319 139.114 23.6705 139.985 23.6396L140.999 23.6087V23.3563C140.999 23.0541 140.919 22.8327 140.759 22.6919C140.599 22.5511 140.376 22.4807 140.09 22.4807C139.807 22.4807 139.53 22.5202 139.258 22.5992C138.987 22.6781 138.715 22.7777 138.443 22.8979L137.915 21.8369C138.225 21.6755 138.572 21.5484 138.955 21.4557C139.342 21.363 139.741 21.3167 140.152 21.3167ZM140.999 24.5255L140.382 24.5461C139.867 24.5598 139.508 24.6508 139.305 24.8191C139.107 24.9873 139.007 25.2088 139.007 25.4835C139.007 25.7239 139.079 25.8956 139.222 25.9986C139.365 26.0982 139.551 26.148 139.781 26.148C140.123 26.148 140.41 26.0484 140.644 25.8492C140.881 25.6501 140.999 25.3668 140.999 24.9994V24.5255Z" fill="black"/>
<path d="M133.844 21.3269C134.384 21.3269 134.849 21.4299 135.24 21.6359C135.63 21.8385 135.932 22.1338 136.144 22.5219C136.357 22.9099 136.463 23.3837 136.463 23.9434V24.7057H132.694C132.711 25.1487 132.845 25.4972 133.096 25.7513C133.351 26.002 133.703 26.1273 134.152 26.1273C134.525 26.1273 134.867 26.0895 135.177 26.014C135.487 25.9385 135.806 25.8251 136.134 25.6741V26.8896C135.844 27.0304 135.541 27.1334 135.224 27.1986C134.91 27.2639 134.529 27.2965 134.079 27.2965C133.494 27.2965 132.974 27.1901 132.521 26.9772C132.071 26.7643 131.718 26.4398 131.46 26.0037C131.205 25.5676 131.078 25.0182 131.078 24.3555C131.078 23.6825 131.193 23.1228 131.423 22.6764C131.657 22.2266 131.981 21.89 132.396 21.6668C132.81 21.4402 133.293 21.3269 133.844 21.3269ZM133.854 22.4446C133.544 22.4446 133.286 22.5425 133.081 22.7382C132.878 22.9339 132.762 23.2412 132.73 23.6601H134.968C134.964 23.4267 134.921 23.2189 134.837 23.0369C134.757 22.8549 134.635 22.7107 134.471 22.6043C134.311 22.4978 134.105 22.4446 133.854 22.4446Z" fill="black"/>
<path d="M130.187 25.4835C130.187 25.8749 130.093 26.2063 129.905 26.4776C129.72 26.7454 129.443 26.9497 129.074 27.0905C128.704 27.2278 128.244 27.2965 127.694 27.2965C127.286 27.2965 126.935 27.2708 126.643 27.2192C126.353 27.1677 126.061 27.0819 125.764 26.9617V25.6638C126.082 25.8045 126.421 25.9213 126.784 26.014C127.15 26.1033 127.47 26.1479 127.746 26.1479C128.056 26.1479 128.277 26.1033 128.41 26.014C128.546 25.9213 128.614 25.8011 128.614 25.6535C128.614 25.5573 128.586 25.4715 128.53 25.3959C128.478 25.3169 128.363 25.2294 128.185 25.1332C128.007 25.0337 127.728 24.9049 127.348 24.7469C126.983 24.5959 126.681 24.443 126.444 24.2885C126.21 24.134 126.036 23.952 125.921 23.7426C125.81 23.5297 125.754 23.2601 125.754 22.9339C125.754 22.4017 125.963 22.0016 126.381 21.7338C126.803 21.4625 127.366 21.3269 128.07 21.3269C128.432 21.3269 128.778 21.363 129.105 21.4351C129.436 21.5072 129.776 21.6222 130.125 21.7802L129.644 22.9133C129.354 22.7897 129.081 22.6884 128.823 22.6094C128.568 22.5304 128.309 22.491 128.044 22.491C127.81 22.491 127.634 22.5219 127.516 22.5837C127.397 22.6455 127.338 22.7399 127.338 22.8669C127.338 22.9597 127.368 23.0421 127.427 23.1142C127.49 23.1863 127.608 23.267 127.782 23.3563C127.96 23.4421 128.22 23.5537 128.561 23.6911C128.893 23.825 129.18 23.9658 129.424 24.1134C129.668 24.2576 129.856 24.4379 129.989 24.6542C130.121 24.8671 130.187 25.1435 130.187 25.4835Z" fill="black"/>
<path d="M122.195 21.3269C122.736 21.3269 123.201 21.4299 123.591 21.6359C123.982 21.8385 124.283 22.1338 124.496 22.5219C124.708 22.9099 124.815 23.3837 124.815 23.9434V24.7057H121.045C121.063 25.1487 121.197 25.4972 121.448 25.7513C121.702 26.002 122.054 26.1273 122.504 26.1273C122.877 26.1273 123.218 26.0895 123.529 26.014C123.839 25.9385 124.158 25.8251 124.485 25.6741V26.8896C124.196 27.0304 123.893 27.1334 123.576 27.1986C123.262 27.2639 122.88 27.2965 122.431 27.2965C121.845 27.2965 121.326 27.1901 120.873 26.9772C120.423 26.7643 120.069 26.4398 119.811 26.0037C119.557 25.5676 119.43 25.0182 119.43 24.3555C119.43 23.6825 119.545 23.1228 119.775 22.6764C120.008 22.2266 120.332 21.89 120.747 21.6668C121.162 21.4402 121.645 21.3269 122.195 21.3269ZM122.206 22.4446C121.896 22.4446 121.638 22.5425 121.432 22.7382C121.23 22.9339 121.113 23.2412 121.082 23.6601H123.319C123.316 23.4267 123.272 23.2189 123.189 23.0369C123.109 22.8549 122.987 22.7107 122.823 22.6043C122.662 22.4978 122.457 22.4446 122.206 22.4446Z" fill="black"/>
<path d="M118.184 21.3269C118.264 21.3269 118.357 21.3321 118.461 21.3424C118.569 21.3492 118.657 21.3595 118.723 21.3733L118.602 22.8463C118.55 22.8292 118.475 22.8172 118.378 22.8103C118.284 22.8 118.202 22.7948 118.132 22.7948C117.926 22.7948 117.726 22.8206 117.531 22.8721C117.339 22.9236 117.166 23.0077 117.013 23.1245C116.86 23.2378 116.738 23.3889 116.647 23.5777C116.56 23.7632 116.516 23.9915 116.516 24.2628V27.1935H114.922V21.4351H116.13L116.365 22.4034H116.443C116.558 22.2077 116.701 22.0291 116.872 21.8677C117.046 21.7029 117.243 21.5724 117.463 21.4763C117.686 21.3767 117.926 21.3269 118.184 21.3269Z" fill="black"/>
<path d="M111.271 21.3269C111.933 21.3269 112.433 21.4952 112.771 21.8317C113.113 22.1647 113.284 22.7004 113.284 23.4387V27.1935H111.684V23.8301C111.684 23.4181 111.612 23.1073 111.469 22.8979C111.327 22.6884 111.105 22.5837 110.805 22.5837C110.384 22.5837 110.084 22.733 109.906 23.0318C109.728 23.3271 109.64 23.7511 109.64 24.304V27.1935H108.045V23.8301C108.045 23.5554 108.014 23.3254 107.951 23.1399C107.888 22.9545 107.792 22.8154 107.663 22.7227C107.534 22.63 107.369 22.5837 107.167 22.5837C106.87 22.5837 106.637 22.6575 106.466 22.8051C106.299 22.9494 106.179 23.164 106.105 23.449C106.036 23.7305 106.001 24.0756 106.001 24.4843V27.1935H104.406V21.4351H105.624L105.839 22.1716H105.928C106.046 21.9725 106.194 21.8111 106.372 21.6874C106.553 21.5638 106.752 21.4728 106.968 21.4145C107.184 21.3561 107.404 21.3269 107.627 21.3269C108.055 21.3269 108.418 21.3956 108.714 21.5329C109.014 21.6703 109.244 21.8832 109.404 22.1716H109.545C109.72 21.8763 109.965 21.6617 110.283 21.5278C110.603 21.3939 110.933 21.3269 111.271 21.3269Z" fill="black"/>
<path d="M100.488 21.3269C101.029 21.3269 101.494 21.4299 101.884 21.6359C102.275 21.8385 102.576 22.1338 102.789 22.5219C103.001 22.9099 103.108 23.3837 103.108 23.9434V24.7057H99.3381C99.3556 25.1487 99.4898 25.4972 99.7407 25.7513C99.9951 26.002 100.347 26.1273 100.797 26.1273C101.17 26.1273 101.511 26.0895 101.822 26.014C102.132 25.9385 102.451 25.8251 102.778 25.6741V26.8896C102.489 27.0304 102.186 27.1334 101.869 27.1986C101.555 27.2639 101.173 27.2965 100.724 27.2965C100.138 27.2965 99.6187 27.1901 99.1656 26.9772C98.716 26.7643 98.3622 26.4398 98.1043 26.0037C97.8499 25.5676 97.7227 25.0182 97.7227 24.3555C97.7227 23.6825 97.8377 23.1228 98.0677 22.6764C98.3012 22.2266 98.6254 21.89 99.0401 21.6668C99.4549 21.4402 99.9376 21.3269 100.488 21.3269ZM100.499 22.4446C100.189 22.4446 99.9307 22.5425 99.725 22.7382C99.5229 22.9339 99.4061 23.2412 99.3747 23.6601H101.612C101.609 23.4267 101.565 23.2189 101.482 23.0369C101.402 22.8549 101.28 22.7107 101.116 22.6043C100.955 22.4978 100.75 22.4446 100.499 22.4446Z" fill="black"/>
<path d="M93.3469 22.9649H96.3792V26.8691C95.9784 26.9996 95.5619 27.1043 95.1297 27.1833C94.6975 27.2588 94.2078 27.2966 93.6606 27.2966C92.9008 27.2966 92.256 27.149 91.7262 26.8537C91.1964 26.5583 90.7938 26.1223 90.5185 25.5454C90.2431 24.9685 90.1055 24.2594 90.1055 23.4182C90.1055 22.6284 90.2588 21.9451 90.5655 21.3682C90.8757 20.7913 91.3271 20.3449 91.9196 20.029C92.5156 19.7131 93.2423 19.5552 94.0998 19.5552C94.5041 19.5552 94.9032 19.5981 95.297 19.6839C95.6909 19.7698 96.0481 19.8814 96.3688 20.0187L95.8303 21.2961C95.5967 21.1793 95.3301 21.0815 95.0304 21.0025C94.7306 20.9235 94.4169 20.884 94.0893 20.884C93.6188 20.884 93.2092 20.9905 92.8607 21.2034C92.5156 21.4163 92.2473 21.715 92.0556 22.0996C91.8673 22.4807 91.7732 22.9306 91.7732 23.4491C91.7732 23.9401 91.8412 24.3762 91.9771 24.7573C92.1131 25.135 92.3274 25.4321 92.6202 25.6484C92.913 25.8613 93.2946 25.9677 93.7652 25.9677C93.9952 25.9677 94.1886 25.9574 94.3455 25.9368C94.5058 25.9128 94.6557 25.8888 94.7951 25.8647V24.2938H93.3469V22.9649Z" fill="black"/>
<path d="M86.2793 25.1024C86.2793 25.5488 86.1695 25.9368 85.9499 26.2665C85.7303 26.5961 85.4097 26.8502 84.9879 27.0288C84.5697 27.2073 84.0608 27.2966 83.4613 27.2966C83.1964 27.2966 82.9368 27.2794 82.6823 27.2451C82.4314 27.2108 82.1891 27.161 81.9556 27.0957C81.7256 27.0271 81.506 26.9429 81.2969 26.8433V25.36C81.6594 25.5179 82.0358 25.6604 82.4261 25.7875C82.8165 25.9145 83.2034 25.978 83.5868 25.978C83.8517 25.978 84.0643 25.9437 84.2246 25.875C84.3884 25.8064 84.5069 25.7119 84.5801 25.5917C84.6533 25.4716 84.6899 25.3342 84.6899 25.1797C84.6899 24.9908 84.6254 24.8294 84.4965 24.6955C84.3675 24.5616 84.1898 24.4363 83.9632 24.3195C83.7401 24.2028 83.4875 24.0774 83.2051 23.9435C83.0274 23.8611 82.8339 23.7615 82.6248 23.6448C82.4157 23.5246 82.217 23.3787 82.0288 23.207C81.8406 23.0353 81.6855 22.8276 81.5635 22.5838C81.445 22.3365 81.3858 22.0412 81.3858 21.6978C81.3858 21.248 81.4903 20.8634 81.6994 20.5441C81.9086 20.2248 82.2066 19.981 82.5934 19.8127C82.9838 19.641 83.4439 19.5552 83.9737 19.5552C84.371 19.5552 84.7492 19.6015 85.1082 19.6942C85.4707 19.7835 85.8488 19.914 86.2427 20.0857L85.7199 21.327C85.3678 21.1862 85.0524 21.0781 84.7736 21.0025C84.4947 20.9235 84.2107 20.884 83.9214 20.884C83.7192 20.884 83.5467 20.9167 83.4038 20.9819C83.2609 21.0437 83.1529 21.133 83.0797 21.2497C83.0065 21.3631 82.9699 21.4953 82.9699 21.6463C82.9699 21.8249 83.0222 21.976 83.1267 22.0996C83.2348 22.2198 83.3951 22.3365 83.6077 22.4498C83.8238 22.5632 84.0922 22.6954 84.4128 22.8464C84.8032 23.0284 85.1361 23.219 85.4114 23.4182C85.6902 23.6139 85.9046 23.8457 86.0545 24.1135C86.2043 24.3779 86.2793 24.7075 86.2793 25.1024Z" fill="black"/>
<path d="M76.9264 19.6633C77.62 19.6633 78.1916 19.7457 78.6412 19.9106C79.0943 20.0754 79.4307 20.3243 79.6503 20.6574C79.8698 20.9905 79.9796 21.4111 79.9796 21.9193C79.9796 22.2627 79.9134 22.5631 79.781 22.8207C79.6485 23.0782 79.4742 23.2963 79.2581 23.4748C79.042 23.6534 78.8085 23.7993 78.5576 23.9126L80.8057 27.1936H79.0072L77.1826 24.3041H76.3199V27.1936H74.6992V19.6633H76.9264ZM76.8114 20.9716H76.3199V23.0061H76.8428C77.3795 23.0061 77.7629 22.9185 77.9929 22.7434C78.2265 22.5649 78.3432 22.3039 78.3432 21.9605C78.3432 21.6034 78.2177 21.3493 77.9668 21.1982C77.7193 21.0471 77.3342 20.9716 76.8114 20.9716Z" fill="black"/>
<path d="M69.843 22.9649H72.8753V26.8691C72.4745 26.9996 72.058 27.1043 71.6258 27.1833C71.1936 27.2588 70.7039 27.2966 70.1567 27.2966C69.3969 27.2966 68.7521 27.149 68.2223 26.8537C67.6925 26.5583 67.2899 26.1223 67.0146 25.5454C66.7392 24.9685 66.6016 24.2594 66.6016 23.4182C66.6016 22.6284 66.7549 21.9451 67.0616 21.3682C67.3718 20.7913 67.8232 20.3449 68.4157 20.029C69.0117 19.7131 69.7384 19.5552 70.5958 19.5552C71.0002 19.5552 71.3992 19.5981 71.7931 19.6839C72.1869 19.7698 72.5442 19.8814 72.8649 20.0187L72.3264 21.2961C72.0928 21.1793 71.8262 21.0815 71.5265 21.0025C71.2267 20.9235 70.913 20.884 70.5854 20.884C70.1149 20.884 69.7053 20.9905 69.3568 21.2034C69.0117 21.4163 68.7434 21.715 68.5517 22.0996C68.3634 22.4807 68.2693 22.9306 68.2693 23.4491C68.2693 23.9401 68.3373 24.3762 68.4732 24.7573C68.6092 25.135 68.8235 25.4321 69.1163 25.6484C69.4091 25.8613 69.7907 25.9677 70.2613 25.9677C70.4913 25.9677 70.6847 25.9574 70.8416 25.9368C71.0019 25.9128 71.1518 25.8888 71.2912 25.8647V24.2938H69.843V22.9649Z" fill="black"/>
<defs>
<clipPath id="clip0_143_5674">
<rect width="58.8724" height="58" fill="white"/>
</clipPath>
</defs>
</svg>
