<svg width="283" height="72" viewBox="0 0 283 72" fill="none" xmlns="http://www.w3.org/2000/svg">
<g clip-path="url(#clip0_33_2743)">
<path d="M60.5546 36.3208C59.4208 36.4264 58.1528 36.3816 57.0402 36.484C51.8227 36.964 45.1113 38.0216 41.4923 42.0791C38.0221 45.9702 37.0715 53.602 36.8244 58.6339C36.6281 62.6402 37.1157 67.5921 36.6739 71.4464C36.6461 71.6864 36.6396 71.9408 36.3434 72C36.0849 70.4544 36.3581 68.8689 36.3401 67.2817C36.2682 61.1171 35.9409 51.1301 33.5686 45.5126C28.9907 34.6776 10.4585 36.5608 0.592725 36.1608C0.37185 36.1512 -0.0878978 36.2936 0.0200856 35.9224C1.21772 35.9208 2.52825 35.7112 3.69479 35.6744C12.088 35.4056 26.8311 36.476 32.2204 28.8506C36.7574 22.4315 36.2911 8.20463 36.1896 0.572804C36.1896 0.454407 36.3123 -0.00318323 36.4236 1.66999e-05C36.8375 0.483206 36.4661 1.06239 36.4907 1.52158C36.8948 9.15501 36.3369 21.6059 40.3617 28.1482C44.3882 34.692 53.5422 35.1048 60.5546 35.5208C60.5579 35.788 60.5513 36.0536 60.5546 36.3208Z" fill="white"/>
<path d="M86.4046 49.4406C86.3326 49.0086 86.4831 49.1638 86.7613 49.0774C88.3876 48.5734 89.0371 48.6934 89.1926 46.6486C89.7128 39.7928 88.7999 32.2985 89.1713 25.3755C88.957 24.4235 88.543 23.6171 87.5548 23.2763C87.1229 23.1275 86.3752 23.3787 86.4046 22.7228C91.5584 23.1019 100.22 21.3884 104.161 25.4363C106.558 27.8986 106.344 32.4169 103.824 34.7161C102.476 35.9465 101.117 36.1305 99.613 36.8376C99.4281 36.924 99.325 36.94 99.3479 37.1784C99.3561 37.26 100.05 38.412 100.176 38.6136C102.434 42.1959 107.041 46.6646 110.999 48.3494C111.401 48.5206 112.821 49.0918 113.147 49.103C114.125 49.1366 115.439 48.2934 115.511 47.2678C115.138 40.404 116.059 32.9513 115.532 26.1563C115.398 24.4171 114.811 22.9979 112.743 23.2027V22.7244C117.134 22.8923 121.704 22.4956 126.077 22.7244C133.543 23.1163 139.688 27.9274 139.74 35.6025C139.798 44.0119 134.289 48.9894 125.922 49.4486C121.823 49.6742 116.089 49.6966 112 49.4486C104.448 48.9942 99.5949 43.4375 96.1378 37.4408H93.4383C93.345 37.0888 93.5855 37.052 93.8849 37.004C94.7831 36.8616 95.7648 36.9256 96.681 36.692C105.043 34.5577 103.747 23.8411 94.829 23.8411H92.4566C92.1555 27.9498 92.3061 32.1161 92.2995 36.2473C92.2946 39.5416 91.9788 43.0055 92.2963 46.3174C92.4042 47.4454 92.7413 48.4774 93.9242 48.8854C94.3561 49.0342 95.1022 48.7814 95.0744 49.4406H86.403H86.4046ZM118.8 24.1611V46.3206C118.8 47.1238 119.552 47.8742 120.369 47.9862C129.946 49.2966 138.322 44.0471 136.201 33.7833C134.708 26.5579 128.821 24.1419 121.997 24.1675C120.931 24.1723 119.863 24.1499 118.8 24.1595V24.1611Z" fill="white"/>
<path d="M60.5545 35.5207C60.5103 32.5608 60.9488 28.1401 60.5152 25.3994C60.2829 23.929 59.2931 23.1242 57.7715 23.1994V22.561H66.7717L66.6752 23.0554C65.6592 23.2362 64.4305 23.401 64.0672 24.4762C63.5895 25.889 63.6762 32.5608 63.8186 34.3288C63.8431 34.6376 63.9151 34.908 63.9903 35.2008H78.2245V25.681C78.2245 25.2634 77.8286 24.1498 77.4997 23.8282C77.4555 23.785 76.6882 23.217 76.6359 23.2058C76.2006 23.1194 75.4317 23.4314 75.4431 22.7194H84.1145C84.1816 23.1338 84.054 23.009 83.7611 23.0858C82.6306 23.3818 81.752 23.3738 81.343 24.729C81.6685 31.5368 80.8799 38.7703 81.3266 45.5269C81.4002 46.6389 81.608 48.2277 82.7615 48.7637C83.3325 49.0292 84.2618 48.7493 84.2781 49.4404H75.6067C75.5773 48.7813 76.3332 49.0292 76.7602 48.8885C77.3018 48.7125 78.2245 48.2581 78.2245 47.6005V36.6407H63.8267V46.8005C63.8267 47.4565 64.7119 48.5445 65.35 48.8293C65.7524 49.0084 66.6736 48.9397 66.6081 49.4404H58.1821C58.1478 49.4404 57.9956 49.6804 57.9384 49.6004C57.7878 48.7157 59.0542 49.1172 59.8183 48.6405C60.2109 48.3957 60.602 47.8581 60.6789 47.4021C60.7165 43.8918 60.7574 40.3734 60.7296 36.8615C60.7279 36.5703 60.5545 36.3495 60.5545 36.3207C60.5512 36.0535 60.5578 35.7879 60.5545 35.5207Z" fill="white"/>
<path d="M269.159 34.0808C269.424 34.1432 269.539 34.0296 269.735 33.9256C272.337 32.556 273.367 31.0953 276.72 32.0456C285.565 34.5528 283.492 48.7237 274.269 49.8788C272.305 50.1252 271.069 49.6821 269.321 48.9605L269.506 56.0579L273.078 57.2851C273.166 57.3843 273.02 58.0627 272.881 58.2019C272.391 58.6882 264.93 58.2611 263.701 58.3763L263.418 57.9971C263.338 57.0003 265.547 56.6387 265.694 56.2147C266.065 49.1429 265.808 42.0454 265.885 34.9608C265.786 34.4312 264.275 34.0056 263.785 33.7384C263.685 33.388 263.731 33.0472 263.994 32.7912C264.361 32.4344 268.562 31.5449 269.051 31.7049C269.608 31.8856 268.935 33.5384 269.159 34.0808ZM273.197 34.14C272.281 34.1192 269.511 34.956 269.326 35.9256V46.9573C269.406 47.4949 270.895 47.9221 271.378 47.9909C280.2 49.2581 281.065 34.3128 273.197 34.14Z" fill="white"/>
<path d="M141.541 49.6005C141.392 47.7477 144.038 48.1445 144.771 46.9189C147.768 39.9991 151.158 33.1465 153.496 26.001L153.19 24.5114C153.827 24.3562 155.559 22.8859 156.022 22.8763C156.574 22.8651 156.53 24.481 156.667 24.969C156.971 26.0458 157.577 27.3818 157.987 28.4778C160.263 34.5528 162.981 40.4919 165.379 46.5206C165.79 46.9797 166.181 47.3045 166.732 47.6037C167.284 47.9029 168.962 48.3541 169.198 48.5605C169.504 48.8277 169.059 49.6021 168.944 49.6021H160.273C159.9 49.6021 160.132 48.8677 160.283 48.6517C160.628 48.1573 161.703 47.9301 161.667 47.2965L158.881 40.2855C158.786 40.0855 158.519 40.0311 158.318 40.0295C157.214 40.0263 155.818 40.2967 154.717 40.3287C153.943 40.3511 150.064 40.1687 149.8 40.4807L147.258 47.2709L150.546 48.5605C150.867 48.7205 150.424 49.6005 150.293 49.6005H141.54H141.541ZM154.628 28.641L154.265 28.8473L150.726 37.8727C150.659 38.0391 150.828 38.1751 150.973 38.2183C151.785 38.4583 154.602 38.2023 155.7 38.2359C156.132 38.2487 157.917 38.7127 158.056 38.1511L154.628 28.6426V28.641Z" fill="white"/>
<path d="M202.568 33.2808C201.874 34.196 200.418 33.8216 199.379 33.9224C198.538 34.004 197.686 34.1736 196.842 34.2408V45.6805C196.842 45.7749 197.282 46.7509 197.403 46.8917C198.074 47.6709 199.864 47.6389 200.811 47.4821C201.552 47.3605 202.13 46.7397 202.894 46.7205C203.306 48.4453 201.128 49.5828 199.666 49.882C196.41 50.5476 193.697 49.0437 193.407 45.6773C193.095 42.0358 193.653 38.0231 193.383 34.3416C193.25 33.9608 191.524 33.9176 191.027 33.764C190.84 33.7064 190.741 33.8776 190.786 33.5224C190.836 33.1448 191.213 32.7416 191.303 32.3464L193.496 32.1704L194.476 27.8489C194.764 27.2537 196.318 26.6186 197.004 26.7194C196.981 27.8121 197.033 28.9129 197.007 30.0073C196.999 30.3737 196.634 32.3192 197.085 32.3192H203.057C202.845 32.5528 202.707 33.092 202.566 33.2792C202.789 33.236 203.056 33.2088 203.255 33.1064C204.163 32.636 205.366 32.292 206.455 32.0424C206.75 31.9752 208.54 31.6008 208.62 31.6792C208.564 32.5992 208.802 33.5128 209.027 34.4024C209.71 37.0935 210.817 40.1447 211.725 42.8038C211.987 43.5702 212.198 44.4326 212.63 45.1189L217.463 32.5672C217.869 32.4664 218.514 32.0888 218.736 32.588L223.347 45.4405L223.828 45.4325C225.469 41.6006 227.445 37.8823 227.116 33.5128C227.012 32.1256 225.811 30.5689 227.965 31.2441C228.229 31.3273 229.481 31.9816 229.638 32.1688C231.262 34.1016 228.378 39.7895 227.391 41.7942C226.614 43.375 223.767 49.1077 222.61 49.9188C222.442 50.0372 222.195 50.2596 221.979 50.2196L221.59 49.8004L217.334 38.2855L216.971 38.0823L212.831 48.6757C212.458 49.4197 211.848 50.0244 211.009 50.2356L205.425 34.732C204.975 34.1128 203.353 34.5448 202.58 34.2344L202.571 33.2824L202.568 33.2808Z" fill="white"/>
<path d="M170.011 49.6004C169.723 47.9893 172.305 48.2005 172.473 46.9685L172.466 35.2808C172.375 34.7928 171.02 34.316 170.51 34.2328C170.434 34.1496 170.606 33.2728 170.704 33.1592C170.881 32.9576 175.713 31.4888 175.901 31.6808L175.819 34.7192C178.41 32.716 181.549 30.6169 184.889 32.4104C189.153 34.7 186.946 43.151 187.558 47.0885C187.704 47.8213 189.777 48.0901 190.393 48.6373C190.51 48.9573 190.244 49.5988 189.889 49.5988H182.363C182.268 49.5988 182.126 49.3588 182.123 49.2116C182.092 48.1461 183.677 47.9765 183.909 47.1093C184.309 45.6165 184.255 39.4007 184.081 37.6807C183.607 32.9896 178.124 33.5016 175.906 36.5623L175.917 46.7829C175.971 47.9205 177.298 48.0053 178.123 48.4709L178.029 49.5972H170.012L170.011 49.6004Z" fill="white"/>
<path d="M236.191 40.3206C235.642 40.4726 235.907 42.151 235.987 42.6006C236.507 45.5077 238.732 47.7237 241.802 47.9605C243.95 48.1269 245.123 46.1365 247.07 45.6005C247.343 46.7557 245.691 48.6869 244.73 49.1525C242.729 50.122 239.243 50.2324 237.193 49.4196C230.619 46.8149 230.614 36.7447 236.216 33.1448C241.682 29.6313 248.814 33.0664 247.41 39.7335C247.361 39.8087 245.771 40.3191 245.679 40.3191H236.19L236.191 40.3206ZM235.946 38.8807H243.799C244.45 36.9879 243.412 33.4904 241.108 33.2744C237.816 32.964 236.144 36.0855 235.946 38.8807Z" fill="white"/>
<path d="M249.198 49.6004C248.902 48.0405 250.76 48.2389 251.572 47.3621C251.73 44.8421 251.608 42.2966 251.653 39.7623C251.676 38.5191 251.992 37.0759 251.799 35.7768C251.606 34.4776 250.106 34.5784 249.759 33.9208C249.129 32.7272 253.815 31.948 254.505 31.6888C254.945 31.7784 254.985 34.5768 255.088 35.1208L255.412 35.2008C256.367 33.1672 259.77 30.9129 262.022 32.0216C262.318 32.1672 262.547 32.1992 262.617 32.564C262.738 33.1848 261.673 36.6151 261.143 36.8887C260.969 36.9783 260.816 37.0183 260.644 36.8903C260.205 36.4247 259.602 34.292 258.969 34.2808C257.44 34.2536 255.598 36.2935 255.246 37.6791L255.243 47.4165L259.016 48.5589C259.371 48.8101 259.059 49.2773 259.014 49.602H249.198V49.6004Z" fill="white"/>
</g>
<defs>
<clipPath id="clip0_33_2743">
<rect width="282.375" height="72" fill="white"/>
</clipPath>
</defs>
</svg>
