<svg width="196" height="58" viewBox="0 0 196 58" fill="none" xmlns="http://www.w3.org/2000/svg">
<g clip-path="url(#clip0_143_5673)">
<path d="M196.002 5.45777V15.5589H184.467C184.53 13.9639 183.616 12.3701 182.048 11.9506L169.228 11.9127C166.45 12.8678 167.039 17.1347 169.534 18.0789L191.617 18.1037C193.761 18.6813 195.578 20.1932 196.002 22.483V41.219C195.352 44.141 193.752 46.0932 190.679 46.2736H161.115C157.893 46.0602 155.84 44.3968 155.629 41.019L155.632 31.8514H167.246C167.243 33.4098 168.098 34.9628 169.628 35.4162L182.708 35.397C185.205 34.261 184.648 30.3896 182.341 29.3298L160.399 29.3253C157.979 28.8415 155.983 27.0277 155.632 24.4796L155.629 6.88048C155.91 4.37963 157.301 1.82991 159.875 1.2601C170.502 1.06052 181.212 1.06337 191.841 1.25887C193.895 1.62015 195.781 3.26321 196.002 5.45817L196.002 5.45777Z" fill="black"/>
<path d="M18.0213 0C18.5759 0.135632 19.1555 0.166587 19.7181 0.270042C20.1335 0.346615 20.8543 0.615028 21.198 0.624396C21.522 0.633357 22.3281 0.344579 22.7326 0.270042C23.2953 0.16618 23.8748 0.135632 24.4295 0H26.5922C27.1464 0.137669 27.7268 0.163736 28.289 0.270042C38.0582 2.12287 43.5309 12.336 42.2001 21.9418C40.9634 30.8675 33.4249 38.6918 24.1504 37.7965C23.3478 37.7191 21.7867 37.2153 21.1936 37.234C20.6697 37.2507 19.6461 37.6173 19.0121 37.7041C9.96781 38.9455 2.37251 32.056 0.519837 23.3796C0.29396 22.3206 0.229481 21.2462 0 20.2018V17.6766C0.219469 17.132 0.167405 16.5145 0.251508 15.9366C1.43175 7.84751 7.42469 0.733553 15.7313 0.0753511L15.8586 0H18.0213ZM17.781 2.03733C10.3663 1.55508 5.05339 8.02591 3.70694 14.8902C2.46422 21.2254 4.18112 28.5332 9.04908 32.8702C11.2426 34.8248 14.5426 36.226 17.4994 36.0044C17.6064 35.9963 17.984 35.9645 18.0205 35.8435C8.17721 30.3665 5.76426 16.5858 12.1088 7.38685C13.6239 5.19027 15.5727 3.48041 17.781 2.03692V2.03733ZM24.4295 35.9233C32.5198 36.6646 38.0922 29.1022 38.9966 21.6176C40.0743 12.6977 34.8443 1.50702 24.788 2.03652C24.6978 2.0414 24.5681 1.98316 24.5897 2.11716C27.0864 3.47267 29.2706 5.64563 30.7901 8.07194C36.2095 16.7251 34.3392 28.8399 26.0563 34.8505L24.4295 35.9238V35.9233ZM29.3944 26.0674C31.5178 20.0434 30.871 12.9303 27.138 7.7131C25.6394 5.61875 23.5552 3.76756 21.1375 2.89267C8.75913 8.50001 8.7415 29.5865 21.1915 35.1091C23.8776 34.0689 26.2185 31.8532 27.7468 29.4008C28.0283 28.9491 28.6923 27.8693 28.8337 27.4103C28.8465 27.3687 28.8557 27.2775 28.7953 27.2901C28.448 27.6449 28.0259 27.8938 27.5746 28.0852C24.4455 29.411 18.2363 28.9132 15.2971 27.1692C12.8405 25.7114 13.6115 23.9727 15.9784 23.134L18.4218 22.5231C18.4674 22.3581 18.143 22.3402 18.0525 22.3304C17.6212 22.2828 17.1758 22.3597 16.7473 22.2322C16.7041 21.7602 16.5927 21.1989 16.6556 20.7277C16.6916 20.4568 16.8859 20.4075 16.9015 20.2426C16.9239 20.0043 16.7365 19.4532 16.7377 19.182C16.7393 18.8211 17.0637 18.7596 16.8979 18.127C16.8238 17.8436 16.2026 17.7605 16.0132 17.2346C15.7241 16.4318 16.1882 15.9793 16.8074 15.5871C16.9532 15.1378 16.6304 14.2389 16.7797 13.9294C16.8602 13.7628 17.2563 13.6585 17.3376 13.52C17.445 13.338 17.4053 12.7563 17.5351 12.6622L18.101 12.6268C18.0609 12.3079 18.3212 11.8778 18.1006 11.6094C18.0429 11.5389 16.6672 10.6481 16.5803 10.6237C16.296 10.5426 16.1562 10.8359 15.9387 10.7182C15.7477 10.6147 15.678 10.2473 15.7585 10.0461C15.8238 9.88281 16.3624 8.92931 16.4654 8.80508C16.5491 8.70407 17.4045 8.07275 17.4878 8.08008C17.8186 8.109 17.8687 8.50449 17.9984 8.64053C18.0633 8.70896 18.8543 9.25027 18.948 9.28244C19.8771 9.60014 21.3125 9.23275 22.3057 9.20098C22.4179 9.19732 22.5788 9.18266 22.6706 9.24416L23.0014 10.4139C23.3474 10.4921 23.7539 10.5728 23.852 10.9752C23.882 11.0978 23.842 11.3532 23.8772 11.3968C23.9125 11.4403 24.2601 11.4016 24.335 11.6228L24.3875 12.2252L23.7815 12.5983C23.84 12.9799 23.9393 13.5131 23.8688 13.8907C23.8384 14.0528 22.9697 14.6556 22.7655 14.7236C22.2745 14.8878 20.6861 14.8434 20.4394 15.0055C20.4006 15.0311 20.0818 15.7573 20.1387 15.8873L20.9132 17.8317C21.5344 17.7124 21.6065 18.2977 21.882 18.7197L26.1905 18.5734C26.2433 18.2993 25.82 18.3568 25.6318 18.2867C24.7896 17.9743 23.4743 17.3466 23.8236 16.207C23.9001 15.9569 25.4408 14.5762 25.6867 14.5183C25.8352 14.4833 25.9926 14.489 26.1432 14.5077C26.442 14.5448 27.3379 15.2014 27.5401 15.4502C28.0796 16.1145 28.1549 17.1259 28.0279 17.958C27.9923 18.191 27.7688 18.4386 27.8064 18.6789C27.8733 19.1054 28.7604 19.6414 28.595 20.309C28.565 20.4299 26.9742 21.3064 26.7756 21.5309C26.4296 21.9223 26.3338 22.8811 26.0403 23.3409C26.0511 23.5087 28.4861 24.3107 28.9026 24.9803C28.9667 25.0838 29.2903 26.1505 29.3936 26.0682L29.3944 26.0674ZM17.0877 9.07024C17.135 9.01444 18.0125 8.41937 17.5791 8.30899C17.4049 8.26459 16.7505 8.80794 16.624 8.96556C16.525 9.08857 15.9439 10.1349 15.9375 10.2302C15.9207 10.4824 16.0905 10.6253 16.2835 10.409C16.5863 10.0698 16.7902 9.42256 17.0873 9.07065L17.0877 9.07024ZM17.7421 8.7167C17.7137 8.73951 17.0008 9.38427 17.3404 9.36635L17.9396 8.83848L17.7421 8.7167ZM18.6617 9.28815L18.1414 8.9847L17.5419 9.49058L18.0609 9.93576C18.143 9.79891 18.7766 9.45881 18.6613 9.28815H18.6617ZM22.2665 9.36879C21.2841 9.62865 20.0526 9.2128 19.463 10.2632L21.4891 10.1659L22.2665 9.36879ZM17.0685 9.43192L16.5415 10.3822L16.7093 10.4787L17.2363 9.52846L17.0685 9.43192ZM19.7033 9.61317C19.1066 9.42663 18.5984 9.4527 18.3421 10.1007L19.0862 10.2522L19.7033 9.61317ZM22.5861 9.44944L21.6361 10.3219C21.6069 10.4376 21.8968 11.1389 21.9877 11.1605L22.8155 10.4494L22.5861 9.44944ZM17.3817 9.61236L16.9107 10.4815L17.3412 10.9068L17.8623 10.1402L17.3821 9.61195L17.3817 9.61236ZM18.1514 10.1968C17.7121 10.6705 17.3024 11.0941 18.1314 11.398L18.9007 10.4673L18.1514 10.1964V10.1968ZM22.0262 12.0554L21.3337 10.3528C21.1167 10.3129 20.9228 10.4237 20.7078 10.4302C20.0886 10.4494 19.2792 10.2156 18.9027 10.7944L19.5291 10.8893C20.1587 11.1043 20.3529 11.7161 20.0233 12.2993L22.0258 12.055L22.0262 12.0554ZM23.0406 10.6103C22.9525 10.6245 22.1011 11.3169 22.0638 11.4033L22.2633 11.9409C22.4731 11.8692 23.5196 11.5992 23.5913 11.4892C23.8372 11.1133 23.4892 10.5382 23.0406 10.6103ZM18.9596 11.0958C17.9388 11.3287 18.6604 12.9506 19.6529 12.2896C20.3373 11.8334 19.8087 10.9019 18.9596 11.0958ZM24.18 11.6578C23.9457 11.3862 22.3646 12.1943 21.9669 12.2814C21.2793 12.4317 20.4126 12.4517 19.7033 12.5458L19.8663 13.5192C19.96 13.6096 22.1315 13.1461 22.403 13.0508C22.9621 12.8549 23.5741 12.3751 24.1752 12.2065L24.1796 11.6578H24.18ZM18.6621 12.5441L18.3425 12.2191V12.5445H18.6621V12.5441ZM19.5427 12.6268L17.6204 12.7889L17.5647 13.5526L19.5051 18.7364L20.8299 17.9568C20.8447 17.734 20.0233 16.3072 19.958 15.9044C19.8968 15.5272 20.2047 15.2804 20.2512 15.0091C20.3153 14.6324 19.8151 14.2503 19.7826 13.8483C19.5515 13.8434 19.3693 14.6303 19.143 14.4177C19.0365 14.3175 19.5567 13.6976 19.6897 13.6377L19.5427 12.6264V12.6268ZM23.6277 12.7083C23.5889 12.6635 22.6313 13.1323 22.5949 13.2512L22.828 14.4181L23.691 13.9135L23.6277 12.7083ZM22.343 13.2801L20.9052 13.5229L21.0658 14.7448L22.5877 14.5819L22.343 13.2801ZM20.6641 13.6035L19.9448 13.8068C20.2408 14.1636 20.218 14.88 20.8247 14.7444L20.6641 13.6035ZM17.4594 13.7669L16.9768 13.9844L17.0597 15.5594C17.4866 15.4857 17.799 15.6836 18.1815 15.8026L17.4598 13.7669H17.4594ZM26.6582 14.9207C26.4075 14.8368 26.1192 14.6255 25.8497 14.6755C25.7627 14.6918 25.0331 15.2055 25.0078 15.2498C24.8596 15.5077 25.1296 16.1834 25.3486 16.3752C25.6574 16.6453 26.3647 16.7011 26.7488 16.8615C27.1837 16.1663 26.7884 16.3325 26.6883 15.9907C26.6002 15.6901 26.7311 15.2413 26.6586 14.9207H26.6582ZM26.5801 17.0367C26.0467 16.8004 25.335 16.7842 25.003 16.238C24.8604 16.0034 24.8693 15.7626 24.7095 15.5606C23.6017 16.3369 23.7659 17.0469 24.856 17.6908C25.8108 18.2549 26.7139 18.6301 26.5805 17.0363L26.5801 17.0367ZM18.1542 17.4863C19.1775 16.4551 17.3192 15.0315 16.3841 16.1341C15.4685 17.2139 17.1626 18.4855 18.1542 17.4863ZM19.2227 18.6537L18.6613 17.1071C18.5287 17.1405 18.5287 17.345 18.4226 17.4737C18.0757 17.8945 17.6865 18.0558 17.1402 18.0024L17.1494 18.4012L19.2231 18.6537H19.2227ZM21.1875 18.0285C20.6128 18.2118 20.125 18.604 19.628 18.9384L20.3073 20.0393L21.7711 18.859L21.1875 18.0281V18.0285ZM27.3919 18.0032C27.0908 17.7845 26.5898 19.1925 27.2746 18.8195C27.2017 18.5205 27.4736 18.3865 27.4772 18.3592C27.4829 18.3152 27.4064 18.0142 27.3915 18.0036L27.3919 18.0032ZM18.3413 18.7368L17.1943 18.6516L17.0601 18.8981H17.4998L18.3413 18.7368ZM26.1913 18.736L21.9277 19.0023C20.9304 19.7563 20.2108 20.7839 18.7958 20.5244L18.6769 20.8014C19.4178 21.4233 20.6513 21.0458 21.4302 20.6144L25.6694 20.4454C25.7768 20.4531 26.1913 19.9554 26.1913 19.9171V18.736ZM19.4634 20.3656L19.308 19.0158L16.98 19.0614L17.1065 20.2116L19.4634 20.3656ZM20.1034 20.2014L19.5435 19.2255L19.7057 20.2825L20.1034 20.2014ZM17.02 22.1573H18.4218L18.5023 20.5277L16.9796 20.487C16.8819 20.5428 16.8418 20.6258 16.8214 20.7346C16.797 20.8662 16.8711 21.7875 16.8995 21.9541C16.9151 22.0453 16.9415 22.106 17.02 22.1573ZM25.6178 20.7045L21.8271 20.7741C21.2304 20.79 20.8888 21.2001 20.3029 21.2604C19.7746 21.315 19.1851 21.2482 18.6621 21.1798C18.7349 21.6392 18.4306 22.2017 18.9644 22.3789C19.4062 22.5255 20.2432 22.5243 20.6821 22.3789C20.9168 22.3011 21.1375 22.0457 21.4302 21.9993C22.7607 21.7879 24.5889 22.0539 25.8897 21.8091C25.949 21.7981 26.1244 21.7549 26.1104 21.7101L25.6178 20.704V20.7045ZM26.271 21.9948L22.5873 22.1976L22.886 22.7271L25.9057 23.3022L26.271 21.9948ZM22.5869 22.6453C22.3918 21.9276 21.9485 22.1773 21.3854 22.2396C21.4559 22.8232 22.1483 22.6066 22.5869 22.6453ZM20.8247 22.5646C20.1999 22.6758 19.5255 22.7068 18.9023 22.5646V23.868C18.4886 23.7975 18.2343 24.2635 18.2564 24.6353C18.5519 24.7938 18.986 24.7188 18.9836 25.1713C19.6881 24.7697 20.1507 24.428 20.3838 25.4968C20.7534 25.0821 21.3085 24.9628 21.8247 24.8455L21.8672 25.0504C21.5832 25.1135 21.3053 25.1441 21.0338 25.2618C20.8011 25.3628 20.3713 25.79 20.2884 25.81C20.1795 25.8365 19.0265 25.5766 18.9428 25.4968C18.8371 25.3958 18.8062 25.1062 18.7017 25.0088C18.5375 24.8549 18.2792 24.9758 18.1166 24.7062C17.94 24.4134 18.139 24.2113 18.2612 23.9503C17.7097 23.9099 15.2935 24.3694 15.1726 24.92C15.0272 25.5807 17.636 26.3631 18.1306 26.4853C18.5327 26.5847 19.1755 26.7525 19.5692 26.7696C19.7834 26.779 20.9489 26.7444 21.0882 26.7024C21.3265 26.6303 21.5067 26.12 21.8247 26.1411L24.1079 26.4743L23.9481 25.823H25.2697C25.47 25.823 25.8104 25.5106 25.6354 25.23C25.5769 25.1363 24.3847 24.34 24.2205 24.2834C24.142 24.2565 23.7263 24.1747 23.7082 24.1942V25.1718L22.665 25.0508L22.705 24.8484L22.9861 24.927L22.9873 24.6019H22.6658C22.7282 24.1299 22.6577 24.0504 22.2072 23.9686C22.0554 23.9409 21.4707 23.8635 21.3489 23.8712C21.0902 23.8871 20.9953 24.1515 20.7826 24.1926C20.2304 24.2993 19.7298 23.9462 19.2644 24.3576C19.1711 24.2606 19.0978 24.2684 19.2247 24.1559C19.7398 23.7002 20.6825 24.2297 20.8712 23.9507C20.9192 23.8924 20.8247 23.848 20.8247 23.8277V22.565V22.5646ZM24.1884 26.8816C24.2525 26.3953 23.6974 26.592 23.3578 26.546C23.0554 26.5049 21.9893 26.2377 21.8223 26.2629C21.685 26.2837 21.4126 26.735 21.2048 26.8205C21.0662 26.8775 20.6637 26.8747 20.6637 26.9228L23.2272 27.0441L21.8083 26.7382L21.7466 26.555C22.5332 26.7957 23.3638 26.9028 24.1884 26.8816Z" fill="black"/>
<path d="M36.4428 58H6.88664C5.45168 57.631 4.23379 56.6669 4.00391 55.1074L4.01152 42.5722C4.28825 40.8758 5.68557 39.8123 7.32397 39.6685C17.106 39.7553 26.9212 39.5089 36.6835 39.7928C38.0788 40.1414 39.2134 41.3124 39.3288 42.8048C39.6335 46.7426 39.1133 51.1048 39.3035 55.0854C39.0857 56.6698 37.8894 57.6094 36.4424 58H36.4428ZM7.3496 40.7532C6.23143 40.8892 5.26705 41.6191 5.12528 42.8084V54.8626C5.26385 56.0719 6.25106 56.836 7.40407 56.9439H35.8445C37.1285 56.8413 38.1033 56.0482 38.2074 54.7037C38.5014 50.9089 37.9819 46.7255 38.2038 42.8899C38.0684 41.4969 36.8974 40.7797 35.605 40.7267L7.3488 40.7532H7.3496Z" fill="black"/>
<path d="M152.427 16.2107H141.133C140.851 14.9024 139.955 13.5848 138.673 13.1331C138.567 13.096 138.11 12.9523 138.05 12.9523H122.711V34.4579H136.448C137.524 34.4579 138.971 32.4157 138.971 31.4031V28.4705L138.851 28.3483H127.036V18.2472L145.101 18.2439C147.743 18.5543 152.427 20.1522 152.427 23.5014V46.1475L152.307 46.2697H116.103C113.976 46.2697 111.309 43.8218 111.097 41.6663L111.094 6.55475C111.528 3.48205 113.658 1.35226 116.74 1.13721L146.619 1.14169C149.462 1.26958 152.427 4.52149 152.427 7.37221V16.2107Z" fill="black"/>
<path d="M90.9132 46.2696H80.8208L78.4475 38.6229L60.5248 38.6074L57.8727 46.2696H47.3398L62.2869 1.1355L78.3791 1.22062L90.9132 46.2696ZM74.2528 27.2078L69.4477 13.6039L64.8012 27.2078H74.2528Z" fill="black"/>
<path d="M105.567 1.14038H93.9531V46.2696H105.567V1.14038Z" fill="black"/>
<path d="M17.3048 17.0089C17.4214 17.0089 17.5159 16.9128 17.5159 16.7942C17.5159 16.6757 17.4214 16.5796 17.3048 16.5796C17.1882 16.5796 17.0938 16.6757 17.0938 16.7942C17.0938 16.9128 17.1882 17.0089 17.3048 17.0089Z" fill="black"/>
<path d="M19.3845 11.5678V11.8929C18.8534 11.9515 18.8486 11.5108 19.3845 11.5678Z" fill="black"/>
<path d="M18.5443 41.9521L21.0674 45.8623V42.0743L21.1875 41.9521H22.3489V47.7359H21.0273L18.4241 43.7443V47.7359H17.2227V41.9521H18.5443Z" fill="black"/>
<path d="M31.8783 52.462C33.5904 53.6603 32.8832 55.775 30.8755 55.9623C29.3749 56.1025 27.9199 55.4516 28.2295 53.6786C28.3412 53.0383 28.7397 52.9389 29.0757 52.5023C28.1005 51.9089 28.1758 50.6874 29.0801 50.063C29.9844 49.4386 31.9889 49.5514 32.4799 50.6682C32.7554 51.2951 32.6261 52.2539 31.8787 52.462H31.8783ZM30.3369 50.6861C29.4718 50.8132 29.4574 51.9524 30.1727 52.1174C31.727 52.4758 31.6781 50.4894 30.3369 50.6861ZM30.1743 53.1316C29.2639 53.3214 29.2936 54.9697 30.4766 54.9926C31.8735 55.0194 31.8287 52.7866 30.1743 53.1316Z" fill="black"/>
<path d="M35.884 41.9521V43.0111H32.5999V44.233H35.6437V45.2106H32.5999V46.6769H36.0442V47.7359H31.3584L31.2383 47.6137V42.0743L31.3584 41.9521H35.884Z" fill="black"/>
<path d="M16.4201 54.4158H17.7818C17.8194 54.4158 17.7666 54.8585 18.2392 54.9685C19.2696 55.2084 19.5812 54.195 19.6233 53.3568C18.3657 54.3742 16.2391 53.6114 16.2579 51.8539C16.2844 49.3673 19.7774 48.8533 20.6798 51.0209C21.2032 52.2783 21.0846 54.6211 19.9465 55.5176C18.8435 56.3867 16.5747 56.0682 16.4201 54.4158ZM17.8899 52.5951C18.3129 53.0301 19.3894 52.8383 19.5255 52.1569C19.9416 50.076 17.091 50.2397 17.7073 52.2522C17.7422 52.3667 17.8078 52.5108 17.8903 52.5951H17.8899Z" fill="black"/>
<path d="M12.3363 43.6629H11.0547C10.9758 42.562 8.4255 42.4781 8.64977 43.7028C8.69062 43.9248 9.02904 44.0287 9.22808 44.0947C10.5673 44.5378 12.8361 44.3077 12.4769 46.4538C12.1356 48.4943 7.11309 48.4557 7.28971 45.9438H8.57127C8.43391 47.1735 11.0455 47.1535 11.1957 46.3768C11.2702 45.9907 11.2413 45.8265 10.8949 45.6583C9.84924 45.1508 7.64534 45.4791 7.38943 43.9293C6.93848 41.2008 12.2017 41.0399 12.3363 43.6633V43.6629Z" fill="black"/>
<path d="M29.476 43.9073H28.2345C27.9081 43.2337 27.6618 42.9253 26.8728 42.9253C24.8011 42.9253 24.896 46.499 26.4102 46.8216C27.3186 47.0151 27.8989 46.6086 28.2345 45.7809H29.476C29.2493 48.1441 25.7895 48.6288 24.5099 46.8807C23.6469 45.7015 23.7418 43.4361 24.9172 42.4891C26.3466 41.3373 29.3302 41.7637 29.4756 43.9073H29.476Z" fill="black"/>
<path d="M24.5101 55.8006H23.1485C23.2214 53.9234 24.2718 52.2595 25.4713 50.913H22.3074C22.1276 50.7965 22.148 49.957 22.2221 49.8487L22.3186 49.7839L26.9583 49.8487C27.2539 50.7765 26.5386 51.1024 26.0784 51.7341C25.2142 52.921 24.5954 54.3022 24.5101 55.8006Z" fill="black"/>
<path d="M13.6179 49.6909V55.8005H12.2562V51.646H10.7344V50.7495C11.2246 50.7792 11.9571 50.7646 12.2931 50.3393C12.4228 50.1752 12.4829 49.752 12.6275 49.7019L13.6179 49.6909Z" fill="black"/>
<path d="M15.2972 41.9521H14.0156V47.7359H15.2972V41.9521Z" fill="black"/>
</g>
<defs>
<clipPath id="clip0_143_5673">
<rect width="196" height="58" fill="white"/>
</clipPath>
</defs>
</svg>
