<svg width="241" height="72" viewBox="0 0 241 72" fill="none" xmlns="http://www.w3.org/2000/svg">
<g clip-path="url(#clip0_33_2774)">
<path d="M240.48 6.77534V19.3147H226.328C226.405 17.3347 225.283 15.3562 223.36 14.8354L207.631 14.7884C204.222 15.974 204.945 21.2709 208.006 22.4429L235.1 22.4738C237.731 23.1907 239.961 25.0676 240.48 27.9102V51.1686C239.683 54.7959 237.72 57.2193 233.95 57.4433H197.677C193.724 57.1784 191.204 55.1134 190.945 50.9203L190.949 39.5399H205.199C205.195 41.4744 206.244 43.4023 208.122 43.9651L224.169 43.9413C227.234 42.5311 226.55 37.7252 223.72 36.4096L196.798 36.404C193.828 35.8034 191.38 33.5519 190.949 30.3887L190.946 8.54146C191.29 5.43697 192.996 2.2718 196.155 1.56444C209.194 1.31669 222.334 1.32022 235.375 1.56292C237.895 2.0114 240.209 4.05107 240.481 6.77584L240.48 6.77534Z" fill="white"/>
<path d="M22.1129 0C22.7935 0.168371 23.5045 0.206798 24.1949 0.335225C24.7045 0.430281 25.5889 0.763483 26.0105 0.775112C26.4081 0.786236 27.3972 0.427753 27.8935 0.335225C28.5839 0.206292 29.2949 0.168371 29.9755 0H32.6289C33.309 0.170899 34.021 0.203258 34.7109 0.335225C46.697 2.63528 53.4117 15.3137 51.7789 27.2381C50.2615 38.3183 41.0123 48.0312 29.633 46.9198C28.6483 46.8238 26.7329 46.1983 26.0051 46.2216C25.3624 46.2423 24.1065 46.6974 23.3286 46.8051C12.2318 48.3462 2.91287 39.7937 0.639761 29.023C0.362624 27.7084 0.283512 26.3746 0.00195312 25.0781V21.9433C0.271228 21.2673 0.207349 20.5008 0.310538 19.7833C1.75863 9.74174 9.1116 0.910618 19.3033 0.0935393L19.4595 0H22.1129ZM21.8181 2.5291C12.7208 1.93045 6.20215 9.9632 4.55014 18.4844C3.0254 26.3488 5.13193 35.4206 11.1046 40.8044C13.7959 43.2308 17.8448 44.9702 21.4727 44.6951C21.6039 44.685 22.0672 44.6456 22.112 44.4954C10.0349 37.6964 7.07435 20.5893 14.8587 9.16989C16.7176 6.44309 19.1087 4.32051 21.8181 2.5286V2.5291ZM29.9755 44.5945C39.9018 45.5147 46.7388 36.1269 47.8483 26.8357C49.1706 15.7626 42.7537 1.87079 30.4153 2.52809C30.3047 2.53416 30.1455 2.46185 30.172 2.6282C33.2353 4.3109 35.9152 7.00837 37.7795 10.0203C44.4288 20.7622 42.1341 35.8013 31.9714 43.2627L29.9755 44.595V44.5945ZM36.0671 32.3596C38.6724 24.8815 37.8788 16.0513 33.2987 9.57489C31.4599 6.975 28.9028 4.67697 25.9363 3.5909C10.7489 10.5517 10.7272 36.7281 26.0027 43.5838C29.2984 42.2924 32.1705 39.5419 34.0456 36.4975C34.391 35.9368 35.2057 34.5964 35.3791 34.0266C35.3949 33.975 35.4062 33.8617 35.332 33.8774C34.906 34.3178 34.388 34.6267 33.8343 34.8644C29.9951 36.5102 22.3768 35.8923 18.7706 33.7272C15.7565 31.9176 16.7024 29.7592 19.6064 28.7181L22.6043 27.9597C22.6603 27.7549 22.2623 27.7326 22.1513 27.7205C21.6221 27.6614 21.0756 27.7569 20.5499 27.5987C20.4968 27.0126 20.3602 26.3159 20.4373 25.7309C20.4816 25.3947 20.7199 25.3335 20.7391 25.1287C20.7666 24.8329 20.5366 24.1488 20.5381 23.8121C20.54 23.3641 20.9381 23.2878 20.7346 22.5025C20.6437 22.1506 19.8816 22.0475 19.6492 21.3947C19.2944 20.3981 19.8639 19.8364 20.6236 19.3495C20.8024 18.7918 20.4064 17.6759 20.5897 17.2916C20.6884 17.0848 21.1744 16.9554 21.2742 16.7835C21.4059 16.5575 21.3572 15.8355 21.5164 15.7187L22.2107 15.6747C22.1616 15.2788 22.481 14.7448 22.2102 14.4116C22.1395 14.3242 20.4516 13.2184 20.345 13.188C19.9961 13.0874 19.8246 13.4515 19.5578 13.3053C19.3234 13.1769 19.2379 12.7208 19.3367 12.4711C19.4168 12.2683 20.0777 11.0847 20.2039 10.9304C20.3066 10.8051 21.3562 10.0213 21.4584 10.0304C21.8643 10.0663 21.9257 10.5573 22.0849 10.7262C22.1645 10.8111 23.135 11.4831 23.25 11.523C24.39 11.9174 26.1511 11.4613 27.3697 11.4219C27.5073 11.4174 27.7048 11.3992 27.8173 11.4755L28.2232 12.9276C28.6478 13.0247 29.1465 13.1248 29.2669 13.6244C29.3038 13.7766 29.2546 14.0936 29.2979 14.1477C29.3411 14.2018 29.7676 14.1538 29.8595 14.4283L29.9239 15.1761L29.1804 15.6393C29.2522 16.113 29.374 16.7749 29.2875 17.2436C29.2502 17.4448 28.1844 18.1931 27.9338 18.2776C27.3314 18.4813 25.3826 18.4262 25.0799 18.6275C25.0322 18.6593 24.6411 19.5608 24.7109 19.7221L25.6612 22.136C26.4233 21.9878 26.5118 22.7144 26.8498 23.2382L32.1361 23.0567C32.2009 22.7164 31.6815 22.7877 31.4506 22.7007C30.4172 22.3129 28.8035 21.5338 29.232 20.119C29.3259 19.8086 31.2162 18.0946 31.5179 18.0228C31.7002 17.9793 31.8933 17.9863 32.0781 18.0096C32.4446 18.0556 33.5439 18.8707 33.792 19.1796C34.4539 20.0043 34.5463 21.2597 34.3905 22.2927C34.3468 22.5819 34.0726 22.8893 34.1188 23.1876C34.2008 23.717 35.2892 24.3824 35.0863 25.2111C35.0494 25.3613 33.0977 26.4494 32.854 26.728C32.4294 27.2139 32.312 28.4041 31.9518 28.9749C31.9651 29.1833 34.9526 30.1788 35.4637 31.0101C35.5423 31.1385 35.9393 32.4627 36.0661 32.3606L36.0671 32.3596ZM20.9675 11.2596C21.0255 11.1903 22.1021 10.4516 21.5705 10.3146C21.3567 10.2595 20.5538 10.934 20.3985 11.1297C20.2772 11.2824 19.5642 12.5813 19.5563 12.6996C19.5357 13.0126 19.744 13.1901 19.9809 12.9216C20.3523 12.5004 20.6025 11.697 20.9671 11.2601L20.9675 11.2596ZM21.7705 10.8207C21.7356 10.849 20.8609 11.6494 21.2776 11.6272L22.0127 10.9719L21.7705 10.8207ZM22.8987 11.5301L22.2604 11.1534L21.5248 11.7814L22.1616 12.334C22.2623 12.1642 23.0397 11.742 22.8982 11.5301H22.8987ZM27.3215 11.6302C26.1162 11.9528 24.6052 11.4366 23.8819 12.7406L26.3678 12.6197L27.3215 11.6302ZM20.944 11.7086L20.2973 12.8882L20.5032 13.008L21.1498 11.8284L20.944 11.7086ZM24.1767 11.9336C23.4446 11.702 22.821 11.7344 22.5065 12.5388L23.4195 12.7269L24.1767 11.9336ZM27.7137 11.7303L26.5481 12.8134C26.5122 12.957 26.868 13.8276 26.9795 13.8544L27.9952 12.9716L27.7137 11.7303ZM21.3282 11.9326L20.7504 13.0116L21.2786 13.5394L21.9179 12.5879L21.3287 11.9321L21.3282 11.9326ZM22.2726 12.6581C21.7336 13.2462 21.2309 13.772 22.2481 14.1492L23.192 12.9939L22.2726 12.6576V12.6581ZM27.0267 14.9653L26.1771 12.8518C25.9108 12.8022 25.673 12.9398 25.4091 12.9479C24.6494 12.9716 23.6564 12.6814 23.1945 13.3999L23.963 13.5177C24.7354 13.7847 24.9737 14.5441 24.5693 15.2681L27.0262 14.9648L27.0267 14.9653ZM28.2714 13.1713C28.1633 13.189 27.1186 14.0486 27.0729 14.1558L27.3176 14.8232C27.5751 14.7342 28.8591 14.399 28.947 14.2625C29.2487 13.7958 28.8217 13.0819 28.2714 13.1713ZM23.2642 13.774C22.0117 14.0633 22.8972 16.0766 24.1148 15.256C24.9546 14.6897 24.306 13.5334 23.2642 13.774ZM29.6693 14.4718C29.3819 14.1346 27.4419 15.1377 26.954 15.2459C26.1103 15.4325 25.047 15.4572 24.1767 15.574L24.3767 16.7825C24.4917 16.8947 27.1559 16.3193 27.4891 16.201C28.1751 15.9578 28.9259 15.3622 29.6634 15.1529L29.6689 14.4718H29.6693ZM22.8991 15.572L22.507 15.1685V15.5725H22.8991V15.572ZM23.9797 15.6747L21.6211 15.8759L21.5528 16.8239L23.9335 23.2589L25.559 22.2912C25.5772 22.0146 24.5693 20.2434 24.4892 19.7434C24.4141 19.2752 24.7919 18.9688 24.8489 18.632C24.9276 18.1643 24.3138 17.6901 24.274 17.191C23.9905 17.1849 23.7669 18.1618 23.4893 17.8979C23.3586 17.7735 23.9969 17.0039 24.16 16.9296L23.9797 15.6742V15.6747ZM28.9917 15.7758C28.9441 15.7202 27.7692 16.3021 27.7245 16.4498L28.0105 17.8984L29.0694 17.2719L28.9917 15.7758ZM27.4154 16.4857L25.6514 16.787L25.8484 18.3039L27.7156 18.1016L27.4154 16.4857ZM25.3555 16.8871L24.473 17.1394C24.8362 17.5824 24.8081 18.4717 25.5526 18.3034L25.3555 16.8871ZM21.4235 17.0899L20.8314 17.3599L20.9331 19.3151C21.457 19.2236 21.8402 19.4693 22.3095 19.617L21.424 17.0899H21.4235ZM32.71 18.5223C32.4024 18.4181 32.0486 18.1557 31.7179 18.2179C31.6113 18.2381 30.716 18.8757 30.685 18.9308C30.5032 19.2509 30.8344 20.0897 31.1032 20.3279C31.482 20.6631 32.3498 20.7324 32.821 20.9316C33.3547 20.0685 32.8697 20.2748 32.7468 19.8506C32.6387 19.4774 32.7994 18.9202 32.7105 18.5223H32.71ZM32.6142 21.149C31.9597 20.8557 31.0865 20.8355 30.6791 20.1575C30.5042 19.8662 30.515 19.5674 30.3189 19.3166C28.9598 20.2803 29.1613 21.1616 30.4988 21.961C31.6702 22.6613 32.7783 23.127 32.6147 21.1485L32.6142 21.149ZM22.2761 21.7072C23.5316 20.427 21.2516 18.6598 20.1042 20.0285C18.9809 21.3689 21.0594 22.9475 22.2761 21.7072ZM23.5871 23.1563L22.8982 21.2365C22.7355 21.2779 22.7355 21.5317 22.6053 21.6915C22.1798 22.2138 21.7022 22.414 21.0319 22.3478L21.0432 22.8428L23.5876 23.1563H23.5871ZM25.9978 22.3802C25.2926 22.6077 24.6942 23.0946 24.0844 23.5097L24.9177 24.8764L26.7137 23.4111L25.9978 22.3797V22.3802ZM33.6102 22.3488C33.2407 22.0773 32.626 23.8252 33.4662 23.3621C33.3768 22.991 33.7104 22.8246 33.7149 22.7907C33.7217 22.7361 33.6279 22.3625 33.6097 22.3493L33.6102 22.3488ZM22.5056 23.2594L21.0983 23.1538L20.9336 23.4597H21.4732L22.5056 23.2594ZM32.137 23.2584L26.9058 23.5891C25.6823 24.525 24.7993 25.8007 23.0633 25.4786L22.9173 25.8224C23.8264 26.5945 25.3398 26.1258 26.2955 25.5903L31.4968 25.3805C31.6285 25.3901 32.137 24.7722 32.137 24.7247V23.2584ZM23.8824 25.2814L23.6917 23.6058L20.8354 23.6624L20.9906 25.0903L23.8824 25.2814ZM24.6676 25.0776L23.9807 23.8662L24.1797 25.1783L24.6676 25.0776ZM20.8845 27.5056H22.6043L22.7031 25.4826L20.8349 25.4321C20.715 25.5013 20.6658 25.6045 20.6408 25.7395C20.6108 25.9028 20.7017 27.0465 20.7366 27.2533C20.7558 27.3666 20.7882 27.4419 20.8845 27.5056ZM31.4334 25.7021L26.7825 25.7885C26.0504 25.8083 25.6312 26.3174 24.9123 26.3922C24.2642 26.46 23.5409 26.3771 22.8991 26.2921C22.9886 26.8625 22.6151 27.5607 23.2701 27.7807C23.8121 27.9627 24.8391 27.9612 25.3777 27.7807C25.6656 27.6841 25.9363 27.3671 26.2955 27.3094C27.9279 27.047 30.171 27.3772 31.767 27.0733C31.8398 27.0597 32.055 27.0061 32.0378 26.9505L31.4334 25.7016V25.7021ZM32.2348 27.3039L27.7151 27.5557L28.0817 28.213L31.7867 28.9269L32.2348 27.3039ZM27.7146 28.1113C27.4753 27.2204 26.9314 27.5304 26.2405 27.6078C26.327 28.3323 27.1766 28.0633 27.7146 28.1113ZM25.5526 28.0112C24.786 28.1493 23.9586 28.1877 23.194 28.0112V29.6292C22.6864 29.5417 22.3744 30.1202 22.4014 30.5818C22.764 30.7785 23.2967 30.6855 23.2937 31.2472C24.1581 30.7487 24.7256 30.3244 25.0116 31.6512C25.4651 31.1365 26.1462 30.9883 26.7796 30.8427L26.8316 31.097C26.4833 31.1754 26.1422 31.2133 25.8091 31.3594C25.5236 31.4848 24.9963 32.0152 24.8946 32.04C24.761 32.0729 23.3463 31.7503 23.2436 31.6512C23.1139 31.5258 23.076 31.1663 22.9478 31.0455C22.7463 30.8543 22.4294 31.0045 22.2299 30.6698C22.0132 30.3062 22.2574 30.0555 22.4073 29.7314C21.7307 29.6813 18.7662 30.2516 18.6178 30.9352C18.4394 31.7553 21.6402 32.7266 22.2471 32.8783C22.7404 33.0017 23.5291 33.21 24.0121 33.2312C24.275 33.2429 25.7049 33.1999 25.8759 33.1478C26.1683 33.0583 26.3894 32.4248 26.7796 32.4511L29.5809 32.8647L29.3848 32.0562H31.0064C31.2521 32.0562 31.6697 31.6684 31.455 31.32C31.3833 31.2037 29.9204 30.2152 29.719 30.1449C29.6227 30.1116 29.1126 30.0099 29.0905 30.0342V31.2477L27.8105 31.0975L27.8596 30.8462L28.2045 30.9438L28.206 30.5403H27.8114C27.8881 29.9543 27.8016 29.8557 27.2488 29.7541C27.0626 29.7197 26.3452 29.6237 26.1958 29.6333C25.8784 29.653 25.7619 29.9811 25.501 30.0322C24.8234 30.1647 24.2092 29.7263 23.6382 30.237C23.5237 30.1166 23.4338 30.1262 23.5895 29.9867C24.2214 29.4209 25.3781 30.0782 25.6096 29.7319C25.6685 29.6596 25.5526 29.6044 25.5526 29.5792V28.0117V28.0112ZM29.6797 33.3703C29.7583 32.7666 29.0772 33.0108 28.6605 32.9537C28.2896 32.9026 26.9815 32.5709 26.7766 32.6022C26.6081 32.628 26.2739 33.1883 26.0189 33.2944C25.8489 33.3652 25.3551 33.3617 25.3551 33.4213L28.5004 33.572L26.7594 33.1923L26.6837 32.9648C27.6488 33.2636 28.6679 33.3966 29.6797 33.3703Z" fill="white"/>
<path d="M44.7146 72H8.451C6.69039 71.5419 5.19611 70.3451 4.91406 68.4091L4.9234 52.8482C5.26294 50.7423 6.97736 49.4221 8.98758 49.2436C20.9895 49.3513 33.0321 49.0454 45.01 49.3978C46.7219 49.8306 48.114 51.2843 48.2555 53.1369C48.6294 58.0252 47.9911 63.4403 48.2245 68.3818C47.9572 70.3486 46.4895 71.5151 44.7141 72H44.7146ZM9.01903 50.5901C7.6471 50.7589 6.46387 51.665 6.28992 53.1414V68.1052C6.45994 69.6064 7.67118 70.5549 9.08586 70.6889H43.9805C45.5559 70.5615 46.7519 69.577 46.8796 67.908C47.2403 63.1971 46.603 58.0039 46.8752 53.2425C46.7091 51.5133 45.2724 50.6229 43.6867 50.5572L9.01805 50.5901H9.01903Z" fill="white"/>
<path d="M187.018 20.1237H173.161C172.815 18.4996 171.716 16.8639 170.142 16.3032C170.013 16.2572 169.452 16.0787 169.378 16.0787H150.558V42.7753H167.412C168.733 42.7753 170.508 40.2402 170.508 38.9832V35.3428L170.361 35.1911H155.865V22.6517L178.03 22.6477C181.272 23.033 187.018 25.0165 187.018 29.1742V57.2866L186.871 57.4383H142.45C139.841 57.4383 136.569 54.3995 136.309 51.7238L136.305 8.13697C136.838 4.32259 139.451 1.67871 143.233 1.41174L179.892 1.4173C183.381 1.57607 187.018 5.61292 187.018 9.15174V20.1237Z" fill="white"/>
<path d="M111.542 57.4382H99.1592L96.2473 47.9457L74.2572 47.9265L71.0033 57.4382H58.0801L76.4193 1.40967L96.1633 1.51534L111.542 57.4382ZM91.1006 33.7753L85.2051 16.8876L79.5041 33.7753H91.1006Z" fill="white"/>
<path d="M129.527 1.41577H115.277V57.4382H129.527V1.41577Z" fill="white"/>
<path d="M21.2336 21.1146C21.3766 21.1146 21.4925 20.9953 21.4925 20.8481C21.4925 20.701 21.3766 20.5817 21.2336 20.5817C21.0905 20.5817 20.9746 20.701 20.9746 20.8481C20.9746 20.9953 21.0905 21.1146 21.2336 21.1146Z" fill="white"/>
<path d="M23.7819 14.3601V14.7636C23.1303 14.8364 23.1244 14.2893 23.7819 14.3601Z" fill="white"/>
<path d="M22.7505 52.0786L25.8461 56.9325V52.2303L25.9935 52.0786H27.4185V59.2584H25.797L22.603 54.3033V59.2584H21.1289V52.0786H22.7505Z" fill="white"/>
<path d="M39.1144 65.1251C41.215 66.6126 40.3472 69.2378 37.884 69.4703C36.0428 69.6443 34.2576 68.8363 34.6374 66.6353C34.7745 65.8405 35.2635 65.7171 35.6757 65.1751C34.4792 64.4384 34.5716 62.9221 35.6811 62.147C36.7907 61.3719 39.25 61.5119 39.8524 62.8983C40.1905 63.6765 40.0318 64.8667 39.1149 65.1251H39.1144ZM37.2231 62.9206C36.1617 63.0783 36.144 64.4925 37.0216 64.6973C38.9286 65.1423 38.8687 62.6764 37.2231 62.9206ZM37.0236 65.9563C35.9067 66.1919 35.943 68.2382 37.3946 68.2665C39.1085 68.2998 39.0534 65.528 37.0236 65.9563Z" fill="white"/>
<path d="M44.0281 52.0786V53.3932H39.9988V54.9101H43.7333V56.1236H39.9988V57.9438H44.2247V59.2584H38.4755L38.3281 59.1067V52.2303L38.4755 52.0786H44.0281Z" fill="white"/>
<path d="M20.1464 67.5506H21.8171C21.8633 67.5506 21.7984 68.1002 22.3783 68.2367C23.6426 68.5345 24.0249 67.2766 24.0765 66.236C22.5335 67.499 19.9243 66.552 19.9474 64.3703C19.9798 61.2835 24.2656 60.6454 25.3727 63.3363C26.0149 64.8971 25.8695 67.8054 24.473 68.9183C23.1197 69.9973 20.3361 69.6019 20.1464 67.5506ZM21.9498 65.2905C22.4687 65.8305 23.7895 65.5924 23.9566 64.7465C24.4671 62.1632 20.9695 62.3665 21.7257 64.8648C21.7685 65.0068 21.849 65.1858 21.9503 65.2905H21.9498Z" fill="white"/>
<path d="M15.1349 54.2022H13.5625C13.4657 52.8356 10.3366 52.7314 10.6118 54.2518C10.6619 54.5274 11.0771 54.6563 11.3213 54.7382C12.9645 55.2883 15.7482 55.0026 15.3074 57.6667C14.8887 60.1999 8.72638 60.1518 8.94308 57.0337H10.5155C10.3469 58.5602 13.5512 58.5354 13.7355 57.5712C13.8269 57.0918 13.7915 56.8881 13.3665 56.6793C12.0835 56.0493 9.37942 56.4568 9.06543 54.5329C8.51214 51.1458 14.9698 50.9461 15.1349 54.2027V54.2022Z" fill="white"/>
<path d="M36.1645 54.5056H34.6413C34.2408 53.6693 33.9386 53.2866 32.9706 53.2866C30.4287 53.2866 30.5451 57.7229 32.403 58.1233C33.5175 58.3635 34.2295 57.8589 34.6413 56.8315H36.1645C35.8864 59.7651 31.6414 60.3667 30.0715 58.1966C29.0125 56.7329 29.129 53.9206 30.5712 52.7451C32.3249 51.3152 35.9857 51.8445 36.164 54.5056H36.1645Z" fill="white"/>
<path d="M30.0729 69.2696H28.4022C28.4917 66.9393 29.7805 64.8738 31.2522 63.2022H27.3703C27.1497 63.0576 27.1748 62.0155 27.2657 61.8811L27.3841 61.8007L33.0767 61.8811C33.4393 63.0328 32.5617 63.4373 31.9971 64.2216C30.9367 65.6949 30.1776 67.4095 30.0729 69.2696Z" fill="white"/>
<path d="M16.7059 61.6854V69.2697H15.0352V64.1124H13.168V62.9995C13.7694 63.0364 14.6681 63.0182 15.0804 62.4904C15.2396 62.2866 15.3133 61.7613 15.4907 61.6991L16.7059 61.6854Z" fill="white"/>
<path d="M18.7697 52.0786H17.1973V59.2584H18.7697V52.0786Z" fill="white"/>
</g>
<defs>
<clipPath id="clip0_33_2774">
<rect width="240.48" height="72" fill="white"/>
</clipPath>
</defs>
</svg>
