<svg width="195" height="64" viewBox="0 0 195 64" fill="none" xmlns="http://www.w3.org/2000/svg">
<g clip-path="url(#clip0_143_5676)">
<path fill-rule="evenodd" clip-rule="evenodd" d="M191.123 17.5032C189.255 17.5032 187.539 16.0378 187.539 13.9212C187.539 11.8045 189.197 10.3391 191.123 10.3391C193.049 10.3391 194.73 11.8975 194.73 13.9328C194.73 15.8401 193.212 17.5032 191.123 17.5032ZM191.123 10.6531C189.348 10.6531 187.854 12.0836 187.854 13.9212C187.854 15.7587 189.325 17.1892 191.134 17.1892C193.025 17.1892 194.415 15.6773 194.415 13.9328C194.415 12.1883 193.014 10.6648 191.134 10.6648L191.123 10.6531ZM191.088 11.63C191.555 11.63 191.881 11.63 192.15 11.7347C192.64 11.9092 192.874 12.3627 192.874 12.7814C192.874 13.0954 192.757 13.642 191.952 13.8514C192.383 14.0375 192.512 14.2933 192.594 14.805C192.687 15.4331 192.734 15.7471 192.932 16.1541H192.01C191.881 15.8866 191.858 15.7238 191.765 15.1656C191.613 14.2119 191.555 14.1189 190.411 14.1189V16.1541H189.605V11.63H191.088ZM190.422 13.4676H191.088C191.426 13.4676 192.057 13.4676 192.057 12.8396C192.057 12.6535 191.975 12.4209 191.73 12.3046C191.566 12.2464 191.426 12.2464 190.936 12.2464H190.422V13.4676Z" fill="black"/>
<path fill-rule="evenodd" clip-rule="evenodd" d="M182.218 51.7304C181.996 51.1024 181.739 50.2767 181.739 50.2767L177.362 38.7048C177.257 38.449 177.07 38.321 176.813 38.321H164.603C164.381 38.321 164.218 38.4606 164.113 38.7513L161.159 46.5551C160.611 47.9042 160.342 49.009 160.342 49.8813C160.342 50.4279 160.506 50.8466 160.832 51.1373C161.159 51.4281 161.731 51.5676 162.537 51.5676H163.354C163.902 51.5676 164.171 51.7188 164.171 52.0096C164.171 52.3701 163.856 52.5562 163.237 52.5562C162.548 52.5562 161.556 52.5329 160.284 52.498C158.86 52.4282 157.914 52.3933 157.436 52.3933C157.331 52.3933 156.922 52.4166 156.233 52.4515C155.685 52.4515 154.914 52.4748 153.91 52.5097C152.906 52.5445 151.926 52.5678 150.98 52.5678C150.292 52.5678 149.941 52.3817 149.941 52.0212C149.941 51.7304 150.163 51.5792 150.595 51.5792C151.144 51.5792 151.716 51.5444 152.299 51.4746C153.467 51.335 154.377 50.8698 155.043 50.079C155.696 49.2998 156.338 48.1251 156.957 46.5551L170.708 12.2814C171.035 11.4441 171.315 10.8742 171.525 10.5602C171.747 10.2462 171.98 10.095 172.237 10.095C172.646 10.095 173.101 10.6765 173.603 11.8395C173.86 12.3861 174.408 13.7119 175.249 15.8286L178.541 24.0743L183.77 37.0417L185.218 40.647L187.19 45.427C188.101 47.6134 188.941 49.1021 189.712 49.9045C190.482 50.707 191.253 51.1955 192.011 51.3815C192.747 51.5211 193.506 51.6025 194.311 51.6025C194.79 51.6025 195.023 51.7537 195.023 52.0444C195.023 52.2654 194.86 52.405 194.533 52.4748C194.206 52.5445 193.529 52.5794 192.502 52.5794L187.272 52.4631C185.72 52.4631 184.167 52.5794 182.976 52.5794C182.638 52.5794 182.463 52.3701 182.241 51.7537M165.688 35.588H175.762C175.949 35.588 176.031 35.4833 176.031 35.2623L171.105 21.7831V21.725C171.035 21.4342 170.941 21.283 170.836 21.283C170.685 21.283 170.58 21.4459 170.51 21.7715L165.467 35.1926C165.467 35.4484 165.537 35.5763 165.688 35.5763" fill="black"/>
<path fill-rule="evenodd" clip-rule="evenodd" d="M115.132 31.7967C115.132 31.9246 115.109 35.6346 115.109 35.6346C115.074 36.7278 115.05 39.6702 115.05 42.9383V48.9277C115.05 49.6488 115.015 50.114 114.945 50.3117C114.875 50.5094 114.677 50.7071 114.35 50.8816C112.716 51.7189 110.708 52.3353 108.338 52.7307C105.969 53.1262 103.587 53.3239 101.183 53.3239C97.7274 53.3239 94.4823 52.9052 91.4589 52.0678C88.4356 51.2305 85.7624 49.9395 83.4278 48.2067C81.0932 46.4622 79.2605 44.2292 77.9414 41.5078C76.6107 38.7863 75.9453 35.6113 75.9453 31.9828C75.9453 27.9239 76.8441 24.3419 78.6535 21.2599C80.4511 18.1779 82.7274 15.817 85.4589 14.1888C87.8286 12.77 90.1749 11.828 92.5095 11.3628C94.8441 10.8859 97.3889 10.6533 100.155 10.6533C101.066 10.6533 102 10.6766 102.945 10.7347C103.891 10.7929 104.871 10.8743 105.899 10.979C106.914 11.0836 107.755 11.1883 108.408 11.2813C109.062 11.3744 109.541 11.4558 109.832 11.5256C110.556 11.6651 111.327 11.8047 112.132 11.9094C112.938 12.014 113.603 12.0954 114.152 12.1303C114.665 12.1652 114.91 12.3862 114.91 12.7816C114.91 12.8863 114.899 13.084 114.852 13.3747C114.782 14.1772 114.712 15.1774 114.63 16.3986C114.548 17.6197 114.525 19.3875 114.525 21.7018C114.525 22.4694 114.327 22.8416 113.918 22.8416C113.626 22.8416 113.451 22.609 113.369 22.1322C113.264 21.2599 113.078 20.4574 112.821 19.7131C112.564 18.9688 112.132 18.271 111.513 17.6197C110.533 16.573 108.957 15.5961 106.786 14.7122C104.615 13.8167 102.128 13.3747 99.3266 13.3747C97.3189 13.3747 95.4511 13.5841 93.7002 14.0028C91.9492 14.4214 90.2216 15.3402 88.5056 16.7475C86.9064 18.0849 85.6691 19.841 84.7936 22.0042C83.9181 24.1674 83.4862 26.8539 83.4862 30.0871C83.4862 32.9946 83.9297 35.6928 84.8286 38.1932C85.7274 40.6937 86.9998 42.8685 88.6807 44.7293C90.3617 46.5785 92.3694 48.0089 94.7157 49.0324C97.062 50.0442 99.6652 50.5559 102.502 50.5559C103.517 50.5559 104.404 50.521 105.152 50.4513C105.899 50.3815 106.564 50.2186 107.148 49.9628C107.836 49.6371 108.187 48.9626 108.187 47.9508V42.8336C108.187 39.6353 108.163 36.7278 108.128 35.6346C108.093 34.6926 107.906 33.9831 107.58 33.5179C107.253 33.0411 106.646 32.7155 105.77 32.541C105.338 32.4363 104.626 32.3782 103.634 32.3782C103.085 32.3782 102.817 32.2386 102.817 31.9479C102.817 31.5874 103.202 31.4013 103.961 31.4013C104.941 31.4013 106.599 31.4362 108.934 31.5059C110.533 31.5408 111.525 31.5641 111.887 31.5641C112.296 31.5641 113.264 31.5292 114.747 31.4711C115.062 31.4711 115.132 31.6804 115.132 31.82M132.257 36.786V18.8176C132.257 17.6197 132.222 16.573 132.152 15.6542C132.046 13.8748 131.416 12.863 130.296 12.6072C129.747 12.4676 129.093 12.3862 128.334 12.3862C127.751 12.3862 127.459 12.2001 127.459 11.8396C127.459 11.5488 127.891 11.4093 128.766 11.4093C129.455 11.4093 130.786 11.4442 132.759 11.5139C134.288 11.5488 135.327 11.5721 135.875 11.5721C136.307 11.5721 137.206 11.5605 138.548 11.5139C140.439 11.4442 141.77 11.4093 142.541 11.4093C143.311 11.4093 143.685 11.5488 143.685 11.8396C143.685 12.2001 143.393 12.3862 142.809 12.3862C142.377 12.3862 141.829 12.4443 141.175 12.549C140.451 12.6886 139.949 13.0026 139.669 13.4794C139.401 13.9446 139.225 14.6773 139.155 15.6542C139.085 16.5614 139.05 17.6197 139.05 18.8176V36.786C139.05 40.1587 139.05 42.7289 139.085 44.4851C139.097 46.2412 139.167 47.6484 139.272 48.7067C139.377 49.5441 139.576 50.1721 139.867 50.5792C140.159 50.9979 140.685 51.2537 141.455 51.37C141.852 51.4049 142.307 51.4514 142.821 51.5096C143.334 51.5677 143.801 51.591 144.245 51.591C144.829 51.591 145.12 51.7306 145.12 52.0213C145.12 52.3818 144.77 52.5679 144.082 52.5679C142.552 52.5679 140.545 52.533 138.07 52.4516C136.903 52.4167 136.062 52.3935 135.56 52.3935C135.268 52.3935 134.416 52.4167 132.992 52.4516C130.879 52.5214 129.443 52.5679 128.673 52.5679C127.903 52.5679 127.576 52.3818 127.576 52.0213C127.576 51.7306 127.868 51.591 128.451 51.591C129.105 51.591 129.759 51.5212 130.424 51.37C131.299 51.1839 131.825 50.2768 132.011 48.6486C132.117 47.6019 132.198 46.183 132.233 44.4269C132.268 42.6708 132.292 40.1122 132.292 36.7743" fill="black"/>
<path fill-rule="evenodd" clip-rule="evenodd" d="M43.4725 16.224L45.0367 15.3982L44.5697 15.0726L43.5542 15.6774L43.7643 14.5027L43.2974 14.1887L43.0522 15.9332L42.4219 16.8171L42.8538 17.1195L43.4725 16.224Z" fill="black"/>
<path fill-rule="evenodd" clip-rule="evenodd" d="M35.0793 12.8395L35.4528 12.9092L35.7797 14.0373L36.375 14.142L35.9781 12.9092C36.0482 12.8976 36.1065 12.8743 36.1766 12.8511C36.2466 12.8162 36.305 12.7813 36.3517 12.7348C36.41 12.6883 36.4567 12.6301 36.4917 12.5603C36.5268 12.4906 36.5618 12.4091 36.5735 12.3161C36.5968 12.1998 36.5968 12.0951 36.5735 11.9905C36.5501 11.8858 36.5151 11.7927 36.4451 11.7113C36.3867 11.6299 36.305 11.5485 36.2116 11.4904C36.1182 11.4322 36.0015 11.3857 35.8614 11.3624L34.8342 11.188L34.3789 13.8047L34.8925 13.8978L35.0793 12.8511V12.8395ZM35.2777 11.723L35.7563 11.8044C35.8731 11.8276 35.9548 11.8742 36.0131 11.9439C36.0715 12.0254 36.0949 12.1068 36.0715 12.2114C36.0482 12.3161 36.0015 12.3975 35.9314 12.444C35.8497 12.4906 35.7563 12.5138 35.6396 12.4906L35.1493 12.4091L35.2661 11.7113L35.2777 11.723Z" fill="black"/>
<path fill-rule="evenodd" clip-rule="evenodd" d="M47.0064 17.7475L45.7224 17.6777L45.6523 18.957L46.9364 19.0268L47.0064 17.7475Z" fill="black"/>
<path fill-rule="evenodd" clip-rule="evenodd" d="M13.7628 30.4823L13.2959 30.4707L13.2609 31.6918L12.6188 31.6802L12.6422 30.6335L12.1869 30.6102L12.1519 31.6569L11.5216 31.6453L11.5566 30.4125L11.1013 30.4009L11.043 32.1454L13.7044 32.2268L13.7628 30.4823Z" fill="black"/>
<path fill-rule="evenodd" clip-rule="evenodd" d="M34.2725 41.7402L34.0391 42.3683H38.0196L37.8912 41.7402H34.2725Z" fill="black"/>
<path fill-rule="evenodd" clip-rule="evenodd" d="M40.2482 15.561L41.1937 13.5839L41.8241 13.8746L42.0225 13.4559L40.2949 12.6418L40.0964 13.0605L40.7268 13.3513L39.7812 15.34L40.2482 15.561Z" fill="black"/>
<path fill-rule="evenodd" clip-rule="evenodd" d="M43.0156 46.8109L43.3075 47.1714L44.2647 46.3922L44.6732 46.8923L43.8561 47.5552L44.1479 47.9158L44.965 47.2529L45.3619 47.7297L44.4047 48.5089L44.6966 48.8694L46.0623 47.7646L44.3697 45.7061L43.0156 46.8109Z" fill="black"/>
<path fill-rule="evenodd" clip-rule="evenodd" d="M48.6289 23.8416L48.8624 24.3882L49.913 24.4929L49.2593 25.3302L49.4927 25.8768L50.4266 24.5859L51.9324 24.7952L51.6989 24.2486L50.7301 24.1556L51.3371 23.3996L51.1036 22.853L50.2048 24.0742L48.6289 23.8416Z" fill="black"/>
<path fill-rule="evenodd" clip-rule="evenodd" d="M44.779 22.7367L44.7556 22.6204H19.4015L19.3782 22.7367C19.3782 22.7367 18.5377 27.691 19.67 33.2735C20.7206 38.4372 23.7323 45.2524 32.0669 48.4274L32.1136 48.4506L32.172 48.4274C40.6233 45.1361 43.6 38.3209 44.6039 33.192C45.7011 27.6329 44.779 22.7948 44.7673 22.7483L44.779 22.7367ZM35.0436 32.564C35.0436 32.564 35.1486 32.5989 35.1603 32.6571C35.1603 32.7152 35.242 32.785 35.277 32.8548C35.3004 32.9013 35.3354 32.9129 35.3237 32.9478C35.3237 32.9711 35.2303 33.0525 35.1953 33.0641C35.172 33.0641 35.1369 33.0292 35.0669 33.0409C34.9969 33.0641 34.8451 33.0409 34.8101 33.0874C34.7867 33.1106 34.6817 33.1455 34.6233 33.1572C34.5766 32.9594 34.5299 32.7617 34.4832 32.564C34.6583 32.5408 34.8334 32.5175 35.0085 32.5059C35.0085 32.5291 35.0319 32.564 35.0436 32.5757V32.564ZM25.9035 32.785C25.9035 32.9827 25.5416 33.0757 25.705 33.2037C25.8451 33.32 25.7401 33.4363 25.6233 33.5758H24.9113C24.9113 33.3781 24.8879 33.1804 24.8879 32.9827C25.2031 32.8431 25.5416 32.7036 25.8918 32.5757C25.8918 32.6454 25.9152 32.7617 25.9152 32.785H25.9035ZM40.3081 32.9129C40.3198 32.9827 40.4015 33.0641 40.4132 33.1455C40.4366 33.3083 40.3899 33.4828 40.3782 33.5293C40.3782 33.5293 40.3782 33.5526 40.3782 33.5642H39.1642C39.1408 33.4363 39.1058 33.2967 39.0825 33.1688C39.0474 33.006 39.0008 32.8315 38.9657 32.6687C39.0474 32.6803 39.1992 32.7268 39.2225 32.785C39.2459 32.8315 39.1875 32.8897 39.2225 32.9129C39.2576 32.9362 39.3043 32.9594 39.3509 32.9827C39.3976 33.006 39.3509 33.0641 39.3976 33.0874C39.4677 33.1223 39.4677 33.0874 39.5377 33.1339C39.6778 33.2386 39.7128 32.9943 39.7478 32.9711C39.8412 32.9129 39.9113 33.0292 40.028 33.0292C40.098 33.0292 40.1914 32.8664 40.2848 32.7966C40.3198 32.7734 40.3432 32.7617 40.3665 32.7617C40.3899 32.7617 40.3315 32.8431 40.3432 32.9129H40.3081ZM28.1681 33.0757C28.0864 33.0292 27.9113 33.0757 27.8179 33.0525C27.8179 33.0525 27.6311 32.9594 27.5611 32.9246C27.5377 32.9129 27.5611 32.9013 27.5727 32.8897C27.5961 32.878 27.6311 32.8548 27.6428 32.8548C27.6545 32.8548 27.6078 32.7617 27.5844 32.7501C27.5611 32.7268 27.5377 32.692 27.5144 32.6571C27.491 32.6222 27.456 32.564 27.456 32.564C27.3976 32.4594 27.456 32.3896 27.3043 32.3779C27.2692 32.3779 27.1058 32.6454 26.9891 32.6454C26.9774 32.4826 26.9541 32.3314 26.9424 32.1802C27.8529 31.8779 28.1331 31.7964 28.9152 31.5755C28.9969 32.1221 29.1019 32.7036 29.2187 33.2851C28.9268 33.3665 28.635 33.4479 28.3432 33.5409C28.3665 33.4944 28.4015 33.413 28.4015 33.3898C28.4015 33.32 28.1914 33.099 28.1681 33.0874V33.0757ZM23.8724 31.9825C23.8724 31.9825 23.814 31.9825 23.7906 31.9825C23.7673 31.9825 23.7556 31.9942 23.7439 32.0058C23.7439 32.0174 23.7439 32.0756 23.7439 32.1105C23.7439 32.1453 23.6039 32.3663 23.5805 32.3896C23.5688 32.4012 23.4755 32.4128 23.4054 32.3896C23.4404 32.2035 23.4755 32.029 23.5222 31.8546C23.6039 31.8081 23.6856 31.7616 23.7673 31.715C23.919 31.7848 23.8724 31.9476 23.8724 31.9593V31.9825ZM23.6272 31.4824C23.7089 31.2149 23.8023 30.9591 23.9074 30.7032C23.9774 30.773 24.0825 30.8428 24.0591 30.9591C24.0358 31.0521 23.9657 31.0986 23.9424 31.1801C23.919 31.2498 23.9074 31.2847 23.8724 31.3429C23.7906 31.3894 23.7089 31.4359 23.6272 31.4708V31.4824ZM24.8529 30.0171C24.7712 30.0752 24.8295 30.0985 24.7011 30.1682C24.6895 30.1682 24.5144 30.4008 24.5494 30.459C24.5844 30.5171 24.4677 30.7846 24.5377 30.8195C24.6078 30.8544 24.491 30.9475 24.491 30.9707C24.491 30.9823 24.3276 30.9707 24.2926 30.9009C24.1992 30.7497 24.3276 30.6102 24.3159 30.5637C24.2809 30.4823 24.1525 30.4008 24.0708 30.3892C24.1058 30.3311 24.1292 30.2613 24.1642 30.2031C24.4443 30.0403 24.7478 29.8775 25.0864 29.7147C25.0513 29.8077 25.0163 29.9124 24.993 30.0054C24.958 30.0054 24.9229 29.9822 24.8762 30.0054L24.8529 30.0171ZM25.4482 29.5402C25.8101 29.3774 26.207 29.2262 26.6272 29.0634C26.6739 29.0518 26.7089 29.0401 26.7556 29.0169C26.6856 29.3774 26.6389 29.7728 26.6039 30.1799C26.5455 30.2031 26.4871 30.2264 26.4288 30.238C26.3704 30.1915 26.3587 30.0868 26.3354 30.0636C26.2887 30.0054 26.207 30.0403 26.1836 30.0287C26.1486 30.0054 26.1486 29.9473 26.1019 29.9473C26.0786 29.9473 25.9152 29.9008 25.8451 29.8542C25.7984 29.8193 25.5533 29.6914 25.5066 29.6914C25.4599 29.6914 25.4132 29.7147 25.3782 29.7379C25.4015 29.6798 25.4249 29.61 25.4482 29.5402ZM25.4366 32.4245C25.4366 32.4245 25.3548 32.4594 25.3198 32.471C25.3198 32.3198 25.3548 32.3779 25.3782 32.2733C25.3782 32.25 25.2498 32.2035 25.2031 32.1802C25.028 32.0523 25.098 31.8546 25.1447 31.7964C25.1914 31.7383 25.4949 31.4708 25.4015 31.4243C25.2148 31.3429 25.5533 30.9707 25.67 31.0172C25.7867 31.0638 25.9268 30.7846 26.0552 30.8312C26.1953 30.8777 26.1369 30.8893 26.172 30.9823C26.1953 31.0405 26.1486 31.1219 26.1369 31.1801C26.1253 31.2382 26.0202 31.2615 26.0436 31.3661C26.0669 31.4708 25.7634 31.8313 25.7401 31.8546C25.6817 31.8895 25.67 32.1221 25.8101 32.0523C25.9268 31.9942 25.9852 32.157 26.0085 32.1919C25.8101 32.2733 25.6116 32.3431 25.4132 32.4245H25.4366ZM27.6661 28.9355C27.6661 28.9355 27.7128 29.0401 27.7128 29.0867C27.7128 29.1332 27.7712 29.1681 27.7829 29.1681C27.8062 29.1681 27.8179 29.1564 27.8412 29.1448C27.9113 29.1215 27.9229 29.1681 28.0046 29.1681C28.0163 29.1681 28.063 29.1797 28.098 29.203C28.1447 29.2262 28.133 29.296 28.098 29.3309C28.0747 29.3658 28.0513 29.389 28.028 29.4007C27.8646 29.4356 27.7011 29.3309 27.7478 29.6449C27.7478 29.7147 27.7829 29.7728 27.8179 29.8077C27.526 29.8891 27.2926 29.9705 26.9074 30.0985C26.9424 29.6798 26.9891 29.2844 27.0708 28.9238C27.351 28.8308 27.5494 28.761 27.7362 28.7145C27.6895 28.7959 27.6428 28.8889 27.6545 28.9471L27.6661 28.9355ZM39.8646 31.936C39.7011 31.9011 39.6194 31.9825 39.526 32.0639C39.3393 32.0523 39.1408 32.029 38.9307 32.0174C38.9307 32.0174 38.9307 32.0174 38.9307 32.0058C39.0008 31.8197 38.9307 31.5987 39.0124 31.401C39.0358 31.3545 39.1292 31.2615 39.2109 31.2731C39.2459 31.2731 39.2576 31.3545 39.3159 31.3778C39.3393 31.3778 39.351 31.4359 39.3626 31.4824C39.3626 31.5057 39.421 31.4708 39.4677 31.4824C39.526 31.5057 39.6078 31.5638 39.6545 31.529C39.7362 31.4708 39.8179 31.401 39.8762 31.3778C39.8762 31.3778 39.8762 31.3778 39.8879 31.3778C39.958 31.5522 40.028 31.7383 40.098 31.9127C40.0163 31.9127 39.9113 31.9476 39.8529 31.936H39.8646ZM37.7517 32.9362C37.7517 32.9362 37.8101 32.9478 37.8685 32.9362C37.8918 32.9362 37.9035 32.8548 37.9035 32.8548C37.8451 32.8199 37.6934 32.7966 37.5766 32.7385C37.5533 32.7268 37.565 32.6803 37.5299 32.6687C37.4015 32.6222 37.2731 32.6105 37.2381 32.564C37.1681 32.4826 37.1914 32.3663 37.2965 32.3547C37.3782 32.3547 37.5883 32.4245 37.7284 32.471H37.9618C37.9969 32.5059 37.9852 32.7036 38.0436 32.7152C38.1486 32.7385 38.1603 32.8315 38.2187 32.9129C38.242 32.9478 38.312 32.9362 38.3587 32.9827C38.4288 33.0525 38.4988 33.192 38.5338 33.2386C38.6155 33.3549 38.7323 33.32 38.8023 33.2851C38.8257 33.3781 38.8373 33.4712 38.8607 33.5526H37.7634C37.7634 33.5526 37.7284 33.4595 37.7401 33.4246C37.7401 33.4014 37.7751 33.4014 37.7867 33.3781C37.8101 33.32 37.8568 33.2618 37.8685 33.1804C37.8685 33.1223 37.7634 32.9711 37.7751 32.9246L37.7517 32.9362ZM35.779 30.552C35.9307 30.7614 35.919 30.7614 35.7206 30.866C35.6389 30.9009 35.4404 31.0289 35.4404 31.1335C35.4404 31.2266 35.5455 31.2731 35.4171 31.3196C35.3587 31.3312 35.172 31.5057 35.1253 31.401C35.0902 31.3196 35.1603 31.2149 35.1253 31.1452C35.1019 31.1103 35.0319 31.1103 34.9969 31.1219C34.9852 31.1219 34.9618 31.1103 34.9618 31.087C34.8918 30.9126 34.4949 30.7614 34.3782 30.6683C34.3315 30.6334 34.3432 30.5869 34.3548 30.5404C34.9268 30.4706 35.2187 30.4474 35.814 30.4125V30.4357C35.814 30.4939 35.7556 30.5171 35.779 30.5637V30.552ZM31.2731 31.0172C31.4015 31.5406 31.5299 32.1105 31.67 32.7036C30.958 32.8431 30.2459 33.0176 29.5455 33.2037C29.4288 32.5989 29.3237 32.029 29.242 31.4941C29.919 31.3196 30.6078 31.1568 31.2731 31.0172ZM30.9229 27.2491C30.9229 27.2491 30.9463 27.1793 30.9463 27.1444C30.9463 27.0863 30.8646 27.0165 30.8412 26.9816C30.8412 26.9584 30.7945 26.9467 30.7478 26.9235C31.063 26.8653 31.3782 26.8188 31.6934 26.7723C31.8568 26.9467 32.0202 27.1677 32.172 27.4119C31.7401 27.4701 31.3081 27.5399 30.8762 27.6329C30.8529 27.5399 30.8179 27.4003 30.9113 27.2607L30.9229 27.2491ZM36.1525 28.4237C36.1875 28.3307 36.2342 28.2842 36.2109 28.1214C36.2109 28.1214 36.2459 28.0748 36.2692 28.04C36.386 28.1563 36.491 28.2842 36.5961 28.4237C36.4794 28.4237 36.3743 28.4237 36.2809 28.4237C36.2342 28.4237 36.1875 28.4237 36.1408 28.4237H36.1525ZM35.0319 29.0401C35.0319 29.0401 34.9035 29.1564 34.8801 29.2495C34.8101 29.4704 35.0786 29.703 35.0552 29.7147V29.7379C35.0786 29.7728 35.1136 29.8659 35.1603 29.9124C35.207 29.9589 35.2537 29.9705 35.2887 29.9705C35.2887 29.9705 35.312 29.9705 35.3237 29.9589C35.3237 29.9589 35.3471 29.9589 35.3704 29.9589C35.3937 29.9589 35.4171 29.9589 35.4638 29.9356C35.4988 29.9124 35.5338 29.8775 35.5688 29.8426C35.6039 29.924 35.6389 30.0054 35.6856 30.0985C35.0085 30.145 34.705 30.1799 34.1797 30.238C34.1681 30.1915 34.1214 30.1334 34.0747 30.0985C34.0513 30.0752 33.8762 30.1799 33.8179 30.238C33.6545 29.7728 33.491 29.3309 33.3159 28.9238C33.8996 28.8541 34.4599 28.7959 35.0085 28.761C35.0319 28.7959 35.0436 28.8192 35.0669 28.8541C34.9852 28.9587 35.0669 28.9587 35.0319 29.0401ZM29.1836 31.0172C29.3004 30.994 29.312 31.0754 29.4288 30.866C29.4755 30.7846 29.4288 30.7032 29.4521 30.5869C29.4638 30.4939 29.6155 30.1217 29.5222 30.0519C29.4171 29.9705 29.7439 29.7845 29.8257 29.7961C29.8957 29.7961 29.8957 29.7612 29.9074 29.7147C29.9074 29.7147 29.9307 29.5984 29.9424 29.5286C30.2459 29.4588 30.5611 29.389 30.8646 29.3309C30.9696 29.7496 31.0864 30.2148 31.2148 30.7149C30.2692 30.9126 30.0124 30.9823 29.207 31.1801C29.207 31.1219 29.1953 31.0638 29.1836 31.0056C29.1836 31.0056 29.1836 31.0056 29.1953 31.0056L29.1836 31.0172ZM31.028 28.1446C31.028 28.1446 31.063 28.0399 31.028 28.0167C31.0046 28.0051 30.958 27.9469 30.9229 27.9004C31.4015 27.8073 31.8685 27.7259 32.3354 27.6678C32.5105 27.9702 32.6856 28.3074 32.849 28.6796C32.2537 28.761 31.6583 28.8657 31.0747 28.982C31.028 28.7959 30.9696 28.6098 30.9229 28.4237C31.0046 28.3307 31.0747 28.2377 31.0163 28.1446H31.028ZM34.8334 28.4819C34.1214 28.54 33.8762 28.5633 33.1875 28.6447C33.0124 28.2725 32.849 27.9353 32.6739 27.6329C33.1759 27.5747 33.6544 27.5282 34.098 27.4933C34.3548 27.7725 34.6 28.1097 34.8334 28.4819ZM34.2264 27.2026C34.0046 26.97 33.7829 26.7723 33.5611 26.5978C33.8412 26.5978 34.1214 26.5862 34.3782 26.5978C34.705 26.7606 35.0202 26.9467 35.3237 27.1793C34.9735 27.1793 34.6116 27.1793 34.2264 27.2026ZM33.8412 27.2258C33.4093 27.2607 32.9541 27.3073 32.5105 27.3654C32.3587 27.1212 32.207 26.9118 32.0436 26.7258C32.4871 26.6676 32.6622 26.656 33.1058 26.6211C33.3509 26.7839 33.5961 26.9932 33.8412 27.2258ZM30.7829 29.0401C30.5727 29.0867 30.3626 29.1332 30.1525 29.1797C30.3043 28.7843 30.5494 28.761 30.6778 28.668C30.7128 28.7843 30.7478 28.9122 30.7829 29.0518V29.0401ZM31.7401 29.1681C31.6817 29.2378 31.5883 29.3193 31.5416 29.3425C31.5183 29.3541 31.4132 29.5635 31.4599 29.6333C31.5066 29.6914 31.5416 29.7728 31.6 29.8193C31.565 29.8542 31.8101 29.6914 31.7984 29.7612C31.7634 29.9124 31.9969 29.703 32.0085 29.6914C32.1486 29.5635 32.3004 29.389 32.4288 29.2727C32.4755 29.2378 32.3587 29.1448 32.2537 29.075C32.4638 29.0401 32.6856 29.0052 32.9891 28.9704C33.1642 29.389 33.3393 29.8426 33.5027 30.3311C32.8607 30.4241 32.1953 30.5288 31.5183 30.6567C31.4015 30.1682 31.2848 29.703 31.1681 29.2727C31.3899 29.2262 31.5766 29.1913 31.7284 29.1681H31.7401ZM36.491 29.7263C36.5611 29.6449 36.4327 29.5635 36.4093 29.5053C36.3976 29.4588 36.5961 29.2262 36.5144 29.1564C36.491 29.1332 36.2342 29.0169 36.2342 28.9936C36.2342 28.9936 36.2109 28.7959 36.1875 28.7261C36.3743 28.7261 36.526 28.7261 36.7128 28.7261C36.7128 28.761 36.7128 28.8075 36.6895 28.8541C36.6545 28.9936 36.9113 29.0052 36.9229 29.0052C36.9346 29.0052 36.9696 29.0052 37.0046 29.0052C37.0747 29.1099 37.1331 29.203 37.2031 29.3076C37.098 29.3425 37.028 29.6333 37.028 29.7147C37.028 30.0519 37.1447 29.831 37.1564 29.9473C37.1564 29.9822 37.1331 30.0287 37.098 30.0636C36.8179 30.0636 36.5377 30.0636 36.2576 30.0868C36.2809 29.9124 36.5377 29.9938 36.5494 29.831C36.5494 29.8077 36.421 29.7961 36.4677 29.7379L36.491 29.7263ZM37.7517 28.7843C37.7517 28.7843 37.7634 28.7843 37.7751 28.7959C37.7867 28.7959 37.9385 29.1332 37.9268 29.203C37.9035 29.2727 37.6583 29.2378 37.5299 29.2495C37.4482 29.1215 37.3665 28.9936 37.2848 28.8773C37.2848 28.8773 37.3081 28.8657 37.3198 28.8541C37.3782 28.8192 37.4599 28.7843 37.5299 28.7726C37.6 28.7726 37.67 28.7843 37.7517 28.7959V28.7843ZM36.8412 28.2609C36.7245 28.1097 36.5961 27.9702 36.4677 27.8306C36.5844 27.7259 36.8295 27.6096 36.8996 27.7143C36.9813 27.819 36.8295 28.1446 36.8412 28.2609ZM35.4755 27.598C35.4755 27.598 35.4755 27.7143 35.4988 27.7608C35.5688 27.9353 35.4638 27.819 35.4171 28.0516C35.3704 28.2726 35.5222 28.1563 35.3354 28.3423C35.312 28.3656 35.2887 28.4121 35.2653 28.4703C35.242 28.4703 35.207 28.4703 35.1836 28.4703C34.9618 28.1097 34.7167 27.7841 34.4716 27.4817C34.9618 27.4584 35.1486 27.4584 35.5338 27.4701C35.5688 27.5282 35.4871 27.5631 35.4755 27.6096V27.598ZM33.1875 26.342C33.0708 26.2722 32.9541 26.214 32.8373 26.1559C32.884 26.1559 32.9424 26.1559 32.9891 26.1559C33.2342 26.1908 33.4677 26.2489 33.7128 26.3187C33.5611 26.3187 33.4093 26.3187 33.1992 26.342H33.1875ZM31.8101 26.4699C31.6817 26.3536 31.6 26.2722 31.5183 26.214C31.7167 26.1908 31.9035 26.1791 32.0786 26.1675C32.277 26.214 32.4755 26.2838 32.6856 26.3769C32.4054 26.4001 32.1136 26.435 31.8218 26.4699H31.8101ZM33.5961 30.6218C33.6428 30.7614 33.6895 30.9009 33.7245 31.0405C33.6895 31.0521 33.6545 31.0638 33.6428 31.0754C33.5844 31.0754 33.6078 31.2847 33.6078 31.2964C33.5844 31.3429 33.6078 31.4127 33.6194 31.4708C33.6428 31.529 33.7128 31.4824 33.7245 31.5057C33.7829 31.5871 33.5844 31.8197 33.7478 31.8313C33.7829 31.8313 33.8529 31.8081 33.9113 31.7616C33.958 31.936 34.0046 32.1105 34.0513 32.2849C33.3509 32.3779 32.6506 32.4942 31.9618 32.6338C31.8101 31.9709 31.6817 31.4359 31.565 30.9475C32.2303 30.8195 32.9074 30.7032 33.5727 30.6102L33.5961 30.6218ZM34.4015 32.25C34.3198 31.9476 34.2498 31.6685 34.1681 31.3894C34.4716 31.2847 34.3665 31.6336 34.4949 31.529C34.5183 31.5057 34.67 31.6104 34.4949 31.6801C34.3899 31.7267 34.5299 31.8081 34.565 31.8313C34.67 31.9011 34.7984 31.4243 35.0669 31.6453C35.0903 31.6685 35.0669 31.6918 35.0436 31.7267C35.0202 31.7616 35.0319 31.7732 34.9852 31.8081C34.9268 31.843 34.9152 31.8546 34.8685 31.8662C34.8451 31.8662 34.8801 31.9942 34.8918 32.0058C34.9152 32.0639 34.7634 32.1686 34.67 32.2384C34.5766 32.2384 34.4949 32.2616 34.4132 32.2733L34.4015 32.25ZM36.993 33.2153C36.958 33.0409 36.9113 32.878 36.8762 32.7036C36.958 32.7966 37.0397 32.8664 37.1681 32.878C37.2264 32.878 37.2731 32.8897 37.3198 32.9013C37.3782 32.9013 37.4249 32.9711 37.4832 32.9943C37.5533 33.0176 37.6233 33.1223 37.6467 33.1804C37.6467 33.2037 37.6817 33.3432 37.6117 33.3781C37.5533 33.413 37.4482 33.413 37.3665 33.413C37.3198 33.413 37.2615 33.4479 37.2615 33.5293C37.2615 33.5526 37.2615 33.5642 37.2615 33.5758H37.063C37.0397 33.4595 37.0163 33.3316 36.9813 33.2153H36.993ZM40.2381 31.4475C40.4482 31.4824 40.9035 31.4475 41.0552 31.8081C41.1836 32.1105 40.6467 31.936 40.4249 31.9244C40.3665 31.7616 40.3081 31.5987 40.2381 31.4475ZM35.9307 26.97C35.9307 26.97 35.7673 26.9235 35.7323 26.9584C35.7323 26.9816 35.7089 27.0514 35.7206 27.063C35.7206 27.063 35.7089 27.063 35.6622 27.0979C35.3704 26.8769 35.207 26.7606 34.9969 26.6327C35.1486 26.6443 35.3004 26.6676 35.4404 26.6909C35.6039 26.7606 35.7556 26.8304 35.919 26.9118C35.9424 26.9351 35.9541 26.97 35.9307 26.9816V26.97ZM31.0747 26.2722C31.2031 26.3303 31.3198 26.4117 31.4482 26.5164C31.2264 26.5513 30.993 26.5862 30.7712 26.6327C30.7712 26.6327 30.7478 26.6327 30.7478 26.6095C30.7478 26.6095 30.7128 26.5746 30.6778 26.5746C30.6078 26.5746 30.526 26.5978 30.4794 26.5746C30.4327 26.5746 30.4443 26.5513 30.456 26.5164C30.4794 26.4583 30.6194 26.5164 30.6311 26.3652C30.6311 26.3536 30.6311 26.3303 30.6311 26.3187C30.7712 26.2954 30.9229 26.2722 31.063 26.2489L31.0747 26.2722ZM28.8801 31.2731C27.9463 31.5406 27.6895 31.622 26.9307 31.8662C26.9307 31.7964 26.9307 31.7267 26.919 31.6569C27.1292 31.6104 27.0825 31.4127 27.0825 31.401C27.0825 31.3429 27.1525 31.1684 27.1525 31.1684C27.3043 31.1452 27.2225 30.8312 27.3043 30.7614C27.386 30.7032 27.2926 30.5404 27.2225 30.5637C27.1642 30.5869 27.1175 30.6218 27.0941 30.6683C27.0708 30.7149 26.9891 30.6916 26.9891 30.6683C26.9891 30.6451 26.9541 30.5637 26.9074 30.5404C26.9074 30.4939 26.9074 30.4357 26.9074 30.3892C27.4677 30.2031 27.7595 30.1101 28.1097 30.0054C28.063 30.1101 28.0513 30.2613 28.0747 30.3311C28.0864 30.3892 28.1564 30.366 28.1797 30.4125C28.2031 30.4474 28.1797 30.5637 28.2031 30.5986C28.2381 30.6567 28.3198 30.7381 28.3198 30.7497C28.3899 30.8312 28.4366 30.9707 28.4949 30.9823C28.5299 30.9823 28.5883 30.994 28.6116 31.0289C28.6233 31.0521 28.7167 31.0521 28.7401 31.0754C28.7867 31.1219 28.8218 31.1452 28.8568 31.1335C28.8568 31.1801 28.8685 31.2266 28.8801 31.2615V31.2731ZM27.9696 28.3191C27.6895 28.4005 27.491 28.4703 27.1642 28.5749C27.1875 28.4819 27.2225 28.3889 27.2459 28.3074C27.7011 28.0516 27.9229 28.3191 27.9696 28.3191ZM26.3004 28.3772C26.4054 28.3772 26.5222 28.5284 26.5805 28.54C26.6506 28.54 26.7906 28.4121 26.9074 28.4005C26.8723 28.4935 26.849 28.5982 26.8257 28.7029L26.7673 28.7261C26.6973 28.7494 26.6272 28.7726 26.5572 28.8075C26.2187 28.9355 25.9035 29.0518 25.6117 29.1797C25.7634 28.8541 25.9502 28.5517 26.1486 28.2842C26.172 28.2842 26.1953 28.2725 26.207 28.2609C26.2303 28.3307 26.242 28.4005 26.3004 28.4005V28.3772ZM25.1097 28.7843C25.2731 28.6796 25.4599 28.5866 25.6583 28.4935C25.5416 28.668 25.4482 28.8541 25.3548 29.0518C25.3081 29.0052 25.2381 28.9587 25.2031 28.9587C25.1914 28.9587 25.1097 28.9238 25.0397 28.8889C25.063 28.8541 25.098 28.8192 25.1214 28.7959L25.1097 28.7843ZM24.7829 29.2378C24.7829 29.2378 25.1681 29.1797 25.1914 29.2262C25.1914 29.2378 25.2264 29.2611 25.2498 29.2611C25.2498 29.2844 25.2264 29.296 25.2264 29.3193C24.9463 29.4472 24.6661 29.5751 24.421 29.7147C24.5144 29.5635 24.6194 29.4123 24.7245 29.2611C24.7478 29.2611 24.7712 29.2378 24.7829 29.2262V29.2378ZM23.2303 30.8312C23.4521 30.6451 23.5455 30.5753 23.7089 30.4706C23.5338 30.8544 23.3821 31.2615 23.2653 31.6918C23.1603 31.7616 23.0786 31.8081 23.0085 31.8546C23.0202 31.8081 23.0319 31.7499 23.0085 31.7034C22.9852 31.6801 22.9268 31.5871 22.9035 31.4824C22.9852 31.3196 23.0902 31.1219 23.242 30.8428L23.2303 30.8312ZM24.5727 33.1223C24.5727 33.2735 24.5727 33.4247 24.5844 33.5758H24.0708C24.0708 33.5758 24.0241 33.4595 24.0241 33.3898C24.1992 33.2967 24.386 33.2153 24.5727 33.1223ZM29.6155 33.5758C29.6155 33.5758 29.6155 33.5409 29.6039 33.5177C30.3043 33.3316 31.0163 33.1688 31.7401 33.0176C31.7751 33.2037 31.8218 33.3898 31.8685 33.5758H29.6272H29.6155ZM32.1953 33.5758C32.1603 33.413 32.1253 33.2618 32.0902 33.099L32.0552 32.9478C33.0474 32.7617 33.3393 32.7152 34.1564 32.5989C34.2264 32.878 34.2965 33.1688 34.3665 33.4944C34.3665 33.5177 34.3782 33.541 34.3782 33.5758H32.1953ZM35.6739 33.5061C35.7439 33.4479 35.7323 33.3665 35.7906 33.2735C35.8373 33.2037 35.9541 33.1455 35.9541 33.0874C35.9541 33.0525 35.884 32.9711 35.884 32.9129C35.884 32.8548 35.9424 32.8199 35.9774 32.7966C36.0708 32.7385 36.2109 32.8199 36.2576 32.7734C36.3509 32.692 36.3976 32.5291 36.491 32.471C36.5611 32.7268 36.6194 32.9943 36.6778 33.2618C36.7011 33.3665 36.7245 33.4712 36.7478 33.5642H35.6389C35.6389 33.5642 35.6506 33.5177 35.6856 33.4944L35.6739 33.5061ZM31.3198 46.4503C26.1019 44.101 23.0319 40.5539 21.5727 35.1575H31.3198V46.4503ZM32.9074 46.4503V35.1692H42.5611C41.2537 39.4955 38.4871 43.8335 32.9074 46.4503ZM42.9813 33.5758H42.9463C41.5338 28.9355 37.2031 25.5395 32.0786 25.5395C26.9541 25.5395 22.6233 28.9238 21.2109 33.5758H21.1992C21.1992 33.5758 21.1992 33.5409 21.1992 33.5293C20.4171 29.61 20.5805 26.0047 20.7556 24.1323H43.4366C43.6817 26.3652 43.8101 29.8775 42.9813 33.5758ZM51.6428 26.2489C51.5494 26.2489 51.456 26.2722 51.3626 26.2954C51.2692 26.3187 51.1642 26.342 51.0474 26.3652C50.9307 26.3885 50.8373 26.4234 50.7323 26.4466C50.6389 26.4699 50.5455 26.5048 50.4638 26.5397C50.3821 26.5746 50.312 26.6211 50.242 26.6676C50.172 26.7141 50.1253 26.7839 50.0669 26.8653C49.9969 26.9816 49.9502 27.0979 49.9385 27.2258C49.9151 27.3538 49.9268 27.4933 49.9618 27.6329C49.9852 27.7492 50.0319 27.8539 50.0902 27.9585C50.1486 28.0516 50.2303 28.1446 50.312 28.2028C50.4054 28.2726 50.4988 28.3191 50.6155 28.354C50.7323 28.3888 50.8607 28.4005 51.0008 28.3889L50.8724 27.8771C50.7556 27.8771 50.6622 27.8539 50.5805 27.7957C50.4871 27.7492 50.4288 27.6562 50.4054 27.5282C50.3937 27.4584 50.3821 27.3887 50.4054 27.3305C50.4054 27.2724 50.4404 27.2142 50.4755 27.1677C50.4988 27.1328 50.5222 27.1095 50.5455 27.0863C50.5688 27.063 50.6155 27.0398 50.6622 27.0165C50.7089 26.9932 50.779 26.97 50.8607 26.9467C50.9424 26.9235 51.0474 26.9002 51.1642 26.8653C51.2926 26.8304 51.386 26.8072 51.4794 26.7955C51.5611 26.7839 51.6311 26.7723 51.6895 26.7606C51.7478 26.7606 51.7945 26.7606 51.8295 26.7606C51.8646 26.7606 51.8996 26.7839 51.9346 26.7955C51.9813 26.8188 52.028 26.8537 52.063 26.9118C52.098 26.9584 52.133 27.0165 52.1447 27.0863C52.1797 27.2142 52.1681 27.3189 52.1097 27.4003C52.0513 27.4817 51.9813 27.5515 51.8879 27.6096L52.0163 28.1214C52.1447 28.0632 52.2498 27.9934 52.3432 27.912C52.4366 27.8306 52.4949 27.7376 52.5533 27.6445C52.6 27.5399 52.635 27.4352 52.635 27.3189C52.635 27.2026 52.635 27.0863 52.6 26.97C52.565 26.8304 52.5066 26.7025 52.4366 26.5978C52.3548 26.4932 52.2615 26.4117 52.1447 26.342C52.063 26.2954 51.9813 26.2606 51.8996 26.2373C51.8179 26.2257 51.7362 26.214 51.6428 26.2257M48.0591 44.9965C48.0241 44.9151 47.9774 44.8453 47.9307 44.7755C47.8724 44.7058 47.814 44.636 47.7323 44.5662C47.6622 44.4964 47.5805 44.4266 47.4988 44.3452C47.4171 44.2638 47.3354 44.194 47.2537 44.1359C47.172 44.0661 47.1019 44.0196 47.0319 43.9731C46.9618 43.9266 46.8801 43.8917 46.7984 43.8684C46.7167 43.8451 46.635 43.8335 46.5299 43.8451C46.4015 43.8451 46.2731 43.88 46.1564 43.9382C46.0397 43.9963 45.9346 44.0777 45.8412 44.1824C45.7595 44.2755 45.7011 44.3685 45.6428 44.4732C45.5961 44.5778 45.5727 44.6825 45.5611 44.7988C45.5611 44.9151 45.5727 45.0198 45.6194 45.1361C45.6545 45.2524 45.7245 45.357 45.8179 45.4733L46.1681 45.0779C46.1097 44.9849 46.0747 44.8918 46.063 44.7872C46.063 44.6825 46.098 44.5895 46.1797 44.4848C46.2264 44.4266 46.2848 44.3918 46.3315 44.3685C46.3899 44.3452 46.4482 44.3336 46.4949 44.3336C46.5299 44.3336 46.565 44.3336 46.6116 44.3452C46.6467 44.3452 46.6934 44.3685 46.7401 44.4034C46.7867 44.4266 46.8451 44.4732 46.9151 44.5313C46.9852 44.5895 47.0552 44.6593 47.1603 44.7407C47.2537 44.8221 47.3354 44.8919 47.3937 44.95C47.4521 45.0082 47.4988 45.0547 47.5338 45.1012C47.5688 45.1477 47.5922 45.1826 47.6039 45.2175C47.6155 45.2524 47.6272 45.2873 47.6272 45.3222C47.6272 45.3803 47.6272 45.4385 47.6039 45.4966C47.5805 45.5548 47.5572 45.6129 47.5105 45.6711C47.4171 45.7641 47.3237 45.8223 47.2303 45.8223C47.1253 45.8223 47.0319 45.799 46.9268 45.7525L46.5766 46.1479C46.6934 46.2177 46.8101 46.2758 46.9268 46.2991C47.0436 46.3223 47.1603 46.334 47.2653 46.3107C47.3821 46.2991 47.4755 46.2526 47.5805 46.1944C47.6739 46.1363 47.7673 46.0665 47.849 45.9734C47.9424 45.8688 48.0124 45.7525 48.0591 45.6245C48.1058 45.5082 48.1175 45.3803 48.1058 45.2408C48.1058 45.1477 48.0825 45.0547 48.0474 44.9849" fill="black"/>
<path fill-rule="evenodd" clip-rule="evenodd" d="M48.5494 22.7251L47.8841 21.6901L48.4327 21.3412L48.993 22.225L49.3899 21.9808L48.8296 21.0853L49.3549 20.7597L50.0203 21.7947L50.4055 21.5505L49.4599 20.0735L47.207 21.4923L48.1526 22.9694L48.5494 22.7251Z" fill="black"/>
<path fill-rule="evenodd" clip-rule="evenodd" d="M40.1328 50.5558L41.3702 50.9047L41.7204 49.6719L40.483 49.323L40.1328 50.5558Z" fill="black"/>
<path fill-rule="evenodd" clip-rule="evenodd" d="M38.8464 12.1184L38.3445 11.9556L37.5273 14.4793L38.0176 14.6421L38.8464 12.1184Z" fill="black"/>
<path fill-rule="evenodd" clip-rule="evenodd" d="M18.3269 18.957L18.3036 17.6777L17.0195 17.701L17.0429 18.9803L18.3269 18.957Z" fill="black"/>
<path fill-rule="evenodd" clip-rule="evenodd" d="M21.3281 17.1542L19.7405 15.0259L19.3203 15.3399L20.9195 17.4682L21.3281 17.1542Z" fill="black"/>
<path fill-rule="evenodd" clip-rule="evenodd" d="M22.9034 16.1424L22.1213 14.7003L23.8255 15.6307L24.2341 15.4097L22.9617 13.0837L22.5065 13.328L23.2886 14.7585L21.5726 13.8281L21.1641 14.049L22.4364 16.3867L22.9034 16.1424Z" fill="black"/>
<path fill-rule="evenodd" clip-rule="evenodd" d="M16.843 21.7598L16.4461 21.5156L15.8041 22.5739L15.2438 22.2366L15.7924 21.3411L15.3955 21.0969L14.8469 22.004L14.3099 21.6784L14.9519 20.6201L14.555 20.3875L13.6445 21.8877L15.9325 23.2601L16.843 21.7598Z" fill="black"/>
<path fill-rule="evenodd" clip-rule="evenodd" d="M59.9065 34.2736C61.2489 33.8433 64.2489 32.9012 64.2489 32.9012L59.9882 31.2265C59.9882 31.2265 62.8598 29.9472 64.1555 29.3541L59.743 28.1794C60.9454 27.4119 63.6769 25.9 63.6769 25.9L59.1594 25.1556L62.7664 22.4342L58.2372 22.2365L61.5641 19.1313L57.0232 19.4337C57.9337 18.3753 59.0427 17.0379 59.9765 16.0028L55.494 16.782L58.0271 13.0255L53.673 14.3165C54.2917 13.0604 55.7742 10.2808 55.7742 10.2808L51.7703 11.8393L53.2294 7.82692L49.2839 10.0134C49.6458 8.65265 50.1477 7.02444 50.4862 5.6521L46.7625 8.28049C46.7625 8.28049 47.2411 5.14038 47.4512 3.80293L44.0427 6.8151L44.2761 2.2794L44.0427 2.54689C43.0971 3.57033 42.1866 4.7217 41.2061 5.64047L40.9376 1.16291L38.2761 4.82637C38.031 3.4424 37.7158 1.80256 37.529 0.395332L35.2411 4.30302L33.9687 -8.87299e-05L32.1827 4.11694L30.4434 -0.0117188L29.1244 4.30302L26.9298 0.360442L26.1127 4.77985L23.4979 1.10476L23.1477 5.60558L20.1477 2.24451L20.2995 6.76858L16.9143 3.77967L17.5796 8.23397L13.9259 5.58232L15.0349 9.97847C15.0349 9.97847 12.3501 8.44331 11.1244 7.7455L12.7353 11.9905L8.55628 10.2227L10.6108 14.2234L6.29169 12.9209L8.81309 16.6657L4.34228 15.8516L7.23722 19.3523L2.74305 18.9917L5.98819 22.1667L1.47068 22.283L5.06601 25.0859L0.583521 25.7139L4.48235 28.0748C3.13994 28.4818 1.42399 28.8424 0.0815753 29.2262L4.17885 31.087C2.85979 31.6336 -0.0351562 32.7617 -0.0351562 32.7617C-0.0351562 32.7617 3.02321 33.6805 4.29558 34.2038L0.233326 36.2739C0.233326 36.2739 3.33838 36.9252 4.71582 37.216C3.56017 37.9952 0.898696 39.7281 0.898696 39.7281L5.4629 40.17C4.41231 41.0888 1.94928 43.1008 1.94928 43.1008L6.53683 43.0659L3.36173 46.3455L7.90259 45.7757C7.05045 46.8922 5.1127 49.3926 5.1127 49.3926L9.59519 48.3692L7.21387 52.2536L11.568 50.7417L9.61854 54.8355C9.61854 54.8355 12.5018 53.3817 13.7508 52.87L12.2917 57.1964L16.1322 54.7657L15.21 59.22L18.7586 56.4288L18.315 60.9063L21.5952 57.6267L21.5602 62.2205C21.5602 62.2205 23.5796 59.6735 24.4668 58.6617C24.6652 60.0573 25.0271 63.1974 25.0271 63.1974L27.4551 59.313L28.4357 63.7789L28.6341 63.43L30.5368 59.6154L32.0543 63.9883L33.6419 59.7666L35.6146 63.8022L36.6769 59.3363C36.6769 59.3363 38.3812 62.0228 39.0932 63.2323L39.6652 58.6617C39.6652 58.6617 41.603 61.1854 42.5135 62.267L42.6419 57.8127L45.782 60.9063L45.4084 56.4637L48.8987 59.2665C48.6185 57.9872 47.9648 54.754 47.9648 54.754C49.1322 55.5565 50.6497 56.4753 51.8287 57.2429L50.4162 52.8932L54.5252 54.9052C54.5252 54.9052 53.1477 52.0094 52.6108 50.7533C53.8715 51.2069 55.6458 51.8349 56.9065 52.335C57.0582 52.4513 54.6652 48.4041 54.6652 48.4041L59.031 49.474L56.3345 45.8222L60.8053 46.4153L57.6419 43.0891L62.2294 43.1938L58.7392 40.2281L63.2917 39.8211L59.5096 37.2509L63.9687 36.3786L59.9181 34.2271L59.9065 34.2736ZM63.0816 32.7152L57.1166 32.4942L59.8014 31.4242C60.8987 31.8429 61.9843 32.2732 63.0816 32.7035V32.7152ZM56.0193 38.379L58.2255 40.0653L55.4123 40.263C55.4123 40.263 55.8442 39.007 56.0193 38.3673V38.379ZM54.9454 22.3877L57.7469 22.4342C57.0466 23.0739 56.3812 23.7135 55.6224 24.2834L54.9454 22.3877ZM55.8325 24.8882L58.5991 25.3068C57.7936 25.8534 57.1399 26.4001 56.3111 26.9001L55.8209 24.8882H55.8325ZM56.5913 35.7041L59.031 37.2276L56.1944 37.6812L56.5913 35.7041ZM56.4746 27.5863L59.1477 28.2725L56.7781 29.5634L56.4746 27.5863ZM56.8481 33.0175L59.4746 34.2387C58.5757 34.5294 57.6069 34.7504 56.6964 35.0063L56.8481 33.0292V33.0175ZM56.8131 30.2845L59.5446 31.2265C58.6925 31.5987 57.7703 31.9592 56.8831 32.3197L56.8248 30.2961L56.8131 30.2845ZM62.9648 29.3076L57.0232 29.7611L59.5563 28.4121L62.9532 29.2959L62.9648 29.3076ZM62.4512 25.9697L56.6263 27.0397L58.9726 25.3882L62.4512 25.9697ZM61.6341 22.6668L55.9726 24.3881L58.1555 22.504L61.6341 22.6552V22.6668ZM60.4551 19.4686L54.9804 21.8411L56.9415 19.6779C56.9415 19.6779 59.2995 19.5383 60.4551 19.4569V19.4686ZM54.6652 21.7481L53.7197 19.9454C54.6769 19.8407 56.5213 19.6779 56.5213 19.6779C56.5213 19.6779 55.2956 21.027 54.6652 21.7481ZM58.8209 16.468L53.5913 19.4686L55.2606 17.0844C56.4162 16.8867 57.6652 16.6774 58.8092 16.468H58.8209ZM53.3578 19.3406L52.2255 17.5729L54.8987 17.1658L53.3695 19.3406H53.3578ZM57.0232 13.607L52.2139 17.0728L53.673 14.584C54.7936 14.2583 55.9143 13.9443 57.0115 13.607H57.0232ZM51.887 17.0728H51.817L50.568 15.526L53.3228 14.584L51.887 17.0728ZM54.817 10.9787L50.4746 14.9794L51.6769 12.2231L54.817 10.9903V10.9787ZM50.1244 15.0492L48.6419 13.6419C49.494 13.2 50.4045 12.7813 51.3034 12.3975L50.1244 15.0492ZM49.3539 10.3506L52.4123 8.60613L48.4668 13.0837L49.3656 10.339L49.3539 10.3506ZM48.1516 13.1535L46.529 11.9323L48.9804 10.4088C48.782 11.281 48.4084 12.2231 48.1516 13.1535ZM46.8676 8.54798L49.6808 6.54761L46.2956 11.4206L46.8676 8.54798ZM45.9921 11.502C45.4201 11.2113 44.8481 10.7809 44.2411 10.4786L46.529 8.67591C46.3423 9.61794 46.1555 10.5716 45.9804 11.502H45.9921ZM44.1827 7.12911L46.7859 4.77985L43.9376 9.9901L44.1827 7.12911ZM41.4045 5.90796L43.7275 3.31447L41.4629 8.80384C41.4512 7.93159 41.3812 6.88488 41.4162 5.90796H41.4045ZM43.8792 7.23378L43.6341 10.1297L41.8014 9.28067L43.8792 7.23378ZM41.101 6.08241L41.1477 9.00155L39.2567 8.3619V8.26886L41.0894 6.07078L41.101 6.08241ZM40.4823 2.24451L38.8248 7.93159L38.4512 5.03571L40.4823 2.24451ZM38.1944 5.25668L38.5913 8.15256L36.5602 7.73388L38.1944 5.25668ZM37.1555 1.61648L36.1399 7.32682L35.4629 4.58214L37.1555 1.61648ZM35.1827 4.77985L35.9182 7.60594L33.8637 7.38497L35.1711 4.76822L35.1827 4.77985ZM33.782 1.11639L33.4084 7.05933L32.3695 4.40769L33.782 1.11639ZM32.1827 4.73333C32.1827 4.73333 32.8948 6.41968 33.1983 7.36171L31.1555 7.32682L32.1827 4.73333ZM30.3501 1.13965L30.6536 7.05933L29.3695 4.4891L30.3501 1.13965ZM29.1711 4.77985L30.4785 7.3966L28.424 7.61758L29.1594 4.79148L29.1711 4.77985ZM26.9648 1.51181C26.9648 1.51181 27.6069 5.40787 27.9104 7.36171L26.3578 4.9543L26.9648 1.51181ZM26.1944 5.23342L27.782 7.69898L25.7975 8.15256L26.1944 5.23342ZM23.6263 2.26777L25.2139 7.93159L23.3929 5.80329L23.6263 2.26777ZM23.3345 6.21034L25.1322 8.30375C24.5135 8.54798 23.8364 8.74569 23.2061 9.00155L23.3345 6.21034ZM22.6224 8.85036L20.5563 6.95466L20.4279 3.37262L22.6341 8.86199L22.6224 8.85036ZM22.5874 9.25741L20.708 10.1064L20.5213 7.32682L22.5874 9.25741ZM7.45901 32.2034C6.5485 31.9011 5.638 31.4824 4.72749 31.1335C5.61465 30.7729 6.57185 30.4938 7.5057 30.1798C7.38897 30.8078 7.47068 31.5638 7.45901 32.1918V32.2034ZM7.61076 34.9365L4.79753 34.1108C4.79753 34.1108 6.57185 33.285 7.45901 32.8896L7.61076 34.9365ZM4.97263 28.1097L7.8092 27.47L7.56407 29.4704L4.96095 28.098L4.97263 28.1097ZM7.69247 35.5761L8.08936 37.5998L5.20609 37.0997L7.69247 35.5761ZM5.55628 25.1556C6.51348 25.0161 7.5057 24.9463 8.48624 24.8533L7.96095 26.8304L5.55628 25.1556ZM8.21776 38.251C8.43955 38.8558 8.62632 39.542 8.85979 40.1816L5.95317 40.0304L8.21776 38.251ZM8.62632 24.2834L6.66523 22.4226L9.40842 22.3063L8.62632 24.295V24.2834ZM17.8831 8.7108L20.2061 10.4088L18.3617 11.502L17.8831 8.7108ZM17.8948 11.8276L16.2255 13.1186L15.4318 10.4786L17.9065 11.8276H17.8948ZM17.3228 4.838L20.136 10.0366L17.8364 8.33864L17.3228 4.82637V4.838ZM14.4512 6.62902L17.8131 11.502L15.3617 10.1064L14.4512 6.62902ZM11.7664 8.69917L15.6536 13.2232L13.0738 12.0719L11.7664 8.7108V8.69917ZM15.7586 13.5256L14.2294 14.991L13.1438 12.4324L15.7586 13.5256ZM9.31504 11.0833C10.7508 12.4673 12.245 13.7466 13.6925 15.1306L11.0076 14.2932L9.32671 11.0717L9.31504 11.0833ZM13.7742 15.4678C13.3423 16.0028 12.8987 16.5378 12.4668 17.0612L11.1477 14.6886L13.7859 15.4678H13.7742ZM7.14383 13.7001C8.73138 14.898 10.3539 16.0493 11.9298 17.2705L9.13994 16.6657L7.14383 13.7001ZM12.0699 17.5729L10.9726 19.2709L10.9493 19.329L9.30336 16.9797L12.0816 17.5729H12.0699ZM5.31115 16.5727L10.4473 19.5616L7.64578 19.3523L5.31115 16.5727ZM10.5991 19.8524L9.67691 21.6783L7.82087 19.643L10.5991 19.8407V19.8524ZM3.81698 19.6081C5.638 20.399 7.36562 21.2131 9.18663 21.9923L6.3734 22.1086L3.81698 19.6081ZM2.55628 22.7831L8.24111 24.5858L5.35784 24.8882L2.55628 22.7831ZM1.72749 26.0628L7.56407 27.2374L4.69247 27.8422L1.72749 26.0628ZM1.27224 29.4588L7.2022 29.9821L4.44733 30.9009L1.27224 29.4704V29.4588ZM1.17885 32.8315L7.14383 32.7152L4.54072 33.9014L1.17885 32.8315ZM1.49403 36.2274L7.35395 35.425L4.94928 36.9252L1.49403 36.2274ZM2.14772 39.5769L7.91426 38.1464L5.64967 39.8792L2.1594 39.5769H2.14772ZM3.17496 42.7984L8.73138 40.7515L6.68858 42.7286L3.17496 42.7984ZM9.0699 40.8213L9.89869 42.717L6.99208 42.8333L9.0699 40.8329V40.8213ZM4.55239 45.9152L9.84033 43.2636L8.03099 45.4617L4.55239 45.9152ZM10.1672 43.3217C10.529 43.8683 10.8676 44.4731 11.2061 45.0546L8.32282 45.5314L10.1555 43.3101L10.1672 43.3217ZM6.28002 48.8344L11.2061 45.6361L9.64189 48.0552L6.28002 48.846V48.8344ZM11.5796 45.671L12.8053 47.2876L10.0388 48.0203L11.5796 45.6826V45.671ZM8.27613 51.579L12.8987 47.8342L11.6146 50.3928L8.26445 51.579H8.27613ZM13.2255 47.8226L14.603 49.2879L11.9999 50.3114L13.2255 47.8342V47.8226ZM13.7625 52.4862L10.6108 53.9865L14.7664 49.8229L13.7625 52.4862ZM15.1049 49.8113L16.6341 51.1138L14.1244 52.3699L15.1049 49.7997V49.8113ZM16.1088 54.44L13.1672 56.2892L16.8325 51.6256L16.1088 54.4284V54.44ZM17.1711 51.5442L18.817 52.6955L16.4707 54.2656L17.1711 51.5325V51.5442ZM18.7586 56.0682L15.9571 58.2431L19.1088 53.1724L18.7586 56.0566V56.0682ZM19.4006 53.1026L21.175 54.0562L19.0038 55.9403L19.4006 53.1142V53.1026ZM18.9804 59.8364L21.5252 54.5098L21.5602 57.2778L18.9687 59.848L18.9804 59.8364ZM22.0388 61.1389L24.0816 55.51C24.1983 56.4753 24.4084 58.2896 24.4084 58.2896L22.0388 61.1273V61.1389ZM21.8287 57.0917L21.852 54.347L23.6847 55.1146L21.8287 57.0917ZM24.6769 58.0105L24.3617 55.3588L26.2878 55.9054L24.6769 58.0105ZM25.3773 62.0693L26.7431 56.2311L27.3267 58.9525L25.3773 62.0577V62.0693ZM27.5485 58.6617L26.9882 56.0566L28.9493 56.3822L27.5485 58.6617ZM28.7625 62.6043L29.4746 56.6846L30.2917 59.4293L28.7625 62.6043ZM30.5368 59.1851L29.673 56.4869L31.7275 56.6032L30.5368 59.1851ZM32.2294 62.7788L32.2528 56.8358L33.4084 59.5572L32.2294 62.7788ZM33.6069 59.2316C33.6069 59.2316 32.8831 57.4522 32.4279 56.6032C33.1049 56.5683 34.459 56.4869 34.459 56.4869L33.6069 59.2316ZM35.6146 62.5811L34.9726 56.6846L36.3968 59.1618L35.603 62.5811H35.6146ZM36.5952 58.8827L35.1594 56.4171L37.1438 56.0799L36.5952 58.8827ZM38.9765 62.0228L37.6925 56.2078L39.4084 58.5571L38.9765 62.0228ZM39.5718 58.2547L37.8559 55.9287L39.782 55.3821L39.5835 58.2547H39.5718ZM42.2567 61.0575L40.3539 55.4518L42.3384 57.615L42.245 61.0575H42.2567ZM40.4823 55.1611L42.315 54.4051L42.3617 57.1847L40.4823 55.1727V55.1611ZM32.1244 55.0564C19.3423 55.0564 8.97652 44.729 8.97652 31.9941C8.97652 19.2592 19.3423 8.93177 32.1244 8.93177C44.9065 8.93177 55.2722 19.2592 55.2722 31.9941C55.2722 44.729 44.9065 55.0564 32.1244 55.0564ZM57.1633 42.9031L54.3851 42.7635L55.1905 40.9492L57.1633 42.9031ZM55.8092 45.5431L53.0543 45.1709C53.4746 44.4731 54.0349 43.4264 54.0349 43.4264L55.8092 45.5431ZM54.1866 48.0784L51.4318 47.3806L52.6224 45.764L54.1866 48.0784ZM52.2839 50.4858L49.6574 49.4159L50.9765 47.9156L52.2839 50.4858ZM49.0738 49.8927L50.1127 52.5676L47.603 51.1953L49.0738 49.8927ZM46.996 51.6372L47.7197 54.4051L45.3734 52.7886L46.996 51.6372ZM45.1283 55.9636L42.9921 54.1028L44.7431 53.1607L45.1399 55.9636H45.1283ZM45.4551 59.9061L42.8987 54.4051L45.1399 56.3939L45.4551 59.9178V59.9061ZM48.3967 58.1616L45.315 53.091L47.638 54.7075L48.3967 58.1616ZM51.21 56.2311L47.568 51.5093L50.1127 52.9165L51.21 56.2311ZM53.8014 53.9865L49.6574 49.7182L52.3073 50.8115L53.7897 53.9865H53.8014ZM56.1244 51.486L51.5018 47.6714L54.3267 48.4041L56.1244 51.486ZM58.0971 48.7413L53.1127 45.4733L55.9609 45.8571L58.0971 48.7297V48.7413ZM59.7781 45.7873L54.4901 43.0891L57.2917 43.2054L59.7781 45.7873ZM61.1555 42.6705L55.5874 40.577L58.4123 40.3444L61.1555 42.6705ZM62.2294 39.4722L56.3812 37.9487L59.2878 37.4951L62.2294 39.4722ZM56.8948 35.2505L59.6847 34.4713L62.8014 36.0995L56.8831 35.2505H56.8948Z" fill="black"/>
<path fill-rule="evenodd" clip-rule="evenodd" d="M25.2742 12.6419L25.9746 14.7237L26.4765 14.5608L25.7645 12.4791L26.4298 12.2581L26.2781 11.8162L24.4688 12.4326L24.6088 12.8629L25.2742 12.6419Z" fill="black"/>
<path fill-rule="evenodd" clip-rule="evenodd" d="M12.6436 25.3185C12.702 25.3767 12.772 25.4348 12.8421 25.4813C12.9238 25.5278 13.0055 25.5744 13.0989 25.6093C13.1923 25.6441 13.2856 25.6907 13.4024 25.7256C13.5074 25.7721 13.6125 25.807 13.7059 25.8419C13.7993 25.8767 13.8926 25.9 13.9744 25.9233C14.0561 25.9465 14.1495 25.9465 14.2312 25.9465C14.3129 25.9465 14.4063 25.9233 14.488 25.8767C14.6164 25.8186 14.7214 25.7488 14.8032 25.6558C14.8965 25.5627 14.9666 25.4464 15.0133 25.3185C15.0716 25.1906 15.095 25.051 15.095 24.9231C15.095 24.7952 15.0716 24.6556 15.0016 24.516C14.9432 24.3997 14.8615 24.2951 14.7565 24.2137C14.6514 24.1322 14.5113 24.0508 14.3362 23.9811L13.9744 23.8415L13.6008 24.7719L14.0094 24.9347L14.1845 24.4811L14.2779 24.516C14.3479 24.5393 14.3946 24.5742 14.453 24.6091C14.4997 24.644 14.5347 24.7021 14.5697 24.7486C14.593 24.8068 14.6164 24.8649 14.6164 24.9347C14.6164 25.0045 14.6047 25.0743 14.5814 25.1441C14.558 25.2138 14.523 25.2604 14.4763 25.3069C14.4296 25.3534 14.3829 25.3767 14.3362 25.3999C14.3012 25.4115 14.2662 25.4232 14.2312 25.4232C14.1961 25.4232 14.1495 25.4232 14.0911 25.4115C14.0327 25.4115 13.9744 25.3767 13.8926 25.3534C13.8109 25.3301 13.7175 25.2836 13.5891 25.2371C13.4724 25.1906 13.379 25.1557 13.2973 25.1208C13.2156 25.0859 13.1572 25.051 13.1105 25.0278C13.0639 24.9929 13.0288 24.9696 13.0055 24.9463C12.9821 24.9231 12.9588 24.8882 12.9471 24.8533C12.9238 24.8068 12.9121 24.7486 12.9004 24.6905C12.9004 24.6323 12.9004 24.5626 12.9354 24.4928C12.9821 24.3648 13.0522 24.2834 13.1456 24.2369C13.239 24.1904 13.344 24.1788 13.4724 24.1904L13.6709 23.7019C13.5541 23.6787 13.4491 23.667 13.3323 23.6787C13.2156 23.6903 13.1105 23.7136 13.0055 23.7601C12.9004 23.8066 12.807 23.8764 12.7137 23.9694C12.6203 24.0625 12.5502 24.1788 12.4919 24.3183C12.4335 24.4579 12.4102 24.5858 12.4102 24.7137C12.4102 24.8417 12.4452 24.9696 12.4919 25.0859C12.5269 25.1673 12.5736 25.2487 12.6319 25.3069M26.5113 19.7942C26.6397 20.0617 26.8265 20.2943 27.06 20.4572C27.2934 20.6316 27.5619 20.7595 27.8537 20.8409C28.1456 20.9224 28.4724 20.9689 28.8109 20.9689C29.0444 20.9689 29.2895 20.9456 29.5113 20.9107C29.7448 20.8758 29.9432 20.8061 30.1067 20.7246C30.1417 20.7014 30.165 20.6781 30.1767 20.6549C30.1767 20.6316 30.1884 20.5851 30.1884 20.5037V19.9222C30.1884 19.6082 30.1884 19.3174 30.1884 19.2127V18.8406C30.1884 18.8406 30.165 18.7708 30.1183 18.7708C29.9782 18.7708 29.8849 18.7708 29.8382 18.7708C29.8032 18.7708 29.7098 18.7708 29.5463 18.7708C29.3129 18.7708 29.1611 18.7708 29.0561 18.7708C28.9277 18.7708 28.9043 18.8173 28.9043 18.8638C28.9043 18.8871 28.9043 18.9453 29.0211 18.9453C29.1144 18.9453 29.1845 18.9453 29.2195 18.9569C29.2895 18.9685 29.3479 19.0034 29.3712 19.0383C29.3946 19.0732 29.4179 19.143 29.4179 19.2244C29.4179 19.329 29.4179 19.6198 29.4179 19.9222V20.4223C29.4179 20.5037 29.3946 20.5618 29.3362 20.5851C29.2895 20.6083 29.2195 20.62 29.1495 20.6316C29.0794 20.6316 28.986 20.6316 28.8926 20.6316C28.6242 20.6316 28.3674 20.5851 28.1456 20.4804C27.9238 20.3874 27.7253 20.2478 27.5619 20.0734C27.3985 19.8989 27.2818 19.6896 27.1884 19.4453C27.1067 19.2011 27.06 18.9453 27.06 18.6661C27.06 18.3521 27.1067 18.0963 27.1884 17.8869C27.2701 17.6776 27.3868 17.5148 27.5386 17.3868C27.702 17.2589 27.8654 17.1659 28.0288 17.131C28.4257 17.0379 28.9277 17.0496 29.2895 17.2008C29.4996 17.2822 29.6514 17.3752 29.7331 17.4799C29.7915 17.538 29.8265 17.6078 29.8498 17.666C29.8732 17.7357 29.8849 17.8055 29.9082 17.8986C29.9199 17.98 29.9666 17.9916 30.0016 17.9916C30.0483 17.9916 30.095 17.9683 30.095 17.8404C30.095 17.6194 30.095 17.445 30.095 17.3287C30.095 17.2124 30.1067 17.1077 30.1183 17.0379C30.1183 17.003 30.1183 16.9914 30.1183 16.9798C30.1183 16.9565 30.1183 16.8867 30.0133 16.8751C29.9549 16.8751 29.8965 16.8751 29.8148 16.8519C29.7331 16.8519 29.6631 16.8286 29.593 16.817C29.5697 16.817 29.5113 16.8053 29.453 16.7937C29.3829 16.7937 29.3012 16.7704 29.2078 16.7588C29.1028 16.7588 29.0094 16.7356 28.916 16.7356C28.5425 16.7123 28.1923 16.7356 27.8888 16.7937C27.6553 16.8402 27.4218 16.9333 27.1884 17.0728C26.9199 17.2356 26.6864 17.4682 26.5113 17.7706C26.3362 18.073 26.2428 18.4335 26.2428 18.8406C26.2428 19.2011 26.3129 19.5151 26.4413 19.7826M32.8965 20.713H32.7681C32.6981 20.6898 32.6631 20.6665 32.6397 20.6432C32.6164 20.6083 32.593 20.5502 32.5814 20.4804C32.5814 20.3757 32.5697 20.2478 32.558 20.0734C32.558 19.8989 32.558 19.6547 32.558 19.3174V17.5613C32.558 17.445 32.558 17.3403 32.5697 17.2589C32.5697 17.1659 32.593 17.1077 32.6164 17.0612C32.6397 17.0263 32.6747 17.003 32.7331 16.9914C32.7915 16.9914 32.8498 16.9798 32.8849 16.9798C32.9899 16.9798 33.0016 16.9216 33.0016 16.8867C33.0016 16.8053 32.8849 16.8053 32.8498 16.8053C32.7798 16.8053 32.6397 16.8053 32.4646 16.8053C32.3362 16.8053 32.2428 16.8053 32.2078 16.8053C32.1495 16.8053 32.0561 16.8053 31.9043 16.8053C31.7059 16.8053 31.5775 16.8053 31.5074 16.8053C31.4607 16.8053 31.344 16.8053 31.344 16.8867C31.344 16.91 31.3557 16.9798 31.4607 16.9798C31.5308 16.9798 31.5891 16.9798 31.6475 17.003C31.7409 17.0263 31.7876 17.1077 31.7993 17.2705C31.7993 17.3636 31.8109 17.4566 31.8109 17.5729V19.329C31.8109 19.6547 31.8109 19.8989 31.8109 20.0734C31.8109 20.2478 31.8109 20.3757 31.7876 20.4804C31.7759 20.62 31.7292 20.7014 31.6592 20.713C31.6008 20.7246 31.5308 20.7363 31.4724 20.7363C31.3674 20.7363 31.3557 20.7828 31.3557 20.8177C31.3557 20.8526 31.379 20.9107 31.4958 20.9107C31.5658 20.9107 31.7059 20.9107 31.916 20.9107C32.0561 20.9107 32.1378 20.9107 32.1611 20.9107C32.2078 20.9107 32.2895 20.9107 32.4063 20.9107C32.6514 20.9107 32.8382 20.9107 32.9899 20.9107C33.1067 20.9107 33.13 20.8642 33.13 20.8177C33.13 20.7828 33.1183 20.7363 33.0133 20.7363C32.9666 20.7363 32.9316 20.7363 32.8849 20.7363M33.6786 20.8875C33.772 20.8875 33.8654 20.8875 33.9705 20.8875C34.0639 20.8875 34.1456 20.8875 34.2039 20.8875C34.2623 20.8875 34.2973 20.8875 34.309 20.8875C34.3557 20.8875 34.4491 20.8875 34.5891 20.8875C34.7175 20.8875 34.8109 20.8875 34.881 20.8875C34.986 20.8875 35.0094 20.8293 35.0094 20.7944C35.0094 20.7712 34.9977 20.713 34.8926 20.713H34.8109C34.7409 20.713 34.6942 20.713 34.6709 20.6781C34.6475 20.6549 34.6358 20.62 34.6358 20.5851C34.6358 20.5037 34.6592 20.399 34.7175 20.2711L35.021 19.4919H36.2351L36.6553 20.6316C36.6553 20.6316 36.6786 20.713 36.702 20.7712C36.7253 20.8293 36.7487 20.8758 36.807 20.8758C36.8654 20.8758 36.9238 20.8758 36.9938 20.8758C37.0639 20.8758 37.1456 20.8758 37.2273 20.8758H37.7409C37.846 20.8758 37.916 20.8758 37.951 20.8758C38.021 20.8642 38.0327 20.8177 38.0327 20.7944C38.0327 20.7712 38.0327 20.713 37.9277 20.713C37.846 20.713 37.7759 20.713 37.7059 20.6898C37.6358 20.6781 37.5658 20.6316 37.4958 20.5618C37.4257 20.492 37.344 20.3409 37.2623 20.1315L36.095 17.2473C36.0133 17.0379 35.9549 16.91 35.9316 16.8635C35.8732 16.7356 35.8265 16.6658 35.7681 16.6658C35.7448 16.6658 35.7098 16.6658 35.6747 16.7239C35.6514 16.7588 35.6281 16.8053 35.593 16.8984L34.2506 20.2362C34.1923 20.3874 34.1339 20.5037 34.0639 20.5735C34.0055 20.6432 33.9238 20.6781 33.8187 20.6898C33.7603 20.6898 33.7137 20.6898 33.6553 20.6898C33.5619 20.6898 33.5502 20.7479 33.5502 20.7712C33.5502 20.8061 33.5736 20.8642 33.6903 20.8642L33.6786 20.8875ZM35.6164 17.8753L36.095 19.1662H35.1261L35.6164 17.8753Z" fill="black"/>
<path fill-rule="evenodd" clip-rule="evenodd" d="M30.011 13.7815L29.9293 13.3163L28.7153 13.5256L28.6103 12.8859L29.6492 12.7115L29.5675 12.2579L28.5286 12.4324L28.4235 11.816L29.6492 11.6066L29.5675 11.1531L27.8398 11.4438L28.2717 14.0606L30.011 13.7815Z" fill="black"/>
<path fill-rule="evenodd" clip-rule="evenodd" d="M14.1022 28.3075C14.1256 28.168 14.1373 28.04 14.1139 27.9121C14.1022 27.7842 14.0556 27.6679 13.9855 27.5748C13.9271 27.4818 13.8571 27.412 13.7871 27.3655C13.7054 27.3073 13.6236 27.2724 13.5419 27.2375C13.4602 27.2027 13.3668 27.1794 13.2618 27.1561L12.97 27.098L12.6781 27.0398C12.5847 27.0166 12.4914 27.0049 12.398 27.0049C12.3046 27.0049 12.2229 27.0049 12.1295 27.0282C12.0361 27.0515 11.9544 27.0864 11.861 27.1445C11.7559 27.2143 11.6742 27.3073 11.6042 27.412C11.5342 27.5167 11.4875 27.6446 11.4641 27.7842L11.2773 28.7262L13.8921 29.2495L14.0789 28.3075H14.1022ZM13.6353 28.261L13.5536 28.6448L11.8493 28.3075L11.931 27.9237C11.9427 27.8307 11.9777 27.7609 12.0128 27.7027C12.0478 27.6446 12.1061 27.5981 12.1645 27.5748C12.1995 27.5516 12.2345 27.5399 12.2696 27.5399C12.3046 27.5399 12.3629 27.5399 12.4096 27.5399C12.468 27.5399 12.5264 27.5399 12.5964 27.5632C12.6664 27.5748 12.7598 27.5865 12.8532 27.6097C13.0517 27.6446 13.2034 27.6911 13.3085 27.726C13.4135 27.7609 13.4836 27.8074 13.5419 27.8656C13.5886 27.9237 13.612 27.9819 13.6353 28.0517C13.647 28.1214 13.647 28.1912 13.6353 28.2843V28.261ZM31.145 12.6884C31.145 12.7931 31.1567 12.8861 31.1801 12.9675C31.1917 13.0606 31.2268 13.1303 31.2618 13.2117C31.2968 13.2932 31.3552 13.3629 31.4252 13.4211C31.5186 13.5141 31.6236 13.5839 31.7521 13.6304C31.8688 13.6769 32.0089 13.7002 32.1489 13.7002C32.289 13.7002 32.4291 13.6769 32.5458 13.6304C32.6742 13.5839 32.791 13.5025 32.896 13.3862C32.9894 13.2932 33.0478 13.1769 33.0828 13.0489C33.1178 12.921 33.1412 12.7582 33.1412 12.5721V12.1883L32.1256 12.1999V12.6302H32.6159V12.7349C32.6159 12.8047 32.6159 12.8628 32.5925 12.9326C32.5808 12.9908 32.5458 13.0489 32.4991 13.0954C32.4524 13.142 32.4057 13.1769 32.3474 13.2117C32.289 13.235 32.219 13.2466 32.1373 13.2583C32.0672 13.2583 31.9972 13.2583 31.9388 13.2234C31.8805 13.2001 31.8338 13.1652 31.7987 13.1187C31.7754 13.0954 31.7521 13.0606 31.7404 13.0257C31.7287 12.9908 31.7054 12.9443 31.6937 12.8977C31.6937 12.8396 31.6703 12.7698 31.6703 12.6884C31.6703 12.607 31.6703 12.5023 31.6703 12.3744C31.6703 12.2465 31.6703 12.1418 31.6703 12.0604C31.6703 11.979 31.6703 11.9092 31.6937 11.851C31.6937 11.7929 31.717 11.7464 31.7287 11.7231C31.7404 11.6882 31.7637 11.665 31.7871 11.6301C31.8221 11.5835 31.8688 11.5487 31.9271 11.5254C31.9855 11.5021 32.0439 11.4905 32.1256 11.4789C32.254 11.4789 32.3707 11.5138 32.4408 11.5719C32.5225 11.6417 32.5692 11.7347 32.6042 11.8627H33.1295C33.1061 11.7464 33.0711 11.6417 33.0244 11.537C32.9777 11.4324 32.9077 11.3509 32.826 11.2695C32.7443 11.1881 32.6392 11.13 32.5225 11.0835C32.4057 11.0369 32.2657 11.0137 32.1139 11.0137C31.9622 11.0137 31.8338 11.0369 31.717 11.0951C31.6003 11.1416 31.4952 11.223 31.4019 11.3161C31.3318 11.3858 31.2851 11.4556 31.2501 11.537C31.2151 11.6184 31.1917 11.6998 31.1801 11.7813C31.1684 11.8743 31.1567 11.9673 31.1567 12.0604C31.1567 12.165 31.1567 12.2697 31.1567 12.386C31.1567 12.5023 31.1567 12.607 31.1567 12.7117" fill="black"/>
<path fill-rule="evenodd" clip-rule="evenodd" d="M49.8203 37.0997L50.2756 37.2043L50.544 36.0297L52.6919 36.5182L52.8086 36.0181L50.2172 35.4133L49.8203 37.0997Z" fill="black"/>
<path fill-rule="evenodd" clip-rule="evenodd" d="M13.752 33.4014L13.2968 33.4595L13.4485 34.6574L11.2656 34.9365L11.324 35.4482L13.9738 35.111L13.752 33.4014Z" fill="black"/>
<path fill-rule="evenodd" clip-rule="evenodd" d="M15.7111 42.3915C15.7928 42.345 15.8745 42.2868 15.9446 42.2287C16.0146 42.1705 16.073 42.1124 16.1197 42.0426C16.1664 41.9728 16.2014 41.8914 16.2247 41.7984C16.2597 41.6704 16.2714 41.5425 16.2597 41.4146C16.2481 41.2866 16.2014 41.1587 16.1313 41.0308C16.0613 40.9028 15.9679 40.7982 15.8629 40.7168C15.7578 40.6354 15.6527 40.5888 15.5243 40.5539C15.4309 40.5307 15.3492 40.5191 15.2559 40.5307C15.1741 40.5307 15.0924 40.5539 14.999 40.5888C14.9173 40.6237 14.8239 40.6586 14.7422 40.7051C14.6488 40.7517 14.5555 40.7982 14.4621 40.8563C14.357 40.9145 14.2753 40.961 14.1819 41.0191C14.1002 41.0657 14.0185 41.1238 13.9485 41.182C13.8784 41.2401 13.8201 41.2983 13.7734 41.368C13.7267 41.4378 13.6916 41.5192 13.6683 41.6123C13.6333 41.7402 13.6216 41.8681 13.6333 41.9961C13.645 42.124 13.6916 42.2519 13.7617 42.3799C13.8317 42.5078 13.9251 42.6125 14.0302 42.6939C14.1352 42.7753 14.252 42.8334 14.3804 42.8683C14.4737 42.8916 14.5555 42.9032 14.6488 42.8916C14.7306 42.8916 14.8123 42.8683 14.9057 42.8334C14.9874 42.7985 15.0691 42.7637 15.1625 42.7171C15.2559 42.6706 15.3492 42.6241 15.4426 42.5659C15.5477 42.5078 15.6294 42.4613 15.7228 42.4031M14.894 42.2519C14.8239 42.2868 14.7539 42.3217 14.7072 42.3333C14.6488 42.3566 14.6138 42.3566 14.5671 42.3682C14.5321 42.3682 14.4971 42.3682 14.4621 42.3682C14.4037 42.3566 14.357 42.3333 14.2987 42.2984C14.252 42.2636 14.2053 42.217 14.1702 42.1473C14.1352 42.0891 14.1119 42.0193 14.1119 41.9612C14.1119 41.903 14.1119 41.8449 14.1352 41.7867C14.1352 41.7518 14.1586 41.7169 14.1819 41.6821C14.2053 41.6472 14.2403 41.6123 14.2753 41.5774C14.322 41.5425 14.3804 41.496 14.4504 41.4611C14.5204 41.4146 14.6138 41.368 14.7189 41.2983C14.8239 41.2401 14.9173 41.182 14.999 41.1471C15.0691 41.1122 15.1391 41.0773 15.1858 41.0657C15.2442 41.0424 15.2792 41.0424 15.3259 41.0424C15.3609 41.0424 15.4076 41.0424 15.4426 41.0424C15.501 41.054 15.5477 41.0773 15.606 41.1122C15.6527 41.1471 15.6994 41.1936 15.7345 41.2634C15.7695 41.3215 15.7928 41.3913 15.7928 41.4495C15.7928 41.5076 15.7928 41.5658 15.7695 41.6239C15.7578 41.6588 15.7461 41.6937 15.7228 41.7169C15.6994 41.7518 15.6644 41.7867 15.6294 41.8216C15.5827 41.8565 15.5243 41.903 15.4543 41.9379C15.3843 41.9844 15.2909 42.031 15.1858 42.1007C15.0808 42.1589 14.9757 42.217 14.9057 42.2519" fill="black"/>
<path fill-rule="evenodd" clip-rule="evenodd" d="M14.8 38.2395L13.1074 38.2744L14.4965 37.3091L14.3564 36.8904L11.6016 37.0532L11.7767 37.5649L13.5043 37.437L12.0568 38.4255L12.1735 38.7861L13.9245 38.7279L12.4537 39.6351L12.6288 40.1584L14.9401 38.6465L14.8 38.2395Z" fill="black"/>
<path fill-rule="evenodd" clip-rule="evenodd" d="M48.8164 39.7631L49.2483 39.9375L49.7152 38.7978L50.3106 39.042L49.9137 40.0189L50.3456 40.1934L50.7425 39.2164L51.3261 39.449L50.8592 40.5888L51.2911 40.7632L51.9448 39.1467L49.4818 38.1465L48.8164 39.7631Z" fill="black"/>
<path fill-rule="evenodd" clip-rule="evenodd" d="M48.0242 41.24L49.4133 42.1007L47.4639 42.1355L47.2188 42.531L49.4833 43.9266L49.7518 43.4963L48.3744 42.6356L50.3121 42.6007L50.5689 42.2053L48.2927 40.7981L48.0242 41.24Z" fill="black"/>
<path fill-rule="evenodd" clip-rule="evenodd" d="M18.2812 44.1011L17.0205 45.1362L17.6041 43.287L17.3006 42.9265L15.2578 44.6245L15.5847 45.0316L16.8454 43.9848L16.2617 45.834L16.5652 46.1946L18.608 44.4966L18.2812 44.1011Z" fill="black"/>
<path fill-rule="evenodd" clip-rule="evenodd" d="M34.5991 51.7072C34.5291 51.6141 34.4357 51.556 34.3423 51.5095C34.424 51.4513 34.4941 51.3815 34.5408 51.2885C34.5875 51.1955 34.6108 51.0792 34.5991 50.9396C34.5991 50.8233 34.5641 50.7303 34.5174 50.6372C34.4707 50.5442 34.4124 50.4744 34.3306 50.4162C34.2489 50.3581 34.1672 50.3116 34.0622 50.2883C33.9571 50.2651 33.852 50.2534 33.7353 50.2651C33.6186 50.2651 33.5252 50.3 33.4201 50.3465C33.3268 50.393 33.245 50.4511 33.175 50.5209C33.105 50.5907 33.0583 50.6721 33.0233 50.7768C32.9882 50.8698 32.9766 50.9861 32.9766 51.1024L33.4668 51.0559C33.4668 50.9512 33.4902 50.8698 33.5485 50.8117C33.6069 50.7535 33.677 50.7186 33.7703 50.707C33.852 50.707 33.9338 50.7186 34.0038 50.7768C34.0738 50.8233 34.1089 50.9047 34.1205 51.021C34.1205 51.114 34.1089 51.1955 34.0622 51.2652C34.0155 51.335 33.9338 51.3699 33.817 51.3815H33.747L33.782 51.8119H33.852C33.9688 51.8002 34.0622 51.8119 34.1322 51.8816C34.2022 51.9398 34.2373 52.0328 34.2489 52.1375C34.2489 52.2538 34.2373 52.3468 34.1672 52.4166C34.1089 52.4864 34.0271 52.5213 33.9221 52.5329C33.8754 52.5329 33.8287 52.5329 33.782 52.5329C33.7353 52.5329 33.7003 52.5097 33.6653 52.4748C33.6303 52.4515 33.5952 52.4166 33.5719 52.3701C33.5485 52.3236 33.5369 52.2771 33.5252 52.2189L33.0349 52.2654C33.0466 52.405 33.0816 52.5213 33.14 52.6143C33.1984 52.7074 33.2684 52.7888 33.3501 52.8353C33.4318 52.8934 33.5252 52.9283 33.6303 52.9516C33.7353 52.9749 33.8404 52.9749 33.9454 52.9632C34.0622 52.9632 34.1672 52.9283 34.2606 52.8818C34.354 52.8469 34.4474 52.7888 34.5174 52.7074C34.5875 52.6376 34.6458 52.5445 34.6808 52.4399C34.7159 52.3352 34.7275 52.2189 34.7159 52.091C34.7042 51.9282 34.6575 51.8002 34.5875 51.7188" fill="black"/>
<path fill-rule="evenodd" clip-rule="evenodd" d="M36.5491 49.8231L36.1289 50.4046L36.2573 50.9163L36.6775 50.3232L37.1912 52.405L37.6581 52.2887L37.0161 49.7068L36.5491 49.8231Z" fill="black"/>
<path fill-rule="evenodd" clip-rule="evenodd" d="M20.1351 46.9619L19.6098 47.055L19.855 45.6942L19.3881 45.2988L19.0846 47.1364L17.7305 47.3806L18.2207 47.7877L19.6799 47.4969L18.9445 48.3924L19.3414 48.7181L21.0456 46.6828L20.6488 46.3455L20.1351 46.9619Z" fill="black"/>
<path fill-rule="evenodd" clip-rule="evenodd" d="M31.2598 50.5325C31.1898 50.4627 31.1081 50.4045 31.003 50.358C30.9096 50.3115 30.7929 50.2882 30.6762 50.2766C30.5594 50.2766 30.4544 50.2766 30.3493 50.3115C30.2443 50.3348 30.1509 50.3929 30.0692 50.4511C29.9875 50.5208 29.9291 50.6023 29.8707 50.6953C29.824 50.8 29.789 50.9046 29.7773 51.0442C29.7773 51.1721 29.7773 51.2768 29.8124 51.3815C29.8474 51.4861 29.8941 51.5675 29.9524 51.6373C30.0108 51.7071 30.0808 51.7653 30.1626 51.8118C30.2443 51.8583 30.326 51.8816 30.4194 51.8816C30.4544 51.8816 30.4894 51.8816 30.5244 51.8816C30.5594 51.8816 30.5945 51.8816 30.6295 51.8583L29.9991 52.9166L30.5244 52.9515L31.1665 51.8467C31.2365 51.7304 31.2949 51.6141 31.3532 51.5094C31.3999 51.3931 31.4349 51.2768 31.4466 51.1605C31.4466 51.0326 31.4466 50.9046 31.4116 50.8116C31.3766 50.7069 31.3299 50.6139 31.2598 50.5441M30.968 51.1256C30.968 51.2535 30.9213 51.3466 30.8513 51.4047C30.7812 51.4629 30.6995 51.4978 30.5945 51.4861C30.4894 51.4861 30.4077 51.4396 30.3493 51.3698C30.291 51.3001 30.2676 51.1954 30.2793 51.0791C30.2793 50.9512 30.326 50.8581 30.396 50.8C30.4661 50.7418 30.5478 50.7069 30.6528 50.7186C30.7579 50.7186 30.8279 50.7651 30.8863 50.8349C30.9447 50.9046 30.968 51.0093 30.9563 51.1256" fill="black"/>
<path fill-rule="evenodd" clip-rule="evenodd" d="M27.1519 50.1952L27.0352 50.7069L27.6655 50.3696L27.1869 52.4514L27.6655 52.5561L28.2608 49.9626L27.7822 49.8579L27.1519 50.1952Z" fill="black"/>
<path fill-rule="evenodd" clip-rule="evenodd" d="M22.7383 49.7067L23.1468 50.9162L24.3609 50.5208L23.964 49.3113L22.7383 49.7067Z" fill="black"/>
<path fill-rule="evenodd" clip-rule="evenodd" d="M50.3945 34.3201L50.8615 34.355L50.9432 33.1571L53.1494 33.3083L53.1844 32.7966L50.5229 32.5989L50.3945 34.3201Z" fill="black"/>
<path fill-rule="evenodd" clip-rule="evenodd" d="M38.1253 37.4255L38.3938 37.1115L38.1953 36.9487L38.7323 36.3207L38.172 35.8555L37.635 36.4835L37.4366 36.309L37.2031 36.5882C37.4833 36.7975 37.8451 37.0534 38.1253 37.4255Z" fill="black"/>
<path fill-rule="evenodd" clip-rule="evenodd" d="M50.5346 31.4359L50.9899 31.401L50.8965 30.1683L51.5385 30.1217L51.6202 31.1684L52.0871 31.1219L52.0054 30.0752L52.6241 30.0287L52.7292 31.2615L53.1961 31.215L53.0443 29.4705L50.3945 29.6914L50.5346 31.4359Z" fill="black"/>
<path fill-rule="evenodd" clip-rule="evenodd" d="M26.3227 41.3448L24.9803 38.5652H23.9414V38.6931C23.9414 38.6931 25.4472 40.3679 26.3344 41.3448M36.2216 39.1583L36.7819 38.4954L37.0387 38.7164L37.2255 38.4954C37.1321 38.1698 36.8519 37.9488 36.4317 37.6348C36.4083 37.6115 36.385 37.5999 36.3616 37.5767L36.0815 37.9023L36.3383 38.1116L35.778 38.7746L36.2216 39.1467V39.1583Z" fill="black"/>
<path fill-rule="evenodd" clip-rule="evenodd" d="M36.0483 40.6585L35.7448 41.4726H37.3557L37.2157 40.7399C37.7526 40.4724 38.1729 39.7979 38.2546 38.9605C38.2546 38.8907 38.2546 38.821 38.2546 38.7512C38.2546 38.7279 38.2546 38.693 38.2546 38.6581C38.2546 38.6233 38.2546 38.5884 38.2546 38.5535C38.2546 38.5186 38.2546 38.4837 38.2429 38.4372C38.2429 38.4139 38.2429 38.3907 38.2429 38.3674C38.2429 38.3325 38.2312 38.286 38.2196 38.2511C38.2196 38.2395 38.2196 38.2162 38.2196 38.2046C38.2079 38.1581 38.1962 38.1232 38.1729 38.0766V38.0534C38.1612 38.0069 38.1378 37.9603 38.1145 37.9255C38.1145 37.9255 38.1145 37.9255 38.1145 37.9138C38.0912 37.8673 38.0678 37.8208 38.0445 37.7859C38.0211 37.7394 37.9861 37.7045 37.9627 37.658C37.7059 37.2974 37.3557 37.0416 37.0639 36.8206C37.0639 36.8206 37.0522 36.809 37.0406 36.809C36.9589 36.7508 36.8888 36.6927 36.8188 36.6345L36.3635 37.2044C36.4336 37.2509 36.5036 37.3091 36.5736 37.3672C36.597 37.3788 36.6087 37.4021 36.632 37.4137C36.9705 37.658 37.2974 37.9022 37.4608 38.2511C37.4958 38.3209 37.5192 38.3907 37.5308 38.4604C37.5308 38.4953 37.5425 38.5302 37.5542 38.5651C37.5542 38.5884 37.5542 38.6233 37.5542 38.6465C37.5542 38.7163 37.5542 38.7977 37.5542 38.8675C37.4841 39.5769 37.0639 40.1933 36.4102 40.1352L34.811 38.7977L34.4258 39.2513L36.0717 40.6352L36.0483 40.6585Z" fill="black"/>
<path fill-rule="evenodd" clip-rule="evenodd" d="M23.9297 38.0651V38.1582H26.4978L25.0503 37.2278L23.9297 38.0651Z" fill="black"/>
<path fill-rule="evenodd" clip-rule="evenodd" d="M27.8398 38.1581H30.4546V38.0651L29.369 37.2859L27.8398 38.1581Z" fill="black"/>
<path fill-rule="evenodd" clip-rule="evenodd" d="M26.9431 41.7634V38.5652H25.3789L26.9431 41.7634Z" fill="black"/>
<path fill-rule="evenodd" clip-rule="evenodd" d="M27.957 41.3797L30.4551 38.6815V38.5652H29.4512L27.957 41.3797Z" fill="black"/>
<path fill-rule="evenodd" clip-rule="evenodd" d="M27.293 38.5535V41.8448L29.0439 38.5535H27.293Z" fill="black"/>
<path fill-rule="evenodd" clip-rule="evenodd" d="M35.5684 40.6354L34.4011 39.6584L34.0859 40.333L34.9498 41.0541L35.5684 40.6354Z" fill="black"/>
<path fill-rule="evenodd" clip-rule="evenodd" d="M25.5625 37.0999L27.1384 38.1117L28.9127 37.0999H25.5625Z" fill="black"/>
</g>
<defs>
<clipPath id="clip0_143_5676">
<rect width="195" height="64" fill="white"/>
</clipPath>
</defs>
</svg>
