<svg width="77" height="54" viewBox="0 0 77 54" fill="none" xmlns="http://www.w3.org/2000/svg">
<path d="M38.7708 13.3217L44.695 19.4759L62.7878 19.5166L51.519 30.9494L34.5012 13.1372L41.0384 6.57021L62.196 6.56395L65.6774 10.132H74.1018L64.373 0.0375977L38.5926 0.0970134L25.7266 13.2279L51.7153 39.793L77.0005 13.3217H38.7708Z" fill="white"/>
<path d="M21.378 0H12.7694L0 13.2278L38.6525 53.0739L42.762 48.8804L8.70519 13.3904L21.378 0Z" fill="white"/>
<path d="M34.2402 0.09375L25.7252 0.187564C24.2004 1.76677 16.6758 9.41577 12.8652 13.2278L44.9322 46.4537L49.2652 42.3915L21.3772 13.5061L34.2402 0.09375Z" fill="white"/>
</svg>
