<svg width="268" height="72" viewBox="0 0 268 72" fill="none" xmlns="http://www.w3.org/2000/svg">
<path d="M5.07404 56.0602H8.21467V66.3965C8.21467 68.6735 7.58277 70.2243 6.32841 71.0312C5.58334 71.4883 4.70622 71.7214 3.69707 71.7214C2.28238 71.7214 1.04688 71.2463 0 70.296L1.90512 68.1176C2.31067 68.6735 2.82939 68.9424 3.48015 68.9424C4.05546 68.9424 4.47044 68.7631 4.71565 68.4135C4.96087 68.0728 5.07404 67.2481 5.07404 65.9303V56.0513V56.0602Z" fill="white"/>
<path d="M39.6206 56.0601V58.6329H33.8203V62.0574H39.3754V64.6302H33.8203V68.8077H39.6206V71.3806H30.6797V56.0601H39.6206Z" fill="white"/>
<path d="M71.3482 61.6719L67.6511 71.3896H65.2838L59.6816 56.069H63.0203L66.6231 66.4949L70.5654 55.9346H72.3007L76.0167 66.4949L79.8835 56.069H83.2222L77.2522 71.3896H74.8849L71.3576 61.6719H71.3482Z" fill="white"/>
<path d="M112.828 56.0601V58.6329H107.027V62.0574H112.582V64.6302H107.027V68.8077H112.828V71.3806H103.887V56.0601H112.828Z" fill="white"/>
<path d="M134.67 56.0601H137.811V68.8077H142.79V71.3806H134.67V56.0601Z" fill="white"/>
<path d="M163.766 56.0601H166.906V68.8077H171.886V71.3806H163.766V56.0601Z" fill="white"/>
<path d="M201.792 56.0601V58.6329H195.992V62.0574H201.547V64.6302H195.992V68.8077H201.792V71.3806H192.852V56.0601H201.792Z" fill="white"/>
<path d="M223.634 56.0602H228.294C230.067 56.0602 231.434 56.4457 232.396 57.2077C233.462 58.0683 233.99 59.2158 233.99 60.6501C233.99 62.2458 233.358 63.4471 232.104 64.2539C231.623 64.5766 231.029 64.8007 230.34 64.9173L235.367 71.3718H231.453L227.152 65.2131H226.766V71.3718H223.625V56.0513L223.634 56.0602ZM226.775 58.4986V63.1154H227.671C227.926 63.1154 228.18 63.0975 228.435 63.0616C228.68 63.0258 229.01 62.9361 229.416 62.8106C229.821 62.6851 230.142 62.443 230.397 62.1024C230.642 61.7617 230.774 61.3225 230.774 60.8025C230.774 60.2826 230.651 59.8523 230.416 59.5027C230.17 59.162 229.85 58.9199 229.444 58.7944C229.039 58.66 228.718 58.5793 228.482 58.5524C228.246 58.5255 227.992 58.5076 227.737 58.5076H226.794L226.775 58.4986Z" fill="white"/>
<path d="M259.191 71.3804V64.3791L253.654 56.0688H257.37L260.822 61.3938L264.274 56.0688H267.999L262.322 64.3791V71.3804H259.181H259.191Z" fill="white"/>
<path d="M25.4082 35.6134H25.1402C24.8504 37.6765 23.8795 39.3879 22.2204 40.7398C20.5613 42.0996 18.3081 42.7795 15.4608 42.7795C13.3018 42.7795 11.2805 42.334 9.40402 41.4354C7.52756 40.5445 5.89019 39.2238 4.48466 37.4733C3.07913 35.7228 1.97789 33.5503 1.18818 30.9402C0.398475 28.3379 0 25.3214 0 21.9064C0 18.4914 0.412965 15.4514 1.24614 12.8101C2.07207 10.1687 3.23852 7.94932 4.73099 6.15975C6.22346 4.37018 8.02022 3.01042 10.1068 2.08047C12.1933 1.15052 14.519 0.681641 17.0765 0.681641C20.4599 0.681641 23.3796 1.47092 25.8357 3.04167C28.2845 4.61243 30.2117 6.98029 31.6172 10.1218L24.9156 14.2636C24.336 12.6694 23.4376 11.3175 22.2132 10.2078C20.9888 9.09807 19.279 8.54324 17.0765 8.54324C14.519 8.54324 12.4831 9.34034 10.9689 10.9345C9.45473 12.5287 8.70125 15.0373 8.70125 18.4523V24.9854C8.70125 28.3692 9.45473 30.862 10.9689 32.4797C12.4831 34.0895 14.519 34.9023 17.0765 34.9023C18.0835 34.9023 19.0399 34.7772 19.9383 34.5272C20.8366 34.2771 21.6336 33.8863 22.3146 33.3628C22.9956 32.8392 23.5318 32.2062 23.9085 31.4716C24.2853 30.737 24.4736 29.8618 24.4736 28.8459V26.8062H17.446V19.3979H32.3127V42.0762H27.5817L25.401 35.6056L25.4082 35.6134Z" fill="white"/>
<path d="M47.7881 42.0838H39.5723V1.38477H57.4602C59.1917 1.38477 60.7567 1.69736 62.1622 2.31472C63.5677 2.9399 64.7632 3.82296 65.7557 4.9639C66.7483 6.11267 67.509 7.48024 68.0524 9.07444C68.5958 10.6686 68.8638 12.4348 68.8638 14.3806C68.8638 17.1392 68.2987 19.554 67.1612 21.6092C66.0238 23.6723 64.3067 25.1649 62.0028 26.0949L69.4072 42.0681H60.2712L53.6783 27.1421H47.7881V42.0681V42.0838ZM56.4386 19.6946C57.663 19.6946 58.6266 19.3586 59.3294 18.6709C60.0322 17.9832 60.3799 16.9907 60.3799 15.6701V13.1068C60.3799 11.7861 60.0322 10.7859 59.3294 10.106C58.6266 9.42611 57.663 9.08226 56.4386 9.08226H47.7881V19.6946H56.4386Z" fill="white"/>
<path d="M98.4891 42.0838L95.7867 32.4092H83.1949L80.4925 42.0838H72.168L84.6004 1.38477H94.7651L107.038 42.0838H98.4963H98.4891ZM89.5705 9.43392H89.3024L85.1438 24.8836H93.7943L89.5777 9.43392H89.5705Z" fill="white"/>
<path d="M123.028 22.844L119.405 14.6854H119.246V42.0838H111.516V1.38476H120.485L130.809 20.6246L134.432 28.7831H134.591V1.37695H142.321V42.076H133.352L123.028 22.8361V22.844Z" fill="white"/>
<path d="M185.842 35.6134H185.574C185.284 37.6765 184.313 39.3879 182.654 40.7398C180.995 42.0996 178.742 42.7795 175.894 42.7795C173.728 42.7795 171.714 42.334 169.838 41.4354C167.961 40.5445 166.324 39.2238 164.918 37.4733C163.513 35.7228 162.411 33.5503 161.622 30.9402C160.832 28.3379 160.434 25.3214 160.434 21.9064C160.434 18.4914 160.847 15.4514 161.68 12.8101C162.506 10.1687 163.672 7.94932 165.165 6.15975C166.657 4.37018 168.454 3.01042 170.54 2.08047C172.627 1.15052 174.953 0.681641 177.51 0.681641C180.893 0.681641 183.813 1.47092 186.269 3.04167C188.718 4.61243 190.645 6.98029 192.051 10.1218L185.349 14.2636C184.77 12.6694 183.871 11.3175 182.647 10.2078C181.422 9.09807 179.713 8.54324 177.51 8.54324C174.953 8.54324 172.917 9.34034 171.403 10.9345C169.888 12.5287 169.135 15.0373 169.135 18.4523V24.9854C169.135 28.3692 169.888 30.862 171.403 32.4797C172.917 34.0895 174.953 34.9023 177.51 34.9023C178.517 34.9023 179.473 34.7772 180.372 34.5272C181.27 34.2771 182.067 33.8863 182.748 33.3628C183.429 32.8392 183.965 32.2062 184.342 31.4716C184.719 30.737 184.907 29.8618 184.907 28.8459V26.8062H177.88V19.3979H192.746V42.0762H188.015L185.835 35.6056L185.842 35.6134Z" fill="white"/>
<path d="M199.998 42.0838V1.38477H225.674V9.25417H208.214V17.53H223.189V25.3994H208.214V34.2066H225.674V42.076H199.998V42.0838Z" fill="white"/>
<path d="M259.241 1.38477L250.105 28.3612H249.997L240.759 1.38477H232.051V42.0838H239.781V17.3268H239.948L249.134 42.0838H250.888L260.111 17.7331H260.27V42.0838H268.001V1.38477H259.241Z" fill="white"/>
</svg>
