<svg width="161" height="27" viewBox="0 0 161 27" fill="none" xmlns="http://www.w3.org/2000/svg">
<path d="M57.0069 21.0477H58.2491V24.9762C58.2491 25.8416 57.9992 26.431 57.503 26.7376C57.2083 26.9114 56.8614 27 56.4623 27C55.9027 27 55.4141 26.8194 55 26.4583L55.7535 25.6303C55.9139 25.8416 56.1191 25.9438 56.3765 25.9438C56.604 25.9438 56.7682 25.8756 56.8651 25.7428C56.9621 25.6133 57.0069 25.2998 57.0069 24.799V21.0443V21.0477Z" fill="white"/>
<path d="M70.6711 21.0477V22.0256H68.377V23.3271H70.5741V24.3049H68.377V25.8927H70.6711V26.8705H67.1348V21.0477H70.6711Z" fill="white"/>
<path d="M83.2198 23.1806L81.7576 26.8739H80.8213L78.6055 21.0511H79.926L81.351 25.0136L82.9102 21H83.5966L85.0663 25.0136L86.5958 21.0511H87.9163L85.555 26.8739H84.6187L83.2236 23.1806H83.2198Z" fill="white"/>
<path d="M99.6252 21.0477V22.0256H97.3311V23.3271H99.5282V24.3049H97.3311V25.8927H99.6252V26.8705H96.0889V21.0477H99.6252Z" fill="white"/>
<path d="M108.265 21.0477H109.507V25.8927H111.476V26.8705H108.265V21.0477Z" fill="white"/>
<path d="M119.773 21.0477H121.015V25.8927H122.985V26.8705H119.773V21.0477Z" fill="white"/>
<path d="M134.813 21.0477V22.0256H132.519V23.3271H134.716V24.3049H132.519V25.8927H134.813V26.8705H131.277V21.0477H134.813Z" fill="white"/>
<path d="M143.453 21.0477H145.296C145.997 21.0477 146.538 21.1942 146.918 21.4838C147.34 21.8109 147.549 22.247 147.549 22.7922C147.549 23.3986 147.299 23.8552 146.803 24.1618C146.613 24.2845 146.377 24.3697 146.105 24.414L148.093 26.8671H146.545L144.844 24.5264H144.691V26.8671H143.449V21.0443L143.453 21.0477ZM144.695 21.9744V23.7291H145.05C145.15 23.7291 145.251 23.7223 145.352 23.7087C145.449 23.6951 145.579 23.661 145.74 23.6133C145.9 23.5656 146.027 23.4736 146.128 23.3441C146.225 23.2147 146.277 23.0477 146.277 22.8501C146.277 22.6525 146.228 22.4889 146.135 22.3561C146.038 22.2266 145.911 22.1346 145.751 22.0869C145.59 22.0358 145.464 22.0051 145.37 21.9949C145.277 21.9847 145.176 21.9779 145.076 21.9779H144.703L144.695 21.9744Z" fill="white"/>
<path d="M157.516 26.8705V24.2095L155.326 21.0511H156.796L158.161 23.075L159.526 21.0511H161L158.754 24.2095V26.8705H157.512H157.516Z" fill="white"/>
<path d="M20.6439 6.77705L23.7983 9.90785L33.4321 9.92853L27.4319 15.7447L18.3705 6.68318L21.8513 3.34239L33.117 3.33921L34.9708 5.15437H39.4565L34.2762 0.0190907L20.549 0.0493169L13.6982 6.72932L27.5364 20.2436L41 6.77705H20.6439Z" fill="white"/>
<path d="M11.3831 0H6.7993L0 6.72932L20.5812 27L22.7694 24.8667L4.63523 6.81204L11.3831 0Z" fill="white"/>
<path d="M18.2321 0.0477257L13.6981 0.0954513C12.8862 0.898833 8.8796 4.79007 6.85059 6.72932L23.9252 23.6322L26.2324 21.5656L11.3829 6.8709L18.2321 0.0477257Z" fill="white"/>
<path d="M65.0495 13.2764H64.9435C64.8289 14.0605 64.4449 14.711 63.7887 15.2248C63.1325 15.7416 62.2413 16 61.1151 16C60.2612 16 59.4617 15.8307 58.7195 15.4891C57.9773 15.1505 57.3297 14.6486 56.7738 13.9833C56.2179 13.318 55.7823 12.4923 55.47 11.5003C55.1576 10.5112 55 9.36476 55 8.06682C55 6.76889 55.1633 5.61351 55.4929 4.60961C55.8196 3.60571 56.2809 2.7622 56.8712 2.08205C57.4615 1.40189 58.1722 0.885092 58.9975 0.531648C59.8227 0.178205 60.7426 0 61.7541 0C63.0923 0 64.2472 0.299978 65.2186 0.896971C66.1872 1.49396 66.9494 2.39391 67.5053 3.58789L64.8547 5.16205C64.6254 4.55615 64.2701 4.04232 63.7858 3.62056C63.3015 3.19881 62.6253 2.98793 61.7541 2.98793C60.7426 2.98793 59.9374 3.29088 59.3385 3.89679C58.7396 4.50269 58.4415 5.4561 58.4415 6.75403V9.23705C58.4415 10.5231 58.7396 11.4706 59.3385 12.0854C59.9374 12.6972 60.7426 13.0061 61.7541 13.0061C62.1524 13.0061 62.5307 12.9586 62.886 12.8636C63.2414 12.7685 63.5566 12.62 63.8259 12.421C64.0953 12.222 64.3073 11.9814 64.4564 11.7022C64.6054 11.4231 64.6799 11.0904 64.6799 10.7043V9.92909H61.9003V7.11342H67.7804V15.7327H65.9092L65.0467 13.2734L65.0495 13.2764Z" fill="white"/>
<path d="M73.9009 15.7357H70.6514V0.267307H77.7264C78.4113 0.267307 79.0303 0.386113 79.5862 0.620752C80.1421 0.858361 80.6149 1.19398 81.0075 1.62762C81.4001 2.06423 81.701 2.58399 81.9159 3.1899C82.1308 3.7958 82.2368 4.46705 82.2368 5.20661C82.2368 6.25506 82.0133 7.17282 81.5634 7.95396C81.1135 8.73807 80.4344 9.30536 79.5231 9.6588L82.4518 15.7297H78.8383L76.2306 10.0568H73.9009V15.7297V15.7357ZM77.3224 7.22628C77.8067 7.22628 78.1878 7.09857 78.4658 6.8372C78.7437 6.57583 78.8813 6.19862 78.8813 5.69667V4.72248C78.8813 4.22053 78.7437 3.84035 78.4658 3.58195C78.1878 3.32356 77.8067 3.19287 77.3224 3.19287H73.9009V7.22628H77.3224Z" fill="white"/>
<path d="M93.9545 15.7357L92.8857 12.0587H87.9053L86.8365 15.7357H83.5439L88.4613 0.267307H92.4816L97.3359 15.7357H93.9574H93.9545ZM90.427 3.32652H90.321L88.6762 9.19844H92.0976L90.4299 3.32652H90.427Z" fill="white"/>
<path d="M103.66 8.42324L102.227 5.32244H102.164V15.7357H99.1064V0.267308H102.654L106.737 7.57973L108.17 10.6805H108.233V0.264339H111.291V15.7327H107.743L103.66 8.42027V8.42324Z" fill="white"/>
<path d="M128.505 13.2764H128.399C128.284 14.0605 127.9 14.711 127.244 15.2248C126.588 15.7416 125.696 16 124.57 16C123.713 16 122.917 15.8307 122.175 15.4891C121.432 15.1505 120.785 14.6486 120.229 13.9833C119.673 13.318 119.237 12.4923 118.925 11.5003C118.613 10.5112 118.455 9.36476 118.455 8.06682C118.455 6.76889 118.618 5.61351 118.948 4.60961C119.275 3.60571 119.736 2.7622 120.326 2.08205C120.917 1.40189 121.627 0.885092 122.453 0.531648C123.278 0.178205 124.198 0 125.209 0C126.547 0 127.702 0.299978 128.674 0.896971C129.642 1.49396 130.404 2.39391 130.96 3.58789L128.31 5.16205C128.081 4.55615 127.725 4.04232 127.241 3.62056C126.757 3.19881 126.08 2.98793 125.209 2.98793C124.198 2.98793 123.392 3.29088 122.794 3.89679C122.195 4.50269 121.897 5.4561 121.897 6.75403V9.23705C121.897 10.5231 122.195 11.4706 122.794 12.0854C123.392 12.6972 124.198 13.0061 125.209 13.0061C125.608 13.0061 125.986 12.9586 126.341 12.8636C126.696 12.7685 127.012 12.62 127.281 12.421C127.55 12.222 127.762 11.9814 127.911 11.7022C128.06 11.4231 128.135 11.0904 128.135 10.7043V9.92909H125.355V7.11342H131.235V15.7327H129.364L128.502 13.2734L128.505 13.2764Z" fill="white"/>
<path d="M134.104 15.7357V0.267307H144.26V3.25821H137.354V6.40356H143.277V9.39446H137.354V12.7418H144.26V15.7327H134.104V15.7357Z" fill="white"/>
<path d="M157.536 0.267307L153.922 10.5201H153.879L150.226 0.267307H146.781V15.7357H149.839V6.32634H149.905L153.538 15.7357H154.232L157.88 6.48078H157.943V15.7357H161V0.267307H157.536Z" fill="white"/>
</svg>
