<svg width="41" height="27" viewBox="0 0 41 27" fill="none" xmlns="http://www.w3.org/2000/svg">
<path d="M20.6439 6.77706L23.7983 9.90786L33.4321 9.92854L27.4319 15.7447L18.3705 6.6832L21.8513 3.3424L33.117 3.33922L34.9708 5.15439H39.4565L34.2762 0.019104L20.549 0.0493303L13.6982 6.72933L27.5364 20.2437L41 6.77706H20.6439Z" fill="#860117"/>
<path d="M11.3831 0H6.7993L0 6.72932L20.5812 27L22.7694 24.8667L4.63523 6.81204L11.3831 0Z" fill="#860117"/>
<path d="M18.2321 0.0477295L13.6981 0.0954552C12.8862 0.898837 8.8796 4.79007 6.85059 6.72932L23.9252 23.6322L26.2324 21.5656L11.3829 6.87091L18.2321 0.0477295Z" fill="#860117"/>
</svg>
