<svg width="320" height="151" viewBox="0 0 320 151" fill="none" xmlns="http://www.w3.org/2000/svg">
<path d="M129.909 109.744H129.699C129.472 110.97 128.712 111.986 127.412 112.789C126.111 113.596 124.346 114 122.115 114C120.423 114 118.839 113.735 117.369 113.202C115.898 112.673 114.615 111.888 113.514 110.849C112.413 109.809 111.55 108.519 110.931 106.969C110.312 105.424 110 103.632 110 101.604C110 99.5764 110.324 97.7711 110.976 96.2025C111.624 94.6339 112.538 93.3159 113.707 92.2532C114.877 91.1905 116.285 90.383 117.919 89.8307C119.554 89.2784 121.377 89 123.381 89C126.032 89 128.32 89.4687 130.244 90.4015C132.163 91.3343 133.673 92.7405 134.775 94.6061L129.523 97.0657C129.069 96.119 128.365 95.3161 127.406 94.6571C126.446 93.9981 125.107 93.6686 123.381 93.6686C121.377 93.6686 119.782 94.142 118.595 95.0887C117.409 96.0355 116.818 97.5251 116.818 99.5532V103.433C116.818 105.442 117.409 106.923 118.595 107.883C119.782 108.839 121.377 109.322 123.381 109.322C124.17 109.322 124.919 109.248 125.623 109.099C126.327 108.951 126.952 108.719 127.485 108.408C128.019 108.097 128.439 107.721 128.734 107.285C129.029 106.849 129.177 106.329 129.177 105.725V104.514H123.67V100.115H135.32V113.582H131.613L129.904 109.74L129.909 109.744Z" fill="white"/>
<path d="M147.446 113.587H141.008V89.4177H155.025C156.382 89.4177 157.608 89.6033 158.709 89.9699C159.81 90.3412 160.747 90.8656 161.525 91.5432C162.303 92.2253 162.899 93.0375 163.325 93.9842C163.75 94.9309 163.96 95.9798 163.96 97.1353C163.96 98.7735 163.518 100.208 162.626 101.428C161.735 102.653 160.39 103.54 158.584 104.092L164.386 113.578H157.227L152.061 104.714H147.446V113.578V113.587ZM154.224 100.291C155.184 100.291 155.939 100.092 156.489 99.6831C157.04 99.2747 157.313 98.6853 157.313 97.901V96.3789C157.313 95.5946 157.04 95.0006 156.489 94.5968C155.939 94.1931 155.184 93.9889 154.224 93.9889H147.446V100.291H154.224Z" fill="white"/>
<path d="M187.174 113.587L185.056 107.842H175.19L173.072 113.587H166.549L176.291 89.4177H184.256L193.873 113.587H187.18H187.174ZM180.185 94.1977H179.975L176.717 103.373H183.495L180.191 94.1977H180.185Z" fill="white"/>
<path d="M206.402 102.161L203.564 97.3163H203.439V113.587H197.381V89.4177H204.409L212.499 100.843L215.338 105.688H215.463V89.413H221.52V113.582H214.492L206.402 102.157V102.161Z" fill="white"/>
<path d="M144.235 146.744H144.027C143.802 147.97 143.049 148.986 141.761 149.789C140.473 150.596 138.725 151 136.515 151C134.834 151 133.27 150.735 131.814 150.202C130.358 149.673 129.087 148.888 127.996 147.849C126.905 146.809 126.051 145.519 125.438 143.969C124.825 142.424 124.515 140.632 124.515 138.604C124.515 136.576 124.836 134.771 125.483 133.203C126.124 131.634 127.029 130.316 128.187 129.253C129.346 128.19 130.74 127.383 132.36 126.831C133.979 126.278 135.784 126 137.769 126C140.395 126 142.661 126.469 144.567 127.402C146.468 128.334 147.963 129.74 149.054 131.606L143.853 134.066C143.403 133.119 142.706 132.316 141.756 131.657C140.805 130.998 139.478 130.669 137.769 130.669C135.784 130.669 134.204 131.142 133.029 132.089C131.853 133.035 131.269 134.525 131.269 136.553V140.433C131.269 142.442 131.853 143.923 133.029 144.883C134.204 145.839 135.784 146.322 137.769 146.322C138.55 146.322 139.293 146.248 139.99 146.099C140.687 145.951 141.306 145.719 141.834 145.408C142.363 145.097 142.779 144.721 143.071 144.285C143.364 143.849 143.51 143.329 143.51 142.725V141.514H138.056V137.115H149.594V150.582H145.922L144.23 146.74L144.235 146.744Z" fill="white"/>
<path d="M155.223 150.587V126.418H175.15V131.091H161.599V136.006H173.222V140.679H161.599V145.909H175.15V150.582H155.223V150.587Z" fill="white"/>
<path d="M201.202 126.418L194.111 142.438H194.027L186.858 126.418H180.099V150.587H186.098V135.885H186.228L193.358 150.587H194.718L201.877 136.126H202V150.587H208V126.418H201.202Z" fill="white"/>
<path d="M167.49 19.8852L176.268 29.0716L203.075 29.1323L186.379 46.1981L161.164 19.6098L170.85 9.80722L202.198 9.79789L207.356 15.124H219.838L205.424 0.0559998L167.226 0.14469L148.164 19.7452L186.67 59.3989L224.133 19.8852H167.49Z" fill="white"/>
<path d="M141.721 0H128.967L110.047 19.7452L167.316 79.2234L173.405 72.9638L122.945 19.9879L141.721 0Z" fill="white"/>
<path d="M160.78 0.140045L148.164 0.280082C145.904 2.63737 134.756 14.055 129.11 19.7452L176.621 69.3415L183.041 63.2779L141.721 20.1606L160.78 0.140045Z" fill="white"/>
</svg>
