<svg width="167" height="133" viewBox="0 0 167 133" fill="none" xmlns="http://www.w3.org/2000/svg">
<path d="M22.1901 124.449H23.6799V129.831C23.6799 131.017 23.3801 131.824 22.7851 132.244C22.4317 132.482 22.0156 132.604 21.5369 132.604C20.8659 132.604 20.2798 132.356 19.7832 131.861L20.6869 130.727C20.8793 131.017 21.1253 131.157 21.434 131.157C21.7069 131.157 21.9038 131.063 22.0201 130.881C22.1364 130.704 22.1901 130.274 22.1901 129.588V124.444V124.449Z" fill="#860117"/>
<path d="M38.5771 124.449V125.789H35.8257V127.572H38.4608V128.911H35.8257V131.087H38.5771V132.426H34.3359V124.449H38.5771Z" fill="#860117"/>
<path d="M53.6278 127.371L51.8741 132.431H50.7512L48.0938 124.453H49.6775L51.3865 129.882L53.2565 124.383H54.0797L55.8424 129.882L57.6766 124.453H59.2604L56.4284 132.431H55.3055L53.6323 127.371H53.6278Z" fill="#860117"/>
<path d="M73.3037 124.449V125.789H70.5523V127.572H73.1873V128.911H70.5523V131.087H73.3037V132.426H69.0625V124.449H73.3037Z" fill="#860117"/>
<path d="M83.6641 124.449H85.1538V131.087H87.516V132.426H83.6641V124.449Z" fill="#860117"/>
<path d="M97.4668 124.449H98.9566V131.087H101.319V132.426H97.4668V124.449Z" fill="#860117"/>
<path d="M115.505 124.449V125.789H112.753V127.572H115.389V128.911H112.753V131.087H115.505V132.426H111.264V124.449H115.505Z" fill="#860117"/>
<path d="M125.866 124.449H128.076C128.917 124.449 129.566 124.65 130.022 125.046C130.528 125.494 130.778 126.092 130.778 126.839C130.778 127.67 130.478 128.295 129.883 128.715C129.655 128.883 129.373 129 129.047 129.061L131.431 132.422H129.575L127.535 129.215H127.351V132.422H125.861V124.444L125.866 124.449ZM127.356 125.718V128.122H127.781C127.901 128.122 128.022 128.113 128.143 128.094C128.259 128.076 128.416 128.029 128.608 127.964C128.801 127.898 128.953 127.772 129.074 127.595C129.19 127.418 129.252 127.189 129.252 126.918C129.252 126.647 129.194 126.423 129.082 126.241C128.966 126.064 128.814 125.938 128.622 125.873C128.429 125.803 128.277 125.761 128.165 125.746C128.053 125.732 127.933 125.723 127.812 125.723H127.365L127.356 125.718Z" fill="#860117"/>
<path d="M142.732 132.426V128.781L140.105 124.453H141.868L143.506 127.226L145.143 124.453H146.91L144.217 128.781V132.426H142.727H142.732Z" fill="#860117"/>
<path d="M16.465 110.096H16.2995C16.1205 111.328 15.521 112.351 14.4965 113.158C13.472 113.97 12.0807 114.377 10.3225 114.377C8.98928 114.377 7.74109 114.111 6.58238 113.574C5.42367 113.042 4.41259 112.253 3.54467 111.207C2.67675 110.161 1.99674 108.864 1.50909 107.305C1.02145 105.75 0.775391 103.949 0.775391 101.909C0.775391 99.8688 1.0304 98.053 1.54488 96.4752C2.0549 94.8975 2.77518 93.5718 3.69678 92.5028C4.61838 91.4339 5.72788 90.6217 7.01634 90.0662C8.30479 89.5107 9.74088 89.2307 11.3201 89.2307C13.4094 89.2307 15.2123 89.7021 16.729 90.6403C18.2411 91.5786 19.4311 92.993 20.299 94.8695L16.1608 97.3434C15.8029 96.3912 15.2481 95.5836 14.4921 94.9208C13.736 94.258 12.6802 93.9265 11.3201 93.9265C9.74088 93.9265 8.48374 94.4027 7.54872 95.3549C6.6137 96.3072 6.14842 97.8056 6.14842 99.8454V103.748C6.14842 105.769 6.6137 107.258 7.54872 108.224C8.48374 109.186 9.74088 109.671 11.3201 109.671C11.942 109.671 12.5325 109.597 13.0873 109.447C13.642 109.298 14.1342 109.065 14.5547 108.752C14.9752 108.439 15.3063 108.061 15.5389 107.622C15.7716 107.183 15.8879 106.661 15.8879 106.054V104.835H11.5483V100.41H20.7285V113.956H17.8071L16.4605 110.091L16.465 110.096Z" fill="#860117"/>
<path d="M30.2842 113.961H25.2109V89.6508H36.2567C37.326 89.6508 38.2923 89.8375 39.1602 90.2062C40.0282 90.5797 40.7663 91.1071 41.3792 91.7887C41.9922 92.4748 42.4619 93.2917 42.7974 94.244C43.133 95.1962 43.2985 96.2512 43.2985 97.4135C43.2985 99.0612 42.9495 100.504 42.2472 101.731C41.5448 102.964 40.4845 103.855 39.0618 104.411L43.634 113.952H37.9926L33.9214 105.036H30.2842V113.952V113.961ZM35.6259 100.588C36.382 100.588 36.977 100.387 37.411 99.9761C37.8449 99.5654 38.0597 98.9725 38.0597 98.1837V96.6526C38.0597 95.8637 37.8449 95.2662 37.411 94.8601C36.977 94.454 36.382 94.2486 35.6259 94.2486H30.2842V100.588H35.6259Z" fill="#860117"/>
<path d="M61.5932 113.961L59.9244 108.182H52.149L50.4802 113.961H45.3398L53.0169 89.6508H59.2936L66.8722 113.961H61.5976H61.5932ZM56.0859 94.4587H55.9204L53.3524 103.687H58.6941L56.0904 94.4587H56.0859Z" fill="#860117"/>
<path d="M76.7456 102.469L74.5087 97.5955H74.4103V113.961H69.6367V89.6508H75.1753L81.5504 101.143L83.7873 106.016H83.8858V89.6461H88.6593V113.956H83.1208L76.7456 102.464V102.469Z" fill="#860117"/>
<path d="M115.533 110.096H115.368C115.189 111.328 114.589 112.351 113.565 113.158C112.54 113.97 111.149 114.377 109.391 114.377C108.053 114.377 106.809 114.111 105.651 113.574C104.492 113.042 103.481 112.253 102.613 111.207C101.745 110.161 101.065 108.864 100.577 107.305C100.09 105.75 99.8438 103.949 99.8438 101.909C99.8438 99.8688 100.099 98.053 100.613 96.4752C101.123 94.8975 101.844 93.5718 102.765 92.5028C103.687 91.4339 104.796 90.6217 106.085 90.0662C107.373 89.5107 108.809 89.2307 110.388 89.2307C112.478 89.2307 114.281 89.7021 115.797 90.6403C117.309 91.5786 118.499 92.993 119.367 94.8695L115.229 97.3434C114.871 96.3912 114.316 95.5836 113.56 94.9208C112.804 94.258 111.749 93.9265 110.388 93.9265C108.809 93.9265 107.552 94.4027 106.617 95.3549C105.682 96.3072 105.217 97.8056 105.217 99.8454V103.748C105.217 105.769 105.682 107.258 106.617 108.224C107.552 109.186 108.809 109.671 110.388 109.671C111.01 109.671 111.601 109.597 112.156 109.447C112.71 109.298 113.203 109.065 113.623 108.752C114.044 108.439 114.375 108.061 114.607 107.622C114.84 107.183 114.956 106.661 114.956 106.054V104.835H110.617V100.41H119.797V113.956H116.876L115.529 110.091L115.533 110.096Z" fill="#860117"/>
<path d="M124.275 113.961V89.6508H140.131V94.3513H129.349V99.2946H138.596V103.995H129.349V109.256H140.131V113.956H124.275V113.961Z" fill="#860117"/>
<path d="M160.857 89.6508L155.215 105.764H155.148L149.444 89.6508H144.066V113.961H148.84V99.1733H148.943L154.616 113.961H155.698L161.393 99.416H161.492V113.961H166.265V89.6508H160.857Z" fill="#860117"/>
<path d="M83.4909 19.8852L92.2685 29.0716L119.075 29.1323L102.379 46.1981L77.1649 19.6098L86.8507 9.80725L118.199 9.79792L123.357 15.124H135.839L121.424 0.0560303L83.2269 0.14472L64.1641 19.7452L102.67 59.3989L140.134 19.8852H83.4909Z" fill="#860117"/>
<path d="M57.7214 0H44.9666L26.0469 19.7452L83.316 79.2234L89.4048 72.9638L38.9448 19.9879L57.7214 0Z" fill="#860117"/>
<path d="M76.7794 0.140015L64.1633 0.280051C61.904 2.63734 50.7553 14.055 45.1094 19.7452L92.6211 69.3415L99.041 63.2779L57.721 20.1606L76.7794 0.140015Z" fill="#860117"/>
</svg>
