<svg width="234" height="41" viewBox="0 0 234 41" fill="none" xmlns="http://www.w3.org/2000/svg">
<path d="M82.8544 31.47H84.6598V37.1796C84.6598 38.4374 84.2965 39.2941 83.5754 39.7398C83.1471 39.9924 82.6429 40.1211 82.0628 40.1211C81.2495 40.1211 80.5393 39.8587 79.9375 39.3337L81.0327 38.1304C81.2658 38.4374 81.564 38.586 81.9381 38.586C82.2688 38.586 82.5074 38.487 82.6483 38.2938C82.7893 38.1057 82.8544 37.6501 82.8544 36.9221V31.465V31.47Z" fill="black"/>
<path d="M102.714 31.47V32.8912H99.3796V34.7828H102.573V36.2041H99.3796V38.5117H102.714V39.933H97.5742V31.47H102.714Z" fill="black"/>
<path d="M120.953 34.5699L118.827 39.9379H117.467L114.246 31.4749H116.165L118.236 37.2341L120.503 31.4006H121.5L123.636 37.2341L125.859 31.4749H127.779L124.347 39.9379H122.986L120.958 34.5699H120.953Z" fill="black"/>
<path d="M144.797 31.47V32.8912H141.463V34.7828H144.656V36.2041H141.463V38.5117H144.797V39.933H139.657V31.47H144.797Z" fill="black"/>
<path d="M157.354 31.47H159.159V38.5117H162.022V39.933H157.354V31.47Z" fill="black"/>
<path d="M174.079 31.47H175.885V38.5117H178.747V39.933H174.079V31.47Z" fill="black"/>
<path d="M195.94 31.47V32.8912H192.605V34.7828H195.799V36.2041H192.605V38.5117H195.94V39.933H190.8V31.47H195.94Z" fill="black"/>
<path d="M208.496 31.47H211.174C212.193 31.47 212.979 31.6829 213.532 32.1038C214.145 32.5792 214.449 33.2131 214.449 34.0054C214.449 34.8868 214.085 35.5504 213.364 35.9961C213.088 36.1744 212.746 36.2982 212.35 36.3625L215.24 39.928H212.99L210.518 36.526H210.296V39.928H208.49V31.465L208.496 31.47ZM210.301 32.8169V35.3672H210.816C210.963 35.3672 211.109 35.3573 211.255 35.3375C211.396 35.3177 211.586 35.2682 211.819 35.1988C212.052 35.1295 212.237 34.9958 212.383 34.8076C212.524 34.6194 212.6 34.3768 212.6 34.0896C212.6 33.8023 212.529 33.5647 212.394 33.3715C212.253 33.1834 212.069 33.0496 211.835 32.9803C211.602 32.906 211.418 32.8615 211.282 32.8466C211.147 32.8318 211 32.8218 210.854 32.8218H210.312L210.301 32.8169Z" fill="black"/>
<path d="M228.935 39.933V36.0654L225.753 31.4749H227.889L229.873 34.4164L231.858 31.4749H233.999L230.735 36.0654V39.933H228.93H228.935Z" fill="black"/>
<path d="M30.004 10.7287L34.5888 15.2791L48.5907 15.3092L39.8699 23.7625L26.6998 10.5923L31.759 5.73676L48.1327 5.73213L50.827 8.37033H57.3466L49.8176 0.906624L29.8662 0.950555L19.9092 10.6594L40.0218 30.3013L59.5899 10.7287H30.004Z" fill="black"/>
<path d="M16.5444 0.878878H9.88222L0 10.6594L29.913 40.1211L33.0934 37.0205L6.73692 10.7796L16.5444 0.878878Z" fill="black"/>
<path d="M26.4991 0.948242L19.9094 1.01761C18.7293 2.18526 12.906 7.84084 9.95703 10.6594L34.7736 35.2262L38.1268 32.2227L16.5444 10.8652L26.4991 0.948242Z" fill="black"/>
<path d="M94.5436 20.175H94.3895C94.2229 21.3147 93.6649 22.26 92.7111 23.0069C91.7574 23.758 90.4621 24.1335 88.8253 24.1335C87.5842 24.1335 86.4222 23.8875 85.3435 23.391C84.2648 22.8989 83.3235 22.1694 82.5155 21.2024C81.7076 20.2355 81.0745 19.0354 80.6205 17.5936C80.1666 16.1561 79.9375 14.4898 79.9375 12.6033C79.9375 10.7169 80.1749 9.03765 80.6539 7.57857C81.1286 6.11948 81.7992 4.89351 82.6572 3.90496C83.5151 2.91641 84.548 2.16528 85.7475 1.65158C86.947 1.13788 88.2839 0.878878 89.7541 0.878878C91.699 0.878878 93.3775 1.31487 94.7894 2.18255C96.1971 3.05023 97.3049 4.35822 98.1129 6.09358L94.2604 8.38149C93.9272 7.50086 93.4108 6.75405 92.7069 6.14107C92.0031 5.52808 91.0202 5.22159 89.7541 5.22159C88.2839 5.22159 87.1135 5.6619 86.2431 6.54253C85.3726 7.42316 84.9395 8.80886 84.9395 10.6953V14.3042C84.9395 16.1733 85.3726 17.5504 86.2431 18.444C87.1135 19.3332 88.2839 19.7822 89.7541 19.7822C90.333 19.7822 90.8827 19.7131 91.3992 19.575C91.9156 19.4369 92.3738 19.221 92.7653 18.9318C93.1567 18.6426 93.4649 18.2929 93.6815 17.8871C93.8981 17.4813 94.0064 16.9979 94.0064 16.4367V15.31H89.9665V11.2176H98.5128V23.745H95.7931L94.5395 20.1707L94.5436 20.175Z" fill="black"/>
<path d="M107.408 23.7493H102.686V1.26739H112.969C113.964 1.26739 114.864 1.44006 115.672 1.78109C116.48 2.12643 117.167 2.61423 117.737 3.24449C118.308 3.87906 118.745 4.6345 119.058 5.51513C119.37 6.39576 119.524 7.37136 119.524 8.44625C119.524 9.97008 119.199 11.304 118.545 12.4393C117.891 13.5789 116.904 14.4034 115.58 14.9171L119.836 23.7407H114.585L110.795 15.4956H107.408V23.7407V23.7493ZM112.381 11.3817C113.085 11.3817 113.639 11.1961 114.043 10.8162C114.447 10.4363 114.647 9.88806 114.647 9.15852V7.74261C114.647 7.01306 114.447 6.46051 114.043 6.08495C113.639 5.70939 113.085 5.51945 112.381 5.51945H107.408V11.3817H112.381Z" fill="black"/>
<path d="M136.555 23.7493L135.001 18.4051H127.763L126.209 23.7493H121.424L128.571 1.26739H134.414L141.469 23.7493H136.559H136.555ZM131.428 5.71371H131.274L128.883 14.248H133.856L131.432 5.71371H131.428Z" fill="black"/>
<path d="M150.661 13.1214L148.578 8.6146H148.487V23.7493H144.043V1.26739H149.199L155.134 11.8954L157.216 16.4021H157.308V1.26307H161.752V23.745H156.596L150.661 13.117V13.1214Z" fill="black"/>
<path d="M186.77 20.175H186.616C186.45 21.3147 185.891 22.26 184.938 23.0069C183.984 23.758 182.689 24.1335 181.052 24.1335C179.807 24.1335 178.649 23.8875 177.57 23.391C176.491 22.8989 175.55 22.1694 174.742 21.2024C173.934 20.2355 173.301 19.0354 172.847 17.5936C172.393 16.1561 172.164 14.4898 172.164 12.6033C172.164 10.7169 172.401 9.03765 172.88 7.57857C173.355 6.11948 174.026 4.89351 174.884 3.90496C175.742 2.91641 176.775 2.16528 177.974 1.65158C179.174 1.13788 180.51 0.878878 181.981 0.878878C183.926 0.878878 185.604 1.31487 187.016 2.18255C188.424 3.05023 189.532 4.35822 190.339 6.09358L186.487 8.38149C186.154 7.50086 185.637 6.75405 184.934 6.14107C184.23 5.52808 183.247 5.22159 181.981 5.22159C180.51 5.22159 179.34 5.6619 178.47 6.54253C177.599 7.42316 177.166 8.80886 177.166 10.6953V14.3042C177.166 16.1733 177.599 17.5504 178.47 18.444C179.34 19.3332 180.51 19.7822 181.981 19.7822C182.56 19.7822 183.109 19.7131 183.626 19.575C184.142 19.4369 184.6 19.221 184.992 18.9318C185.383 18.6426 185.692 18.2929 185.908 17.8871C186.125 17.4813 186.233 16.9979 186.233 16.4367V15.31H182.193V11.2176H190.739V23.745H188.02L186.766 20.1707L186.77 20.175Z" fill="black"/>
<path d="M194.908 23.7493V1.26739H209.668V5.61441H199.631V10.1859H208.24V14.5329H199.631V19.398H209.668V23.745H194.908V23.7493Z" fill="black"/>
<path d="M228.965 1.26739L223.713 16.169H223.65L218.34 1.26739H213.334V23.7493H217.778V10.0737H217.874L223.155 23.7493H224.163L229.464 10.2982H229.556V23.7493H234V1.26739H228.965Z" fill="black"/>
</svg>
