<svg width="24" height="25" viewBox="0 0 24 25" fill="none" xmlns="http://www.w3.org/2000/svg">
<path d="M19.9687 10.5H3.96875V18.5C3.96875 21.5 4.96875 22.5 7.96875 22.5H15.9688C18.9688 22.5 19.9687 21.5 19.9687 18.5V10.5Z" stroke="black" stroke-width="1.5" stroke-miterlimit="10" stroke-linecap="round" stroke-linejoin="round"/>
<path d="M21.5 7.5V8.5C21.5 9.6 20.97 10.5 19.5 10.5H4.5C2.97 10.5 2.5 9.6 2.5 8.5V7.5C2.5 6.4 2.97 5.5 4.5 5.5H19.5C20.97 5.5 21.5 6.4 21.5 7.5Z" stroke="black" stroke-width="1.5" stroke-miterlimit="10" stroke-linecap="round" stroke-linejoin="round"/>
<path d="M11.6403 5.5H6.12027C5.78027 5.13 5.79027 4.56 6.15027 4.2L7.57027 2.78C7.94027 2.41 8.55027 2.41 8.92027 2.78L11.6403 5.5Z" stroke="black" stroke-width="1.5" stroke-miterlimit="10" stroke-linecap="round" stroke-linejoin="round"/>
<path d="M17.8691 5.5H12.3491L15.0691 2.78C15.4391 2.41 16.0491 2.41 16.4191 2.78L17.8391 4.2C18.1991 4.56 18.2091 5.13 17.8691 5.5Z" stroke="black" stroke-width="1.5" stroke-miterlimit="10" stroke-linecap="round" stroke-linejoin="round"/>
<path d="M8.93994 10.5V15.64C8.93994 16.44 9.81994 16.91 10.4899 16.48L11.4299 15.86C11.7699 15.64 12.1999 15.64 12.5299 15.86L13.4199 16.46C14.0799 16.9 14.9699 16.43 14.9699 15.63V10.5H8.93994Z" stroke="black" stroke-width="1.5" stroke-miterlimit="10" stroke-linecap="round" stroke-linejoin="round"/>
</svg>
