<svg width="46" height="38" viewBox="0 0 46 38" fill="none" xmlns="http://www.w3.org/2000/svg">
<path d="M43.5325 19.5155C43.4301 13.1014 37.159 8.85971 32.0192 8.3045C26.8795 7.7493 25.4409 9.97137 25.4409 9.97137C25.4409 9.97137 27.7024 3.35981 23 0C18.2976 3.36105 20.5591 9.97137 20.5591 9.97137C20.5591 9.97137 19.1205 7.7493 13.9808 8.3045C8.841 8.85971 2.57115 13.1026 2.46749 19.5155C2.36384 25.9283 0 37.9988 0 37.9988C0 37.9988 1.28431 37.1405 5.29398 32.797C9.30239 28.4534 9.25183 20.3737 9.25183 20.3737C11.9759 23.3025 16.2422 21.9897 17.5265 19.2124C18.8108 16.4351 16.088 13.6578 16.088 13.6578C16.088 13.6578 16.4988 15.9805 14.3916 16.9406C12.2844 17.9008 8.73861 13.6082 13.3639 11.6979C17.9892 9.78878 21.0735 12.4965 21.066 18.8224C21.0584 25.1483 13.3639 37.646 13.3639 37.646C20.8675 33.5559 23.0013 25.1594 23.0013 25.1594C23.0013 25.1594 25.1338 33.5559 32.6386 37.646C32.6386 37.646 24.9454 25.1495 24.9366 18.8224C24.929 12.4965 28.0121 9.78878 32.6386 11.6979C37.2639 13.6069 33.7182 17.8995 31.6109 16.9406C29.5037 15.9818 29.9145 13.6578 29.9145 13.6578C29.9145 13.6578 27.1904 16.4351 28.476 19.2124C29.7603 21.9897 34.0266 23.3025 36.7507 20.3737C36.7507 20.3737 36.6989 28.4534 40.7085 32.797C44.717 37.1405 46.0025 37.9988 46.0025 37.9988C46.0025 37.9988 43.6387 25.9295 43.535 19.5155H43.5325Z" fill="white"/>
</svg>
