<svg width="46" height="37" viewBox="0 0 46 37" fill="none" xmlns="http://www.w3.org/2000/svg">
<path d="M37.5568 7.84302C30.0684 6.42027 25.4804 12.5179 25.4804 12.5179C25.4804 12.5179 29.1772 5.4314 23.0183 0.0148331L23.0011 0L22.9838 0.0148331C16.825 5.43016 20.5218 12.5179 20.5218 12.5179C20.5218 12.5179 15.9337 6.42027 8.44533 7.84302C0.955729 9.26576 -0.123887 15.8368 0.0115269 19.9023C0.146941 23.9679 5.61149 29.7936 11.2115 27.3548C16.8114 24.9159 14.7199 20.445 14.7199 20.445C14.7199 20.445 15.5299 24.1038 11.076 24.5773C6.6234 25.0519 3.04725 17.5995 8.84911 14.2806C14.651 10.9617 19.1036 15.2967 20.1241 18.7281C21.1434 22.1595 19.8472 25.7973 15.9251 29.0297C12.0042 32.2621 6.01527 31.759 6.01527 31.759C13.3695 39.3461 20.7236 30.4722 20.7236 30.4722C19.708 35.4462 22.6367 36.848 22.9838 36.9951L23.0011 37.0025L23.0183 36.9951C23.3654 36.848 26.2941 35.4462 25.2785 30.4722C25.2785 30.4722 32.6327 39.3473 39.9869 31.759C39.9869 31.759 33.9991 32.2621 30.077 29.0297C26.1562 25.7973 24.8587 22.1582 25.878 18.7281C26.8973 15.2967 31.3499 10.9617 37.153 14.2806C42.9549 17.5995 39.38 25.0519 34.9261 24.5773C30.4734 24.1026 31.2822 20.445 31.2822 20.445C31.2822 20.445 29.1907 24.9159 34.7907 27.3548C40.3906 29.7936 45.8552 23.9679 45.9906 19.9023C46.126 15.8381 45.0464 9.267 37.5568 7.84425V7.84302Z" fill="white"/>
</svg>
