<svg width="36" height="36" viewBox="0 0 36 36" fill="none" xmlns="http://www.w3.org/2000/svg">
<path d="M33 15V22.5C33 30 30 33 22.5 33H13.5C6 33 3 30 3 22.5V13.5C3 6 6 3 13.5 3H21" stroke="black" stroke-width="1.5" stroke-linecap="round" stroke-linejoin="round"/>
<path d="M33 15H27C22.5 15 21 13.5 21 9V3L33 15Z" stroke="black" stroke-width="1.5" stroke-linecap="round" stroke-linejoin="round"/>
<path fill-rule="evenodd" clip-rule="evenodd" d="M12.4796 18H16.4546C16.8596 18 17.3696 18.27 17.5796 18.6L19.2746 21.15C19.6196 21.66 19.5446 22.425 19.1096 22.86L15.4196 26.55C14.8946 27.075 14.0246 27.075 13.4996 26.55L9.80963 22.86C9.37463 22.425 9.29963 21.66 9.64463 21.15L11.3396 18.6C11.5796 18.27 12.0896 18 12.4796 18Z" stroke="black" stroke-width="1.5" stroke-miterlimit="10" stroke-linecap="round" stroke-linejoin="round"/>
</svg>
