<svg width="36" height="36" viewBox="0 0 36 36" fill="none" xmlns="http://www.w3.org/2000/svg">
<g id="vuesax/linear/personalcard">
<g id="personalcard">
<path id="Vector" d="M26.5 33H9.5C2.7 33 1 31.3333 1 24.6667V11.3333C1 4.66667 2.7 3 9.5 3H26.5C33.3 3 35 4.66667 35 11.3333V24.6667C35 31.3333 33.3 33 26.5 33Z" stroke="black" stroke-width="1.5" stroke-linecap="round" stroke-linejoin="round"/>
<path id="Vector_2" d="M21 11H30" stroke="black" stroke-width="1.5" stroke-linecap="round" stroke-linejoin="round"/>
<path id="Vector_3" d="M23 16H30" stroke="black" stroke-width="1.5" stroke-linecap="round" stroke-linejoin="round"/>
<path id="Vector_4" d="M26 21H30" stroke="black" stroke-width="1.5" stroke-linecap="round" stroke-linejoin="round"/>
<path id="Vector_5" d="M12 19C14.2091 19 16 17.2091 16 15C16 12.7909 14.2091 11 12 11C9.79086 11 8 12.7909 8 15C8 17.2091 9.79086 19 12 19Z" stroke="black" stroke-width="1.5" stroke-linecap="round" stroke-linejoin="round"/>
<path id="Vector_6" d="M18 25C17.76 22.8966 15.7886 21.243 13.3029 21.0544C12.4457 20.9819 11.5714 20.9819 10.6971 21.0544C8.21143 21.2575 6.24 22.8966 6 25" stroke="black" stroke-width="1.5" stroke-linecap="round" stroke-linejoin="round"/>
</g>
</g>
</svg>
