<svg width="36" height="36" viewBox="0 0 36 36" fill="none" xmlns="http://www.w3.org/2000/svg">
<g id="interface-security-shield-4--shield-protection-security-defend-crime-war-cover" clip-path="url(#clip0_343_4691)">
<path id="Vector" d="M18.9252 34.5343C18.3294 34.7642 17.6695 34.7642 17.0737 34.5343V34.5343C12.4253 32.7497 8.42757 29.5969 5.60863 25.4924C2.78969 21.388 1.28216 16.525 1.28517 11.5457V4.83427C1.28376 4.5527 1.37301 4.27815 1.53973 4.05123C1.70644 3.82432 1.94176 3.65708 2.21089 3.57427C12.5143 0.514794 23.4846 0.514794 33.788 3.57427C34.0572 3.65708 34.2925 3.82432 34.4592 4.05123C34.6259 4.27815 34.7152 4.5527 34.7137 4.83427V11.5457C34.7168 16.525 33.2092 21.388 30.3903 25.4924C27.5713 29.5969 23.5736 32.7497 18.9252 34.5343V34.5343Z" stroke="black" stroke-width="1.5" stroke-linecap="round" stroke-linejoin="round"/>
<path id="Vector_2" d="M18 28C19.1046 28 20 27.1046 20 26C20 24.8954 19.1046 24 18 24C16.8954 24 16 24.8954 16 26C16 27.1046 16.8954 28 18 28Z" stroke="black" stroke-width="1.5" stroke-linecap="round" stroke-linejoin="round"/>
<rect id="Rectangle 493" x="16" y="7" width="4" height="14" stroke="black" stroke-width="1.5"/>
</g>
<defs>
<clipPath id="clip0_343_4691">
<rect width="36" height="36" fill="white"/>
</clipPath>
</defs>
</svg>
