<svg width="74" height="115" viewBox="0 0 74 115" fill="none" xmlns="http://www.w3.org/2000/svg">
<path id="Vector" d="M73.1499 78.0797C73.2104 77.6992 73.2255 77.4556 73.2255 77.41C73.2709 73.0109 72.9382 68.7336 72.3333 64.5933C72.3333 64.5324 72.3333 64.4867 72.3031 64.4259C70.8816 54.8666 67.9478 46.038 64.3487 38.1532C64.3033 37.8792 64.1974 37.6052 64.0009 37.3921C60.0841 28.9745 55.4415 21.7137 51.1468 15.8838C51.1014 15.7773 51.0712 15.6555 50.9804 15.5642C50.9199 15.4881 50.8443 15.4424 50.7687 15.3815C43.8124 6.03539 37.9146 0.570798 37.7634 0.449024C37.7634 0.449024 37.7483 0.449024 37.7331 0.449024C37.6878 0.403359 37.6122 0.372916 37.5668 0.342472C37.5214 0.312029 37.4912 0.266364 37.4458 0.251142C37.4307 0.251142 37.3853 0.251142 37.3702 0.220699C37.34 0.205477 37.2946 0.175033 37.2492 0.159812C37.1736 0.129368 37.098 0.129368 37.0224 0.114147C36.9468 0.114147 36.8712 0.0837032 36.7955 0.0684814C36.7653 0.0684814 36.7199 0.0684814 36.6897 0.0684814C36.6141 0.0684814 36.5385 0.0989249 36.4629 0.114147C36.3872 0.114147 36.3116 0.129368 36.236 0.159812C36.1907 0.159812 36.1604 0.205477 36.115 0.220699C36.0848 0.220699 36.0545 0.220699 36.0394 0.251142C35.9941 0.281585 35.9638 0.312029 35.9184 0.342472C35.858 0.388137 35.7975 0.403359 35.737 0.449024H35.7218C35.5706 0.586019 29.6729 6.02017 22.7317 15.3663C22.656 15.4272 22.5653 15.4728 22.5048 15.5642C22.4141 15.6707 22.3839 15.7925 22.3385 15.9143C18.074 21.7137 13.4465 28.9593 9.54488 37.3464L9.51463 37.3769C9.30291 37.6204 9.18195 37.9096 9.1517 38.2293C5.5828 46.0685 2.66418 54.8514 1.24266 64.365C1.18217 64.5172 1.16705 64.6846 1.16705 64.8673C0.577272 68.9771 0.259689 73.2088 0.305057 77.5622C0.305057 77.5926 0.335306 77.7905 0.380674 78.1102C0.244572 78.5516 0.320191 79.0082 0.577273 79.404C0.985579 81.8699 1.98366 86.5582 4.10081 91.7488C4.10081 91.8097 4.10081 91.8554 4.10081 91.9163C4.1613 92.1294 4.25201 92.2968 4.38811 92.4642C6.03646 96.3001 8.30484 100.349 11.4352 103.957C11.541 104.2 11.7376 104.398 11.9493 104.55C14.6714 107.549 18.0286 110.167 22.1268 112.039C22.1721 112.07 22.2175 112.115 22.2629 112.146C22.3234 112.161 22.3687 112.161 22.4141 112.176C26.2855 113.896 30.8222 114.931 36.1604 114.931H36.7199H37.3248C42.6631 114.931 47.1847 113.881 51.0711 112.176C51.1316 112.161 51.177 112.176 51.2224 112.146C51.2828 112.115 51.3131 112.07 51.3585 112.039C55.4567 110.167 58.7987 107.549 61.5359 104.565C61.7476 104.413 61.9442 104.215 62.05 103.972C65.1653 100.38 67.4488 96.3306 69.082 92.4947C69.2181 92.3272 69.324 92.1446 69.3844 91.9315C69.3844 91.8706 69.3844 91.8097 69.3844 91.7488C71.4865 86.6191 72.4845 81.9765 72.8928 79.4497C73.165 79.0539 73.2407 78.582 73.0894 78.1254L73.1499 78.0797ZM67.0253 89.6178L64.2882 88.8567L68.9005 83.8487C68.4468 85.584 67.8268 87.5476 67.0253 89.6178ZM51.3736 108.569L49.816 105.037L56.7723 104.885C55.1693 106.27 53.3698 107.519 51.3736 108.554V108.569ZM16.6222 104.9L23.76 105.053L22.157 108.645C20.0852 107.595 18.2554 106.316 16.6071 104.9H16.6222ZM4.5696 83.7422L9.2878 88.8719L6.42966 89.6634C5.61304 87.5324 5.00814 85.5231 4.55446 83.7574L4.5696 83.7422ZM55.7137 28.1678L48.1525 19.7806L49.4833 18.7151C51.5399 21.5463 53.642 24.6972 55.7137 28.1525V28.1678ZM34.4969 26.6456L24.1985 37.8335L28.4933 22.1704L34.4818 26.6456H34.4969ZM36.7804 98.2789L21.8394 92.7991L16.9549 78.6277L22.5048 44.2114L36.7804 28.7005L51.056 44.2114L56.5908 78.6277L51.7063 92.7991L36.7653 98.2789H36.7804ZM15.5031 83.727L17.9681 90.9116L13.9455 88.8719L15.488 83.727H15.5031ZM58.0728 83.727L59.6153 88.8719L55.5928 90.9116L58.0577 83.7118L58.0728 83.727ZM58.7534 72.7978L55.4113 52.0506L61.9593 64.091L58.7534 72.7826V72.7978ZM53.9142 42.9024L49.1052 25.3974L61.3847 39.0208L61.9291 57.637L53.9142 42.9024ZM45.0524 22.1704L49.3472 37.8335L39.0488 26.6456L45.0524 22.1704ZM36.7804 24.5145L29.5821 19.1413L36.7804 4.96987L43.9787 19.1413L36.7804 24.5145ZM14.8226 72.7978L11.6167 64.1062L18.1647 52.0658L14.8226 72.813V72.7978ZM13.7943 78.8104L11.4352 86.68L3.72275 78.3081L9.65075 67.6224L13.7943 78.8256V78.8104ZM19.556 95.1737L23.4122 101.947L14.2933 101.749L13.7792 92.2359L19.556 95.1585V95.1737ZM26.7845 101.689L24.0473 96.8938L32.1529 99.862L26.7845 101.689ZM36.7804 101.552L44.5231 104.185L36.7804 111.263L29.0377 104.185L36.7804 101.552ZM41.4079 99.862L49.5135 96.8938L46.7764 101.704L41.4079 99.8772V99.862ZM54.0049 95.1737L59.7817 92.2511L59.2675 101.765L50.1487 101.963L54.02 95.1889L54.0049 95.1737ZM62.1257 86.68L59.7666 78.8104L63.9101 67.6072L69.8381 78.2928L62.1257 86.6648V86.68ZM64.6511 46.7382C66.5414 51.8832 68.0839 57.3478 69.0518 63.1016L65.1048 62.6145L64.6511 46.7535V46.7382ZM46.4437 17.2386L42.9958 10.4649C44.4324 12.1545 46.0051 14.0877 47.6535 16.2644L46.4285 17.2386H46.4437ZM27.1323 17.2386L25.9225 16.2644C27.5708 14.0877 29.1436 12.1393 30.5802 10.4649L27.1474 17.2386H27.1323ZM19.6618 42.9024L11.6469 57.637L12.1913 39.0208L24.4708 25.3974L19.6618 42.9024ZM8.45606 62.5993L4.52423 63.0863C5.49207 57.363 7.03455 51.9136 8.90974 46.7991L8.45606 62.5993ZM4.05544 66.2677L7.1253 65.8871L3.4959 72.4173C3.60175 70.3319 3.79836 68.2769 4.05544 66.2677ZM10.7093 91.6727L11.0874 98.6595C9.71123 96.6502 8.57705 94.5648 7.63946 92.5251L10.7093 91.6727ZM26.6181 106.118L32.6066 111.598C29.7938 111.309 27.2533 110.715 24.9547 109.847L26.603 106.118H26.6181ZM46.9427 106.118L48.5759 109.802C46.2773 110.685 43.7519 111.309 40.9542 111.583L46.9427 106.103V106.118ZM62.8515 91.6727L65.8004 92.4795C64.8931 94.4431 63.8043 96.4371 62.5037 98.3703L62.8667 91.6727H62.8515ZM66.4356 65.8719L69.5357 66.2525C69.7927 68.2769 69.9742 70.3471 70.0801 72.4325L66.4356 65.8719ZM24.0776 18.7303L25.4083 19.7806L17.8925 28.1069C19.9491 24.6668 22.0511 21.5311 24.0776 18.7151V18.7303Z" fill="#860117"/>
</svg>
