<svg width="119" height="111" viewBox="0 0 119 111" fill="none" xmlns="http://www.w3.org/2000/svg">
<path id="Vector" d="M118.356 102.855C118.356 102.855 118.371 102.763 118.386 102.702C118.386 102.642 118.386 102.581 118.386 102.52C118.386 102.489 118.386 102.459 118.386 102.429C118.386 102.413 118.386 102.398 118.386 102.383C118.386 102.322 118.371 102.276 118.356 102.215C118.356 102.185 118.356 102.155 118.356 102.109C117.131 97.3597 115.513 92.3974 113.396 86.9328C108.814 75.0599 102.205 61.954 93.782 47.9652C93.782 47.9652 93.782 47.95 93.7669 47.9348C85.4949 34.2048 76.9809 22.1492 71.2948 14.4623C65.0492 6.01422 60.694 0.747505 60.6638 0.70184C60.6335 0.671397 60.6033 0.656175 60.5731 0.625732C60.4974 0.549623 60.4218 0.488736 60.3462 0.427849C60.3311 0.427849 60.3311 0.397406 60.316 0.397406C60.316 0.397406 60.316 0.397406 60.3009 0.397406C60.2555 0.366963 60.2101 0.366963 60.1799 0.336519C60.1042 0.290854 60.0135 0.260411 59.9228 0.245189C59.8926 0.245189 59.8623 0.214746 59.8321 0.214746C59.7867 0.214746 59.7564 0.214746 59.7111 0.214746C59.6657 0.214746 59.6354 0.199524 59.5901 0.199524C59.5447 0.199524 59.4994 0.214746 59.4691 0.214746C59.4238 0.214746 59.3935 0.214746 59.3481 0.214746C59.3179 0.214746 59.2877 0.245189 59.2574 0.245189C59.1667 0.260411 59.091 0.306076 59.0154 0.336519C58.97 0.351741 58.9247 0.366963 58.8945 0.397406C58.8945 0.397406 58.8945 0.397406 58.8793 0.397406C58.8793 0.397406 58.8642 0.427849 58.8491 0.427849C58.7583 0.488736 58.6828 0.549623 58.6223 0.625732C58.592 0.656175 58.5618 0.671397 58.5316 0.70184C58.4862 0.747505 54.1309 6.02944 47.9004 14.4623C42.2144 22.1492 33.7156 34.1896 25.4285 47.9348C25.4285 47.9348 25.4285 47.9348 25.4285 47.95C25.4285 47.95 25.4285 47.95 25.4133 47.9652C16.9901 61.954 10.3967 75.0599 5.81461 86.9328C3.69747 92.3974 2.07941 97.3749 0.854493 102.109C0.854493 102.139 0.854493 102.17 0.854493 102.215C0.854493 102.276 0.824219 102.322 0.824219 102.383C0.824219 102.398 0.824219 102.413 0.824219 102.429C0.824219 102.459 0.824219 102.489 0.824219 102.52C0.824219 102.581 0.824219 102.642 0.824219 102.702C0.824219 102.748 0.824234 102.809 0.839356 102.855C0.839356 102.9 0.869553 102.946 0.884675 103.007C0.899798 103.068 0.930117 103.129 0.960361 103.174C0.960361 103.205 0.975421 103.235 0.990544 103.266C0.990544 103.281 1.0057 103.296 1.02082 103.311C1.05106 103.357 1.0813 103.387 1.11155 103.433C1.14179 103.464 1.17204 103.509 1.20228 103.54C1.23253 103.57 1.2779 103.616 1.30815 103.646C1.33839 103.677 1.38379 103.707 1.42915 103.738C1.4594 103.768 1.50478 103.798 1.53502 103.829C1.53502 103.829 1.56522 103.829 1.58034 103.844C1.61059 103.859 1.64083 103.875 1.67107 103.89C1.70132 103.89 1.73154 103.92 1.74667 103.935C1.9735 104.027 7.50836 106.082 20.4078 107.939C31.6589 109.552 44.8457 110.526 59.6203 110.8H59.6808C74.4403 110.511 87.6271 109.552 98.8933 107.939C111.793 106.082 117.328 104.027 117.554 103.935C117.585 103.935 117.6 103.905 117.63 103.89C117.66 103.875 117.691 103.859 117.721 103.844C117.736 103.844 117.751 103.844 117.766 103.829C117.766 103.829 117.842 103.768 117.872 103.738C117.917 103.707 117.948 103.677 117.993 103.646C118.023 103.616 118.069 103.57 118.099 103.54C118.129 103.509 118.159 103.464 118.174 103.433C118.205 103.403 118.235 103.357 118.265 103.311C118.265 103.311 118.295 103.281 118.295 103.266C118.295 103.235 118.311 103.205 118.326 103.174C118.356 103.113 118.371 103.068 118.401 103.007C118.416 102.961 118.432 102.916 118.447 102.855H118.356ZM97.1543 105.123C89.3813 106.188 80.686 106.949 71.189 107.406L88.8067 102.185L97.1543 99.719V105.123ZM113.88 97.04L110.991 93.9348L107.256 89.9315L111.158 89.1856C112.186 91.8951 113.093 94.5132 113.895 97.04H113.88ZM53.5109 23.0016C53.6168 23.1234 53.7074 23.23 53.8133 23.3517C54.1006 23.6866 54.3879 24.0063 54.6601 24.3259C54.7962 24.4781 54.9172 24.6151 55.0382 24.7521C55.3104 25.0566 55.5675 25.3458 55.8094 25.6198C55.9153 25.7263 56.006 25.8329 56.0968 25.9394C56.369 26.2439 56.6261 26.5331 56.8529 26.7918C56.8831 26.8375 56.9285 26.868 56.9588 26.9136C57.231 27.2181 57.488 27.492 57.6846 27.7204L49.2765 40.2935L44.7398 47.0824L53.4806 22.9864L53.5109 23.0016ZM62.2516 26.7918C62.4785 26.5331 62.7204 26.2591 62.9926 25.9699C63.0985 25.8481 63.2195 25.7263 63.3254 25.5893C63.5522 25.3458 63.779 25.087 64.0059 24.813C64.1722 24.6304 64.3385 24.4477 64.5049 24.2498C64.7014 24.0215 64.9132 23.7932 65.1249 23.5496C65.2913 23.367 65.4425 23.1843 65.6089 23.0016L74.3647 47.1128L61.4199 27.7356C61.6316 27.5073 61.8736 27.2333 62.1458 26.9288C62.176 26.8832 62.2214 26.8527 62.2516 26.8071V26.7918ZM17.4741 87.9222L31.7345 69.9606L22.7669 88.8812L19.5307 88.3028L17.4741 87.9374V87.9222ZM59.5599 30.2167L66.7884 41.0241L79.3551 59.8382L93.2678 89.1552L59.5749 90.6621L25.867 89.1552L39.7797 59.8382L51.7566 41.9222L59.5749 30.2167H59.5599ZM24.506 92.093L34.4868 92.5344L43.4393 92.9302L22.903 95.868L24.506 92.1234V92.093ZM84.1187 92.5648L94.6137 92.093L96.2167 95.868L75.6804 92.9302L84.1036 92.5496L84.1187 92.5648ZM96.3527 88.8812L87.3851 69.9606L101.646 87.9222L99.8763 88.2419L96.3679 88.8812H96.3527ZM19.1073 91.271L21.5117 91.7124L19.4854 96.4464L6.70688 99.7799L15.2813 90.586L19.1073 91.271ZM97.6079 91.6972L100.118 91.2406L103.838 90.5708L112.413 99.7647L99.6344 96.4312L97.6079 91.6972ZM91.2868 49.5331L100.859 82.2141L81.8201 58.2399L80.4288 55.3173L69.9641 26.457L88.6252 46.6409L91.2868 49.5179V49.5331ZM64.4747 19.8355C64.3839 19.9269 64.3083 20.0334 64.2175 20.1247C63.9 20.5053 63.5673 20.8706 63.2648 21.2207C63.1287 21.3881 62.9775 21.5556 62.8414 21.7078C62.539 22.0427 62.2668 22.3623 61.9794 22.682C61.8433 22.8342 61.7072 23.0016 61.5862 23.1386C61.2687 23.4887 60.9814 23.8236 60.6941 24.128C60.5731 24.265 60.452 24.402 60.331 24.5238C60.0588 24.8282 59.8018 25.1175 59.5749 25.361C59.3632 25.1175 59.091 24.8282 58.8188 24.5238C58.6978 24.3868 58.592 24.265 58.4559 24.128C58.1837 23.8084 57.8813 23.4887 57.5637 23.1386C57.4427 22.9864 57.2915 22.8342 57.1705 22.682C56.8983 22.3776 56.611 22.0427 56.3085 21.7078C56.1724 21.5404 56.0212 21.3729 55.8851 21.2207C55.5676 20.8554 55.25 20.4901 54.9324 20.1247C54.8568 20.0334 54.766 19.9269 54.6904 19.8355L59.6052 5.99899L64.52 19.8355H64.4747ZM27.8329 49.5331L49.1556 26.4722L38.7362 55.1956L37.2844 58.2551L18.2605 82.2141L23.8708 63.0347L27.8178 49.5331H27.8329ZM67.4538 16.3345C67.2723 16.5629 67.0908 16.776 66.9094 16.9891C66.8186 17.0956 66.743 17.1869 66.6523 17.2935L63.8849 9.48477C65.1854 11.1592 66.6674 13.1228 68.3006 15.3147C68.0284 15.6496 67.7562 15.9844 67.4689 16.3193L67.4538 16.3345ZM52.4826 17.2935C52.407 17.2022 52.3162 17.1108 52.2406 17.0043C52.0289 16.7607 51.8323 16.5172 51.6206 16.2736C51.3484 15.954 51.0913 15.6343 50.8342 15.3147C52.4674 13.1228 53.9494 11.1592 55.2499 9.46954L52.4826 17.2783V17.2935ZM27.5456 98.2273L59.5599 93.6608L91.5741 98.2273L84.5119 100.328L59.5599 107.71L34.6078 100.328L27.5456 98.2273ZM107.861 86.7654L105.351 87.2372L97.366 59.9447C102.523 69.2604 106.772 78.1042 110.069 86.3392L107.876 86.7501L107.861 86.7654ZM68.0889 20.1247C68.2855 19.8964 68.4669 19.6681 68.6635 19.4398C68.9962 19.044 69.3138 18.6635 69.6465 18.2677C69.7826 18.1003 69.9338 17.9328 70.085 17.7502C73.6237 22.5754 78.0546 28.8316 82.7879 36.0162L68.0889 20.1247ZM49.0346 17.7654C49.1707 17.9328 49.3219 18.1003 49.4731 18.2829C49.8058 18.6787 50.1234 19.0592 50.4561 19.455C50.6527 19.6833 50.8342 19.9116 51.0308 20.14L36.3317 36.0314C41.065 28.8468 45.5111 22.5907 49.0346 17.7654ZM21.7688 59.9447L13.7842 87.2372L11.2739 86.7654L9.08111 86.3544C12.3627 78.1194 16.6272 69.2756 21.7839 59.9599L21.7688 59.9447ZM7.96207 89.1856L11.8636 89.9315L5.23995 97.04C6.04144 94.5132 6.94878 91.8951 7.97711 89.1856H7.96207ZM19.077 99.6429V104.697C14.2227 103.951 10.5177 103.19 7.88638 102.55L19.077 99.6429ZM21.9654 99.7038L30.313 102.17L47.9307 107.391C38.4489 106.934 29.7534 106.188 21.9654 105.108V99.7038ZM100.043 104.697V99.6429L111.233 102.55C108.587 103.174 104.897 103.951 100.043 104.697Z" fill="#860117"/>
</svg>
