<svg width="100" height="107" viewBox="0 0 100 107" fill="none" xmlns="http://www.w3.org/2000/svg">
<path id="Vector" d="M99.1882 30.7511L98.9765 30.2945C98.2204 28.6658 94.0919 20.1112 87.5439 12.4547C81.9788 5.95498 76.1416 1.8299 70.1984 0.170735H70.1833C70.1833 0.170735 70.1682 0.155513 70.1531 0.155513C70.0472 0.109848 69.9414 0.0794047 69.8355 0.0489613C69.7145 0.0185179 69.5935 0.0032959 69.4726 0.0032959H29.8669C29.7459 0.0032959 29.6249 0.0185179 29.5039 0.0489613C29.3981 0.0794047 29.2922 0.109848 29.141 0.170735C23.1827 1.8299 17.3455 5.95498 11.7955 12.4547C5.23237 20.1112 1.10394 28.6658 0.347816 30.2945L0.136102 30.7511C0.0453674 30.949 0 31.1773 0 31.3905V74.7267C0 74.9398 0.0453674 75.1376 0.12098 75.3355C0.226837 75.5791 0.332694 75.8226 0.453674 76.0509L0.665388 76.5076C3.73525 83.3574 7.47049 89.3395 11.7955 94.2713L12.0526 94.5453C20.6119 104.211 28.521 106.829 28.8536 106.936C28.9897 106.981 29.141 106.997 29.2771 106.997H70.0321C70.1682 106.997 70.3194 106.981 70.4555 106.936C70.7882 106.829 78.6973 104.211 87.2566 94.5453C87.2566 94.5453 87.2566 94.5149 87.2868 94.5149C87.3019 94.4996 87.3322 94.4692 87.3473 94.454L87.5137 94.2713C91.8236 89.3395 95.5739 83.3574 98.6438 76.5076L98.8555 76.0357C98.9614 75.8074 99.0672 75.5791 99.1731 75.3355C99.2487 75.1376 99.2941 74.9398 99.2941 74.7267V31.3905C99.2941 31.1621 99.2487 30.949 99.1579 30.7511H99.1882ZM96.33 73.6155C95.8461 73.3415 95.3773 73.0979 94.9388 72.8544C94.8632 72.8239 94.8027 72.7783 94.7271 72.7478C94.349 72.5499 93.9709 72.3521 93.6231 72.1694C93.5022 72.1085 93.3812 72.0476 93.2602 71.9867C92.9729 71.8498 92.7007 71.6975 92.4436 71.5758C92.3075 71.5149 92.1865 71.454 92.0504 71.3931C91.8236 71.2866 91.5967 71.18 91.385 71.0734C91.2489 71.0126 91.1128 70.9517 90.9767 70.8908C90.7952 70.8147 90.6138 70.7233 90.4323 70.6472C90.2962 70.5863 90.1903 70.5407 90.0542 70.495C89.903 70.4341 89.7367 70.358 89.6006 70.3124C89.4796 70.2667 89.3737 70.221 89.2679 70.1754C89.1318 70.1297 88.9957 70.0688 88.8747 70.0231C88.7839 69.9927 88.6781 69.9623 88.5874 69.9318C88.4966 69.9014 88.4059 69.8709 88.3303 69.8405L96.4661 58.1502V73.6764C96.4661 73.6764 96.4359 73.6764 96.4359 73.6611C96.4057 73.6611 96.3905 73.6307 96.3603 73.6155H96.33ZM70.8185 103.602C70.7882 103.48 70.7429 103.374 70.7126 103.252C70.637 102.978 70.5463 102.704 70.4706 102.43C70.4102 102.263 70.3648 102.08 70.3043 101.913C70.2136 101.639 70.138 101.38 70.0472 101.106C70.0019 100.938 69.9414 100.771 69.8809 100.619C69.7901 100.33 69.6843 100.056 69.5935 99.7664C69.5482 99.6294 69.5028 99.5076 69.4574 99.3706C69.3213 98.9748 69.1701 98.5638 69.034 98.1833C68.8828 97.7875 68.7467 97.3918 68.6106 97.0112C68.5803 96.9199 68.535 96.8286 68.5047 96.7372C68.3989 96.4632 68.3081 96.2045 68.2023 95.9457C68.1569 95.8239 68.1115 95.7022 68.0662 95.5956C67.9754 95.3825 67.8998 95.1694 67.8242 94.9715C67.7788 94.8498 67.7335 94.728 67.6881 94.6062C67.6276 94.4388 67.552 94.2865 67.4915 94.1343C67.4613 94.0582 67.431 93.9669 67.4008 93.8908H67.4613C67.4613 93.8908 67.5671 93.8908 67.6125 93.8908C68.293 93.906 69.0189 93.9364 69.7448 93.9517C69.9565 93.9517 70.1833 93.9669 70.395 93.9821C71.0151 94.0126 71.6653 94.043 72.3005 94.0734C72.4819 94.0734 72.6634 94.0887 72.86 94.1039C73.6615 94.1496 74.4781 94.1952 75.2796 94.2409C75.5064 94.2409 75.7333 94.2713 75.9601 94.2865C76.565 94.3322 77.1699 94.3627 77.7748 94.4083C78.0621 94.4235 78.3646 94.454 78.6519 94.4692C79.287 94.5149 79.9071 94.5605 80.5271 94.6062C80.7085 94.6062 80.9051 94.6367 81.0866 94.6519C81.752 94.6975 82.3871 94.7584 83.0374 94.8041C77.7446 100.116 72.981 102.643 70.8336 103.602H70.8185ZM53.7603 100.223C53.6394 100.33 53.5184 100.451 53.4125 100.558C52.8832 101.06 52.3691 101.578 51.8549 102.11C51.749 102.217 51.6432 102.324 51.5373 102.43C51.1139 102.872 50.6905 103.313 50.2822 103.754C50.2066 103.846 50.1158 103.922 50.0402 104.013H49.3295C49.2538 103.922 49.1631 103.846 49.0875 103.754C48.6641 103.313 48.2558 102.872 47.8323 102.43C47.7265 102.324 47.6206 102.217 47.5148 102.11C47.0006 101.593 46.4864 101.075 45.9571 100.558C45.8362 100.436 45.7152 100.33 45.5942 100.208C45.1708 99.7968 44.7473 99.401 44.3239 99.0053C44.1878 98.8835 44.0668 98.7617 43.9307 98.6399C43.4166 98.1681 42.9024 97.7114 42.4034 97.2548C42.3429 97.2091 42.2975 97.1635 42.237 97.1026C41.7833 96.7068 41.3448 96.311 40.9062 95.9457C40.7853 95.8392 40.6643 95.7326 40.5433 95.6413C40.1199 95.276 39.7116 94.9259 39.3184 94.6062C39.273 94.5758 39.2428 94.5453 39.1974 94.4996C38.774 94.1343 38.3657 93.8147 37.9876 93.5102C37.8818 93.4189 37.7759 93.3428 37.6852 93.2515C37.413 93.0384 37.171 92.8253 36.929 92.6426C36.8685 92.5969 36.8081 92.5361 36.7476 92.4904L49.6773 84.2554L62.607 92.4904C62.607 92.4904 62.486 92.5969 62.4255 92.6426C62.1987 92.8253 61.9416 93.0384 61.6694 93.2515C61.5635 93.3428 61.4728 93.4189 61.3518 93.5102C60.9737 93.8147 60.5806 94.1496 60.142 94.5149C60.1118 94.5453 60.0664 94.5758 60.0362 94.6062C59.643 94.9411 59.2195 95.2912 58.7961 95.6565C58.6751 95.7631 58.5541 95.8544 58.4332 95.9609C58.0097 96.3263 57.5561 96.722 57.1024 97.1178C57.0419 97.1634 56.9965 97.2091 56.9361 97.27C56.437 97.7114 55.9228 98.1833 55.4238 98.6552C55.2877 98.7769 55.1667 98.8987 55.0306 99.0205C54.6072 99.4163 54.1838 99.812 53.7452 100.238L53.7603 100.223ZM31.2581 95.6108C31.2128 95.7174 31.1674 95.8239 31.1371 95.9457C31.0313 96.2045 30.9254 96.4785 30.8347 96.7525C30.8044 96.8438 30.7742 96.9199 30.7288 97.0112C30.5927 97.3918 30.4415 97.7723 30.3054 98.1833C30.1693 98.5638 30.0181 98.9596 29.882 99.3706C29.8366 99.4924 29.7912 99.6294 29.7459 99.7511C29.6551 100.04 29.5493 100.33 29.4585 100.619C29.3981 100.771 29.3527 100.938 29.3073 101.091C29.2166 101.365 29.141 101.623 29.0502 101.897C28.9897 102.065 28.9444 102.247 28.8839 102.415C28.7932 102.689 28.7175 102.963 28.6419 103.237C28.6117 103.359 28.5663 103.465 28.5361 103.587C26.3887 102.628 21.6251 100.101 16.3323 94.7889C16.9674 94.7432 17.6177 94.6823 18.2831 94.6367C18.4645 94.6367 18.646 94.6062 18.8275 94.591C19.4475 94.5453 20.0675 94.4996 20.7026 94.454C20.99 94.4388 21.2773 94.4083 21.5797 94.3931C22.1846 94.3474 22.7895 94.317 23.3944 94.2713C23.6213 94.2713 23.8481 94.2409 24.075 94.2257C24.8916 94.18 25.6931 94.1343 26.4945 94.0887C26.676 94.0887 26.8575 94.0734 27.0541 94.0582C27.7043 94.0278 28.3395 93.9973 28.9595 93.9669C29.1712 93.9669 29.3981 93.9517 29.6098 93.9365C30.3356 93.906 31.0615 93.8908 31.742 93.8756C31.7874 93.8756 31.8479 93.8756 31.8933 93.8756H31.9537C31.9537 93.8756 31.8933 94.043 31.863 94.1191C31.8025 94.2713 31.742 94.4235 31.6664 94.591C31.6211 94.7128 31.5757 94.8193 31.5303 94.9411C31.4547 95.1542 31.364 95.3673 31.2732 95.5804L31.2581 95.6108ZM11.5384 89.3243C8.66517 85.5645 6.10947 81.2872 3.87135 76.5228L3.90159 76.5076C4.41576 76.2184 4.9148 75.9444 5.38359 75.7008C5.38359 75.7008 5.41384 75.7008 5.42896 75.6856C5.85239 75.4573 6.2607 75.2442 6.63876 75.0463C6.75974 74.9854 6.88072 74.9245 7.0017 74.8636C7.25878 74.7267 7.51586 74.6049 7.75782 74.4831C7.89392 74.4222 8.03002 74.3461 8.151 74.2852C8.36272 74.1787 8.57443 74.0873 8.77102 73.996C8.892 73.9351 9.01298 73.8742 9.13396 73.8286C9.33056 73.7372 9.51202 73.6611 9.69349 73.585C9.79935 73.5394 9.90521 73.4937 9.99594 73.448C10.253 73.3415 10.4799 73.2349 10.7067 73.1588C10.7823 73.1284 10.8579 73.0979 10.9335 73.0675C11.0696 73.0066 11.2209 72.9609 11.3418 72.9153C11.4326 72.8848 11.5082 72.8544 11.5838 72.8239C11.6897 72.7935 11.7955 72.7478 11.8863 72.7174C11.9165 72.7174 11.9467 72.7022 11.9921 72.6869L11.7653 80.5261L11.5082 89.3547L11.5384 89.3243ZM3.00937 73.6155C3.00937 73.6155 2.94888 73.6459 2.93376 73.6611C2.93376 73.6611 2.90351 73.6611 2.88839 73.6764V58.1502L8.22662 65.822L11.0243 69.8405C11.0243 69.8405 10.8579 69.9014 10.7823 69.9318C10.6765 69.9623 10.5857 69.9927 10.4799 70.0384C10.3438 70.084 10.2077 70.1449 10.0564 70.1906C9.95058 70.2363 9.85984 70.2667 9.75398 70.3124C9.58764 70.3733 9.40617 70.4646 9.20958 70.5407C9.11884 70.5863 9.02811 70.6168 8.92225 70.6625C8.71054 70.7538 8.4837 70.8603 8.25686 70.9517C8.16613 70.9973 8.07539 71.0278 7.98466 71.0734C7.72758 71.1952 7.45537 71.317 7.18317 71.454C7.09243 71.4997 7.01682 71.5301 6.92608 71.5758C6.62364 71.7128 6.32119 71.8802 5.98849 72.0324C5.89776 72.0781 5.82215 72.1237 5.73141 72.1694C5.38359 72.3521 5.00553 72.5499 4.61235 72.7478C4.53674 72.7935 4.47625 72.8239 4.40063 72.8544C3.96208 73.0827 3.49329 73.3415 3.00937 73.6003V73.6155ZM28.521 3.50429C28.5663 3.64128 28.6117 3.77828 28.6419 3.91527C28.7175 4.15882 28.7932 4.41759 28.8688 4.67636C28.9293 4.85902 28.9897 5.04168 29.0351 5.23956C29.1107 5.48311 29.1863 5.74188 29.2771 5.98543C29.3376 6.16809 29.3981 6.35075 29.4585 6.53341C29.5493 6.77696 29.6249 7.03572 29.7156 7.27927C29.7761 7.44671 29.8366 7.61415 29.882 7.76637C29.9878 8.05558 30.0786 8.34479 30.1844 8.61878C30.2298 8.72533 30.26 8.84711 30.3054 8.95366C30.4415 9.3342 30.5776 9.69952 30.7137 10.0496C30.7591 10.1866 30.8196 10.3236 30.8649 10.4606C30.9557 10.6737 31.0313 10.902 31.1069 11.0999C31.1674 11.2521 31.2279 11.3891 31.2732 11.5413C31.3489 11.724 31.4093 11.8914 31.485 12.0589C31.5454 12.2111 31.6059 12.3481 31.6513 12.4851C31.7118 12.6373 31.7723 12.7743 31.8176 12.9113C31.8479 12.9874 31.8781 13.0787 31.9084 13.1549C31.8781 13.1549 31.863 13.1549 31.8328 13.1549C31.7723 13.1549 31.6967 13.1549 31.6362 13.1549C30.9405 13.1396 30.2298 13.1092 29.4888 13.094C29.2922 13.094 29.0805 13.094 28.8839 13.0635C28.2034 13.0331 27.5229 13.0026 26.8121 12.9722C26.676 12.9722 26.5399 12.9722 26.4038 12.957C25.5418 12.9113 24.6798 12.8656 23.8027 12.8048C23.6969 12.8048 23.591 12.8048 23.5003 12.7895C22.7442 12.7439 21.9729 12.6982 21.2168 12.6373C21.0051 12.6373 20.8085 12.6069 20.5968 12.5916C19.8407 12.5308 19.0845 12.4851 18.3284 12.4242C18.2377 12.4242 18.1469 12.4242 18.0713 12.409C17.3455 12.3481 16.6347 12.3024 15.9391 12.2415C20.0524 7.94903 24.2564 5.02646 28.4907 3.53473L28.521 3.50429ZM45.5791 6.79218C45.6849 6.68563 45.8059 6.57907 45.9118 6.47252C46.4411 5.95498 46.9703 5.43745 47.4845 4.90469C47.5904 4.79813 47.6811 4.69158 47.787 4.60025C48.2255 4.15882 48.6489 3.71739 49.0572 3.26074C49.1329 3.16941 49.2236 3.0933 49.2992 3.00197H50.01C50.01 3.00197 50.1461 3.13897 50.2066 3.19985C50.6602 3.68695 51.0988 4.15882 51.5676 4.63069C51.6583 4.72202 51.7339 4.79813 51.8247 4.88946C52.3539 5.42222 52.8832 5.95498 53.4125 6.47252C53.5184 6.57907 53.6242 6.6704 53.7301 6.77696C54.1686 7.20316 54.6072 7.61415 55.0457 8.02514C55.1818 8.14691 55.3028 8.26868 55.4389 8.37523C55.9531 8.84711 56.4673 9.31898 56.9663 9.76041C57.0117 9.80608 57.057 9.85174 57.1175 9.89741C57.5863 10.3084 58.0249 10.7042 58.4634 11.0847C58.5844 11.1912 58.6903 11.2826 58.8112 11.3739C59.2649 11.7697 59.7035 12.135 60.1269 12.4851C60.1269 12.4851 60.1269 12.4851 60.142 12.5003C60.5957 12.8809 61.0191 13.231 61.4123 13.5506C61.4728 13.5963 61.5182 13.6419 61.5786 13.6876C61.9567 13.992 62.3045 14.266 62.607 14.5248L49.6773 22.7597L36.7476 14.5248C37.05 14.2813 37.3978 13.992 37.7759 13.6876C37.8364 13.6419 37.8818 13.5963 37.9422 13.5506C38.3354 13.231 38.7589 12.8809 39.2277 12.5003C39.6511 12.1502 40.1048 11.7545 40.5736 11.3587C40.6794 11.2674 40.7853 11.176 40.8911 11.0847C41.3448 10.6889 41.7985 10.2932 42.2824 9.86696C42.3126 9.83652 42.358 9.80608 42.3882 9.76041C42.8873 9.30376 43.4014 8.84711 43.9307 8.36001C44.0517 8.23824 44.1727 8.13169 44.3088 8.00991C44.7473 7.61415 45.1708 7.20316 45.6093 6.77696L45.5791 6.79218ZM68.0359 11.5109C68.0964 11.3739 68.1418 11.2217 68.2023 11.0695C68.2779 10.8564 68.3686 10.6433 68.4442 10.4302C68.5047 10.2932 68.5501 10.1562 68.6106 10.0192C68.7467 9.66908 68.8828 9.30376 69.0189 8.92322C69.0643 8.81666 69.0945 8.69489 69.1399 8.58834C69.2457 8.31435 69.3365 8.02514 69.4423 7.73592C69.5028 7.58371 69.5482 7.41627 69.6087 7.24883C69.6994 6.99006 69.775 6.74651 69.8658 6.48774C69.9262 6.30508 69.9867 6.13764 70.0472 5.95498C70.1228 5.71144 70.2136 5.45267 70.2892 5.20912C70.3497 5.02646 70.4102 4.8438 70.4555 4.64592C70.5311 4.40237 70.6068 4.1436 70.6824 3.88483C70.7277 3.74784 70.7731 3.61084 70.8033 3.47385C75.0376 4.96557 79.2417 7.87292 83.355 12.1807C82.6593 12.2415 81.9486 12.2872 81.2227 12.3481C81.132 12.3481 81.0564 12.3481 80.9656 12.3633C80.2246 12.4242 79.4685 12.4699 78.6973 12.5308C78.4855 12.546 78.289 12.5612 78.0772 12.5764C77.3211 12.6221 76.5499 12.683 75.7937 12.7286C75.6879 12.7286 75.5972 12.7286 75.4913 12.7439C74.6142 12.8048 73.7522 12.8504 72.8902 12.8961C72.7541 12.8961 72.618 12.8961 72.4819 12.9113C71.7863 12.9417 71.0907 12.9722 70.4102 13.0026C70.2136 13.0026 70.0019 13.0179 69.8053 13.0331C69.0643 13.0635 68.3535 13.0787 67.6579 13.094C67.5974 13.094 67.5218 13.094 67.4613 13.094C67.431 13.094 67.4159 13.094 67.3857 13.094C67.4159 13.0179 67.4462 12.9265 67.4915 12.8504C67.552 12.7134 67.5974 12.5764 67.6579 12.4242C67.7184 12.2872 67.7788 12.1502 67.8242 11.998C67.8847 11.8306 67.9603 11.6631 68.0359 11.4805V11.5109ZM83.2642 91.8054C82.8408 91.775 82.4174 91.7445 81.994 91.7141C81.6159 91.6836 81.2378 91.6532 80.8447 91.6227C80.2549 91.5771 79.6651 91.5314 79.0602 91.501C78.8031 91.4858 78.546 91.4705 78.289 91.4401C77.427 91.3792 76.565 91.3183 75.703 91.2727C75.4762 91.2727 75.2493 91.2422 75.0225 91.227C74.3722 91.1813 73.7371 91.1509 73.102 91.1204C72.7844 91.1052 72.4819 91.09 72.1644 91.0748C71.6351 91.0443 71.1058 91.0291 70.5916 90.9987C70.2589 90.9987 69.9262 90.9682 69.5935 90.9682C69.1096 90.953 68.6408 90.9378 68.1872 90.9225C67.8545 90.9225 67.5218 90.9073 67.2042 90.8921C67.0832 90.8921 66.9622 90.8921 66.8564 90.8921L69.034 76.5685L84.4589 72.7478V72.8848L85.0033 91.9576C84.8823 91.9576 84.7462 91.9424 84.6101 91.9272C84.1716 91.8967 83.733 91.8511 83.2794 91.8206L83.2642 91.8054ZM31.1523 90.9225C30.6835 90.9225 30.2147 90.953 29.7307 90.9682C29.3981 90.9682 29.0654 90.9987 28.7327 90.9987C28.2185 91.0139 27.6892 91.0443 27.1599 91.0748C26.8424 91.0748 26.5399 91.1052 26.2223 91.1204C25.5872 91.1509 24.9521 91.1965 24.3169 91.227C24.0901 91.227 23.8632 91.2574 23.6364 91.2727C22.7744 91.3183 21.9124 91.3792 21.0505 91.4401C20.7934 91.4553 20.5363 91.4705 20.2792 91.501C19.6743 91.5466 19.0845 91.5923 18.4948 91.6227C18.1016 91.6532 17.7235 91.6836 17.3455 91.7141C16.922 91.7445 16.4986 91.775 16.0752 91.8054C15.6215 91.8359 15.1829 91.8815 14.7444 91.912C14.6234 91.912 14.4873 91.9272 14.3512 91.9424L14.8956 72.8696V72.7326L28.0824 76.0053L30.3205 76.5533L30.7591 79.4911L32.483 90.8769C32.3772 90.8769 32.2562 90.8769 32.1352 90.8769C31.8176 90.8769 31.485 90.8921 31.1523 90.9073V90.9225ZM15.6971 15.1946C16.2718 15.2402 16.8464 15.2859 17.4513 15.3316C17.7235 15.3468 17.9957 15.3772 18.2831 15.3924C18.9484 15.4381 19.6138 15.4838 20.2792 15.5294C20.4909 15.5294 20.7026 15.5599 20.9144 15.5751C21.8066 15.636 22.7139 15.6969 23.6062 15.7425C23.6818 15.7425 23.7574 15.7425 23.8481 15.7425C24.6496 15.7882 25.436 15.8339 26.2223 15.8795C26.4794 15.8795 26.7214 15.91 26.9785 15.91C27.5985 15.9404 28.2034 15.9709 28.8083 15.9861C29.0805 15.9861 29.3376 16.0013 29.6098 16.0165C30.1995 16.047 30.7742 16.0622 31.3337 16.0774C31.5606 16.0774 31.7874 16.0774 32.0142 16.0926C32.1655 16.0926 32.3318 16.0926 32.483 16.0926L30.7893 27.2806L30.3205 30.4163L26.6155 31.3296L14.8956 34.2369L14.8049 30.7664L14.3512 15.0271C14.5327 15.0271 14.7444 15.0576 14.9259 15.0728C15.1829 15.088 15.44 15.1185 15.7122 15.1337L15.6971 15.1946ZM67.9906 16.1079C68.5501 16.1079 69.1247 16.0774 69.7145 16.047C69.9716 16.047 70.2438 16.0318 70.516 16.0165C71.1209 15.9861 71.7258 15.9709 72.3458 15.9404C72.6029 15.9404 72.8449 15.91 73.102 15.91C73.8883 15.8643 74.6747 15.8186 75.4762 15.773C75.5518 15.773 75.6274 15.773 75.7181 15.773C76.6104 15.7121 77.5177 15.6664 78.4099 15.6055C78.6217 15.5903 78.8334 15.5751 79.0451 15.5599C79.7105 15.5142 80.391 15.4685 81.0412 15.4229C81.3286 15.4077 81.5857 15.3772 81.873 15.362C82.4628 15.3163 83.0525 15.2707 83.6272 15.225C83.8994 15.2098 84.1565 15.1793 84.4136 15.1641C84.6101 15.1641 84.8067 15.1337 84.9882 15.1185L84.5497 30.8577L84.4589 34.3282L69.034 30.5076L66.8564 16.184C67.0076 16.184 67.174 16.184 67.3252 16.184C67.552 16.184 67.7789 16.184 68.0057 16.1687L67.9906 16.1079ZM81.2983 41.7412L76.9431 50.0827L73.2078 41.041L70.2287 33.8411L83.6877 37.1747L81.3134 41.726L81.2983 41.7412ZM34.7968 86.9497L33.3904 77.6644L46.3957 82.8246L35.2504 89.9179L34.7968 86.9497ZM16.1508 68.912L22.3812 56.9477L29.1107 73.174L15.6517 69.8405L16.1357 68.912H16.1508ZM15.6669 37.1899L29.1259 33.8564L26.2526 40.7822L22.3964 50.0979L17.8596 41.3911L15.6669 37.2051V37.1899ZM35.2504 17.1125L46.3957 24.2058L35.5227 28.5136L33.3904 29.366L34.4036 22.6684L35.2504 17.1125ZM32.6645 74.1635L24.1052 53.5228L32.6645 32.8822L49.647 26.1542H49.6621L62.0928 31.0708L66.6598 32.8822L75.2191 53.5228L72.0131 61.2402L66.6598 74.1635L62.6826 75.7465L49.6621 80.9067L47.9987 80.2521L32.6645 74.1635ZM64.2553 78.3342L65.9339 77.6644L64.0738 89.9179L52.9286 82.8246L64.2553 78.3342ZM64.0738 17.1125L65.9339 29.366L52.9286 24.2058L61.6694 18.6347L64.0738 17.0973V17.1125ZM70.2136 73.1893L75.4913 60.4487L76.9431 56.9477L82.6291 67.8617L83.6726 69.8557L70.2136 73.1893ZM3.22108 53.5228L12.9599 39.5188L13.3229 39.0013L20.8992 53.5228L13.3229 68.0443L5.45921 56.7346L3.22108 53.5228ZM86.0014 68.0443L84.8672 65.8676L78.4251 53.5228L86.0014 39.0013L92.7309 48.6823L96.1032 53.5228L86.0014 68.0443ZM96.4359 33.3541V48.8802L93.2451 44.2985L88.3 37.1899C88.421 37.1443 88.542 37.0986 88.663 37.0529C88.7386 37.0225 88.7991 37.0073 88.8596 36.9768C89.0108 36.9159 89.1771 36.855 89.3435 36.7942C89.4342 36.7637 89.5098 36.7333 89.6006 36.6876C89.782 36.6115 89.9786 36.5354 90.1752 36.4441C90.2659 36.4136 90.3416 36.368 90.4474 36.3375C90.7347 36.2157 91.0372 36.0787 91.3548 35.9265C91.3699 35.9265 91.385 35.9265 91.4001 35.9113C92.0806 35.5916 92.8519 35.2263 93.7139 34.7849C93.7895 34.7544 93.8802 34.6936 93.9709 34.6479C94.3188 34.4652 94.6968 34.2674 95.0749 34.0695C95.1959 34.0086 95.3168 33.9325 95.4378 33.8716C95.7554 33.7042 96.0578 33.5367 96.4057 33.3541H96.4359ZM95.6798 30.3706C95.1656 30.6598 94.6666 30.9338 94.1978 31.1926C94.1524 31.223 94.0919 31.2535 94.0466 31.2687C93.6383 31.4818 93.2451 31.6949 92.867 31.8928C92.746 31.9537 92.6402 32.0145 92.5192 32.0754C92.2167 32.2276 91.9294 32.3799 91.6572 32.5169C91.5514 32.5777 91.4304 32.6234 91.3245 32.6843C91.0523 32.8061 90.8103 32.9278 90.5684 33.0496C90.4777 33.0953 90.3869 33.141 90.2962 33.1714C90.0089 33.3084 89.7367 33.4302 89.4796 33.5367C89.4644 33.5367 89.4342 33.5519 89.404 33.5672C89.1166 33.6889 88.8596 33.7955 88.6025 33.902C88.5571 33.9173 88.5269 33.9325 88.4966 33.9477C88.3 34.0238 88.1186 34.0999 87.9522 34.1608C87.8917 34.176 87.8312 34.2065 87.7859 34.2217C87.6498 34.2674 87.5137 34.313 87.3927 34.3587C87.3624 34.3587 87.3322 34.3739 87.3019 34.3891L87.7859 17.4778C91.7479 22.6989 94.5002 27.859 95.7554 30.3554C95.7252 30.3554 95.6949 30.3858 95.6798 30.401V30.3706ZM67.8545 3.2303C67.7637 3.51951 67.673 3.80872 67.5823 4.09794C67.5369 4.23493 67.4915 4.37193 67.4462 4.50892C67.3403 4.87424 67.2193 5.22434 67.0983 5.57444C67.0832 5.63533 67.053 5.69621 67.0378 5.7571C66.9017 6.16809 66.7505 6.57907 66.6144 6.97484C66.5691 7.09661 66.5237 7.20316 66.4934 7.32494C66.3876 7.59893 66.2968 7.87292 66.2061 8.14691C66.1456 8.2839 66.1003 8.43612 66.0398 8.57312C65.949 8.80144 65.8734 9.02977 65.7827 9.24287C65.7222 9.39509 65.6768 9.53208 65.6163 9.6843C65.5407 9.88218 65.4651 10.0801 65.3895 10.2627C65.329 10.3997 65.2836 10.5519 65.2232 10.6737C65.1475 10.8564 65.0871 11.0238 65.0114 11.1913C64.9661 11.313 64.9056 11.4348 64.8602 11.5566C64.7544 11.8153 64.6636 12.0437 64.5729 12.272C64.5729 12.2872 64.5578 12.3177 64.5426 12.3329C64.5124 12.3177 64.4822 12.2872 64.467 12.272C64.2402 12.0893 63.9982 11.9067 63.7412 11.6936C63.6353 11.6022 63.5143 11.5109 63.3933 11.4196C63.1967 11.2521 62.985 11.0847 62.7733 10.9173C62.6372 10.7955 62.486 10.6737 62.3196 10.5519C62.0928 10.3693 61.866 10.1714 61.6391 9.97351C61.4879 9.85174 61.3518 9.72997 61.1855 9.59297C60.8528 9.30376 60.5049 8.99932 60.142 8.69489C60.0815 8.634 60.021 8.58834 59.9605 8.52745C59.5371 8.16213 59.1137 7.78159 58.6751 7.40105C58.539 7.27927 58.4029 7.1575 58.2668 7.03572C57.9493 6.74651 57.6317 6.4573 57.3141 6.16809C57.1629 6.03109 56.9965 5.87887 56.8453 5.72666C56.5277 5.42222 56.195 5.11779 55.8775 4.81336C55.7263 4.67636 55.5901 4.53936 55.4389 4.38715C55.0306 3.99138 54.6223 3.5804 54.214 3.18463C54.1686 3.13897 54.1233 3.0933 54.0628 3.04764H67.8998C67.8998 3.04764 67.8545 3.19985 67.8393 3.26074L67.8545 3.2303ZM45.1708 3.06286C44.7322 3.50429 44.2937 3.9305 43.8551 4.3567C43.719 4.47848 43.5829 4.61547 43.4468 4.73725C43.1141 5.0569 42.7663 5.37656 42.4336 5.69621C42.2824 5.83321 42.1463 5.9702 41.9951 6.09198C41.6472 6.41163 41.2994 6.73129 40.9667 7.03572C40.8609 7.12705 40.7399 7.23361 40.634 7.34016C39.7267 8.14691 38.8647 8.90799 38.0481 9.59297C37.9422 9.6843 37.8364 9.76041 37.7457 9.85174C37.4583 10.0953 37.171 10.3388 36.8837 10.5672C36.7778 10.6585 36.672 10.7498 36.5661 10.8259C36.2939 11.0543 36.0368 11.2521 35.7949 11.45C35.7192 11.5109 35.6436 11.5718 35.568 11.6327C35.2807 11.861 35.0236 12.0741 34.7968 12.2568C34.7817 12.2568 34.7514 12.2872 34.7363 12.3024C34.6304 12.0589 34.5246 11.8001 34.4187 11.5109C34.3885 11.45 34.3582 11.3739 34.328 11.2978C34.2372 11.0847 34.1616 10.8716 34.0709 10.6433C34.0255 10.5215 33.965 10.3845 33.9197 10.2627C33.8441 10.0648 33.7684 9.86696 33.6928 9.66908C33.6323 9.53208 33.5719 9.37987 33.5265 9.22765C33.4509 9.01455 33.3601 8.80144 33.2845 8.57312C33.224 8.4209 33.1787 8.2839 33.1182 8.11647C33.0274 7.8577 32.9216 7.59893 32.8309 7.32494C32.7855 7.20316 32.7401 7.08139 32.6948 6.94439C32.5587 6.54863 32.4225 6.15287 32.2713 5.74188C32.2411 5.68099 32.226 5.60488 32.2108 5.544C32.0899 5.1939 31.984 4.8438 31.863 4.4937C31.8176 4.3567 31.7874 4.23493 31.742 4.09794C31.6513 3.7935 31.5606 3.50429 31.4698 3.19985C31.4547 3.12375 31.4245 3.06286 31.4093 2.98675H45.2313C45.2313 2.98675 45.1859 3.03242 45.1708 3.04764V3.06286ZM11.7501 25.6367L11.9921 34.3587C11.9921 34.3587 11.9014 34.3282 11.856 34.313C11.7653 34.2826 11.6594 34.2521 11.5536 34.2065C11.4779 34.176 11.4023 34.1456 11.3116 34.1151C11.1604 34.0543 10.994 33.9934 10.8277 33.9325C10.7672 33.9173 10.7218 33.902 10.6765 33.8716C10.4345 33.7803 10.1774 33.6585 9.89009 33.5367C9.85984 33.5367 9.84472 33.5215 9.81447 33.5063C9.55739 33.3997 9.28519 33.2627 8.99786 33.141C8.92225 33.1105 8.83151 33.0648 8.7559 33.0344C8.49882 32.9126 8.24174 32.7909 7.96953 32.6539C7.8788 32.6082 7.77294 32.5625 7.66709 32.5016C7.37976 32.3646 7.07731 32.1972 6.75974 32.045C6.669 31.9993 6.56315 31.9537 6.47241 31.8928C6.06411 31.6797 5.6558 31.4666 5.20213 31.223C5.187 31.223 5.15676 31.2078 5.14164 31.1926C4.67284 30.9338 4.15868 30.6598 3.64451 30.3706C3.61427 30.3706 3.59914 30.3402 3.5689 30.3249C4.80894 27.8286 7.57635 22.6836 11.5384 17.4474L11.7653 25.6214L11.7501 25.6367ZM4.23429 34.0999C4.55186 34.2674 4.83919 34.4196 5.14164 34.5718C5.29286 34.6479 5.44408 34.724 5.58019 34.8001C5.97337 34.998 6.33631 35.1807 6.68413 35.3481C6.71437 35.3633 6.75974 35.3785 6.78998 35.3938C7.56123 35.7743 8.24174 36.0787 8.84664 36.3527C8.90713 36.3832 8.95249 36.3984 9.01298 36.4136C9.25494 36.5202 9.48178 36.6115 9.69349 36.7028C9.75398 36.7333 9.81447 36.7485 9.89009 36.7789C10.0867 36.855 10.2681 36.9312 10.4496 36.992C10.5101 37.0073 10.5706 37.0377 10.6311 37.0529C10.7672 37.0986 10.9033 37.1443 11.0091 37.1899L6.07923 44.2985L2.88839 48.8802V33.3541C3.19084 33.5215 3.46304 33.6585 3.73525 33.8107C3.90159 33.902 4.08306 33.9934 4.24941 34.0847L4.23429 34.0999ZM31.4547 103.846C31.5454 103.541 31.6362 103.237 31.7269 102.932C31.7723 102.811 31.8025 102.674 31.8479 102.552C31.9689 102.156 32.105 101.776 32.226 101.395C32.2562 101.289 32.3016 101.182 32.3318 101.06C32.4377 100.741 32.5435 100.421 32.6645 100.116C32.725 99.949 32.7855 99.7816 32.846 99.6141C32.9216 99.401 33.0123 99.1727 33.0879 98.9596C33.1484 98.7922 33.2089 98.6095 33.2845 98.4421C33.3601 98.2442 33.4358 98.0463 33.5114 97.8484C33.5719 97.6962 33.6323 97.5288 33.6928 97.3765C33.7684 97.1787 33.8441 96.9808 33.9197 96.7829C33.965 96.6611 34.0255 96.5241 34.0709 96.4024C34.1768 96.1284 34.2826 95.8696 34.3733 95.6261C34.3733 95.5956 34.4036 95.5652 34.4187 95.5347C34.5397 95.2455 34.6455 94.9715 34.7514 94.7128C34.7817 94.7432 34.827 94.7736 34.8724 94.8041C35.0841 94.9715 35.2958 95.139 35.5378 95.3368C35.6739 95.4434 35.81 95.5652 35.9461 95.6717C36.1124 95.8087 36.2939 95.9609 36.4754 96.1132C36.6417 96.2502 36.8081 96.3871 36.9895 96.5394C37.171 96.6916 37.3827 96.859 37.5793 97.0265C37.7608 97.1787 37.9422 97.3309 38.1237 97.4983C38.3808 97.7114 38.6379 97.9398 38.895 98.1681C39.1067 98.3507 39.3335 98.5486 39.5452 98.7465C39.8779 99.0357 40.2106 99.3249 40.5584 99.6294C40.7399 99.7816 40.9214 99.949 41.1028 100.116C41.375 100.36 41.6472 100.604 41.9194 100.847C42.116 101.015 42.2975 101.197 42.4941 101.38C42.7814 101.654 43.0688 101.913 43.3561 102.187C43.5376 102.354 43.7039 102.521 43.8854 102.689C44.2634 103.054 44.6264 103.42 45.0044 103.785C45.08 103.861 45.1557 103.937 45.2313 104.013H31.4093C31.4093 104.013 31.4396 103.891 31.4547 103.846ZM54.3199 103.8C54.6979 103.435 55.076 103.054 55.4389 102.689C55.6053 102.521 55.7716 102.369 55.9531 102.202C56.2555 101.913 56.5429 101.639 56.8453 101.365C57.0268 101.197 57.2083 101.03 57.3897 100.862C57.6771 100.604 57.9492 100.345 58.2366 100.086C58.4029 99.9338 58.5844 99.7664 58.7507 99.6294C59.1288 99.2945 59.4917 98.9748 59.8547 98.6552C60.021 98.503 60.2025 98.366 60.3688 98.2137C60.6562 97.9702 60.9435 97.7266 61.2157 97.4983C61.3972 97.3461 61.5786 97.1939 61.745 97.0417C61.9567 96.8742 62.1533 96.6916 62.3499 96.5394C62.5162 96.4024 62.6826 96.2654 62.8489 96.1284C63.0455 95.9762 63.227 95.8239 63.3933 95.6717C63.5294 95.5652 63.6655 95.4434 63.8016 95.3368C64.0436 95.139 64.2553 94.9715 64.467 94.8041C64.4973 94.7736 64.5578 94.7432 64.588 94.7128C64.6939 94.9563 64.7997 95.2455 64.9207 95.5347C64.9207 95.5652 64.9358 95.5956 64.951 95.6108C65.0568 95.8544 65.1627 96.1284 65.2685 96.4024C65.3139 96.5241 65.3593 96.6459 65.4197 96.7677C65.4954 96.9656 65.571 97.1634 65.6617 97.3765C65.7222 97.5288 65.7676 97.681 65.828 97.8332C65.9037 98.0311 65.9793 98.2442 66.07 98.4573C66.1305 98.6095 66.191 98.7769 66.2515 98.9292C66.3422 99.1575 66.4178 99.401 66.5086 99.6446C66.5691 99.7968 66.6144 99.949 66.6749 100.101C66.7959 100.467 66.932 100.832 67.053 101.212C67.053 101.243 67.0832 101.273 67.0832 101.304C67.2193 101.715 67.3554 102.141 67.4915 102.552C67.5369 102.674 67.5671 102.795 67.6125 102.917C67.7032 103.222 67.8091 103.526 67.8998 103.846C67.915 103.907 67.9301 103.968 67.9452 104.013H54.1233C54.1233 104.013 54.2745 103.861 54.3501 103.8H54.3199ZM87.3171 72.6717C87.3171 72.6717 87.3927 72.687 87.4229 72.7022C87.5137 72.7326 87.6195 72.7631 87.7103 72.8087C87.801 72.8392 87.8766 72.8696 87.9673 72.9C88.1034 72.9457 88.2395 73.0066 88.3908 73.0523C88.4664 73.0827 88.5269 73.1132 88.6025 73.1436C88.8293 73.2349 89.0562 73.3263 89.3132 73.448C89.404 73.4937 89.5098 73.5394 89.6006 73.5698C89.782 73.6459 89.9786 73.7372 90.1752 73.8286C90.2962 73.8742 90.402 73.9351 90.523 73.996C90.7196 74.0873 90.9464 74.1939 91.1582 74.3004C91.2791 74.3613 91.4152 74.4222 91.5362 74.4831C91.7933 74.6049 92.0504 74.7419 92.3226 74.8789C92.4436 74.9398 92.5494 75.0006 92.6704 75.0615C93.0636 75.2594 93.4719 75.4725 93.9105 75.7161C93.9105 75.7161 93.9105 75.7161 93.9256 75.7161C94.3944 75.9596 94.8934 76.2336 95.4076 76.5228C95.4076 76.5228 95.4378 76.5228 95.4529 76.538C93.2299 81.2872 90.6591 85.5797 87.7859 89.3395L87.3171 72.6869V72.6717Z" fill="#860117"/>
</svg>
