<svg width="115" height="113" viewBox="0 0 115 113" fill="none" xmlns="http://www.w3.org/2000/svg">
<path id="Vector" d="M113.629 27.6472C110.408 11.3905 98.6277 4.34281 98.0228 3.99271C93.607 1.89212 89.1913 0.826599 84.8662 0.826599C81.9627 0.826599 79.271 1.29847 76.7758 2.09C76.7758 2.09 76.7757 2.09 76.7606 2.09C66.8705 5.21045 60.2771 13.2932 57.6156 17.129C54.954 13.2932 48.3455 5.21045 38.4706 2.09C38.4706 2.09 38.4705 2.09 38.4554 2.09C35.9602 1.31369 33.2685 0.826599 30.3649 0.826599C26.0399 0.826599 21.6242 1.89212 17.0874 4.0536C16.5884 4.34281 4.82312 11.3905 1.58691 27.6472C0.740053 31.9093 0.573697 36.3693 1.05762 41.0119C0.770289 41.4686 0.709771 42.0622 0.981976 42.5797C1.07271 42.732 1.1786 42.8537 1.29958 42.9603C3.11427 55.8683 9.874 70.1919 21.5637 85.7637C28.0361 94.3792 55.6497 111.26 56.8292 111.975C56.8292 111.975 56.8443 111.975 56.8595 111.975C56.9351 112.021 57.0107 112.052 57.1014 112.082C57.1317 112.097 57.1619 112.112 57.2073 112.128C57.2073 112.128 57.2073 112.128 57.2224 112.128C57.3434 112.158 57.4644 112.173 57.5854 112.173C57.5854 112.173 57.6005 112.173 57.6156 112.173C57.6156 112.173 57.6307 112.173 57.6458 112.173C57.7668 112.173 57.8878 112.158 58.0088 112.128C58.0088 112.128 58.0088 112.128 58.0239 112.128C58.0541 112.128 58.0844 112.097 58.1146 112.082C58.1902 112.052 58.281 112.021 58.3566 111.975C58.3566 111.975 58.3717 111.975 58.3868 111.975C59.5664 111.26 87.18 94.3792 93.6524 85.7637C105.342 70.1919 112.102 55.8683 113.917 42.9603C114.037 42.8537 114.158 42.732 114.234 42.5797C114.506 42.0622 114.461 41.4838 114.158 41.0119C114.642 36.3693 114.461 31.8941 113.629 27.6472ZM111.255 39.1549L103.663 34.908L108.775 22.0152C109.531 23.9179 110.181 25.9729 110.635 28.2561C111.315 31.7419 111.512 35.3799 111.24 39.1549H111.255ZM109.365 49.8709L104.858 39.1244L110.907 42.5036C110.574 44.9087 110.06 47.3594 109.365 49.8862V49.8709ZM73.3127 98.5956L70.1521 95.8101L83.3238 91.274C80.269 93.679 76.7606 96.2058 73.3278 98.5804L73.3127 98.5956ZM31.8923 91.274L45.064 95.8101L41.9033 98.5956C38.4554 96.221 34.947 93.6942 31.8923 91.274ZM4.2938 42.4884L10.3277 39.1092L5.83632 49.8557C5.14068 47.3441 4.62649 44.8782 4.2938 42.4732V42.4884ZM59.1278 21.8782L64.708 23.1416L59.1278 27.2363V21.8782ZM56.0882 27.2363L50.508 23.1416L56.0882 21.8782V27.2363ZM56.7234 31.4983C56.7234 31.4983 56.7839 31.5288 56.8141 31.544C56.8443 31.5744 56.8897 31.6049 56.92 31.6201C56.9502 31.6201 56.9805 31.6201 57.0107 31.6353C57.2073 31.7267 57.4039 31.7875 57.6156 31.7875C57.8273 31.7875 58.039 31.7267 58.2356 31.6353C58.2659 31.6353 58.2961 31.6353 58.3112 31.6201C58.3566 31.6049 58.3868 31.5592 58.4322 31.544C58.4625 31.5288 58.4927 31.5136 58.5229 31.4983L68.6852 24.0549L85.2292 28.2713V50.6472L73.6756 68.7763L57.6307 81.9887L41.6009 68.7763L30.0473 50.6472V28.2713L46.5762 24.0549L56.7536 31.4983H56.7234ZM100.987 33.4011L88.2386 26.1555V11.6797L106.703 19.0013L100.987 33.4163V33.4011ZM66.5076 92.0807L59.7781 84.1654L71.8761 74.1952L66.4925 92.0807H66.5076ZM48.7084 92.0807L43.3249 74.1952L55.4228 84.1654L48.7084 92.0807ZM26.9775 47.3289L15.9381 35.9583L26.9775 29.687V47.3289ZM28.7468 54.3461L37.1851 67.589L24.195 64.9557L28.7468 54.3461ZM39.2267 71.1509L45.7293 92.7962L26.297 86.1138L23.832 68.0457L39.2115 71.1661L39.2267 71.1509ZM57.6005 86.3269L65.2675 95.3534L57.6005 107.744L49.9485 95.3534L57.6005 86.3269ZM75.9742 71.1509L91.3538 68.0304L88.8888 86.0986L69.4565 92.7809L75.9591 71.1357L75.9742 71.1509ZM78.0158 67.589L86.4541 54.3461L91.006 64.9557L78.0158 67.589ZM88.2386 29.687L99.2628 35.9583L88.2386 47.3289V29.687ZM85.1989 12.3647V25.0748L71.9668 21.6956L85.1989 12.3494V12.3647ZM30.0171 25.0748V12.3647L43.2493 21.7108L30.0171 25.09V25.0748ZM26.9775 26.1555L14.2293 33.4011L8.51297 18.9861L26.9775 11.6645V26.1403V26.1555ZM13.9722 38.3329L26.6901 51.4388L21.4124 63.7379L7.54512 53.7373L13.9873 38.3329H13.9722ZM47.7104 97.5605L52.8369 105.856C50.4778 104.349 47.5743 102.462 44.5044 100.392L47.7104 97.5758V97.5605ZM67.4905 97.5605L70.6965 100.377C67.6266 102.447 64.7231 104.334 62.364 105.841L67.4905 97.5605ZM93.8036 63.7379L88.5259 51.4388L101.244 38.3329L107.686 53.7373L93.8036 63.7379ZM104.994 14.998L90.023 9.06154L94.7563 5.91065C95.3764 6.1542 96.0115 6.42819 96.6315 6.7174C96.7071 6.76306 101.047 9.36598 105.009 14.9828L104.994 14.998ZM91.0211 4.70813L86.681 7.58504L81.1461 4.22104C82.3408 4.02316 83.5808 3.90138 84.8662 3.90138C86.8926 3.90138 88.9644 4.17537 91.0211 4.69291V4.70813ZM76.9723 5.28656L83.9135 9.50297L68.0198 20.7214L60.0956 18.9404C62.4699 15.5612 68.3525 8.31568 76.9723 5.28656ZM55.1053 18.9404L47.1811 20.7214L31.2874 9.50297L38.2286 5.28656C46.8181 8.31568 52.7159 15.546 55.1053 18.9252V18.9404ZM34.0548 4.23626L28.52 7.60026L24.195 4.72336C26.2667 4.20582 28.3234 3.93183 30.3498 3.93183C31.6352 3.93183 32.8601 4.0536 34.0548 4.25148V4.23626ZM18.4787 6.79351C19.1441 6.47385 19.8095 6.19986 20.4748 5.94109L25.193 9.07676L10.237 14.998C14.1839 9.41164 18.4938 6.79351 18.4938 6.79351H18.4787ZM4.5509 28.3322C5.00457 26.0337 5.65482 23.9484 6.42607 22.0304L11.5375 34.908L3.94601 39.1549C3.68893 35.3951 3.87039 31.7875 4.5509 28.3322ZM8.89104 58.5017L20.6261 66.9649L22.6978 82.141C16.6337 73.8604 12.0214 65.9603 8.89104 58.5017ZM92.5031 82.141L94.5749 66.9649L106.325 58.5017C103.18 65.9603 98.5672 73.8451 92.5182 82.141H92.5031Z" fill="#860117"/>
</svg>
