<svg width="119" height="89" viewBox="0 0 119 89" fill="none" xmlns="http://www.w3.org/2000/svg">
<path id="Vector" d="M118.783 62.9867V25.998C118.783 25.8001 118.738 25.6175 118.662 25.4348C118.662 25.3891 118.632 25.3587 118.617 25.3282C118.541 25.176 118.451 25.0238 118.314 24.902L93.6346 1.29316C93.3624 1.03439 93.0146 0.8974 92.6516 0.8974H25.7801C25.4172 0.8974 25.0543 1.04962 24.7972 1.30839L0.691983 24.9173C0.571003 25.039 0.480265 25.176 0.404652 25.3282C0.38953 25.3587 0.374409 25.4043 0.359287 25.4348C0.283674 25.6022 0.238281 25.8001 0.238281 25.9828C0.238281 25.9828 0.238281 25.9828 0.238281 25.998V62.9867C0.238281 62.9867 0.238281 62.9867 0.238281 63.002C0.238281 63.1846 0.28366 63.3673 0.34415 63.5499C0.359272 63.5956 0.374393 63.6261 0.389515 63.6565C0.465127 63.8087 0.555866 63.9457 0.676845 64.0827L24.782 87.6916C25.0542 87.9503 25.4021 88.1026 25.765 88.1026H92.6365C92.9994 88.1026 93.3472 87.9656 93.6194 87.7068L118.299 64.0979C118.42 63.9762 118.526 63.8239 118.602 63.6717C118.617 63.6261 118.632 63.5956 118.647 63.5499C118.723 63.3673 118.768 63.1846 118.768 62.9867H118.783ZM3.11154 61.1754V27.7789L9.70495 29.0271V59.9272L6.3024 60.5665L3.11154 61.1754ZM17.7047 66.1224L15.2095 63.4282L16.4042 63.6413L22.0297 64.6155L24.1469 73.0787L17.7047 66.1376V66.1224ZM47.7531 18.8438L37.122 21.1423L25.1601 23.73L27.9275 12.6333L35.8214 15.0993L47.7531 18.8438ZM47.7531 70.1257L27.9426 76.3362L25.1752 65.2396L47.7681 70.1257H47.7531ZM20.8653 27.6115L17.0544 37.2316L13.2587 28.9358L14.3778 28.7379L20.8653 27.6115ZM13.2587 60.0337L17.0544 51.7379L20.8653 61.358L14.3778 60.2316L13.2587 60.0337ZM22.0297 24.3693L15.2095 25.5566L24.1469 15.906L22.0297 24.3693ZM12.5782 34.4156L15.7237 41.2806V47.7041L12.5782 54.5691V34.4308V34.4156ZM53.7567 68.3448L37.0161 64.722L24.2376 61.9669L18.6121 47.7346V41.2349L24.2376 27.0026L35.1712 24.6433L53.7567 20.6247H65.2346L84.047 24.6889L94.7536 27.0026L100.379 41.2349V47.7346L94.7536 61.9669L82.1415 64.6916L65.2346 68.3448H53.7567ZM92.4399 70.8259L91.0637 76.3362L71.2533 70.1257L93.8463 65.2396L92.455 70.8259H92.4399ZM105.733 28.9358L101.937 37.2316L98.126 27.6115L104.613 28.7379L105.733 28.9358ZM98.126 61.358L101.544 52.6969L101.922 51.7379L105.717 60.0337L104.598 60.2316L98.1108 61.358H98.126ZM103.797 25.5566L96.9766 24.3693L94.8595 15.906L103.797 25.5566ZM91.0637 12.6333L92.4853 18.3263L93.8312 23.73L71.2382 18.8438L82.7464 15.2362L91.0637 12.6333ZM96.9766 64.6002L103.797 63.4129L94.8595 73.0635L96.9766 64.6002ZM106.428 54.5539L103.283 47.7041V41.2806L106.428 34.4156V54.5539ZM65.1741 17.6108H53.8323L36.7136 12.2528H82.2776L65.159 17.6108H65.1741ZM53.8323 71.3587H65.1741L82.2927 76.7319H36.7288L53.8474 71.3587H53.8323ZM109.301 59.9272V29.0271L115.895 27.7789V61.1754L112.659 60.5665L109.317 59.9272H109.301ZM114.231 25.0542L110.557 25.7544L108.379 26.1654L93.5287 10.137V5.25081L114.231 25.0542ZM90.6403 9.23889H28.3661V3.86563H90.6403V9.23889ZM25.4777 4.73327V10.137L10.6274 26.1654L9.87128 26.0284L4.72965 25.0542L25.4777 4.73327ZM4.72965 63.9305L8.61613 63.1998L10.6274 62.8193L25.4777 78.8478V84.2667L4.72965 63.9457V63.9305ZM28.3661 79.7306H90.6403V85.0887H28.3661V79.7306ZM93.5136 83.7187V78.8325L97.3396 74.7075L108.364 62.8193L109.075 62.9563L114.216 63.9305L93.5136 83.7339V83.7187Z" fill="#860117"/>
</svg>
