<svg width="110" height="115" viewBox="0 0 110 115" fill="none" xmlns="http://www.w3.org/2000/svg">
<path id="Vector" d="M110 16.8657C110 16.7743 109.985 16.6982 109.955 16.6069C109.925 16.5003 109.864 16.3938 109.804 16.2872C109.773 16.2416 109.773 16.1807 109.728 16.135C109.713 16.1046 109.683 16.1046 109.667 16.0741C109.637 16.0437 109.637 16.0132 109.607 15.9828L94.9685 0.471873C94.9685 0.471873 94.8625 0.395764 94.8021 0.365321C94.7567 0.319656 94.7265 0.273991 94.666 0.228326C94.6358 0.213104 94.5904 0.213104 94.5601 0.197882C94.4694 0.152217 94.3787 0.121774 94.2728 0.0913302C94.1669 0.0608868 94.0762 0.0304434 93.9703 0.0304434C93.9401 0.0304434 93.8947 0 93.8645 0H16.6492C16.6492 0 16.5736 0.0152217 16.5433 0.0304434C16.4375 0.0304434 16.3317 0.0608868 16.241 0.0913302C16.1502 0.121774 16.0594 0.152217 15.9687 0.197882C15.9384 0.197882 15.8931 0.213104 15.8478 0.228326C15.7873 0.258769 15.757 0.319656 15.6965 0.365321C15.6511 0.410986 15.5907 0.426208 15.5453 0.471873L0.891643 15.9828C0.891643 15.9828 0.861431 16.0437 0.831186 16.0741C0.816064 16.1046 0.785745 16.1198 0.7555 16.135C0.725255 16.1807 0.710151 16.2416 0.679906 16.3024C0.634539 16.3938 0.574101 16.4851 0.543856 16.5917C0.513611 16.683 0.49843 16.7743 0.483307 16.8809C0.483307 16.9418 0.453125 17.0026 0.453125 17.0635V98.8802C0.453125 99.3216 0.634528 99.7326 0.9521 100.022L15.1824 113.006C14.9858 113.66 15.2126 114.376 15.8024 114.756C16.0443 114.924 16.3317 115 16.6039 115C16.8307 115 17.0726 114.939 17.2843 114.833C17.496 114.939 17.7078 115 17.9347 115H92.4884C92.7152 115 92.942 114.924 93.1386 114.833C93.3503 114.939 93.5772 115 93.8192 115C94.0914 115 94.3786 114.924 94.6206 114.756C95.2104 114.376 95.4373 113.66 95.2407 113.006L109.471 100.022C109.788 99.7326 109.97 99.3064 109.97 98.8802V17.0635C109.97 17.0635 109.94 16.9265 109.94 16.8657H110ZM3.52294 20.1231L10.1617 25.1006V89.9146L3.52294 94.8921V20.1231ZM16.4073 4.04897L21.2615 11.949L11.5076 22.2846L4.2942 16.8809L16.3922 4.0642L16.4073 4.04897ZM106.22 16.8657L99.0061 22.2694L89.2521 11.9338L94.1065 4.03375L106.204 16.8504L106.22 16.8657ZM97.3276 57.4924V87.6161L91.702 83.3997V31.585L97.3276 27.3686V57.4924ZM55.2569 101.316H25.9193L28.9135 96.46H81.6153L84.6095 101.316H55.272H55.2569ZM13.2013 57.4924V27.3686L18.8117 31.5698V83.3997L13.2013 87.6161V57.4924ZM55.2569 13.6843H84.5944L81.6002 18.54H28.8985L25.9042 13.6843H55.2418H55.2569ZM88.6623 57.4924V81.1317L85.2447 78.5744V36.4255L88.6623 33.8531V57.4924ZM55.2569 93.3699H30.8038L33.9947 88.1793H76.5039L79.6947 93.3699H55.2418H55.2569ZM21.8665 57.4924V33.8531L25.2842 36.4255V78.5744L21.8665 81.1317V57.4924ZM55.2569 21.63H79.7099L76.5191 26.8206H34.0099L30.8189 21.63H55.272H55.2569ZM76.6854 85.0893H33.8586L28.3389 78.7571V36.2277L33.8586 29.8954H76.6854L82.2051 36.2277V78.7571L76.6854 85.0893ZM83.929 33.5639L79.2411 28.2058L82.5378 22.8326L88.0424 30.4739L83.914 33.5639H83.929ZM31.2726 28.2058L26.5847 33.5639L22.4563 30.4739L27.9609 22.8326L31.2576 28.2058H31.2726ZM26.5998 81.4361L31.2877 86.7942L27.9911 92.1522L22.4865 84.5109L26.615 81.4209L26.5998 81.4361ZM79.2562 86.7942L83.9441 81.4361L88.0726 84.5261L82.568 92.1674L79.2714 86.8094L79.2562 86.7942ZM90.5073 28.6473L84.292 20.0165L87.6038 14.6433L96.5412 24.1264L90.5073 28.6473ZM26.2369 20.0165L20.0216 28.6473L13.9876 24.1112L22.9251 14.6433L26.2369 20.0165ZM20.0216 86.3527L26.2369 94.9682L22.9251 100.341L13.9876 90.8584L20.0216 86.3375V86.3527ZM84.292 94.9835L90.5073 86.3527L96.5412 90.8736L87.6038 100.357L84.292 94.9835ZM86.4998 10.5943H24.0138L19.3864 3.09001H91.1122L86.4847 10.5943H86.4998ZM11.5076 92.7306L21.2615 103.066L16.8005 110.312L3.84054 98.4997L11.5076 92.7459V92.7306ZM24.0138 104.406H86.4998L91.1273 111.91H19.4015L24.029 104.406H24.0138ZM89.2673 103.066L99.0213 92.7306L106.688 98.4844L93.7284 110.296L89.2673 103.051V103.066ZM100.367 89.9146V25.1006L107.006 20.1231V94.8921L100.367 89.9146Z" fill="#860117"/>
</svg>
