<svg width="139" height="91" viewBox="0 0 139 91" fill="none" xmlns="http://www.w3.org/2000/svg">
<path id="Vector" d="M0.429688 45.4011C0.429688 45.4011 0.429688 45.4467 0.429688 45.4772C0.429688 45.5076 0.429688 45.5381 0.429688 45.5685C0.459932 52.4183 2.819 58.9027 7.00792 64.7174C7.03816 64.7783 7.03813 64.8392 7.06838 64.8848C7.11374 64.9457 7.17429 64.9762 7.21966 65.0371C11.2422 70.5016 16.898 75.3422 23.7636 79.3302C23.7787 79.3455 23.7938 79.3607 23.8089 79.3911C23.945 79.4977 24.1114 79.5738 24.2777 79.6347C30.0848 82.9378 36.7387 85.6168 44.0126 87.5195C44.0126 87.5195 44.0125 87.5195 44.0277 87.5195C51.9518 89.5897 60.5868 90.7465 69.6301 90.7465C78.6733 90.7465 87.3082 89.5897 95.2324 87.5195C95.2324 87.5195 95.2474 87.5195 95.2625 87.5195C102.521 85.6168 109.175 82.9378 114.982 79.6347C115.149 79.5738 115.315 79.4977 115.451 79.3911C115.466 79.3759 115.481 79.3607 115.496 79.3302C122.347 75.3574 128.003 70.5016 132.025 65.0371C132.071 64.9762 132.131 64.9457 132.177 64.8848C132.207 64.8392 132.207 64.7783 132.237 64.7174C136.426 58.9027 138.785 52.4335 138.815 45.5989C138.815 45.5989 138.815 45.5228 138.815 45.4924C138.815 45.4619 138.815 45.4467 138.815 45.4163C138.8 38.5665 136.426 32.0821 132.237 26.2674C132.207 26.2217 132.207 26.1608 132.177 26.1152C132.131 26.0543 132.086 26.0238 132.04 25.9782C128.018 20.5136 122.362 15.6578 115.496 11.6698C115.481 11.6545 115.466 11.6393 115.451 11.6089C115.3 11.5023 115.133 11.411 114.967 11.3653C109.266 8.1231 102.763 5.48975 95.6557 3.58703C95.5348 3.54137 95.3987 3.51092 95.2777 3.4957C87.3384 1.41033 78.6884 0.253479 69.6301 0.253479C60.5717 0.253479 51.9065 1.41033 43.9823 3.4957C43.8462 3.51092 43.7253 3.54137 43.6043 3.58703C36.4967 5.47452 29.994 8.1231 24.2929 11.3653C24.1114 11.411 23.9602 11.5023 23.8089 11.6089C23.7938 11.6241 23.7787 11.6545 23.7636 11.6698C16.898 15.6578 11.2422 20.5136 7.21966 25.9782C7.17429 26.0238 7.11376 26.0543 7.08351 26.1152C7.05327 26.1608 7.0533 26.2217 7.02306 26.2674C2.81901 32.0821 0.459947 38.5665 0.444825 45.4011H0.429688ZM8.7319 28.8703L19.2873 35.5222L3.51464 43.0874C3.95319 38.0642 5.7679 33.2694 8.7319 28.8551V28.8703ZM43.3925 6.63137L47.3093 13.7704L29.5556 11.8068C33.7898 9.7366 38.4324 8.00133 43.3925 6.63137ZM109.674 11.8068L91.9357 13.7704L95.8523 6.63137C100.797 8.00133 105.44 9.75182 109.674 11.8068ZM135.73 43.1026L119.958 35.5374L130.528 28.8855C133.477 33.2998 135.292 38.0946 135.73 43.1178V43.1026ZM130.528 62.0993L119.973 55.4474L135.745 47.8822C135.307 52.9054 133.492 57.7002 130.543 62.1145L130.528 62.0993ZM95.8523 84.3382L91.9357 77.1992L109.674 79.1628C105.44 81.233 100.797 82.9682 95.8523 84.3534V84.3382ZM29.5706 79.1628L47.3093 77.1992L43.3925 84.3382C38.4475 82.9682 33.8049 81.2177 29.5706 79.1476V79.1628ZM3.51464 47.867L19.2873 55.4322L8.7319 62.084C5.78302 57.6698 3.95319 52.8749 3.51464 47.8518V47.867ZM64.1708 20.8637L44.3453 26.4805L50.6211 17.2105L64.1708 20.8637ZM88.6389 17.1952L94.9148 26.4653L75.0892 20.8484L88.6389 17.1952ZM75.0741 70.1059L94.8996 64.4891L88.6239 73.7743L75.0741 70.1059ZM50.6211 73.7743L44.3453 64.4891L64.1708 70.1059L50.6211 73.7743ZM41.7442 30.2402L69.6301 22.3402L97.5159 30.2402L109.946 45.4772L97.5159 60.7293L69.6301 68.6294L41.7442 60.7293L29.3135 45.4772L41.7442 30.2402ZM27.6803 48.1562L36.3757 58.8114L24.3987 54.4732L27.6803 48.1562ZM69.6301 71.6433L85.8867 76.0424L69.6301 87.4739L53.3583 76.0424L69.6301 71.6433ZM111.565 48.1562L114.861 54.4732L102.884 58.8114L111.58 48.1562H111.565ZM117.614 53.3316L113.53 45.4924L117.614 37.6532L133.961 45.4924L117.614 53.3316ZM111.565 42.7981L102.869 32.143L114.846 36.4811L111.549 42.7981H111.565ZM69.6301 19.3111L53.3583 14.9272L69.6301 3.4957L85.8867 14.9272L69.6301 19.3111ZM27.6803 42.7981L24.3987 36.4811L36.3757 32.143L27.6803 42.7981ZM21.6464 37.638L25.7295 45.4772L21.6464 53.3163L5.29907 45.4772L21.6464 37.638ZM39.8993 63.18L47.3849 74.2766L26.0623 76.6208L24.0358 57.4414L39.8993 63.18ZM50.485 77.595L64.8362 87.687C58.3789 87.3978 52.1787 86.4997 46.3566 85.0993L50.485 77.595ZM88.775 77.595L92.8883 85.0993C87.0813 86.4997 80.866 87.3825 74.4087 87.687L88.7599 77.595H88.775ZM91.86 74.2766L99.3608 63.18L115.209 57.4414L113.183 76.6208L91.86 74.2766ZM99.3608 27.7743L91.8751 16.6929L113.198 14.3488L115.224 33.5281L99.3759 27.7895L99.3608 27.7743ZM88.775 13.3594L74.4239 3.26738C80.8811 3.55659 87.0813 4.45467 92.8883 5.85507L88.775 13.3594ZM50.485 13.3594L46.3566 5.85507C52.1787 4.45467 58.3789 3.57181 64.8362 3.26738L50.485 13.3594ZM47.3849 16.6929L39.8993 27.7743L24.0358 33.5129L26.0623 14.3336L47.3849 16.6777V16.6929ZM10.4709 64.4586L21.0718 57.7763L22.947 75.4791C17.9112 72.2826 13.692 68.5533 10.4709 64.4739V64.4586ZM116.313 75.4639L118.188 57.7611L128.789 64.4434C125.568 68.5381 121.349 72.2522 116.313 75.4487V75.4639ZM128.789 26.5109L118.188 33.1933L116.313 15.4904C121.349 18.687 125.568 22.4163 128.789 26.4957V26.5109ZM22.947 15.4904L21.0718 33.1933L10.4709 26.5109C13.692 22.4163 17.9112 18.7022 22.947 15.5056V15.4904Z" fill="#860117"/>
</svg>
