<svg width="158" height="202" viewBox="0 0 158 202" fill="none" xmlns="http://www.w3.org/2000/svg">
<g id="Logo-MGRI">
<path id="Vector" d="M74.2297 202C71.0546 201.703 67.5495 200.582 65.6338 197.836C64.3009 195.924 63.8626 193.717 63.6965 191.42C63.7591 186.26 63.3581 180.845 63.7579 175.715C63.9891 172.745 64.5586 170.866 66.8259 168.86C70.6187 165.506 78.6475 165.325 83.1363 167.164C87.2242 168.84 89.1278 171.99 89.3397 176.377C89.365 176.89 89.3156 177.413 89.3373 177.926H81.9948C82.0129 175.655 81.6866 172.864 79.4603 171.717C78.0804 171.006 75.7457 170.948 74.2779 171.395C72.1106 172.052 71.2304 173.72 71.0401 175.895C71.0847 180.923 70.7259 186.175 71.1016 191.176C71.3303 194.223 72.3261 196.35 75.5916 196.839C79.5457 197.432 81.9575 195.485 82.1755 191.479L82.2381 190.39L82.2357 188.598H76.1563V184.202C76.1563 184.196 76.2406 184.111 76.2466 184.111H89.5781V201.514H85.8166L84.4331 198.543C83.2868 199.673 82.0322 200.628 80.5223 201.212C79.3579 201.662 78.2682 201.844 77.0328 201.941C76.9835 201.945 76.9486 201.998 76.9389 201.998H74.231L74.2297 202Z" fill="black"/>
<path id="Vector_2" d="M135.578 167V200.942L127.578 201V167H135.578Z" fill="black"/>
<path id="Vector_3" d="M33.1507 167L39.5781 188.211L46.1821 167H56.5781V200.997H49.7075V176.133L41.5061 201L37.5115 200.99L29.508 176.251V200.909C29.508 200.914 29.4251 200.997 29.4191 200.997H22.667C22.6611 200.997 22.5781 200.914 22.5781 200.909V167H33.1519H33.1507Z" fill="black"/>
<path id="Vector_4" d="M96.5781 167.003L109.022 167L110.776 167.121C115.179 167.486 119.725 169.707 120.789 174.367C121.32 176.695 121.073 179.444 119.89 181.538C118.823 183.426 116.871 184.833 114.844 185.505V185.592L121.578 201H114.172L107.965 187.036H103.721V201H96.5781V167.004V167.003ZM103.722 182.146C107.019 181.996 112.331 183.073 113.413 178.789C113.788 177.306 113.702 175.196 112.822 173.902C111.772 172.359 110.012 172.015 108.259 171.893H103.722V182.146Z" fill="black"/>
<path id="Vector_5" d="M50.7056 0.26782C50.9299 0.209665 50.9517 0.319328 51.0806 0.415699C52.6306 1.58212 54.1103 3.18553 55.5214 4.52309C58.1394 7.0038 60.6418 9.59917 63.3418 11.9951L47.9956 27.3862C46.7 28.9464 46.2966 30.6728 47.1285 32.5736C47.5737 33.5922 48.4073 34.1421 49.1238 34.9247C55.6955 42.1044 63.2012 49.1394 70.1127 56.0715C73.0086 58.9759 75.958 61.8288 78.8455 64.7415L79.053 64.7997L109.854 34.1106C111.204 32.552 111.764 30.9519 110.978 28.9547C110.422 27.5424 109.397 26.8695 108.418 25.8194C104.488 21.6007 99.7775 16.6243 95.4806 12.816C95.2011 12.5684 94.878 12.2909 94.4997 12.2195L106.917 0.000307576C107.365 -0.027939 108.868 1.89781 109.248 2.28662C119.394 12.7013 130.535 22.5511 140.185 33.4293C148.505 42.8089 154.696 54.3102 157.343 66.5958C157.674 68.1361 158.506 71.2 157.567 72.501C135.195 94.8956 112.795 117.323 90.4422 139.733L79.207 151L78.8471 150.789L0.882112 72.953C-0.450309 71.642 0.0468382 69.9887 0.329726 68.3637C1.53493 61.44 4.3906 54.4016 7.78358 48.2721C18.0178 29.7755 35.6857 16.935 49.805 1.54058C50.1214 1.19497 50.5483 0.688195 50.7056 0.26782ZM36.4055 39.2598L4.94968 70.4839H36.4055V39.2598ZM70.5714 70.4839L39.1156 39.2598V70.4839H70.5714ZM119.036 39.2598L118.502 39.4027C109.093 49.166 99.1046 58.4276 89.7643 68.2458C89.1516 68.8904 88.3615 69.5185 87.8041 70.1848C87.6786 70.336 87.5179 70.3775 87.5798 70.6334H118.359C118.436 70.6334 119.037 70.1732 119.037 70.11V39.2598H119.036ZM122.121 70.6334H152.976C153.002 70.6334 153.218 70.4839 153.128 70.3344C152.833 69.8442 151.961 69.3125 151.543 68.9187C142.353 60.2237 133.46 51.1832 124.3 42.4749C123.391 41.6109 122.566 40.6522 121.593 39.8579V70.1117C121.593 70.2812 121.943 70.6052 122.121 70.6351V70.6334ZM36.4055 103.8V74.5929C36.4055 74.5547 36.5344 74.4451 36.5378 74.3005C36.5444 74.0579 36.2649 73.174 36.0289 73.174H4.94968L36.4055 103.8ZM70.4207 73.1723H39.3415L38.9582 74.2872C39.3884 83.8163 38.4075 93.8089 38.9582 103.283C38.985 103.757 39.1909 104.207 39.1172 104.696L70.2785 73.7023L70.4224 73.1723H70.4207ZM119.036 103.8V73.5462C119.036 73.5196 118.686 73.1723 118.659 73.1723H87.8041C87.7774 73.1723 87.5614 73.3218 87.6518 73.4714C87.918 73.9117 89.4228 75.2542 89.9065 75.7162C94.724 80.3253 99.5817 84.9594 104.364 89.6019C108.733 93.8438 113.05 98.4364 117.527 102.532C117.986 102.951 118.577 103.353 119.036 103.8ZM153.051 73.1723H121.972C121.945 73.1723 121.595 73.5196 121.595 73.5462V104.471C121.595 104.488 121.814 104.772 121.896 104.622C124.087 102.414 126.331 100.257 128.523 98.0509C135.015 91.516 141.55 84.9628 148.007 78.3979C149.514 76.866 151.484 75.2227 152.827 73.6209C152.952 73.4697 153.113 73.4282 153.051 73.1723ZM77.6453 80.4932L46.3401 111.717H77.6453V80.4932ZM111.811 111.867L80.3553 81.0913L80.3603 102.388C80.2365 104.933 79.9988 107.914 80.1963 110.454C80.2281 110.863 80.3603 111.867 80.8792 111.867H111.809H111.811ZM77.2686 114.407H46.5644L46.3384 114.78C56.6211 124.895 67.0512 134.84 77.3423 144.96L77.7942 145.183V114.929C77.7942 114.76 77.4444 114.436 77.267 114.406L77.2686 114.407ZM80.3553 145.332C84.6756 141.225 88.8671 137.006 93.1439 132.854C97.7538 128.379 102.469 123.973 107.072 119.49C108.642 117.961 110.164 116.38 111.737 114.854L111.59 114.549L80.6415 114.618C80.3001 114.944 80.2298 115.368 80.1963 115.82C80.0289 117.99 80.3386 120.362 80.1963 122.556L80.3603 123.587L80.3553 145.332Z" fill="black"/>
<path id="Vector_6" d="M82.7036 21.4208L89.6588 18.5785L86.8471 25.6093C90.8177 26.8574 94.7818 28.1421 98.7673 29.3502C98.9763 29.4135 99.029 29.2504 98.9862 29.6498L86.8471 33.3923L89.6588 40.4231L82.7036 37.5809L78.9288 50L75.1524 37.5809L68.1972 40.4231L71.0089 33.3923C67.677 32.3373 64.2957 31.3921 60.9769 30.2888C60.4468 30.1124 59.6748 29.9194 59.2072 29.6831C59.0229 29.5899 58.9652 29.6847 59.0196 29.3519L71.0089 25.6077L68.1972 18.5769L75.1524 21.4192L78.9288 9L82.7036 21.4192V21.4208Z" fill="black"/>
</g>
</svg>
