<svg width="152" height="204" viewBox="0 0 152 204" fill="none" xmlns="http://www.w3.org/2000/svg">
<path fill-rule="evenodd" clip-rule="evenodd" d="M102.851 38.5593L106.549 36.5982L105.445 35.8248L103.044 37.2611L103.541 34.4714L102.437 33.7256L101.857 37.8688L100.367 39.968L101.388 40.6862L102.851 38.5593Z" fill="black"/>
<path fill-rule="evenodd" clip-rule="evenodd" d="M83.0073 30.5213L83.8904 30.6871L84.6631 33.3663L86.0706 33.6149L85.1323 30.6871C85.2979 30.6595 85.4358 30.6042 85.6014 30.549C85.767 30.4661 85.905 30.3832 86.0154 30.2728C86.1534 30.1623 86.2637 30.0242 86.3465 29.8584C86.4293 29.6927 86.5121 29.4994 86.5397 29.2784C86.5949 29.0022 86.5949 28.7536 86.5397 28.505C86.4845 28.2564 86.4017 28.0354 86.2361 27.8421C86.0982 27.6487 85.905 27.4554 85.6842 27.3173C85.4634 27.1792 85.1875 27.0687 84.8563 27.0134L82.4278 26.5991L81.3516 32.8139L82.5658 33.0349L83.0073 30.549V30.5213ZM83.4765 27.8697L84.6079 28.063C84.8839 28.1183 85.0771 28.2288 85.2151 28.3945C85.3531 28.5879 85.4082 28.7812 85.3531 29.0298C85.2979 29.2784 85.1875 29.4717 85.0219 29.5822C84.8287 29.6927 84.608 29.7479 84.332 29.6927L83.1729 29.4994L83.4489 27.8421L83.4765 27.8697Z" fill="black"/>
<path fill-rule="evenodd" clip-rule="evenodd" d="M111.213 42.1777L108.177 42.012L108.012 45.0503L111.047 45.216L111.213 42.1777Z" fill="black"/>
<path fill-rule="evenodd" clip-rule="evenodd" d="M32.6175 72.4231L31.5136 72.3955L31.4308 75.2957L29.913 75.2681L29.9682 72.7822L28.892 72.7269L28.8092 75.2128L27.319 75.1852L27.4017 72.2574L26.3255 72.2297L26.1875 76.3729L32.4795 76.5663L32.6175 72.4231Z" fill="black"/>
<path fill-rule="evenodd" clip-rule="evenodd" d="M81.1066 99.1604L80.5547 100.652H89.9651L89.6615 99.1604H81.1066Z" fill="black"/>
<path fill-rule="evenodd" clip-rule="evenodd" d="M95.2367 36.9847L97.472 32.2891L98.9622 32.9796L99.4313 31.9852L95.3471 30.0518L94.8779 31.0461L96.3681 31.7367L94.1328 36.4599L95.2367 36.9847Z" fill="black"/>
<path fill-rule="evenodd" clip-rule="evenodd" d="M101.773 111.203L102.463 112.06L104.726 110.209L105.692 111.397L103.76 112.971L104.45 113.827L106.382 112.253L107.32 113.385L105.057 115.236L105.747 116.092L108.976 113.468L104.975 108.579L101.773 111.203Z" fill="black"/>
<path fill-rule="evenodd" clip-rule="evenodd" d="M115.047 56.6513L115.599 57.9495L118.082 58.1981L116.537 60.1868L117.089 61.485L119.297 58.419L122.857 58.9162L122.305 57.618L120.014 57.3971L121.449 55.6017L120.897 54.3035L118.772 57.2037L115.047 56.6513Z" fill="black"/>
<path fill-rule="evenodd" clip-rule="evenodd" d="M105.943 54.0272L105.888 53.751H45.9482L45.893 54.0272C45.893 54.0272 43.906 65.7939 46.5829 79.0521C49.0666 91.3159 56.1865 107.502 75.8904 115.043L76.0008 115.098L76.1388 115.043C96.1186 107.226 103.156 91.0397 105.529 78.8587C108.123 65.6558 105.943 54.1653 105.915 54.0548L105.943 54.0272ZM82.9275 77.3672C82.9275 77.3672 83.1759 77.45 83.2035 77.5882C83.2035 77.7263 83.3966 77.892 83.4794 78.0577C83.5346 78.1682 83.6174 78.1958 83.5898 78.2787C83.5898 78.3339 83.3691 78.5273 83.2863 78.5549C83.2311 78.5549 83.1483 78.472 82.9827 78.4997C82.8171 78.5549 82.4584 78.4997 82.3756 78.6101C82.3204 78.6654 82.072 78.7482 81.934 78.7759C81.8236 78.3063 81.7133 77.8367 81.6029 77.3672C82.0168 77.3119 82.4308 77.2567 82.8447 77.2291C82.8447 77.2843 82.8999 77.3672 82.9275 77.3948V77.3672ZM61.3194 77.892C61.3194 78.3616 60.4639 78.5825 60.8503 78.8864C61.1814 79.1626 60.9331 79.4388 60.6571 79.7702H58.9737C58.9737 79.3007 58.9185 78.8311 58.9185 78.3616C59.6636 78.0301 60.4639 77.6986 61.2918 77.3948C61.2918 77.5605 61.347 77.8367 61.347 77.892H61.3194ZM95.3735 78.1958C95.4011 78.3615 95.5943 78.5549 95.6219 78.7482C95.6771 79.1349 95.5667 79.5493 95.5391 79.6598C95.5391 79.6598 95.5391 79.715 95.5391 79.7426H92.6691C92.6139 79.4388 92.5311 79.1073 92.4759 78.8035C92.3931 78.4168 92.2827 78.0025 92.1999 77.6158C92.3931 77.6434 92.7519 77.7539 92.8071 77.892C92.8623 78.0025 92.7243 78.1406 92.8071 78.1958C92.8899 78.2511 93.0002 78.3063 93.1106 78.3616C93.221 78.4168 93.1106 78.5549 93.221 78.6101C93.3866 78.693 93.3866 78.6101 93.5522 78.7206C93.8833 78.9692 93.9661 78.3892 94.0489 78.3339C94.2697 78.1958 94.4353 78.472 94.7112 78.472C94.8768 78.472 95.0976 78.0853 95.3183 77.9196C95.4011 77.8644 95.4563 77.8367 95.5115 77.8367C95.5667 77.8367 95.4287 78.0301 95.4563 78.1958H95.3735ZM66.6732 78.5825C66.48 78.472 66.066 78.5825 65.8453 78.5273C65.8453 78.5273 65.4037 78.3063 65.2381 78.2234C65.1829 78.1958 65.2381 78.1682 65.2657 78.1406C65.3209 78.113 65.4037 78.0577 65.4313 78.0577C65.4589 78.0577 65.3485 77.8367 65.2933 77.8091C65.2381 77.7539 65.1829 77.671 65.1277 77.5882C65.0726 77.5053 64.9898 77.3672 64.9898 77.3672C64.8518 77.1186 64.9898 76.9529 64.631 76.9252C64.5482 76.9252 64.1619 77.5605 63.8859 77.5605C63.8583 77.1738 63.8031 76.8148 63.7755 76.4557C65.928 75.7375 66.5904 75.5442 68.4393 75.0194C68.6325 76.3176 68.8809 77.6986 69.1568 79.0797C68.4669 79.2731 67.777 79.4664 67.0871 79.6874C67.1423 79.5769 67.2251 79.3835 67.2251 79.3283C67.2251 79.1626 66.7283 78.6378 66.6732 78.6101V78.5825ZM56.5176 75.9861C56.5176 75.9861 56.3796 75.9861 56.3245 75.9861C56.2693 75.9861 56.2417 76.0137 56.2141 76.0414C56.2141 76.069 56.2141 76.2071 56.2141 76.29C56.2141 76.3728 55.8829 76.8976 55.8277 76.9529C55.8001 76.9805 55.5793 77.0081 55.4138 76.9529C55.4966 76.5109 55.5794 76.0966 55.6897 75.6823C55.8829 75.5718 56.0761 75.4613 56.2693 75.3508C56.628 75.5166 56.5176 75.9033 56.5176 75.9309V75.9861ZM55.9381 74.7984C56.1313 74.1631 56.3521 73.5554 56.6004 72.9478C56.766 73.1135 57.0144 73.2792 56.9592 73.5554C56.904 73.7764 56.7384 73.8869 56.6832 74.0802C56.628 74.246 56.6004 74.3288 56.5176 74.4669C56.3245 74.5774 56.1313 74.6879 55.9381 74.7708V74.7984ZM58.8357 71.3181C58.6426 71.4562 58.7805 71.5115 58.477 71.6772C58.4494 71.6772 58.0354 72.2296 58.1182 72.3677C58.201 72.5058 57.9251 73.1411 58.0906 73.224C58.2562 73.3069 57.9802 73.5278 57.9802 73.5831C57.9802 73.6107 57.5939 73.5831 57.5111 73.4173C57.2903 73.0583 57.5939 72.7268 57.5663 72.6163C57.4835 72.423 57.18 72.2296 56.9868 72.202C57.0696 72.0639 57.1248 71.8982 57.2075 71.7601C57.8699 71.3734 58.5874 70.9867 59.3877 70.6C59.3049 70.8209 59.2221 71.0695 59.1669 71.2905C59.0841 71.2905 59.0013 71.2353 58.8909 71.2905L58.8357 71.3181ZM60.2432 70.1856C61.0987 69.7989 62.0369 69.4399 63.0304 69.0532C63.1408 69.0256 63.2236 68.9979 63.334 68.9427C63.1684 69.799 63.058 70.7381 62.9752 71.7048C62.8372 71.7601 62.6993 71.8153 62.5613 71.8429C62.4233 71.7324 62.3957 71.4838 62.3405 71.4286C62.2301 71.2905 62.0369 71.3734 61.9817 71.3457C61.899 71.2905 61.899 71.1524 61.7886 71.1524C61.7334 71.1524 61.347 71.0419 61.1814 70.9314C61.0711 70.8486 60.4915 70.5447 60.3811 70.5447C60.2708 70.5447 60.1604 70.6 60.0776 70.6552C60.1328 70.5171 60.188 70.3514 60.2432 70.1856ZM60.2156 77.0357C60.2156 77.0357 60.0224 77.1186 59.9396 77.1462C59.9396 76.7871 60.0224 76.9252 60.0776 76.6767C60.0776 76.6214 59.774 76.5109 59.6636 76.4557C59.2497 76.1518 59.4153 75.6823 59.5257 75.5442C59.636 75.4061 60.3536 74.7708 60.1328 74.6603C59.6912 74.4669 60.4915 73.5831 60.7675 73.6936C61.0435 73.804 61.3746 73.1411 61.6782 73.2516C62.0093 73.3621 61.8714 73.3897 61.9541 73.6107C62.0093 73.7488 61.899 73.9421 61.8714 74.0802C61.8438 74.2184 61.5954 74.2736 61.6506 74.5222C61.7058 74.7708 60.9883 75.627 60.9331 75.6823C60.7951 75.7651 60.7675 76.3176 61.0987 76.1518C61.3746 76.0137 61.5126 76.4004 61.5678 76.4833C61.0987 76.6767 60.6295 76.8424 60.1604 77.0357H60.2156ZM65.4865 68.7493C65.4865 68.7493 65.5969 68.9979 65.5969 69.1084C65.5969 69.2189 65.7349 69.3018 65.7625 69.3018C65.8177 69.3018 65.8453 69.2741 65.9005 69.2465C66.066 69.1913 66.0936 69.3018 66.2868 69.3018C66.3144 69.3018 66.4248 69.3294 66.5076 69.3846C66.618 69.4399 66.5904 69.6056 66.5076 69.6885C66.4524 69.7713 66.3972 69.8266 66.342 69.8542C65.9556 69.9371 65.5693 69.6885 65.6797 70.4342C65.6797 70.6 65.7625 70.7381 65.8453 70.8209C65.1553 71.0143 64.6034 71.2076 63.6927 71.5115C63.7755 70.5171 63.8859 69.578 64.0791 68.7217C64.7414 68.5007 65.2105 68.335 65.6521 68.2245C65.5417 68.4179 65.4313 68.6389 65.4589 68.777L65.4865 68.7493ZM94.3249 75.8756C93.9385 75.7928 93.7453 75.9861 93.5246 76.1795C93.083 76.1518 92.6139 76.0966 92.1171 76.069C92.1171 76.069 92.1171 76.069 92.1171 76.0414C92.2827 75.5994 92.1171 75.0746 92.3103 74.6051C92.3655 74.4946 92.5863 74.2736 92.7795 74.3012C92.8623 74.3012 92.8899 74.4946 93.0278 74.5498C93.083 74.5498 93.1106 74.6879 93.1382 74.7984C93.1382 74.8536 93.2762 74.7708 93.3866 74.7984C93.5246 74.8536 93.7178 74.9918 93.8281 74.9089C94.0213 74.7708 94.2145 74.6051 94.3525 74.5498C94.3525 74.5498 94.3525 74.5498 94.3801 74.5498C94.5456 74.9641 94.7112 75.4061 94.8768 75.8204C94.6836 75.8204 94.4353 75.9033 94.2973 75.8756H94.3249ZM89.3299 78.2511C89.3299 78.2511 89.4679 78.2787 89.6059 78.2511C89.6611 78.2511 89.6887 78.0577 89.6887 78.0577C89.5507 77.9749 89.1919 77.9196 88.916 77.7815C88.8608 77.7539 88.8884 77.6434 88.8056 77.6158C88.502 77.5053 88.1984 77.4777 88.1157 77.3672C87.9501 77.1738 88.0053 76.8976 88.2536 76.87C88.4468 76.87 88.9436 77.0357 89.2747 77.1462H89.8266C89.9094 77.2291 89.8818 77.6986 90.0198 77.7263C90.2682 77.7815 90.2958 78.0025 90.4338 78.1958C90.489 78.2787 90.6545 78.2511 90.7649 78.3616C90.9305 78.5273 91.0961 78.8587 91.1789 78.9692C91.372 79.2454 91.648 79.1626 91.8136 79.0797C91.8688 79.3007 91.8964 79.5216 91.9516 79.715H89.3575C89.3575 79.715 89.2747 79.494 89.3023 79.4112C89.3023 79.3559 89.3851 79.3559 89.4127 79.3007C89.4679 79.1626 89.5783 79.0245 89.6059 78.8311C89.6059 78.693 89.3575 78.3339 89.3851 78.2234L89.3299 78.2511ZM84.6661 72.5887C85.0248 73.0859 84.9972 73.0859 84.5281 73.3345C84.3349 73.4173 83.8658 73.7212 83.8658 73.9698C83.8658 74.1907 84.1142 74.3012 83.8106 74.4117C83.6726 74.4393 83.2311 74.8536 83.1207 74.6051C83.0379 74.4117 83.2035 74.1631 83.1207 73.9974C83.0655 73.9145 82.8999 73.9145 82.8171 73.9421C82.7895 73.9421 82.7343 73.9145 82.7343 73.8593C82.5688 73.445 81.6305 73.0859 81.3545 72.8649C81.2441 72.7821 81.2717 72.6716 81.2993 72.5611C82.6515 72.3954 83.3415 72.3401 84.7489 72.2572V72.3125C84.7489 72.4506 84.6109 72.5058 84.6661 72.6163V72.5887ZM74.0138 73.6936C74.3174 74.9365 74.621 76.29 74.9521 77.6986C73.2687 78.0301 71.5853 78.4444 69.9295 78.8864C69.6536 77.45 69.4052 76.0966 69.212 74.826C70.8126 74.4117 72.4408 74.025 74.0138 73.6936ZM73.1859 64.7443C73.1859 64.7443 73.2411 64.5785 73.2411 64.4957C73.2411 64.3576 73.048 64.1918 72.9928 64.109C72.9928 64.0537 72.8824 64.0261 72.772 63.9709C73.5171 63.8327 74.2622 63.7223 75.0073 63.6118C75.3937 64.0261 75.78 64.5509 76.1388 65.1309C75.1177 65.2691 74.0966 65.4348 73.0756 65.6558C73.0204 65.4348 72.9376 65.1033 73.1583 64.7719L73.1859 64.7443ZM85.5492 67.534C85.632 67.313 85.7424 67.2025 85.6872 66.8158C85.6872 66.8158 85.77 66.7054 85.8251 66.6225C86.1011 66.8987 86.3495 67.2025 86.5978 67.534C86.3219 67.534 86.0735 67.534 85.8527 67.534C85.7424 67.534 85.632 67.534 85.5216 67.534H85.5492ZM82.8999 68.9979C82.8999 68.9979 82.5963 69.2741 82.5412 69.4951C82.3756 70.0199 83.0103 70.5723 82.9551 70.6V70.6552C83.0103 70.7381 83.0931 70.959 83.2035 71.0695C83.3139 71.18 83.4242 71.2076 83.507 71.2076C83.507 71.2076 83.5622 71.2076 83.5898 71.18C83.5898 71.18 83.645 71.18 83.7002 71.18C83.7554 71.18 83.8106 71.18 83.921 71.1248C84.0038 71.0695 84.0866 70.9867 84.1693 70.9038C84.2521 71.0971 84.3349 71.2905 84.4453 71.5115C82.8447 71.622 82.1272 71.7048 80.8854 71.8429C80.8578 71.7324 80.7474 71.5943 80.637 71.5115C80.5818 71.4562 80.1679 71.7048 80.0299 71.8429C79.6435 70.7381 79.2572 69.6885 78.8432 68.7217C80.2231 68.556 81.5477 68.4179 82.8447 68.335C82.8999 68.4179 82.9275 68.4731 82.9827 68.556C82.7895 68.8046 82.9827 68.8046 82.8999 68.9979ZM69.0741 73.6936C69.35 73.6383 69.3776 73.8317 69.6536 73.3345C69.764 73.1411 69.6536 72.9478 69.7088 72.6716C69.7364 72.4506 70.0951 71.5667 69.8744 71.401C69.626 71.2076 70.3987 70.7657 70.5919 70.7933C70.7574 70.7933 70.7574 70.7104 70.785 70.6C70.785 70.6 70.8402 70.3238 70.8678 70.158C71.5853 69.9923 72.3304 69.8266 73.048 69.6885C73.2963 70.6828 73.5723 71.7877 73.8758 72.9754C71.6405 73.445 71.0334 73.6107 69.1292 74.0802C69.1292 73.9421 69.1016 73.804 69.0741 73.6659C69.0741 73.6659 69.0741 73.6659 69.1017 73.6659L69.0741 73.6936ZM73.4343 66.8711C73.4343 66.8711 73.5171 66.6225 73.4343 66.5673C73.3791 66.5396 73.2687 66.4015 73.1859 66.291C74.3174 66.0701 75.4213 65.8767 76.5251 65.7386C76.9391 66.4568 77.353 67.2578 77.7394 68.1417C76.3319 68.335 74.9245 68.5836 73.5447 68.8598C73.4343 68.4179 73.2963 67.9759 73.1859 67.534C73.3791 67.313 73.5447 67.0921 73.4067 66.8711H73.4343ZM82.4308 67.6721C80.7474 67.8102 80.1679 67.8655 78.5397 68.0588C78.1257 67.1749 77.7394 66.3739 77.3254 65.6558C78.5121 65.5176 79.6435 65.4072 80.6922 65.3243C81.2993 65.9872 81.8788 66.7882 82.4308 67.6721ZM80.9958 64.6338C80.4714 64.0813 79.9471 63.6118 79.4227 63.1975C80.0851 63.1975 80.7474 63.1698 81.3545 63.1975C82.1272 63.5842 82.8723 64.0261 83.5898 64.5785C82.7619 64.5785 81.9064 64.5785 80.9958 64.6338ZM80.0851 64.689C79.064 64.7719 77.9877 64.8824 76.9391 65.0205C76.5803 64.4404 76.2216 63.9432 75.8352 63.5013C76.8839 63.3632 77.2978 63.3356 78.3465 63.2527C78.926 63.6394 79.5055 64.1366 80.0851 64.689ZM72.8548 68.9979C72.358 69.1084 71.8613 69.2189 71.3646 69.3294C71.7233 68.3903 72.3028 68.335 72.6064 68.114C72.6892 68.3903 72.772 68.6941 72.8548 69.0256V68.9979ZM75.1177 69.3018C74.9797 69.4675 74.7589 69.6608 74.6486 69.7161C74.5934 69.7437 74.345 70.2409 74.4554 70.4066C74.5658 70.5447 74.6486 70.7381 74.7865 70.8486C74.7037 70.9314 75.2833 70.5447 75.2557 70.7105C75.1729 71.0695 75.7248 70.5723 75.7524 70.5447C76.0836 70.2409 76.4423 69.8266 76.7459 69.5504C76.8563 69.4675 76.5803 69.2465 76.3319 69.0808C76.8287 68.9979 77.353 68.9151 78.0705 68.8322C78.4845 69.8266 78.8984 70.9038 79.2848 72.0639C77.767 72.2849 76.194 72.5335 74.5934 72.8373C74.3174 71.6772 74.0414 70.5723 73.7655 69.5504C74.2898 69.4399 74.7313 69.357 75.0901 69.3018H75.1177ZM86.3495 70.6276C86.5151 70.4342 86.2115 70.2409 86.1563 70.1028C86.1287 69.9923 86.5978 69.4399 86.4047 69.2741C86.3495 69.2189 85.7424 68.9427 85.7424 68.8874C85.7424 68.8874 85.6872 68.4179 85.632 68.2522C86.0735 68.2522 86.4323 68.2522 86.8738 68.2522C86.8738 68.335 86.8738 68.4455 86.8186 68.556C86.7358 68.8874 87.3429 68.9151 87.3705 68.9151C87.3981 68.9151 87.4809 68.9151 87.5637 68.9151C87.7293 69.1637 87.8673 69.3846 88.0329 69.6332C87.7845 69.7161 87.6189 70.4066 87.6189 70.6C87.6189 71.401 87.8949 70.8762 87.9225 71.1524C87.9225 71.2353 87.8673 71.3457 87.7845 71.4286C87.1222 71.4286 86.4599 71.4286 85.7975 71.4839C85.8527 71.0695 86.4599 71.2629 86.4875 70.8762C86.4875 70.8209 86.1839 70.7933 86.2943 70.6552L86.3495 70.6276ZM89.3299 68.3903C89.3299 68.3903 89.3575 68.3903 89.3851 68.4179C89.4127 68.4179 89.7715 69.2189 89.7439 69.3846C89.6887 69.5504 89.1091 69.4675 88.8056 69.4951C88.6124 69.1913 88.4192 68.8874 88.226 68.6112C88.226 68.6112 88.2812 68.5836 88.3088 68.556C88.4468 68.4731 88.64 68.3903 88.8056 68.3626C88.9712 68.3626 89.1367 68.3903 89.3299 68.4179V68.3903ZM87.1774 67.1473C86.9014 66.7882 86.5978 66.4568 86.2943 66.1253C86.5703 65.8767 87.1498 65.6005 87.3154 65.8491C87.5085 66.0977 87.1498 66.8711 87.1774 67.1473ZM83.9486 65.5729C83.9486 65.5729 83.9486 65.8491 84.0038 65.9596C84.1694 66.3739 83.921 66.0977 83.8106 66.6501C83.7002 67.1749 84.059 66.8987 83.6174 67.3407C83.5622 67.3959 83.507 67.5064 83.4518 67.6445C83.3966 67.6445 83.3139 67.6445 83.2587 67.6445C82.7343 66.7882 82.1548 66.0148 81.5753 65.2967C82.7343 65.2414 83.1759 65.2414 84.0866 65.2691C84.1694 65.4072 83.9762 65.49 83.9486 65.6005V65.5729ZM78.5397 62.5898C78.2637 62.4241 77.9877 62.286 77.7118 62.1478C77.8221 62.1478 77.9601 62.1478 78.0705 62.1478C78.65 62.2307 79.202 62.3688 79.7815 62.5345C79.4227 62.5345 79.064 62.5345 78.5673 62.5898H78.5397ZM75.2833 62.8936C74.9797 62.6174 74.7865 62.4241 74.5934 62.286C75.0625 62.2307 75.504 62.2031 75.918 62.1755C76.3871 62.286 76.8563 62.4517 77.353 62.6727C76.6907 62.7279 76.0008 62.8108 75.3109 62.8936H75.2833ZM79.5055 72.7544C79.6159 73.0859 79.7263 73.4173 79.8091 73.7488C79.7263 73.7764 79.6435 73.804 79.6159 73.8317C79.4779 73.8317 79.5331 74.3288 79.5331 74.3565C79.4779 74.4669 79.5331 74.6327 79.5607 74.7708C79.6159 74.9089 79.7815 74.7984 79.8091 74.8536C79.9471 75.047 79.4779 75.5994 79.8643 75.627C79.9471 75.627 80.1127 75.5718 80.2506 75.4613C80.361 75.8756 80.4714 76.29 80.5818 76.7043C78.926 76.9252 77.2702 77.2015 75.642 77.5329C75.2833 75.9585 74.9797 74.6879 74.7037 73.5278C76.2767 73.224 77.8773 72.9478 79.4503 72.7268L79.5055 72.7544ZM81.4097 76.6214C81.2165 75.9033 81.0509 75.2403 80.8578 74.5774C81.5753 74.3288 81.3269 75.1575 81.6305 74.9089C81.6857 74.8536 82.0444 75.1022 81.6305 75.268C81.3821 75.3785 81.7133 75.5718 81.7961 75.627C82.0444 75.7928 82.348 74.6603 82.9827 75.1851C83.0379 75.2403 82.9827 75.2956 82.9275 75.3785C82.8723 75.4613 82.8999 75.4889 82.7895 75.5718C82.6515 75.6547 82.624 75.6823 82.5136 75.7099C82.4584 75.7099 82.5412 76.0137 82.5688 76.0414C82.6239 76.1795 82.2652 76.4281 82.0444 76.5938C81.8237 76.5938 81.6305 76.649 81.4373 76.6767L81.4097 76.6214ZM87.5361 78.914C87.4533 78.4997 87.343 78.113 87.2602 77.6986C87.4533 77.9196 87.6465 78.0853 87.9501 78.113C88.0881 78.113 88.1984 78.1406 88.3088 78.1682C88.4468 78.1682 88.5572 78.3339 88.6952 78.3892C88.8608 78.4444 89.0263 78.693 89.0815 78.8311C89.0815 78.8864 89.1643 79.2178 88.9987 79.3007C88.8608 79.3835 88.6124 79.3835 88.4192 79.3835C88.3088 79.3835 88.1708 79.4664 88.1708 79.6598C88.1708 79.715 88.1708 79.7426 88.1708 79.7702H87.7017C87.6465 79.494 87.5913 79.1902 87.5085 78.914H87.5361ZM95.208 74.7155C95.7047 74.7984 96.781 74.7155 97.1397 75.5718C97.4433 76.29 96.1738 75.8756 95.6495 75.848C95.5115 75.4613 95.3735 75.0746 95.208 74.7155ZM85.0248 64.0813C85.0248 64.0813 84.6385 63.9709 84.5557 64.0537C84.5557 64.109 84.5005 64.2747 84.5281 64.3023C84.5281 64.3023 84.5005 64.3023 84.3901 64.3852C83.7002 63.8604 83.3139 63.5842 82.8171 63.2803C83.1759 63.3079 83.5346 63.3632 83.8658 63.4184C84.2521 63.5842 84.6109 63.7499 84.9972 63.9432C85.0524 63.9985 85.08 64.0813 85.0248 64.109V64.0813ZM73.5447 62.4241C73.8483 62.5622 74.1242 62.7555 74.4278 63.0041C73.9034 63.087 73.3515 63.1698 72.8272 63.2803C72.8272 63.2803 72.772 63.2803 72.772 63.2251C72.772 63.2251 72.6892 63.1422 72.6064 63.1422C72.4408 63.1422 72.2477 63.1975 72.1373 63.1422C72.0269 63.1422 72.0545 63.087 72.0821 63.0041C72.1373 62.866 72.4684 63.0041 72.496 62.645C72.496 62.6174 72.496 62.5622 72.496 62.5345C72.8272 62.4793 73.1859 62.4241 73.5171 62.3688L73.5447 62.4241ZM68.3565 74.3012C66.1488 74.9365 65.5417 75.1299 63.7479 75.7099C63.7479 75.5442 63.7479 75.3784 63.7203 75.2127C64.2171 75.1022 64.1067 74.6327 64.1067 74.6051C64.1067 74.4669 64.2723 74.0526 64.2723 74.0526C64.631 73.9974 64.4378 73.2516 64.631 73.0859C64.8242 72.9478 64.6034 72.5611 64.4378 72.6163C64.2999 72.6716 64.1895 72.7544 64.1343 72.8649C64.0791 72.9754 63.8859 72.9202 63.8859 72.8649C63.8859 72.8097 63.8031 72.6163 63.6927 72.5611C63.6927 72.4506 63.6927 72.3125 63.6927 72.202C65.0174 71.7601 65.7073 71.5391 66.5352 71.2905C66.4248 71.5391 66.3972 71.8982 66.4524 72.0639C66.48 72.202 66.6456 72.1468 66.7008 72.2572C66.7559 72.3401 66.7008 72.6163 66.7559 72.6992C66.8387 72.8373 67.0319 73.0306 67.0319 73.0583C67.1975 73.2516 67.3079 73.5831 67.4459 73.6107C67.5286 73.6107 67.6666 73.6383 67.7218 73.7212C67.7494 73.7764 67.9702 73.7764 68.0254 73.8317C68.1358 73.9421 68.2186 73.9974 68.3013 73.9698C68.3013 74.0803 68.3289 74.1907 68.3565 74.2736V74.3012ZM66.204 67.2854C65.5417 67.4788 65.0726 67.6445 64.2999 67.8931C64.355 67.6721 64.4378 67.4511 64.493 67.2578C65.5693 66.6501 66.0936 67.2854 66.204 67.2854ZM62.2577 67.4235C62.5061 67.4235 62.782 67.7826 62.92 67.8102C63.0856 67.8102 63.4168 67.5064 63.6927 67.4788C63.6099 67.6997 63.5547 67.9483 63.4996 68.1969L63.3616 68.2522C63.196 68.3074 63.0304 68.3626 62.8648 68.4455C62.0645 68.7493 61.3194 69.0256 60.6295 69.3294C60.9883 68.556 61.4298 67.8378 61.899 67.2025C61.9541 67.2025 62.0093 67.1749 62.0369 67.1473C62.0921 67.313 62.1197 67.4788 62.2577 67.4788V67.4235ZM59.4429 68.3903C59.8292 68.1417 60.2708 67.9207 60.7399 67.6997C60.4639 68.114 60.2432 68.556 60.0224 69.0256C59.912 68.9151 59.7464 68.8046 59.6636 68.8046C59.636 68.8046 59.4429 68.7217 59.2773 68.6389C59.3325 68.556 59.4153 68.4731 59.4705 68.4179L59.4429 68.3903ZM58.6702 69.4675C58.6702 69.4675 59.5808 69.3294 59.636 69.4399C59.636 69.4675 59.7188 69.5227 59.774 69.5227C59.774 69.578 59.7188 69.6056 59.7188 69.6608C59.0565 69.9647 58.3942 70.2685 57.8147 70.6C58.0354 70.2409 58.2838 69.8818 58.5322 69.5227C58.5874 69.5227 58.6426 69.4675 58.6702 69.4399V69.4675ZM54.9998 73.2516C55.5242 72.8097 55.7449 72.6439 56.1313 72.3954C55.7173 73.3069 55.3586 74.2736 55.0826 75.2956C54.8342 75.4613 54.6411 75.5718 54.4755 75.6823C54.5031 75.5718 54.5307 75.4337 54.4755 75.3232C54.4203 75.268 54.2823 75.047 54.2271 74.7984C54.4203 74.4117 54.6687 73.9421 55.0274 73.2792L54.9998 73.2516ZM58.1734 78.693C58.1734 79.0521 58.1734 79.4112 58.201 79.7702H56.9868C56.9868 79.7702 56.8764 79.494 56.8764 79.3283C57.2903 79.1073 57.7319 78.914 58.1734 78.693ZM70.0951 79.7702C70.0951 79.7702 70.0951 79.6874 70.0675 79.6321C71.7233 79.1902 73.4067 78.8035 75.1177 78.4444C75.2005 78.8864 75.3109 79.3283 75.4213 79.7702H70.1227H70.0951ZM76.194 79.7702C76.1112 79.3835 76.0284 79.0245 75.9456 78.6378L75.8628 78.2787C78.2085 77.8367 78.8984 77.7263 80.8302 77.4501C80.9958 78.113 81.1613 78.8035 81.3269 79.5769C81.3269 79.6321 81.3545 79.6874 81.3545 79.7702H76.194ZM84.4177 79.6045C84.5833 79.4664 84.5557 79.2731 84.6937 79.0521C84.8041 78.8864 85.08 78.7483 85.08 78.6101C85.08 78.5273 84.9145 78.3339 84.9145 78.1958C84.9145 78.0577 85.0524 77.9749 85.1352 77.9196C85.356 77.7815 85.6872 77.9749 85.7975 77.8644C86.0183 77.671 86.1287 77.2843 86.3495 77.1462C86.5151 77.7539 86.653 78.3892 86.791 79.0245C86.8462 79.2731 86.9014 79.5216 86.9566 79.7426H84.3349C84.3349 79.7426 84.3625 79.6321 84.4453 79.5769L84.4177 79.6045ZM74.1242 110.347C61.7886 104.768 54.5307 96.343 51.0811 83.5267H74.1242V110.347ZM77.8773 110.347V83.5544H100.7C97.6089 93.8295 91.0685 104.132 77.8773 110.347ZM101.693 79.7702H101.61C98.2712 68.7493 88.0329 60.6839 75.918 60.6839C63.8031 60.6839 53.5648 68.7217 50.2256 79.7702H50.198C50.198 79.7702 50.198 79.6874 50.198 79.6598C48.3491 70.3514 48.7354 61.7888 49.1494 57.3417H102.769C103.349 62.645 103.653 70.9867 101.693 79.7702ZM122.17 62.3688C121.949 62.3688 121.728 62.4241 121.507 62.4793C121.287 62.5345 121.038 62.5898 120.762 62.645C120.486 62.7003 120.266 62.7831 120.017 62.8384C119.796 62.8936 119.576 62.9765 119.383 63.0594C119.189 63.1422 119.024 63.2527 118.858 63.3632C118.693 63.4737 118.582 63.6394 118.444 63.8327C118.279 64.109 118.168 64.3852 118.141 64.689C118.085 64.9928 118.113 65.3243 118.196 65.6558C118.251 65.932 118.361 66.1806 118.499 66.4292C118.637 66.6501 118.831 66.8711 119.024 67.0092C119.245 67.1749 119.465 67.2854 119.741 67.3683C120.017 67.4511 120.321 67.4788 120.652 67.4511L120.348 66.2358C120.072 66.2358 119.852 66.1806 119.658 66.0425C119.438 65.932 119.3 65.711 119.245 65.4072C119.217 65.2414 119.189 65.0757 119.245 64.9376C119.245 64.7995 119.327 64.6614 119.41 64.5509C119.465 64.468 119.521 64.4128 119.576 64.3576C119.631 64.3023 119.741 64.2471 119.852 64.1918C119.962 64.1366 120.128 64.0813 120.321 64.0261C120.514 63.9709 120.762 63.9156 121.038 63.8327C121.342 63.7499 121.563 63.6946 121.783 63.667C121.977 63.6394 122.142 63.6118 122.28 63.5842C122.418 63.5842 122.529 63.5842 122.611 63.5842C122.694 63.5842 122.777 63.6394 122.86 63.667C122.97 63.7223 123.08 63.8051 123.163 63.9432C123.246 64.0537 123.329 64.1918 123.356 64.3576C123.439 64.6614 123.412 64.91 123.274 65.1033C123.136 65.2967 122.97 65.4624 122.749 65.6005L123.053 66.8158C123.356 66.6777 123.605 66.512 123.826 66.3187C124.046 66.1253 124.184 65.9043 124.322 65.6834C124.433 65.4348 124.515 65.1862 124.515 64.91C124.515 64.6338 124.515 64.3576 124.433 64.0813C124.35 63.7499 124.212 63.4461 124.046 63.1975C123.853 62.9489 123.632 62.7555 123.356 62.5898C123.163 62.4793 122.97 62.3964 122.777 62.3412C122.584 62.3136 122.391 62.286 122.17 62.3136M113.698 106.894C113.615 106.701 113.504 106.535 113.394 106.37C113.256 106.204 113.118 106.038 112.925 105.872C112.759 105.707 112.566 105.541 112.373 105.348C112.18 105.154 111.987 104.988 111.793 104.85C111.6 104.685 111.435 104.574 111.269 104.464C111.104 104.353 110.91 104.27 110.717 104.215C110.524 104.16 110.331 104.132 110.082 104.16C109.779 104.16 109.475 104.243 109.199 104.381C108.923 104.519 108.675 104.712 108.454 104.961C108.261 105.182 108.123 105.403 107.985 105.651C107.875 105.9 107.82 106.149 107.792 106.425C107.792 106.701 107.82 106.95 107.93 107.226C108.013 107.502 108.178 107.751 108.399 108.027L109.227 107.088C109.089 106.867 109.006 106.646 108.979 106.397C108.979 106.149 109.061 105.928 109.255 105.679C109.365 105.541 109.503 105.458 109.613 105.403C109.751 105.348 109.889 105.32 110 105.32C110.082 105.32 110.165 105.32 110.276 105.348C110.358 105.348 110.469 105.403 110.579 105.486C110.69 105.541 110.828 105.651 110.993 105.79C111.159 105.928 111.324 106.093 111.573 106.287C111.793 106.48 111.987 106.646 112.125 106.784C112.263 106.922 112.373 107.032 112.456 107.143C112.539 107.253 112.594 107.336 112.621 107.419C112.649 107.502 112.677 107.585 112.677 107.668C112.677 107.806 112.677 107.944 112.621 108.082C112.566 108.22 112.511 108.358 112.401 108.496C112.18 108.717 111.959 108.855 111.738 108.855C111.49 108.855 111.269 108.8 111.021 108.69L110.193 109.629C110.469 109.795 110.745 109.933 111.021 109.988C111.297 110.043 111.573 110.071 111.821 110.016C112.097 109.988 112.318 109.877 112.566 109.739C112.787 109.601 113.008 109.436 113.201 109.215C113.422 108.966 113.587 108.69 113.698 108.386C113.808 108.11 113.836 107.806 113.808 107.474C113.808 107.253 113.753 107.032 113.67 106.867" fill="black"/>
<path fill-rule="evenodd" clip-rule="evenodd" d="M114.853 53.9996L113.28 51.5413L114.577 50.7126L115.902 52.8118L116.84 52.2318L115.516 50.105L116.757 49.3316L118.33 51.7899L119.241 51.2098L117.006 47.7019L111.68 51.0717L113.915 54.5796L114.853 53.9996Z" fill="black"/>
<path fill-rule="evenodd" clip-rule="evenodd" d="M94.9609 120.097L97.8862 120.926L98.7141 117.998L95.7888 117.169L94.9609 120.097Z" fill="black"/>
<path fill-rule="evenodd" clip-rule="evenodd" d="M91.9231 28.8091L90.7364 28.4224L88.8047 34.4162L89.9637 34.8029L91.9231 28.8091Z" fill="black"/>
<path fill-rule="evenodd" clip-rule="evenodd" d="M43.4111 45.0503L43.3559 42.012L40.3203 42.0672L40.3755 45.1055L43.4111 45.0503Z" fill="black"/>
<path fill-rule="evenodd" clip-rule="evenodd" d="M50.5005 40.7691L46.7474 35.7144L45.7539 36.4601L49.5346 41.5148L50.5005 40.7691Z" fill="black"/>
<path fill-rule="evenodd" clip-rule="evenodd" d="M54.2291 38.366L52.3801 34.9409L56.4092 37.1506L57.3751 36.6258L54.3671 31.1016L53.2908 31.6816L55.1398 35.079L51.0831 32.8693L50.1172 33.3941L53.1252 38.946L54.2291 38.366Z" fill="black"/>
<path fill-rule="evenodd" clip-rule="evenodd" d="M39.9052 51.7071L38.9669 51.127L37.4491 53.6406L36.1245 52.8395L37.4215 50.7127L36.4832 50.1326L35.1862 52.2871L33.9168 51.5137L35.4346 49.0002L34.4963 48.4478L32.3438 52.0109L37.7527 55.2702L39.9052 51.7071Z" fill="black"/>
<path fill-rule="evenodd" clip-rule="evenodd" d="M141.708 81.4276C144.882 80.4056 151.974 78.1683 151.974 78.1683L141.901 74.1908C141.901 74.1908 148.69 71.1525 151.753 69.7438L141.322 66.954C144.164 65.131 150.622 61.5403 150.622 61.5403L139.942 59.7725L148.469 53.3091L137.762 52.8395L145.627 45.4647L134.892 46.1828C137.044 43.6693 139.666 40.4928 141.874 38.0345L131.277 39.8852L137.265 30.9635L126.972 34.0294C128.434 31.0463 131.939 24.4448 131.939 24.4448L122.473 28.1461L125.923 18.6168L116.595 23.8096C117.451 20.5779 118.637 16.7109 119.438 13.4516L110.634 19.694C110.634 19.694 111.766 12.2362 112.263 9.05979L104.204 16.2137L104.756 5.4414L104.204 6.07669C101.969 8.50736 99.8166 11.2419 97.4985 13.424L96.8638 2.78975L90.5718 11.4905C89.9923 8.20353 89.2472 4.30892 88.8056 0.966745L83.3967 10.2475L80.3887 0.0276213L76.1664 9.80556L72.0545 0L68.9361 10.2475L63.748 0.883882L61.8162 11.38L55.6346 2.65164L54.8067 13.3411L47.7144 5.35853L48.0732 16.1032L40.0702 9.00454L41.6432 19.5835L33.0054 13.2858L35.6271 23.7267C35.6271 23.7267 29.2799 20.0807 26.3823 18.4234L30.1906 28.5052L20.311 24.3067L25.168 33.8085L14.9573 30.7149L20.9182 39.6089L10.3487 37.6754L17.1926 45.9895L6.56797 45.1332L14.2398 52.6738L3.55995 52.95L12.0597 59.6068L1.46262 61.0983L10.6799 66.7054C7.50626 67.6722 3.44957 68.5284 0.275965 69.4399L9.96235 73.8594C6.84394 75.1575 0 77.8368 0 77.8368C0 77.8368 7.23029 80.0189 10.2383 81.2619L0.63472 86.1785C0.63472 86.1785 7.9754 87.7252 11.2318 88.4158C8.49973 90.2664 2.20772 94.382 2.20772 94.382L12.998 95.4316C10.5143 97.6137 4.69141 102.392 4.69141 102.392L15.5368 102.309L8.03059 110.098L18.7656 108.745C16.7511 111.397 12.1701 117.335 12.1701 117.335L22.7671 114.905L17.1374 124.13L27.4309 120.539L22.8223 130.262C22.8223 130.262 29.6387 126.809 32.5915 125.594L29.1419 135.869L38.2212 130.096L36.0411 140.675L44.4304 134.046L43.3817 144.68L51.1364 136.891L51.0536 147.802C51.0536 147.802 55.8278 141.752 57.9251 139.349C58.3943 142.664 59.2497 150.122 59.2497 150.122L64.9898 140.896L67.3079 151.503L67.7771 150.674L72.2753 141.614L75.8629 152L79.616 141.973L84.2798 151.558L86.7911 140.951C86.7911 140.951 90.8202 147.332 92.5036 150.205L93.8558 139.349C93.8558 139.349 98.4368 145.343 100.589 147.912L100.893 137.333L108.316 144.68L107.433 134.129L115.685 140.786C115.022 137.747 113.477 130.069 113.477 130.069C116.237 131.975 119.824 134.157 122.611 135.98L119.272 125.649L128.986 130.428C128.986 130.428 125.73 123.55 124.46 120.567C127.441 121.644 131.635 123.136 134.616 124.323C134.975 124.6 129.317 114.987 129.317 114.987L139.638 117.529L133.264 108.856L143.833 110.264L136.354 102.365L147.2 102.613L138.949 95.5697L149.711 94.6029L140.77 88.4986L151.312 86.427L141.736 81.3171L141.708 81.4276ZM149.214 77.7263L135.113 77.2015L141.46 74.6604C144.054 75.6547 146.62 76.6767 149.214 77.6987V77.7263ZM132.519 91.1779L137.734 95.183L131.084 95.6525C131.084 95.6525 132.105 92.6695 132.519 91.1503V91.1779ZM129.98 53.1986L136.603 53.3091C134.947 54.8283 133.374 56.3474 131.58 57.7009L129.98 53.1986ZM132.077 59.1372L138.617 60.1316C136.713 61.4298 135.168 62.728 133.208 63.9157L132.049 59.1372H132.077ZM133.871 84.825L139.638 88.4434L132.932 89.5206L133.871 84.825ZM133.595 65.5453L139.914 67.175L134.312 70.241L133.595 65.5453ZM134.478 78.4445L140.687 81.3447C138.562 82.0353 136.272 82.5601 134.119 83.1677L134.478 78.4721V78.4445ZM134.395 71.9535L140.853 74.1908C138.838 75.0747 136.658 75.931 134.561 76.7872L134.423 71.9811L134.395 71.9535ZM148.938 69.6333L134.892 70.7105L140.88 67.5065L148.911 69.6057L148.938 69.6333ZM147.724 61.706L133.954 64.2471L139.5 60.3249L147.724 61.706ZM145.792 53.8615L132.408 57.9495L137.569 53.4748L145.792 53.8339V53.8615ZM143.005 46.2657L130.062 51.9004L134.699 46.7629C134.699 46.7629 140.273 46.4314 143.005 46.2381V46.2657ZM129.317 51.6795L127.082 47.3981C129.345 47.1496 133.705 46.7629 133.705 46.7629C133.705 46.7629 130.808 49.9669 129.317 51.6795ZM139.142 39.1394L126.778 46.2657L130.725 40.6033C133.457 40.1337 136.41 39.6366 139.114 39.1394H139.142ZM126.227 45.9618L123.55 41.7634L129.869 40.7967L126.254 45.9618H126.227ZM134.892 32.3445L123.522 40.5757L126.972 34.6647C129.621 33.8913 132.27 33.1456 134.864 32.3445H134.892ZM122.749 40.5757H122.584L119.631 36.9021L126.144 34.6647L122.749 40.5757ZM129.676 26.1021L119.41 35.6039L122.253 29.0576L129.676 26.1297V26.1021ZM118.582 35.7696L115.078 32.4274C117.092 31.3778 119.245 30.3834 121.37 29.4719L118.582 35.7696ZM116.761 24.6106L123.991 20.4674L114.664 31.1016L116.789 24.583L116.761 24.6106ZM113.918 31.2673L110.083 28.3671L115.878 24.7487C115.409 26.8203 114.526 29.0576 113.918 31.2673ZM110.883 20.3293L117.534 15.5784L109.531 27.1517L110.883 20.3293ZM108.813 27.3451C107.461 26.6546 106.109 25.6326 104.674 24.9144L110.083 20.6331C109.641 22.8704 109.199 25.1354 108.786 27.3451H108.813ZM104.536 16.9595L110.69 11.38L103.956 23.7543L104.536 16.9595ZM97.9677 14.0592L103.459 7.89969L98.1057 20.9369C98.0781 18.8653 97.9125 16.3794 97.9953 14.0592H97.9677ZM103.818 17.2081L103.239 24.0858L98.906 22.0694L103.818 17.2081ZM97.2502 14.4736L97.3605 21.4065L92.8899 19.8873V19.6664L97.2226 14.4459L97.2502 14.4736ZM95.7875 5.35853L91.8688 18.8653L90.9857 11.9876L95.7875 5.35853ZM90.3786 12.5124L91.3169 19.3902L86.5151 18.3958L90.3786 12.5124ZM87.9225 3.86698L85.5216 17.429L83.921 10.9104L87.9225 3.86698ZM83.2587 11.38L84.9973 18.092L80.1403 17.5671L83.2311 11.3524L83.2587 11.38ZM79.9471 2.67927L79.0641 16.7938L76.608 10.4961L79.9471 2.67927ZM76.1664 11.2695C76.1664 11.2695 77.8498 15.2746 78.5673 17.5119L73.7379 17.429L76.1664 11.2695ZM71.8338 2.73451L72.5513 16.7938L69.5157 10.6894L71.8338 2.73451ZM69.0465 11.38L72.1373 17.5948L67.2803 18.1196L69.0189 11.4076L69.0465 11.38ZM63.8308 3.61839C63.8308 3.61839 65.3486 12.8715 66.0661 17.5119L62.3958 11.7943L63.8308 3.61839ZM62.0094 12.4572L65.7625 18.3129L61.0711 19.3902L62.0094 12.4572ZM55.9382 5.41377L59.6913 18.8653L55.3862 13.8106L55.9382 5.41377ZM55.2483 14.7774L59.4981 19.7492C58.0355 20.3293 56.4349 20.7988 54.9447 21.4065L55.2483 14.7774ZM53.5649 21.0474L48.6803 16.5452L48.3767 8.0378L53.5925 21.0751L53.5649 21.0474ZM53.4821 22.0142L49.039 24.0305L48.5975 17.429L53.4821 22.0142ZM17.717 76.511C15.5644 75.7928 13.4119 74.7985 11.2594 73.9698C13.3567 73.1136 15.6196 72.4507 17.8274 71.7049C17.5514 73.1964 17.7446 74.9918 17.717 76.4834V76.511ZM18.0757 83.002L11.425 81.0409C11.425 81.0409 15.6196 79.0798 17.717 78.1407L18.0757 83.002ZM11.8389 66.7883L18.5449 65.2691L17.9653 70.02L11.8113 66.7607L11.8389 66.7883ZM18.2689 84.5212L19.2072 89.3273L12.3908 88.1396L18.2689 84.5212ZM13.2187 59.7725C15.4817 59.441 17.8274 59.2753 20.1455 59.0543L18.9036 63.75L13.2187 59.7725ZM19.5107 90.8741C20.0351 92.3104 20.4766 93.94 21.0286 95.4592L14.157 95.1001L19.5107 90.8741ZM20.4766 57.7009L15.8404 53.2815L22.3256 53.0053L20.4766 57.7285V57.7009ZM42.3607 20.716L47.8524 24.7487L43.4921 27.3451L42.3607 20.716ZM42.3883 28.1185L38.442 31.1844L36.5654 24.9144L42.4159 28.1185H42.3883ZM41.036 11.5181L47.6868 23.8648L42.2503 19.8321L41.036 11.4905V11.5181ZM34.2473 15.7718L42.1951 27.3451L36.3998 24.0305L34.2473 15.7718ZM27.9001 20.6884L37.0897 31.433L30.9909 28.6985L27.9001 20.716V20.6884ZM37.3381 32.1512L33.723 35.6315L31.1565 29.5548L37.3381 32.1512ZM22.1048 26.3507C25.4992 29.6377 29.0315 32.676 32.4535 35.9629L26.1063 33.9742L22.1324 26.3231L22.1048 26.3507ZM32.6467 36.764C31.6256 38.0345 30.577 39.3051 29.5559 40.5481L26.4375 34.9133L32.6743 36.764H32.6467ZM16.9719 32.5655C20.725 35.4105 24.5609 38.145 28.2864 41.0452L21.6909 39.6089L16.9719 32.5655ZM28.6176 41.7634L26.0235 45.7961L25.9683 45.9342L22.0772 40.3547L28.6452 41.7634H28.6176ZM12.6392 39.388L24.7817 46.4866L18.1585 45.9895L12.6392 39.388ZM25.1404 47.1772L22.9603 51.5137L18.5725 46.68L25.1404 47.1496V47.1772ZM9.10685 46.5971C13.4119 48.4754 17.4962 50.4089 21.8013 52.2595L15.1505 52.5357L9.10685 46.5971ZM6.12643 54.1377L19.5659 58.419L12.7496 59.1372L6.12643 54.1377ZM4.16708 61.9269L17.9653 64.7167L11.1766 66.153L4.16708 61.9269ZM3.09081 69.9924L17.1098 71.2353L10.5971 73.4174L3.09081 70.02V69.9924ZM2.87004 78.0025L16.9719 77.7263L10.8178 80.5437L2.87004 78.0025ZM3.61514 86.068L17.4686 84.1621L11.7837 87.7252L3.61514 86.068ZM5.16055 94.0229L18.7932 90.6255L13.4395 94.7411L5.18815 94.0229H5.16055ZM7.58905 101.674L20.725 96.8126L15.8956 101.508L7.58905 101.674ZM21.5253 96.9784L23.4846 101.481L16.6131 101.757L21.5253 97.006V96.9784ZM10.8454 109.076L23.3467 102.779L19.0692 107.999L10.8454 109.076ZM24.1194 102.917C24.9749 104.215 25.7752 105.651 26.5755 107.033L19.7591 108.165L24.0918 102.889L24.1194 102.917ZM14.9297 116.009L26.5755 108.414L22.8775 114.159L14.9297 116.037V116.009ZM27.4585 108.496L30.3562 112.336L23.8158 114.076L27.4585 108.524V108.496ZM19.6487 122.528L30.577 113.634L27.5413 119.711L19.6211 122.528H19.6487ZM31.3497 113.606L34.606 117.087L28.452 119.517L31.3497 113.634V113.606ZM32.6191 124.683L25.168 128.246L34.9924 118.357L32.6191 124.683ZM35.7927 118.33L39.4078 121.423L33.4746 124.406L35.7927 118.302V118.33ZM38.166 129.323L31.2117 133.715L39.877 122.639L38.166 129.295V129.323ZM40.6773 122.445L44.5684 125.18L39.0215 128.909L40.6773 122.418V122.445ZM44.4304 133.19L37.8072 138.355L45.2583 126.312L44.4304 133.162V133.19ZM45.9482 126.146L50.1429 128.411L45.0099 132.886L45.9482 126.174V126.146ZM44.9547 142.139L50.9708 129.489L51.0536 136.063L44.9272 142.167L44.9547 142.139ZM52.185 145.233L57.0144 131.864C57.2904 134.157 57.7871 138.466 57.7871 138.466L52.185 145.205V145.233ZM51.6883 135.621L51.7435 129.102L56.0761 130.925L51.6883 135.621ZM58.4219 137.803L57.6768 131.505L62.2302 132.803L58.4219 137.803ZM60.0776 147.442L63.3064 133.577L64.6863 140.04L60.0776 147.415V147.442ZM65.2106 139.349L63.886 133.162L68.5222 133.936L65.2106 139.349ZM68.0806 148.713L69.764 134.654L71.6958 141.172L68.0806 148.713ZM72.2753 140.592L70.2332 134.184L75.0902 134.46L72.2753 140.592ZM76.2768 149.127L76.332 135.013L79.0641 141.476L76.2768 149.127ZM79.5332 140.703C79.5332 140.703 77.8222 136.477 76.7459 134.46C78.3465 134.378 81.5477 134.184 81.5477 134.184L79.5332 140.703ZM84.2798 148.658L82.762 134.654L86.1288 140.537L84.2522 148.658H84.2798ZM86.5979 139.874L83.2035 134.019L87.8949 133.218L86.5979 139.874ZM92.2276 147.332L89.192 133.521L93.2487 139.101L92.2276 147.332ZM93.635 138.383L89.5783 132.858L94.1318 131.56L93.6626 138.383H93.635ZM99.9822 145.039L95.484 131.726L100.175 136.864L99.9546 145.039H99.9822ZM95.7875 131.035L100.12 129.24L100.231 135.842L95.7875 131.063V131.035ZM76.0284 130.787C45.8102 130.787 21.3045 106.259 21.3045 76.0138C21.3045 45.7685 45.8102 21.2408 76.0284 21.2408C106.247 21.2408 130.752 45.7685 130.752 76.0138C130.752 106.259 106.247 130.787 76.0284 130.787ZM135.223 101.923L128.655 101.591L130.559 97.2822L135.223 101.923ZM132.022 108.193L125.509 107.309C126.502 105.651 127.827 103.166 127.827 103.166L132.022 108.193ZM128.186 114.214L121.673 112.557L124.488 108.717L128.186 114.214ZM123.688 119.932L117.478 117.391L120.597 113.827L123.688 119.932ZM116.099 118.523L118.555 124.876L112.621 121.617L116.099 118.523ZM111.186 122.666L112.897 129.24L107.35 125.401L111.186 122.666ZM106.771 132.941L101.721 128.522L105.86 126.285L106.799 132.941H106.771ZM107.544 142.305L101.5 129.24L106.799 133.963L107.544 142.333V142.305ZM114.498 138.162L107.213 126.119L112.704 129.958L114.498 138.162ZM121.149 133.577L112.539 122.362L118.555 125.705L121.149 133.577ZM127.275 128.246L117.478 118.109L123.743 120.705L127.248 128.246H127.275ZM132.767 122.307L121.839 113.247L128.517 114.987L132.767 122.307ZM137.431 115.788L125.647 108.027L132.381 108.938L137.431 115.761V115.788ZM141.405 108.773L128.903 102.365L135.527 102.641L141.405 108.773ZM144.661 101.37L131.497 96.3983L138.176 95.8459L144.661 101.37ZM147.2 93.7743L133.374 90.1559L140.246 89.0787L147.2 93.7743ZM134.588 83.7478L141.184 81.8971L148.552 85.7641L134.561 83.7478H134.588Z" fill="black"/>
<path fill-rule="evenodd" clip-rule="evenodd" d="M59.826 30.0519L61.4818 34.9961L62.6685 34.6094L60.9851 29.6652L62.5581 29.1404L62.1993 28.0908L57.9219 29.5547L58.253 30.5767L59.826 30.0519Z" fill="black"/>
<path fill-rule="evenodd" clip-rule="evenodd" d="M29.9699 60.1591C30.1079 60.2972 30.2735 60.4353 30.439 60.5458C30.6322 60.6563 30.8254 60.7668 31.0462 60.8497C31.2669 60.9325 31.4877 61.043 31.7637 61.1259C32.012 61.2364 32.2604 61.3192 32.4812 61.4021C32.702 61.485 32.9227 61.5402 33.1159 61.5954C33.3091 61.6507 33.5299 61.6507 33.723 61.6507C33.9162 61.6507 34.137 61.5954 34.3302 61.485C34.6337 61.3468 34.8821 61.1811 35.0753 60.9601C35.296 60.7392 35.4616 60.463 35.572 60.1591C35.71 59.8553 35.7652 59.5238 35.7652 59.22C35.7652 58.9162 35.71 58.5847 35.5444 58.2533C35.4064 57.977 35.2132 57.7285 34.9649 57.5351C34.7165 57.3418 34.3853 57.1484 33.9714 56.9827L33.1159 56.6512L32.2328 58.8609L33.1987 59.2476L33.6126 58.1704L33.8334 58.2533C33.999 58.3085 34.1094 58.3914 34.2474 58.4742C34.3577 58.5571 34.4405 58.6952 34.5233 58.8057C34.5785 58.9438 34.6337 59.0819 34.6337 59.2476C34.6337 59.4134 34.6061 59.5791 34.5509 59.7448C34.4957 59.9105 34.4129 60.021 34.3026 60.1315C34.1922 60.242 34.0818 60.2972 33.9714 60.3525C33.8886 60.3801 33.8058 60.4077 33.723 60.4077C33.6402 60.4077 33.5299 60.4077 33.3919 60.3801C33.2539 60.3801 33.1159 60.2972 32.9227 60.242C32.7296 60.1868 32.5088 60.0763 32.2052 59.9658C31.9293 59.8553 31.7085 59.7724 31.5153 59.6896C31.3221 59.6067 31.1841 59.5238 31.0738 59.4686C30.9634 59.3857 30.8806 59.3305 30.8254 59.2753C30.7702 59.22 30.715 59.1371 30.6874 59.0543C30.6322 58.9438 30.6046 58.8057 30.577 58.6676C30.577 58.5295 30.577 58.3637 30.6598 58.198C30.7702 57.8942 30.9358 57.7008 31.1566 57.5904C31.3773 57.4799 31.6257 57.4522 31.9293 57.4799L32.3984 56.3198C32.1224 56.2645 31.8741 56.2369 31.5981 56.2645C31.3221 56.2922 31.0738 56.3474 30.8254 56.4579C30.577 56.5684 30.3563 56.7341 30.1355 56.9551C29.9147 57.176 29.7491 57.4522 29.6111 57.7837C29.4732 58.1152 29.418 58.419 29.418 58.7228C29.418 59.0267 29.5008 59.3305 29.6111 59.6067C29.6939 59.8001 29.8043 59.9934 29.9423 60.1315M62.7546 47.039C63.0581 47.6743 63.4997 48.2267 64.0516 48.6134C64.6035 49.0278 65.2383 49.3316 65.9282 49.5249C66.6181 49.7183 67.3908 49.8288 68.1911 49.8288C68.743 49.8288 69.3226 49.7735 69.8469 49.6907C70.3988 49.6078 70.868 49.4421 71.2543 49.2487C71.3371 49.1935 71.3923 49.1382 71.4199 49.083C71.4199 49.0278 71.4475 48.9173 71.4475 48.7239V47.3428C71.4475 46.5971 71.4475 45.9065 71.4475 45.658V44.7741C71.4475 44.7741 71.3923 44.6083 71.2819 44.6083C70.9507 44.6083 70.73 44.6083 70.6196 44.6083C70.5368 44.6083 70.316 44.6083 69.9297 44.6083C69.3777 44.6083 69.019 44.6083 68.7706 44.6083C68.4671 44.6083 68.4119 44.7188 68.4119 44.8293C68.4119 44.8846 68.4119 45.0227 68.6878 45.0227C68.9086 45.0227 69.0742 45.0227 69.157 45.0503C69.3226 45.0779 69.4605 45.1608 69.5157 45.2436C69.5709 45.3265 69.6261 45.4922 69.6261 45.6856C69.6261 45.9342 69.6261 46.6247 69.6261 47.3428V48.5306C69.6261 48.7239 69.5709 48.862 69.4329 48.9173C69.3225 48.9725 69.157 49.0001 68.9914 49.0277C68.8258 49.0277 68.605 49.0277 68.3843 49.0277C67.7495 49.0277 67.1424 48.9173 66.6181 48.6687C66.0938 48.4477 65.6246 48.1162 65.2383 47.7019C64.8519 47.2876 64.5759 46.7904 64.3552 46.2104C64.162 45.6303 64.0516 45.0227 64.0516 44.3597C64.0516 43.614 64.162 43.0063 64.3552 42.5091C64.5484 42.0119 64.8243 41.6252 65.1831 41.3214C65.5694 41.0176 65.9558 40.7966 66.3421 40.7137C67.2804 40.4928 68.4671 40.5204 69.3225 40.8795C69.8193 41.0728 70.178 41.2938 70.3712 41.5424C70.5092 41.6805 70.592 41.8462 70.6472 41.9843C70.7024 42.15 70.73 42.3158 70.7852 42.5367C70.8128 42.7301 70.9231 42.7577 71.0059 42.7577C71.1163 42.7577 71.2267 42.7025 71.2267 42.3986C71.2267 41.8738 71.2267 41.4595 71.2267 41.1833C71.2267 40.9071 71.2543 40.6585 71.2819 40.4928C71.2819 40.4099 71.2819 40.3823 71.2819 40.3547C71.2819 40.2994 71.2819 40.1337 71.0335 40.1061C70.8955 40.1061 70.7576 40.1061 70.5644 40.0508C70.3712 40.0508 70.2056 39.9956 70.0401 39.968C69.9849 39.968 69.8469 39.9403 69.7089 39.9127C69.5433 39.9127 69.3501 39.8575 69.1294 39.8299C68.881 39.8299 68.6602 39.7746 68.4395 39.7746C67.5564 39.7194 66.7285 39.7746 66.011 39.9127C65.459 40.0232 64.9071 40.2442 64.3552 40.5756C63.7205 40.9623 63.1685 41.5148 62.7546 42.2329C62.3406 42.9511 62.1199 43.8073 62.1199 44.7741C62.1199 45.6303 62.2854 46.3761 62.589 47.0114M77.8499 49.2211H77.5463C77.3807 49.1659 77.2979 49.1106 77.2427 49.0554C77.1876 48.9725 77.1324 48.8344 77.1048 48.6687C77.1048 48.4201 77.0772 48.1162 77.0496 47.7019C77.0496 47.2876 77.0496 46.7076 77.0496 45.9065V41.7357C77.0496 41.4595 77.0496 41.2109 77.0772 41.0176C77.0772 40.7966 77.1324 40.6585 77.1876 40.548C77.2428 40.4651 77.3255 40.4099 77.4635 40.3823C77.6015 40.3823 77.7395 40.3547 77.8223 40.3547C78.0707 40.3547 78.0982 40.2166 78.0982 40.1337C78.0982 39.9403 77.8223 39.9403 77.7395 39.9403C77.5739 39.9403 77.2428 39.9403 76.8288 39.9403C76.5252 39.9403 76.3045 39.9403 76.2217 39.9403C76.0837 39.9403 75.8629 39.9403 75.5042 39.9403C75.035 39.9403 74.7315 39.9403 74.5659 39.9403C74.4555 39.9403 74.1795 39.9403 74.1795 40.1337C74.1795 40.1889 74.2071 40.3547 74.4555 40.3547C74.6211 40.3547 74.7591 40.3547 74.897 40.4099C75.1178 40.4651 75.2282 40.6585 75.2558 41.0452C75.2558 41.2662 75.2834 41.4871 75.2834 41.7633V45.9342C75.2834 46.7076 75.2834 47.2876 75.2834 47.7019C75.2834 48.1162 75.2834 48.4201 75.2282 48.6687C75.2006 49.0001 75.0902 49.1935 74.9246 49.2211C74.7867 49.2487 74.6211 49.2763 74.4831 49.2763C74.2347 49.2763 74.2071 49.3868 74.2071 49.4697C74.2071 49.5526 74.2623 49.6907 74.5383 49.6907C74.7039 49.6907 75.035 49.6907 75.5318 49.6907C75.8629 49.6907 76.0561 49.6907 76.1113 49.6907C76.2217 49.6907 76.4149 49.6907 76.6908 49.6907C77.2704 49.6907 77.7119 49.6907 78.0707 49.6907C78.3466 49.6907 78.4018 49.5802 78.4018 49.4697C78.4018 49.3868 78.3742 49.2763 78.1258 49.2763C78.0155 49.2763 77.9327 49.2763 77.8223 49.2763M79.6988 49.6354C79.9196 49.6354 80.1404 49.6354 80.3888 49.6354C80.6095 49.6354 80.8027 49.6354 80.9407 49.6354C81.0787 49.6354 81.1615 49.6354 81.1891 49.6354C81.2994 49.6354 81.5202 49.6354 81.8514 49.6354C82.1549 49.6354 82.3757 49.6354 82.5413 49.6354C82.7897 49.6354 82.8448 49.4973 82.8448 49.4144C82.8448 49.3592 82.8172 49.2211 82.5689 49.2211H82.3757C82.2101 49.2211 82.0997 49.2211 82.0445 49.1382C81.9894 49.083 81.9618 49.0001 81.9618 48.9173C81.9618 48.7239 82.017 48.4753 82.1549 48.1715L82.8724 46.3209H85.7425L86.736 49.0277C86.736 49.0277 86.7912 49.2211 86.8463 49.3592C86.9015 49.4973 86.9567 49.6078 87.0947 49.6078C87.2327 49.6078 87.3707 49.6078 87.5363 49.6078C87.7018 49.6078 87.895 49.6078 88.0882 49.6078H89.3024C89.5508 49.6078 89.7164 49.6078 89.7992 49.6078C89.9647 49.5802 89.9924 49.4697 89.9924 49.4144C89.9924 49.3592 89.9924 49.2211 89.744 49.2211C89.5508 49.2211 89.3852 49.2211 89.2196 49.1659C89.0541 49.1382 88.8885 49.0278 88.7229 48.862C88.5573 48.6963 88.3642 48.3372 88.171 47.84L85.4113 40.99C85.2182 40.4928 85.0802 40.1889 85.025 40.0784C84.887 39.7746 84.7766 39.6089 84.6386 39.6089C84.5834 39.6089 84.5006 39.6089 84.4179 39.747C84.3627 39.8299 84.3075 39.9403 84.2247 40.1613L81.0511 48.0886C80.9131 48.4477 80.7751 48.7239 80.6095 48.8896C80.4715 49.0554 80.2784 49.1382 80.03 49.1659C79.892 49.1659 79.7816 49.1659 79.6437 49.1659C79.4229 49.1659 79.3953 49.304 79.3953 49.3592C79.3953 49.4421 79.4505 49.5802 79.7264 49.5802L79.6988 49.6354ZM84.2799 42.4815L85.4113 45.5475H83.1208L84.2799 42.4815Z" fill="black"/>
<path fill-rule="evenodd" clip-rule="evenodd" d="M71.0314 32.7588L70.8382 31.6539L67.9682 32.1511L67.7198 30.6319L70.1759 30.2176L69.9827 29.1404L67.5266 29.5547L67.2783 28.0908L70.1759 27.5936L69.9827 26.5164L65.8984 27.2069L66.9195 33.4217L71.0314 32.7588Z" fill="black"/>
<path fill-rule="evenodd" clip-rule="evenodd" d="M33.4205 67.2579C33.4757 66.9265 33.5033 66.6226 33.4481 66.3188C33.4205 66.015 33.3102 65.7388 33.1446 65.5178C33.0066 65.2968 32.841 65.1311 32.6754 65.0206C32.4823 64.8825 32.2891 64.7996 32.0959 64.7168C31.9027 64.6339 31.682 64.5787 31.4336 64.5234L30.7437 64.3853L30.0538 64.2472C29.833 64.192 29.6122 64.1643 29.3915 64.1643C29.1707 64.1643 28.9775 64.1643 28.7567 64.2196C28.536 64.2748 28.3428 64.3577 28.122 64.4958C27.8736 64.6615 27.6805 64.8825 27.5149 65.1311C27.3493 65.3797 27.2389 65.6835 27.1837 66.015L26.7422 68.2523L32.9238 69.4953L33.3654 67.2579H33.4205ZM32.3167 67.1474L32.1235 68.0589L28.0944 67.2579L28.2876 66.3464C28.3152 66.1255 28.398 65.9597 28.4808 65.8216C28.5636 65.6835 28.7015 65.573 28.8395 65.5178C28.9223 65.4625 29.0051 65.4349 29.0879 65.4349C29.1707 65.4349 29.3087 65.4349 29.4191 65.4349C29.557 65.4349 29.695 65.4349 29.8606 65.4902C30.0262 65.5178 30.2469 65.5454 30.4677 65.6007C30.9369 65.6835 31.2956 65.794 31.544 65.8769C31.7924 65.9597 31.9579 66.0702 32.0959 66.2083C32.2063 66.3464 32.2615 66.4845 32.3167 66.6503C32.3443 66.816 32.3443 66.9817 32.3167 67.2027V67.1474ZM73.7115 30.1625C73.7115 30.4111 73.7391 30.6321 73.7943 30.8254C73.8219 31.0464 73.9047 31.2121 73.9874 31.4055C74.0702 31.5988 74.2082 31.7646 74.3738 31.9027C74.5946 32.1236 74.8429 32.2894 75.1465 32.3999C75.4225 32.5103 75.7536 32.5656 76.0848 32.5656C76.4159 32.5656 76.7471 32.5103 77.0231 32.3999C77.3266 32.2894 77.6026 32.096 77.851 31.8198C78.0717 31.5988 78.2097 31.3226 78.2925 31.0188C78.3753 30.715 78.4305 30.3283 78.4305 29.8863V28.9748L76.0296 29.0024V30.0244H77.1886V30.273C77.1886 30.4387 77.1886 30.5768 77.1334 30.7426C77.1059 30.8807 77.0231 31.0188 76.9127 31.1293C76.8023 31.2398 76.6919 31.3226 76.5539 31.4055C76.4159 31.4607 76.2504 31.4883 76.0572 31.516C75.8916 31.516 75.726 31.516 75.588 31.4331C75.4501 31.3779 75.3397 31.295 75.2569 31.1845C75.2017 31.1293 75.1465 31.0464 75.1189 30.9635C75.0913 30.8807 75.0361 30.7702 75.0085 30.6597C75.0085 30.5216 74.9533 30.3559 74.9533 30.1625C74.9533 29.9692 74.9533 29.7206 74.9533 29.4168C74.9533 29.1129 74.9533 28.8643 74.9533 28.671C74.9533 28.4776 74.9533 28.3119 75.0085 28.1738C75.0085 28.0357 75.0637 27.9252 75.0913 27.87C75.1189 27.7871 75.1741 27.7319 75.2293 27.649C75.3121 27.5385 75.4225 27.4556 75.5604 27.4004C75.6984 27.3452 75.8364 27.3175 76.0296 27.2899C76.3332 27.2899 76.6091 27.3728 76.7747 27.5109C76.9679 27.6766 77.0783 27.8976 77.161 28.2014H78.4029C78.3477 27.9252 78.2649 27.6766 78.1545 27.428C78.0441 27.1794 77.8786 26.9861 77.6854 26.7927C77.4922 26.5994 77.2438 26.4613 76.9679 26.3508C76.6919 26.2403 76.3607 26.1851 76.002 26.1851C75.6432 26.1851 75.3397 26.2403 75.0637 26.3784C74.7877 26.4889 74.5394 26.6822 74.3186 26.9032C74.153 27.0689 74.0426 27.2347 73.9599 27.428C73.8771 27.6214 73.8219 27.8147 73.7943 28.0081C73.7667 28.229 73.7391 28.45 73.7391 28.671C73.7391 28.9196 73.7391 29.1682 73.7391 29.4444C73.7391 29.7206 73.7391 29.9692 73.7391 30.2178" fill="black"/>
<path fill-rule="evenodd" clip-rule="evenodd" d="M117.863 88.1396L118.94 88.3882L119.574 85.5984L124.652 86.7585L124.928 85.5708L118.802 84.1345L117.863 88.1396Z" fill="black"/>
<path fill-rule="evenodd" clip-rule="evenodd" d="M32.589 79.356L31.5127 79.4941L31.8715 82.3391L26.7109 83.002L26.8489 84.2173L33.1133 83.4163L32.589 79.356Z" fill="black"/>
<path fill-rule="evenodd" clip-rule="evenodd" d="M37.2272 100.707C37.4204 100.597 37.6136 100.459 37.7791 100.321C37.9447 100.183 38.0827 100.044 38.1931 99.8787C38.3035 99.713 38.3863 99.5196 38.4415 99.2987C38.5243 98.9948 38.5519 98.691 38.5243 98.3872C38.4967 98.0833 38.3863 97.7795 38.2207 97.4757C38.0551 97.1718 37.8343 96.9232 37.586 96.7299C37.3376 96.5365 37.0892 96.426 36.7857 96.3432C36.5649 96.2879 36.3717 96.2603 36.151 96.2879C35.9578 96.2879 35.7646 96.3432 35.5438 96.4261C35.3507 96.5089 35.1299 96.5918 34.9367 96.7023C34.7159 96.8127 34.4952 96.9232 34.2744 97.0613C34.026 97.1994 33.8328 97.3099 33.6121 97.448C33.4189 97.5585 33.2257 97.6966 33.0601 97.8347C32.8946 97.9728 32.7566 98.1109 32.6462 98.2767C32.5358 98.4424 32.453 98.6357 32.3978 98.8567C32.315 99.1605 32.2874 99.4644 32.315 99.7682C32.3426 100.072 32.453 100.376 32.6186 100.68C32.7842 100.984 33.0049 101.232 33.2533 101.425C33.5017 101.619 33.7777 101.757 34.0812 101.84C34.302 101.895 34.4952 101.923 34.7159 101.895C34.9091 101.895 35.1023 101.84 35.3231 101.757C35.5162 101.674 35.7094 101.591 35.9302 101.481C36.151 101.37 36.3717 101.26 36.5925 101.122C36.8409 100.984 37.034 100.873 37.2548 100.735M35.2955 100.376C35.1299 100.459 34.9643 100.542 34.8539 100.569C34.7159 100.624 34.6331 100.624 34.5228 100.652C34.44 100.652 34.3572 100.652 34.2744 100.652C34.1364 100.624 34.026 100.569 33.888 100.486C33.7777 100.404 33.6673 100.293 33.5845 100.127C33.5017 99.9892 33.4465 99.8235 33.4465 99.6854C33.4465 99.5473 33.4465 99.4091 33.5017 99.271C33.5017 99.1882 33.5569 99.1053 33.6121 99.0224C33.6673 98.9396 33.7501 98.8567 33.8328 98.7739C33.9432 98.691 34.0812 98.5805 34.2468 98.4976C34.4124 98.3872 34.6331 98.2767 34.8815 98.1109C35.1299 97.9728 35.3507 97.8347 35.5438 97.7519C35.7094 97.669 35.875 97.5861 35.9854 97.5585C36.1234 97.5033 36.2061 97.5033 36.3165 97.5033C36.3993 97.5033 36.5097 97.5033 36.5925 97.5033C36.7305 97.5309 36.8409 97.5861 36.9788 97.669C37.0892 97.7519 37.1996 97.8624 37.2824 98.0281C37.3652 98.1662 37.4204 98.3319 37.4204 98.47C37.4204 98.6081 37.4204 98.7462 37.3652 98.8843C37.3376 98.9672 37.31 99.0501 37.2548 99.1053C37.1996 99.1882 37.1168 99.271 37.034 99.3539C36.9237 99.4368 36.7857 99.5473 36.6201 99.6301C36.4545 99.7406 36.2337 99.8511 35.9854 100.017C35.737 100.155 35.4886 100.293 35.3231 100.376" fill="black"/>
<path fill-rule="evenodd" clip-rule="evenodd" d="M35.0771 90.8464L31.0756 90.9293L34.3596 88.6367L34.0284 87.6423L27.5156 88.029L27.9296 89.2444L32.0139 88.9405L28.5919 91.2883L28.8679 92.1446L33.0073 92.0065L29.5302 94.161L29.9441 95.4039L35.4082 91.8131L35.0771 90.8464Z" fill="black"/>
<path fill-rule="evenodd" clip-rule="evenodd" d="M115.492 94.4648L116.513 94.8792L117.617 92.1723L119.025 92.7523L118.086 95.0725L119.107 95.4868L120.046 93.1667L121.425 93.7191L120.322 96.426L121.343 96.8403L122.888 93.0009L117.065 90.6255L115.492 94.4648Z" fill="black"/>
<path fill-rule="evenodd" clip-rule="evenodd" d="M113.615 97.9727L116.899 100.017L112.29 100.1L111.711 101.039L117.065 104.353L117.699 103.331L114.443 101.287L119.024 101.204L119.631 100.265L114.25 96.9231L113.615 97.9727Z" fill="black"/>
<path fill-rule="evenodd" clip-rule="evenodd" d="M43.2959 104.768L40.3155 107.226L41.6953 102.834L40.9778 101.978L36.1484 106.01L36.9211 106.977L39.9016 104.491L38.5217 108.883L39.2392 109.739L44.0686 105.707L43.2959 104.768Z" fill="black"/>
<path fill-rule="evenodd" clip-rule="evenodd" d="M81.8789 122.832C81.7133 122.611 81.4925 122.473 81.2718 122.362C81.4649 122.224 81.6305 122.058 81.7409 121.837C81.8513 121.617 81.9065 121.34 81.8789 121.009C81.8789 120.733 81.7961 120.512 81.6857 120.291C81.5753 120.07 81.4373 119.904 81.2442 119.766C81.051 119.628 80.8578 119.517 80.6094 119.462C80.3611 119.407 80.1127 119.379 79.8367 119.407C79.5608 119.407 79.34 119.49 79.0916 119.6C78.8709 119.711 78.6777 119.849 78.5121 120.014C78.3465 120.18 78.2361 120.374 78.1534 120.622C78.0706 120.843 78.043 121.119 78.043 121.396L79.202 121.285C79.202 121.036 79.2572 120.843 79.3952 120.705C79.5332 120.567 79.6988 120.484 79.9195 120.456C80.1127 120.456 80.3059 120.484 80.4715 120.622C80.637 120.733 80.7198 120.926 80.7474 121.202C80.7474 121.423 80.7198 121.617 80.6094 121.782C80.4991 121.948 80.3059 122.031 80.0299 122.058H79.8643L79.9471 123.08H80.1127C80.3887 123.053 80.6094 123.08 80.775 123.246C80.9406 123.384 81.0234 123.605 81.051 123.854C81.051 124.13 81.0234 124.351 80.8578 124.517C80.7198 124.682 80.5267 124.765 80.2783 124.793C80.1679 124.793 80.0575 124.793 79.9471 124.793C79.8367 124.793 79.754 124.738 79.6712 124.655C79.5884 124.6 79.5056 124.517 79.4504 124.406C79.3952 124.296 79.3676 124.185 79.34 124.047L78.1809 124.158C78.2085 124.489 78.2913 124.765 78.4293 124.986C78.5673 125.207 78.7329 125.401 78.9261 125.511C79.1192 125.649 79.34 125.732 79.5884 125.787C79.8367 125.843 80.0851 125.843 80.3335 125.815C80.6094 125.815 80.8578 125.732 81.0786 125.622C81.2994 125.539 81.5201 125.401 81.6857 125.207C81.8513 125.042 81.9893 124.821 82.0721 124.572C82.1548 124.323 82.1824 124.047 82.1549 123.743C82.1273 123.357 82.0169 123.053 81.8513 122.859" fill="black"/>
<path fill-rule="evenodd" clip-rule="evenodd" d="M86.4857 118.357L85.4922 119.738L85.7957 120.954L86.7892 119.545L88.0035 124.489L89.1073 124.213L87.5895 118.081L86.4857 118.357Z" fill="black"/>
<path fill-rule="evenodd" clip-rule="evenodd" d="M47.6849 111.562L46.443 111.783L47.0226 108.552L45.9187 107.613L45.2012 111.977L42 112.557L43.1591 113.524L46.6086 112.833L44.87 114.96L45.8083 115.733L49.8374 110.899L48.8991 110.098L47.6849 111.562Z" fill="black"/>
<path fill-rule="evenodd" clip-rule="evenodd" d="M73.9852 120.042C73.8196 119.877 73.6265 119.738 73.3781 119.628C73.1573 119.517 72.8814 119.462 72.6054 119.435C72.3294 119.435 72.0811 119.435 71.8327 119.517C71.5843 119.573 71.3636 119.711 71.1704 119.849C70.9772 120.015 70.8392 120.208 70.7012 120.429C70.5909 120.678 70.5081 120.926 70.4805 121.258C70.4805 121.561 70.4805 121.81 70.5633 122.059C70.646 122.307 70.7564 122.501 70.8944 122.666C71.0324 122.832 71.198 122.97 71.3912 123.081C71.5843 123.191 71.7775 123.246 71.9983 123.246C72.0811 123.246 72.1639 123.246 72.2466 123.246C72.3294 123.246 72.4122 123.246 72.495 123.191L71.0048 125.705L72.2466 125.787L73.7645 123.163C73.93 122.887 74.068 122.611 74.206 122.362C74.3164 122.086 74.3992 121.81 74.4268 121.534C74.4268 121.23 74.4268 120.926 74.344 120.705C74.2612 120.457 74.1508 120.236 73.9852 120.07M73.2953 121.451C73.2953 121.755 73.1849 121.976 73.0193 122.114C72.8538 122.252 72.6606 122.335 72.4122 122.307C72.1639 122.307 71.9707 122.197 71.8327 122.031C71.6947 121.865 71.6395 121.617 71.6671 121.34C71.6671 121.037 71.7775 120.816 71.9431 120.678C72.1087 120.539 72.3018 120.457 72.5502 120.484C72.7986 120.484 72.9642 120.595 73.1021 120.76C73.2401 120.926 73.2953 121.175 73.2677 121.451" fill="black"/>
<path fill-rule="evenodd" clip-rule="evenodd" d="M64.2721 119.241L63.9961 120.457L65.4863 119.656L64.3549 124.6L65.4863 124.848L66.8937 118.689L65.7623 118.44L64.2721 119.241Z" fill="black"/>
<path fill-rule="evenodd" clip-rule="evenodd" d="M53.8398 118.081L54.8057 120.954L57.6758 120.014L56.7375 117.142L53.8398 118.081Z" fill="black"/>
<path fill-rule="evenodd" clip-rule="evenodd" d="M119.219 81.5381L120.323 81.621L120.516 78.776L125.732 79.1351L125.814 77.9198L119.522 77.4502L119.219 81.5381Z" fill="black"/>
<path fill-rule="evenodd" clip-rule="evenodd" d="M90.2114 88.913L90.8461 88.1672L90.377 87.7805L91.6464 86.2889L90.3218 85.1841L89.0523 86.6756L88.5832 86.2613L88.0312 86.9242C88.6936 87.4214 89.5491 88.0291 90.2114 88.913Z" fill="black"/>
<path fill-rule="evenodd" clip-rule="evenodd" d="M119.55 74.688L120.626 74.6052L120.405 71.6773L121.923 71.5668L122.116 74.0527L123.22 73.9422L123.027 71.4563L124.49 71.3458L124.738 74.2737L125.842 74.1632L125.483 70.02L119.219 70.5448L119.55 74.688Z" fill="black"/>
<path fill-rule="evenodd" clip-rule="evenodd" d="M62.3094 98.2213L59.1358 91.6198H56.6797V91.9236C56.6797 91.9236 60.2396 95.9011 62.337 98.2213M85.7112 93.0285L87.0359 91.454L87.643 91.9789L88.0845 91.454C87.8638 90.6807 87.2014 90.1559 86.208 89.4101C86.1528 89.3548 86.0976 89.3272 86.0424 89.272L85.3801 90.0454L85.9872 90.5425L84.6626 92.117L85.7112 93.0008V93.0285Z" fill="black"/>
<path fill-rule="evenodd" clip-rule="evenodd" d="M85.2969 96.5916L84.5793 98.5251H88.3877L88.0565 96.785C89.3259 96.1497 90.3194 94.5477 90.5126 92.5589C90.5126 92.3932 90.5126 92.2275 90.5126 92.0617C90.5126 92.0065 90.5126 91.9236 90.5126 91.8408C90.5126 91.7579 90.5126 91.6751 90.5126 91.5922C90.5126 91.5093 90.5126 91.4265 90.485 91.316C90.485 91.2607 90.485 91.2055 90.485 91.1502C90.485 91.0674 90.4574 90.9569 90.4298 90.874C90.4298 90.8464 90.4298 90.7912 90.4298 90.7635C90.4022 90.6531 90.3746 90.5702 90.3194 90.4597V90.4045C90.2918 90.294 90.2366 90.1835 90.1814 90.1006C90.1814 90.1006 90.1814 90.1006 90.1814 90.073C90.1263 89.9625 90.0711 89.852 90.0159 89.7692C89.9607 89.6587 89.8779 89.5758 89.8227 89.4653C89.2156 88.6091 88.3877 88.0014 87.6978 87.4766C87.6978 87.4766 87.6702 87.449 87.6426 87.449C87.4494 87.3109 87.2838 87.1728 87.1182 87.0347L86.042 88.3881C86.2075 88.4986 86.3731 88.6367 86.5387 88.7748C86.5939 88.8024 86.6215 88.8577 86.6767 88.8853C87.477 89.4653 88.2497 90.0454 88.636 90.874C88.7188 91.0398 88.774 91.2055 88.8016 91.3712C88.8016 91.4541 88.8292 91.5369 88.8568 91.6198C88.8568 91.675 88.8568 91.7579 88.8568 91.8132C88.8568 91.9789 88.8568 92.1722 88.8568 92.338C88.6912 94.0229 87.6978 95.4868 86.1524 95.3487L82.3716 92.1722L81.4609 93.2495L85.352 96.5364L85.2969 96.5916Z" fill="black"/>
<path fill-rule="evenodd" clip-rule="evenodd" d="M56.6562 90.4321V90.6531H62.7275L59.3055 88.4434L56.6562 90.4321Z" fill="black"/>
<path fill-rule="evenodd" clip-rule="evenodd" d="M65.8984 90.6531H72.0801V90.4322L69.5136 88.5815L65.8984 90.6531Z" fill="black"/>
<path fill-rule="evenodd" clip-rule="evenodd" d="M63.7761 99.2157V91.6199H60.0781L63.7761 99.2157Z" fill="black"/>
<path fill-rule="evenodd" clip-rule="evenodd" d="M66.1758 98.3042L72.0814 91.8961V91.6199H69.7081L66.1758 98.3042Z" fill="black"/>
<path fill-rule="evenodd" clip-rule="evenodd" d="M64.6016 91.5923V99.4091L68.741 91.5923H64.6016Z" fill="black"/>
<path fill-rule="evenodd" clip-rule="evenodd" d="M84.1688 96.5365L81.4092 94.2163L80.6641 95.8183L82.7062 97.5309L84.1688 96.5365Z" fill="black"/>
<path fill-rule="evenodd" clip-rule="evenodd" d="M60.5156 88.1394L64.2412 90.5425L68.4358 88.1394H60.5156Z" fill="black"/>
<path fill-rule="evenodd" clip-rule="evenodd" d="M123.672 172.37C122.072 172.37 120.602 171.11 120.602 169.29C120.602 167.47 122.022 166.21 123.672 166.21C125.322 166.21 126.762 167.55 126.762 169.3C126.762 170.94 125.462 172.37 123.672 172.37ZM123.672 166.48C122.152 166.48 120.872 167.71 120.872 169.29C120.872 170.87 122.132 172.1 123.682 172.1C125.302 172.1 126.492 170.8 126.492 169.3C126.492 167.8 125.292 166.49 123.682 166.49L123.672 166.48ZM123.642 167.32C124.042 167.32 124.322 167.32 124.552 167.41C124.972 167.56 125.172 167.95 125.172 168.31C125.172 168.58 125.072 169.05 124.382 169.23C124.752 169.39 124.862 169.61 124.932 170.05C125.012 170.59 125.052 170.86 125.222 171.21H124.432C124.322 170.98 124.302 170.84 124.222 170.36C124.092 169.54 124.042 169.46 123.062 169.46V171.21H122.372V167.32H123.642ZM123.072 168.9H123.642C123.932 168.9 124.472 168.9 124.472 168.36C124.472 168.2 124.402 168 124.192 167.9C124.052 167.85 123.932 167.85 123.512 167.85H123.072V168.9Z" fill="black"/>
<path fill-rule="evenodd" clip-rule="evenodd" d="M116.041 201.8C115.851 201.26 115.631 200.55 115.631 200.55L111.881 190.6C111.791 190.38 111.631 190.27 111.411 190.27H100.951C100.761 190.27 100.621 190.39 100.531 190.64L98.0006 197.35C97.5306 198.51 97.3006 199.46 97.3006 200.21C97.3006 200.68 97.4406 201.04 97.7206 201.29C98.0006 201.54 98.4906 201.66 99.1806 201.66H99.8806C100.351 201.66 100.581 201.79 100.581 202.04C100.581 202.35 100.311 202.51 99.7806 202.51C99.1906 202.51 98.3406 202.49 97.2506 202.46C96.0306 202.4 95.2206 202.37 94.8106 202.37C94.7206 202.37 94.3706 202.39 93.7806 202.42C93.3106 202.42 92.6506 202.44 91.7906 202.47C90.9306 202.5 90.0906 202.52 89.2806 202.52C88.6906 202.52 88.3906 202.36 88.3906 202.05C88.3906 201.8 88.5806 201.67 88.9506 201.67C89.4206 201.67 89.9106 201.64 90.4106 201.58C91.4106 201.46 92.1906 201.06 92.7606 200.38C93.3206 199.71 93.8706 198.7 94.4006 197.35L106.181 167.88C106.461 167.16 106.701 166.67 106.881 166.4C107.071 166.13 107.271 166 107.491 166C107.841 166 108.231 166.5 108.661 167.5C108.881 167.97 109.351 169.11 110.071 170.93L112.891 178.02L117.371 189.17L118.611 192.27L120.301 196.38C121.081 198.26 121.801 199.54 122.461 200.23C123.121 200.92 123.781 201.34 124.431 201.5C125.061 201.62 125.711 201.69 126.401 201.69C126.811 201.69 127.011 201.82 127.011 202.07C127.011 202.26 126.871 202.38 126.591 202.44C126.311 202.5 125.731 202.53 124.851 202.53L120.371 202.43C119.041 202.43 117.711 202.53 116.691 202.53C116.401 202.53 116.251 202.35 116.061 201.82M101.881 187.92H110.511C110.671 187.92 110.741 187.83 110.741 187.64L106.521 176.05V176C106.461 175.75 106.381 175.62 106.291 175.62C106.161 175.62 106.071 175.76 106.011 176.04L101.691 187.58C101.691 187.8 101.751 187.91 101.881 187.91" fill="black"/>
<path fill-rule="evenodd" clip-rule="evenodd" d="M58.57 184.66C58.57 184.77 58.55 187.96 58.55 187.96C58.52 188.9 58.5 191.43 58.5 194.24V199.39C58.5 200.01 58.47 200.41 58.41 200.58C58.35 200.75 58.18 200.92 57.9 201.07C56.5 201.79 54.78 202.32 52.75 202.66C50.72 203 48.68 203.17 46.62 203.17C43.66 203.17 40.88 202.81 38.29 202.09C35.7 201.37 33.41 200.26 31.41 198.77C29.41 197.27 27.84 195.35 26.71 193.01C25.57 190.67 25 187.94 25 184.82C25 181.33 25.77 178.25 27.32 175.6C28.86 172.95 30.81 170.92 33.15 169.52C35.18 168.3 37.19 167.49 39.19 167.09C41.19 166.68 43.37 166.48 45.74 166.48C46.52 166.48 47.32 166.5 48.13 166.55C48.94 166.6 49.78 166.67 50.66 166.76C51.53 166.85 52.25 166.94 52.81 167.02C53.37 167.1 53.78 167.17 54.03 167.23C54.65 167.35 55.31 167.47 56 167.56C56.69 167.65 57.26 167.72 57.73 167.75C58.17 167.78 58.38 167.97 58.38 168.31C58.38 168.4 58.37 168.57 58.33 168.82C58.27 169.51 58.21 170.37 58.14 171.42C58.07 172.47 58.05 173.99 58.05 175.98C58.05 176.64 57.88 176.96 57.53 176.96C57.28 176.96 57.13 176.76 57.06 176.35C56.97 175.6 56.81 174.91 56.59 174.27C56.37 173.63 56 173.03 55.47 172.47C54.63 171.57 53.28 170.73 51.42 169.97C49.56 169.2 47.43 168.82 45.03 168.82C43.31 168.82 41.71 169 40.21 169.36C38.71 169.72 37.23 170.51 35.76 171.72C34.39 172.87 33.33 174.38 32.58 176.24C31.83 178.1 31.46 180.41 31.46 183.19C31.46 185.69 31.84 188.01 32.61 190.16C33.38 192.31 34.47 194.18 35.91 195.78C37.35 197.37 39.07 198.6 41.08 199.48C43.09 200.35 45.32 200.79 47.75 200.79C48.62 200.79 49.38 200.76 50.02 200.7C50.66 200.64 51.23 200.5 51.73 200.28C52.32 200 52.62 199.42 52.62 198.55V194.15C52.62 191.4 52.6 188.9 52.57 187.96C52.54 187.15 52.38 186.54 52.1 186.14C51.82 185.73 51.3 185.45 50.55 185.3C50.18 185.21 49.57 185.16 48.72 185.16C48.25 185.16 48.02 185.04 48.02 184.79C48.02 184.48 48.35 184.32 49 184.32C49.84 184.32 51.26 184.35 53.26 184.41C54.63 184.44 55.48 184.46 55.79 184.46C56.14 184.46 56.97 184.43 58.24 184.38C58.51 184.38 58.57 184.56 58.57 184.68M73.24 188.95V173.5C73.24 172.47 73.21 171.57 73.15 170.78C73.06 169.25 72.52 168.38 71.56 168.16C71.09 168.04 70.53 167.97 69.88 167.97C69.38 167.97 69.13 167.81 69.13 167.5C69.13 167.25 69.5 167.13 70.25 167.13C70.84 167.13 71.98 167.16 73.67 167.22C74.98 167.25 75.87 167.27 76.34 167.27C76.71 167.27 77.48 167.26 78.63 167.22C80.25 167.16 81.39 167.13 82.05 167.13C82.71 167.13 83.03 167.25 83.03 167.5C83.03 167.81 82.78 167.97 82.28 167.97C81.91 167.97 81.44 168.02 80.88 168.11C80.26 168.23 79.83 168.5 79.59 168.91C79.36 169.31 79.21 169.94 79.15 170.78C79.09 171.56 79.06 172.47 79.06 173.5V188.95C79.06 191.85 79.06 194.06 79.09 195.57C79.1 197.08 79.16 198.29 79.25 199.2C79.34 199.92 79.51 200.46 79.76 200.81C80.01 201.17 80.46 201.39 81.12 201.49C81.46 201.52 81.85 201.56 82.29 201.61C82.73 201.66 83.13 201.68 83.51 201.68C84.01 201.68 84.26 201.8 84.26 202.05C84.26 202.36 83.96 202.52 83.37 202.52C82.06 202.52 80.34 202.49 78.22 202.42C77.22 202.39 76.5 202.37 76.07 202.37C75.82 202.37 75.09 202.39 73.87 202.42C72.06 202.48 70.83 202.52 70.17 202.52C69.51 202.52 69.23 202.36 69.23 202.05C69.23 201.8 69.48 201.68 69.98 201.68C70.54 201.68 71.1 201.62 71.67 201.49C72.42 201.33 72.87 200.55 73.03 199.15C73.12 198.25 73.19 197.03 73.22 195.52C73.25 194.01 73.27 191.81 73.27 188.94" fill="black"/>
</svg>
