<svg width="162" height="211" viewBox="0 0 162 211" fill="none" xmlns="http://www.w3.org/2000/svg">
<path d="M51.8849 170L51.8861 171.336C50.0715 171.161 48.5591 172.114 49.0167 174.09C50.9331 180.896 51.0745 189.368 53.1547 195.984C53.7111 197.752 54.7439 199.146 56.7876 198.919L56.7864 200.255H46.315L46.5227 199.017C47.9492 198.901 49.7077 198.904 49.6645 197.041C48.3124 189.922 47.0559 182.782 45.6392 175.677C45.5777 175.369 45.8561 175.025 45.3144 175.115L36.855 196.933L35.5383 196.887L28.289 175.652L27.8235 175.338L23.8055 196.15C23.8287 198.002 25.0937 199.126 26.9326 198.918L26.9314 200.253H17.7969L17.8931 199.126C20.1239 198.734 20.8326 197.871 21.4712 195.802C23.5691 189.002 23.9243 180.816 25.7962 173.86C25.9217 172.863 25.6451 171.637 24.5446 171.381C23.7074 171.186 22.5558 171.688 23.017 170.205L30.3888 170.218L37.0689 190.46L44.8666 170H51.8849Z" fill="black"/>
<path d="M91.9882 170L91.7756 171.234C90.4661 171.48 89.4571 171.468 88.9757 172.888C88.9221 173.047 88.646 174.264 88.646 174.338V191.134C89.5107 190.828 90.3363 189.815 90.9889 189.135C95.3073 184.632 99.2832 179.768 103.628 175.283C104.371 173.208 102.901 171.147 100.679 171.334L100.677 170H110.48V171.334C108.596 171.281 107.624 172.032 107.38 173.912C107.721 181.025 106.863 188.651 107.352 195.704C107.501 197.855 108.103 199.046 110.482 198.919L110.481 200.255H100.678L100.677 198.919C101.878 199.255 103.797 198.06 103.797 196.807V177.786L88.763 194.252C88.4675 196.596 88.8867 199.122 91.7799 199.017L91.9882 200.255H81.9622L82.1749 199.021C84.82 198.855 85.1606 197.343 85.3136 195.036C85.6834 189.465 85.7352 180.543 85.302 175.008C85.1058 172.504 84.6646 171.612 82.0567 171.13L82.2968 170H91.9882Z" fill="black"/>
<path d="M124.293 170L124.295 171.336C122.794 171.165 121.682 171.864 121.269 173.32C121.218 173.498 120.951 174.92 120.951 175.006V182.903H136.769V174.338C136.769 173.855 136.169 172.367 135.771 171.997C134.845 171.134 132.519 171.619 133.762 170H143.453V171.334C141.569 171.281 140.597 172.032 140.353 173.912C140.694 181.025 139.836 188.651 140.325 195.704C140.419 197.072 140.547 198.205 141.955 198.748C142.947 199.131 143.677 198.608 143.454 200.255H133.428L133.64 199.02C134.5 198.882 135.398 198.747 135.981 198.021C136.24 197.699 136.77 196.257 136.77 195.917V184.905H120.952V195.249C120.952 195.353 121.216 196.719 121.272 196.931C121.521 197.861 121.87 198.39 122.794 198.748C123.786 199.131 124.516 198.606 124.293 200.254H114.267L114.476 199.017C116.759 199.078 117.376 197.432 117.582 195.445C118.287 188.659 117.337 180.379 117.325 173.51C116.89 171.807 116.215 171.414 114.48 171.234L114.267 170H124.293Z" fill="black"/>
<path d="M78.0631 170L79.5121 176.006L78.4324 175.97C77.7895 174.079 75.5088 172.343 73.5492 172.06C72.2866 171.878 68.6087 171.824 67.3821 172.015C66.6783 172.125 66.1616 172.595 65.9684 173.273L65.9404 196.119C66.4053 198.196 67.1822 199.242 69.4867 198.918L69.4855 200.253H59.0141L59.2268 199.02C61.7914 198.903 62.1997 197.549 62.3654 195.258C62.8499 188.587 62.0041 181.317 62.3325 174.583C62.0437 172.599 61.2455 171.176 59.0153 171.333V170H78.0637H78.0631Z" fill="black"/>
<path d="M38.6975 210.908C38.5562 210.487 39.1259 210.626 39.2246 210.485L38.494 206.568L37.1297 210.237L36.6752 210.215L35.4407 206.57C35.4419 207.262 34.5638 209.94 34.8264 210.365C34.9386 210.546 35.3852 210.543 35.3029 210.907H33.6748C33.7217 210.472 34.0867 210.555 34.2628 210.072C34.6711 208.952 34.6193 207.378 35.0257 206.211C35.047 205.528 34.4334 206.015 34.4895 205.485L35.8995 205.476L37.0018 208.875L37.4411 208.094C37.6044 207.657 38.1565 205.818 38.3545 205.617C38.6244 205.342 39.3934 205.54 39.7834 205.486C39.9095 205.913 39.4379 205.681 39.3008 205.88C39.1832 206.052 39.2399 206.292 39.2539 206.483C39.299 207.094 39.7511 209.613 39.9546 210.126C40.1417 210.597 40.6133 210.466 40.5981 210.908H38.6969L38.6975 210.908Z" fill="black"/>
<path d="M31.5013 210.908C31.3599 210.487 31.9291 210.626 32.0284 210.485L31.2978 206.433C31.0522 206.935 30.0883 210.099 29.8006 210.227C29.7385 210.254 29.4576 210.284 29.4552 210.149L28.3114 206.706L27.5833 210.482C27.6747 210.627 28.2517 210.488 28.1067 210.907H26.4786C26.4773 210.493 26.863 210.581 27.0227 210.164C27.4547 209.033 27.5504 207.086 27.7801 205.883C27.6211 205.685 27.1732 205.91 27.2932 205.486L28.7203 205.618L29.7379 209.01L31.1765 205.477L32.4513 205.486L32.0357 205.83C32.0016 206.414 32.1344 206.975 32.2228 207.545C32.3148 208.137 32.5847 209.905 32.8181 210.329C33.035 210.724 33.4841 210.451 33.4024 210.908H31.5013Z" fill="black"/>
<path d="M95.7233 205.485V205.755C95.3858 205.65 95.0445 206.092 95.0445 206.367V209.146L97.6988 206.431L97.218 205.486H98.9814C99.0832 205.902 98.7011 205.69 98.4988 205.882C98.3721 206.068 98.3904 210.173 98.5074 210.366C98.6177 210.548 99.0643 210.544 98.9814 210.908H97.2174C97.1516 210.541 97.7597 210.483 97.7597 210.162V206.976C97.254 207.551 95.3126 209.239 95.1128 209.83C94.9135 210.416 95.7703 210.752 95.5868 210.907H93.8228C93.7235 210.532 94.1177 210.574 94.3651 210.501V205.96L93.8216 205.755V205.486H95.7227L95.7233 205.485Z" fill="black"/>
<path d="M62.8656 205.96L62.3233 205.486H64.0867C64.1836 205.851 63.5444 205.889 63.5444 206.231V209.146L66.0542 206.568C66.2011 206.243 66.2084 205.838 65.8081 205.769L65.7179 205.487H67.4813L66.939 205.961V210.502C67.1864 210.575 67.5806 210.534 67.4813 210.908H65.7173C65.7185 210.534 66.2596 210.464 66.2596 210.028V206.977C65.7447 207.562 63.8954 209.136 63.6437 209.727C63.3214 210.483 64.3097 210.718 64.0867 210.908H62.3227C62.2233 210.533 62.6176 210.575 62.865 210.502V205.961L62.8656 205.96Z" fill="black"/>
<path d="M88.663 205.96L88.1207 205.486H89.8841C89.981 205.851 89.3418 205.889 89.3418 206.231V209.146L91.8516 206.568C91.9985 206.243 92.0058 205.838 91.6054 205.769L91.5153 205.487H93.2787L92.7364 205.961V210.502C92.9838 210.575 93.378 210.534 93.2787 210.908H91.5147C91.5159 210.534 92.057 210.464 92.057 210.028V206.977C91.5421 207.562 89.6927 209.136 89.4411 209.727C89.1188 210.483 90.1071 210.718 89.8841 210.908H88.1201C88.0207 210.533 88.415 210.575 88.6624 210.502V205.961L88.663 205.96Z" fill="black"/>
<path d="M85.1331 205.485C85.2342 205.913 84.8424 205.673 84.659 205.89C84.383 206.217 84.3988 208.2 84.5232 208.198C84.7328 208.231 84.8022 208.031 84.9168 207.913C85.1812 207.638 86.7259 206.018 86.4907 205.757C86.2226 205.751 86.0063 205.864 86.0837 205.486H87.8471C87.9129 205.841 87.7947 205.696 87.6539 205.768C86.7174 206.249 86.3402 206.802 85.6882 207.606C85.6602 207.765 87.1652 210.277 87.2975 210.405C87.4723 210.575 87.855 210.506 87.8489 210.839L86.2189 210.908C86.0501 210.568 86.4846 210.677 86.4998 210.56C86.537 210.276 85.5791 208.8 85.3464 208.451C85.2513 208.309 85.3324 208.133 85.0661 208.198C84.4397 208.641 84.2355 209.753 84.5877 210.401C84.7462 210.692 85.2458 210.465 85.1325 210.908H83.2314C83.1302 210.505 83.5762 210.645 83.7085 210.369C83.8303 210.115 83.8413 206.068 83.7146 205.881C83.511 205.689 83.1314 205.902 83.2314 205.485H85.1331Z" fill="black"/>
<path d="M51.8677 205.485C51.9676 205.902 51.5886 205.689 51.3845 205.881C51.2578 206.068 51.276 210.173 51.393 210.365C51.5033 210.547 51.95 210.544 51.8671 210.907H50.1031C50.0373 210.541 50.6454 210.483 50.6454 210.162V206.094C49.5474 205.592 49.1556 205.757 49.0172 206.909C48.9057 207.84 48.9429 211.237 47.38 210.986C46.2368 210.801 46.6152 208.935 47.3946 209.476C47.8144 209.767 47.2215 210.268 47.2502 210.429C47.2764 210.575 47.4756 210.663 47.6609 210.571C48.3878 210.212 48.7875 206.877 48.5493 206.155C48.3677 205.604 47.8857 205.961 47.9302 205.484H51.8677V205.485Z" fill="black"/>
<path d="M54.5476 205.383C57.0525 204.962 58.4711 207.927 57.1403 209.869C56.2488 211.169 54.5159 211.355 53.3594 210.301C51.8403 208.916 52.4204 205.74 54.5476 205.383V205.383ZM54.6822 205.787C52.5916 206.216 52.8664 210.792 55.1782 210.631C57.49 210.471 57.4498 205.218 54.6822 205.787Z" fill="black"/>
<path d="M43.142 205.383C43.8062 205.271 44.2504 205.338 44.8262 205.67C47.6712 207.306 45.803 212.056 42.6972 210.778C40.3293 209.803 40.7004 205.793 43.142 205.383ZM43.2773 205.787C41.4164 206.169 41.5102 209.776 42.9056 210.433C45.9675 211.876 46.4678 205.131 43.2773 205.787Z" fill="black"/>
<path d="M25.6627 205.485L25.7979 206.569C25.3324 206.536 25.4067 206.038 24.8876 205.921C24.3453 205.799 23.6482 205.948 23.0833 205.892V207.79C23.6086 207.752 24.2703 207.933 24.7121 207.58C24.8382 207.479 24.8346 207.03 25.121 207.316L25.1197 208.603C24.7267 208.719 24.887 208.297 24.6304 208.215C24.235 208.089 23.5282 208.265 23.0833 208.197V210.366C23.7195 210.539 24.6597 210.636 25.2453 210.288C25.6096 210.071 25.5341 209.652 25.9338 209.688L25.7985 210.908H21.861C21.7806 210.56 22.1645 210.586 22.276 210.407C22.4771 210.084 22.4844 206.437 22.3052 206.056C22.1535 205.734 21.78 205.874 21.861 205.484H25.6627V205.485Z" fill="black"/>
<path d="M77.1222 205.485L77.2575 206.569C76.7937 206.543 76.9296 206.051 76.3465 205.921C75.8018 205.799 75.1089 205.946 74.5429 205.891V207.79C75.0681 207.751 75.7299 207.932 76.1716 207.579C76.2978 207.478 76.2941 207.03 76.5805 207.315L76.5793 208.602C76.1862 208.718 76.3465 208.297 76.09 208.214C75.6945 208.088 74.9877 208.265 74.5429 208.196V210.365C75.0736 210.518 75.6567 210.569 76.2082 210.469C76.8029 210.36 76.89 209.948 77.3933 209.824L77.2581 210.908H73.3205C73.2401 210.56 73.624 210.586 73.7355 210.407C73.9153 210.118 73.95 206.342 73.7977 206.024C73.6654 205.748 73.2194 205.887 73.3205 205.484H77.1222V205.485Z" fill="black"/>
<path d="M69.6536 205.486C69.6798 205.918 69.2551 205.74 69.1399 206.26C69.0576 206.633 69.0235 208.145 69.3373 208.343C69.7011 208.572 71.2707 208.496 71.4024 208.111C71.3628 207.574 71.5718 206.238 71.2969 205.835C71.1684 205.647 70.7662 205.927 70.8771 205.486H72.6405C72.7435 205.887 72.2963 205.748 72.164 206.024C72.0117 206.342 72.0458 210.118 72.2262 210.408C72.3377 210.587 72.7228 210.561 72.6405 210.908H70.8765C70.7894 210.483 71.2781 210.66 71.3938 210.273C71.5285 209.821 71.3524 209.097 71.4182 208.604C70.8375 208.939 69.1289 209.156 68.6963 208.643C68.1784 207.857 68.6067 206.853 68.3703 206.017C68.2326 205.53 67.8091 205.976 67.8895 205.486H69.6536Z" fill="black"/>
<path d="M82.2808 206.705C81.8707 206.774 82.0023 206.35 81.7318 206.102C81.2699 205.677 80.6009 205.685 80.0543 205.906C78.5974 206.495 78.64 209.024 79.5035 210.09C80.0726 210.793 81.3211 210.715 81.9475 210.102C82.254 209.802 82.1784 209.396 82.552 209.418L82.5337 210.619C80.9001 211.322 79.1043 211.138 78.3567 209.336C77.3379 206.879 79.7868 204.473 82.218 205.616L82.2802 206.705H82.2808Z" fill="black"/>
<path d="M61.7791 205.485L61.9144 206.569C61.4513 206.543 61.5866 206.051 61.0035 205.921C60.5666 205.824 60.0559 205.926 59.6069 205.891V210.501L60.1498 210.639V210.908H58.2493C58.1055 210.488 58.6819 210.628 58.7739 210.482L58.7325 205.882C58.5954 205.68 58.125 205.915 58.2493 205.486H61.7797L61.7791 205.485Z" fill="black"/>
<path d="M102.784 205.96L102.241 205.486H104.005C104.102 205.851 103.462 205.889 103.462 206.231V209.146L105.972 206.568C106.119 206.243 106.127 205.838 105.726 205.769L105.636 205.487H107.399L106.857 205.961V210.502C107.106 210.486 107.456 210.563 107.399 210.908H105.635C105.637 210.534 106.178 210.464 106.178 210.028V206.977C105.663 207.562 103.813 209.136 103.562 209.727C103.239 210.483 104.228 210.718 104.005 210.908H102.241C102.141 210.533 102.536 210.575 102.783 210.502V205.961L102.784 205.96Z" fill="black"/>
<path d="M127.359 206.977L124.85 209.69L124.771 210.419C124.817 210.576 125.444 210.491 125.322 210.908H123.558C123.483 210.562 123.849 210.607 123.963 210.397C124.188 209.983 124.191 206.33 123.953 205.968C123.801 205.739 123.463 205.859 123.559 205.486H125.322L124.78 205.96V209.147L127.296 206.433C127.585 205.809 126.776 205.978 126.817 205.487H128.58C128.692 205.928 128.289 205.648 128.161 205.837C127.986 206.092 127.959 210.123 128.106 210.366C128.217 210.549 128.663 210.545 128.58 210.908H126.816C126.702 210.571 127.359 210.418 127.359 210.299V206.977L127.359 206.977Z" fill="black"/>
<path d="M109.165 208.197C109.213 208.838 109.054 209.808 109.305 210.395C109.4 210.616 109.788 210.555 109.708 210.908L108.078 210.839C108.051 210.561 108.376 210.596 108.484 210.397C108.719 209.967 108.706 206.409 108.463 205.979C108.316 205.721 107.987 205.862 108.08 205.486H109.708C109.694 205.915 109.355 205.737 109.224 206.291C109.108 206.784 109.184 207.292 109.165 207.79H112.016C111.999 207.292 112.074 206.784 111.957 206.291C111.827 205.737 111.488 205.915 111.473 205.486C111.946 205.503 112.428 205.461 112.9 205.486C113.651 205.525 113.142 205.787 112.755 205.882C112.682 205.985 112.703 206.108 112.688 206.224C112.617 206.773 112.59 209.97 112.692 210.407C112.735 210.592 113.203 210.552 113.102 210.908H111.473C111.398 210.562 111.764 210.607 111.878 210.397C112.164 209.869 111.947 208.806 112.016 208.197H109.165L109.165 208.197Z" fill="black"/>
<path d="M135.37 205.486C135.448 205.864 135.231 205.75 134.963 205.757L136.186 208.874L137.403 205.759C137.136 205.743 136.922 205.866 137 205.486L138.425 205.484L138.492 205.754C138.124 205.797 137.969 206.063 137.788 206.341C137.192 207.258 136.386 210.411 135.632 210.83C134.219 211.617 133.09 209.342 134.68 209.292C134.969 209.766 134.536 210.022 134.555 210.5C135.19 210.783 135.941 210.354 135.876 209.641C135.802 208.817 134.488 207.05 134.266 206.114C134.127 205.754 133.503 205.924 133.606 205.486H135.369L135.37 205.486Z" fill="black"/>
<path d="M117.99 206.705C117.58 206.774 117.712 206.35 117.441 206.102C116.979 205.677 116.31 205.685 115.764 205.906C114.307 206.495 114.349 209.024 115.213 210.09C115.782 210.793 117.031 210.715 117.657 210.102C117.963 209.802 117.888 209.396 118.261 209.418L118.243 210.619C116.609 211.322 114.814 211.138 114.066 209.336C113.047 206.879 115.496 204.473 117.927 205.616L117.99 206.705H117.99Z" fill="black"/>
<path d="M140.53 206.095C139.84 205.441 139.386 206.374 138.765 206.569L138.983 205.477L142.749 205.479L143.111 206.5C143 206.711 142.875 206.515 142.768 206.435C142.306 206.09 142.099 205.715 141.362 205.911C141.142 206.048 141.109 210.043 141.336 210.408C141.447 210.587 141.832 210.561 141.75 210.908H139.986C139.871 210.571 140.528 210.418 140.528 210.298V206.096L140.53 206.095Z" fill="black"/>
<path d="M131.569 210.298C131.622 210.468 132.208 210.546 132.111 210.908H130.347C130.271 210.562 130.638 210.607 130.752 210.397C130.98 209.975 130.964 206.054 130.735 205.912C129.997 205.714 129.791 206.093 129.329 206.436C129.222 206.515 129.098 206.712 128.986 206.501L129.345 205.503L133.119 205.478L133.332 206.57C132.912 206.526 132.879 206.037 132.417 205.929C132.134 205.862 131.852 205.891 131.567 205.893V210.299L131.569 210.298Z" fill="black"/>
<path d="M120.571 205.892C120.289 205.897 120.001 205.852 119.721 205.926C119.245 206.05 119.222 206.551 118.806 206.569L119.024 205.477L122.789 205.48L123.014 206.434C122.417 206.204 121.891 205.492 121.249 206.096V210.163C121.249 210.483 121.857 210.542 121.791 210.908H120.027C119.913 210.571 120.57 210.418 120.57 210.299V205.893L120.571 205.892Z" fill="black"/>
<path d="M21.1822 205.485L21.4534 206.569C20.983 206.562 20.8885 205.982 20.4327 205.895C20.0714 205.826 19.2646 205.808 19.0099 206.096V210.298L19.6887 210.639V210.909H17.7882C17.7078 210.561 18.0917 210.588 18.2032 210.408C18.3829 210.119 18.4177 206.343 18.2653 206.025C18.1331 205.749 17.6871 205.888 17.7882 205.486H21.1828L21.1822 205.485Z" fill="black"/>
<path d="M96.1304 204.13L95.9957 204.943H96.945L96.6751 204.13L97.3338 204.148L97.3935 204.768C97.1681 205.388 95.635 205.362 95.4747 204.854L95.4516 204.13L96.1304 204.131V204.13Z" fill="black"/>
<path fill-rule="evenodd" clip-rule="evenodd" d="M108.499 33.2299L108.26 34.5608L108.939 35.0016L109.833 34.1163L108.945 35.6634L110.72 36.9955L106.945 42.5303L104.929 40.7684L106.161 40.6785L107.605 38.109L104.114 39.0963L104.036 40.3215C103.895 40.6214 101.358 39.5638 101.811 38.5559C103.464 38.0872 104.715 35.2784 104.934 33.6695L107.156 34.5608L107.161 33.2262L108.501 33.2287L108.499 33.2299ZM108.493 36.7526L107.835 35.0064L107.766 35.0353C106.504 35.5652 105.354 36.0484 105.378 37.6585L108.494 36.7526H108.493Z" fill="black"/>
<path d="M35.3399 79.3333L35.3411 79.334L35.3399 79.3352V79.3333Z" fill="black"/>
<path d="M35.3399 76.6758V79.3333C34.2394 78.7216 33.0229 79.0306 31.8453 79.3298C31.5195 79.4126 31.1966 79.4946 30.88 79.5562L35.3411 81.3351C35.6932 82.0165 34.2936 82.3457 33.1436 82.6162C32.4489 82.7796 31.8453 82.9216 31.7741 83.1068C31.2813 84.3867 34.9398 83.6788 35.3411 83.3242V85.5403C33.4381 84.2495 30.8726 83.8986 28.6573 84.6527L28.8586 82.4195L32.2218 80.6697L28.7073 79.7274L28.6573 77.5623C30.6043 78.2374 33.5222 77.6412 35.3399 76.6758Z" fill="black"/>
<path d="M98.684 31.4461C97.2848 31.4461 97.1811 32.9494 97.1177 34.1054C97.4429 33.8706 97.79 33.7034 98.1187 33.5452C98.9708 33.1349 99.6983 32.7846 99.5953 31.4691L102.251 32.5644C100.755 33.4776 100.166 36.3058 100.021 38.1066L97.347 37.6549L99.1268 34.1164C98.8462 33.8383 95.2415 35.5043 96.0039 36.7721L93.7776 36.3252L96.0088 30.1225L98.6828 31.4436L98.684 31.4461Z" fill="black"/>
<path d="M132.904 74.3458C133.216 74.4354 133.435 74.498 133.472 74.456H133.47L133.023 71.7942C132.85 71.8456 132.676 71.8989 132.499 71.9528C130.656 72.5157 128.608 73.141 126.788 72.2411V75.3425L127.893 74.4403L130.796 76.4548L126.788 76.2326L127.236 79.3315C127.639 79.4366 127.661 79.1921 127.684 78.9304C127.703 78.7142 127.723 78.4863 127.96 78.4341C129.435 78.1087 132.424 78.0917 133.919 78.4451L133.473 75.7845C132.399 76.4924 131.872 76.0862 131.249 75.6071C130.88 75.3226 130.477 75.0125 129.907 74.8944C130.186 73.5673 131.967 74.0776 132.904 74.3458Z" fill="black"/>
<path d="M60.9319 37.9669C60.9728 38.0336 61.0881 38.0549 61.2201 38.0792C61.5377 38.1377 61.952 38.214 61.659 38.9833L58.9862 39.8746C59.6645 38.6798 58.7862 37.0283 57.6517 36.3325C57.7328 36.9118 57.6046 37.4748 57.4825 38.0112C57.2669 38.9579 57.0702 39.8219 58.0762 40.5474L55.867 41.6536C55.6973 39.4008 54.2276 37.6571 52.8562 36.0301L52.7416 35.8941L55.4119 35.0028C55.3851 36.137 55.5461 37.6063 56.7502 38.1054L57.2198 34.8425L56.311 34.3398L58.9813 32.7854C58.7791 34.4619 59.8769 36.2507 60.7824 37.7261C60.8325 37.8078 60.882 37.8885 60.9307 37.9682L60.9319 37.9669Z" fill="black"/>
<path d="M115.188 45.1933C115.676 44.1587 116.66 43.3415 117.864 43.4204L117.866 43.4192L116.088 41.2067C115.47 42.8242 113.486 45.0974 111.617 45.2031L113.181 47.4058C113.779 45.878 114.78 45.9542 116.028 46.0492C116.464 46.0824 116.929 46.1178 117.418 46.0883C116.731 47.1994 115.737 48.3809 114.296 48.3056L116.305 50.5157C116.968 48.6809 118.885 46.2789 120.986 46.0798L118.977 43.8697L118.733 45.1618L115.188 45.1933Z" fill="black"/>
<path d="M89.758 29.2311L88.8748 31.0113C89.504 30.7881 89.8912 30.2103 90.2364 29.6952C90.7961 28.86 91.2455 28.1895 92.4369 29.4619C89.5068 30.5793 90.7991 33.1058 91.8912 35.241L91.9929 35.44L89.3164 35.4424C89.6373 34.3155 89.6177 33.1898 88.6455 32.3434L87.9355 34.2948L88.8675 34.9967L85.7482 34.5523C86.6485 32.7478 87.5488 30.2536 86.64 28.3544C86.8615 28.3598 87.1035 28.3475 87.3523 28.335C88.3324 28.2853 89.4165 28.2304 89.758 29.2299V29.2311Z" fill="black"/>
<path d="M39.7301 54.5994C38.6734 53.9962 37.5593 53.3601 37.5784 52.2935H37.5796C38.3555 51.5965 42.1457 54.5679 42.7068 55.3864L43.7901 53.4435C43.6975 53.0374 42.8258 52.6014 41.8438 52.1102C40.4588 51.4176 38.8543 50.615 38.9057 49.6317L35.7925 54.0603C37.7919 53.9717 40.5098 55.4216 40.6952 57.6086C40.2997 57.6402 40.2788 57.4624 40.2547 57.2578C40.227 57.0226 40.1951 56.7519 39.5851 56.7233C38.806 56.6873 38.8299 56.887 38.8836 57.3342C38.9005 57.4745 38.9202 57.6391 38.9191 57.8284C40.1707 59.4398 41.9688 57.7749 41.5345 56.1465C41.3492 55.5237 40.5573 55.0716 39.7301 54.5994Z" fill="black"/>
<path fill-rule="evenodd" clip-rule="evenodd" d="M47.3889 49.1885C44.8625 52.3663 40.8039 49.7968 41.6871 45.9584C42.5642 42.1466 49.6615 43.6123 48.1928 48.4587C48.0761 48.8439 47.7976 48.9715 47.5952 49.0643C47.5034 49.1063 47.4273 49.1412 47.3889 49.1897V49.1885ZM47.3889 49.1885C47.6684 47.6881 46.6966 46.8189 45.701 45.9284C45.3542 45.6183 45.0045 45.3055 44.7039 44.9626C43.8744 44.4502 43.1985 44.9566 42.6789 45.6499C42.5898 47.9511 45.1284 49.7507 47.3889 49.1885Z" fill="black"/>
<path d="M64.7869 30.7915L67.4585 29.6829C67.1997 31.591 67.9296 33.2635 68.6597 34.9357C68.8616 35.398 69.0634 35.8603 69.2444 36.3276L66.5692 36.7696L66.5643 34.1127L63.2876 34.9651L61.2163 31.4582L63.8915 31.0089L63.8927 31.1543C63.908 32.9799 63.9267 35.2234 66.1581 33.3926C66.1135 33.186 66.0796 32.9814 66.0467 32.7824C65.8994 31.8924 65.7709 31.1161 64.7869 30.7915Z" fill="black"/>
<path d="M35.757 86.8992L36.6793 92.1912C34.8836 91.3411 32.2706 92.0722 30.6591 93.0679C29.9796 93.0436 28.4157 87.3849 30.8836 87.7601L30.442 90.8591L32.6683 90.4122L31.779 88.2021L33.5612 88.2046L33.1172 89.9714H35.3472L34.453 86.8749L35.7558 86.8979L35.757 86.8992Z" fill="black"/>
<path d="M75.4866 29.6792L75.4914 28.3532L70.1398 28.7964C69.8568 29.5229 70.2245 29.6097 70.5711 29.6916C70.7818 29.7413 70.9848 29.7892 71.0291 29.9779C71.3731 31.4521 71.6744 34.0787 71.0291 35.44L76.3844 34.9992L76.3771 33.2275L73.2615 34.5559V31.9002L75.0389 32.341V30.5681L72.815 31.4521V29.2372L75.4866 29.6792Z" fill="black"/>
<path d="M30.9641 67.2527C31.424 67.6303 36.2194 67.4688 37.1258 66.9212L36.6806 69.5842L32.672 69.141C32.4912 70.0193 33.3975 70.2249 34.2682 70.4223C34.7661 70.5352 35.2523 70.6455 35.5168 70.8774L35.7681 72.212L31.3326 72.6892L35.0508 74.0128L35.3399 75.7857C34.9679 75.8313 34.9138 75.6486 34.8437 75.4121C34.7794 75.1949 34.7016 74.9323 34.3518 74.7596C33.0221 74.1051 30.4481 73.2235 29.1038 74.014L29.643 71.4457L33.1148 70.9066L30.0212 69.0973L30.4433 66.4792C30.9008 66.3636 30.8911 66.6146 30.8812 66.8691C30.8753 67.0211 30.8694 67.1743 30.9629 67.2515L30.9641 67.2527Z" fill="black"/>
<path d="M132.58 69.1191L131.209 63.8465L131.207 63.8477L129.907 63.821C129.596 64.5979 130.063 64.6704 130.432 64.7278C130.637 64.7596 130.812 64.7868 130.807 64.9272C130.756 66.4075 126.247 67.1592 125.001 66.4804L126.116 69.5805C126.088 68.2035 130.966 67.5247 131.243 67.8052L131.248 69.5817L132.58 69.1191Z" fill="black"/>
<path d="M83.9624 29.6792L81.5751 28.386C78.9816 29.3696 79.4391 35.0805 82.5035 33.831L83.96 32.341L83.5465 34.3616C80.2393 35.1825 77.6336 34.1576 78.1863 30.3811C78.823 26.0253 85.319 28.3787 83.9637 29.6792H83.9624Z" fill="black"/>
<path d="M132.58 84.6575L132.138 86.8688C133.368 88.3029 133.714 82.9198 133.736 82.4329C133.742 82.3082 133.755 82.1995 133.766 82.1018C133.814 81.7011 133.839 81.4859 133.245 81.1129L133.026 82.8785L126.992 82.4232L126.787 84.6539L132.58 84.6575Z" fill="black"/>
<path d="M129.461 96.6283L129.904 98.3939C127.735 98.1279 125.734 97.1152 124.114 95.737L123.221 98.8396C124.96 97.9482 127.153 99.3119 128.566 100.398C128.693 100.964 128.412 101.007 128.128 101.051C127.842 101.095 127.553 101.14 127.675 101.717C127.741 102.029 128.05 101.994 128.356 101.959C128.514 101.941 128.671 101.923 128.793 101.953L130.802 97.2998L129.461 96.6283Z" fill="black"/>
<path d="M128.12 89.5294V88.2034L128.119 88.2046C124.374 87.4784 126.175 92.3466 128.662 92.1183C129.082 92.0794 129.491 91.9417 129.903 91.8028C130.736 91.5219 131.584 91.2359 132.58 91.7528L133.026 89.091L126.787 90.4158L128.12 89.5294Z" fill="black"/>
<path d="M123.207 48.3044L124.109 50.5133L122.513 50.9225C121.92 51.679 122.432 53.3815 123.433 53.1751L124.775 51.4058L126.34 54.0615C124.744 53.9219 123.138 55.1496 121.897 56.0979C121.702 56.2471 121.623 56.4714 121.549 56.6819C121.416 57.0608 121.298 57.3948 120.547 57.1653L119.647 54.9553L122.269 53.9947L121.873 51.8466C120.41 51.9158 119.583 52.8606 118.98 54.0615L117.418 51.4082C119.009 51.5434 120.594 50.3346 121.837 49.3862L121.859 49.3694C122.055 49.2206 122.134 48.9959 122.208 48.785C122.341 48.4059 122.459 48.0715 123.209 48.3032L123.207 48.3044Z" fill="black"/>
<path d="M32.6669 95.2986L32.6671 95.2974H32.6684L32.6669 95.2986Z" fill="black"/>
<path d="M31.3192 96.3879L32.6669 95.2986L32.2255 97.5087C32.722 97.9665 37.6431 96.5566 37.7968 95.2962L38.9105 98.3976C36.9136 97.533 34.375 99.0836 32.6757 100.17L31.3192 96.3879Z" fill="black"/>
<path d="M51.4011 38.1066L49.176 40.0908L51.9391 43.8175L53.1785 43.6415C52.7348 44.6921 52.0549 44.98 51.1713 45.3543C50.9641 45.442 50.7458 45.5345 50.5167 45.6427C50.2044 43.5516 48.5917 41.7325 46.951 40.5437C46.9388 40.2839 50.5862 37.5019 51.4011 38.1066Z" fill="black"/>
<path d="M129.012 58.9394C126.502 58.7646 123.359 58.8132 123.658 62.0445C120.052 58.7986 127.702 54.5436 129.012 58.9394Z" fill="black"/>
<path d="M131.688 95.2925L129.014 92.6392C130.784 92.604 132.049 93.3775 131.688 95.2925Z" fill="black"/>
<path d="M125.198 63.7979L125.891 62.9358L123.664 62.4901L123.666 63.1458L124.354 63.7992L125.198 63.7979Z" fill="black"/>
<path d="M128.57 61.5988L129.235 59.3863L129.887 60.0736L129.888 60.9127L129.23 61.5964L128.57 61.5988Z" fill="black"/>
<path fill-rule="evenodd" clip-rule="evenodd" d="M82.6864 43.8078L87.0841 43.8697C87.5898 44.2752 86.4768 44.987 85.451 45.6431C84.7226 46.109 84.0381 46.5467 84.0087 46.8266L84.8456 50.744L81.1432 48.812L77.9373 50.9516L78.5668 46.8266L75.9355 44.3154L79.5122 44.098L80.8468 40.3215L82.6864 43.8078ZM81.7202 44.3287H80.8553L80.5406 45.2055L79.0572 45.2018L79.9514 47.8624H82.6242L83.5183 45.2018L82.035 45.2055L81.7202 44.3287Z" fill="black"/>
<path fill-rule="evenodd" clip-rule="evenodd" d="M66.124 77.5586L66.568 75.3449H60.3234C59.9718 76.2381 60.4916 76.5062 60.8723 76.7026C61.0423 76.7904 61.1846 76.8637 61.209 76.9721C61.3507 77.5989 61.2933 78.3762 61.2356 79.1575C61.1855 79.8367 61.1352 80.5191 61.2152 81.1081H77.2726C77.21 80.6485 77.2519 80.1208 77.2936 79.5955C77.3429 78.9744 77.3919 78.3566 77.2677 77.8585C77.2239 77.6835 76.9976 77.6149 76.7817 77.5494C76.5766 77.4872 76.3809 77.4279 76.3601 77.283C76.2926 76.8107 76.532 76.1464 76.7772 75.4662C76.9928 74.8678 77.2129 74.2571 77.2323 73.7541C77.275 72.654 75.4098 66.977 74.8035 66.0456C74.4351 65.4785 73.9215 65.2102 73.2616 65.1398L73.5714 64.2667L76.781 61.7348L74.59 58.7051L73.9289 58.4816C72.5985 58.7329 71.9071 59.9992 71.3019 61.1075C70.9975 61.6649 70.7149 62.1824 70.3839 62.5108C70.1052 62.7864 69.6991 62.9813 69.2666 63.1888C68.7979 63.4137 68.2981 63.6536 67.8953 64.0274C67.0475 64.8155 61.8239 69.8914 61.7092 70.337C61.4518 71.3376 63.3097 73.3571 64.177 73.9824L68.6358 70.0529C69.4387 70.7436 70.3646 71.0808 71.1785 71.3772C72.8042 71.9692 73.9833 72.3986 72.8444 75.1579C71.8514 77.5635 68.3479 77.691 66.124 77.5586ZM74.0826 59.9413C74.7913 59.9413 75.3659 60.512 75.3659 61.2163C75.3659 61.9206 74.7913 62.4913 74.0826 62.4913C73.3738 62.4913 72.7992 61.9206 72.7992 61.2163C72.7992 60.512 73.3738 59.9413 74.0826 59.9413ZM70.2448 64.365L72.0246 62.5958L72.7041 63.2709L70.9243 65.0402L70.2448 64.365ZM62.74 70.9114L69.2347 64.4403L70.8377 66.0299L64.343 72.501L62.74 70.9114ZM69.7239 68.5338C71.9209 64.988 75.3854 65.385 73.5971 69.9157H73.5983L71.3512 70.4026L69.7239 68.5338ZM74.8206 70.0322C76.8151 72.0383 75.9173 75.1798 74.9804 77.4991V77.4979L72.809 77.3339C72.819 76.9349 73.0865 76.5972 73.3755 76.2324C73.6529 75.8823 73.95 75.5073 74.0582 75.0292C74.1972 74.4151 74.1598 73.7471 74.1227 73.0848C74.0593 71.9515 73.9968 70.8347 74.8206 70.0322ZM62.5522 77.561V76.6721L64.7858 76.6746V77.5635L62.5522 77.561ZM62.5546 78.4475H75.9356V80.2204H62.5546V78.4475Z" fill="black"/>
<path fill-rule="evenodd" clip-rule="evenodd" d="M103.59 64.705V64.7065C101.908 65.0296 100.523 64.5553 99.1314 64.079C97.8181 63.6293 96.4996 63.1778 94.9206 63.3936C94.549 63.4442 94.1985 63.6275 93.8618 63.8034C93.4723 64.007 93.1014 64.2009 92.7382 64.1683C92.4751 64.1447 92.2001 64.0162 91.8803 63.8666C91.3934 63.639 90.8024 63.3627 89.991 63.3341C88.8856 63.2954 87.8186 63.6813 86.7319 64.0744C85.2943 64.5944 83.8222 65.1269 82.1813 64.705V77.5611H90.4326C90.5155 77.5611 90.666 77.7203 90.8757 77.9421C91.5787 78.6861 92.9472 80.1343 94.6668 78.6442C94.9701 78.3813 95.0393 77.9411 95.0754 77.7112C95.0899 77.6193 95.099 77.5611 95.1158 77.5611H103.59V64.7065L103.592 64.7063L103.59 64.705ZM84.8565 66.0359V74.4585C85.1018 74.3685 85.3428 74.2779 85.5806 74.1885C87.8715 73.3275 89.8617 72.5796 92.4357 73.5708C92.4516 72.8558 92.4761 72.1745 92.4992 71.5302C92.7147 65.5291 92.8145 62.7473 84.8565 66.0359ZM99.4721 65.5232C97.8838 64.927 96.332 64.3445 94.5156 64.7755L93.7775 65.3693V73.5708C95.7975 72.5649 97.598 73.2428 99.4307 73.9327C99.9212 74.1174 100.414 74.3029 100.914 74.4572V66.0347C100.425 65.8808 99.9468 65.7014 99.4721 65.5232ZM83.9635 66.0347H83.517V76.2314H83.9635V66.0347ZM102.697 66.0347H101.806V76.2314H102.697V66.0347ZM87.9709 74.6728C89.4618 74.3548 91.1868 73.9867 91.9921 75.3388C91.4263 75.3274 90.857 75.3371 90.2871 75.3467C89.5899 75.3586 88.8914 75.3704 88.1978 75.3437C88.0681 75.3387 87.9052 75.3554 87.7339 75.3729C87.1911 75.4283 86.5639 75.4924 86.6436 74.9053C87.0362 74.8722 87.4915 74.7751 87.9709 74.6728ZM99.1255 74.9065C98.9965 74.8761 98.8585 74.842 98.7133 74.8062C97.1295 74.4155 94.6949 73.815 93.7763 75.34C94.3426 75.3291 94.9126 75.3384 95.4834 75.3476C96.1804 75.3589 96.8785 75.3703 97.5726 75.3449C97.7011 75.3403 97.8626 75.3568 98.0327 75.3741C98.5764 75.4295 99.2073 75.4939 99.1255 74.9065ZM94.2204 76.2338H91.9904L91.9941 78.0031L93.7031 77.9338L94.2204 76.2338Z" fill="black"/>
<path fill-rule="evenodd" clip-rule="evenodd" d="M95.5783 94.6283C91.7905 89.4893 85.9277 84.5397 78.9414 85.6472L78.9426 85.646C74.0692 86.4195 69.4848 90.9623 66.5998 94.6866C74.1997 104.799 87.3062 105.175 95.3538 95.2853L95.5783 94.6283ZM79.0597 89.5306H79.9503V89.5318L79.9454 90.4086L79.0597 90.4146V89.5306ZM79.9503 89.5306C80.0384 89.5348 80.1281 89.5398 80.2176 89.5448C81.4072 89.6106 82.6641 89.6802 82.6267 88.201L82.6267 88.2021L81.0713 87.3181L79.9503 89.5306ZM83.516 88.1985L82.6267 88.201L82.6291 87.3169H83.516V88.1985ZM77.9362 87.7601L78.612 88.6405L76.8298 88.4256L77.9362 87.7601ZM83.9661 87.7601L84.6261 87.7626L85.3019 88.6405L83.9661 88.6429V87.7601ZM74.5971 89.2318C73.2697 92.5823 72.472 94.5957 74.3339 98.23C74.3618 98.284 74.4541 98.3773 74.575 98.4996C74.9083 98.8367 75.4591 99.3939 75.4806 99.9543C74.0301 99.8997 68.3271 95.7139 68.4186 94.706C69.8117 92.122 72.3479 90.179 74.8255 88.6539C74.7479 88.8511 74.6717 89.0435 74.5971 89.2318ZM78.6103 89.5366L76.3845 89.0898V91.3023C77.7549 91.5904 78.1477 90.6473 78.5844 89.5988L78.6103 89.5366ZM86.1912 89.0898L83.9649 89.5342C84.4138 91.9532 86.5584 91.8706 86.1912 89.0898ZM87.09 99.7236C88.7159 99.7027 93.7936 95.9529 93.7936 94.6295C92.359 92.3357 90.1278 90.3369 87.7515 89.0971C87.9172 89.7569 88.1926 90.371 88.4675 90.9842C88.9153 91.9826 89.3619 92.9786 89.3324 94.1657C89.308 95.1663 88.4322 98.043 87.9576 98.9549C87.8351 99.1896 87.6152 99.2314 87.4246 99.2676C87.1904 99.3122 87.0005 99.3483 87.09 99.7236ZM75.0451 89.9763H75.9331V91.3023H75.0451V89.9763ZM82.6279 89.9787H83.516V90.4134H82.6279V89.9787ZM87.0952 90.3041C87.4001 90.3041 87.6465 90.5494 87.6465 90.8518C87.6465 91.1542 87.4001 91.3994 87.0952 91.3994C86.7902 91.3994 86.5438 91.1542 86.5438 90.8518C86.5438 90.5494 86.7902 90.3041 87.0952 90.3041ZM81.5044 90.8348C84.409 90.972 85.6545 94.5639 83.849 96.5141C83.4745 96.9185 81.7398 97.5123 81.1104 97.4953C76.8517 97.3775 76.2808 90.5883 81.5044 90.8348ZM75.0429 95.2933C75.1853 95.2854 75.3294 95.2965 75.474 95.3084C75.7542 95.3314 76.0352 95.3544 76.304 95.2343C76.8908 94.808 76.6675 92.5615 76.1173 92.6235L74.5974 93.0716L74.1521 91.7479C74.2137 92.7878 74.5511 93.8072 74.878 94.7948C74.9332 94.9616 74.9882 95.1276 75.0414 95.2925L75.0429 95.2933ZM75.0429 95.2933C74.8973 95.3016 74.7507 95.2984 74.604 95.2947C74.4536 95.2908 74.3033 95.287 74.1545 95.2962V96.1778L75.4891 96.1754C75.5728 96.1215 75.4321 95.9169 75.285 95.703C75.1837 95.5557 75.0791 95.4034 75.0429 95.2933ZM87.5318 93.077L88.4358 92.8566L87.7539 91.7552L87.5307 93.0764L87.5318 93.077ZM87.5316 93.078L85.9472 93.499L85.7484 95.2938H87.0854L87.5316 93.078ZM87.0857 95.295H88.4261L88.4212 96.1778L87.3038 96.1911L87.0857 95.295ZM84.8676 95.2998L85.7472 95.2938L85.746 96.1778H84.8579L84.8676 95.2998ZM76.3833 96.6271C76.5797 96.4121 77.752 96.9149 78.0362 97.1966L78.035 97.1978C78.3193 97.4795 78.8243 98.6453 78.6084 98.8396L76.3784 98.8444L76.3833 96.6271ZM85.7435 96.6247L86.1924 98.8384L84.1894 98.8444L83.9734 97.743L85.7435 96.6247ZM75.4855 97.0691V97.9519H75.0487V97.0691H75.4855ZM86.6426 97.0703H87.5307L87.5282 97.726L86.645 98.3976L86.6426 97.0703ZM79.9527 98.8432H82.1827L82.1997 100.331C80.9188 101.669 80.1027 100.391 79.9527 98.8432ZM77.2762 99.2864H78.6096V100.168H77.2762V99.2864ZM83.9661 99.7297L85.3019 99.7321L84.6261 100.61L83.9661 100.612V99.7297ZM83.0805 100.058C83.3855 100.058 83.6319 100.303 83.6319 100.605C83.6319 100.908 83.3855 101.153 83.0805 101.153C82.7755 101.153 82.5291 100.908 82.5291 100.605C82.5291 100.303 82.7755 100.058 83.0805 100.058Z" fill="black"/>
<path fill-rule="evenodd" clip-rule="evenodd" d="M105.763 76.3965C106.61 69.3389 105.664 63.1519 104.017 56.3007H58.5582C53.1882 74.15 58.2739 94.6064 72.6028 106.808C73.7007 107.743 79.8197 112.286 80.7346 112.51C81.7696 112.766 82.9003 111.932 83.8682 111.219C84.1072 111.042 84.3363 110.874 84.5516 110.73C96.4639 102.793 104.054 90.6526 105.763 76.3965ZM60.1001 57.1678H80.3942V79.5562L61.6677 90.417C58.7351 82.9927 57.0406 75.2465 57.703 67.1992C57.9568 64.1124 58.7241 59.8927 60.1001 57.1678ZM82.4022 57.1678H102.474C106.718 67.5538 104.921 79.6788 100.875 89.9422L81.7337 79.5562V57.8332L82.4022 57.1678ZM81.0627 111.238C73.2359 106.535 66.0532 99.8887 62.5789 91.3423L81.4763 81.1117L99.9869 91.5694C95.9271 99.8426 89.2531 106.932 81.0627 111.238Z" fill="black"/>
<path fill-rule="evenodd" clip-rule="evenodd" d="M76.8261 129.43C73.4799 130.233 77.4946 132.854 79.3903 131.087C80.5711 129.986 81.0274 125.981 79.1853 125.083C77.0127 123.787 74.7498 125.906 75.5488 128.261C75.7966 128.99 76.6756 128.984 77.4295 128.978C78.4462 128.97 79.2353 128.964 77.9423 130.766L76.8261 129.43ZM77.2762 128.542C79.1256 128.898 78.8645 125.466 77.9435 125.449L77.2762 128.542Z" fill="black"/>
<path d="M91.9903 123.669L88.4735 124.601L88.876 128.1L91.095 127.216C91.1208 127.3 91.1479 127.386 91.1756 127.475C91.5662 128.719 92.0552 130.276 90.2118 130.315L90.2081 128.539L88.8736 128.545L88.926 130.04C94.0398 133.293 95.4159 124.633 89.3201 126.768L89.6141 125.433L91.6964 125.003L91.9903 123.669Z" fill="black"/>
<path d="M85.6017 127.965C85.6959 126.838 85.7902 125.711 86.1924 125H82.1765L82.1814 126.77L84.8529 126.331L83.5196 131.646C85.2759 131.86 85.4387 129.914 85.6017 127.965Z" fill="black"/>
<path d="M73.2566 124.112C73.2336 124.895 73.0418 125.701 72.85 126.507C72.5023 127.968 72.1544 129.429 72.8125 130.756L69.6933 130.311C69.6041 129.926 69.7895 129.903 70.0194 129.874C70.2173 129.849 70.4481 129.819 70.5655 129.552C70.8675 128.865 70.9299 127.17 70.9747 125.955C71.0013 125.231 71.0217 124.676 71.0827 124.606L73.2554 124.112H73.2566Z" fill="black"/>
<path fill-rule="evenodd" clip-rule="evenodd" d="M124.987 116.339C156.777 79.408 127.624 21.3125 78.9658 23.604H78.9646C34.4032 25.7023 9.30023 75.0389 34.3519 112.02C35.5084 113.727 41.115 120.786 42.7301 121.023C44.2466 121.244 45.1192 120.046 45.9526 118.902C46.7683 117.782 47.5464 116.713 48.854 117.079L54.0422 121.273C53.8879 122.102 53.3316 122.96 52.7665 123.833C51.8527 125.243 50.9158 126.689 51.6183 128.102C64.7894 136.641 81.6922 138.622 96.7933 134.424C99.0879 133.786 110.596 129.585 111.114 127.787C111.431 126.683 110.525 125.285 109.698 124.009C109.009 122.946 108.375 121.968 108.547 121.313L114.072 116.581C119.272 122.617 120.142 121.969 124.987 116.339ZM110.289 110.577L110.283 109.932C113.124 108.226 115.807 104.292 117.494 101.356C136.201 68.8046 107.076 30.511 70.5778 39.6512C38.713 47.6305 28.8441 88.2094 52.2868 110.589C51.0708 111.363 49.6075 113.186 48.1572 114.994C46.5825 116.956 45.0232 118.899 43.8122 119.459C42.2027 120.203 39.8132 117.223 38.46 115.536L38.4577 115.533L38.4567 115.531C38.3014 115.338 38.1599 115.161 38.0348 115.009C10.8397 82.0164 30.8667 31.2578 73.0932 25.3077C126.877 17.7279 158.261 82.4207 120.087 119.925C119.667 120.26 119.449 120.085 119.173 119.863C119.108 119.811 119.039 119.756 118.964 119.704C117.28 118.553 115.648 116.593 114.04 114.662L114.039 114.661C112.779 113.147 111.533 111.651 110.289 110.577ZM69.9142 44.755H62.5546L62.557 44.7538C62.4189 44.0319 62.7087 43.8679 63.2276 43.5743L63.2869 43.5407L63.3231 43.52C65.2191 42.4351 67.7988 43.179 70.2801 43.8946C71.8202 44.3387 73.3225 44.772 74.5998 44.7501L74.1899 43.6172L75.0426 42.7647C74.8904 42.3988 74.3264 42.2096 73.7181 42.0056C72.8002 41.6978 71.7817 41.3562 71.927 40.3227L75.9368 42.092L74.8194 39.8868L76.6053 41.2165C77.5861 39.1448 81.1909 39.1145 83.1976 39.5346C83.8807 39.6779 87.2501 41.7423 87.4001 42.1818C87.44 42.2988 87.4192 42.5003 87.3942 42.7416C87.3253 43.4074 87.225 44.3764 88.2833 44.7088C89.148 44.9807 90.5971 44.5235 92.2247 44.01C95.2056 43.0694 98.7854 41.9399 100.47 44.755H92.2187C92.1744 44.755 92.0616 44.8055 91.9101 44.8735C91.64 44.9946 91.2468 45.1709 90.8976 45.2152C90.6068 45.2517 90.2197 45.2146 89.8218 45.1764C88.8023 45.0786 87.7112 44.9739 87.9832 46.0822L102.454 45.6645L107.604 49.1836L87.982 46.5267C88.1321 54.5788 74.6828 54.5448 74.59 46.534L54.973 49.1836L60.1246 45.6645L74.5961 46.0822C75.8628 45.1245 72.9983 45.186 71.7524 45.2127C71.4913 45.2183 71.3013 45.2224 71.2353 45.2152C70.8772 45.1762 70.4883 44.9973 70.221 44.8744C70.0723 44.806 69.9613 44.755 69.9142 44.755ZM87.9869 41.877L90.6524 40.3239C90.9252 41.3806 89.5247 41.6109 88.5584 41.7697C88.3365 41.8062 88.1375 41.8389 87.9869 41.877ZM71.6313 42.1459C72.2635 42.461 72.9259 42.7911 73.702 42.9869V42.9881C73.7892 43.6525 73.0609 43.4899 72.5401 43.3737C72.4346 43.3501 72.3376 43.3285 72.2576 43.316C71.2317 43.1545 69.7166 42.7307 68.7041 42.4065C68.5947 42.3714 68.4624 42.3466 68.3254 42.3209C67.8789 42.2371 67.3822 42.1439 67.4634 41.656C69.1933 40.9308 70.3506 41.5076 71.6313 42.1459ZM88.8701 43.4204C90.3218 41.786 93.0336 40.9104 95.1123 41.656C95.1935 42.1439 94.6968 42.2371 94.2504 42.3209C94.1133 42.3466 93.9811 42.3714 93.8717 42.4065C92.3224 42.9019 90.4999 43.3282 88.8701 43.4204ZM53.5262 50.6335L73.7032 47.8624H73.7044L60.7931 52.5339L56.3685 52.7913C56.238 52.9865 56.1791 53.2648 56.1206 53.5416C56.0473 53.888 55.9745 54.2321 55.7622 54.4076C55.3274 54.7673 53.5991 55.2081 51.8784 55.6469C50.3983 56.0243 48.9239 56.4004 48.2831 56.7221C47.6231 56.0967 52.6503 50.9954 53.5262 50.6335ZM114.732 56.9516L106.821 54.4015H106.82C106.644 54.2576 106.558 53.9715 106.462 53.6552C106.309 53.1469 106.132 52.5606 105.524 52.3615C104.833 52.1347 103.922 52.2028 102.993 52.2722C102.061 52.3418 101.111 52.4128 100.347 52.189L88.4261 47.8624L109.061 50.6226L114.732 56.9516ZM74.1423 49.4058C71.2878 51.5309 68.5211 53.3791 64.787 52.7306C64.9621 52.1441 65.9984 51.8055 66.7514 51.5595C66.9323 51.5004 67.0969 51.4467 67.2292 51.3961C69.4372 50.5534 71.8136 49.8223 74.1423 49.4058ZM97.3457 52.7294C97.2522 52.1447 96.7835 52.0047 96.3229 51.8671C96.1799 51.8244 96.0376 51.7819 95.9077 51.7264C93.8119 50.8363 91.1147 50.1271 88.8713 49.6353C91.261 51.7397 94.0606 53.2807 97.3457 52.7294ZM74.5558 51.2516C73.7205 52.1721 72.9618 53.0081 71.4757 52.7306C72.1429 51.6292 73.7788 50.8387 75.0353 50.7355C74.8694 50.906 74.7112 51.0803 74.5558 51.2516ZM90.154 51.8323C90.5777 52.0075 91.0238 52.192 91.1013 52.7306C89.614 53.0083 88.8545 52.1708 88.0189 51.2495C87.8641 51.0789 87.7067 50.9053 87.5416 50.7355C88.1662 50.8958 89.2117 51.3366 89.746 51.6438C89.8692 51.7145 90.0103 51.7729 90.154 51.8323ZM57.1505 53.8782L105.33 53.6657L105.331 53.6669C111.925 72.473 108.021 92.8323 93.1202 106.39C91.2696 108.073 84.1064 113.878 82.1558 114.576C80.4666 115.18 76.5217 112.271 74.612 110.862L74.4352 110.732C74.348 110.667 74.2661 110.607 74.1899 110.552C56.5015 97.6532 49.6738 74.4767 57.1505 53.8782ZM55.4153 55.8406L46.6253 58.6274L42.4825 67.3595L53.614 61.3596L55.4153 55.8406ZM107.16 55.8405L115.95 58.6274H115.949C117.668 61.447 119.356 64.4816 119.875 67.7979C118.956 66.8881 116.814 65.7896 114.617 64.6628C111.854 63.2463 109.005 61.7851 108.39 60.5982C108.032 59.9082 107.844 58.9153 107.658 57.9336C107.516 57.1827 107.375 56.4378 107.16 55.8405ZM53.631 62.9334L41.8286 69.5963C40.9771 73.0826 40.4794 76.626 40.7027 80.2204L52.9565 69.572L53.631 62.9334ZM108.945 62.9333L120.43 69.2442H120.429C121.668 70.5495 122.24 78.2581 121.656 80.2192L109.619 69.5732L108.945 62.9333ZM43.8308 92.4372C43.469 92.8396 43.1393 93.2064 42.4862 93.0776L42.4874 93.0764C42.3278 92.3771 42.1543 91.6772 41.9804 90.9755C41.24 87.9876 40.4919 84.9689 40.7734 81.8427L52.7381 71.7979L53.4554 80.2337C51.9396 81.9141 50.5241 83.8749 49.1077 85.8368C47.475 88.0984 45.8411 90.3615 44.0513 92.1984C43.9747 92.277 43.9021 92.3578 43.8308 92.4372ZM120.883 89.8732C120.574 91.0987 120.267 92.3162 120.091 93.5196L118.765 92.8469L109.017 80.3394L109.839 71.7979L121.645 82.0018C122.207 84.6234 121.541 87.2667 120.883 89.8732ZM57.0883 91.4589L52.7345 100.169V100.168L51.8122 99.8839C50.3246 96.7644 48.2476 98.2663 46.2523 99.709C46.0371 99.8647 45.8228 100.02 45.6103 100.168L43.4669 95.1492L53.8568 82.0018L57.0883 91.4589ZM119.003 94.8639L117.368 99.2306V99.2318C116.471 99.1305 115.668 98.828 114.925 98.5481C113.111 97.8646 111.655 97.3161 110.058 100.164L105.556 91.5318L108.502 81.9969L119.003 94.8639ZM63.8038 102.269L62.1032 109.481C59.0599 107.85 56.6875 105.317 54.3504 102.821L54.3445 102.815C53.9819 102.428 53.6199 102.041 53.2566 101.659L57.6531 92.6368L63.8038 102.269ZM104.487 93.0834C104.432 94.5778 102.658 96.8602 101.082 98.888C99.8741 100.442 98.7827 101.846 98.6695 102.632C98.5475 103.479 100.103 108.889 100.716 109.028C102.595 108.234 108.603 103.377 108.873 101.624L104.487 93.0834ZM60.6455 112.206L55.4109 120.121V120.122L49.2053 115.849C49.6068 114.826 50.7911 113.759 52.0112 112.659C54.0197 110.848 56.1254 108.95 54.9961 107.022C54.9242 106.899 54.4525 106.505 53.7937 105.955C51.4016 103.958 46.5428 99.9017 49.4017 99.2876C50.4219 99.5915 51.003 100.543 51.5806 101.489C51.8732 101.968 52.165 102.446 52.5124 102.837C55.711 106.439 59.7537 109.955 64.038 112.218C64.4606 112.441 65.3768 112.824 66.4096 113.255C68.4176 114.094 70.8669 115.117 70.9877 115.51C71.1377 116.026 71.0755 116.498 70.5912 116.809C69.6052 117.442 67.6539 116.049 65.6608 114.626C63.7601 113.27 61.8215 111.886 60.6455 112.206ZM109.612 102.932C110.852 101.109 112.794 98.2513 113.846 99.2864C115.141 100.559 111.558 103.345 109.425 105.003C108.758 105.522 108.233 105.93 108.043 106.147C106.025 108.456 108.42 110.669 110.495 112.586C111.952 113.932 113.251 115.132 112.756 116.118L107.198 120.093C107.003 119.762 106.741 119.267 106.432 118.682L106.431 118.68C105.157 116.268 103.078 112.332 101.553 112.123C100.399 111.965 98.628 113.235 96.8582 114.504C95.4308 115.528 94.0043 116.551 92.9031 116.824C91.2562 117.233 91.0537 115.549 92.4639 114.604C93.0772 114.193 94.2796 113.737 95.5346 113.26C96.6784 112.826 97.8661 112.376 98.6914 111.927C101.891 110.192 106.305 106.872 108.725 104.167C108.927 103.94 109.238 103.484 109.612 102.932ZM115.731 101.811C115.227 103.074 109.94 110.468 108.498 109.035C107.589 108.131 110.525 105.582 112.656 103.732C113.527 102.976 114.263 102.336 114.548 101.974C114.761 101.702 114.942 101.206 115.09 100.803C115.225 100.434 115.331 100.143 115.408 100.173C116.181 100.754 116.112 100.914 115.854 101.517C115.816 101.605 115.775 101.702 115.731 101.811ZM50.8106 104.907C52.4954 106.16 55.057 108.066 54.0776 109.035C53.8824 109.03 53.679 109.041 53.4735 109.051C53.02 109.074 52.5561 109.098 52.1465 108.963C51.6402 108.798 47.5085 103.005 47.0339 102.07C46.9855 101.975 46.9272 101.88 46.8694 101.785C46.5995 101.346 46.3419 100.926 47.1669 100.616C47.2645 100.58 47.694 101.233 48.1891 101.986C48.6837 102.738 49.2439 103.59 49.6042 103.953C49.8179 104.168 50.269 104.504 50.8106 104.907ZM73.9412 116.106C73.7194 117.444 73.5006 118.765 73.7081 119.68L71.4744 119.676C71.4468 119.123 71.5818 118.459 71.722 117.77C71.9902 116.451 72.2773 115.039 71.4793 114.131C71.0732 113.669 69.6644 113.192 68.1024 112.663C66.1554 112.003 63.9703 111.263 63.1926 110.371L64.7907 103.719C66.1214 104.725 67.2812 105.928 68.4397 107.129C69.1407 107.856 69.8413 108.582 70.579 109.264C70.9021 109.563 71.5517 109.988 72.1957 110.409C72.984 110.924 73.7639 111.434 73.9264 111.7C74.5117 112.662 74.224 114.399 73.9412 116.106ZM88.1882 111.703L97.7887 104.162C97.7579 104.817 98.0843 105.778 98.4209 106.77C98.8971 108.172 99.3934 109.633 98.9269 110.371C98.4817 111.074 96.665 111.707 94.8856 112.328C93.3884 112.849 91.9177 113.362 91.3123 113.9C89.9234 115.134 90.287 116.337 90.6871 117.661C90.8798 118.299 91.081 118.964 91.0988 119.675L88.8921 119.654L88.1882 111.703ZM81.4812 116.13L87.0842 113.03V113.031L87.4819 120.074C86.8597 120.803 75.7062 120.791 75.0914 120.076L75.494 113.029L81.4812 116.13ZM62.1301 113.655L70.1374 118.786C67.9136 118.469 62.6022 117.104 61.0492 115.632C59.661 114.316 60.4259 113.099 62.1301 113.655ZM100.041 113.713C100.472 113.461 102.105 113.322 102.251 113.473H102.25C102.317 113.543 102.328 114.838 102.153 115.153C101.662 116.042 93.6082 119.182 91.9942 118.788L100.041 113.713ZM101.88 116.574C102.43 116.145 102.931 115.754 103.584 115.688L103.586 115.687C104.176 117.588 105.423 119.378 106.657 121.15C107.781 122.763 108.894 124.362 109.491 126.014C109.531 126.124 109.578 126.231 109.624 126.337L109.625 126.338C109.813 126.768 109.99 127.173 109.639 127.661C92.5895 137.829 69.5751 138.081 52.7869 127.361L53.0895 125.564L59.2548 116.161C72.2027 123.041 87.3501 123.959 100.637 117.406C101.115 117.171 101.509 116.864 101.88 116.574Z" fill="black"/>
<path fill-rule="evenodd" clip-rule="evenodd" d="M37.5711 23.0247L30.4396 22.5876V29.2384L23.7461 29.6792L24.1962 36.33L17.538 37.9439L18.8433 44.3081L12.6146 46.1102L14.3383 52.4441L8.58648 55.6426L11.6643 61.3875L5.9076 64.7111L9.40991 70.6248L5.06343 74.7681L5.22324 75.7784L8.88291 80.0018L5 84.8749L9.40625 89.3752L5.90394 95.2889L11.2922 98.2348L8.62796 104.393L14.3346 107.562L12.6109 113.89L18.8397 115.692L17.499 122.78L24.1938 123.67L23.7436 130.32L30.4372 130.762V137.411L37.5687 136.974L38.4689 143.62L44.8697 142.323L47.3705 148.315L53.6493 146.469L56.5843 152.019L62.7472 149.355L66.4032 154.645L71.7073 151.604L76.543 156L81.4274 152.098L86.0325 156L90.8694 151.604L96.1759 154.668L99.5965 149.399L105.991 152.018L109.21 146.31L115.631 148.496L117.398 142.479L124.105 143.621L125 136.967L132.137 137.411V130.762L139.272 130.316L138.379 123.672L145.075 122.782L143.732 115.692L149.949 113.637L148.225 107.541L153.96 104.339L151.37 98.7048L156.668 95.2865L153.17 89.3739L158 84.8761L153.562 79.9994L158 75.1227L153.17 70.6248L156.669 64.7111L151.369 61.2952L153.966 55.6608L148.238 52.4453L149.963 46.1114L143.733 44.3093L145.076 37.2189L138.381 36.3288L139.273 29.6841L132.138 29.2384V22.5888L125.001 23.0332L124.107 16.38L117.4 17.5214L115.631 11.5033L109.21 13.6891L105.975 7.9939L99.5965 10.5998L96.1759 5.33089L90.8718 8.73949L86.0325 4L81.4372 7.88218L76.543 4L71.7085 8.39462L66.4032 5.33211L62.7387 10.652L56.3452 7.98661L54.0762 13.7218L46.946 11.5033L45.5968 17.7048L38.4714 16.3788L37.5711 23.0247ZM80.8419 9.50937V19.0406C79.8379 18.131 78.0678 15.0795 77.819 13.8433C77.586 12.6909 77.2627 8.9945 77.2566 7.74618C77.2479 5.63206 78.6133 7.15539 79.7301 8.4012C80.1739 8.89636 80.5785 9.34773 80.8419 9.50937ZM90.1045 10.0024L88.8663 19.4826V19.4838C88.3652 19.4742 88.1105 18.6983 87.9176 18.1104C87.8658 17.9527 87.8185 17.8085 87.7721 17.6963C86.1691 13.8287 86.5156 10.6873 87.0902 6.629L90.1045 10.0024ZM68.5673 7.96475C68.7662 8.02183 71.2584 9.71459 71.3499 9.85545V9.85666C71.8852 10.6799 72.056 13.0227 72.2228 15.3126C72.3575 17.1606 72.4896 18.9742 72.8089 19.927L69.1504 14.924C69.03 14.3256 68.8727 13.679 68.7115 13.0161C68.3815 11.6587 68.0349 10.2333 67.9537 9.01514C67.9481 8.93048 67.9326 8.8337 67.9165 8.73339C67.8424 8.27118 67.7564 7.73426 68.5673 7.96475ZM96.4962 8.62738C96.5383 8.34338 96.5445 8.30153 97.3372 8.40434L99.1256 12.1202L96.6785 20.8123C94.6999 17.1207 95.0365 12.8269 96.4053 9.01393C96.4627 8.85329 96.4816 8.7258 96.4962 8.62738ZM64.7793 21.2568C64.643 20.752 64.4799 19.9778 64.2908 19.0802C63.71 16.3227 62.884 12.4013 61.836 11.5531C61.5115 11.2908 58.7301 9.98174 58.5423 10.1772C59.2802 14.5737 61.0706 18.5805 64.7793 21.2568ZM106.364 18.6127C105.479 20.3207 104.541 22.129 104.476 23.4716L103.645 20.539C103.094 17.8083 104.109 15.3766 105.121 12.9524C105.445 12.1771 105.768 11.4026 106.04 10.6193C106.525 11.4292 108.011 14.0254 107.949 14.754C107.867 15.7153 107.135 17.1259 106.364 18.6127ZM56.9832 23.91C52.9405 21.3684 50.9314 18.2683 49.6212 13.7243C54.0698 13.8377 55.2873 18.0977 56.3461 21.8024C56.5567 22.5392 56.761 23.2541 56.9832 23.91ZM115.994 19.1644L111.177 27.0211L111.176 27.0223C111.271 26.2571 111.305 25.3071 111.34 24.3299C111.393 22.8523 111.448 21.3125 111.722 20.2549C111.836 19.8189 114.878 14.3739 115.181 14.6095L115.994 19.1644ZM76.8321 15.0527C77.2908 14.6945 79.7708 19.6866 79.5012 19.9258V19.927L75.045 20.3702L76.8321 15.0527ZM85.3079 15.0527C85.9288 14.5816 87.4512 19.7643 87.5305 20.369L83.0743 19.9258L85.3079 15.0527ZM68.3575 15.938C69.1407 16.329 71.8488 20.4443 71.4755 20.8123L67.4633 21.2555L68.3575 15.938ZM94.0021 16.3836C94.5474 17.0224 95.4647 20.907 95.1134 21.2567L91.0999 20.8123C90.5912 20.3095 93.4348 16.9701 94.0021 16.3836ZM43.3975 18.626C44.3417 18.835 45.4109 19.0717 45.5053 19.1389C45.8956 19.4158 49.4345 26.3326 49.8469 27.4558C49.2251 27.011 48.5066 26.627 47.7827 26.2401C46.7498 25.6881 45.7058 25.1301 44.9161 24.3811C44.3452 23.8396 41.332 19.4036 41.1503 18.8111C40.8965 17.982 41.3633 18.118 41.8654 18.2644C41.9376 18.2854 42.0106 18.3067 42.0823 18.3253C42.3262 18.3888 42.8405 18.5027 43.3975 18.626ZM59.8805 18.601C60.3428 18.0825 64.3831 22.0472 63.8915 22.5852L59.8805 23.474V18.601ZM98.684 22.5827C98.39 22.2039 102.14 17.9465 102.695 18.5998V23.4728L98.684 22.5827ZM122.787 19.7345C122.865 19.4836 122.921 19.3044 123.66 19.4874C123.461 20.2143 123.663 21.0042 123.854 21.7476C123.99 22.2798 124.121 22.7881 124.093 23.2324C124.035 24.1824 120.867 28.0368 119.687 29.4734L119.47 29.7375C119.351 29.8817 119.306 30.0431 119.265 30.1888C119.173 30.5119 119.104 30.7577 118.312 30.5669C117.985 26.2063 120.126 23.2676 122.641 20.046C122.722 19.9429 122.756 19.8331 122.787 19.7345ZM52.3001 21.7011L56.3074 24.369C56.9979 25.3562 52.5001 27.2421 52.2976 27.0186L52.3001 21.7011ZM110.059 21.7036L110.278 27.0186L106.274 25.0259L110.059 21.7036ZM81.1774 22.3022C113.287 22.3022 139.317 48.1745 139.317 80.0893C139.317 112.004 113.287 137.876 81.1774 137.876C49.0674 137.876 23.0373 112.004 23.0373 80.0893C23.0373 48.1745 49.0674 22.3022 81.1774 22.3022ZM36.2597 24.1934C36.8112 24.3065 37.3633 24.4197 37.9151 24.471L43.3717 31.8941C42.9555 31.7362 42.4744 31.5732 41.9654 31.4007C40.4199 30.877 38.6169 30.2661 37.5918 29.4448C37.2186 29.1461 33.6882 24.8681 33.565 24.5779C33.2202 23.7638 34.0766 23.8578 34.5623 23.9111C34.599 23.9152 34.6336 23.919 34.6653 23.9221C35.1956 23.9752 35.7274 24.0842 36.2597 24.1934ZM44.7221 25.9075C45.6273 26.0059 49.7322 28.4309 49.1698 29.2299L45.6065 31.0089L44.7221 25.9075ZM130.214 26.0545C130.462 25.7834 130.678 25.5478 131.242 25.6938V25.695C132.059 29.2641 129.629 31.3863 127.172 33.5313C126.151 34.4231 125.125 35.3188 124.326 36.324C124.863 32.1066 126.516 28.9385 129.903 26.3544C130.025 26.2614 130.122 26.1555 130.214 26.0545ZM113.403 29.0126C113.207 28.2245 117.356 25.6865 117.862 26.1383L116.968 31.0125L113.403 29.0126ZM35.0554 34.954C35.7293 35.7328 36.4061 36.515 37.1295 37.2141C32.5086 36.7065 29.1331 34.1673 26.425 30.573C30.4503 29.6319 32.735 32.2723 35.0554 34.954ZM39.3642 35.8861L42.9203 33.4497L38.0249 31.0138L39.3642 35.8861ZM118.086 31.0113V31.4545C118.375 31.3064 118.375 31.1595 118.086 31.0113ZM119.655 33.4497L124.552 31.0138C124.306 31.8006 124.087 32.6063 123.868 33.4117C123.66 34.1737 123.453 34.9354 123.223 35.6804C123.177 35.8314 123.189 35.965 123.199 36.0731C123.221 36.3145 123.231 36.4291 122.552 36.3276L119.655 33.4497ZM129.679 42.5291C130.6 38.2754 133.356 34.443 137.486 32.7867C137.429 33.209 137.465 33.7375 137.502 34.2838C137.564 35.203 137.629 36.1727 137.263 36.7721C136.901 37.3653 135.39 38.357 133.791 39.4058C132.095 40.5187 130.301 41.6958 129.679 42.5291ZM32.2255 37.2201L37.1283 38.5535C36.9445 38.744 36.6923 39.1108 36.4058 39.5277C35.7242 40.5193 34.8483 41.7936 34.2359 41.65L32.2255 37.2201ZM126.007 38.4527C126.594 38.1564 130.091 36.9724 130.35 37.2201C130.528 37.3889 128.849 41.5346 128.336 41.6524L125.448 39.2068C125.337 38.5926 125.452 38.5763 125.678 38.5442C125.771 38.5309 125.884 38.5149 126.007 38.4527ZM29.7533 41.377C30.5727 42.1015 31.3866 42.821 32.2231 43.4205C27.7119 43.4545 24.589 41.7666 21.1892 39.1181C21.0869 39.0383 20.977 39.0049 20.8777 38.9747C20.6266 38.8983 20.4437 38.8427 20.6256 38.109C24.3714 36.6188 27.0917 39.0239 29.7533 41.377ZM134.369 48.7428C135.835 44.5036 139.108 41.7896 143.286 40.3239C143.248 41.6269 143.054 43.3245 142.209 44.347L134.369 48.7428ZM29.332 47.8564L26.8714 43.8722H26.8727L26.896 43.873C27.9213 43.9096 32.0257 44.0561 31.7437 45.3731C31.5729 45.5397 31.3641 45.8568 31.131 46.2106C30.6017 47.0143 29.9477 48.0073 29.332 47.8564ZM130.356 44.9711L135.703 43.8697L132.806 48.2923L130.356 44.9711ZM23.7926 47.5985C25.026 48.3691 26.3002 49.1653 27.7595 49.6366C27.84 50.2224 27.215 50.1584 26.6731 50.1029C26.5007 50.0852 26.3367 50.0684 26.2066 50.0737C22.4176 50.2243 19.3215 49.4763 16.2828 47.0986C16.1804 47.0184 16.0705 46.9847 15.9712 46.9542C15.7201 46.8771 15.5374 46.821 15.7192 46.0883C19.018 44.6153 21.3235 46.0558 23.7926 47.5985ZM147.976 48.3105L146.749 52.6286H146.75L137.935 55.8332C137.71 55.645 141.27 51.4107 141.536 51.2152C142.252 50.6881 143.486 50.2267 144.737 49.7585C145.951 49.3044 147.183 48.8438 147.976 48.3105ZM22.858 50.9638L27.7607 51.407C27.9889 51.6062 26.7775 53.951 26.5213 54.387C26.4811 54.4555 26.4605 54.5458 26.4397 54.6371C26.3789 54.9031 26.3162 55.1776 25.7613 54.948C25.2002 54.7161 22.181 51.6098 22.858 50.9638ZM134.811 51.407L139.717 50.9638C140.269 51.4896 137.76 54.404 137.239 54.9237C137.167 54.9953 137.108 55.0629 137.055 55.1243C136.835 55.3775 136.708 55.5236 136.158 55.3936L134.811 51.407ZM20.0835 55.3782C21.6946 56.1804 23.3478 57.0037 24.6378 57.1738L18.2932 57.9753C17.3164 57.6032 16.3185 57.2673 15.321 56.9315C14.3166 56.5934 13.312 56.2552 12.3303 55.8806C10.2004 55.067 14.8018 53.6147 15.8363 53.713C16.9538 53.8196 18.4983 54.5887 20.0835 55.3782ZM151.544 57.1775C151.46 58.0251 150.355 60.5776 149.867 61.0451C148.991 61.8851 144.342 62.7065 141.806 63.1545L141.805 63.1547C141.313 63.2415 140.901 63.3143 140.612 63.3705C143.392 59.526 147.197 58.427 151.544 57.1775ZM19.291 59.1605L24.639 58.4999L23.2984 62.4865C22.8094 62.8419 21.4315 61.3684 20.388 60.2525C19.9164 59.7482 19.5131 59.3169 19.291 59.1605ZM137.936 58.4999L143.287 58.9455C142.729 59.7798 139.728 63.2551 138.831 62.4889L137.936 58.4999ZM18.0316 63.6944C19.3297 64.1134 20.6447 64.5378 21.9614 64.7099C22.044 65.2124 21.5415 65.2575 21.0709 65.2998C20.9091 65.3143 20.7511 65.3285 20.6219 65.3608C16.3096 66.4391 13.1916 66.4403 9.03784 64.4828C11.7872 61.6788 14.8591 62.6703 18.0316 63.6944ZM19.748 66.4938C20.5025 66.3711 21.2641 66.2472 21.9614 66.0359L21.5137 70.025C21.2063 70.2812 17.2282 67.9886 17.0611 67.7991C16.5086 67.1717 16.9615 67.0738 17.4258 66.9735C17.5213 66.9528 17.6173 66.9321 17.7052 66.9066C18.3407 66.7228 19.0412 66.6088 19.748 66.4938ZM140.168 66.0372L145.517 66.9236H145.518C145.699 67.659 145.52 67.7142 145.268 67.7916C145.169 67.8221 145.059 67.8561 144.954 67.9364C144.263 68.4707 142.789 69.5575 142.085 69.9412C141.96 70.0095 141.852 70.0883 141.753 70.1603C141.427 70.397 141.202 70.5606 140.823 70.0383L140.168 66.0372ZM153.139 66.6109C153.421 66.5676 153.705 66.524 153.99 66.4792L151.464 70.3917L142.396 71.3498C145.242 67.8234 149.002 67.2461 153.139 66.6109ZM11.0592 71.3401L20.6232 72.6904L14.5676 74.864L7.69352 74.456C7.11651 73.9642 10.4602 71.5052 11.0592 71.3401ZM16.7329 75.2405C17.3209 74.9515 20.8196 73.7687 21.0696 74.0164L20.6232 78.0018L16.1669 76.2241C16.0427 75.4841 16.0946 75.4676 16.3846 75.3756C16.4763 75.3465 16.5917 75.3099 16.7329 75.2405ZM141.506 74.0152L146.411 75.3486V75.3473C146.571 76.0964 146.425 76.1348 146.17 76.2018C146.071 76.2278 145.956 76.2581 145.835 76.3358C145.238 76.722 141.862 78.3649 141.506 78.0018V74.0152ZM147.971 76.2314H154.884L154.881 76.8907C154.678 77.0464 154.184 77.5717 153.691 78.0957C153.108 78.7163 152.526 79.3352 152.431 79.3352H142.842L147.971 76.2314ZM10.1443 80.6648H19.7338C20.0705 80.9393 14.908 83.7687 14.6042 83.7687H7.69108L7.69474 83.1093C7.89804 82.9536 8.39207 82.4281 8.88475 81.904C9.46816 81.2834 10.0497 80.6648 10.1443 80.6648ZM16.7415 83.663C17.1684 83.3861 20.445 81.7905 20.6244 81.9969V81.9982L21.0709 85.9836L16.1657 84.6515C16.0057 83.9024 16.1517 83.864 16.4069 83.797C16.5058 83.771 16.6212 83.7407 16.7415 83.663ZM141.506 81.9957L146.409 83.7747V83.7735C146.533 84.5159 146.466 84.5371 146.178 84.6279C146.088 84.6562 145.976 84.6913 145.843 84.7571C145.259 85.0449 141.743 86.2301 141.506 85.9823V81.9957ZM154.543 85.5136L154.882 85.5428C153.391 89.4942 148.991 88.6437 145.405 87.9507C145.061 87.8843 144.725 87.8193 144.399 87.7601C144.203 87.7243 144.004 87.72 143.808 87.7158C143.286 87.7045 142.782 87.6936 142.398 87.0898C146.558 84.8258 150.05 85.1266 154.543 85.5136ZM17.2609 88.9501C18.4192 88.8885 19.5684 88.8274 20.6244 88.649H20.6256L15.5228 92.2167L8.58648 93.5196C9.69007 89.3526 13.5231 89.1488 17.2609 88.9501ZM141.063 89.533L145.514 92.1997C146.069 92.8267 145.614 92.9249 145.15 93.0251C145.054 93.0458 144.958 93.0666 144.87 93.0922C143.931 93.3647 142.851 93.5308 141.8 93.6925L141.799 93.6927C141.238 93.7788 140.686 93.8637 140.168 93.9629L141.063 89.533ZM17.6234 92.0637C18.098 91.6933 21.155 89.6496 21.5149 89.9738L21.9614 93.9629L17.0586 93.0752C16.8751 92.3391 17.0598 92.2832 17.3117 92.207C17.4113 92.1768 17.5214 92.1435 17.6234 92.0637ZM144.544 96.3044C143.246 95.8854 141.931 95.461 140.614 95.2889L147.014 93.6751L153.538 95.516C150.788 98.32 147.716 97.3285 144.544 96.3044ZM21.9636 96.6286L12.8951 98.8056L10.8225 102.614C15.3128 101.908 19.3188 100.507 21.9636 96.6286ZM19.2886 101.053C19.7497 100.342 22.6604 97.0472 23.2972 97.5123H23.2984L24.195 101.499L19.2886 101.053ZM139.503 97.5111C140.187 97.3581 142.777 100.325 143.287 101.053L137.936 101.498L139.503 97.5111ZM144.299 102.039C144.989 102.096 151.335 104.438 150.87 105.042H150.869C150.252 105.035 149.671 105.386 149.114 105.722C148.683 105.983 148.267 106.234 147.86 106.304C146.679 106.507 141.105 104.187 139.727 103.488C139.624 103.436 139.513 103.388 139.4 103.339C138.949 103.145 138.47 102.94 138.382 102.391C139.44 102.641 140.728 102.439 141.932 102.251C142.806 102.114 143.635 101.984 144.299 102.039ZM22.2631 104.948C23.0648 104.699 23.8679 104.449 24.6403 104.166C22.5054 108.518 18.7421 110.149 14.3834 111.696C14.9076 107.231 18.572 106.094 22.2631 104.948ZM136.122 104.877L137.035 104.608L140.165 109.034L134.811 108.592L136.122 104.877ZM22.4103 109.033C22.6396 108.332 25.7382 104.407 26.4213 105.047L27.7632 108.589L22.4103 109.033ZM140.735 110.025C141.231 110.125 146.629 112.78 146.853 113.036V113.037C147.379 113.641 146.958 113.752 146.535 113.864C146.429 113.892 146.323 113.92 146.232 113.955C145.521 114.236 143.846 114.824 143.167 114.722L134.816 109.93C135.605 109.992 136.447 109.954 137.295 109.915C138.476 109.862 139.667 109.808 140.735 110.025ZM28.1999 111.471C26.5848 115.481 23.4265 118.393 19.291 119.676V119.675C19.1019 119.472 19.557 117.288 19.7448 116.805C20.5317 114.783 25.6363 112.578 27.9537 111.577L28.1999 111.471ZM132.806 111.706L135.703 116.129L130.798 115.686C130.232 115.171 132.235 112.23 132.806 111.706ZM29.1087 112.144C29.97 111.532 32.3183 115.178 31.7766 115.686L26.8702 116.127L29.1087 112.144ZM130.352 116.578C135.212 116.533 138.999 118.655 142.395 121.89C138.236 123.384 135.558 121.035 132.754 118.575C131.975 117.891 131.186 117.199 130.352 116.578ZM32.8928 117.461V117.904C33.1819 117.756 33.1819 117.609 32.8928 117.461ZM31.2247 118.965C31.651 118.614 32.0712 118.268 32.6671 118.35C31.6144 122.818 28.7159 125.166 25.0916 127.658C24.1236 123.641 27.0845 121.715 30.0636 119.778L30.0649 119.777C30.2949 119.627 30.5259 119.477 30.7543 119.326C30.9173 119.219 31.0717 119.091 31.2247 118.965ZM36.683 121.222C36.5452 121.797 32.4866 123.024 32.2255 122.779V122.777L34.2286 118.349L36.683 121.222ZM130.35 122.778L128.336 118.345L125.457 121.232L130.35 122.778ZM125.446 122.786C130.183 123.301 133.383 125.754 136.151 129.427C132.125 130.368 129.841 127.728 127.52 125.046C126.846 124.267 126.169 123.485 125.446 122.786ZM31.7826 134.307C35.555 131.579 37.7468 128.382 38.2494 123.676C37.7834 124.305 36.7652 125.234 35.6485 126.254C33.6395 128.087 31.3117 130.212 31.307 131.403L31.7826 134.307ZM39.3631 124.112C39.8743 123.655 42.9167 126.617 42.4812 127.208L38.0237 128.985L39.3631 124.112ZM119.655 126.549C120.098 125.987 122.683 123.729 123.21 124.112L124.552 128.985L119.655 126.549ZM119.205 128.105C124.129 129.109 126.761 132.163 129.461 136.077L124.679 135.513L119.205 128.105ZM43.4742 135.07C43.2277 135.708 39.5949 140.822 38.9166 140.068V140.067C39.0822 139.442 38.9283 138.751 38.7778 138.076C38.6212 137.373 38.4684 136.688 38.6836 136.111C39.1284 134.919 40.738 133.139 42.2391 131.478C43.2331 130.378 44.1795 129.332 44.7087 128.543C44.4683 129.409 44.3365 130.428 44.204 131.452C44.036 132.75 43.867 134.057 43.4742 135.07ZM114.035 130.595C114.623 130.18 116.676 128.727 116.968 128.989H116.969L117.859 134.307L113.407 131.42C113.266 130.817 113.441 130.786 113.667 130.747C113.764 130.73 113.87 130.712 113.964 130.645L114.035 130.595ZM44.9307 134.299L45.609 129.431C46.236 128.902 48.6807 130.814 49.165 131.426L44.9307 134.299ZM112.729 132.543C116.837 134.369 120.022 137.506 121.429 141.842C121.015 141.732 120.579 141.658 120.14 141.583C118.976 141.385 117.793 141.184 116.96 140.303L112.729 132.543ZM51.3986 132.979C51.7792 137.63 50.5337 141.961 47.3937 145.389V145.388L46.5959 140.847L51.3986 132.979ZM52.2976 133.423L56.3086 134.758V134.759L56.0244 135.676L52.3001 138.299L52.2976 133.423ZM106.267 134.755L110.278 133.422L110.059 138.294L106.267 134.755ZM105.592 136.089C109.546 138.536 111.786 141.794 112.954 146.275C108.62 146.155 107.417 142.089 106.339 138.445C106.095 137.621 105.858 136.819 105.592 136.089ZM58.5349 136.526C59.828 141.313 58.4276 145.013 56.7502 149.377H56.749C56.1744 149.111 55.323 147.256 55.179 146.735C54.9985 146.075 54.8326 145.457 54.9814 144.766L58.5349 136.526ZM59.8805 136.526L63.4474 137.415C64.2148 138.296 60.3355 141.909 59.8805 141.399V136.526ZM98.684 137.415L102.695 136.526H102.696C102.669 137.104 102.687 137.689 102.706 138.275C102.727 138.953 102.748 139.632 102.699 140.3C102.691 140.4 102.698 140.521 102.704 140.647C102.729 141.134 102.758 141.699 102.035 141.398C101.582 141.21 98.2827 137.854 98.684 137.415ZM71.4646 139.847L68.3575 144.061L67.4633 138.743C67.5466 138.755 67.6636 138.77 67.8055 138.788C68.8915 138.926 71.4333 139.25 71.4646 139.847ZM91.1024 139.187L95.1122 138.743V138.742C95.4659 139.12 94.5522 142.941 94.0021 143.615C93.3384 143.225 90.6156 139.632 91.1024 139.187ZM97.7959 138.741C101.626 141.391 103.29 145.356 104.033 149.822C99.9491 149.274 99.3187 145.873 98.6808 142.431C98.4451 141.159 98.2083 139.882 97.7959 138.741ZM65.7211 139.853C65.7573 139.576 65.7636 139.527 66.5655 139.626H66.5667C67.7732 144.139 67.3901 147.666 65.9019 152.039L63.4865 148.294C63.8364 147.172 64.1166 145.964 64.3979 144.752C64.7578 143.2 65.1195 141.641 65.631 140.247C65.691 140.083 65.708 139.953 65.7211 139.853ZM75.4878 140.073H79.5012L77.0504 144.939C76.5003 144.946 75.134 140.43 75.4878 140.073ZM83.0743 140.073H87.0877C87.4415 140.43 86.0752 144.947 85.525 144.939L83.0743 140.073ZM89.7666 140.071C93.0384 143.253 94.662 147.496 94.6669 152.039C94.4912 152.236 91.3061 150.333 91.2048 150.165C90.7177 149.36 90.5665 147.179 90.4147 144.988C90.2791 143.032 90.143 141.068 89.7666 140.071ZM73.7104 140.515C76.7113 144.264 76.2624 148.9 75.4853 153.371C72.1288 151.164 72.6883 147.976 73.265 144.69C73.5102 143.294 73.7584 141.879 73.7104 140.515ZM81.7336 150.488V140.956C84.8761 144.39 85.7641 148.787 85.2994 153.367C84.9017 153.813 81.7336 150.719 81.7336 150.488Z" fill="black"/>
<path fill-rule="evenodd" clip-rule="evenodd" d="M37.8186 63.9276C35.2922 67.1055 31.2336 64.536 32.1168 60.6975C32.9939 56.8858 40.0913 58.3514 38.6225 63.1978C38.5058 63.583 38.2274 63.7106 38.0249 63.8034C37.9332 63.8455 37.857 63.8803 37.8186 63.9288V63.9276ZM37.8186 63.9276C38.0982 62.4272 37.1263 61.558 36.1308 60.6676C35.784 60.3574 35.4343 60.0446 35.1336 59.7018C34.3041 59.1893 33.6283 59.6957 33.1086 60.3891C33.0196 62.6902 35.5582 64.4898 37.8186 63.9276Z" fill="black"/>
</svg>
