<svg width="135" height="202" viewBox="0 0 135 202" fill="none" xmlns="http://www.w3.org/2000/svg">
<g clip-path="url(#clip0_147_5412)">
<path d="M61.1606 9.55701C60.9558 9.33324 61.0675 8.96961 61.3654 8.91367L64.3629 8.32627C64.4746 8.30762 64.577 8.23303 64.6235 8.13047L66.0758 5.44522C66.2247 5.17483 66.6064 5.17483 66.746 5.44522L68.2262 8.11182C68.282 8.21438 68.3751 8.27965 68.4961 8.30762L71.4936 8.85773C71.7915 8.91367 71.9125 9.2773 71.7077 9.50107L69.6318 11.7388C69.5574 11.8227 69.5201 11.9346 69.5294 12.0558L69.9297 15.086C69.9669 15.3844 69.6597 15.6175 69.3898 15.4869L66.625 14.2003C66.5226 14.1536 66.4016 14.1536 66.2992 14.2003L63.5437 15.5149C63.2737 15.6454 62.9572 15.4217 62.9945 15.1233L63.3575 12.0931C63.3668 11.9812 63.3296 11.8693 63.2551 11.7854L61.1513 9.56633L61.1606 9.55701ZM27.9645 98.5153C27.769 97.6669 27.0894 97.0888 26.1306 96.9303C26.6146 95.8953 27.3314 93.8255 26.3261 92.287C25.4789 90.991 23.7661 91.308 22.9283 91.5691C22.6676 90.9071 22.0532 89.6764 21.0106 89.117C20.3217 88.7533 19.5863 88.7347 18.8043 89.0703C18.0224 89.406 17.5011 89.9654 17.2497 90.73C16.8681 91.9048 17.2497 93.2381 17.5011 93.9001C16.7284 94.3383 15.2948 95.3639 15.5369 96.9116C15.8348 98.7578 17.7152 99.7088 18.7485 100.091C18.1713 100.912 18.0689 101.825 18.4878 102.581C19.0743 103.643 20.4334 104.044 21.1688 104.259C21.1875 104.259 21.2061 104.268 21.2154 104.277C21.1968 104.669 23.1796 108.51 25.8048 107.392C28.4299 106.263 27.4059 102.002 27.1453 101.741C27.1453 101.723 27.1639 101.713 27.1732 101.695C27.5549 101.005 28.2624 99.7274 27.9831 98.5247L27.9645 98.5153ZM59.8573 59.5419L59.7828 45.8172L63.2086 45.7986C63.2086 45.7986 63.1713 38.7312 63.162 37.1648C63.1527 35.1695 65.8244 34.7779 65.8244 34.7779L65.2286 31.9901L66.2992 18.4706C66.2992 18.3587 66.3923 18.2934 66.4854 18.2934C66.5784 18.2934 66.6622 18.3493 66.6715 18.4706L67.891 31.9807L67.3325 34.7779C67.3325 34.7779 70.0135 35.1415 70.0228 37.1368C70.0228 38.7032 70.0693 45.7706 70.0693 45.7706L73.4951 45.752L73.5695 59.4766L80.4396 62.8705L80.5327 80.0263L97.6614 79.933L101.069 76.4832L101.031 69.6209L104.438 66.1711L107.864 66.1524L111.308 69.565L111.402 85.462C111.299 85.5086 111.206 85.5553 111.104 85.6112C110.219 86.096 109.521 86.758 108.972 87.4666C107.119 87.5972 105.528 88.5109 104.569 90.0027C103.638 91.4572 103.331 93.1915 103.656 95.0749C103.117 95.7182 102.735 96.4921 102.539 97.3592C102.381 98.0491 102.372 98.7111 102.437 99.3358C102.018 99.168 101.599 99.0468 101.162 98.9722L101.096 86.7487L97.6707 86.7674L97.7452 99.4291C96.9353 99.802 96.2557 100.324 95.6972 100.893C95.5762 100.893 95.4552 100.893 95.3341 100.893C94.9897 100.893 94.6546 100.93 94.3288 100.986L94.245 86.786L90.8192 86.8046L90.9123 103.037C89.9628 104.259 89.488 105.769 89.5067 107.466L77.2653 107.531L77.1908 93.8068L77.1722 90.3757L73.7464 90.3943L70.2183 90.413H70.2369C70.2369 90.413 72.0056 89.4153 73.281 85.1637C73.4113 84.7348 73.0017 84.3338 72.5828 84.4924C70.1438 85.3968 66.8484 82.8607 66.8484 82.8607C66.8484 82.8607 63.5809 85.4341 61.1326 84.5576C60.7137 84.4084 60.3041 84.8094 60.4438 85.2383C61.7657 89.4713 63.5437 90.4503 63.5437 90.4503H63.5623L60.0342 90.4689L56.6084 90.4876L56.6271 93.9187L56.7015 107.643L44.4601 107.709C44.4601 106.012 43.9667 104.511 42.9986 103.298L42.9055 87.0657L39.4798 87.0844L39.5636 101.285C39.2377 101.229 38.9026 101.201 38.5582 101.21C38.4372 101.21 38.3161 101.21 38.1951 101.219C37.6273 100.65 36.9384 100.138 36.1285 99.774L36.054 87.1123L32.6283 87.131L32.6935 99.3545C32.2652 99.4291 31.837 99.5596 31.4274 99.7368C31.4833 99.1121 31.4647 98.4501 31.3064 97.7601C31.1016 96.9023 30.7106 96.1284 30.1614 95.4944C30.4593 93.611 30.1335 91.8768 29.1933 90.4316C28.2158 88.9491 26.624 88.0634 24.7621 87.9515C24.2129 87.2522 23.5054 86.5995 22.6118 86.124C22.5094 86.0681 22.4163 86.0215 22.3139 85.9748L22.2208 70.0778L25.6279 66.628L29.0536 66.6093L32.498 70.0218L32.5352 76.8841L35.9796 80.2966L53.1082 80.2034L53.0151 63.0476L59.848 59.5792L59.8573 59.5419ZM29.817 75.7187C29.817 74.3574 28.6999 73.2665 27.3501 73.2758C25.9909 73.2758 24.9018 74.3947 24.9111 75.7466C24.9111 77.1079 26.0282 78.1988 27.378 78.1895C28.7371 78.1895 29.8263 77.0706 29.817 75.7187ZM49.8687 104.147L49.7756 87.0005L46.3499 87.0191L46.4429 104.166L49.8687 104.147ZM103.787 75.3084C103.787 76.6697 104.904 77.7606 106.254 77.7512C107.613 77.7512 108.702 76.6324 108.693 75.2804C108.693 73.9192 107.576 72.8283 106.226 72.8376C104.867 72.8376 103.777 73.9565 103.787 75.3084ZM83.9678 86.8046L84.0609 103.951L87.4866 103.932L87.3935 86.786L83.9678 86.8046ZM70.1811 66.2737L70.2555 80.0076L73.6813 79.989L73.6068 66.255L70.1811 66.2737ZM63.674 52.605C63.7764 54.0315 64.5304 55.0944 65.2193 55.7844C65.5824 56.148 65.331 56.7634 64.8283 56.7634H63.6926L63.7113 59.7377L69.6411 59.7004L69.6225 56.7354H68.4868C67.9748 56.7354 67.7235 56.1294 68.0772 55.7657C68.7568 55.0665 69.5015 53.9942 69.5853 52.5677C69.7249 50.2461 68.4961 49.8358 67.8072 49.7053C67.1184 49.5747 67.6955 50.5164 68.161 50.9267C68.6171 51.3369 67.3976 51.4861 66.625 51.4954C65.8523 51.4954 64.6329 51.3649 65.089 50.9453C65.5451 50.5258 66.113 49.5747 65.4241 49.7146C64.7353 49.8545 63.5158 50.2833 63.674 52.5956V52.605ZM59.8945 66.3296L59.969 80.0636L63.3947 80.0449L63.3203 66.311L59.8945 66.3296ZM93.1093 9.31459C93.854 11.2353 94.9431 12.839 95.9671 14.0697C96.9911 15.3005 97.9779 16.1583 98.4899 16.5778C98.6482 16.7084 98.9181 16.5965 98.9461 16.3914C99.0391 15.72 99.1788 14.4147 99.1043 12.7924C99.0298 11.17 98.7506 9.24 98.0058 7.3193C97.2611 5.3986 96.172 3.7949 95.1479 2.56416C94.1146 1.33342 93.1372 0.475634 92.6252 0.0560631C92.4669 -0.07447 92.197 0.0374155 92.1691 0.242539C92.076 0.913852 91.9363 2.21918 92.0108 3.84152C92.0853 5.46386 92.3645 7.39389 93.1093 9.31459ZM56.7201 111.037L77.2839 110.925L73.8395 107.513L73.7371 93.8721L70.3393 93.8907L70.4138 107.531L63.5623 107.569L63.4878 93.928L60.09 93.9467L60.1645 107.587H60.1366L56.7295 111.037H56.7201ZM83.4651 11.3192C87.347 13.0907 91.2661 13.156 92.6066 13.1187C92.8114 13.1187 92.9138 12.867 92.7834 12.7085C91.9177 11.6642 89.246 8.72719 85.3641 6.95567C81.4822 5.18415 77.5631 5.11888 76.2226 5.15618C76.0178 5.15618 75.9154 5.40792 76.0458 5.56643C76.9115 6.61069 79.5832 9.54769 83.4651 11.3192ZM93.1186 16.5592C91.1544 16.1023 89.246 16.1116 87.6728 16.2888C86.0995 16.4659 84.8614 16.8016 84.2284 17.0067C84.0329 17.0627 83.9678 17.361 84.1167 17.5009C84.6008 17.9578 85.5782 18.8155 86.928 19.6733C88.2779 20.5311 89.9907 21.3889 91.9549 21.8364C93.9192 22.2933 95.8275 22.284 97.4007 22.1068C98.974 21.9297 100.212 21.594 100.845 21.3889C101.041 21.333 101.106 21.0346 100.957 20.8947C100.473 20.4379 99.4953 19.5801 98.1455 18.7223C96.7957 17.8645 95.0828 17.0067 93.1186 16.5592ZM124.686 70.8703C124.648 70.1524 124.537 68.7631 124.136 67.0941C123.736 65.4252 123.066 63.4765 121.911 61.6304C120.757 59.7936 119.305 58.3484 117.992 57.2855C116.671 56.2226 115.488 55.5326 114.865 55.2063C114.678 55.1037 114.408 55.2809 114.427 55.4953C114.464 56.2133 114.576 57.6025 114.976 59.2715C115.377 60.9404 116.047 62.8891 117.201 64.7352C118.355 66.572 119.808 68.0172 121.12 69.0801C122.442 70.143 123.624 70.833 124.248 71.1593C124.434 71.2619 124.704 71.0847 124.686 70.8703ZM114.297 50.7589C115.814 52.1201 117.508 53.0432 118.988 53.6586C120.459 54.2739 121.716 54.5816 122.368 54.7122C122.563 54.7494 122.759 54.5257 122.693 54.3299C122.479 53.6865 122.014 52.4558 121.223 51.0386C120.431 49.6214 119.314 48.027 117.788 46.6564C116.27 45.2951 114.576 44.3721 113.096 43.7567C111.625 43.1413 110.368 42.8336 109.717 42.7031C109.521 42.6658 109.326 42.8896 109.391 43.0854C109.605 43.7287 110.07 44.9595 110.862 46.3767C111.653 47.7939 112.77 49.3883 114.297 50.7589ZM120.683 88.9491C120.925 88.2405 121.334 86.8513 121.595 85.0798C121.846 83.3082 121.939 81.1451 121.521 78.9167C121.111 76.679 120.254 74.7024 119.389 73.1453C118.523 71.5882 117.639 70.4507 117.164 69.882C117.024 69.7141 116.698 69.7701 116.624 69.9845C116.382 70.6931 115.972 72.0824 115.712 73.8539C115.46 75.6254 115.367 77.7885 115.786 80.0169C116.205 82.2453 117.052 84.2313 117.918 85.7884C118.784 87.3454 119.668 88.4829 120.143 89.0517C120.282 89.2195 120.608 89.1636 120.683 88.9491ZM118.309 96.3336C118.542 94.7765 117.099 93.7695 116.317 93.3406C116.559 92.6786 116.922 91.336 116.531 90.1705C116.27 89.406 115.74 88.8559 114.958 88.5295C114.176 88.2032 113.431 88.2312 112.751 88.5948C111.709 89.1636 111.113 90.413 110.862 91.075C110.015 90.8232 108.311 90.5248 107.473 91.8302C106.477 93.3779 107.222 95.4385 107.715 96.4641C106.756 96.6319 106.086 97.2193 105.9 98.0771C105.63 99.2799 106.356 100.548 106.747 101.238C106.747 101.257 106.766 101.266 106.775 101.285C106.514 101.555 105.537 105.825 108.171 106.916C110.815 108.016 112.742 104.138 112.723 103.755C112.742 103.755 112.761 103.746 112.77 103.737C113.496 103.513 114.846 103.103 115.423 102.03C115.833 101.275 115.721 100.361 115.135 99.5503C116.168 99.1494 118.039 98.1797 118.309 96.3336ZM126.259 74.404C125.3 76.39 124.835 78.4319 124.62 80.1661C124.406 81.9003 124.444 83.3082 124.49 84.0355C124.499 84.2593 124.788 84.3991 124.965 84.2779C125.551 83.877 126.668 83.0472 127.879 81.8164C129.089 80.595 130.392 78.9727 131.351 76.9867C132.31 75.0007 132.775 72.9588 132.989 71.2246C133.203 69.4904 133.166 68.0825 133.12 67.3552C133.11 67.1314 132.822 66.9916 132.645 67.1128C132.058 67.5137 130.941 68.3435 129.731 69.5743C128.521 70.7957 127.218 72.418 126.259 74.404ZM126.501 58.6281C125.942 60.6701 125.849 62.684 125.952 64.353C126.045 66.0219 126.324 67.3459 126.492 68.0265C126.538 68.2317 126.836 68.3156 126.985 68.1664C127.469 67.6815 128.381 66.6932 129.312 65.3226C130.243 63.952 131.193 62.1805 131.751 60.1386C132.31 58.0967 132.403 56.0827 132.3 54.4138C132.207 52.7448 131.928 51.4208 131.76 50.7402C131.714 50.5351 131.416 50.4512 131.267 50.6004C130.783 51.0852 129.871 52.0735 128.94 53.4441C128.009 54.8147 127.059 56.5862 126.501 58.6281ZM101.729 25.3422C99.7373 24.8853 97.801 24.9133 96.2092 25.0998C94.6173 25.2863 93.3513 25.6406 92.7183 25.8457C92.5228 25.9109 92.4576 26.2093 92.6066 26.3492C93.1 26.8154 94.096 27.6731 95.4645 28.5403C96.8329 29.398 98.5737 30.2652 100.566 30.7127C102.558 31.1696 104.494 31.1416 106.086 30.9551C107.678 30.7686 108.944 30.4143 109.577 30.2092C109.772 30.144 109.838 29.8456 109.689 29.7057C109.195 29.2395 108.199 28.3818 106.831 27.5146C105.462 26.6569 103.722 25.7897 101.729 25.3422ZM112.137 29.2768C112.872 30.7407 113.636 31.8222 114.045 32.3723C114.166 32.5402 114.464 32.4935 114.539 32.2977C114.79 31.6637 115.228 30.405 115.535 28.7827C115.842 27.1697 116.01 25.193 115.73 23.1231C115.442 21.0532 114.744 19.2071 114.008 17.734C113.273 16.2701 112.509 15.1793 112.1 14.6385C111.979 14.4706 111.681 14.5173 111.606 14.7131C111.355 15.3471 110.917 16.6058 110.61 18.2281C110.303 19.8412 110.136 21.8178 110.415 23.8877C110.703 25.9576 111.402 27.8037 112.137 29.2768ZM104.392 22.3306C105.304 23.7572 106.207 24.7828 106.691 25.2863C106.84 25.4448 107.138 25.3608 107.194 25.1557C107.38 24.4751 107.697 23.1325 107.827 21.4355C107.967 19.7386 107.92 17.6874 107.399 15.5988C106.877 13.501 105.956 11.6828 105.043 10.2656C104.131 8.8484 103.228 7.81346 102.744 7.30998C102.595 7.15147 102.297 7.23539 102.241 7.44051C102.055 8.12115 101.739 9.46377 101.608 11.1607C101.478 12.8576 101.515 14.9089 102.037 16.9974C102.558 19.0953 103.48 20.9134 104.392 22.3306ZM123.531 49.4256C123.773 51.0386 124.164 52.2973 124.388 52.9406C124.453 53.1364 124.751 53.1924 124.881 53.0339C125.309 52.5117 126.101 51.4675 126.883 50.0503C127.664 48.6237 128.428 46.8242 128.782 44.7823C129.145 42.7404 129.042 40.7824 128.8 39.1694C128.558 37.5564 128.167 36.2977 127.944 35.6543C127.879 35.4585 127.581 35.4026 127.45 35.5611C127.022 36.0832 126.231 37.1275 125.449 38.5447C124.667 39.9712 123.904 41.7707 123.55 43.8126C123.187 45.8545 123.289 47.8125 123.531 49.4256ZM120.58 41.3045C120.683 41.4817 120.981 41.4817 121.074 41.3045C121.399 40.7171 121.986 39.5517 122.498 38.0132C123.001 36.4748 123.429 34.5728 123.42 32.5122C123.41 30.4516 122.963 28.5496 122.433 27.0205C121.902 25.4914 121.306 24.3259 120.971 23.7478C120.869 23.5707 120.571 23.5707 120.478 23.7478C120.152 24.3352 119.566 25.5007 119.054 27.0391C118.551 28.5776 118.123 30.4796 118.132 32.5402C118.141 34.6007 118.588 36.5028 119.119 38.0319C119.64 39.561 120.254 40.7265 120.58 41.3045ZM106.347 33.6124C104.764 33.5005 103.489 33.6124 102.828 33.687C102.632 33.715 102.511 33.9947 102.632 34.1532C103.033 34.694 103.843 35.7103 105.016 36.8011C106.188 37.892 107.724 39.0482 109.577 39.85C111.429 40.6612 113.31 40.9968 114.883 41.1087C116.466 41.2206 117.741 41.1087 118.402 41.0341C118.597 41.0062 118.718 40.7265 118.597 40.568C118.197 40.0272 117.387 39.0109 116.214 37.92C115.041 36.8291 113.505 35.673 111.653 34.8711C109.8 34.0599 107.92 33.7243 106.347 33.6124ZM32.1628 21.7805C32.7959 21.9763 34.0433 22.3026 35.6165 22.4611C37.1897 22.6196 39.0981 22.6103 41.053 22.1348C43.0079 21.6593 44.7115 20.7829 46.052 19.9064C47.3925 19.03 48.3513 18.1722 48.8354 17.706C48.9843 17.5662 48.9098 17.2678 48.7237 17.2118C48.0906 17.016 46.8432 16.6897 45.27 16.5312C43.6968 16.3727 41.7884 16.382 39.8335 16.8575C37.8786 17.3331 36.1751 18.2095 34.8345 19.0859C33.494 19.9624 32.5352 20.8202 32.0511 21.2863C31.9022 21.4262 31.9767 21.7246 32.1628 21.7805ZM24.3339 115.774C25.2183 113.051 21.3457 111.019 20.9734 111.037C20.9734 111.019 20.9641 111 20.9547 110.991C20.6848 110.254 20.1914 108.874 19.1115 108.296C18.3482 107.886 17.4638 108.016 16.7098 108.632C16.2444 107.578 15.1738 105.676 13.3492 105.424C11.8132 105.21 10.9289 106.711 10.5751 107.513C9.90489 107.28 8.57369 106.916 7.46591 107.345C6.73981 107.625 6.23712 108.175 5.97646 108.977C5.71581 109.788 5.79028 110.543 6.19988 111.242C6.82359 112.305 8.08031 112.893 8.74125 113.144C8.55507 114.011 8.3782 115.774 9.7094 116.604C11.2826 117.601 13.2375 116.809 14.215 116.286C14.4477 117.265 15.0714 117.937 15.9092 118.123C17.1008 118.384 18.2923 117.62 18.9347 117.21C18.9533 117.2 18.9626 117.191 18.9812 117.182C19.2605 117.452 23.4589 118.496 24.3432 115.774H24.3339ZM4.18912 66.0219C5.13865 67.3832 6.06025 68.3622 6.54432 68.847C6.69326 68.9962 6.98184 68.903 7.0377 68.6978C7.19595 68.0172 7.4566 66.6932 7.53108 65.0149C7.60555 63.346 7.49384 61.332 6.91668 59.2901C6.33021 57.2482 5.36207 55.4953 4.42185 54.1341C3.47233 52.7728 2.55073 51.7938 2.06666 51.309C1.91771 51.1598 1.62913 51.253 1.57328 51.4581C1.41502 52.1388 1.15437 53.4628 1.0799 55.141C1.00543 56.81 1.11713 58.8239 1.6943 60.8659C2.28077 62.9078 3.24891 64.6606 4.18912 66.0219ZM35.8585 123.074C35.8585 123.074 35.8399 123.046 35.8306 123.028C35.4117 122.356 34.6391 121.116 33.4661 120.781C32.6283 120.538 31.7905 120.855 31.1854 121.61C30.5151 120.678 29.0629 119.046 27.2384 119.177C25.6931 119.289 25.1438 120.939 24.9576 121.797C24.2595 121.704 22.8817 121.638 21.8856 122.282C21.234 122.701 20.8616 123.345 20.7686 124.193C20.6755 125.042 20.9082 125.769 21.4574 126.356C22.2952 127.261 23.6451 127.578 24.3432 127.68C24.3432 128.575 24.5387 130.319 26.0096 130.86C27.7597 131.503 29.5098 130.319 30.3476 129.601C30.7758 130.505 31.5298 131.037 32.3863 131.037C33.6058 131.037 34.6111 130.048 35.1511 129.517C35.1604 129.508 35.179 129.489 35.1883 129.48C35.5141 129.685 39.8428 129.834 40.1407 126.981C40.4386 124.137 36.2309 122.953 35.8679 123.056L35.8585 123.074ZM2.28077 77.714C3.25822 79.6906 4.5801 81.2943 5.79959 82.5064C7.01908 83.7185 8.14547 84.539 8.74125 84.9306C8.91813 85.0518 9.20671 84.9026 9.21602 84.6881C9.25325 83.9609 9.27187 82.5437 9.03914 80.8188C8.80642 79.0939 8.31304 77.052 7.33559 75.0753C6.35813 73.0987 5.03625 71.495 3.81676 70.2829C2.59727 69.0708 1.47088 68.2503 0.875098 67.8587C0.698226 67.7375 0.409645 67.8867 0.400336 68.1011C0.3631 68.8284 0.344482 70.2456 0.577208 71.9705C0.809935 73.6954 1.30332 75.7373 2.28077 77.714ZM9.69078 99.2333C11.3199 100.175 12.7442 100.725 13.4796 100.977C13.703 101.051 13.9636 100.818 13.9171 100.576C13.7588 99.7927 13.3865 98.2822 12.6697 96.52C11.9436 94.7485 10.873 92.7253 9.29049 90.8978C7.70795 89.0797 5.86475 87.7464 4.23567 86.8046C2.60658 85.8629 1.1823 85.3128 0.446882 85.0611C0.223464 84.9865 -0.0371896 85.2196 0.00935569 85.462C0.16761 86.2452 0.539972 87.7557 1.25677 89.5179C1.98288 91.2894 3.05342 93.3127 4.63596 95.1401C6.2185 96.9583 8.06169 98.2916 9.69078 99.2333ZM42.2166 114.562C42.5145 113.834 43.0638 112.473 42.6449 111.317C42.347 110.496 41.6022 110.002 40.6341 109.956C40.9878 108.865 41.4626 106.73 40.271 105.322C39.275 104.138 37.618 104.66 36.8081 105.014C36.4729 104.389 35.7189 103.233 34.6111 102.804C33.885 102.525 33.1496 102.599 32.4142 103.028C31.6788 103.457 31.2226 104.072 31.0737 104.856C30.8317 106.068 31.3716 107.345 31.6974 107.97C30.9806 108.492 29.6773 109.685 30.1055 111.196C30.6175 112.986 32.6004 113.713 33.6709 113.974C33.1962 114.86 33.2055 115.774 33.7082 116.473C34.4249 117.461 35.812 117.694 36.566 117.816C36.5847 117.816 36.6033 117.816 36.6219 117.816C36.6498 118.198 39.0702 121.788 41.5464 120.361C44.0226 118.934 42.4959 114.823 42.198 114.59C42.198 114.571 42.2073 114.552 42.2166 114.543V114.562ZM84.0422 113.116L91.1544 131.783C83.6792 134.645 75.571 136.23 67.0998 136.277C58.6285 136.323 50.5017 134.832 42.9893 132.053L49.8873 113.303C55.2121 115.27 60.9744 116.333 66.9787 116.296C72.9924 116.259 78.7361 115.13 84.0422 113.107V113.116ZM133.269 84.3152C132.533 84.5763 131.118 85.145 129.498 86.1054C127.879 87.0657 126.054 88.4177 124.49 90.2545C122.926 92.0912 121.874 94.1332 121.176 95.914C120.478 97.6948 120.124 99.2053 119.975 99.9885C119.929 100.231 120.189 100.464 120.413 100.38C121.148 100.119 122.563 99.5503 124.183 98.5899C125.803 97.6296 127.627 96.2776 129.191 94.4408C130.755 92.604 131.807 90.5621 132.505 88.7813C133.203 87.0005 133.557 85.49 133.706 84.7068C133.753 84.4644 133.492 84.2313 133.269 84.3152ZM126.501 106.664C125.384 106.254 124.062 106.627 123.392 106.869C123.019 106.068 122.116 104.585 120.59 104.809C118.774 105.079 117.722 107 117.266 108.054C116.503 107.448 115.628 107.326 114.865 107.746C113.785 108.333 113.31 109.723 113.049 110.468C113.049 110.487 113.04 110.506 113.031 110.515C112.658 110.496 108.804 112.576 109.726 115.289C110.648 118.002 114.827 116.902 115.107 116.631C115.125 116.631 115.134 116.65 115.153 116.659C115.795 117.06 116.996 117.806 118.188 117.536C119.026 117.34 119.64 116.659 119.863 115.68C120.841 116.193 122.805 116.958 124.369 115.951C125.691 115.102 125.495 113.349 125.3 112.473C125.961 112.212 127.208 111.606 127.823 110.543C128.223 109.844 128.288 109.089 128.018 108.277C127.748 107.466 127.236 106.925 126.51 106.655L126.501 106.664ZM112.249 121.778C111.243 121.144 109.866 121.228 109.167 121.331C108.972 120.473 108.404 118.832 106.859 118.729C105.025 118.617 103.591 120.268 102.94 121.2C102.325 120.445 101.487 120.147 100.65 120.398C99.4767 120.753 98.7133 122.002 98.3037 122.673C98.2944 122.692 98.2851 122.701 98.2758 122.72C97.9127 122.617 93.7144 123.848 94.0495 126.692C94.3846 129.536 98.6947 129.34 99.0298 129.135C99.0391 129.144 99.0578 129.163 99.0671 129.172C99.6163 129.703 100.631 130.682 101.85 130.664C102.716 130.654 103.452 130.114 103.871 129.2C104.718 129.909 106.477 131.065 108.227 130.412C109.698 129.853 109.875 128.1 109.866 127.214C110.564 127.102 111.914 126.766 112.733 125.853C113.273 125.256 113.496 124.529 113.394 123.68C113.291 122.832 112.91 122.198 112.258 121.778H112.249ZM97.4659 117.499C97.4659 117.499 97.5031 117.499 97.5218 117.489C98.2665 117.359 99.6628 117.107 100.361 116.109C100.854 115.401 100.854 114.487 100.361 113.611C101.432 113.34 103.405 112.594 103.898 110.795C104.308 109.275 102.995 108.1 102.279 107.587C102.595 106.953 103.126 105.667 102.865 104.464C102.698 103.681 102.241 103.065 101.497 102.646C100.752 102.226 100.017 102.161 99.2905 102.45C98.192 102.888 97.4473 104.054 97.1122 104.678C96.3023 104.324 94.6453 103.83 93.6585 105.023C92.4856 106.441 92.9789 108.576 93.3513 109.657C92.3832 109.713 91.6477 110.217 91.3592 111.037C90.9496 112.193 91.5174 113.545 91.8153 114.273C91.8153 114.291 91.8339 114.31 91.8339 114.319C91.536 114.552 90.0652 118.673 92.5507 120.081C95.0455 121.489 97.4194 117.872 97.4473 117.489L97.4659 117.499ZM25.842 25.6126C25.8979 25.8177 26.205 25.8923 26.3447 25.7431C26.8194 25.2303 27.7131 24.1954 28.6068 22.7595C29.5005 21.3236 30.4034 19.4962 30.9061 17.3983C31.4088 15.3005 31.4181 13.2492 31.2692 11.5523C31.1109 9.85537 30.7851 8.52207 30.5896 7.83211C30.5338 7.62698 30.2266 7.55239 30.0869 7.70157C29.6122 8.21438 28.7185 9.24932 27.8248 10.6852C26.9312 12.1211 26.0282 13.9485 25.5255 16.0464C25.0228 18.1442 25.0135 20.1955 25.1624 21.8924C25.3207 23.5893 25.6465 24.9226 25.842 25.6126ZM14.3825 54.246C15.8534 53.6119 17.529 52.6702 19.0371 51.2903C20.5451 49.9104 21.6436 48.2974 22.4163 46.8708C23.1889 45.4443 23.6451 44.2042 23.8499 43.5609C23.915 43.3651 23.7102 43.1413 23.5147 43.1786C22.8631 43.3185 21.6157 43.6448 20.1449 44.2695C18.674 44.9035 16.9984 45.8452 15.4903 47.2251C13.9823 48.6051 12.8838 50.2181 12.1111 51.6446C11.3385 53.0712 10.8823 54.3112 10.6775 54.9546C10.6124 55.1504 10.8172 55.3741 11.0127 55.3368C11.6643 55.197 12.9117 54.8707 14.3825 54.246ZM13.0793 89.5552C13.1537 89.7696 13.4796 89.8256 13.6192 89.6577C14.0847 89.089 14.9597 87.9328 15.8068 86.3664C16.654 84.8 17.4918 82.8141 17.8734 80.5764C18.2644 78.3386 18.1434 76.1755 17.8734 74.4133C17.6035 72.6418 17.166 71.2526 16.9239 70.5533C16.8494 70.3388 16.5236 70.2829 16.384 70.4507C15.9185 71.0195 15.0435 72.1756 14.1964 73.742C13.3492 75.3084 12.5114 77.2944 12.1298 79.5321C11.7388 81.7698 11.8598 83.9329 12.1298 85.6951C12.3997 87.4573 12.8372 88.8559 13.0793 89.5552ZM8.87158 71.5229C8.87158 71.7374 9.13224 71.9146 9.31842 71.812C9.93281 71.4763 11.1151 70.777 12.4183 69.6955C13.7216 68.6139 15.1552 67.1594 16.2909 65.304C17.4266 63.4579 18.0782 61.4906 18.4599 59.8216C18.8416 58.1433 18.944 56.7541 18.9719 56.0361C18.9719 55.8217 18.7113 55.6445 18.5251 55.7471C17.9107 56.0827 16.7284 56.782 15.4252 57.8636C14.1219 58.9452 12.6883 60.3997 11.5526 62.2551C10.4169 64.1012 9.76525 66.0685 9.38358 67.7375C9.00191 69.4158 8.89951 70.805 8.87158 71.5229ZM6.45122 50.7309C7.2425 52.1481 8.05238 53.1737 8.48991 53.6959C8.62024 53.8544 8.91813 53.7984 8.98329 53.6026C9.1974 52.9593 9.56976 51.6912 9.79318 50.0782C10.0166 48.4652 10.0911 46.4979 9.7094 44.4653C9.32773 42.4327 8.54576 40.6332 7.74518 39.2253C6.95391 37.8081 6.14403 36.7825 5.7065 36.2604C5.57617 36.1019 5.27828 36.1578 5.21312 36.3536C4.99901 36.9969 4.62665 38.265 4.40323 39.878C4.17981 41.491 4.10534 43.4583 4.48701 45.4909C4.86869 47.5235 5.65065 49.323 6.45122 50.7309ZM40.3083 13.4171C41.6488 13.4357 45.5586 13.3331 49.4312 11.515C53.2944 9.69687 55.9289 6.7319 56.7853 5.67831C56.9156 5.51981 56.8039 5.27739 56.5991 5.26806C55.2586 5.24942 51.3488 5.35198 47.4763 7.17012C43.613 8.98826 40.9785 11.9532 40.1221 13.0068C39.9918 13.1653 40.1035 13.4077 40.3083 13.4171ZM14.8201 41.6215C15.4717 41.6961 16.7564 41.7894 18.3389 41.6588C19.9214 41.5283 21.7926 41.1647 23.6357 40.3442C25.4789 39.5144 27.0056 38.3396 28.1693 37.2394C29.3329 36.1391 30.1335 35.1042 30.5245 34.5634C30.6455 34.3956 30.5245 34.1252 30.329 34.0972C29.6773 34.0226 28.3927 33.9294 26.8101 34.0599C25.2276 34.1905 23.3565 34.5541 21.5133 35.3746C19.6701 36.1951 18.1434 37.3792 16.9798 38.4794C15.8161 39.5796 15.0156 40.6146 14.6246 41.1553C14.5036 41.3232 14.6246 41.5936 14.8201 41.6215ZM12.1484 41.9106C12.2508 42.0877 12.5487 42.0877 12.6418 41.9106C12.9676 41.3232 13.5633 40.1577 14.066 38.6193C14.578 37.0809 14.9969 35.1788 14.9876 33.1182C14.9783 31.0577 14.5315 29.1556 14.0102 27.6265C13.4889 26.0974 12.8838 24.9319 12.5487 24.3445C12.4463 24.1674 12.1484 24.1674 12.0553 24.3445C11.7295 24.9319 11.1337 26.0974 10.631 27.6358C10.119 29.1743 9.70009 31.0763 9.7094 33.1369C9.71871 35.1974 10.1655 37.0995 10.6868 38.6286C11.2082 40.1577 11.8132 41.3232 12.1484 41.9106ZM23.5147 30.6941C24.1571 30.8899 25.4138 31.2255 27.0149 31.3933C28.6161 31.5612 30.5524 31.5612 32.5352 31.0857C34.518 30.6101 36.2588 29.7337 37.618 28.8573C38.9771 27.9808 39.9638 27.1044 40.4479 26.6382C40.5969 26.4983 40.5317 26.2 40.3362 26.1347C39.6939 25.9389 38.4372 25.6033 36.836 25.4354C35.2348 25.2676 33.2986 25.2676 31.3157 25.7431C29.3329 26.2186 27.5921 27.0951 26.233 27.9715C24.8739 28.8479 23.8871 29.7244 23.403 30.1906C23.2541 30.3304 23.3192 30.6288 23.5147 30.6941ZM34.4529 16.9321C34.9649 16.5032 35.933 15.6361 36.9477 14.3961C37.9624 13.156 39.0329 11.5337 39.759 9.61295C40.4758 7.69225 40.7365 5.7529 40.7923 4.13056C40.8482 2.50822 40.6899 1.20289 40.5969 0.531577C40.5689 0.326453 40.2897 0.223891 40.1314 0.345101C39.6194 0.773995 38.6513 1.64111 37.6366 2.88117C36.6219 4.12124 35.5513 5.74358 34.8252 7.66428C34.1084 9.58498 33.8478 11.5243 33.7919 13.1467C33.7361 14.769 33.8943 16.0743 33.9874 16.7457C34.0154 16.9508 34.2946 17.0533 34.4529 16.9321ZM18.5809 32.8292C18.6554 33.025 18.9533 33.0623 19.0836 32.8945C19.4932 32.3444 20.2379 31.2535 20.9547 29.7803C21.6715 28.3072 22.3511 26.4517 22.6118 24.3725C22.8724 22.3026 22.6769 20.326 22.3604 18.713C22.0346 17.1 21.5878 15.8506 21.3271 15.2166C21.2526 15.0208 20.9547 14.9835 20.8244 15.1513C20.4148 15.7014 19.6701 16.7923 18.9533 18.2654C18.2365 19.7386 17.5569 21.594 17.2963 23.6732C17.0356 25.7431 17.2311 27.7198 17.5476 29.3328C17.8734 30.9458 18.3203 32.1952 18.5809 32.8292ZM55.7799 129.275L55.1376 129.293V120.398C55.1376 120.119 54.9142 119.885 54.6256 119.885H54.1974C54.0205 119.885 53.8623 119.969 53.7692 120.119C52.9965 121.331 51.9167 122.431 50.5669 123.373C50.3434 123.531 50.2783 123.829 50.4272 124.063L50.7996 124.659C50.8741 124.771 50.9858 124.855 51.1161 124.883C51.2464 124.911 51.3861 124.883 51.4978 124.818C51.9074 124.557 52.3077 124.268 52.6893 123.951V129.312L51.7398 129.284C51.3116 129.284 51.023 129.573 51.023 130.002V130.328C51.023 130.757 51.3116 131.046 51.7491 131.046L53.8157 130.99L55.7799 131.046C56.2081 131.046 56.4967 130.757 56.4967 130.328V130.002C56.4967 129.573 56.2081 129.284 55.7706 129.284L55.7799 129.275ZM64.7632 120.314C64.6794 120.147 64.5025 120.044 64.3163 120.044H58.2375C57.9583 120.044 57.7255 120.268 57.7255 120.557V123.149C57.7255 123.578 58.0141 123.867 58.4423 123.867H58.7681C59.1964 123.867 59.4849 123.578 59.4849 123.149V122.394L62.7897 122.375C61.7005 124.771 60.0062 127.531 58.7309 129.498C58.6751 129.582 58.6471 129.694 58.6471 129.797L58.6657 130.179C58.6657 130.356 58.7775 130.524 58.9264 130.608L59.7735 131.074C59.848 131.111 59.9318 131.139 60.0156 131.139C60.0621 131.139 60.118 131.139 60.1645 131.121L60.5089 131.018C60.6393 130.981 60.751 130.888 60.8161 130.766C61.747 128.948 64.0371 124.408 65.1355 121.405C65.1821 121.275 65.1728 121.126 65.1076 120.995L64.7632 120.342V120.314ZM70.0135 123.317C69.5387 123.317 69.1105 123.382 68.7195 123.512L68.794 122.589C69.427 122.589 70.2555 122.589 70.7489 122.561C72.378 122.487 73.3461 121.61 73.6347 119.941C73.6813 119.699 73.5416 119.457 73.3089 119.373L72.8528 119.205C72.62 119.121 72.3501 119.223 72.229 119.447C71.9808 119.92 71.5588 120.178 70.963 120.221C70.2555 120.268 69.0733 120.258 68.2168 120.249H67.5838C67.3046 120.249 67.0718 120.473 67.0718 120.753V120.837L66.6622 125.442C66.6529 125.582 66.6995 125.722 66.7926 125.834C66.8856 125.937 67.0253 126.002 67.1649 126.002H67.9655C68.1238 126.002 68.2727 125.927 68.3751 125.797L68.5147 125.601C68.7009 125.284 69.0919 125.144 69.8087 125.144C70.5255 125.144 71.205 125.368 71.205 127.018C71.205 129.2 70.3393 129.498 69.4084 129.498C69.0174 129.498 68.7195 129.424 68.524 129.33C68.7382 129.051 68.8499 128.734 68.8499 128.398C68.8499 127.494 68.3006 126.906 67.4535 126.906C66.6064 126.906 65.9827 127.587 65.9827 128.557C65.9827 130.104 67.4256 131.223 69.4177 131.223C71.9312 131.223 73.6813 129.48 73.6813 126.981C73.6813 124.678 72.3128 123.298 70.0228 123.298L70.0135 123.317ZM79.5832 123.317C79.1084 123.317 78.6802 123.382 78.2892 123.512L78.3637 122.589C78.9874 122.589 79.8345 122.589 80.3186 122.561C81.9477 122.487 82.9158 121.61 83.2044 119.941C83.251 119.699 83.1113 119.457 82.8693 119.373L82.4038 119.205C82.1618 119.121 81.9012 119.223 81.7895 119.447C81.5412 119.92 81.1192 120.178 80.5234 120.221C79.8159 120.268 78.6337 120.258 77.7773 120.249H77.1442C76.865 120.249 76.6322 120.473 76.6322 120.753V120.837L76.2133 125.442C76.204 125.582 76.2506 125.722 76.3437 125.834C76.4367 125.937 76.5764 126.002 76.716 126.002H77.5166C77.6748 126.002 77.8238 125.927 77.9262 125.797L78.0658 125.61C78.252 125.293 78.6523 125.153 79.3598 125.153C80.0673 125.153 80.7561 125.377 80.7561 127.027C80.7561 129.209 79.8904 129.508 78.9595 129.508C78.5685 129.508 78.2706 129.424 78.0751 129.34C78.2892 129.06 78.401 128.743 78.401 128.407C78.401 127.503 77.8517 126.916 77.0046 126.916C76.1575 126.916 75.5338 127.596 75.5338 128.566C75.5338 130.114 76.9767 131.233 78.9688 131.233C81.4823 131.233 83.2324 129.489 83.2324 126.99C83.2324 124.687 81.8639 123.307 79.5739 123.307L79.5832 123.317Z" fill="black"/>
<path d="M11.2452 163.614H9.90466V198.084L15.276 197.897C15.8904 197.897 16.1324 198.14 16.1324 198.755V200.098C16.1324 200.713 15.8904 200.956 15.276 200.956L8.20111 200.713L1.12622 200.956C0.511821 200.956 0.269785 200.713 0.269785 200.098V198.755C0.269785 198.14 0.511821 197.897 1.12622 197.897L6.25551 198.084V162.821H1.05175C0.437348 162.821 0.195312 162.579 0.195312 161.964V160.621C0.195312 160.006 0.437348 159.763 1.1076 159.763H16.0021L26.9216 183.66L37.1709 159.763H51.6372C52.2516 159.763 52.4936 160.006 52.4936 160.621V161.964C52.4936 162.579 52.2516 162.821 51.6372 162.821H46.6289V198.028L51.3858 197.907C52.0002 197.907 52.2423 198.149 52.2423 198.765V200.107C52.2423 200.723 52.0002 200.965 51.3858 200.965L43.3894 200.723L36.0073 200.965C35.3929 200.965 35.1508 200.723 35.1508 200.107V198.765C35.1508 198.149 35.3929 197.907 36.0073 197.907L40.5222 198.028V163.614H39.0606L26.9775 190.69H24.1103L11.2359 163.614H11.2452Z" fill="black"/>
<path d="M58.5347 200.107V198.765C58.5347 198.149 58.7768 197.907 59.3912 197.907L64.1481 198.093V162.644L58.2275 162.831C57.6131 162.831 57.3711 162.588 57.3711 161.973V160.63C57.3711 160.015 57.6131 159.772 58.2275 159.772H87.8862C88.5006 164.36 89.5339 172.611 89.5339 173.46C89.5339 173.823 89.4129 174.374 88.7426 174.374H87.4021C86.9181 174.374 86.7877 174.01 86.5457 173.273C86.0616 171.688 84.898 167.893 83.2503 162.821H70.2548V198.028L74.7697 197.907C75.3841 197.907 75.6262 198.149 75.6262 198.765V200.107C75.6262 200.723 75.3841 200.965 74.7697 200.965L66.7732 200.723L59.3912 200.965C58.7768 200.965 58.5347 200.723 58.5347 200.107Z" fill="black"/>
<path d="M103.999 198.27C103.999 196.135 105.218 194.233 108.086 194.233C109.249 194.233 110.832 194.662 111.567 195.697C112.424 193.618 113.336 191.539 114.248 189.46L98.7487 162.626L93.6846 162.812C93.0702 162.812 92.8281 162.57 92.8281 161.954V160.612C92.8281 159.996 93.0702 159.754 93.6846 159.754L101.56 159.996L109.063 159.754C109.678 159.754 109.92 159.996 109.92 160.612V161.954C109.92 162.57 109.678 162.812 109.063 162.812L105.032 162.691L116.929 183.408C120.039 176.565 123.213 169.591 126.024 162.626L121.202 162.812C120.588 162.812 120.346 162.57 120.346 161.954V160.612C120.346 159.996 120.588 159.754 121.202 159.754L128.277 159.996L134.132 159.754C134.747 159.754 134.989 159.996 134.989 160.612V161.954C134.989 162.57 134.747 162.812 134.132 162.812L129.618 162.626C124.916 173.991 119.061 185.851 114.481 196.611C112.768 200.648 111.065 202.047 108.011 201.991C105.814 201.925 103.98 200.34 103.98 198.261L103.999 198.27Z" fill="black"/>
</g>
<defs>
<clipPath id="clip0_147_5412">
<rect width="135" height="202" fill="white"/>
</clipPath>
</defs>
</svg>
