<svg width="16" height="15" viewBox="0 0 16 15" fill="none" xmlns="http://www.w3.org/2000/svg">
<g id="Group">
<path id="Vector" d="M0.720947 14.9815L1.74988 11.2451C1.11375 10.1484 0.780041 8.90642 0.783518 7.63675C0.783518 3.6582 4.03717 0.423462 8.03124 0.423462C9.97092 0.423462 11.7924 1.1742 13.1585 2.53728C14.5281 3.90037 15.2824 5.7132 15.279 7.64021C15.279 11.6188 12.0253 14.8535 8.02777 14.8535H8.02429C6.81112 14.8535 5.61881 14.549 4.55859 13.9748L0.720947 14.9815ZM4.74283 12.6705L4.96182 12.8019C5.88647 13.3486 6.94669 13.6357 8.02777 13.6392H8.03124C11.3509 13.6392 14.0554 10.9511 14.0554 7.64367C14.0554 6.04187 13.4297 4.53694 12.293 3.40219C11.1563 2.26743 9.64069 1.6447 8.03124 1.6447C4.71154 1.64124 2.00711 4.32936 2.00711 7.63675C2.00711 8.76804 2.32344 9.87165 2.92829 10.8265L3.07081 11.0548L2.46249 13.2655L4.74283 12.6705Z" fill="white"/>
<path id="Vector_2" d="M0.974731 14.729L1.9689 11.1206C1.35363 10.0654 1.03035 8.86492 1.03035 7.64022C1.03383 3.80005 4.17277 0.676025 8.03127 0.676025C9.9049 0.676025 11.6603 1.40254 12.9813 2.7172C14.3022 4.03185 15.0287 5.78241 15.0287 7.64368C15.0287 11.4838 11.8863 14.6079 8.03127 14.6079H8.02779C6.85634 14.6079 5.70574 14.3138 4.68376 13.7603L0.974731 14.729Z" fill="url(#paint0_linear_2110_2211)"/>
<path id="Vector_3" d="M0.720947 14.9815L1.74988 11.2451C1.11375 10.1484 0.780041 8.90642 0.783518 7.63675C0.783518 3.6582 4.03717 0.423462 8.03124 0.423462C9.97092 0.423462 11.7924 1.1742 13.1585 2.53728C14.5281 3.90037 15.2824 5.7132 15.279 7.64021C15.279 11.6188 12.0253 14.8535 8.02777 14.8535H8.02429C6.81112 14.8535 5.61881 14.549 4.55859 13.9748L0.720947 14.9815ZM4.74283 12.6705L4.96182 12.8019C5.88647 13.3486 6.94669 13.6357 8.02777 13.6392H8.03124C11.3509 13.6392 14.0554 10.9511 14.0554 7.64367C14.0554 6.04187 13.4297 4.53694 12.293 3.40219C11.1563 2.26743 9.64069 1.6447 8.03124 1.6447C4.71154 1.64124 2.00711 4.32936 2.00711 7.63675C2.00711 8.76804 2.32344 9.87165 2.92829 10.8265L3.07081 11.0548L2.46249 13.2655L4.74283 12.6705Z" fill="url(#paint1_linear_2110_2211)"/>
<path id="Vector_4" fill-rule="evenodd" clip-rule="evenodd" d="M6.22013 4.61994C6.08456 4.31895 5.94204 4.31203 5.81342 4.30857C5.70914 4.30511 5.58748 4.30511 5.46581 4.30511C5.34415 4.30511 5.14948 4.35009 4.98263 4.52999C4.81578 4.70989 4.34998 5.1458 4.34998 6.03492C4.34998 6.92058 5.00001 7.77856 5.09039 7.89965C5.18077 8.02074 6.34527 9.8993 8.18414 10.6224C9.71364 11.2243 10.0265 11.1032 10.3567 11.0721C10.687 11.041 11.4274 10.6362 11.5803 10.2141C11.7298 9.79205 11.7298 9.43226 11.6846 9.35614C11.6394 9.28003 11.5177 9.23506 11.337 9.14511C11.1562 9.05516 10.2663 8.61925 10.0995 8.55697C9.93264 8.49816 9.81097 8.46702 9.69278 8.64692C9.57112 8.82682 9.22351 9.2316 9.11922 9.35268C9.01494 9.47377 8.90718 9.48761 8.72642 9.39766C8.54566 9.30771 7.96167 9.11743 7.26992 8.50162C6.73112 8.02419 6.36613 7.4326 6.26185 7.2527C6.15756 7.0728 6.25142 6.97593 6.3418 6.88598C6.42175 6.80641 6.52255 6.67495 6.61293 6.57116C6.70331 6.46737 6.7346 6.39126 6.79369 6.27017C6.85279 6.14909 6.82498 6.0453 6.77979 5.95535C6.7346 5.86886 6.38003 4.97628 6.22013 4.61994Z" fill="white"/>
</g>
<defs>
<linearGradient id="paint0_linear_2110_2211" x1="8.00136" y1="14.7283" x2="8.00136" y2="0.675534" gradientUnits="userSpaceOnUse">
<stop stop-color="#20B038"/>
<stop offset="1" stop-color="#60D66A"/>
</linearGradient>
<linearGradient id="paint1_linear_2110_2211" x1="8.00138" y1="14.9801" x2="8.00138" y2="0.423462" gradientUnits="userSpaceOnUse">
<stop stop-color="#F9F9F9"/>
<stop offset="1" stop-color="white"/>
</linearGradient>
</defs>
</svg>
