<svg width="29" height="29" fill="none" xmlns="http://www.w3.org/2000/svg"><path d="M14.16 28.18a1.97 1.97 0 01-1.418-.632l-2.738-2.803H6.135a2.037 2.037 0 01-2.04-2.034v-3.954L1.39 15.96a2.098 2.098 0 010-2.917l2.704-2.803V6.287A2.044 2.044 0 016.12 4.222h3.885l2.738-2.795a1.965 1.965 0 012.843 0l2.738 2.795h3.87a2.045 2.045 0 012.016 2.067v3.953l2.729 2.803a2.1 2.1 0 010 2.918l-2.73 2.795v3.93a2.045 2.045 0 01-2.016 2.058h-3.869l-2.753 2.803c-.365.39-.873.618-1.41.632z" fill="#FBAD26"/><path d="M17.808 12.057a4.632 4.632 0 00.713-4.691 3.246 3.246 0 00-.705-1.102l-2.688-2.731a1.339 1.339 0 00-1.935 0L3.45 13.507a1.43 1.43 0 000 1.985l2.394 2.43a10.682 10.682 0 013.705-2.925c3.705-1.782 5.958-.162 8.262-2.94h-.002zm4.672-.981a10.637 10.637 0 01-3.706 2.933c-3.705 1.783-5.958.162-8.262 2.94a4.617 4.617 0 00-.68 4.66c.15.4.379.765.673 1.077l2.688 2.747a1.34 1.34 0 001.934.032l9.746-9.975a1.43 1.43 0 000-1.986l-2.394-2.43v.002z" fill="#0F8C70"/><path d="M27.758 13.094l-3-3.07V5.673a1.978 1.978 0 00-1.942-2.009H18.57l-3-3.08A1.97 1.97 0 0014.17 0a1.92 1.92 0 00-1.385.583l-3.008 3.08H5.522a1.98 1.98 0 00-1.95 2.009v4.335l-3 3.08a2.033 2.033 0 000 2.827l3 3.08v4.342a1.98 1.98 0 001.959 2.001h4.246l2.999 3.08c.364.369.863.579 1.385.583a1.939 1.939 0 001.409-.583l2.983-3.08H22.8a1.979 1.979 0 001.958-2.001v-4.335l3-3.08a2.033 2.033 0 000-2.827zm-1.361 2.3l-2.96 3.039v4.264A1.262 1.262 0 0122.217 24h-4.188l-2.983 2.999-.036.035a1.231 1.231 0 01-1.727-.035l-2.959-3.03H6.159a1.263 1.263 0 01-1.245-1.28v-4.255l-2.984-3.03a1.294 1.294 0 010-1.808l2.984-3.062V6.279a1.263 1.263 0 011.22-1.28h4.188l2.959-3.031.036-.036a1.231 1.231 0 011.727.036l2.983 3.03h4.164a1.263 1.263 0 011.246 1.28v4.255l2.958 3.055c.49.504.49 1.302 0 1.807h.002z" fill="#0F8C70"/></svg>