<svg width="93" height="26" fill="none" xmlns="http://www.w3.org/2000/svg"><path d="M89.965 26c.385 0 .67-.156.856-.403v.334h.59v-3.856h-.59v1.439c-.187-.248-.47-.403-.856-.403-.759 0-1.354.605-1.354 1.445 0 .84.595 1.444 1.354 1.444zm-15.777 0c.255 0 .55-.08.736-.213l-.17-.513a1.078 1.078 0 01-.52.157c-.294 0-.39-.185-.39-.461v-1.243h.962v-.547h-.963v-.834h-.595v.834h-.55v.547h.55v1.254c0 .639.244 1.019.94 1.019zm-11.885-1.594c0-.477.26-.731.663-.731.391 0 .59.259.59.725v1.53h.594v-1.524c0-.477.272-.731.663-.731.402 0 .595.259.595.725v1.53h.594v-1.726c0-.65-.408-1.087-1.065-1.093-.345-.006-.702.104-.951.49-.187-.305-.481-.49-.895-.49-.289 0-.572.087-.793.409v-.34h-.59v2.75h.595v-1.524zM67.878 26c.385 0 .668-.156.855-.403v.334h.589V23.18h-.59v.334c-.186-.248-.469-.403-.854-.403-.759 0-1.354.605-1.354 1.445 0 .84.595 1.444 1.354 1.444zm3.189 0c.782 0 1.235-.374 1.235-.898 0-.483-.357-.736-.946-.823l-.277-.04c-.255-.035-.46-.086-.46-.27 0-.202.193-.323.516-.323.346 0 .68.133.844.236l.255-.484c-.283-.19-.674-.287-1.105-.287-.685 0-1.126.334-1.127.88 0 .449.329.725.934.812l.278.04c.323.047.476.133.476.288 0 .213-.215.334-.617.334-.408 0-.702-.132-.9-.287l-.279.465c.323.241.731.357 1.173.357zm5.614 0c.408 0 .782-.104 1.11-.386l-.289-.443a1.282 1.282 0 01-.787.288c-.379 0-.725-.178-.81-.674h2.01c.006-.074.012-.15.012-.23-.006-.857-.527-1.444-1.285-1.444-.793 0-1.349.587-1.349 1.445 0 .874.578 1.444 1.388 1.444zm2.442-1.611c0-.455.192-.708.577-.708.119 0 .244.017.369.069l.181-.564c-.13-.052-.3-.075-.42-.075-.339 0-.56.161-.712.403v-.334h-.584v2.75h.589v-1.54zM81.87 26c.407 0 .679-.092.973-.328l-.283-.483c-.22.16-.453.247-.708.247-.47-.005-.815-.35-.815-.88s.345-.875.815-.881c.255 0 .487.087.708.248l.283-.484c-.294-.236-.566-.328-.973-.328-.873 0-1.446.61-1.446 1.445l.007.153c.066.755.62 1.291 1.439 1.291zm2.628 0c.385 0 .668-.156.855-.403v.334h.589V23.18h-.589v.334c-.187-.248-.47-.403-.855-.403-.76 0-1.355.605-1.355 1.445 0 .84.596 1.444 1.355 1.444zm2.81-1.611c0-.455.192-.708.577-.708.12 0 .244.017.368.069l.182-.564c-.13-.052-.3-.075-.42-.075-.34 0-.56.161-.714.403v-.334h-.583v2.75h.59v-1.54zm-11.398-.075c.063-.398.3-.668.72-.668.378 0 .622.242.684.668H75.91zm-7.96 1.122c-.509 0-.822-.397-.822-.88 0-.484.313-.881.823-.881.486 0 .815.38.815.88 0 .501-.329.881-.815.881zm16.62 0c-.508 0-.82-.397-.82-.88 0-.484.311-.881.82-.881.488 0 .817.38.817.88 0 .501-.33.881-.816.881zm5.468 0c-.51 0-.822-.397-.822-.88 0-.484.312-.881.822-.881.487 0 .816.38.816.88 0 .501-.329.881-.816.881z" fill="#231F20"/><path d="M80.962 18.506h-8.923V2.215h8.923v16.29z" fill="#FF5F00"/><path d="M72.605 10.36c0-3.304 1.523-6.248 3.895-8.145A10.054 10.054 0 0070.197 0C64.565 0 60 4.639 60 10.36c0 5.723 4.565 10.362 10.197 10.362 2.38 0 4.568-.828 6.303-2.216a10.403 10.403 0 01-3.895-8.145" fill="#EB001B"/><path d="M93 10.36c0 5.723-4.566 10.362-10.198 10.362-2.378 0-4.567-.828-6.303-2.216a10.402 10.402 0 003.896-8.145c0-3.305-1.523-6.249-3.895-8.146A10.057 10.057 0 0182.802 0C88.434 0 93 4.639 93 10.36" fill="#F79E1B"/><path fill-rule="evenodd" clip-rule="evenodd" d="M12.25 20.875H8.01L4.83 8.463c-.151-.57-.472-1.076-.943-1.314C2.711 6.552 1.414 6.076 0 5.836v-.478h6.831c.943 0 1.65.718 1.768 1.551l1.65 8.954 4.239-10.505h4.122l-6.36 15.517zm8.718 0h-4.005L20.26 5.358h4.005l-3.297 15.517zm8.479-11.218c.118-.836.825-1.314 1.65-1.314 1.296-.12 2.708.12 3.887.716l.707-3.341A9.937 9.937 0 0032.039 5c-3.887 0-6.715 2.15-6.715 5.133 0 2.269 2.003 3.46 3.418 4.178 1.53.716 2.119 1.194 2.001 1.91 0 1.073-1.178 1.551-2.355 1.551-1.414 0-2.828-.358-4.123-.955l-.707 3.343c1.414.595 2.945.835 4.359.835 4.358.118 7.067-2.029 7.067-5.252 0-4.059-5.537-4.297-5.537-6.086zM49 20.875L45.82 5.358h-3.416c-.707 0-1.414.478-1.65 1.194l-5.888 14.323h4.123l.823-2.267h5.065l.472 2.267H49zM42.994 9.537l1.176 5.848h-3.298l2.122-5.848z" fill="#172B85"/></svg>