<svg width="22" height="22" fill="none" xmlns="http://www.w3.org/2000/svg"><g clip-path="url(#clip0_23_740)"><path d="M21.196 10.598C21.196 4.745 16.451 0 10.598 0 4.745 0 0 4.745 0 10.598c0 5.29 3.876 9.674 8.942 10.47v-7.406h-2.69v-3.064h2.69V8.263c0-2.656 1.582-4.123 4.003-4.123 1.16 0 2.373.207 2.373.207v2.608H13.98c-1.316 0-1.727.817-1.727 1.656v1.987h2.94l-.47 3.064h-2.47v7.405c5.067-.795 8.942-5.18 8.942-10.469z" fill="#231F20"/></g><defs><clipPath id="clip0_23_740"><path fill="#fff" d="M0 0h21.196v21.196H0z"/></clipPath></defs></svg>