<svg width="16" height="15" fill="none" xmlns="http://www.w3.org/2000/svg"><path d="M.723 14.982l1.029-3.737a7.144 7.144 0 01-.967-3.608C.785 3.658 4.04.423 8.033.423a7.21 7.21 0 015.127 2.114 7.136 7.136 0 012.12 5.103c0 3.979-3.253 7.214-7.25 7.214h-.004a7.283 7.283 0 01-3.466-.88L.723 14.983zm4.022-2.311l.219.13a6.063 6.063 0 003.065.838h.004c3.32 0 6.024-2.688 6.024-5.995a5.953 5.953 0 00-1.762-4.242 5.993 5.993 0 00-4.262-1.757c-3.32-.004-6.024 2.684-6.024 5.992a5.95 5.95 0 00.921 3.19l.143.228-.609 2.21 2.28-.595z" fill="#fff"/><path d="M.977 14.729l.994-3.608a6.907 6.907 0 01-.939-3.48C1.036 3.8 4.175.675 8.033.675c1.874 0 3.63.727 4.95 2.041a6.905 6.905 0 012.047 4.927c0 3.84-3.142 6.964-6.997 6.964H8.03a7.028 7.028 0 01-3.344-.848l-3.71.969z" fill="url(#paint0_linear_2059_3879)"/><path d="M.723 14.982l1.029-3.737a7.144 7.144 0 01-.967-3.608C.785 3.658 4.04.423 8.033.423a7.21 7.21 0 015.127 2.114 7.136 7.136 0 012.12 5.103c0 3.979-3.253 7.214-7.25 7.214h-.004a7.283 7.283 0 01-3.466-.88L.723 14.983zm4.022-2.311l.219.13a6.063 6.063 0 003.065.838h.004c3.32 0 6.024-2.688 6.024-5.995a5.953 5.953 0 00-1.762-4.242 5.993 5.993 0 00-4.262-1.757c-3.32-.004-6.024 2.684-6.024 5.992a5.95 5.95 0 00.921 3.19l.143.228-.609 2.21 2.28-.595z" fill="url(#paint1_linear_2059_3879)"/><path fill-rule="evenodd" clip-rule="evenodd" d="M6.222 4.62c-.136-.301-.278-.308-.407-.311-.104-.004-.226-.004-.348-.004a.668.668 0 00-.483.225c-.167.18-.632.616-.632 1.505 0 .886.65 1.744.74 1.865.09.12 1.255 2 3.094 2.722 1.53.602 1.842.481 2.172.45.33-.031 1.071-.436 1.224-.858.15-.422.15-.782.104-.858-.045-.076-.167-.12-.347-.21-.181-.09-1.071-.527-1.238-.589-.167-.059-.288-.09-.407.09-.121.18-.469.585-.573.706-.104.12-.212.135-.393.045-.18-.09-.765-.28-1.456-.896a5.394 5.394 0 01-1.009-1.25c-.104-.18-.01-.276.08-.366.08-.08.181-.211.272-.315.09-.104.121-.18.18-.3.06-.122.032-.226-.014-.316-.045-.086-.4-.979-.56-1.335z" fill="#fff"/><defs><linearGradient id="paint0_linear_2059_3879" x1="8.003" y1="14.728" x2="8.003" y2=".676" gradientUnits="userSpaceOnUse"><stop stop-color="#20B038"/><stop offset="1" stop-color="#60D66A"/></linearGradient><linearGradient id="paint1_linear_2059_3879" x1="8.003" y1="14.98" x2="8.003" y2=".423" gradientUnits="userSpaceOnUse"><stop stop-color="#F9F9F9"/><stop offset="1" stop-color="#fff"/></linearGradient></defs></svg>