<svg width="22" height="22" fill="none" xmlns="http://www.w3.org/2000/svg"><g clip-path="url(#clip0_64_4617)" fill="#fff"><path d="M10.794 1.908c2.832 0 3.167.013 4.28.063 1.035.045 1.594.219 1.967.364.493.19.849.422 1.217.79.373.373.6.725.79 1.218.146.372.32.935.365 1.966.05 1.118.062 1.453.062 4.28 0 2.832-.012 3.168-.062 4.281-.046 1.035-.22 1.594-.364 1.967-.19.492-.422.848-.791 1.217-.373.373-.724.6-1.217.79-.373.145-.936.32-1.966.365-1.118.05-1.454.062-4.281.062-2.832 0-3.167-.012-4.28-.062-1.036-.046-1.595-.22-1.967-.364a3.278 3.278 0 01-1.217-.791 3.26 3.26 0 01-.791-1.217c-.145-.373-.319-.936-.364-1.967-.05-1.117-.062-1.453-.062-4.28 0-2.832.012-3.167.062-4.28.045-1.036.22-1.595.364-1.967a3.27 3.27 0 01.79-1.217 3.26 3.26 0 011.218-.791c.372-.145.935-.319 1.966-.364 1.114-.05 1.45-.063 4.28-.063zm0-1.908C7.917 0 7.556.012 6.426.062c-1.126.05-1.9.232-2.57.493-.7.273-1.292.633-1.88 1.225A5.193 5.193 0 00.75 3.655C.49 4.33.308 5.1.258 6.226.208 7.361.196 7.721.196 10.598s.012 3.237.062 4.368c.05 1.126.232 1.9.493 2.57.273.7.633 1.292 1.225 1.88a5.18 5.18 0 001.875 1.221c.675.261 1.445.443 2.571.493 1.13.05 1.49.062 4.368.062 2.877 0 3.237-.012 4.367-.062 1.126-.05 1.9-.232 2.571-.493a5.18 5.18 0 001.875-1.221 5.181 5.181 0 001.222-1.875c.26-.675.443-1.445.492-2.571.05-1.13.063-1.49.063-4.368 0-2.877-.013-3.237-.063-4.367-.05-1.126-.231-1.9-.492-2.571a4.965 4.965 0 00-1.213-1.884A5.18 5.18 0 0017.736.56c-.674-.261-1.444-.443-2.57-.493C14.03.012 13.67 0 10.794 0z"/><path d="M10.794 5.154a5.445 5.445 0 00-5.444 5.444 5.445 5.445 0 005.444 5.444 5.445 5.445 0 005.444-5.444 5.445 5.445 0 00-5.444-5.444zm0 8.975a3.532 3.532 0 11.001-7.063 3.532 3.532 0 01-.001 7.063zm6.93-9.19a1.271 1.271 0 11-2.542 0 1.271 1.271 0 012.542 0z"/></g><defs><clipPath id="clip0_64_4617"><path fill="#fff" transform="translate(.196)" d="M0 0h21.196v21.196H0z"/></clipPath></defs></svg>