<svg width="22" height="22" fill="none" xmlns="http://www.w3.org/2000/svg"><g clip-path="url(#clip0_23_742)" fill="#231F20"><path d="M10.794 1.908c2.832 0 3.167.013 4.281.063 1.035.045 1.594.219 1.966.364.493.19.85.422 1.218.79.372.373.6.725.79 1.218.145.372.319.935.364 1.966.05 1.118.063 1.453.063 4.28 0 2.832-.013 3.168-.063 4.281-.045 1.035-.219 1.594-.364 1.967-.19.492-.422.849-.79 1.217-.373.373-.725.6-1.218.79-.372.146-.935.32-1.966.365-1.118.05-1.453.062-4.28.062-2.832 0-3.168-.012-4.281-.062-1.035-.046-1.594-.22-1.967-.364a3.279 3.279 0 01-1.217-.791 3.26 3.26 0 01-.79-1.217c-.145-.373-.32-.936-.365-1.967-.05-1.117-.062-1.453-.062-4.28 0-2.832.012-3.167.062-4.28.046-1.036.22-1.595.364-1.967.19-.493.423-.849.791-1.217a3.26 3.26 0 011.217-.791c.373-.145.936-.319 1.967-.364 1.113-.05 1.449-.063 4.28-.063zm0-1.908C7.917 0 7.557.012 6.427.062c-1.126.05-1.9.232-2.571.493-.7.273-1.292.633-1.88 1.225A5.193 5.193 0 00.751 3.655C.491 4.33.308 5.1.258 6.226.208 7.361.196 7.721.196 10.598s.013 3.237.062 4.368c.05 1.126.232 1.9.493 2.57.273.7.633 1.292 1.225 1.88.588.588 1.18.952 1.876 1.221.675.261 1.445.443 2.57.493 1.13.05 1.491.062 4.368.062 2.877 0 3.238-.012 4.368-.062 1.126-.05 1.9-.232 2.57-.493a5.182 5.182 0 001.876-1.221 5.182 5.182 0 001.221-1.875c.261-.675.443-1.445.493-2.571.05-1.13.062-1.49.062-4.368 0-2.877-.012-3.237-.062-4.367-.05-1.126-.232-1.9-.493-2.571a4.964 4.964 0 00-1.213-1.884A5.18 5.18 0 0017.737.56C17.062.3 16.292.117 15.166.067 14.032.012 13.672 0 10.794 0z"/><path d="M10.794 5.154a5.445 5.445 0 00-5.443 5.444 5.445 5.445 0 005.443 5.444 5.445 5.445 0 005.444-5.444 5.445 5.445 0 00-5.444-5.444zm0 8.976a3.532 3.532 0 11.002-7.064 3.532 3.532 0 01-.002 7.064zm6.93-9.191a1.271 1.271 0 11-2.542 0 1.271 1.271 0 012.542 0z"/></g><defs><clipPath id="clip0_23_742"><path fill="#fff" transform="translate(.196)" d="M0 0h21.196v21.196H0z"/></clipPath></defs></svg>