<svg width="158" height="76" fill="none" xmlns="http://www.w3.org/2000/svg"><g clip-path="url(#clip0_143_5677)" fill="#000"><path d="M33.999 1.27c.74.64 1.461 1.305 2.223 1.922L38.618.48l2.356 2.703 3.72-3.18L47.27 4.22l3.1-1.933 1.334 3.358L56.33 3.75l1.09 4.762 3.583-.844.218 3.574 4.977-.367-.479 4.845 3.667.26-.871 3.528 4.784 1.075-1.902 4.521 3.405 1.359-1.963 3.053 4.233 2.48-3.225 3.732 2.788 2.317-2.798 2.287 3.233 3.742-4.237 2.502 1.925 3.116-3.405 1.294 1.92 4.562-4.828 1.075.854 3.532-3.624.216.436 4.908-4.978-.474-.238 3.576-3.605-.82-1.048 4.736L51.64 70.4l-1.4 3.36-3.12-1.935L44.604 76l-3.795-3.19-2.318 2.758-2.357-2.757-3.757 3.186-2.538-4.17-3.16 1.89-1.31-3.358-4.628 1.895-1.09-4.762-3.398.834-.165-.031-.238-3.576-4.957.43.46-4.865-3.668-.26.873-3.528-4.785-1.075 1.9-4.497-3.357-1.387 1.916-3.071L0 44.008l3.234-3.725L.437 37.96l2.837-2.325-3.273-3.703 4.278-2.54-1.964-3.058L5.72 25.02 3.8 20.456l4.829-1.074-.856-3.533 3.668-.215-.479-4.845 4.977.41.262-3.617 3.58.86 1.093-4.778 4.559 1.934 1.38-3.355 3.117 1.935L32.445.004c.04-.028.198.1.239.13.437.336.891.772 1.315 1.137zM32.662.652l-4.131 6.72-7.351-3.06-1.79 7.6-7.905-.669.699 7.837-7.774 1.68 3.098 7.248-6.806 4.015 5.187 5.93-5.233 5.906 6.806 4.056-3.094 7.202 7.727 1.724-.697 7.88 7.946-.733 1.704 7.665L28.4 68.6l4.07 6.71 6.021-5.108 5.982 5.152 4.084-6.697 7.311 3.035 1.813-7.6 7.95.67-.724-7.795 7.755-1.72-3.096-7.25 6.806-4.013-5.19-5.902 5.232-5.936-6.801-4.052 3.135-7.206-7.772-1.723.74-7.815-7.948.65-1.744-7.647-7.352 3.061-4.07-6.72-5.985 5.12L32.662.652z"/><path d="M37.144 5.404c.386.334.781.745 1.177 1.057.088.07.221.209.323.153l5.789-4.974 4.016 6.577 7.076-3.002 1.728 7.443 7.725-.642-.696 7.62 7.552 1.681-3.047 7.042 6.627 3.895-5.066 5.79 5.066 5.77-6.632 3.925 3.008 7.033-7.55 1.684.651 7.617-7.727-.687-1.706 7.447-7.134-3.01-3.957 6.54-5.874-4.994-5.872 4.995-3.892-6.54-7.2 2.966-1.71-7.443-7.722.683.694-7.66-7.55-1.684 3.053-7.035L1.66 43.75l5.108-5.79-5.107-5.77 6.64-3.882-3.017-7.076 7.599-1.68-.7-7.62 7.725.684 1.708-7.444 7.135 3.01 3.98-6.544.172.09c1.393 1.248 2.824 2.455 4.24 3.677zm32.103 32.599c0-16.722-13.748-30.278-30.706-30.278-16.959 0-30.707 13.556-30.707 30.278 0 16.721 13.748 30.277 30.707 30.277 16.959 0 30.706-13.556 30.706-30.277z"/><path d="M67.89 38.002c0 15.982-13.14 28.939-29.35 28.939-16.208 0-29.349-12.957-29.349-28.939s13.14-28.939 29.35-28.939S67.89 22.02 67.89 38.003zm-.439 0c0-15.744-12.944-28.507-28.91-28.507-15.968 0-28.912 12.763-28.912 28.507 0 15.743 12.944 28.506 28.911 28.506s28.911-12.762 28.911-28.506z"/><path d="M33.012 51.91l5.415-5.102-19.411-17.18 8.735-6.415 21.931.032 8.348 6.496-.016.058-19.413 17.008h5.459l-2.62 2.584h2.314v2.26a.398.398 0 01-.108.238l-4.892 4.778h-5.742V51.91zm18.541-25.063c-1.025-.777-2.047-1.577-3.107-2.298-6.421.02-12.836-.032-19.254-.044L22.73 29.24l-.063.102 16.432 14.577 16.315-14.098a248.544 248.544 0 00-3.86-2.975zm-15.746 22.5v4.866h5.371v-2.368l-2.75-.064 2.881-2.39-5.502-.043z"/><path d="M29.738 56.581v-7.126l2.839-2.346v6.996c-.26.244-.52.496-.786.733-.58.516-1.298 1.2-1.9 1.657a.6.6 0 01-.153.086zm14.539.043v-7.19c.114-.035.235-.14.327-.216.834-.692 1.648-1.414 2.512-2.066v6.997l-2.839 2.475zm-5.897-44.99l.351 3.869-.74.088-.216-2.736-.09-.15-.749 2.9c-.065.106-.472.095-.619.109L34.98 12.92l.22 2.86c-.01.058-.63.1-.704.049l-.347-3.857c.335.008.712-.109 1.027-.044l1.418 2.972.783-3.158c.065-.09.837-.096 1.003-.109zm-8.993 2.793c-.226.036-.565.316-.77.334-.1.008-.269-.098-.39-.114-1.753-.236-2.355 2.235-.632 2.646.886.21 1.686-.338 1.792-1.229l-1.55.688-.265-.602 2.362-1.113c.619 1.118-.085 2.45-1.234 2.868-1.544.563-3.14-.6-2.839-2.24.277-1.507 2.37-2.32 3.526-1.238zm26.682 5.125l-.658-.493c-.08-1.866-2.985-1.884-2.791.083.091.928 1.047 1.46 1.92 1.184.017-.072-.023-.087-.065-.128-.177-.17-1.136-.844-1.18-.95-.05-.112.34-.52.389-.511l2.026 1.61c-.865 1.166-2.669.935-3.459-.196-1.142-1.634.334-3.64 2.28-3.108 1.052.288 1.828 1.44 1.538 2.508zM16.07 41.77l.155.773-2.382 2.326 2.815-.646.136.693-3.824.944c.013-.214-.236-.709-.134-.873l2.404-2.27-2.858.69-.198-.733 3.886-.904zm45.24-4.263l3.974.172-.05.854-2.963 1.471.196.086 2.686.129v.667c0 .022-.072.071-.108.066l-3.865-.217v-.624c0-.032.038-.102.027-.152l2.985-1.55-.284-.084-2.598-.087v-.732.001zm-39.389 19.72l1.987-2.11.482.43v.13l-2.628 2.795-.617-.568.688-3.217-1.922 2.047-.087.003-.476-.473 2.676-2.823.586.569-.689 3.217zM18.495 25.15c.027.001.151.105.152 0l-2.512-1.464.355-.607 3.374 1.948c.06.102-.322.62-.41.725H16.18c-.008 0-.077-.092-.109-.021l2.47 1.484c.066.1-.326.503-.331.647l-3.405-1.981.393-.732c1.083.047 2.22-.064 3.297 0zM43.89 13.87c0 1.144-.941 2.072-2.102 2.072-1.16 0-2.1-.928-2.1-2.072 0-1.144.94-2.071 2.1-2.071 1.16 0 2.101.927 2.101 2.071zm-.72-.003a1.37 1.37 0 00-1.38-1.36 1.37 1.37 0 00-1.381 1.36 1.37 1.37 0 001.38 1.361 1.37 1.37 0 001.38-1.36zM17.352 29.86c0 1.144-.94 2.071-2.1 2.071-1.16 0-2.1-.927-2.1-2.07 0-1.144.94-2.071 2.1-2.071 1.16 0 2.1.927 2.1 2.07zm-.725 0a1.37 1.37 0 00-1.38-1.361c-.763 0-1.38.61-1.38 1.361a1.37 1.37 0 001.38 1.361c.762 0 1.38-.61 1.38-1.361zm34.998-13.639c0 1.143-.94 2.07-2.1 2.07-1.16 0-2.1-.927-2.1-2.07 0-1.143.94-2.07 2.1-2.07 1.16 0 2.1.927 2.1 2.07zm-.717-.004a1.37 1.37 0 00-1.38-1.36c-.762 0-1.38.61-1.38 1.36a1.37 1.37 0 001.38 1.361c.762 0 1.38-.61 1.38-1.36zM16.506 47.97l1.37-.563.272.603-.024.067-3.627 1.53c-.236-.877-1.116-1.792-.305-2.648.583-.616 1.526-.453 2.008.193.264-.448.501-1.014.793-1.435.021-.03.103-.136.123-.115l.3.83-.91 1.538zm-.524.258c-.14-.485-.564-1.288-1.176-.837-.44.324-.1.875.044 1.264l1.132-.428zm42.553-22.002c-1.679-.224-2.357-2.587-.983-3.682 1.777-1.414 4.181.665 3.191 2.624l-.089.025c-.053-.197-.4-.503-.431-.678-.019-.104.048-.27.037-.42-.042-.604-.537-1.185-1.161-1.266-1.61-.21-2.252 1.968-.716 2.6.098.04.278.04.337.078.104.065.376.595.492.72-.213-.02-.47.027-.677 0v-.001zm-35.611-4.65c.018.065-.017.072-.042.108-.036.051-.435.48-.468.488l-1.073-.287c-.046.013-.586.59-.665.68-.08.09-.29.317-.284.406.01.17.45.83.418.977-.136.157-.298.367-.442.51-.036.036-.04.062-.106.046L18.48 20.7c.009-.092.345-.468.48-.407l3.965 1.284zm-2.287.157c.023-.03.036-.063.06-.093l-1.31-.494L20 22.35c.061.014.072-.009.11-.042.103-.09.439-.46.528-.576zm-5.783 18.223l1.022.391.063.777-4.056-1.425.002-.57 3.836-1.923.023.819-.977.502.087 1.43v-.001zm-.661-.275c-.005-.214 0-.43 0-.645 0-.014-.044-.282-.108-.236l-1.202.516c.005.061.064.068.107.088.354.159.82.217 1.181.384.107-.066.022-.089.022-.106zm48.641-12.632l.204.553-2.884 3.101-.321-.744.728-.819-.566-1.273-1.13-.026-.35-.71 4.318-.082zm-.78.641l-1.442.086.393.904c.066.018.073-.017.11-.042.302-.206.649-.695.938-.947zm-4.86 23.649a1.25 1.25 0 01.882.187l2.228 1.724c.027.088-.334.468-.412.568l-2.262-1.724c-.626-.258-1.184.383-.774.935l2.208 1.787-.438.548c-.816-.62-1.662-1.221-2.4-1.93-.532-.832-.023-1.953.968-2.096zm-13.308 8.644v.646h-1.332l-.152.688c1.424-.589 2.518 1.207 1.485 2.262-.863.882-2.349.374-2.403-.84l.658-.022c.115.052.123.493.51.571.6.122.92-.31.837-.87-.084-.571-.917-.745-1.2-.239l-.628-.131.347-2.065h1.878zM32.62 12.318l.156.647-1.376.39.22.855 1.322-.295.201.64-1.308.349.218.902 1.376-.385.195.685-2.095.561-1.049-3.788 2.14-.56zm3.317 51.626l.873-1.378c-1.028.266-1.696-.79-1.4-1.703.495-1.525 2.82-1.139 2.756.478-.034.84-1.053 1.88-1.465 2.603h-.764zm.687-3.349c-.756.118-.687 1.428.119 1.413.983-.02.856-1.565-.119-1.413zm-19.295-9.316c.082-.14-.693-1.06-.645-1.214.083-.078.487-.359.564-.31.137.085.6 1.076.726 1.097l.753-.432-.018-.123c-.11-.248-.65-.883-.677-1.103-.009-.074.028-.053.055-.076.04-.034.465-.284.494-.281l1.151 1.781c-.86.56-1.735 1.108-2.619 1.632-.13.077-.59.383-.683.406-.038.01-.069.015-.1-.012l-1.072-1.79.527-.344.792 1.202.752-.434zM55.188 58.6l-1.741 1.192-.392-.54 1.138-.84-.489-.705-.125.015-1.027.746-.414-.55 1.095-.758c.01-.064-.462-.7-.528-.732-.033-.016-.054-.022-.085.001l-1.072.798-.396-.56 1.73-1.229 2.306 3.161zm6.902-16.954l-.129.722c-.757-.092-.883 1.072-.143 1.122.697.047.746-1.211 1.614-1.33 1.76-.24 1.683 2.528-.069 2.321l.18-.77c.446.083.705-.567.297-.797-.513-.289-.802.534-1.066.836-1.065 1.22-2.7-.179-1.95-1.493.244-.429.769-.745 1.267-.612zM41.049 59.983v.71l-1.463 3.25h-.764l1.484-3.271h-1.572v-.69h2.315zm22.403-14.51l.649.24-.74 2.085-.654-.216.217-.773-3.049-1.055.218-.62.142-.004 2.932 1.021.285-.678zM12.748 34.366l-.084.728 3.202.309.06.057-.078.667-3.273-.3-.044.733-.699-.043.219-2.24.697.089zm49.347 16.016l-1.164 1.89-.578-.318c.051-.173.428-.534.305-.693l-2.713-1.592c.047-.111.31-.628.409-.618l2.722 1.627.434-.595.585.299zm-6.27 5.018c.135.138.804.862.898.902.084.036.447-.389.553-.45l.496.429-1.638 1.548-.454-.489c.049-.116.545-.445.501-.544l-2.204-2.266.499-.531c.472.446.897.938 1.35 1.402zm-37.258-1.094c-.082.14.346.474.388.617l-.504.45-1.369-1.705.496-.444.518.555 2.503-1.972.43.555-2.462 1.944zm27.719-41.47l-.962 3.074 1.18.372-.175.687-1.911-.623 1.125-3.683.743.173zM64.102 30.36l.175.688-3.14.822.302 1.201-.699.173-.478-1.892 3.84-.992zm-40.693-9.172l-2.415-2.942c-.062-.14.396-.379.477-.5l2.068 2.434c.033.03.055.008.085-.002.202-.068.786-.688.904-.709.112.023.46.452.431.514l-1.55 1.205zm10.782 38.795v3.96h-.742v-3.4h-.699v-.56h1.441zM12.368 32.565l-.145.726 3.923.763.145-.726-3.923-.763zm52.758 2.811l-3.978.326.064.756 3.978-.326-.064-.756zm-5.803 11.702l-.32.673 3.614 1.663.32-.674-3.614-1.663zm-34.02 9.107l-2.272 3.236.619.423 2.272-3.237-.619-.422zm32.535-36.397l-2.932 2.685.52.553 2.933-2.685-.52-.553zm-5.131 10.098l-13.996 12.4-13.82-12.119 5.897-4.305 16.263-.023 5.656 4.048zm-2.009.302l-4.386-3.578-.174-.043-13.93.005-4.653 3.421 11.462 10.173 11.681-9.978z"/><path d="M47.946 30.446l-9.235 8.01-8.973-7.86 4.045-2.857c3.478-.14 6.977.02 10.465.003l3.698 2.704zm-1.66.214c.016-.075-.039-.106-.086-.15-.787-.75-1.806-1.426-2.643-2.13-2.88.025-5.78-.056-8.647.04l-3.12 2.391 7.14 6.258 7.356-6.409z"/></g><path d="M151.461 16.908h6.541v42.176h-6.541V16.908zm-25.848 26.179v-5.944h17.634v.316c0 7.335-2.116 13.026-6.348 17.073-3.762 3.583-8.614 5.375-14.557 5.375-5.942 0-10.794-1.918-14.556-5.754-4.232-4.3-6.348-9.612-6.348-15.935 0-3.162.577-6.112 1.731-8.853 1.154-2.782 2.65-5.08 4.489-6.892 1.923-1.897 4.275-3.414 7.053-4.553 2.822-1.18 5.836-1.77 9.042-1.77 4.232 0 7.952.885 11.158 2.656 2.95 1.644 5.258 3.752 6.925 6.323l-5.194 3.604c-1.539-2.108-3.292-3.71-5.258-4.806-2.095-1.222-4.617-1.833-7.567-1.833-4.574 0-8.336 1.454-11.286 4.363-1.411 1.391-2.522 3.14-3.334 5.248a18.118 18.118 0 00-1.219 6.576c0 4.511 1.475 8.326 4.425 11.446 2.693 2.824 6.263 4.236 10.709 4.236 3.805 0 6.989-1.244 9.554-3.73 2.095-2.024 3.292-4.406 3.591-7.146h-10.644zM86.707 16.908h6.54v42.176h-6.54V16.908z" fill="#000"/><defs><clipPath id="clip0_143_5677"><path fill="#fff" d="M0 0h77.073v76H0z"/></clipPath></defs></svg>