<svg width="230" height="58" fill="none" xmlns="http://www.w3.org/2000/svg"><g clip-path="url(#clip0_143_5675)" fill="#000"><path d="M49.324 29.258c-.924.085-1.957.05-2.863.132-4.25.387-9.716 1.238-12.664 4.507-2.827 3.135-3.6 9.282-3.802 13.336-.16 3.227.237 7.216-.123 10.321-.022.193-.028.398-.269.446-.21-1.245.012-2.522-.003-3.8-.058-4.967-.325-13.012-2.257-17.537-3.729-8.728-18.824-7.211-26.86-7.533-.18-.008-.554.107-.466-.192.976-.002 2.043-.17 2.993-.2 6.837-.217 18.845.645 23.235-5.497C29.94 18.07 29.56 6.609 29.478.46c0-.095.1-.464.19-.461.338.39.035.856.055 1.226.33 6.149-.125 16.179 3.153 21.449 3.28 5.271 10.736 5.604 16.448 5.939.002.215-.003.43 0 .644zm21.054 10.569c-.059-.348.064-.223.29-.292 1.325-.406 1.854-.31 1.98-1.957.425-5.523-.32-11.56-.017-17.137-.174-.767-.511-1.416-1.316-1.69-.352-.12-.961.082-.937-.447 4.198.306 11.253-1.074 14.463 2.186 1.952 1.984 1.778 5.624-.274 7.476-1.099.99-2.206 1.14-3.43 1.709-.151.07-.235.082-.217.274.007.066.572.994.675 1.156 1.839 2.886 5.591 6.486 8.815 7.843.328.138 1.485.598 1.75.607.797.027 1.867-.652 1.926-1.478-.304-5.53.446-11.533.017-17.007-.11-1.4-.588-2.544-2.272-2.379v-.385c3.577.135 7.299-.185 10.861 0 6.081.316 11.086 4.191 11.129 10.374.046 6.774-4.441 10.784-11.256 11.154-3.338.181-8.009.2-11.34 0-6.15-.367-10.103-4.843-12.92-9.673h-2.198c-.076-.284.12-.314.364-.352.731-.115 1.53-.063 2.277-.252 6.811-1.719 5.756-10.352-1.508-10.352h-1.933c-.245 3.31-.122 6.666-.128 9.994-.004 2.654-.26 5.444-.002 8.112.088.909.362 1.74 1.326 2.069.352.12.96-.084.936.447h-7.063.002zm26.386-20.364v17.85c0 .648.613 1.252 1.278 1.343 7.802 1.055 14.623-3.174 12.896-11.442-1.216-5.82-6.011-7.766-11.57-7.746-.867.004-1.737-.014-2.604-.006v.001z"/><path d="M49.322 28.614c-.037-2.384.32-5.945-.033-8.153-.189-1.185-.995-1.833-2.234-1.772v-.515h7.33l-.078.399c-.828.145-1.828.278-2.124 1.144-.39 1.138-.319 6.513-.203 7.937.02.249.079.466.14.702h11.594v-7.668c0-.337-.322-1.234-.59-1.493-.036-.035-.661-.492-.704-.501-.354-.07-.98.181-.971-.392h7.063c.054.334-.05.233-.288.295-.921.238-1.637.232-1.97 1.324.265 5.484-.377 11.31-.013 16.754.06.895.229 2.175 1.168 2.607.466.214 1.223-.012 1.236.545h-7.063c-.024-.53.592-.331.94-.444.44-.142 1.192-.508 1.192-1.038v-8.829H51.987v8.185c0 .528.72 1.404 1.24 1.634.328.144 1.079.089 1.025.492H47.39c-.028 0-.152.194-.198.13-.123-.714.908-.39 1.53-.774.32-.197.64-.63.702-.998.03-2.828.064-5.662.041-8.49-.001-.235-.142-.413-.142-.436-.003-.216.002-.43 0-.645zm169.915-1.16c.215.05.309-.041.469-.125 2.119-1.103 2.958-2.28 5.689-1.515 7.204 2.02 5.516 13.436-1.997 14.366-1.599.199-2.606-.158-4.029-.74l.15 5.718 2.909.988c.072.08-.046.627-.16.739-.399.392-6.476.047-7.477.14l-.231-.305c-.065-.803 1.734-1.094 1.854-1.436.303-5.697.093-11.414.156-17.121-.081-.427-1.311-.77-1.711-.985-.081-.282-.044-.557.17-.763.299-.287 3.721-1.004 4.12-.875.453.146-.095 1.477.088 1.914zm3.289.048c-.747-.017-3.003.657-3.153 1.438v8.887c.065.433 1.278.777 1.671.832 7.185 1.021 7.89-11.018 1.482-11.157zM115.29 39.956c-.121-1.493 2.034-1.173 2.631-2.16 2.441-5.575 5.202-11.095 7.107-16.85l-.249-1.2c.518-.126 1.929-1.31 2.306-1.318.449-.009.413 1.293.525 1.686.248.867.741 1.944 1.076 2.826 1.854 4.894 4.067 9.678 6.021 14.535.334.37.653.631 1.102.872.449.241 1.816.605 2.008.771.249.215-.113.84-.206.84h-7.063c-.304 0-.115-.592.008-.766.281-.399 1.156-.582 1.127-1.092l-2.27-5.648c-.077-.161-.294-.205-.458-.206-.9-.003-2.036.215-2.933.24-.63.019-3.79-.128-4.005.123l-2.071 5.47 2.679 1.04c.261.128-.1.837-.207.837h-7.129.001zm10.66-16.884l-.296.166-2.882 7.27c-.055.135.082.244.201.279.661.193 2.956-.013 3.85.014.352.01 1.806.384 1.919-.068l-2.792-7.66v-.001zm39.046 3.738c-.565.737-1.751.435-2.597.516-.685.066-1.38.203-2.067.257v9.215c0 .076.358.862.457.976.546.628 2.004.602 2.776.475.603-.098 1.074-.598 1.696-.613.336 1.39-1.438 2.306-2.629 2.547-2.652.536-4.862-.676-5.097-3.387-.255-2.934.199-6.166-.02-9.132-.108-.307-1.514-.341-1.919-.465-.152-.047-.234.091-.196-.195.04-.304.347-.629.421-.947l1.785-.142.799-3.481c.234-.48 1.5-.991 2.059-.91-.019.88.024 1.767.002 2.648-.006.296-.303 1.863.064 1.863h4.864c-.173.188-.285.622-.399.773.181-.035.398-.056.561-.139.739-.379 1.719-.656 2.606-.857.24-.054 1.698-.356 1.763-.293-.045.742.148 1.477.332 2.194.556 2.168 1.458 4.626 2.198 6.768.213.617.385 1.312.737 1.865l3.936-10.111c.331-.081.856-.386 1.037.017l3.756 10.353.391-.007c1.337-3.086 2.947-6.082 2.679-9.602-.085-1.117-1.063-2.371.692-1.827.214.067 1.234.594 1.362.745 1.323 1.557-1.027 6.139-1.83 7.754-.633 1.273-2.952 5.891-3.894 6.544-.137.096-.339.275-.514.243l-.318-.338-3.466-9.276-.296-.164-3.371 8.534c-.304.6-.801 1.087-1.485 1.257l-4.548-12.49c-.367-.498-1.687-.15-2.318-.4l-.006-.767-.003-.002zm-26.521 13.146c-.234-1.298 1.869-1.128 2.006-2.12l-.005-9.415c-.075-.393-1.178-.777-1.594-.845-.062-.067.078-.773.158-.864.144-.163 4.08-1.346 4.233-1.191l-.067 2.447c2.111-1.613 4.667-3.304 7.388-1.86 3.473 1.845 1.675 8.653 2.174 11.824.119.59 1.807.807 2.309 1.248.095.258-.121.775-.41.775h-6.13c-.078 0-.193-.194-.196-.312-.025-.859 1.266-.995 1.455-1.694.325-1.202.281-6.21.14-7.595-.386-3.779-4.852-3.366-6.659-.9l.009 8.232c.044.917 1.125.985 1.797 1.36l-.076.907h-6.53l-.002.003zm53.907-7.476c-.448.123-.232 1.475-.167 1.837.424 2.342 2.236 4.127 4.736 4.318 1.75.134 2.705-1.47 4.291-1.901.223.93-1.123 2.486-1.905 2.861-1.63.781-4.47.87-6.14.215-5.354-2.098-5.358-10.21-.795-13.11 4.452-2.83 10.261-.063 9.118 5.308-.04.06-1.336.471-1.41.471h-7.73l.002.002zm-.2-1.16h6.396c.531-1.524-.315-4.342-2.192-4.516-2.681-.25-4.043 2.265-4.204 4.517zm10.793 8.636c-.241-1.257 1.273-1.097 1.934-1.803.129-2.03.029-4.08.066-6.122.019-1.002.276-2.164.119-3.21-.157-1.047-1.379-.966-1.662-1.496-.513-.961 3.304-1.59 3.866-1.798.359.072.391 2.326.475 2.765l.263.064c.779-1.638 3.551-3.454 5.384-2.56.241.117.428.142.485.436.099.5-.769 3.264-1.2 3.484-.142.072-.267.104-.407.001-.357-.375-.849-2.093-1.364-2.102-1.245-.022-2.746 1.621-3.032 2.738l-.003 7.844 3.073.92c.289.202.035.579-.001.84h-7.996v-.001z"/></g><defs><clipPath id="clip0_143_5675"><path fill="#fff" d="M0 0h230v58H0z"/></clipPath></defs></svg>