<svg width="239" height="78" fill="none" xmlns="http://www.w3.org/2000/svg"><g clip-path="url(#clip0_33_2607)" fill-rule="evenodd" clip-rule="evenodd" fill="#fff"><path d="M234.25 21.332c-2.289 0-4.393-1.786-4.393-4.366 0-2.58 2.032-4.365 4.393-4.365 2.36 0 4.421 1.899 4.421 4.38 0 2.324-1.86 4.35-4.421 4.35zm0-8.349c-2.175 0-4.006 1.744-4.006 3.983 0 2.24 1.802 3.983 4.02 3.983a3.974 3.974 0 004.02-3.969 3.995 3.995 0 00-4.02-3.982l-.014-.015zm-.043 1.191c.572 0 .973 0 1.302.128.601.212.887.765.887 1.275 0 .383-.143 1.05-1.131 1.304.53.227.687.539.787 1.163.115.765.172 1.148.415 1.644h-1.13c-.157-.326-.186-.525-.3-1.205-.186-1.162-.258-1.276-1.66-1.276v2.48h-.987v-5.513h1.817zm-.816 2.24h.816c.415 0 1.187 0 1.187-.766 0-.227-.1-.51-.4-.652-.201-.07-.372-.07-.973-.07h-.63v1.487zm-10.056 46.632c-.272-.765-.587-1.771-.587-1.771l-5.365-14.104c-.129-.312-.358-.467-.673-.467h-14.965c-.272 0-.472.17-.601.524l-3.619 9.51c-.673 1.645-1.002 2.992-1.002 4.055 0 .666.2 1.176.601 1.53.401.355 1.102.525 2.089.525h1.001c.673 0 1.002.184 1.002.538 0 .44-.387.667-1.145.667-.844 0-2.06-.029-3.62-.071-1.745-.085-2.904-.128-3.49-.128-.129 0-.63.029-1.474.071-.673 0-1.617.029-2.847.071-1.231.042-2.432.07-3.591.07-.844 0-1.274-.226-1.274-.665 0-.355.272-.539.802-.539.672 0 1.373-.043 2.088-.128 1.431-.17 2.547-.736 3.363-1.7.801-.95 1.588-2.382 2.346-4.295l16.854-41.771c.4-1.02.744-1.715 1.001-2.098.272-.383.558-.567.873-.567.501 0 1.059.709 1.674 2.126.315.666.987 2.282 2.017 4.862l4.035 10.05 6.409 15.803 1.774 4.394 2.418 5.826c1.116 2.665 2.146 4.479 3.091 5.457.944.978 1.888 1.573 2.818 1.8.902.17 1.831.27 2.819.27.586 0 .872.184.872.538 0 .27-.2.44-.601.524-.4.085-1.23.128-2.489.128l-6.41-.142c-1.902 0-3.805.142-5.265.142-.414 0-.629-.255-.901-1.006m-20.287-19.702h12.347c.229 0 .329-.128.329-.397l-6.038-16.428v-.07c-.086-.355-.2-.54-.329-.54-.186 0-.315.199-.4.596l-6.181 16.357c0 .312.086.468.272.468m-61.965-4.607l-.029 4.677c-.043 1.333-.071 4.919-.071 8.902v7.3c0 .878-.043 1.445-.129 1.686-.086.241-.329.482-.73.695-2.003 1.02-4.463 1.771-7.368 2.253a53.442 53.442 0 01-8.77.723c-4.235 0-8.212-.51-11.918-1.53-3.705-1.021-6.982-2.594-9.843-4.706-2.862-2.127-5.108-4.848-6.725-8.165-1.63-3.317-2.446-7.186-2.446-11.608 0-4.947 1.102-9.313 3.32-13.069 2.203-3.756 4.992-6.633 8.34-8.618 2.905-1.729 5.78-2.877 8.642-3.444 2.861-.581 5.98-.865 9.371-.865 1.116 0 2.26.029 3.419.1a90.991 90.991 0 016.696.666c.801.113 1.388.212 1.746.297.887.17 1.831.34 2.818.468.987.128 1.803.227 2.475.27.63.042.93.311.93.793 0 .128-.014.369-.071.723-.086.978-.172 2.197-.272 3.685-.1 1.489-.129 3.643-.129 6.464 0 .935-.243 1.389-.744 1.389-.358 0-.572-.284-.672-.865a14.142 14.142 0 00-.673-2.948c-.315-.907-.844-1.758-1.602-2.551-1.202-1.276-3.134-2.467-5.795-3.544-2.661-1.091-5.708-1.63-9.142-1.63-2.461 0-4.75.255-6.896.765s-4.263 1.63-6.367 3.346c-1.96 1.63-3.476 3.77-4.549 6.406-1.073 2.637-1.603 5.91-1.603 9.851 0 3.544.544 6.832 1.646 9.88 1.101 3.047 2.661 5.698 4.721 7.965 2.06 2.254 4.521 3.998 7.397 5.245 2.876 1.233 6.066 1.857 9.543 1.857 1.244 0 2.332-.043 3.247-.128.916-.085 1.732-.283 2.447-.595.844-.397 1.273-1.22 1.273-2.452v-6.237c0-3.898-.028-7.441-.071-8.774-.043-1.148-.272-2.012-.673-2.58-.4-.58-1.144-.977-2.217-1.19-.53-.127-1.402-.198-2.619-.198-.672 0-1.001-.17-1.001-.525 0-.44.472-.666 1.402-.666 1.202 0 3.233.042 6.095.127 1.96.043 3.176.071 3.62.071.5 0 1.688-.042 3.505-.113.386 0 .472.255.472.425m20.988 6.053v-21.9a50.8 50.8 0 00-.128-3.855c-.129-2.168-.902-3.401-2.275-3.713-.673-.17-1.474-.27-2.404-.27-.715 0-1.073-.226-1.073-.666 0-.354.53-.524 1.603-.524.844 0 2.475.042 4.893.127 1.874.043 3.147.071 3.82.071.529 0 1.631-.014 3.276-.07 2.318-.086 3.949-.128 4.893-.128s1.402.17 1.402.524c0 .44-.358.666-1.073.666-.529 0-1.202.071-2.003.199-.887.17-1.502.553-1.846 1.134-.329.567-.543 1.46-.629 2.65a50.496 50.496 0 00-.129 3.856v21.899c0 4.11 0 7.242.043 9.383.014 2.14.1 3.855.229 5.145.129 1.02.372 1.786.73 2.282.357.51 1.001.822 1.945.964.487.042 1.045.1 1.674.17.63.07 1.202.1 1.746.1.715 0 1.073.17 1.073.524 0 .439-.429.666-1.273.666-1.875 0-4.336-.043-7.369-.142-1.43-.042-2.46-.07-3.076-.07-.357 0-1.402.028-3.147.07-2.59.085-4.35.142-5.294.142s-1.345-.227-1.345-.666c0-.355.358-.525 1.073-.525.802 0 1.603-.085 2.418-.27 1.073-.226 1.717-1.331 1.946-3.316.129-1.276.229-3.005.272-5.145.043-2.14.071-5.259.071-9.327M53.28 19.773l1.917-1.006-.572-.397-1.245.737.258-1.432-.573-.383-.3 2.127-.773 1.077.53.368.758-1.091zm-10.287-4.125l.458.085.4 1.375.73.128-.486-1.503c.086-.014.157-.042.243-.07a.806.806 0 00.215-.142.628.628 0 00.171-.213.912.912 0 00.1-.298.928.928 0 000-.396.745.745 0 00-.157-.34 1.038 1.038 0 00-.715-.426l-1.26-.213-.557 3.19.63.113.228-1.276v-.014zm.243-1.36l.587.099a.522.522 0 01.315.17c.071.099.1.198.071.326a.441.441 0 01-.171.283.497.497 0 01-.358.057l-.601-.1.143-.85.014.014zm14.379 7.342l-1.574-.085-.086 1.559 1.574.085.086-1.56zM16.869 37.15l-.573-.014-.043 1.488-.786-.014.028-1.276-.558-.028-.043 1.276-.772-.014.043-1.503-.558-.014-.072 2.126 3.262.1.072-2.127zm25.136 13.72l-.286.766h4.878l-.157-.765h-4.435zm7.325-31.905l1.159-2.41.773.355.243-.51-2.118-.993-.243.51.773.355-1.16 2.424.573.269zm3.39 38.085l.358.44 1.174-.95.5.61-1.001.808.358.44 1.001-.809.486.581-1.173.95.358.44 1.674-1.347-2.075-2.509-1.66 1.347zm6.883-27.993l.287.666 1.287.128-.8 1.02.285.666 1.145-1.573 1.845.255-.286-.666-1.187-.114.744-.92-.286-.667-1.102 1.488-1.931-.283z"/><path d="M54.883 27.71l-.029-.141H23.78l-.028.141s-1.03 6.038.357 12.842c1.288 6.293 4.98 14.6 15.194 18.469l.058.028.071-.028C49.79 55.01 53.438 46.704 54.668 40.453c1.345-6.775.215-12.672.2-12.729l.015-.014zM42.95 39.687s.129.043.143.114c0 .07.1.156.143.24.029.058.071.072.057.114 0 .029-.114.128-.157.142-.029 0-.072-.043-.158-.028-.085.028-.271 0-.314.056a.701.701 0 01-.23.085l-.171-.723c.215-.028.43-.056.644-.07 0 .028.028.07.043.085v-.015zm-11.203.27c0 .24-.443.354-.243.51.172.142.043.284-.1.454h-.873c0-.241-.029-.482-.029-.723.387-.17.802-.34 1.23-.496 0 .085.03.226.03.255h-.015zm17.655.156c.014.085.115.184.129.283.029.199-.029.411-.043.468v.042H48c-.029-.155-.071-.326-.1-.481-.043-.199-.1-.411-.143-.61.1.014.286.07.315.142.028.056-.043.127 0 .156.043.028.1.056.157.085.057.028 0 .099.057.127.086.043.086 0 .172.057.172.128.214-.17.258-.198.114-.071.2.07.343.07.086 0 .2-.198.315-.283.042-.028.071-.043.1-.043.028 0-.043.1-.029.185h-.043zm-14.88.198c-.1-.057-.314 0-.428-.028l-.315-.156c-.029-.014 0-.029.014-.043.029-.014.072-.042.086-.042.014 0-.043-.114-.072-.128a.78.78 0 01-.085-.113c-.029-.043-.072-.114-.072-.114-.071-.127 0-.212-.186-.226-.043 0-.243.326-.386.326-.014-.199-.043-.383-.057-.567a43.42 43.42 0 012.418-.737c.1.666.228 1.375.372 2.083-.358.1-.716.199-1.074.312a.782.782 0 00.072-.184c0-.085-.258-.355-.286-.369v-.014zM29.26 38.98h-.1c-.029 0-.043.014-.058.028v.128c0 .042-.171.312-.2.34-.014.014-.129.028-.215 0 .043-.227.086-.44.144-.652l.3-.17c.186.085.129.283.129.297v.029zm-.3-.61c.1-.326.214-.638.343-.95.086.086.214.17.186.312-.029.114-.115.17-.143.27-.029.085-.043.127-.086.198-.1.057-.2.114-.3.156v.014zm1.502-1.786c-.1.071-.029.1-.186.185-.015 0-.23.283-.186.354.043.07-.1.397-.015.44.086.042-.057.155-.057.184 0 .014-.2 0-.243-.085-.115-.185.043-.355.028-.412-.042-.099-.2-.198-.3-.212.043-.071.072-.156.114-.227.344-.198.716-.397 1.13-.595a3.405 3.405 0 00-.114.354c-.043 0-.086-.028-.143 0l-.028.014zm.73-.58c.443-.2.93-.383 1.444-.582a.702.702 0 00.158-.057c-.086.44-.143.922-.186 1.418-.072.028-.143.057-.215.07-.072-.056-.086-.184-.114-.212-.058-.07-.158-.028-.186-.043-.043-.028-.043-.099-.1-.099-.03 0-.23-.056-.315-.113-.058-.043-.358-.199-.415-.199a.302.302 0 00-.158.057 3.82 3.82 0 00.086-.24zm-.015 3.514s-.1.043-.143.057c0-.184.043-.113.071-.24 0-.03-.157-.086-.214-.114-.215-.156-.129-.397-.072-.468.057-.07.43-.397.315-.454-.229-.099.186-.552.33-.496.142.057.314-.283.471-.227.172.057.1.071.143.185.029.07-.028.17-.043.24-.014.072-.143.1-.114.227.028.128-.343.568-.372.596-.072.042-.086.326.086.24.143-.07.214.128.243.17-.243.1-.486.185-.73.284h.029zm2.733-4.252s.057.128.057.184c0 .057.071.1.086.1.028 0 .043-.015.071-.029.086-.028.1.029.2.029.015 0 .072.014.115.042.057.029.043.114 0 .156a.241.241 0 01-.086.085c-.2.043-.4-.085-.343.298 0 .085.043.156.086.198-.358.1-.644.199-1.116.354.043-.51.1-.992.2-1.431.343-.113.587-.198.816-.255-.058.099-.115.212-.1.283l.014-.014zm14.95 3.657c-.2-.042-.3.057-.414.156-.23-.014-.473-.043-.73-.057v-.014c.086-.227 0-.496.1-.737.029-.057.143-.17.243-.156.043 0 .058.1.13.128.028 0 .042.07.056.127 0 .029.072-.014.13 0 .07.029.17.1.228.057.1-.07.2-.156.272-.184h.014c.086.212.172.44.258.652-.1 0-.23.042-.3.028h.014zm-2.59 1.219s.073.014.144 0c.029 0 .043-.1.043-.1-.072-.042-.258-.07-.4-.14-.03-.015-.015-.072-.058-.086-.157-.057-.315-.07-.358-.128-.085-.099-.057-.24.072-.255.1 0 .358.085.53.142h.286c.042.043.028.284.1.298.128.028.143.142.214.24.029.043.115.029.172.086.086.085.172.255.214.312.1.141.244.099.33.056.028.114.042.227.071.326h-1.345s-.043-.113-.028-.156c0-.028.043-.028.057-.056.029-.071.086-.142.1-.241 0-.071-.129-.255-.114-.312l-.03.014zm-2.417-2.906c.186.255.172.255-.071.383-.1.043-.344.198-.344.326 0 .113.129.17-.029.227-.071.014-.3.227-.357.099-.043-.1.043-.227 0-.312-.029-.042-.115-.042-.157-.028-.015 0-.044-.014-.044-.043-.085-.212-.572-.397-.715-.51-.057-.042-.043-.1-.028-.156a23.967 23.967 0 011.788-.156v.029c0 .07-.072.099-.043.155v-.014zm-5.522.567c.157.638.314 1.333.486 2.056a40.63 40.63 0 00-2.604.609 54.464 54.464 0 01-.372-2.084c.83-.212 1.674-.41 2.49-.58zm-.43-4.592s.029-.085.029-.128c0-.07-.1-.156-.129-.198 0-.029-.057-.043-.114-.071.386-.07.772-.128 1.159-.184.2.212.4.482.586.78-.53.07-1.059.155-1.588.269-.029-.114-.072-.284.043-.454l.014-.014zm6.41 1.431c.043-.113.1-.17.071-.368 0 0 .043-.057.072-.1.143.142.272.298.4.468h-.557.014zm-1.374.752s-.157.141-.186.255c-.085.27.244.553.215.567v.028c.029.043.071.156.129.213a.22.22 0 00.157.07s.029 0 .043-.014h.057c.029 0 .057 0 .115-.028a.817.817 0 00.128-.113c.043.099.086.198.144.311-.83.057-1.202.1-1.846.17a.362.362 0 00-.129-.17c-.028-.028-.243.1-.314.17-.2-.566-.401-1.105-.616-1.601a37.765 37.765 0 012.075-.198c.028.042.043.07.071.113-.1.128 0 .128-.043.227zm-7.167 2.41c.143-.03.157.07.3-.185.057-.1 0-.198.029-.34.014-.114.2-.567.085-.652-.128-.1.272-.326.372-.312.086 0 .086-.042.1-.1 0 0 .03-.14.044-.226.372-.085.758-.17 1.13-.24.129.51.272 1.076.429 1.686-1.159.24-1.474.326-2.46.567 0-.071-.015-.142-.03-.213h.015l-.014.014zm2.26-3.502s.043-.127 0-.156a.663.663 0 01-.129-.141 25.824 25.824 0 011.732-.284c.214.369.429.78.629 1.233-.73.1-1.46.227-2.175.369-.057-.227-.128-.454-.186-.68.1-.114.186-.227.115-.34h.014zm4.664.411c-.873.071-1.173.1-2.017.199a16.515 16.515 0 00-.63-1.233 46.827 46.827 0 011.746-.17c.315.34.615.75.901 1.204zm-.744-1.559a7.67 7.67 0 00-.815-.737c.343 0 .686-.014 1.001 0 .4.199.787.425 1.16.709-.43 0-.874 0-1.346.028zm-.472.029c-.53.042-1.087.099-1.63.17a5.83 5.83 0 00-.573-.78c.543-.07.758-.085 1.302-.128.3.199.6.454.901.737zm-3.748 2.21l-.773.17c.186-.481.486-.51.644-.623.043.142.086.298.129.468v-.014zm1.173.157a1.036 1.036 0 01-.243.212c-.029.014-.158.27-.1.355.057.07.1.17.171.226-.043.043.258-.156.243-.07-.043.184.244-.071.258-.086.172-.155.358-.368.515-.51.057-.042-.086-.156-.215-.24.258-.043.53-.086.902-.128.214.51.429 1.063.63 1.658-.788.113-1.603.241-2.433.397a57.692 57.692 0 00-.43-1.687c.273-.056.502-.099.688-.127h.014zm5.823.68c.086-.1-.072-.198-.1-.27-.015-.056.228-.34.128-.425-.028-.028-.343-.17-.343-.198 0 0-.029-.241-.057-.326h.644c0 .043 0 .1-.029.156-.043.17.272.184.286.184h.1c.086.128.158.241.243.369-.128.042-.214.397-.214.496 0 .41.143.141.157.283 0 .043-.028.1-.071.142-.344 0-.687 0-1.03.028.028-.212.343-.113.357-.312 0-.028-.157-.042-.1-.113l.029-.014zm1.545-1.148s.014 0 .029.014c.014 0 .2.411.186.496-.03.085-.33.043-.487.057-.1-.156-.2-.312-.3-.454 0 0 .028-.014.043-.028a.81.81 0 01.257-.1c.086 0 .172.015.272.029v-.014zm-1.116-.638a7.876 7.876 0 00-.458-.524c.143-.128.444-.27.53-.142.1.127-.086.524-.072.666zm-1.674-.808s0 .142.029.199c.085.212-.043.07-.1.354-.058.27.128.127-.1.354a.505.505 0 00-.087.156h-.1c-.272-.44-.572-.836-.872-1.205.6-.028.83-.028 1.302-.014.042.071-.058.114-.072.17v-.014zm-2.804-1.53a5.394 5.394 0 00-.43-.227h.187c.3.042.586.113.887.198-.186 0-.372 0-.63.028h-.014zm-1.688.155c-.158-.142-.258-.24-.358-.312.243-.028.472-.042.687-.056.243.056.486.141.744.255-.344.028-.701.07-1.06.113h-.013zm2.189 5.06c.057.17.114.34.157.51a.345.345 0 00-.1.043c-.072 0-.043.255-.043.27-.029.056 0 .141.014.212.029.071.115.014.129.043.072.099-.172.382.029.396a.382.382 0 00.2-.085l.172.638a38.56 38.56 0 00-2.561.425c-.186-.807-.344-1.46-.487-2.055a49.388 49.388 0 012.461-.41l.029.013zm.987 1.985c-.1-.369-.186-.709-.286-1.05.372-.127.243.298.4.171.029-.028.215.1 0 .184-.128.057.043.156.086.184.129.086.286-.496.615-.226.029.028 0 .056-.028.099-.029.042-.015.057-.072.1-.071.042-.086.056-.143.07-.028 0 .014.156.029.17.028.071-.158.199-.272.284-.115 0-.215.028-.315.042l-.014-.028zm3.176 1.176c-.043-.212-.1-.41-.143-.623.1.113.2.198.358.212a.73.73 0 01.186.029c.071 0 .128.085.2.113.086.028.172.156.2.227 0 .028.043.198-.043.24-.071.043-.2.043-.3.043-.057 0-.129.043-.129.142v.057h-.243c-.029-.142-.057-.298-.1-.44h.014zm3.977-2.154c.258.042.816 0 1.002.44.157.368-.5.155-.773.14a6.791 6.791 0 00-.229-.58zm-5.279-5.457s-.2-.057-.243-.014c0 .028-.029.113-.014.127 0 0-.015 0-.072.043a9.048 9.048 0 00-.816-.567c.187.014.373.042.544.07.2.086.386.17.587.27.028.028.043.07.014.085v-.014zm-5.952-.85c.158.07.3.17.458.297-.272.042-.558.085-.83.142 0 0-.028 0-.028-.029 0 0-.043-.042-.086-.042-.086 0-.186.028-.243 0-.058 0-.043-.029-.029-.071.029-.07.2 0 .215-.184v-.057l.529-.085.014.028zm-2.69 6.094a58.96 58.96 0 00-2.389.723c0-.085 0-.17-.014-.255.258-.057.2-.298.2-.312 0-.07.086-.283.086-.283.186-.029.086-.412.186-.497.1-.07-.014-.269-.1-.24a.287.287 0 00-.157.127c-.029.057-.13.028-.13 0s-.042-.128-.1-.156v-.184c.687-.227 1.045-.34 1.474-.468a.674.674 0 00-.043.397c.015.07.1.042.13.1.028.042 0 .183.028.226.043.07.143.17.143.184.086.1.143.27.214.284.043 0 .115.014.144.056.014.029.128.029.157.057.057.057.1.085.143.071 0 .057.014.113.029.156v.014zm-1.115-3.6c-.344.1-.587.184-.988.312.029-.114.072-.227.1-.326.559-.312.83.014.888.014zm-2.046.07c.129 0 .272.185.343.2.086 0 .258-.157.4-.17-.042.113-.07.24-.1.368l-.071.028a1.919 1.919 0 00-.258.1c-.414.155-.8.297-1.158.453a6.34 6.34 0 01.658-1.092.11.11 0 00.071-.028c.029.085.043.17.115.17v-.028zm-1.46.497c.2-.128.43-.241.673-.355-.143.213-.258.44-.372.68-.057-.056-.143-.112-.186-.112-.015 0-.115-.043-.2-.086a.757.757 0 01.1-.113l-.015-.014zm-.4.553s.472-.071.5-.014c0 .014.043.042.072.042 0 .028-.029.043-.029.07-.343.157-.686.313-.987.483.115-.184.243-.369.372-.553.029 0 .057-.028.072-.042v.014zm-1.903 1.941c.272-.226.386-.311.586-.439-.214.468-.4.964-.543 1.488-.129.085-.23.142-.315.199.014-.057.029-.128 0-.184a.669.669 0 01-.129-.27c.1-.198.23-.44.415-.78l-.014-.014zm1.645 2.793c0 .184 0 .368.014.553h-.629s-.057-.142-.057-.227c.214-.114.443-.213.672-.326zm6.18.553s0-.043-.013-.071a50.32 50.32 0 012.618-.61c.043.227.1.454.157.68h-2.762zm3.163 0c-.043-.199-.086-.383-.129-.581l-.043-.185a46.157 46.157 0 012.575-.425c.086.34.172.695.258 1.091 0 .029.014.057.014.1H39.46zm4.263-.085c.086-.071.072-.17.143-.284.058-.085.2-.156.2-.227 0-.042-.085-.142-.085-.212 0-.071.071-.114.114-.142.115-.07.286.028.344-.028.114-.1.171-.298.286-.369.086.312.157.638.229.964.028.128.057.255.085.368h-1.36s.015-.056.058-.085l-.015.015zM38.387 56.61c-6.396-2.863-10.158-7.186-11.947-13.763h11.947V56.61zm1.946 0V42.862h11.831c-1.602 5.273-4.993 10.56-11.831 13.75zm12.346-15.69h-.042c-1.732-5.656-7.04-9.795-13.32-9.795-6.281 0-11.589 4.125-13.32 9.795h-.014v-.057c-.96-4.777-.759-9.17-.544-11.453h27.798c.3 2.722.458 7.002-.558 11.51zm10.616-8.93c-.114 0-.229.028-.343.057a8.425 8.425 0 01-.386.085c-.143.028-.258.07-.387.099-.114.028-.229.07-.329.113s-.186.1-.272.156c-.085.057-.143.142-.214.241a1.022 1.022 0 00-.157.44c-.03.155-.015.325.028.496.029.141.086.269.157.397a1.097 1.097 0 00.644.481c.143.043.3.057.472.043l-.157-.624a.59.59 0 01-.358-.099c-.114-.057-.186-.17-.214-.326-.015-.085-.029-.17 0-.24 0-.072.043-.143.086-.2.028-.042.057-.07.085-.099.03-.028.086-.056.144-.085.057-.028.143-.056.243-.085.1-.028.229-.056.372-.099a3.02 3.02 0 01.386-.085c.1-.014.186-.028.258-.042h.171c.043 0 .086.028.13.042a.37.37 0 01.156.142.49.49 0 01.1.212c.044.156.03.284-.042.383a.936.936 0 01-.272.255l.157.624c.158-.07.286-.156.4-.255.115-.1.187-.213.258-.326a.957.957 0 00.1-.397c0-.142 0-.284-.042-.425a1.464 1.464 0 00-.2-.454 1.259 1.259 0 00-.659-.44c-.1-.013-.2-.028-.315-.013M58.903 54.84c-.043-.1-.1-.185-.157-.27-.072-.085-.143-.17-.244-.255-.085-.085-.186-.17-.286-.27-.1-.098-.2-.184-.3-.254-.1-.085-.186-.142-.272-.199a1.036 1.036 0 00-.286-.127c-.1-.029-.2-.043-.33-.029a1.04 1.04 0 00-.457.114 1.27 1.27 0 00-.386.297 2 2 0 00-.244.355 1.248 1.248 0 00-.1.397c0 .141.015.269.072.41.043.142.129.27.243.412l.43-.482a.818.818 0 01-.13-.355.573.573 0 01.33-.51.565.565 0 01.343-.028c.043 0 .1.028.157.07.058.029.13.086.215.157.086.07.172.155.3.255.115.099.215.184.287.255.071.07.128.127.171.184.043.057.072.1.086.142.014.042.029.085.029.127 0 .071 0 .142-.029.213-.029.07-.057.142-.114.213-.115.113-.23.184-.344.184a.888.888 0 01-.372-.085l-.429.482c.143.085.286.156.43.184.142.028.285.043.414.014a.981.981 0 00.386-.142c.115-.07.23-.155.33-.269.114-.127.2-.27.257-.425.057-.142.072-.298.057-.468a.716.716 0 00-.071-.312m.614-27.129l-.816-1.261.673-.425.686 1.077.487-.298-.687-1.091.644-.397.815 1.261.473-.297-1.16-1.8-2.76 1.729 1.158 1.8.487-.298zM49.188 61.615l1.516.425.43-1.502-1.517-.426-.43 1.503zM47.615 14.77l-.616-.2-1.001 3.077.6.198 1.017-3.076zm-25.153 8.334l-.029-1.56-1.574.029.029 1.56 1.574-.03zm3.677-2.197l-1.946-2.594-.515.383 1.96 2.593.5-.382zm1.932-1.233l-.958-1.758L29.2 19.05l.501-.27-1.56-2.834-.557.298.958 1.743-2.103-1.134-.5.27 1.559 2.848.572-.297zm-7.426 6.846l-.487-.298-.787 1.29-.686-.411.672-1.092-.486-.297-.673 1.105-.658-.396.787-1.29-.486-.284-1.116 1.829 2.804 1.672 1.116-1.828z"/><path d="M73.424 41.771a1429.91 1429.91 0 015.322-1.672l-5.222-2.042s3.52-1.559 5.108-2.282l-5.408-1.431c1.473-.936 4.821-2.778 4.821-2.778l-5.537-.907 4.421-3.317-5.551-.241 4.078-3.785-5.566.369c1.116-1.29 2.475-2.92 3.62-4.181l-5.494.95 3.105-4.579-5.337 1.573c.758-1.53 2.575-4.918 2.575-4.918l-4.907 1.9 1.788-4.89-4.835 2.664c.443-1.659 1.058-3.643 1.473-5.315l-4.564 3.203s.587-3.827.844-5.457l-4.177 3.671.286-5.528-.286.326c-1.16 1.247-2.275 2.65-3.477 3.77l-.33-5.457-3.261 4.465c-.3-1.686-.687-3.685-.916-5.4l-2.804 4.762L41.633 0l-2.188 5.018-2.132-5.032-1.617 5.258L33.006.44l-1.001 5.387-3.205-4.48-.43 5.486-3.676-4.096.186 5.513-4.15-3.642.816 5.428-4.478-3.231 1.36 5.357s-3.291-1.87-4.793-2.721l1.974 5.174-5.122-2.155 2.518 4.876-5.294-1.588 3.09 4.564-5.479-.992 3.548 4.267-5.508-.44 3.977 3.87-5.536.142 4.406 3.415-5.494.766 4.779 2.877c-1.645.496-3.749.936-5.394 1.404l5.022 2.267a382.398 382.398 0 01-5.165 2.041s3.748 1.12 5.308 1.758L.286 44.209s3.806.794 5.494 1.148c-1.416.95-4.678 3.062-4.678 3.062l5.594.538c-1.288 1.12-4.307 3.572-4.307 3.572l5.623-.042-3.892 3.997 5.566-.695c-1.045 1.36-3.42 4.408-3.42 4.408l5.494-1.247-2.918 4.734 5.336-1.842-2.389 4.989s3.534-1.772 5.065-2.396l-1.789 5.273 4.707-2.962-1.13 5.428 4.35-3.401-.544 5.457 4.02-3.997-.043 5.598s2.475-3.104 3.563-4.337c.243 1.701.686 5.528.686 5.528l2.976-4.734 1.202 5.443.243-.425 2.332-4.65 1.86 5.33 1.946-5.145 2.418 4.918 1.302-5.443s2.089 3.274 2.961 4.748l.701-5.57s2.375 3.076 3.491 4.394l.158-5.429 3.848 3.77-.458-5.414 4.278 3.416c-.343-1.559-1.144-5.5-1.144-5.5 1.43.979 3.29 2.098 4.735 3.034l-1.73-5.301 5.035 2.452s-1.688-3.53-2.346-5.06c1.545.552 3.72 1.318 5.265 1.927.186.142-2.747-4.79-2.747-4.79l5.35 1.304-3.304-4.451 5.48.723-3.878-4.054 5.623.128-4.278-3.615 5.58-.496-4.635-3.132 5.465-1.063-4.965-2.623-.014.057zm3.891-1.9l-7.31-.269 3.29-1.304c1.345.51 2.676 1.035 4.02 1.56v.014zm-8.655 6.904l2.704 2.055-3.448.24s.53-1.53.744-2.31v.015zm-1.317-19.49l3.434.057c-.858.78-1.674 1.559-2.604 2.254l-.83-2.31zm1.088 3.048l3.39.51c-.987.666-1.788 1.332-2.804 1.942l-.6-2.452h.014zm.93 13.181l2.99 1.857-3.477.553.487-2.41zm-.143-9.893l3.276.836-2.904 1.574-.372-2.41zm.457 6.62l3.22 1.487c-1.102.355-2.29.624-3.405.936l.186-2.41v-.014zm-.042-3.332l3.347 1.148c-1.044.454-2.174.893-3.262 1.333l-.071-2.467-.014-.014zm7.54-1.19l-7.283.553 3.105-1.645 4.163 1.078.014.014zm-.63-4.068l-7.14 1.304 2.876-2.013 4.264.709zm-1.002-4.026l-6.938 2.098 2.675-2.296 4.263.184v.014zm-1.445-3.898l-6.71 2.892 2.404-2.636s2.89-.17 4.306-.27v.014zM67 26.506l-1.159-2.197c1.173-.128 3.434-.326 3.434-.326S67.773 25.627 67 26.506zm5.093-6.436l-6.41 3.657 2.047-2.905c1.416-.241 2.947-.496 4.35-.752h.013zm-6.695 3.502l-1.388-2.155 3.276-.496-1.874 2.65h-.014zm4.492-6.988l-5.894 4.224 1.788-3.034c1.373-.397 2.747-.78 4.092-1.19h.014zm-6.295 4.224h-.086l-1.53-1.886 3.376-1.148-1.76 3.034zm3.591-7.428l-5.322 4.876 1.474-3.359 3.848-1.502v-.015zm-5.751 4.961l-1.817-1.715a48.808 48.808 0 013.262-1.516l-1.445 3.231zm-.945-5.726l3.749-2.126-4.836 5.457 1.102-3.345-.015.014zm-1.473 3.416l-1.989-1.488 3.005-1.857c-.244 1.063-.702 2.211-1.016 3.345zm-1.574-5.613L60.89 7.98l-4.15 5.939.702-3.501zm-1.073 3.6c-.701-.354-1.402-.879-2.146-1.247l2.804-2.197c-.229 1.148-.458 2.31-.672 3.444h.014zm-2.218-5.33l3.19-2.862-3.49 6.35.3-3.487zM50.747 7.2l2.847-3.16-2.775 6.69c-.015-1.063-.1-2.339-.058-3.53h-.014zm3.033 1.616l-.3 3.53-2.246-1.035 2.546-2.495zm-3.405-1.403l.057 3.558-2.317-.78v-.113l2.246-2.68.014.015zm-.758-4.677l-2.032 6.93-.458-3.529 2.49-3.401zm-2.804 3.67l.486 3.53-2.49-.51 2.004-3.02zM45.539 1.97l-1.244 6.96-.83-3.345 2.074-3.615zm-2.418 3.856l.902 3.444L41.505 9l1.602-3.189.014.015zM41.405 1.36l-.458 7.243-1.274-3.232 1.732-4.011zm-1.96 4.408s.872 2.055 1.244 3.203l-2.503-.042 1.259-3.161zm-2.247-4.38l.372 7.215-1.573-3.133 1.201-4.082zm-1.445 4.437l1.603 3.189-2.518.269.901-3.444.014-.014zM33.05 1.843s.787 4.748 1.16 7.13l-1.904-2.935.744-4.195zm-.944 4.535l1.946 3.005-2.432.553.486-3.558zm-3.147-3.614l1.945 6.903-2.232-2.594.287-4.309zM28.6 7.569l2.203 2.551c-.758.298-1.588.539-2.36.85l.157-3.4zm-.873 3.218l-2.532-2.31-.158-4.367 2.704 6.69-.014-.014zm-.043.496l-2.303 1.034-.23-3.387 2.533 2.353zM9.142 39.248c-1.116-.368-2.232-.879-3.348-1.304 1.088-.44 2.26-.78 3.405-1.162-.143.765-.043 1.687-.057 2.452v.014zm.186 3.331L5.88 41.573s2.175-1.007 3.262-1.489l.186 2.495zm-3.233-8.32l3.476-.78-.3 2.438-3.19-1.672.014.014zm3.333 9.1l.487 2.466-3.534-.61 3.047-1.857zm-2.618-12.7c1.173-.17 2.39-.256 3.591-.369l-.644 2.41-2.947-2.041zm3.262 15.96c.272.737.5 1.573.787 2.352l-3.562-.184 2.775-2.168zm.5-17.023L8.17 27.328l3.362-.142-.958 2.424v-.014zm11.346-18.98l2.848 2.07-2.261 1.332-.587-3.402zm.015 3.8l-2.046 1.572-.973-3.217 3.033 1.644h-.014zm-.701-8.52l3.448 6.336-2.819-2.07-.63-4.28v.014zm-3.52 2.183l4.12 5.94-3.004-1.702-1.116-4.238zm-3.29 2.523l4.764 5.514-3.162-1.403-1.603-4.097v-.014zm4.892 5.883L17.44 18.27l-1.33-3.118 3.204 1.333zm-7.897-2.977c1.76 1.687 3.591 3.246 5.365 4.933l-3.29-1.021-2.06-3.926-.015.014zm5.465 5.344c-.529.652-1.073 1.304-1.602 1.941l-1.617-2.891 3.234.95h-.015zm-8.126-2.155c1.946 1.46 3.934 2.863 5.866 4.352l-3.42-.738-2.446-3.614zm6.037 4.72l-1.344 2.07-.029.07-2.017-2.863 3.405.723h-.014zM6.51 20.198l6.295 3.643-3.434-.255-2.861-3.388zm6.48 3.997l-1.13 2.226-2.274-2.481 3.405.241v.014zm-8.312-.297c2.232.963 4.35 1.956 6.582 2.905l-3.448.142-3.134-3.047zm-1.545 3.87l6.968 2.196-3.534.369-3.434-2.566zm-1.016 3.996l7.154 1.432-3.52.737-3.634-2.169zm-.558 4.139l7.268.638-3.376 1.12-3.892-1.744v-.014zm-.114 4.11l7.31-.141-3.19 1.446-4.12-1.304zm.386 4.14l7.182-.979-2.947 1.829-4.235-.85zm.801 4.081L9.7 46.491l-2.775 2.112-4.278-.369h-.015zm1.26 3.927l6.81-2.495-2.504 2.41-4.307.085zm7.225-2.41l1.015 2.31-3.562.142 2.547-2.438v-.014zM5.58 55.96l6.48-3.231-2.217 2.678-4.263.553zm6.881-3.16c.444.666.859 1.403 1.274 2.111l-3.534.582 2.246-2.708.014.014zm-4.764 6.718l6.038-3.898-1.917 2.948-4.12.964v-.014zm6.496-3.855l1.502 1.97-3.39.893 1.888-2.85v-.013zm-4.05 7.2l5.666-4.564-1.573 3.118-4.107 1.446h.015zm6.067-4.578l1.688 1.786-3.19 1.247 1.502-3.019v-.014zm.658 5.684l-3.863 1.828 5.093-5.074-1.23 3.246zm1.645-3.26l1.875 1.587-3.077 1.53 1.202-3.132v.015zm1.23 5.64l-3.605 2.255 4.493-5.684-.887 3.416v.014zm1.303-3.528l2.017 1.403-2.876 1.913.859-3.33v.014zm1.945 5.513l-3.433 2.65 3.863-6.18-.43 3.516v.014zm.787-3.614l2.175 1.162-2.661 2.296.486-3.444v-.014zm-.515 8.207l3.12-6.492.042 3.373-3.176 3.133.014-.014zm3.749 1.587l2.503-6.86c.144 1.176.401 3.387.401 3.387L27.012 74.5v.014zm-.258-4.932l.029-3.346 2.246.936-2.275 2.41zm3.491 1.12l-.386-3.232 2.36.666-1.974 2.565zm.859 4.946l1.674-7.115.715 3.317-2.39 3.784v.014zm2.66-4.153l-.686-3.175 2.403.397-1.716 2.778zm1.489 4.805l.872-7.215 1.002 3.346-1.874 3.87zm2.174-4.167l-1.058-3.288 2.518.141-1.46 3.147zm2.075 4.38l.029-7.243 1.416 3.316-1.445 3.927zm1.688-4.323s-.887-2.169-1.445-3.204c.83-.042 2.49-.141 2.49-.141L41.19 72.19zm2.46 4.082l-.786-7.186 1.745 3.019-.972 4.167h.014zm1.203-4.508l-1.76-3.005 2.432-.41-.672 3.415zm2.918 3.827l-1.573-7.087 2.103 2.864-.53 4.223zm.73-4.592l-2.103-2.835 2.36-.666-.243 3.501h-.014zm3.29 3.416l-2.331-6.832 2.432 2.636-.115 4.196h.015zm-2.174-7.186l2.246-.922.057 3.388-2.303-2.452v-.014zM39.373 67.1c-15.666 0-28.37-12.586-28.37-28.107 0-15.52 12.704-28.107 28.37-28.107s28.371 12.586 28.371 28.107c0 15.52-12.705 28.107-28.37 28.107zm30.689-14.812l-3.405-.17.987-2.211 2.418 2.381zm-1.66 3.218l-3.376-.454c.515-.85 1.202-2.126 1.202-2.126l2.174 2.58zm-1.989 3.09l-3.376-.85 1.46-1.971 1.916 2.82zm-2.332 2.934l-3.219-1.304 1.617-1.829 1.602 3.133zm-3.934-.723l1.273 3.26-3.076-1.673 1.803-1.587zM57.6 62.933l.887 3.373-2.875-1.97 1.988-1.403zm-2.289 5.273l-2.618-2.268 2.146-1.148.486 3.416h-.014zm.4 4.805l-3.133-6.705 2.747 2.424.387 4.295v-.014zm3.606-2.126l-3.777-6.18 2.847 1.97.93 4.21zm3.448-2.353l-4.464-5.755 3.12 1.715 1.344 4.04zm3.176-2.736l-5.079-5.202 3.248 1.333 1.817 3.87h.014zm2.847-3.047l-5.665-4.65 3.462.894 2.204 3.756zm2.418-3.345l-6.109-3.983 3.491.467 2.618 3.501v.015zm2.06-3.6l-6.48-3.289 3.433.142 3.048 3.146zm1.689-3.8l-6.825-2.55 3.463-.284 3.362 2.835zm1.316-3.897l-7.168-1.857 3.563-.553 3.605 2.41zm-6.538-5.145l3.42-.95 3.82 1.984-7.255-1.034h.015z"/><path d="M30.976 15.407l.858 2.537.615-.198-.873-2.537.816-.27-.186-.538-2.218.751.172.525.816-.27zm-15.481 15.45c.072.07.158.142.243.198.1.057.2.114.315.156.115.043.229.1.372.142.129.057.258.1.372.142.114.042.229.07.33.1.1.027.214.027.314.027s.215-.028.315-.085c.157-.07.286-.155.386-.269.114-.113.2-.255.258-.411a1.166 1.166 0 00-.015-.978 1.072 1.072 0 00-.3-.369c-.13-.099-.3-.198-.515-.283l-.444-.17-.458 1.134.501.198.215-.552.114.042c.086.028.143.07.215.113.057.043.1.114.143.17a.59.59 0 01.057.227c0 .085-.014.17-.043.255a.48.48 0 01-.129.199.581.581 0 01-.171.113c-.043.014-.086.029-.13.029-.042 0-.1 0-.17-.015-.072 0-.144-.042-.244-.07-.1-.029-.215-.085-.372-.142-.143-.057-.258-.1-.358-.142-.1-.042-.171-.085-.229-.113-.057-.043-.1-.071-.128-.1a.309.309 0 01-.072-.113.807.807 0 01-.057-.198c0-.071 0-.156.043-.241a.526.526 0 01.257-.312c.115-.057.244-.071.4-.057l.244-.595a1.368 1.368 0 00-.415-.029 1.28 1.28 0 00-.4.1 1.19 1.19 0 00-.358.255c-.114.113-.2.255-.272.425-.071.17-.1.326-.1.482 0 .156.043.312.1.454.043.099.1.198.172.269m17.011-6.719c.157.326.386.61.672.808.286.213.616.369.973.468.358.1.758.156 1.173.156.287 0 .587-.028.859-.07a2.47 2.47 0 00.73-.228.241.241 0 00.085-.085c0-.028.015-.085.015-.184v-2.027s-.029-.085-.086-.085H35.61c-.157 0-.186.057-.186.113 0 .029 0 .1.143.1.114 0 .2 0 .243.014.086.014.158.056.186.099a.436.436 0 01.057.227v1.46c0 .099-.028.17-.1.198a.901.901 0 01-.229.057h-.314c-.33 0-.644-.057-.916-.184a2.089 2.089 0 01-.715-.496 2.28 2.28 0 01-.458-.766c-.1-.298-.158-.61-.158-.95 0-.382.058-.694.158-.95.1-.254.243-.453.429-.609.2-.156.4-.269.6-.312.487-.113 1.102-.099 1.546.085.258.1.444.213.544.34a.7.7 0 01.143.227c.028.085.043.17.071.284.015.1.072.113.115.113.057 0 .114-.028.114-.184v-.624c0-.141.014-.269.029-.354v-.07c0-.03 0-.114-.129-.128-.072 0-.143 0-.243-.029-.1 0-.186-.028-.272-.042-.029 0-.1-.014-.172-.029-.086 0-.186-.028-.3-.042-.129 0-.243-.028-.358-.028-.458-.029-.887 0-1.259.07a2.72 2.72 0 00-.858.34 2.38 2.38 0 00-.83.851 2.56 2.56 0 00-.33 1.304c0 .44.087.822.244 1.148m7.912 1.134h-.157a.38.38 0 01-.158-.085.53.53 0 01-.071-.198c0-.128-.015-.284-.029-.496v-3.063c0-.142 0-.27.014-.369 0-.113.029-.184.058-.24.028-.043.071-.071.143-.086.071 0 .143-.014.186-.014.128 0 .143-.07.143-.113 0-.1-.143-.1-.186-.1h-1.646c-.057 0-.2 0-.2.1 0 .028.014.113.143.113.086 0 .157 0 .23.029.114.028.17.127.185.326 0 .113.014.226.014.368v3.048c0 .212 0 .368-.028.496-.015.17-.072.269-.158.283a1.262 1.262 0 01-.229.029c-.128 0-.143.056-.143.099 0 .042.029.113.172.113h1.831c.143 0 .172-.057.172-.113 0-.043-.014-.1-.143-.1h-.157m.972.185h1.474c.129 0 .157-.071.157-.114 0-.028-.014-.099-.143-.099h-.1c-.086 0-.143 0-.171-.042a.16.16 0 01-.043-.114c0-.099.028-.227.1-.383l.372-.95h1.488l.515 1.39s.028.1.057.17.057.127.129.127h1.403c.086-.014.1-.07.1-.099 0-.028 0-.099-.129-.099-.1 0-.186 0-.272-.028a.506.506 0 01-.257-.156c-.086-.085-.186-.27-.286-.525l-1.43-3.515a6.348 6.348 0 00-.201-.468c-.072-.155-.129-.24-.2-.24-.03 0-.072 0-.115.07-.029.043-.057.1-.1.213l-1.645 4.068c-.072.184-.144.326-.23.411a.431.431 0 01-.3.142h-.2c-.115 0-.129.07-.129.099 0 .043.029.113.172.113l-.014.029zm2.375-3.671l.587 1.573H43.05l.6-1.573zm-6.866-4.989l-.1-.567-1.488.255-.129-.78 1.274-.212-.1-.553-1.274.213-.129-.751 1.503-.255-.1-.553-2.118.354.53 3.19 2.131-.34zM17.283 34.5a1.38 1.38 0 00.014-.482.803.803 0 00-.157-.411.844.844 0 00-.244-.255c-.1-.071-.2-.114-.3-.156a2 2 0 00-.343-.1l-.358-.07-.358-.071a1.426 1.426 0 00-.343-.043c-.115 0-.215 0-.33.029a1.1 1.1 0 00-.328.141 1.156 1.156 0 00-.486.78l-.23 1.148 3.205.638.229-1.148h.029zm-.573-.057l-.1.468-2.089-.411.1-.468a.663.663 0 01.1-.27.395.395 0 01.187-.155.232.232 0 01.128-.043h.172a.66.66 0 01.229.029c.086.014.2.028.315.056.243.043.429.1.558.142a.71.71 0 01.286.17.68.68 0 01.114.227.93.93 0 010 .283v-.028zm21.461-18.98c0 .129.014.242.043.341.014.114.057.199.1.298a.694.694 0 00.2.255c.115.113.244.198.401.255.143.057.315.085.486.085.172 0 .344-.028.487-.085.157-.057.3-.156.429-.298a.903.903 0 00.229-.41 2.23 2.23 0 00.072-.582v-.468l-1.245.015v.524h.6v.128c0 .085 0 .155-.028.24a.404.404 0 01-.114.199.92.92 0 01-.186.142 1.156 1.156 0 01-.258.056c-.086 0-.172 0-.243-.042a.39.39 0 01-.172-.128.31.31 0 01-.071-.113c-.015-.043-.043-.1-.058-.156 0-.07-.028-.156-.028-.255v-.766c0-.099 0-.184.028-.255 0-.07.029-.127.043-.155.015-.043.043-.071.072-.114a.39.39 0 01.172-.127.977.977 0 01.243-.057c.157 0 .3.042.386.113.1.085.157.199.2.355h.644a1.838 1.838 0 00-.129-.397 1.081 1.081 0 00-.243-.326c-.1-.1-.229-.17-.372-.227a1.371 1.371 0 00-.5-.085 1.05 1.05 0 00-.487.1 1.188 1.188 0 00-.386.268.832.832 0 00-.186.27 1.149 1.149 0 00-.086.297 2.73 2.73 0 00-.029.34v.794m22.878 29.723l.557.128.33-1.432 2.632.596.143-.61-3.176-.737-.486 2.055zm-44.209-4.507l-.558.07.186 1.46-2.675.341.071.624 3.248-.411-.272-2.084zm2.403 10.956c.1-.056.2-.127.286-.198a1.07 1.07 0 00.215-.227.94.94 0 00.129-.297c.043-.156.057-.312.043-.468a1.209 1.209 0 00-.158-.468 1.233 1.233 0 00-.329-.383 1.121 1.121 0 00-.415-.198.874.874 0 00-.329-.028c-.1 0-.2.028-.315.07-.1.043-.214.086-.314.142-.115.057-.23.114-.344.185-.128.07-.229.127-.343.198-.1.057-.2.128-.286.198a1.067 1.067 0 00-.215.227.941.941 0 00-.129.298c-.043.156-.057.312-.043.468.015.156.072.311.158.467a1.236 1.236 0 00.758.596c.115.028.215.042.33.028.1 0 .2-.028.314-.07.1-.043.2-.086.315-.143.114-.056.229-.113.343-.184.129-.07.229-.127.343-.198m-1.015-.185a1.4 1.4 0 01-.23.1c-.07.028-.114.028-.171.042h-.129a.609.609 0 01-.2-.085.513.513 0 01-.157-.184.467.467 0 01-.072-.227c0-.07 0-.142.029-.212 0-.043.028-.086.057-.128a.937.937 0 01.114-.128c.058-.042.13-.099.215-.141.086-.057.2-.114.329-.199.129-.07.243-.142.343-.184a1.43 1.43 0 01.23-.1c.07-.028.114-.028.171-.028h.143a.61.61 0 01.2.085c.058.043.115.1.158.185.043.07.071.156.071.226 0 .071 0 .142-.028.213a.283.283 0 01-.058.113.914.914 0 01-.114.128c-.057.043-.129.1-.215.142-.085.056-.2.113-.329.198a8.775 8.775 0 01-.343.184m-.13-4.89l-2.074.043 1.703-1.176-.172-.51-3.376.198.214.623 2.118-.156-1.774 1.205.143.44 2.146-.071-1.803 1.105.215.638 2.832-1.843-.171-.496zm41.692 1.857l.53.213.572-1.39.73.298-.487 1.191.53.213.486-1.191.715.283-.572 1.39.53.212.8-1.97-3.018-1.219-.816 1.97zm-.972 1.8l1.703 1.05-2.39.042-.3.482 2.776 1.7.329-.524-1.689-1.049 2.375-.042.315-.482-2.79-1.715-.329.538zm-36.455 3.487L20.86 55.01l.715-2.254-.372-.44-2.504 2.07.4.496 1.546-1.276-.715 2.254.372.44 2.503-2.07-.4-.482zm20.002 9.27a.85.85 0 00-.315-.24.752.752 0 00.243-.27.786.786 0 00.072-.425.788.788 0 00-.1-.369.703.703 0 00-.23-.27.88.88 0 00-.328-.155 1.246 1.246 0 00-.401-.029.918.918 0 00-.386.1 1.144 1.144 0 00-.3.212.758.758 0 00-.187.312 1.16 1.16 0 00-.057.397l.6-.057c0-.127.03-.226.101-.297a.445.445 0 01.272-.128c.1 0 .2.014.286.085.086.057.129.156.143.298a.512.512 0 01-.072.297c-.057.086-.157.128-.3.142h-.086l.043.525h.086c.143-.015.258 0 .343.085.086.07.13.184.143.311 0 .142-.014.256-.1.34a.431.431 0 01-.3.142h-.172c-.057 0-.1-.028-.143-.07a.336.336 0 01-.114-.128.695.695 0 01-.058-.184l-.6.056c.014.17.057.312.128.426a.782.782 0 00.258.269c.1.07.214.113.343.142.129.028.258.028.386.014a.866.866 0 00.387-.1.775.775 0 00.315-.212.84.84 0 00.2-.326c.043-.128.057-.27.043-.425-.015-.199-.072-.355-.158-.454m2.404-2.31l-.515.709.158.623.515-.723.63 2.537.572-.141-.787-3.147-.573.142zM24.68 57.235l-.644.113.3-1.658-.572-.482-.372 2.24-1.66.297.601.496 1.789-.354-.902 1.091.487.397 2.089-2.48-.487-.411-.63.75zm13.635 4.351a1.02 1.02 0 00-.315-.212 1.188 1.188 0 00-.4-.1c-.143 0-.272 0-.4.043a.973.973 0 00-.344.17c-.1.085-.172.184-.244.298a1.24 1.24 0 00-.114.425c0 .156 0 .283.043.411a.932.932 0 00.43.524c.1.057.2.086.314.086h.129c.043 0 .085 0 .128-.029l-.772 1.29.644.043.787-1.347c.085-.142.157-.283.228-.411.058-.142.1-.284.115-.425 0-.156 0-.312-.043-.425a.816.816 0 00-.186-.327m-.358.71a.424.424 0 01-.143.34.403.403 0 01-.315.099.382.382 0 01-.3-.142.474.474 0 01-.086-.355c0-.155.057-.269.143-.34a.403.403 0 01.315-.099c.129 0 .215.057.286.142.072.085.1.212.086.354m-4.665-1.134l-.143.624.772-.411-.586 2.537.586.128.73-3.161-.587-.128-.772.411zm-5.407-.595l.5 1.474 1.489-.482-.487-1.474-1.502.482zm33.893-18.752l.572.042.1-1.46 2.704.185.043-.624-3.262-.241-.157 2.098zm-15.036 3.784l.329-.383-.243-.198.658-.765-.687-.567-.658.765-.243-.212-.286.34c.343.255.787.567 1.13 1.02zm15.207-7.299l.558-.043-.114-1.502.787-.057.1 1.276.572-.057-.1-1.276.758-.057.13 1.503.571-.057-.186-2.126-3.247.27.171 2.126zM32.262 50.389L30.617 47h-1.273v.156s1.845 2.041 2.933 3.232m12.118-2.665l.687-.808.314.27.23-.27c-.115-.397-.459-.666-.974-1.049-.028-.028-.057-.042-.086-.07l-.343.396.315.256-.687.807.544.454v.014z"/><path d="M44.18 49.553l-.372.992h1.974l-.171-.893c.658-.326 1.173-1.148 1.273-2.169v-.496c0-.042 0-.085-.014-.142v-.085a.5.5 0 00-.029-.141v-.057a.687.687 0 00-.057-.156v-.028a.52.52 0 00-.072-.156v-.014a1.463 1.463 0 00-.085-.156c-.029-.057-.072-.1-.1-.156-.315-.44-.745-.752-1.102-1.02 0 0-.014-.015-.029-.015-.1-.07-.186-.142-.272-.213l-.558.695c.086.057.172.127.258.198.029.015.043.043.071.057.415.298.816.595 1.016 1.02.043.086.072.17.086.256a.39.39 0 00.029.127v.369c-.086.864-.601 1.616-1.402 1.545l-1.96-1.63-.473.553 2.018 1.686-.029.029zm-14.85-3.161v.113h3.148l-1.774-1.134-1.374 1.02zm4.793.113h3.205v-.113l-1.33-.95-1.875 1.063zM33.02 50.9V47h-1.917l1.918 3.898zm1.246-.469l3.061-3.288v-.142h-1.23l-1.831 3.43zm-.816-3.444v4.011l2.145-4.01H33.45z"/><path d="M43.594 49.524l-1.43-1.19-.387.822 1.06.879.757-.51zm-12.262-4.309l1.931 1.233 2.175-1.233h-4.106z"/></g><defs><clipPath id="clip0_33_2607"><path fill="#fff" d="M0 0h239v78H0z"/></clipPath></defs></svg>