<svg width="283" height="72" fill="none" xmlns="http://www.w3.org/2000/svg"><g clip-path="url(#clip0_33_2743)" fill="#fff"><path d="M60.555 36.32c-1.134.106-2.402.062-3.515.164-5.217.48-11.929 1.538-15.548 5.595-3.47 3.891-4.42 11.523-4.668 16.555-.196 4.006.292 8.958-.15 12.812-.028.24-.034.495-.33.554-.26-1.546.014-3.131-.004-4.718-.072-6.165-.4-16.152-2.771-21.77-4.578-10.834-23.11-8.951-32.976-9.351-.221-.01-.68.133-.573-.239 1.198-.001 2.508-.21 3.675-.248 8.393-.268 23.136.802 28.525-6.823 4.537-6.42 4.071-20.646 3.97-28.278 0-.119.122-.576.234-.573.413.483.042 1.062.067 1.522.404 7.633-.154 20.084 3.87 26.626 4.027 6.544 13.181 6.957 20.194 7.373.003.267-.004.533 0 .8zm25.85 13.12c-.072-.431.078-.276.356-.363 1.627-.504 2.276-.384 2.432-2.428.52-6.856-.393-14.35-.022-21.274-.214-.951-.628-1.758-1.616-2.099-.432-.148-1.18.103-1.15-.553 5.153.379 13.815-1.335 17.756 2.713 2.397 2.463 2.183 6.98-.337 9.28-1.348 1.23-2.707 1.414-4.211 2.122-.185.086-.288.102-.265.34.008.082.702 1.234.828 1.436 2.258 3.582 6.865 8.05 10.823 9.735.402.172 1.822.743 2.148.754.978.034 2.292-.81 2.364-1.835-.373-6.864.548-14.317.021-21.112-.134-1.739-.721-3.158-2.789-2.953v-.479c4.391.168 8.961-.228 13.334 0 7.466.392 13.611 5.203 13.663 12.878.058 8.41-5.451 13.387-13.818 13.847-4.099.225-9.833.248-13.922 0-7.552-.455-12.405-6.011-15.862-12.008h-2.7c-.093-.352.147-.389.447-.437.898-.142 1.88-.078 2.796-.312 8.362-2.134 7.066-12.85-1.852-12.85h-2.372c-.301 4.108-.15 8.274-.157 12.405-.005 3.295-.321 6.758-.004 10.07.108 1.128.445 2.16 1.628 2.568.432.15 1.178-.104 1.15.556h-8.671.002zM118.8 24.162v22.16c0 .803.752 1.553 1.569 1.665 9.577 1.31 17.953-3.939 15.832-14.203-1.493-7.225-7.38-9.641-14.204-9.616-1.066.005-2.134-.017-3.197-.008v.002z"/><path d="M60.554 35.52c-.044-2.96.395-7.38-.039-10.12-.232-1.471-1.222-2.276-2.743-2.2v-.639h9l-.097.494c-1.016.181-2.245.346-2.608 1.421-.477 1.413-.39 8.085-.248 9.853.024.309.096.579.171.872h14.235v-9.52c0-.418-.396-1.531-.725-1.853-.044-.043-.812-.611-.864-.622-.435-.087-1.204.225-1.193-.487h8.672c.067.415-.061.29-.354.367-1.13.296-2.009.288-2.418 1.643.325 6.808-.463 14.041-.016 20.798.073 1.112.281 2.7 1.434 3.237.572.265 1.5-.015 1.517.676h-8.671c-.03-.659.726-.41 1.153-.551.542-.177 1.465-.63 1.465-1.289V36.64H63.827V46.8c0 .657.885 1.745 1.523 2.03.402.178 1.324.11 1.258.61h-8.426c-.034 0-.186.24-.244.16-.15-.884 1.116-.483 1.88-.96.393-.244.784-.782.86-1.238.039-3.51.08-7.029.052-10.54-.002-.292-.175-.513-.175-.541-.004-.267.003-.533 0-.8zm208.605-1.44c.265.063.38-.05.576-.154 2.602-1.37 3.632-2.83 6.985-1.88 8.845 2.507 6.772 16.678-2.451 17.833-1.964.246-3.2-.197-4.948-.918l.185 7.097 3.572 1.227c.088.1-.058.778-.197.917-.49.486-7.951.06-9.18.174l-.283-.379c-.08-.997 2.129-1.358 2.276-1.782.371-7.072.114-14.17.191-21.254-.099-.53-1.61-.955-2.1-1.223-.1-.35-.054-.69.209-.947.367-.357 4.568-1.246 5.057-1.086.557.18-.116 1.833.108 2.376zm4.038.06c-.916-.02-3.686.816-3.871 1.786v11.031c.08.538 1.569.965 2.052 1.034 8.822 1.267 9.687-13.678 1.819-13.851zM141.541 49.6c-.149-1.852 2.497-1.456 3.23-2.681 2.997-6.92 6.387-13.772 8.725-20.918l-.306-1.49c.637-.155 2.369-1.625 2.832-1.635.552-.01.508 1.605.645 2.093.304 1.077.91 2.413 1.32 3.509 2.276 6.075 4.994 12.014 7.392 18.043a4.77 4.77 0 001.353 1.083c.552.299 2.23.75 2.466.956.306.268-.139 1.042-.254 1.042h-8.671c-.373 0-.141-.734.01-.95.345-.495 1.42-.722 1.384-1.355l-2.786-7.011c-.095-.2-.362-.255-.563-.257-1.104-.003-2.5.268-3.601.3-.774.022-4.653-.16-4.917.152l-2.542 6.79 3.288 1.29c.321.16-.122 1.04-.253 1.04h-8.753.001zm13.087-20.959l-.363.206-3.539 9.026c-.067.166.102.302.247.345.812.24 3.629-.016 4.727.018.432.013 2.217.477 2.356-.085l-3.428-9.508v-.002zm47.94 4.639c-.694.916-2.15.542-3.189.642-.841.082-1.693.252-2.537.319v11.44c0 .094.44 1.07.561 1.21.671.78 2.461.748 3.408.591.741-.121 1.319-.742 2.083-.761.412 1.724-1.766 2.862-3.228 3.161-3.256.666-5.969-.838-6.259-4.205-.312-3.641.246-7.654-.024-11.335-.133-.381-1.859-.424-2.356-.578-.187-.058-.286.114-.241-.242.05-.377.427-.78.517-1.176l2.193-.176.98-4.321c.288-.595 1.842-1.23 2.528-1.13-.023 1.093.029 2.194.003 3.288-.008.367-.373 2.312.078 2.312h5.972c-.212.234-.35.773-.491.96.223-.043.49-.07.689-.173.908-.47 2.111-.814 3.2-1.064.295-.067 2.085-.441 2.165-.363-.056.92.182 1.834.407 2.723.683 2.691 1.79 5.743 2.698 8.402.262.766.473 1.629.905 2.315l4.833-12.552c.406-.1 1.051-.478 1.273.021l4.611 12.852.481-.008c1.641-3.831 3.617-7.55 3.288-11.92-.104-1.386-1.305-2.943.849-2.268.264.083 1.516.738 1.673.925 1.624 1.933-1.26 7.62-2.247 9.625-.777 1.581-3.624 7.314-4.781 8.125-.168.118-.415.34-.631.3l-.389-.419-4.256-11.514-.363-.204-4.14 10.594c-.373.744-.983 1.348-1.822 1.56l-5.584-15.504c-.45-.62-2.072-.187-2.845-.498l-.009-.952-.003-.001zM170.011 49.6c-.288-1.61 2.294-1.4 2.462-2.632l-.007-11.687c-.091-.488-1.446-.965-1.956-1.048-.076-.083.096-.96.194-1.074.177-.201 5.009-1.67 5.197-1.478l-.082 3.038c2.591-2.003 5.73-4.102 9.07-2.309 4.264 2.29 2.057 10.741 2.669 14.679.146.732 2.219 1.001 2.835 1.548.117.32-.149.962-.504.962h-7.526c-.095 0-.237-.24-.24-.387-.031-1.066 1.554-1.236 1.786-2.103.4-1.492.346-7.708.172-9.428-.474-4.691-5.957-4.18-8.175-1.119l.011 10.22c.054 1.139 1.381 1.223 2.206 1.689l-.094 1.126h-8.017l-.001.003zm66.18-9.28c-.549.153-.284 1.831-.204 2.28.52 2.908 2.745 5.124 5.815 5.36 2.148.167 3.321-1.824 5.268-2.36.273 1.156-1.379 3.087-2.34 3.553-2.001.969-5.487 1.08-7.537.267-6.574-2.605-6.579-12.675-.977-16.275 5.466-3.514 12.598-.079 11.194 6.588-.049.076-1.639.586-1.731.586h-9.489l.001.002zm-.245-1.44h7.853c.651-1.892-.387-5.39-2.691-5.606-3.292-.31-4.964 2.812-5.162 5.607zm13.252 10.72c-.296-1.56 1.562-1.361 2.374-2.238.158-2.52.036-5.065.081-7.6.023-1.243.339-2.686.146-3.985-.193-1.3-1.693-1.199-2.04-1.856-.63-1.194 4.056-1.973 4.746-2.232.44.09.48 2.888.583 3.432l.324.08c.955-2.034 4.358-4.288 6.61-3.18.296.146.525.178.595.543.121.62-.944 4.051-1.474 4.325-.174.09-.327.13-.499.001-.439-.465-1.042-2.598-1.675-2.61-1.529-.026-3.371 2.014-3.723 3.4l-.003 9.736 3.773 1.143c.355.251.043.718-.002 1.043h-9.816V49.6z"/></g><defs><clipPath id="clip0_33_2743"><path fill="#fff" d="M0 0h282.375v72H0z"/></clipPath></defs></svg>