<svg width="193" height="94" fill="none" xmlns="http://www.w3.org/2000/svg"><g clip-path="url(#clip0_33_2848)" fill="#fff"><path d="M41.466 1.572c.903.79 1.782 1.613 2.712 2.375L47.099.594l2.874 3.344L54.51.006l3.141 5.212 3.782-2.39L63.06 6.98l5.643-2.342 1.33 5.89L74.4 9.483l.266 4.42 6.07-.453-.584 5.992 4.472.322-1.063 4.363 5.835 1.33-2.32 5.592 4.154 1.68-2.394 3.776L94 39.575l-3.933 4.615 3.4 2.866-3.412 2.828 3.942 4.629-5.167 3.094 2.348 3.854-4.153 1.6 2.342 5.642-5.889 1.33 1.042 4.37-4.42.266.532 6.07-6.07-.585-.292 4.423-4.396-1.016-1.278 5.86-5.613-2.349-1.71 4.158-3.804-2.394L54.4 94l-4.628-3.945-2.827 3.411-2.874-3.41-4.583 3.94-3.096-5.157-3.852 2.338-1.6-4.154-5.643 2.344-1.33-5.89-4.144 1.033-.202-.04-.29-4.422-6.045.532.56-6.017-4.474-.321 1.065-4.365-5.835-1.33 2.318-5.561-4.095-1.716 2.337-3.798L0 54.43l3.944-4.607L.533 46.95l3.46-2.875-3.992-4.58 5.218-3.142-2.396-3.782 4.153-1.626-2.343-5.643 5.89-1.329-1.043-4.369 4.474-.267-.584-5.991 6.07.507.32-4.474 4.365 1.064 1.333-5.91 5.56 2.392 1.683-4.15 3.802 2.394L39.571.005c.048-.035.242.123.291.162.534.415 1.087.953 1.604 1.405zm-1.63-.767l-5.039 8.311-8.965-3.784-2.183 9.4-9.642-.827.853 9.692-9.48 2.078 3.777 8.965-8.3 4.966 6.326 7.334L.8 54.245l8.3 5.017-3.773 8.908 9.425 2.132-.851 9.745 9.692-.905 2.077 9.48 8.968-3.775 4.965 8.298 7.343-6.316 7.296 6.372 4.981-8.284 8.916 3.754 2.211-9.399 9.696.828-.883-9.64 9.459-2.129-3.775-8.967 8.3-4.963-6.331-7.3 6.382-7.341-8.295-5.012 3.825-8.913-9.48-2.131.903-9.667-9.694.805-2.127-9.458-8.967 3.786L54.4.858l-7.3 6.334L39.836.805z"/><path d="M45.3 6.684c.472.413.953.922 1.436 1.307.108.087.27.258.394.189l7.06-6.151 4.899 8.134 8.63-3.713 2.107 9.206 9.422-.794-.85 9.424 9.212 2.08-3.716 8.71 8.082 4.818-6.18 7.161 6.18 7.136-8.089 4.855 3.67 8.698-9.209 2.083.794 9.421-9.425-.849-2.08 9.21-8.701-3.724-4.827 8.09-7.163-6.177-7.161 6.178-4.748-8.088-8.78 3.668-2.086-9.206-9.418.845.845-9.474-9.207-2.083 3.723-8.701-8.09-4.826 6.23-7.162-6.23-7.136 8.098-4.802-3.679-8.751 9.268-2.078-.853-9.426 9.421.847 2.083-9.208 8.702 3.725 4.855-8.095.21.11c1.698 1.545 3.444 3.037 5.17 4.549h.001zm39.155 40.32c0-20.683-16.767-37.449-37.45-37.449-20.684 0-37.451 16.766-37.451 37.448 0 20.682 16.767 37.448 37.45 37.448 20.684 0 37.45-16.766 37.45-37.448z"/><path d="M82.8 47.003c0 19.767-16.027 35.792-35.796 35.792S11.21 66.77 11.21 47.003c0-19.768 16.026-35.793 35.795-35.793 19.77 0 35.795 16.025 35.795 35.793zm-.536 0c0-19.474-15.786-35.26-35.26-35.26-19.474 0-35.26 15.786-35.26 35.26 0 19.472 15.786 35.257 35.26 35.257 19.474 0 35.26-15.785 35.26-35.258z"/><path d="M40.262 64.204l6.604-6.31-23.675-21.25 10.655-7.933 26.747.04 10.182 8.034-.02.072L47.08 57.893h6.657l-3.195 3.196h2.822v2.795a.495.495 0 01-.131.294l-5.967 5.91h-7.003v-5.884zm22.613-31c-1.25-.96-2.496-1.949-3.79-2.84-7.83.024-15.654-.04-23.482-.056l-7.883 5.857-.076.126 20.04 18.03 19.899-17.437a303.289 303.289 0 00-4.708-3.68zM43.671 61.036v6.018h6.55v-2.929l-3.354-.08 3.514-2.955-6.71-.054z"/><path d="M36.27 69.982v-8.814l3.461-2.902v8.654c-.317.301-.633.613-.958.906-.707.638-1.583 1.484-2.318 2.049a.726.726 0 01-.185.107zm17.734.053v-8.893c.138-.044.286-.174.398-.268 1.017-.855 2.01-1.748 3.064-2.555v8.654l-3.462 3.062zM46.809 14.39l.429 4.784-.902.109-.265-3.384-.108-.184-.915 3.586c-.079.132-.575.117-.754.134l-1.633-3.453.269 3.536c-.012.072-.768.124-.859.061l-.423-4.77c.408.01.868-.135 1.252-.054l1.73 3.675.955-3.906c.08-.112 1.02-.119 1.224-.135zm-10.966 3.455c-.275.044-.689.39-.94.412-.12.01-.326-.12-.475-.14-2.137-.292-2.872 2.764-.77 3.272 1.08.26 2.056-.418 2.185-1.52l-1.89.85-.324-.744 2.882-1.376c.754 1.382-.104 3.03-1.506 3.547-1.883.696-3.83-.742-3.462-2.77.338-1.865 2.89-2.871 4.3-1.532zm32.54 6.338l-.801-.61c-.098-2.308-3.641-2.33-3.405.103.112 1.148 1.277 1.806 2.343 1.465.02-.09-.029-.109-.08-.16-.216-.209-1.386-1.044-1.44-1.174-.06-.139.416-.643.475-.633l2.471 1.993c-1.054 1.442-3.254 1.156-4.218-.243-1.393-2.02.407-4.501 2.78-3.844 1.284.356 2.23 1.78 1.875 3.102zM19.6 51.662l.188.957-2.904 2.877 3.432-.8.167.857-4.664 1.169c.015-.266-.288-.878-.163-1.08l2.931-2.808-3.486.854-.242-.907 4.74-1.119zm55.175-5.272l4.846.213-.061 1.057-3.613 1.819.239.106 3.276.16v.825c0 .026-.088.087-.133.081l-4.714-.268v-.772c0-.04.047-.127.033-.188l3.642-1.916-.347-.105-3.168-.108v-.905.001zM26.737 70.781l2.422-2.609.588.531v.16l-3.205 3.458-.752-.703.84-3.98-2.345 2.533-.106.004-.581-.585 3.264-3.492.715.704-.84 3.979zm-4.182-39.675c.034.002.185.131.186 0l-3.064-1.81.433-.75 4.115 2.408c.074.127-.393.768-.499.898h-3.994c-.01 0-.094-.114-.133-.027l3.013 1.836c.08.123-.398.622-.404.8l-4.153-2.45.479-.905c1.32.058 2.708-.08 4.021 0zm30.974-13.951a2.562 2.562 0 11-5.125 0 2.562 2.562 0 015.125 0zm-.878-.003a1.683 1.683 0 10-3.366 0 1.683 1.683 0 003.366 0zM21.163 36.933a2.561 2.561 0 11-5.122 0 2.561 2.561 0 015.122 0zm-.884 0a1.683 1.683 0 10-3.367-.001 1.683 1.683 0 003.367 0zm42.686-16.87a2.56 2.56 0 11-5.122 0 2.56 2.56 0 015.122 0zm-.874-.005a1.683 1.683 0 10-3.366 0 1.683 1.683 0 003.366 0zM20.131 59.33l1.672-.695.33.746-.029.083-4.423 1.89c-.287-1.083-1.362-2.214-.373-3.274.711-.761 1.862-.559 2.45.24.322-.554.611-1.255.968-1.776.025-.037.125-.168.15-.141l.365 1.025-1.11 1.903zm-.639.32c-.17-.6-.688-1.592-1.435-1.035-.537.4-.122 1.083.055 1.564l1.38-.53v.001zm51.901-27.212c-2.047-.278-2.875-3.2-1.199-4.554 2.167-1.75 5.1.821 3.892 3.244l-.109.031c-.065-.243-.487-.622-.525-.837-.023-.13.058-.334.045-.519-.051-.748-.655-1.467-1.416-1.567-1.963-.26-2.747 2.434-.873 3.216.12.05.338.05.41.096.127.08.46.736.6.89-.26-.025-.572.035-.825 0zm-43.432-5.752c.022.08-.021.089-.052.134-.044.063-.53.594-.571.604l-1.309-.356c-.055.016-.714.731-.81.842-.097.112-.353.392-.347.502.012.21.549 1.026.51 1.208-.165.195-.363.454-.54.63-.043.045-.047.077-.128.057l-2.173-4.704c.01-.114.42-.58.586-.504l4.835 1.588zm-2.79.194c.028-.037.045-.078.072-.115l-1.596-.611.746 1.49c.075.018.088-.01.134-.051.126-.111.535-.57.644-.713zm-7.056 22.539l1.247.484.077.96-4.947-1.762.003-.705 4.678-2.378.028 1.013-1.192.62.106 1.768zm-.805-.34c-.006-.265 0-.532 0-.798 0-.017-.054-.35-.133-.292l-1.465.639c.006.076.078.084.13.108.432.197 1 .269 1.441.476.13-.082.026-.11.026-.132zm59.321-15.624l.25.685-3.518 3.835-.391-.92.888-1.013-.69-1.575-1.38-.032-.425-.879 5.266-.1zm-.951.794l-1.758.106.48 1.118c.08.022.088-.021.133-.052.37-.255.792-.86 1.145-1.172zm-5.925 29.249c.386-.057.749.017 1.075.231l2.717 2.133c.033.109-.407.579-.502.702l-2.759-2.131c-.763-.32-1.444.473-.943 1.155l2.693 2.21-.536.68c-.995-.769-2.026-1.512-2.926-2.388-.649-1.03-.028-2.416 1.18-2.593h.001zM53.525 74.19v.798H51.9l-.186.852c1.737-.729 3.071 1.493 1.811 2.798-1.052 1.09-2.864.462-2.93-1.04l.802-.027c.14.064.15.61.621.707.733.15 1.122-.383 1.022-1.076-.102-.707-1.12-.922-1.464-.296l-.766-.163.424-2.554h2.29zM39.783 15.236l.19.8-1.678.482.268 1.057 1.613-.365.245.793-1.595.43.266 1.117 1.678-.476.237.846-2.554.695-1.28-4.686 2.61-.693zm4.048 63.853l1.065-1.704c-1.253.329-2.068-.978-1.706-2.107.603-1.887 3.439-1.409 3.36.59-.04 1.04-1.284 2.325-1.786 3.22h-.932zm.84-4.142c-.923.145-.839 1.766.144 1.747 1.199-.024 1.044-1.935-.145-1.747zM21.135 63.424c.1-.172-.844-1.31-.787-1.501.102-.097.595-.444.688-.385.168.106.732 1.331.886 1.358l.919-.535-.022-.152c-.135-.306-.794-1.091-.826-1.364-.01-.09.034-.065.067-.093.049-.043.568-.351.602-.349l1.405 2.203a91.413 91.413 0 01-3.195 2.02c-.158.095-.72.472-.833.501-.046.012-.084.02-.123-.015l-1.307-2.213.644-.426.965 1.487.918-.537zm46.176 9.054l-2.124 1.475-.478-.668 1.388-1.039-.596-.872-.152.02-1.253.922-.505-.681 1.335-.938c.012-.078-.563-.864-.644-.904-.04-.02-.065-.028-.103.001l-1.307.986-.483-.692 2.108-1.52 2.814 3.91zm8.416-20.968l-.158.892c-.923-.113-1.077 1.326-.174 1.388.85.059.91-1.498 1.969-1.645 2.146-.297 2.052 3.128-.085 2.871l.22-.952c.543.102.859-.702.361-.986-.624-.357-.977.66-1.3 1.034-1.298 1.508-3.293-.221-2.379-1.847.3-.53.939-.922 1.547-.756zM50.063 74.19v.878l-1.784 4.02h-.932l1.81-4.047H47.24v-.852h2.823zm27.323-17.947l.791.296-.901 2.58-.798-.268.264-.956-3.719-1.305.266-.767.174-.004 3.576 1.263.347-.84zM15.549 42.505l-.103.9 3.905.383.074.07-.096.825-3.991-.37-.054.906-.852-.054.266-2.77.85.11zm60.184 19.809l-1.42 2.338-.704-.394c.062-.214.522-.66.371-.856l-3.308-1.97c.056-.137.377-.776.498-.764l3.32 2.013.53-.736.713.37v-.001zm-7.646 6.208c.164.17.98 1.065 1.095 1.115.103.044.545-.481.674-.556l.605.53-1.998 1.914-.554-.604c.06-.144.665-.55.612-.673l-2.689-2.803.609-.657c.576.552 1.094 1.16 1.647 1.734h-.001zm-45.444-1.354c-.1.173.422.586.473.764l-.615.556-1.669-2.11.605-.549.631.687 3.053-2.44.525.688-3.003 2.404zm33.811-51.292l-1.174 3.803 1.439.459-.213.85-2.33-.77 1.372-4.556.906.214zm21.728 21.675l.214.85-3.83 1.017.368 1.486-.852.214-.584-2.341 4.684-1.226zM28.547 26.206l-2.944-3.638c-.076-.174.483-.47.58-.618l2.523 3.01c.04.036.067.01.105-.003.246-.084.958-.85 1.102-.876.136.028.56.558.526.635l-1.892 1.49zM41.7 74.19v4.899h-.905v-4.207h-.852v-.693h1.758zM15.085 40.278l-.177.898 4.785.943.177-.898-4.785-.943zm64.345 3.477l-4.852.403.078.934 4.851-.403-.077-.934zm-7.08 14.472l-.39.833 4.408 2.057.389-.833-4.407-2.057zM30.86 69.492l-2.77 4.003.754.522 2.771-4.003-.754-.522zm39.68-45.017l-3.575 3.32.634.684 3.576-3.32-.634-.684zm-6.257 12.49L47.213 52.3 30.358 37.312l7.192-5.325 19.836-.028 6.898 5.006zm-2.45.372l-5.35-4.424-.212-.053-16.99.006-5.674 4.23L47.586 49.68l14.247-12.342z"/><path d="M58.477 37.657l-11.264 9.907-10.944-9.721 4.933-3.534c4.242-.173 8.51.025 12.764.004l4.51 3.344zm-2.024.265c.018-.093-.049-.132-.106-.187-.96-.926-2.203-1.763-3.224-2.634-3.512.032-7.05-.068-10.546.05l-3.805 2.958 8.707 7.74 8.973-7.927z"/></g><path d="M184.725 20.913h7.977v52.165h-7.977V20.913zm-31.523 32.379V45.94h21.507v.391c0 9.073-2.581 16.111-7.743 21.117-4.588 4.432-10.506 6.648-17.753 6.648s-13.165-2.373-17.754-7.118c-5.161-5.318-7.742-11.887-7.742-19.708 0-3.91.704-7.56 2.111-10.95 1.408-3.44 3.233-6.282 5.475-8.524 2.346-2.346 5.214-4.223 8.603-5.631 3.441-1.46 7.117-2.19 11.028-2.19 5.161 0 9.697 1.095 13.608 3.285 3.597 2.033 6.413 4.64 8.446 7.82l-6.335 4.459c-1.877-2.607-4.014-4.589-6.413-5.944-2.554-1.512-5.631-2.268-9.228-2.268-5.579 0-10.167 1.798-13.765 5.396-1.721 1.72-3.076 3.884-4.067 6.491a22.7 22.7 0 00-1.486 8.134c0 5.579 1.799 10.298 5.397 14.156 3.284 3.493 7.638 5.24 13.06 5.24 4.641 0 8.525-1.538 11.654-4.614 2.554-2.503 4.014-5.449 4.379-8.838h-12.982zM105.75 20.913h7.977v52.165h-7.977V20.913z" fill="#fff"/><defs><clipPath id="clip0_33_2848"><path fill="#fff" d="M0 0h94v94H0z"/></clipPath></defs></svg>