<svg width="196" height="58" fill="none" xmlns="http://www.w3.org/2000/svg"><g clip-path="url(#clip0_143_5673)" fill="#000"><path d="M196.002 5.458v10.1h-11.535c.063-1.594-.851-3.188-2.419-3.607l-12.82-.038c-2.778.955-2.189 5.222.306 6.166l22.083.025c2.144.577 3.961 2.09 4.385 4.379v18.736c-.65 2.922-2.25 4.874-5.323 5.055h-29.564c-3.222-.214-5.275-1.877-5.486-5.255l.003-9.168h11.614c-.003 1.559.852 3.112 2.382 3.565l13.08-.019c2.497-1.136 1.94-5.007-.367-6.067l-21.942-.005c-2.42-.483-4.416-2.297-4.767-4.845l-.003-17.6c.281-2.5 1.672-5.05 4.246-5.62 10.627-.2 21.337-.197 31.966-.001 2.054.361 3.94 2.004 4.161 4.2v-.001zM18.021 0c.555.136 1.134.167 1.697.27.416.077 1.136.345 1.48.354.324.01 1.13-.28 1.535-.354.562-.104 1.142-.134 1.697-.27h2.162c.554.138 1.135.164 1.697.27 9.77 1.853 15.242 12.066 13.911 21.672-1.237 8.925-8.775 16.75-18.05 15.855-.802-.078-2.363-.582-2.956-.563-.524.017-1.548.383-2.182.47C9.968 38.946 2.372 32.056.52 23.38.294 22.32.23 21.246 0 20.202v-2.525c.22-.545.167-1.162.252-1.74C1.432 7.847 7.425.734 15.732.075L15.858 0h2.162zm-.24 2.037C10.366 1.555 5.053 8.026 3.707 14.89c-1.243 6.335.474 13.643 5.342 17.98 2.194 1.955 5.494 3.356 8.45 3.134.107-.008.485-.04.521-.16-9.843-5.479-12.256-19.259-5.91-28.458 1.515-2.197 3.464-3.907 5.672-5.35zm6.649 33.886c8.09.742 13.662-6.82 14.567-14.305 1.077-8.92-4.153-20.111-14.209-19.581-.09.004-.22-.054-.198.08 2.496 1.356 4.68 3.529 6.2 5.955 5.42 8.653 3.55 20.768-4.734 26.779l-1.627 1.073zm4.964-9.856c2.124-6.024 1.477-13.137-2.256-18.354-1.499-2.094-3.583-3.945-6-4.82C8.758 8.5 8.74 29.587 21.19 35.109c2.687-1.04 5.027-3.256 6.556-5.708.281-.452.945-1.532 1.087-1.99.012-.042.022-.134-.039-.12-.347.354-.77.603-1.22.794-3.13 1.326-9.339.828-12.278-.916-2.457-1.458-1.686-3.196.681-4.035l2.444-.61c.045-.166-.279-.184-.37-.194-.43-.047-.876.03-1.305-.098-.043-.472-.154-1.033-.091-1.504.036-.271.23-.32.245-.485.023-.239-.165-.79-.163-1.061.001-.36.326-.422.16-1.055-.074-.283-.695-.366-.885-.892-.289-.803.175-1.256.794-1.648.146-.45-.177-1.348-.027-1.658.08-.166.476-.27.558-.409.107-.182.067-.764.197-.858l.566-.035c-.04-.32.22-.75 0-1.018-.058-.07-1.434-.96-1.52-.985-.285-.081-.425.212-.642.094-.191-.103-.261-.47-.18-.672.065-.163.603-1.117.706-1.24.084-.102.94-.733 1.023-.726.33.029.38.424.51.56.065.069.856.61.95.642.93.318 2.364-.05 3.358-.081.112-.004.273-.018.365.043l.33 1.17c.346.078.753.159.851.561.03.123-.01.378.025.422.036.043.383.005.458.226l.052.602-.605.373c.058.382.157.915.087 1.293-.03.162-.9.765-1.104.833-.49.164-2.079.12-2.326.281-.038.026-.357.752-.3.882l.774 1.945c.621-.12.694.466.969.888l4.308-.147c.053-.274-.37-.216-.558-.286-.842-.313-2.158-.94-1.808-2.08.076-.25 1.617-1.63 1.863-1.689.148-.035.306-.029.456-.01.299.037 1.195.693 1.397.942.54.665.615 1.676.488 2.508-.036.233-.26.48-.222.72.067.427.954.963.789 1.631-.03.12-1.62.997-1.82 1.222-.345.391-.441 1.35-.735 1.81.011.168 2.446.97 2.863 1.64.064.103.387 1.17.49 1.087h.001zM17.088 9.07c.047-.056.924-.65.491-.761-.174-.044-.829.499-.955.657-.099.123-.68 1.169-.686 1.264-.017.252.152.395.345.179.303-.34.507-.986.804-1.338zm.654-.353c-.028.023-.741.667-.402.65l.6-.529-.198-.121zm.92.571l-.52-.303-.6.506.519.445c.082-.137.716-.477.6-.648zm3.605.08c-.983.26-2.214-.155-2.804.895l2.026-.097.777-.797zm-5.198.064l-.527.95.167.097.527-.95-.168-.097zm2.634.181c-.596-.186-1.105-.16-1.36.488l.743.151.617-.639zm2.883-.164l-.95.873c-.03.116.26.817.352.839l.828-.712-.23-1zm-5.204.163l-.471.87.43.425.521-.767-.48-.528zm.77.585c-.44.474-.85.897-.02 1.201l.769-.93-.75-.272zm3.874 1.858l-.692-1.702c-.217-.04-.411.07-.626.077-.62.02-1.429-.214-1.805.364l.626.095c.63.215.824.827.494 1.41l2.003-.244zm1.015-1.445c-.088.014-.94.707-.977.793l.2.538c.21-.072 1.256-.342 1.327-.452.246-.376-.102-.95-.55-.879zm-4.081.486c-1.021.233-.3 1.855.693 1.194.684-.457.156-1.388-.693-1.194zm5.22.562c-.234-.272-1.815.536-2.213.623-.688.15-1.554.17-2.264.265l.163.973c.094.09 2.265-.373 2.537-.468.56-.196 1.171-.676 1.772-.845l.005-.548zm-5.518.886l-.32-.325v.325h.32zm.88.083l-1.922.162-.055.764 1.94 5.183 1.325-.78c.015-.222-.807-1.649-.872-2.052-.061-.377.247-.624.293-.895.064-.377-.436-.759-.468-1.16-.232-.006-.414.781-.64.569-.107-.1.414-.72.547-.78l-.147-1.012zm4.086.081c-.04-.044-.997.424-1.033.543l.233 1.167.863-.504-.063-1.206zm-1.285.572l-1.438.243.16 1.222 1.523-.163-.245-1.302zm-1.679.324l-.72.203c.297.357.274 1.073.88.937l-.16-1.14zm-3.205.163l-.482.217.083 1.575c.427-.073.739.125 1.122.244l-.722-2.036zm9.2 1.154c-.252-.084-.54-.295-.81-.245-.086.016-.816.53-.841.574-.148.258.122.933.34 1.125.31.27 1.017.326 1.4.486.436-.695.04-.529-.06-.87-.088-.3.043-.75-.03-1.07zm-.079 2.116c-.533-.237-1.245-.253-1.577-.799-.143-.235-.134-.475-.294-.677-1.107.776-.943 1.486.147 2.13.955.564 1.858.94 1.724-.655zm-8.426.45c1.023-1.032-.835-2.455-1.77-1.353-.915 1.08.779 2.351 1.77 1.352zm1.069 1.167l-.562-1.547c-.132.034-.132.238-.238.367-.347.42-.736.582-1.283.528l.01.4 2.073.252zm1.965-.625c-.575.183-1.063.575-1.56.91l.68 1.1 1.463-1.18-.584-.83zm6.204-.026c-.301-.218-.802 1.19-.117.817-.073-.3.199-.433.202-.46a1.601 1.601 0 00-.085-.356zm-9.05.734l-1.148-.085-.134.246h.44l.841-.161zm7.85-.001l-4.264.266c-.998.754-1.717 1.782-3.132 1.522l-.12.277c.742.622 1.975.245 2.754-.187l4.24-.169c.107.008.521-.49.521-.528v-1.181zm-6.729 1.63l-.155-1.35-2.328.045.127 1.15 2.356.155zm.64-.165l-.56-.976.163 1.057.397-.08zm-3.083 1.956h1.402l.08-1.63-1.522-.04c-.098.056-.138.139-.159.248-.024.131.05 1.053.078 1.22.016.09.043.151.121.202zm8.598-1.453l-3.79.07c-.598.016-.94.426-1.525.486-.528.055-1.118-.012-1.64-.08.072.46-.232 1.022.301 1.199.442.146 1.28.145 1.718 0 .235-.078.456-.333.748-.38 1.33-.211 3.159.055 4.46-.19.059-.01.234-.054.22-.099l-.492-1.006zm.653 1.29l-3.684.204.299.53 3.02.574.365-1.307zm-3.684.651c-.195-.717-.639-.468-1.202-.405.07.583.763.367 1.202.405zm-1.762-.08c-.625.11-1.3.142-1.923 0v1.303c-.413-.07-.668.396-.646.767.296.159.73.084.728.536.704-.401 1.167-.743 1.4.326.37-.415.924-.534 1.44-.651l.043.204c-.284.063-.562.094-.833.212-.233.1-.663.528-.746.548-.108.027-1.262-.233-1.345-.313-.106-.101-.137-.39-.241-.488-.165-.154-.423-.033-.585-.303-.177-.293.022-.495.144-.756-.551-.04-2.967.42-3.088.97-.146.66 2.463 1.443 2.958 1.565.402.1 1.044.268 1.438.285.214.009 1.38-.026 1.52-.068.238-.072.418-.582.736-.56l2.283.332-.16-.651h1.322c.2 0 .54-.312.365-.593-.058-.094-1.25-.89-1.415-.947-.078-.027-.494-.108-.512-.089v.978l-1.043-.121.04-.203.281.079.001-.325h-.321c.062-.472-.008-.552-.459-.633-.152-.028-.736-.106-.858-.098-.259.016-.354.28-.566.322-.553.106-1.053-.247-1.519.165-.093-.097-.166-.09-.04-.202.516-.456 1.459.074 1.647-.205.048-.059-.046-.103-.046-.123v-1.263zm3.363 4.317c.065-.487-.49-.29-.83-.336-.303-.041-1.369-.308-1.536-.283-.137.02-.41.472-.617.557-.139.058-.541.055-.541.103l2.563.121-1.419-.306-.061-.183c.786.24 1.617.348 2.441.327zM36.443 58H6.887c-1.435-.369-2.653-1.333-2.883-2.893l.008-12.535c.276-1.696 1.674-2.76 3.312-2.904 9.782.087 19.597-.16 29.36.125 1.395.348 2.53 1.52 2.645 3.012.304 3.938-.216 8.3-.026 12.28-.217 1.585-1.414 2.524-2.86 2.915zM7.35 40.753c-1.119.136-2.083.866-2.225 2.055v12.055c.139 1.209 1.126 1.973 2.28 2.08h28.44c1.284-.102 2.258-.895 2.362-2.24.294-3.794-.225-7.978-.003-11.813-.136-1.393-1.307-2.11-2.599-2.163l-28.256.026zM152.427 16.21h-11.294c-.282-1.308-1.178-2.625-2.46-3.077-.106-.037-.563-.18-.623-.18h-15.339v21.505h13.737c1.076 0 2.523-2.042 2.523-3.055v-2.932l-.12-.123h-11.815v-10.1l18.065-.004c2.642.31 7.326 1.908 7.326 5.257v22.646l-.12.123h-36.204c-2.127 0-4.794-2.448-5.006-4.604l-.003-35.111c.434-3.073 2.564-5.203 5.646-5.418l29.879.005c2.843.128 5.808 3.38 5.808 6.23v8.839zM90.913 46.27H80.821l-2.373-7.647-17.923-.016-2.652 7.663H47.34L62.287 1.135l16.092.086L90.913 46.27zm-16.66-19.062l-4.805-13.604L64.8 27.208h9.452zM105.567 1.14H93.953v45.13h11.614V1.14z"/><path d="M17.305 17.009a.213.213 0 00.21-.215.213.213 0 00-.21-.214.213.213 0 00-.211.214c0 .119.094.215.21.215zm2.079-5.441v.325c-.53.058-.535-.382 0-.325zm-.84 30.384l2.523 3.91v-3.788l.12-.122h1.162v5.784h-1.322l-2.603-3.992v3.992h-1.201v-5.784h1.321zm13.334 10.51c1.712 1.198 1.005 3.313-1.003 3.5-1.5.14-2.955-.51-2.645-2.283.111-.64.51-.74.846-1.177-.976-.593-.9-1.815.004-2.439.904-.624 2.909-.512 3.4.605.275.627.146 1.586-.601 1.794zm-1.541-1.776c-.865.127-.88 1.266-.164 1.431 1.554.359 1.505-1.628.164-1.43zm-.163 2.446c-.91.19-.88 1.838.303 1.86 1.396.027 1.352-2.205-.303-1.86zm5.71-11.18v1.06H32.6v1.221h3.044v.978H32.6v1.466h3.444v1.059h-4.686l-.12-.122v-5.54l.12-.122h4.526zM16.42 54.416h1.362c.037 0-.015.443.457.553 1.03.24 1.342-.774 1.384-1.612-1.257 1.017-3.384.254-3.365-1.503.026-2.487 3.52-3 4.422-.833.523 1.257.405 3.6-.733 4.497-1.104.869-3.372.55-3.527-1.102zm1.47-1.82c.423.434 1.5.242 1.636-.44.416-2.08-2.435-1.916-1.819.096.035.115.1.259.183.343zm-5.554-8.933h-1.281c-.08-1.101-2.63-1.185-2.405.04.04.222.379.326.578.392 1.34.443 3.608.213 3.249 2.359-.341 2.04-5.364 2.002-5.187-.51h1.28c-.137 1.23 2.475 1.21 2.625.433.074-.386.045-.55-.301-.719-1.046-.507-3.25-.179-3.506-1.729-.45-2.728 4.813-2.89 4.947-.266zm17.14.244h-1.241c-.327-.673-.573-.982-1.362-.982-2.072 0-1.977 3.574-.463 3.897.909.193 1.489-.213 1.825-1.041h1.241c-.227 2.363-3.686 2.848-4.966 1.1-.863-1.18-.768-3.445.407-4.392 1.43-1.152 4.413-.725 4.559 1.418zM24.51 55.8h-1.362c.073-1.877 1.124-3.54 2.323-4.887h-3.164c-.18-.116-.159-.956-.085-1.064l.097-.065 4.64.065c.295.928-.42 1.253-.88 1.885-.865 1.187-1.484 2.568-1.569 4.067zm-10.892-6.11v6.11h-1.362v-4.154h-1.522v-.897c.49.03 1.223.016 1.56-.41.129-.164.189-.587.333-.637l.99-.011zm1.679-7.738h-1.281v5.784h1.281v-5.784z"/></g><defs><clipPath id="clip0_143_5673"><path fill="#fff" d="M0 0h196v58H0z"/></clipPath></defs></svg>