<svg width="195" height="72" fill="none" xmlns="http://www.w3.org/2000/svg"><g clip-path="url(#clip0_33_2699)" fill="#fff"><path d="M71.75 0v72H0V0h71.75zM38.005 33.102c-.373-6.968-9.52-8.987-13.29-3.344-2.707 4.053-2.226 12.269 2.341 14.864 2.183 1.24 4.772 1.173 6.767-.386.176-.14.965-1.106 1.141-.912v1.83h3.04V35.24h-6.84v2.898c1.202.426 2.46-.117 3.648.154-.302 2.648-2.338 4.848-5.135 3.855-4.022-1.428-4.103-10.597-.182-12.168 1.523-.61 3.1-.28 4.103 1.064.48.646.568 1.408.988 2.06h3.42-.001zm31.315-.763c-.067-7.932-13.4-7.82-12.452.52.493 4.328 5.398 3.948 8.09 5.458 2.159 1.211 1.273 3.776-1.046 4.08-1.872.243-3.224-.34-3.944-2.123-.134-.33.012-.78-.376-1l-2.944-.05c-.587.191.077 2.255.282 2.727 2.18 4.992 11.178 4.74 12.504-.726.772-3.186-.92-5.301-3.766-6.364-1.608-.601-5.708-1.021-5.462-3.346.301-2.843 5.794-2.58 5.646.568l.2.258h3.267v-.002zM8.513 26.848H2.128v18.305h6.385v-5.797h7.752v-6.712H8.514v-5.796zm46.364 18.305l-3.487-7.538c.84-.566 1.543-.986 2.095-1.87 1.382-2.21 1.303-5.961-.814-7.676-.544-.44-2.07-1.221-2.734-1.221H41.5v18.305h3.344v-6.865h3.192l3.193 6.865h3.648z"/><path d="M44.844 35.237v-5.263l.228-.228h3.344c.049 0 .826.222.947.27 1.817.727 1.961 4.092.231 4.877-.13.059-.971.343-1.026.343h-3.724v.001z"/></g><path d="M130.576 37.995v2.314c0 .269-.008.535-.025.8a6.94 6.94 0 01-.051.613h.076c.187-.294.442-.543.765-.748.323-.209.741-.313 1.255-.313.799 0 1.446.313 1.943.94.497.626.746 1.545.746 2.756 0 .814-.115 1.498-.344 2.052-.23.55-.55.965-.962 1.247-.412.277-.89.415-1.434.415-.522 0-.934-.093-1.236-.28a2.843 2.843 0 01-.733-.634h-.134l-.325.787h-1.484v-9.95h1.943zm1.396 4.226c-.34 0-.61.07-.81.211-.199.14-.346.352-.439.633-.089.281-.138.637-.147 1.068v.21c0 .696.102 1.228.306 1.6.204.366.576.55 1.115.55.399 0 .716-.186.95-.557.237-.371.356-.906.356-1.605 0-.7-.119-1.226-.356-1.58-.238-.353-.563-.53-.975-.53zm-8.311-1.573c.956 0 1.689.21 2.199.627.509.418.764 1.053.764 1.905v4.764h-1.357l-.376-.972h-.051a3.635 3.635 0 01-.624.626 2.146 2.146 0 01-.733.358 3.805 3.805 0 01-1.007.115 2.58 2.58 0 01-1.134-.242 1.806 1.806 0 01-.784-.742c-.191-.337-.287-.763-.287-1.279 0-.759.266-1.317.797-1.675.531-.362 1.327-.563 2.389-.601l1.236-.038v-.314c0-.375-.097-.65-.293-.825-.195-.174-.467-.262-.815-.262-.344 0-.682.05-1.013.147a7.772 7.772 0 00-.994.371l-.644-1.317c.378-.2.801-.358 1.268-.473a6.134 6.134 0 011.459-.173zm1.032 3.984l-.751.025c-.629.017-1.067.13-1.313.34a1.036 1.036 0 00-.363.824c0 .298.087.511.261.64.174.123.402.185.682.185.416 0 .767-.124 1.051-.371.289-.247.433-.6.433-1.055v-.588zm-5.994 3.312h-1.943v-9.95h1.943v9.95zm-3.46-2.124c0 .487-.114.898-.344 1.235-.225.332-.563.586-1.013.76-.45.171-1.011.256-1.682.256-.497 0-.924-.032-1.281-.096a5.264 5.264 0 01-1.07-.32v-1.61c.386.174.8.32 1.242.434.446.111.837.167 1.173.167.378 0 .647-.056.809-.167a.525.525 0 00.248-.447.53.53 0 00-.102-.32c-.063-.098-.204-.207-.42-.326a10.54 10.54 0 00-1.02-.48 6.727 6.727 0 01-1.102-.569 1.918 1.918 0 01-.637-.677c-.136-.265-.204-.6-.204-1.004 0-.66.255-1.157.765-1.49.514-.337 1.2-.505 2.058-.505.441 0 .862.045 1.261.134.404.09.818.233 1.243.429l-.586 1.406a9.915 9.915 0 00-1.001-.377 3.126 3.126 0 00-.949-.147c-.285 0-.499.038-.644.115a.375.375 0 00-.216.352c0 .115.036.217.108.307.076.09.221.19.433.3.217.107.533.245.95.416.403.166.754.34 1.051.524.297.179.527.403.688.671.162.265.242.608.242 1.03zm-6.486 0c0 .487-.115.898-.344 1.235-.225.332-.563.586-1.013.76-.451.171-1.011.256-1.682.256-.497 0-.924-.032-1.281-.096a5.254 5.254 0 01-1.071-.32v-1.61c.387.174.801.32 1.243.434.446.111.837.167 1.172.167.378 0 .648-.056.809-.167a.524.524 0 00.249-.447.53.53 0 00-.102-.32c-.064-.098-.204-.207-.421-.326a10.382 10.382 0 00-1.019-.48 6.727 6.727 0 01-1.102-.569 1.918 1.918 0 01-.637-.677c-.136-.265-.204-.6-.204-1.004 0-.66.254-1.157.764-1.49.514-.337 1.2-.505 2.058-.505.442 0 .863.045 1.262.134.403.09.818.233 1.242.429l-.586 1.406a9.902 9.902 0 00-1-.377 3.132 3.132 0 00-.95-.147c-.284 0-.499.038-.643.115a.374.374 0 00-.217.352c0 .115.036.217.109.307.076.09.22.19.433.3.216.107.533.245.949.416.404.166.754.34 1.052.524.297.179.526.403.688.671.161.265.242.608.242 1.03zm-7.016-5.025v7.149h-1.943v-7.149h1.943zm-.968-2.8c.289 0 .537.068.745.204.208.132.312.382.312.748 0 .363-.104.614-.312.755a1.327 1.327 0 01-.745.204c-.293 0-.544-.068-.752-.204-.204-.14-.306-.392-.306-.755 0-.366.102-.616.306-.748.208-.136.459-.204.752-.204zm-6.297 9.949l-.548-2.5c-.03-.15-.078-.37-.146-.659a88.98 88.98 0 00-.223-.94 92.678 92.678 0 00-.217-.933l-.14-.627h-.057l-.14.627c-.064.285-.136.596-.217.933a3028.35 3028.35 0 01-.37 1.624l-.573 2.475h-2.09l-2.026-7.149h1.937l.822 3.165c.055.222.108.486.159.793.05.303.096.597.134.883.042.28.074.505.095.67h.051c.009-.123.026-.287.051-.491.03-.205.062-.416.096-.633l.102-.595c.034-.18.06-.3.076-.365l.88-3.427h2.14l.835 3.427c.03.124.068.32.115.589.05.268.095.545.134.83.038.282.06.504.063.666h.051a32.655 32.655 0 01.236-1.54c.06-.317.119-.585.178-.807l.854-3.165h1.906l-2.052 7.149h-2.116zm-7.39-2.596c0 .554-.134 1.035-.401 1.445-.268.409-.659.724-1.173.946-.51.222-1.13.333-1.86.333a6.91 6.91 0 01-.95-.065 6.514 6.514 0 01-.885-.185 5.504 5.504 0 01-.803-.313v-1.842c.441.196.9.373 1.376.531.476.158.947.237 1.415.237.322 0 .582-.043.777-.128a.89.89 0 00.433-.352c.09-.15.134-.32.134-.511a.844.844 0 00-.236-.602 2.464 2.464 0 00-.65-.466c-.272-.145-.58-.3-.924-.467a10.61 10.61 0 01-.707-.37 4.14 4.14 0 01-.726-.544 2.62 2.62 0 01-.567-.774c-.145-.307-.217-.673-.217-1.1 0-.558.128-1.035.382-1.432a2.426 2.426 0 011.09-.908c.476-.213 1.036-.32 1.682-.32.484 0 .945.058 1.383.173.442.11.903.273 1.382.486l-.637 1.54a10.552 10.552 0 00-1.153-.402 3.73 3.73 0 00-1.039-.147c-.246 0-.456.04-.63.122a.851.851 0 00-.395.332.9.9 0 00-.134.492c0 .222.063.41.19.563.133.15.328.294.587.435.264.14.59.305.981.492a7.41 7.41 0 011.217.71c.34.243.601.53.784.863.183.328.274.738.274 1.228zm103.287-21.539v2.027c0 .353-.013.69-.038 1.01-.021.32-.038.545-.051.678h.102c.153-.248.333-.448.542-.601a2.23 2.23 0 01.7-.34c.255-.072.529-.108.822-.108.514 0 .963.092 1.345.275.382.179.679.462.892.85.212.384.318.883.318 1.496v4.662h-1.943v-4.176c0-.511-.093-.897-.28-1.157-.187-.26-.476-.39-.867-.39s-.699.092-.924.275c-.225.18-.384.446-.478.8-.093.349-.14.777-.14 1.284v3.364h-1.943v-9.95h1.943zm-5.768 10.077c-.705 0-1.306-.128-1.803-.384-.497-.26-.875-.66-1.134-1.202-.259-.541-.389-1.234-.389-2.078 0-.874.147-1.586.44-2.136.297-.554.707-.961 1.23-1.221.527-.26 1.136-.39 1.828-.39.493 0 .918.049 1.275.147.361.094.675.207.943.339l-.574 1.509a8.99 8.99 0 00-.853-.3 2.681 2.681 0 00-.791-.122c-.339 0-.622.08-.847.243-.225.158-.393.396-.503.716-.111.32-.166.72-.166 1.202 0 .473.059.865.178 1.177.119.31.291.543.517.696.225.15.499.224.821.224.404 0 .763-.053 1.077-.16.315-.11.621-.264.918-.46v1.669c-.297.187-.61.322-.937.403-.323.085-.733.127-1.23.127zm-4.842-7.411c.098 0 .21.006.338.02.132.008.238.02.318.037l-.146 1.83a1.175 1.175 0 00-.274-.046 2.76 2.76 0 00-.3-.019c-.25 0-.494.032-.732.096a1.788 1.788 0 00-.631.313 1.47 1.47 0 00-.446.563c-.106.23-.159.514-.159.85v3.639h-1.944v-7.149h1.472l.287 1.202h.095c.141-.243.315-.464.523-.665a2.51 2.51 0 01.72-.486 2.1 2.1 0 01.879-.185zm-8.945-.013c.955 0 1.688.209 2.198.627.51.418.764 1.053.764 1.905v4.764h-1.357l-.376-.972h-.051a3.628 3.628 0 01-.624.626 2.137 2.137 0 01-.733.358 3.804 3.804 0 01-1.007.115c-.42 0-.798-.08-1.134-.242a1.803 1.803 0 01-.783-.742c-.192-.337-.287-.763-.287-1.279 0-.759.265-1.317.796-1.675.531-.363 1.328-.563 2.39-.601l1.236-.039v-.313c0-.375-.098-.65-.293-.825-.196-.174-.468-.262-.816-.262-.344 0-.682.05-1.013.147a7.845 7.845 0 00-.994.371l-.644-1.317c.379-.2.801-.358 1.268-.473a6.136 6.136 0 011.46-.173zm1.032 3.984l-.752.025c-.629.017-1.066.13-1.313.339a1.037 1.037 0 00-.363.825c0 .298.087.511.261.64.175.123.402.185.682.185.417 0 .767-.124 1.052-.371.288-.247.433-.6.433-1.055v-.588zm-8.723-3.971c.658 0 1.225.128 1.701.384a2.61 2.61 0 011.102 1.1c.259.481.389 1.07.389 1.764v.946h-4.594c.021.55.185.983.49 1.298.311.312.74.467 1.288.467.454 0 .87-.047 1.248-.14a6.325 6.325 0 001.166-.423v1.51a4.612 4.612 0 01-1.108.383 6.859 6.859 0 01-1.396.121c-.713 0-1.346-.132-1.898-.396a2.953 2.953 0 01-1.294-1.208c-.31-.542-.465-1.224-.465-2.046 0-.836.14-1.53.42-2.085.285-.558.68-.976 1.186-1.253.505-.281 1.093-.422 1.765-.422zm.012 1.387a1.3 1.3 0 00-.943.365c-.246.243-.388.624-.427 1.144h2.728a1.944 1.944 0 00-.16-.773 1.193 1.193 0 00-.446-.537c-.195-.133-.446-.198-.752-.198zm-4.466 3.773c0 .486-.115.897-.344 1.234-.225.332-.563.586-1.013.76-.451.171-1.011.257-1.682.257-.497 0-.924-.033-1.281-.096a5.254 5.254 0 01-1.071-.32v-1.611c.387.174.801.32 1.243.434.446.111.837.167 1.172.167.378 0 .648-.056.809-.167a.524.524 0 00.249-.447.53.53 0 00-.102-.32c-.064-.098-.204-.207-.42-.326a10.54 10.54 0 00-1.02-.48 6.727 6.727 0 01-1.102-.569 1.918 1.918 0 01-.637-.677c-.136-.265-.204-.6-.204-1.004 0-.66.254-1.157.764-1.49.514-.337 1.2-.505 2.058-.505.442 0 .863.045 1.262.134.403.09.818.233 1.242.429l-.586 1.406a9.878 9.878 0 00-1-.377 3.132 3.132 0 00-.95-.147c-.284 0-.499.038-.643.115a.374.374 0 00-.217.352c0 .115.036.217.109.307.076.09.22.19.433.3.217.107.533.245.949.416.404.166.754.34 1.052.524.297.18.526.403.688.671.161.265.242.608.242 1.03zm-9.742-5.16c.659 0 1.226.128 1.702.384a2.62 2.62 0 011.102 1.1c.259.481.389 1.07.389 1.764v.946h-4.594c.021.55.184.983.49 1.298.31.312.739.467 1.287.467.455 0 .871-.047 1.249-.14a6.325 6.325 0 001.166-.423v1.51a4.605 4.605 0 01-1.109.383 6.842 6.842 0 01-1.395.121c-.714 0-1.347-.132-1.899-.396a2.95 2.95 0 01-1.293-1.208c-.31-.542-.465-1.224-.465-2.046 0-.836.14-1.53.42-2.085.285-.558.68-.976 1.185-1.253.506-.281 1.094-.422 1.765-.422zm.013 1.387a1.3 1.3 0 00-.943.365c-.246.243-.389.624-.427 1.144h2.727a1.927 1.927 0 00-.159-.773 1.2 1.2 0 00-.446-.537c-.195-.133-.446-.198-.752-.198zm-4.9-1.387c.098 0 .211.006.338.02.132.008.238.02.319.037l-.147 1.83a1.175 1.175 0 00-.274-.046 2.728 2.728 0 00-1.032.077 1.788 1.788 0 00-.631.313 1.48 1.48 0 00-.446.563c-.106.23-.159.514-.159.85v3.639h-1.944v-7.149h1.472l.287 1.202h.096a3 3 0 01.522-.665c.213-.204.453-.366.72-.486a2.1 2.1 0 01.879-.185zm-8.43 0c.807 0 1.417.209 1.829.627.416.413.624 1.078.624 1.994v4.662h-1.949v-4.176c0-.511-.087-.897-.262-1.157-.174-.26-.443-.39-.809-.39-.514 0-.879.186-1.096.556-.216.367-.325.893-.325 1.58v3.587h-1.943v-4.176c0-.34-.038-.626-.115-.856a1.012 1.012 0 00-.35-.518c-.157-.115-.359-.173-.606-.173-.361 0-.645.092-.853.275-.204.18-.351.446-.44.8-.085.349-.127.777-.127 1.284v3.364h-1.944v-7.149h1.485l.261.915h.108a1.9 1.9 0 01.542-.602c.221-.153.463-.266.726-.338.264-.073.531-.109.803-.109.523 0 .964.085 1.325.256.366.17.646.434.842.793h.172c.212-.367.511-.633.898-.8a3.052 3.052 0 011.204-.249zm-13.14 0c.659 0 1.226.128 1.702.384a2.62 2.62 0 011.102 1.1c.259.481.389 1.07.389 1.764v.946h-4.595c.022.55.185.983.491 1.298.31.312.739.467 1.287.467.455 0 .871-.047 1.249-.14a6.325 6.325 0 001.166-.423v1.51a4.605 4.605 0 01-1.109.383 6.842 6.842 0 01-1.395.121c-.714 0-1.347-.132-1.899-.396a2.95 2.95 0 01-1.293-1.208c-.31-.542-.465-1.224-.465-2.046 0-.836.14-1.53.42-2.085.285-.558.68-.976 1.185-1.253.506-.281 1.094-.422 1.765-.422zm.013 1.387a1.3 1.3 0 00-.943.365c-.246.243-.389.624-.427 1.144h2.727a1.927 1.927 0 00-.159-.773 1.2 1.2 0 00-.446-.537c-.196-.133-.446-.198-.752-.198zm-8.716.646h3.696v4.847c-.489.162-.997.292-1.523.39a10.27 10.27 0 01-1.791.14c-.926 0-1.712-.183-2.357-.55-.646-.366-1.137-.907-1.472-1.623-.336-.716-.504-1.597-.504-2.641 0-.98.187-1.829.561-2.545a3.96 3.96 0 011.65-1.662c.727-.392 1.612-.588 2.657-.588.493 0 .98.053 1.46.16.48.106.915.244 1.306.415l-.656 1.586a5.018 5.018 0 00-.975-.365 4.414 4.414 0 00-1.147-.147c-.574 0-1.073.132-1.498.397-.42.264-.747.635-.981 1.112-.229.473-.344 1.032-.344 1.675 0 .61.083 1.151.249 1.624.165.47.426.838.783 1.107.357.264.822.396 1.396.396.28 0 .516-.013.707-.038.195-.03.378-.06.548-.09v-1.95h-1.765v-1.65zm-8.615 2.654c0 .554-.133 1.036-.401 1.445-.268.409-.658.724-1.172.946-.51.222-1.13.333-1.861.333-.323 0-.639-.022-.949-.064a6.532 6.532 0 01-.886-.186 5.504 5.504 0 01-.803-.313v-1.841c.442.195.9.372 1.376.53.476.158.948.237 1.415.237.323 0 .582-.043.777-.128a.893.893 0 00.434-.352.979.979 0 00.133-.511.844.844 0 00-.235-.601 2.48 2.48 0 00-.65-.467c-.272-.145-.58-.3-.924-.467a10.321 10.321 0 01-.707-.37 4.159 4.159 0 01-.727-.544 2.62 2.62 0 01-.567-.774c-.144-.307-.217-.673-.217-1.1 0-.558.128-1.035.383-1.432a2.425 2.425 0 011.089-.908c.476-.213 1.037-.32 1.682-.32.485 0 .946.058 1.383.173a8.57 8.57 0 011.383.486l-.637 1.541a10.544 10.544 0 00-1.154-.403 3.73 3.73 0 00-1.038-.147c-.247 0-.457.04-.631.122a.851.851 0 00-.395.332.901.901 0 00-.134.492c0 .222.064.41.191.563.132.15.327.294.586.435.264.14.591.305.982.492.475.226.881.463 1.217.71.34.243.601.53.783.863.183.328.274.738.274 1.228zM93.753 24.41c.846 0 1.542.102 2.09.307.553.204.962.513 1.23.927.268.413.402.936.402 1.566 0 .427-.081.8-.243 1.12a2.55 2.55 0 01-.637.811 3.767 3.767 0 01-.854.544l2.74 4.073H96.29l-2.223-3.587h-1.052v3.587H91.04V24.41h2.714zm-.14 1.624h-.599v2.525h.638c.654 0 1.12-.108 1.401-.326.285-.221.427-.545.427-.971 0-.444-.153-.76-.459-.947-.301-.187-.77-.281-1.408-.281zm-8.493 2.474h3.696v4.847c-.488.162-.996.292-1.523.39-.527.094-1.123.14-1.79.14-.926 0-1.712-.183-2.358-.55-.645-.366-1.136-.907-1.472-1.623-.335-.716-.503-1.597-.503-2.641 0-.98.187-1.829.56-2.545a3.96 3.96 0 011.65-1.662c.727-.392 1.613-.588 2.658-.588.493 0 .98.053 1.46.16.48.106.914.244 1.305.415l-.656 1.586a4.998 4.998 0 00-.975-.365 4.408 4.408 0 00-1.147-.147c-.573 0-1.072.132-1.497.397a2.66 2.66 0 00-.981 1.112c-.23.473-.344 1.032-.344 1.675 0 .61.082 1.151.248 1.624.166.47.427.838.784 1.107.357.264.822.396 1.395.396.28 0 .516-.013.707-.038.196-.03.379-.06.548-.09v-1.95H85.12v-1.65z" fill="#fff"/><defs><clipPath id="clip0_33_2699"><path fill="#fff" d="M0 0h71.751v72H0z"/></clipPath></defs></svg>