<svg width="241" height="72" fill="none" xmlns="http://www.w3.org/2000/svg"><g clip-path="url(#clip0_33_2774)" fill="#fff"><path d="M240.48 6.775v12.54h-14.152c.077-1.98-1.045-3.959-2.968-4.48l-15.729-.047c-3.409 1.186-2.686 6.483.375 7.655l27.094.03c2.631.718 4.861 2.595 5.38 5.437v23.26c-.797 3.627-2.76 6.05-6.53 6.274h-36.273c-3.953-.265-6.473-2.33-6.732-6.523l.004-11.38h14.25c-.004 1.934 1.045 3.862 2.923 4.425l16.047-.024c3.065-1.41 2.381-6.216-.449-7.531l-26.922-.006c-2.97-.6-5.418-2.852-5.849-6.015l-.003-21.848c.344-3.104 2.05-6.27 5.209-6.977 13.039-.247 26.179-.244 39.22-.001 2.52.448 4.834 2.488 5.106 5.213h-.001zM22.113 0c.68.168 1.392.207 2.082.335.51.095 1.394.428 1.816.44.397.011 1.386-.347 1.883-.44.69-.129 1.4-.167 2.082-.335h2.653c.68.17 1.392.203 2.082.335 11.986 2.3 18.7 14.979 17.068 26.903-1.518 11.08-10.767 20.793-22.146 19.682-.985-.096-2.9-.722-3.628-.698-.643.02-1.898.475-2.676.583C12.232 48.346 2.913 39.794.639 29.023c-.276-1.315-.355-2.648-.637-3.945v-3.135c.27-.676.205-1.442.309-2.16C1.759 9.742 9.11.911 19.303.093L19.46 0h2.654zm-.295 2.53C12.721 1.93 6.202 9.962 4.55 18.483c-1.525 7.865.582 16.937 6.555 22.32 2.69 2.427 6.74 4.166 10.368 3.891.13-.01.594-.05.639-.2C10.035 37.696 7.074 20.59 14.859 9.17c1.859-2.727 4.25-4.85 6.96-6.641zm8.157 42.064c9.927.92 16.764-8.467 17.873-17.758C49.171 15.763 42.754 1.87 30.415 2.528c-.11.006-.27-.066-.243.1 3.063 1.683 5.743 4.38 7.607 7.392 6.65 10.742 4.355 25.781-5.808 33.243l-1.995 1.332zm6.092-12.234c2.605-7.48 1.813-16.31-2.767-22.785-1.84-2.6-4.396-4.898-7.363-5.984-15.187 6.96-15.209 33.137.067 39.993 3.295-1.292 6.167-4.042 8.043-7.087.345-.56 1.16-1.9 1.333-2.47.016-.052.027-.165-.047-.15-.426.44-.944.75-1.498.987-3.839 1.646-11.457 1.028-15.063-1.137-3.014-1.81-2.069-3.968.835-5.009l2.998-.758c.056-.205-.342-.227-.453-.24-.529-.059-1.075.037-1.601-.121-.053-.586-.19-1.283-.113-1.868.045-.336.283-.398.302-.602.028-.296-.202-.98-.2-1.317.001-.448.4-.524.196-1.31-.091-.351-.853-.454-1.086-1.107-.355-.997.215-1.559.975-2.046.178-.557-.218-1.673-.034-2.057.098-.207.584-.337.684-.509.132-.226.083-.948.242-1.064l.695-.044c-.05-.396.27-.93 0-1.263-.071-.088-1.76-1.194-1.866-1.224-.349-.1-.52.263-.787.117-.235-.128-.32-.584-.221-.834.08-.203.74-1.386.867-1.54.103-.126 1.152-.91 1.254-.9.406.035.468.526.627.695.08.085 1.05.757 1.165.797 1.14.394 2.901-.062 4.12-.101.137-.005.335-.023.447.053l.406 1.453c.425.097.924.197 1.044.696.037.153-.012.47.03.524.044.054.47.006.563.28l.064.748-.744.463c.072.474.194 1.136.108 1.605-.038.2-1.104.95-1.354 1.034-.603.203-2.551.148-2.854.35-.048.031-.439.933-.37 1.094l.951 2.414c.762-.148.85.578 1.189 1.102l5.286-.181c.065-.34-.455-.27-.685-.356-1.034-.388-2.648-1.167-2.219-2.582.094-.31 1.984-2.024 2.286-2.096a1.55 1.55 0 01.56-.013c.367.046 1.466.86 1.714 1.17.662.824.754 2.08.599 3.113-.044.289-.318.596-.272.895.082.529 1.17 1.194.967 2.023-.037.15-1.988 1.238-2.232 1.517-.425.486-.542 1.676-.902 2.247.013.208 3 1.204 3.512 2.035.078.128.475 1.453.602 1.35h.001zm-15.1-21.1c.059-.07 1.135-.808.604-.945-.214-.056-1.017.619-1.173.815-.12.152-.834 1.451-.842 1.57-.02.313.188.49.425.222.371-.422.621-1.225.986-1.662zm.803-.44c-.034.029-.91.83-.492.807l.735-.655-.243-.151zm1.129.71l-.639-.377-.735.628.637.553c.1-.17.878-.592.736-.804zm4.422.1c-1.205.323-2.716-.193-3.44 1.11l2.487-.12.954-.99zm-6.377.079l-.647 1.18.206.119.647-1.18-.206-.12zm3.233.225c-.732-.232-1.356-.2-1.67.605l.912.188.758-.793zm3.537-.204l-1.166 1.083c-.036.144.32 1.015.432 1.041l1.015-.882-.281-1.242zm-6.386.203l-.578 1.079.529.527.639-.951-.59-.656zm.945.725c-.54.588-1.042 1.114-.025 1.491l.944-1.155-.92-.336zm4.754 2.307l-.85-2.113c-.266-.05-.504.088-.768.096-.76.024-1.753-.267-2.214.452l.768.118c.772.267 1.01 1.026.606 1.75l2.457-.303zm1.244-1.794c-.108.018-1.152.878-1.198.985l.245.667c.257-.089 1.541-.424 1.629-.56.302-.467-.125-1.181-.676-1.092zm-5.007.603c-1.252.29-.367 2.303.85 1.482.84-.566.192-1.723-.85-1.482zm6.405.698c-.287-.337-2.227.666-2.715.774-.844.186-1.907.211-2.777.328l.2 1.208c.115.113 2.779-.463 3.112-.581.686-.243 1.437-.839 2.174-1.048l.006-.681zm-6.77 1.1l-.392-.403v.403h.392zm1.08.103l-2.358.2-.068.949 2.38 6.435 1.626-.968c.018-.276-.99-2.048-1.07-2.548-.075-.468.303-.774.36-1.111.079-.468-.535-.942-.575-1.441-.284-.006-.507.97-.785.707-.13-.125.508-.894.671-.968l-.18-1.256zm5.013.1c-.048-.055-1.223.527-1.268.675l.287 1.448 1.058-.626-.077-1.496zm-1.577.71l-1.764.302.197 1.517 1.868-.202-.3-1.616zm-2.06.402l-.882.252c.363.443.335 1.333 1.08 1.164l-.198-1.416zm-3.931.203l-.593.27.102 1.955c.524-.091.907.154 1.377.302l-.886-2.527zm11.286 1.432c-.308-.104-.661-.366-.992-.304-.107.02-1.002.658-1.033.713-.182.32.15 1.159.418 1.397.379.335 1.247.404 1.718.604.534-.863.049-.657-.074-1.081-.108-.374.052-.93-.036-1.329h-.001zm-.096 2.627c-.654-.293-1.527-.314-1.935-.992-.175-.29-.164-.59-.36-.84-1.36.963-1.158 1.845.18 2.644 1.171.7 2.28 1.166 2.116-.813v.001zm-10.338.558c1.256-1.28-1.024-3.047-2.172-1.678-1.123 1.34.955 2.919 2.172 1.678zm1.311 1.45l-.689-1.92c-.163.04-.163.295-.293.455-.425.522-.903.722-1.573.656l.011.495 2.545.313zm2.41-.777c-.704.228-1.303.715-1.913 1.13l.834 1.366 1.796-1.465-.716-1.031zm7.613-.031c-.37-.272-.984 1.476-.144 1.013-.09-.371.244-.537.249-.571a2.023 2.023 0 00-.105-.442zm-11.104.91l-1.408-.105-.164.306h.54l1.032-.2zm9.631 0l-5.231.33c-1.224.936-2.107 2.212-3.843 1.89l-.146.343c.91.773 2.423.304 3.378-.232l5.202-.21c.131.01.64-.608.64-.655v-1.467zm-8.255 2.022l-.19-1.675-2.857.056.156 1.428 2.891.191zm.786-.203l-.687-1.212.199 1.312.488-.1zm-3.784 2.428h1.72l.1-2.023-1.87-.05c-.119.068-.168.172-.193.306-.03.164.06 1.308.096 1.514.019.114.051.189.148.253zm10.55-1.804l-4.652.086c-.732.02-1.15.53-1.87.604-.648.068-1.371-.015-2.013-.1.09.57-.284 1.269.371 1.489.542.182 1.57.18 2.108 0 .288-.097.558-.414.918-.472 1.632-.262 3.875.068 5.471-.236.073-.013.288-.067.27-.122l-.604-1.25v.001zm.8 1.602l-4.519.252.367.657 3.705.714.448-1.623zm-4.52.807c-.239-.89-.783-.58-1.473-.503.086.724.936.455 1.474.503zm-2.161-.1c-.767.138-1.594.177-2.359 0v1.618c-.508-.087-.82.491-.793.953.363.197.896.104.893.665.864-.498 1.432-.923 1.718.404.453-.514 1.134-.663 1.768-.808l.052.254c-.349.078-.69.116-1.023.262-.285.126-.813.656-.914.681-.134.033-1.549-.29-1.651-.389-.13-.125-.168-.485-.296-.605-.202-.192-.519-.041-.718-.376-.217-.364.027-.615.177-.939-.676-.05-3.64.52-3.79 1.204-.178.82 3.023 1.792 3.63 1.943.493.124 1.282.332 1.765.353.263.012 1.693-.031 1.864-.083.292-.09.513-.723.904-.697l2.8.414-.195-.809h1.621c.246 0 .664-.388.449-.736-.072-.116-1.535-1.105-1.736-1.175-.096-.033-.606-.135-.629-.11v1.213l-1.28-.15.05-.252.345.098.001-.404h-.395c.077-.586-.01-.684-.562-.786-.186-.034-.904-.13-1.053-.12-.318.019-.434.347-.695.398-.678.133-1.292-.306-1.863.205-.114-.12-.204-.11-.049-.25.632-.566 1.79.091 2.02-.255.06-.072-.056-.128-.056-.153v-1.567zm4.127 5.36c.078-.604-.603-.36-1.02-.417-.37-.051-1.678-.383-1.883-.352-.169.026-.503.586-.758.692-.17.071-.664.068-.664.127l3.145.151-1.74-.38-.076-.227a9.339 9.339 0 002.996.405zM44.715 72H8.45c-1.76-.458-3.255-1.655-3.537-3.59l.01-15.562c.339-2.106 2.053-3.426 4.064-3.604 12.002.107 24.044-.199 36.022.154 1.712.433 3.104 1.886 3.245 3.739.374 4.888-.264 10.303-.03 15.245-.268 1.967-1.736 3.133-3.51 3.618zM9.019 50.59c-1.372.169-2.555 1.075-2.73 2.551v14.964c.17 1.501 1.382 2.45 2.797 2.584H43.98c1.576-.127 2.772-1.112 2.9-2.781.36-4.71-.277-9.904-.005-14.666-.166-1.729-1.603-2.62-3.188-2.685l-34.669.033h.001zm177.999-30.466h-13.857c-.346-1.624-1.445-3.26-3.019-3.82-.129-.047-.69-.225-.764-.225h-18.82v26.696h16.854c1.321 0 3.096-2.535 3.096-3.792v-3.64l-.147-.152h-14.496v-12.54l22.165-.003c3.242.385 8.988 2.369 8.988 6.526v28.113l-.147.151H142.45c-2.609 0-5.881-3.038-6.141-5.714l-.004-43.587c.533-3.814 3.146-6.458 6.928-6.725l36.659.005c3.489.16 7.126 4.196 7.126 7.735v10.972zm-75.476 37.314H99.159l-2.912-9.492-21.99-.02-3.254 9.512H58.08L76.42 1.41l19.743.105 15.379 55.923zM91.101 33.775l-5.896-16.887-5.7 16.887H91.1zm38.426-32.359h-14.25v56.022h14.25V1.416z"/><path d="M21.234 21.115c.143 0 .258-.12.258-.267a.263.263 0 00-.258-.266.263.263 0 00-.26.266c0 .147.116.267.26.267zm2.548-6.755v.404c-.652.072-.658-.475 0-.404zM22.75 52.079l3.096 4.853V52.23l.148-.151h1.425v7.18h-1.622l-3.194-4.956v4.955h-1.474v-7.18h1.621zm16.364 13.046c2.101 1.488 1.233 4.113-1.23 4.345-1.841.174-3.626-.634-3.247-2.835.138-.794.627-.918 1.039-1.46-1.197-.737-1.104-2.253.005-3.028 1.11-.775 3.569-.635 4.171.751.339.778.18 1.969-.737 2.227zm-1.89-2.204c-1.062.157-1.08 1.572-.202 1.776 1.907.445 1.847-2.02.201-1.776zm-.2 3.035c-1.117.236-1.081 2.282.37 2.31 1.715.034 1.66-2.738-.37-2.31zm7.004-13.877v1.314h-4.03v1.517h3.735v1.214H40v1.82h4.226v1.314h-5.75l-.147-.151V52.23l.147-.151h5.553zM20.146 67.55h1.671c.046 0-.019.55.561.687 1.265.297 1.647-.96 1.698-2.001-1.543 1.263-4.152.316-4.129-1.866.033-3.087 4.319-3.725 5.426-1.034.642 1.561.496 4.47-.9 5.582-1.353 1.08-4.137.684-4.327-1.367zm1.804-2.26c.519.54 1.84.302 2.007-.544.51-2.583-2.988-2.38-2.231.119.043.142.123.32.224.425zm-6.815-11.088h-1.572c-.097-1.366-3.226-1.47-2.951.05.05.275.465.404.71.486 1.643.55 4.426.265 3.985 2.929-.418 2.533-6.58 2.485-6.364-.633h1.572c-.168 1.526 3.036 1.501 3.22.537.092-.48.056-.683-.368-.892-1.284-.63-3.988-.222-4.302-2.146-.553-3.387 5.905-3.587 6.07-.33zm21.029.304h-1.523c-.4-.837-.702-1.22-1.67-1.22-2.542 0-2.426 4.437-.568 4.837 1.114.24 1.827-.264 2.238-1.291h1.523c-.278 2.933-4.523 3.535-6.093 1.365-1.059-1.464-.942-4.276.5-5.452 1.754-1.43 5.415-.9 5.593 1.76zM30.073 69.27h-1.67c.089-2.33 1.378-4.396 2.85-6.068H27.37c-.22-.144-.195-1.186-.104-1.32l.118-.081 5.693.08c.362 1.152-.515 1.556-1.08 2.34-1.06 1.474-1.82 3.188-1.924 5.049zm-13.367-7.585v7.585h-1.67v-5.158h-1.868V63c.601.036 1.5.018 1.912-.51.16-.203.233-.729.41-.79l1.216-.015zm2.064-9.606h-1.573v7.18h1.573v-7.18z"/></g><defs><clipPath id="clip0_33_2774"><path fill="#fff" d="M0 0h240.48v72H0z"/></clipPath></defs></svg>