<svg width="195" height="64" fill="none" xmlns="http://www.w3.org/2000/svg"><g clip-path="url(#clip0_143_5676)" fill-rule="evenodd" clip-rule="evenodd" fill="#000"><path d="M191.123 17.503c-1.868 0-3.584-1.465-3.584-3.582 0-2.116 1.658-3.582 3.584-3.582 1.926 0 3.607 1.559 3.607 3.594a3.568 3.568 0 01-3.607 3.57zm0-6.85a3.267 3.267 0 00-3.269 3.268 3.255 3.255 0 003.28 3.268 3.253 3.253 0 003.281-3.256 3.27 3.27 0 00-3.281-3.268l-.011-.012zm-.035.977c.467 0 .793 0 1.062.105.49.174.724.628.724 1.046 0 .314-.117.861-.922 1.07.431.186.56.442.642.954.093.628.14.942.338 1.35h-.922c-.129-.268-.152-.431-.245-.99-.152-.953-.21-1.046-1.354-1.046v2.035h-.806V11.63h1.483zm-.666 1.838h.666c.338 0 .969 0 .969-.628a.577.577 0 00-.327-.535c-.164-.059-.304-.059-.794-.059h-.514v1.222zm-8.204 38.262c-.222-.628-.479-1.453-.479-1.453l-4.377-11.572c-.105-.256-.292-.384-.549-.384h-12.21c-.222 0-.385.14-.49.43l-2.954 7.804c-.548 1.35-.817 2.454-.817 3.326 0 .547.164.966.49 1.256.327.291.899.43 1.705.43h.817c.548 0 .817.152.817.443 0 .36-.315.546-.934.546-.689 0-1.681-.023-2.953-.058-1.424-.07-2.37-.105-2.848-.105-.105 0-.514.024-1.203.059-.548 0-1.319.023-2.323.058a85.079 85.079 0 01-2.93.058c-.688 0-1.039-.186-1.039-.547 0-.29.222-.442.654-.442.549 0 1.121-.035 1.704-.104 1.168-.14 2.078-.605 2.744-1.396.653-.78 1.295-1.954 1.914-3.524l13.751-34.274c.327-.837.607-1.407.817-1.72.222-.315.455-.466.712-.466.409 0 .864.582 1.366 1.744.257.547.805 1.873 1.646 3.99l3.292 8.245 5.229 12.968 1.448 3.605 1.972 4.78c.911 2.186 1.751 3.675 2.522 4.477.77.803 1.541 1.291 2.299 1.477.736.14 1.495.221 2.3.221.479 0 .712.152.712.442 0 .221-.163.361-.49.43-.327.07-1.004.105-2.031.105l-5.23-.116c-1.552 0-3.105.116-4.296.116-.338 0-.513-.209-.735-.825m-16.553-16.166h10.074c.187 0 .269-.105.269-.326l-4.926-13.479v-.058c-.07-.29-.164-.442-.269-.442-.151 0-.256.163-.326.488l-5.043 13.422c0 .255.07.383.221.383m-50.556-3.779l-.023 3.838c-.035 1.093-.059 4.035-.059 7.303v5.99c0 .72-.035 1.186-.105 1.384-.07.197-.268.395-.595.57-1.634.837-3.642 1.453-6.012 1.849a43.35 43.35 0 01-7.155.593c-3.456 0-6.7-.419-9.724-1.256-3.023-.837-5.697-2.128-8.031-3.861-2.335-1.745-4.168-3.978-5.487-6.7-1.33-2.72-1.996-5.896-1.996-9.524 0-4.06.9-7.641 2.709-10.723 1.797-3.082 4.073-5.443 6.805-7.071 2.37-1.419 4.716-2.361 7.05-2.826 2.335-.477 4.88-.71 7.646-.71a45.5 45.5 0 012.79.082 73.958 73.958 0 015.463.546c.654.093 1.133.175 1.424.245.724.14 1.495.279 2.3.383.806.105 1.471.186 2.02.221.513.035.758.256.758.652a3.9 3.9 0 01-.058.593c-.07.802-.14 1.802-.222 3.024-.082 1.22-.105 2.988-.105 5.303 0 .767-.198 1.14-.607 1.14-.292 0-.467-.233-.549-.71a11.642 11.642 0 00-.548-2.419c-.257-.744-.689-1.442-1.308-2.093-.98-1.047-2.556-2.024-4.727-2.908-2.171-.895-4.658-1.337-7.46-1.337-2.007 0-3.875.21-5.626.628-1.75.418-3.478 1.337-5.194 2.744-1.6 1.338-2.837 3.094-3.712 5.257-.876 2.163-1.308 4.85-1.308 8.083 0 2.908.444 5.606 1.343 8.106.898 2.5 2.17 4.675 3.852 6.536 1.68 1.85 3.688 3.28 6.035 4.303 2.346 1.012 4.95 1.524 7.786 1.524 1.015 0 1.902-.035 2.65-.105.747-.07 1.412-.232 1.996-.488.688-.326 1.039-1 1.039-2.012v-5.117c0-3.199-.024-6.106-.059-7.2-.035-.941-.222-1.65-.548-2.116-.327-.477-.934-.803-1.81-.977-.432-.105-1.144-.163-2.136-.163-.549 0-.817-.14-.817-.43 0-.36.385-.547 1.144-.547.98 0 2.638.035 4.973.105 1.599.035 2.591.058 2.953.058.409 0 1.377-.035 2.86-.093.315 0 .385.21.385.349m17.125 4.966V18.818c0-1.198-.035-2.245-.105-3.164-.106-1.78-.736-2.791-1.856-3.047a7.998 7.998 0 00-1.962-.22c-.583 0-.875-.187-.875-.547 0-.291.432-.43 1.307-.43.689 0 2.02.034 3.993.104 1.529.035 2.568.058 3.116.058.432 0 1.331-.011 2.673-.058 1.891-.07 3.222-.105 3.993-.105.77 0 1.144.14 1.144.43 0 .361-.292.547-.876.547-.432 0-.98.058-1.634.163-.724.14-1.226.454-1.506.93-.268.466-.444 1.198-.514 2.175a41.78 41.78 0 00-.105 3.164v17.968c0 3.373 0 5.943.035 7.7.012 1.755.082 3.162.187 4.22.105.838.304 1.466.595 1.873.292.419.818.675 1.588.791.397.035.852.081 1.366.14.513.058.98.081 1.424.081.584 0 .875.14.875.43 0 .36-.35.547-1.038.547-1.53 0-3.537-.035-6.012-.116a103.486 103.486 0 00-2.51-.058c-.292 0-1.144.023-2.568.058-2.113.07-3.549.116-4.319.116s-1.097-.186-1.097-.547c0-.29.292-.43.875-.43.654 0 1.308-.07 1.973-.221.875-.186 1.401-1.093 1.587-2.721.106-1.047.187-2.466.222-4.222.035-1.756.059-4.315.059-7.653m-88.82-20.55l1.565-.826-.467-.325-1.016.604.21-1.174-.467-.314-.245 1.744-.63.884.432.302.618-.895zM35.08 12.84l.373.07.327 1.127.595.105-.397-1.233c.07-.011.128-.035.199-.058a.656.656 0 00.175-.116.515.515 0 00.14-.175.751.751 0 00.082-.244.767.767 0 000-.325.614.614 0 00-.129-.28.848.848 0 00-.584-.349l-1.027-.174-.455 2.617.514.093.186-1.047v-.012zm.198-1.117l.478.081c.117.024.199.07.257.14a.31.31 0 01.059.267.362.362 0 01-.14.233.404.404 0 01-.292.047l-.49-.082.116-.698.012.012zm11.728 6.024l-1.284-.07-.07 1.28 1.284.07.07-1.28zM13.763 30.482l-.467-.011-.035 1.22-.642-.01.023-1.047-.455-.024-.035 1.047-.63-.012.035-1.232-.456-.012-.058 1.744 2.661.082.059-1.745zm20.51 11.258l-.234.628h3.98l-.128-.628h-3.618zm5.975-26.179l.946-1.977.63.29.199-.418-1.728-.814-.199.418.63.291-.945 1.989.467.221zm2.768 31.249l.291.361.958-.779.408.5-.817.663.292.36.817-.662.397.477-.957.779.292.36 1.365-1.104-1.692-2.059-1.354 1.105zm5.613-22.968l.233.546 1.051.105-.654.837.234.547.934-1.291 1.505.21-.233-.547-.969-.093.607-.756-.233-.547-.9 1.221-1.575-.232z"/><path d="M44.779 22.737l-.023-.117H19.4l-.023.117s-.84 4.954.292 10.537c1.05 5.163 4.062 11.978 12.397 15.153l.047.024.058-.024c8.451-3.29 11.428-10.106 12.432-15.235 1.097-5.56.175-10.397.163-10.444l.012-.011zm-9.735 9.827s.105.035.116.093c0 .058.082.128.117.198.023.046.058.058.047.093 0 .023-.094.105-.129.116-.023 0-.058-.035-.128-.023-.07.023-.222 0-.257.046a.573.573 0 01-.187.07l-.14-.593c.175-.023.35-.047.526-.058 0 .023.023.058.035.07v-.012zm-9.14.221c0 .198-.362.29-.199.419.14.116.035.232-.082.372h-.712c0-.198-.023-.396-.023-.593.315-.14.654-.28 1.004-.407 0 .07.023.186.023.209h-.011zm14.404.128c.012.07.093.151.105.233.024.162-.023.337-.035.383v.035h-1.214c-.023-.128-.058-.267-.081-.395-.036-.163-.082-.337-.117-.5.081.011.233.058.256.116.024.047-.035.105 0 .128.036.023.082.046.129.07.047.023 0 .081.047.104.07.035.07 0 .14.047.14.105.175-.14.21-.163.093-.058.163.058.28.058.07 0 .163-.163.257-.232.035-.024.058-.035.082-.035.023 0-.035.081-.024.15h-.035zm-12.14.163c-.082-.047-.257 0-.35-.023l-.257-.128c-.023-.012 0-.024.012-.035.023-.012.058-.035.07-.035.011 0-.035-.093-.059-.105a.646.646 0 01-.07-.093l-.058-.093c-.058-.105 0-.174-.152-.186-.035 0-.198.267-.315.267-.012-.162-.035-.314-.047-.465.91-.302 1.191-.384 1.973-.604.082.546.187 1.128.304 1.71-.292.08-.584.162-.876.255a.645.645 0 00.058-.151c0-.07-.21-.291-.233-.303v-.011zm-4.296-1.093h-.081c-.024 0-.035.011-.047.023v.105c0 .034-.14.255-.163.279-.012.011-.105.023-.176 0 .035-.187.07-.361.117-.535l.245-.14c.152.07.105.233.105.244v.024zm-.245-.5c.082-.268.175-.524.28-.78.07.07.175.14.152.256-.023.093-.093.14-.117.221a.668.668 0 01-.07.163c-.081.046-.163.093-.245.128v.011zm1.226-1.466c-.082.058-.024.082-.152.151-.012 0-.187.233-.152.291.035.058-.081.326-.011.36.07.035-.047.129-.047.152 0 .011-.163 0-.198-.07-.094-.151.035-.29.023-.337-.035-.082-.163-.163-.245-.175.035-.058.058-.128.093-.186.28-.163.584-.325.922-.488-.035.093-.07.197-.093.29-.035 0-.07-.023-.117 0l-.023.012zm.595-.477c.362-.163.759-.314 1.18-.477a.572.572 0 00.128-.046c-.07.36-.117.756-.152 1.163a1.087 1.087 0 01-.175.058c-.059-.046-.07-.151-.094-.174-.046-.059-.128-.024-.151-.035-.035-.024-.035-.082-.082-.082a.874.874 0 01-.257-.093c-.047-.035-.292-.163-.338-.163a.246.246 0 00-.129.047 3.75 3.75 0 00.07-.198zm-.011 2.885s-.082.034-.117.046c0-.151.035-.093.058-.198 0-.023-.128-.07-.175-.093-.175-.128-.105-.325-.058-.384.046-.058.35-.325.256-.372-.186-.081.152-.453.269-.407.117.047.257-.232.385-.186.14.047.082.058.117.151.023.059-.023.14-.035.198-.012.058-.117.082-.093.186.023.105-.28.465-.304.489-.058.035-.07.267.07.197.117-.058.175.105.199.14-.199.081-.397.151-.596.233h.024zm2.23-3.49s.046.105.046.152c0 .046.058.081.07.081.023 0 .035-.012.058-.023.07-.023.082.023.164.023.011 0 .058.012.093.035.047.023.035.093 0 .128a.198.198 0 01-.07.07c-.163.035-.327-.07-.28.244 0 .07.035.128.07.163-.292.081-.525.163-.91.29.034-.418.081-.814.163-1.174.28-.093.478-.163.665-.21-.047.082-.093.175-.082.233l.012-.011zm12.198 3.001c-.164-.035-.246.047-.339.128-.187-.012-.385-.035-.595-.047v-.011c.07-.186 0-.407.081-.605.024-.046.117-.14.199-.128.035 0 .047.082.105.105.023 0 .035.058.047.104 0 .024.058-.011.105 0 .058.024.14.082.186.047.082-.058.164-.128.222-.151h.012c.07.174.14.36.21.535-.082 0-.187.035-.245.023h.012zm-2.113 1s.058.012.116 0c.024 0 .035-.081.035-.081-.058-.035-.21-.058-.326-.116-.024-.012-.012-.059-.047-.07-.129-.047-.257-.058-.292-.105-.07-.081-.047-.198.059-.21.081 0 .291.07.431.117h.234c.035.035.023.233.082.244.105.023.116.116.175.198.023.035.093.023.14.07.07.07.14.209.175.256.081.116.198.081.268.046.024.093.035.186.059.268h-1.098s-.035-.093-.023-.128c0-.024.035-.024.047-.047.023-.058.07-.116.081-.198 0-.058-.105-.209-.093-.255l-.023.011zm-1.973-2.384c.152.21.14.21-.058.314-.082.035-.28.163-.28.268 0 .093.104.14-.024.186-.058.011-.245.186-.292.081-.035-.081.035-.186 0-.256-.023-.035-.093-.035-.128-.023-.012 0-.035-.012-.035-.035-.07-.174-.467-.326-.584-.419-.047-.035-.035-.081-.023-.128.572-.07.864-.093 1.459-.127v.023c0 .058-.058.081-.035.128v-.012zm-4.506.465c.128.524.257 1.094.397 1.687-.712.14-1.424.314-2.125.5a45.137 45.137 0 01-.303-1.71 46.357 46.357 0 012.031-.477zm-.35-3.768s.023-.07.023-.105c0-.058-.081-.127-.105-.162 0-.024-.047-.035-.093-.058.315-.059.63-.105.945-.152.164.175.327.396.479.64a17.19 17.19 0 00-1.296.22c-.023-.092-.058-.232.035-.371l.012-.012zm5.23 1.175c.035-.093.081-.14.058-.303 0 0 .035-.046.058-.081.117.116.222.244.327.384h-.455.012zm-1.121.616s-.128.116-.152.21c-.07.22.199.453.175.465v.023c.024.035.059.128.105.174a.18.18 0 00.129.059s.023 0 .035-.012h.046c.024 0 .047 0 .094-.023a.797.797 0 00.105-.093c.035.081.07.162.117.256-.678.046-.981.08-1.506.139a.296.296 0 00-.105-.14c-.024-.023-.199.082-.257.14a20.827 20.827 0 00-.502-1.314 30.81 30.81 0 011.692-.163c.024.035.036.058.059.093-.082.105 0 .105-.035.186zm-5.848 1.977c.116-.023.128.058.245-.151.047-.081 0-.163.023-.28.012-.092.163-.464.07-.534-.105-.081.222-.267.304-.256.07 0 .07-.035.081-.081 0 0 .024-.117.035-.186.304-.07.62-.14.923-.198.105.419.221.884.35 1.384-.946.198-1.203.267-2.008.465 0-.058-.012-.116-.023-.174h.011l-.011.011zm1.844-2.872s.035-.105 0-.128a.545.545 0 01-.105-.117 21.05 21.05 0 011.412-.232c.175.302.35.64.514 1.012-.595.081-1.19.186-1.774.302-.047-.186-.105-.372-.152-.558.082-.093.152-.186.093-.28h.012zm3.805.337c-.712.058-.957.081-1.645.163-.176-.372-.339-.71-.514-1.012.502-.058.98-.105 1.424-.14.257.28.502.617.735.989zm-.607-1.28a6.27 6.27 0 00-.665-.604c.28 0 .56-.012.817 0 .327.163.642.349.946.581-.35 0-.712 0-1.098.024zm-.385.024a27.31 27.31 0 00-1.33.14 4.786 4.786 0 00-.467-.64c.443-.058.618-.07 1.062-.105.245.163.49.372.735.605zm-3.058 1.814l-.63.14c.151-.396.396-.419.525-.512a8.7 8.7 0 01.105.384v-.012zm.957.128a.85.85 0 01-.198.175c-.024.011-.129.22-.082.29.047.058.082.14.14.186-.035.035.21-.128.198-.058-.035.151.199-.058.21-.07.14-.127.292-.302.42-.418.047-.035-.07-.128-.174-.198.21-.035.432-.07.735-.105.175.419.35.873.514 1.361-.642.093-1.308.198-1.985.326a47.872 47.872 0 00-.35-1.384c.222-.047.409-.082.56-.105h.012zm4.751.558c.07-.081-.058-.162-.082-.22-.011-.047.187-.28.105-.35-.023-.023-.28-.14-.28-.162 0 0-.023-.198-.047-.268h.526c0 .035 0 .082-.023.128-.035.14.221.151.233.151h.082c.07.105.128.198.198.303-.105.035-.175.325-.175.407 0 .337.117.116.128.232a.186.186 0 01-.058.117c-.28 0-.56 0-.84.023.023-.175.28-.093.291-.256 0-.023-.128-.035-.081-.093l.023-.012zm1.26-.942s.012 0 .024.012c.012 0 .163.337.152.407-.023.07-.269.035-.397.047a10.287 10.287 0 00-.245-.373s.023-.011.035-.023a.66.66 0 01.21-.081c.07 0 .14.011.222.023v-.012zm-.91-.523c-.117-.151-.245-.29-.373-.43.116-.105.361-.221.432-.117.081.105-.07.43-.059.547zm-1.366-.663s0 .116.024.163c.07.174-.035.058-.082.29-.047.222.105.105-.082.291a.416.416 0 00-.07.128h-.081a9.355 9.355 0 00-.712-.988c.49-.024.677-.024 1.062-.012.035.058-.047.093-.059.14v-.012zm-2.288-1.256a5.053 5.053 0 00-.35-.186h.152c.245.035.479.093.724.163-.152 0-.304 0-.514.023h-.011zm-1.377.128c-.128-.116-.21-.198-.292-.256.199-.023.386-.035.56-.046.199.046.397.116.608.209-.28.023-.572.058-.864.093h-.012zm1.786 4.152c.047.14.094.279.129.419a.28.28 0 00-.082.034c-.059 0-.035.21-.035.221-.024.047 0 .117.011.175.024.058.094.011.105.035.059.081-.14.314.024.325a.31.31 0 00.163-.07l.14.524c-.7.093-1.4.21-2.09.349-.15-.663-.28-1.198-.396-1.686a40.032 40.032 0 012.008-.338l.023.012zm.806 1.628c-.082-.302-.152-.581-.234-.86.304-.105.199.244.327.139.023-.023.175.081 0 .151-.105.047.035.128.07.151.105.07.233-.407.502-.186.023.024 0 .047-.023.082-.024.035-.012.046-.059.081-.058.035-.07.047-.117.058-.023 0 .012.128.024.14.023.058-.129.163-.222.232-.093 0-.175.024-.257.035l-.011-.023zm2.591.965c-.035-.174-.082-.337-.117-.511.082.093.164.162.292.174.058 0 .105.012.152.023.058 0 .105.07.163.093.07.024.14.128.164.186 0 .024.035.163-.035.198-.059.035-.164.035-.245.035-.047 0-.105.035-.105.116v.047h-.199c-.023-.117-.047-.244-.082-.36h.012zm3.245-1.768c.21.035.666 0 .817.361.129.303-.408.128-.63.116a5.741 5.741 0 00-.187-.476zm-4.307-4.477s-.164-.046-.199-.012c0 .024-.023.093-.011.105 0 0-.012 0-.059.035a7.365 7.365 0 00-.665-.465c.152.011.303.035.443.058.164.07.316.14.479.22.023.024.035.059.012.07v-.011zm-4.856-.698c.128.058.245.14.373.244-.222.035-.455.07-.677.117 0 0-.023 0-.023-.023 0 0-.035-.035-.07-.035-.07 0-.152.023-.199 0-.046 0-.035-.024-.023-.059.023-.058.163 0 .175-.15v-.047c.14-.024.292-.047.432-.07l.012.023zm-2.195 5.001c-.934.268-1.19.349-1.95.593 0-.07 0-.14-.011-.21.21-.046.163-.243.163-.255 0-.058.07-.233.07-.233.152-.023.07-.337.152-.407.082-.058-.011-.22-.081-.197a.235.235 0 00-.129.104c-.023.047-.105.024-.105 0 0-.023-.035-.104-.082-.128v-.15c.56-.187.852-.28 1.203-.385a.55.55 0 00-.035.326c.011.058.081.035.105.082.023.034 0 .15.023.186.035.058.117.14.117.15.07.082.117.222.175.233.035 0 .093.012.117.047.011.023.105.023.128.046.047.047.082.07.117.059 0 .046.012.093.023.128v.011zm-.91-2.954c-.28.082-.479.151-.806.256.023-.093.058-.186.082-.268.455-.255.677.012.724.012zm-1.67.058c.105 0 .222.151.28.163.07 0 .21-.128.327-.14a2.266 2.266 0 00-.081.303l-.059.023c-.07.023-.14.047-.21.082-.338.128-.653.244-.945.372.151-.326.338-.628.537-.896a.09.09 0 00.058-.023c.023.07.035.14.093.14v-.024zm-1.19.407a4.91 4.91 0 01.548-.29 4.25 4.25 0 00-.303.558c-.047-.047-.117-.093-.152-.093-.012 0-.093-.035-.163-.07a.666.666 0 01.081-.093l-.011-.012zm-.327.454s.385-.058.408-.012c0 .012.035.035.059.035 0 .023-.024.035-.024.058-.28.128-.56.256-.805.396a9.95 9.95 0 01.303-.454c.024 0 .047-.023.059-.035v.012zM23.23 30.83c.222-.186.316-.256.479-.36-.175.383-.327.79-.444 1.22-.105.07-.186.117-.256.164.011-.047.023-.105 0-.152a.55.55 0 01-.105-.22c.081-.163.186-.361.338-.64l-.012-.012zm1.343 2.291c0 .151 0 .303.011.454h-.513s-.047-.117-.047-.186c.175-.093.362-.175.549-.268zm5.043.454s0-.035-.012-.058c.7-.186 1.412-.35 2.136-.5.035.186.082.372.129.558h-2.253zm2.58 0l-.106-.477-.035-.151a37.491 37.491 0 012.101-.35c.07.28.14.57.21.896 0 .024.012.047.012.082h-2.183zm3.478-.07c.07-.058.058-.14.117-.233.046-.07.163-.128.163-.186 0-.035-.07-.116-.07-.174 0-.058.058-.093.093-.116.094-.058.234.023.28-.024.094-.081.14-.244.234-.302.07.256.128.523.187.79.023.105.047.21.07.303h-1.11s.013-.046.048-.07l-.012.012zM31.32 46.45c-5.218-2.349-8.288-5.896-9.747-11.293h9.747V46.45zm1.587 0V35.17h9.654c-1.307 4.325-4.074 8.663-9.654 11.28zm10.074-12.874h-.035c-1.412-4.64-5.743-8.037-10.867-8.037a11.353 11.353 0 00-10.868 8.037h-.012v-.047c-.782-3.919-.619-7.524-.443-9.397h22.68c.246 2.233.374 5.745-.455 9.444zm8.662-7.327c-.094 0-.187.023-.28.046a6.719 6.719 0 01-.316.07c-.116.024-.21.058-.315.082a1.378 1.378 0 00-.49.221c-.07.046-.117.116-.175.197a.84.84 0 00-.129.36.972.972 0 00.024.408c.023.116.07.22.128.326a.899.899 0 00.525.395c.117.035.246.047.386.035l-.129-.512a.479.479 0 01-.291-.081c-.094-.047-.152-.14-.176-.268-.011-.07-.023-.14 0-.197 0-.059.035-.117.07-.163a.503.503 0 01.07-.082c.024-.023.07-.046.117-.07.047-.023.117-.046.199-.07.081-.023.186-.046.303-.08.129-.036.222-.059.315-.07a5.07 5.07 0 00.21-.035h.14c.036 0 .07.023.106.035a.302.302 0 01.128.116c.035.046.07.105.082.174.035.128.023.233-.035.314a.764.764 0 01-.222.21l.128.511a1.3 1.3 0 00.327-.209c.094-.081.152-.174.21-.267a.79.79 0 00.082-.326c0-.116 0-.233-.035-.349a1.203 1.203 0 00-.163-.372 1.027 1.027 0 00-.537-.36c-.082-.012-.164-.024-.257-.012m-3.584 18.77a1.369 1.369 0 00-.128-.22 1.64 1.64 0 00-.199-.21c-.07-.07-.151-.14-.233-.22a1.955 1.955 0 00-.245-.21c-.082-.07-.152-.116-.222-.163a.847.847 0 00-.234-.105.663.663 0 00-.268-.023.844.844 0 00-.374.093 1.07 1.07 0 00-.315.244c-.081.093-.14.186-.198.291-.047.105-.07.21-.082.326a1.022 1.022 0 00.257.675l.35-.396a.674.674 0 01-.105-.29.472.472 0 01.268-.42.459.459 0 01.28-.023c.036 0 .082.023.13.058.046.024.104.07.174.128.07.059.14.128.245.21.094.081.175.15.234.209.058.058.105.105.14.151a.436.436 0 01.07.117c.011.034.023.07.023.104 0 .058 0 .116-.023.175a.642.642 0 01-.093.174c-.094.093-.187.151-.28.151a.722.722 0 01-.304-.07l-.35.396c.116.07.233.128.35.151a.838.838 0 00.338.012.796.796 0 00.316-.117 1.21 1.21 0 00.268-.22c.093-.105.163-.221.21-.35a.82.82 0 00.047-.383.59.59 0 00-.059-.256m.503-22.26l-.666-1.035.549-.349.56.884.397-.244-.56-.896.525-.325.665 1.035.386-.245-.946-1.477-2.253 1.42.946 1.476.396-.244zm-8.417 27.831l1.237.349.35-1.233-1.237-.349-.35 1.233zm-1.287-38.438l-.502-.162-.817 2.523.49.163.83-2.524zm-20.519 6.839l-.023-1.28-1.284.024.023 1.28 1.284-.024zm3.001-1.803l-1.587-2.128-.42.314 1.598 2.128.41-.314zm1.575-1.012l-.782-1.442 1.705.93.408-.22-1.272-2.326-.456.244.783 1.43-1.716-.93-.409.221 1.272 2.338.467-.245zm-6.06 5.618l-.397-.244-.642 1.058-.56-.337.548-.896-.396-.244-.55.907-.536-.326.642-1.058-.397-.233-.91 1.5 2.287 1.373.911-1.5z"/><path d="M59.907 34.274c1.342-.43 4.342-1.373 4.342-1.373l-4.26-1.675s2.87-1.279 4.167-1.872l-4.413-1.175c1.202-.767 3.934-2.279 3.934-2.279l-4.518-.744 3.607-2.722-4.529-.198 3.327-3.105-4.54.303c.91-1.059 2.019-2.396 2.953-3.431l-4.483.779 2.533-3.757-4.354 1.291c.619-1.256 2.101-4.035 2.101-4.035l-4.004 1.558 1.46-4.012-3.946 2.186c.362-1.36.864-2.989 1.202-4.36L46.763 8.28s.478-3.14.688-4.477l-3.408 3.012.233-4.536-.233.268c-.946 1.023-1.856 2.175-2.837 3.093l-.268-4.477-2.662 3.663c-.245-1.384-.56-3.023-.747-4.43l-2.288 3.907L33.97 0l-1.786 4.117-1.74-4.129-1.319 4.315L26.93.36l-.817 4.42-2.615-3.675-.35 4.5-3-3.36.151 4.524-3.385-2.99.666 4.455-3.654-2.652 1.109 4.396s-2.685-1.535-3.91-2.232l1.61 4.245-4.179-1.768 2.055 4-4.32-1.302 2.522 3.745-4.47-.814 2.894 3.5-4.494-.36 3.245 3.175-4.517.116 3.595 2.803-4.482.628 3.898 2.36c-1.342.408-3.058.768-4.4 1.152l4.097 1.861c-1.32.547-4.214 1.675-4.214 1.675s3.058.919 4.33 1.442l-4.062 2.07s3.105.651 4.483.942c-1.156.78-3.817 2.512-3.817 2.512l4.564.442c-1.05.919-3.514 2.93-3.514 2.93l4.588-.034-3.175 3.28 4.54-.57a941.448 941.448 0 01-2.79 3.617l4.483-1.024-2.381 3.885 4.354-1.512-1.95 4.094s2.884-1.454 4.133-1.966l-1.46 4.326 3.841-2.43-.922 4.454 3.549-2.791-.444 4.477 3.28-3.28-.035 4.595s2.02-2.547 2.907-3.56c.198 1.396.56 4.536.56 4.536l2.428-3.884.98 4.466.2-.349 1.902-3.815 1.517 4.373 1.588-4.221 1.973 4.035 1.062-4.466s1.704 2.687 2.416 3.896l.572-4.57s1.938 2.523 2.849 3.605l.128-4.454 3.14 3.093-.374-4.442 3.49 2.803c-.28-1.28-.933-4.513-.933-4.513 1.167.803 2.685 1.721 3.864 2.489l-1.413-4.35 4.11 2.012s-1.378-2.896-1.915-4.152c1.26.454 3.035 1.082 4.296 1.582.151.116-2.242-3.93-2.242-3.93l4.366 1.069-2.697-3.652 4.471.593-3.163-3.326 4.587.105-3.49-2.966 4.553-.407-3.782-2.57 4.459-.872-4.05-2.152-.012.047zm3.175-1.559l-5.965-.22 2.684-1.07c1.098.418 2.183.848 3.28 1.278v.012zm-7.063 5.664l2.206 1.686-2.813.198s.432-1.256.607-1.896v.012zm-1.074-15.991l2.802.046c-.7.64-1.366 1.28-2.125 1.85l-.677-1.896zm.888 2.5l2.766.419c-.805.546-1.46 1.093-2.288 1.593l-.49-2.012h.012zm.758 10.816l2.44 1.524-2.837.453.397-1.977zm-.116-8.118l2.673.687-2.37 1.29-.303-1.977zm.373 5.431l2.627 1.222c-.9.29-1.868.511-2.779.767l.152-1.977v-.012zm-.035-2.733l2.732.943c-.852.372-1.775.732-2.662 1.093l-.058-2.024-.012-.011zm6.152-.976l-5.942.453 2.533-1.349 3.397.884.012.012zm-.514-3.338l-5.825 1.07 2.347-1.652 3.478.582zm-.817-3.303l-5.661 1.721 2.183-1.884 3.478.151v.012zm-1.179-3.198L54.98 21.84l1.962-2.163s2.358-.14 3.513-.221v.012zm-5.79 2.28l-.945-1.804c.957-.104 2.801-.267 2.801-.267s-1.225 1.349-1.856 2.07zm4.156-5.281l-5.23 3 1.67-2.384c1.155-.197 2.404-.407 3.548-.616h.012zm-5.463 2.873l-1.133-1.768 2.674-.407-1.53 2.175h-.011zm3.665-5.734l-4.81 3.466 1.46-2.489c1.12-.326 2.241-.64 3.338-.977h.012zm-5.136 3.466h-.07l-1.249-1.547 2.755-.942-1.436 2.489zm2.93-6.094l-4.342 4 1.202-2.756 3.14-1.233v-.011zm-4.693 4.07l-1.482-1.407c.852-.442 1.762-.86 2.661-1.244l-1.179 2.651zm-.77-4.698l3.058-1.745-3.945 4.478.899-2.745-.012.012zm-1.202 2.802l-1.623-1.22 2.451-1.524c-.198.872-.572 1.814-.828 2.744zm-1.284-4.605l2.813-2-3.385 4.873.572-2.873zm-.876 2.954c-.572-.29-1.144-.721-1.75-1.023l2.287-1.803c-.187.942-.373 1.896-.549 2.826h.012zm-1.81-4.373l2.604-2.35-2.848 5.211.245-2.86zm-2.778-1.221l2.323-2.594-2.264 5.49c-.012-.872-.082-1.92-.047-2.896h-.011zm2.475 1.326l-.245 2.896-1.833-.85 2.078-2.046zm-2.778-1.152l.047 2.92-1.891-.64v-.093l1.832-2.198.012.011zm-.619-3.837l-1.657 5.687-.374-2.896 2.031-2.791zm-2.288 3.012l.397 2.896-2.03-.42 1.633-2.476zm-1.038-3.64l-1.016 5.71-.677-2.745 1.693-2.966zM35.183 4.78l.735 2.826-2.054-.221 1.307-2.617.012.012zm-1.401-3.664l-.374 5.943-1.038-2.651 1.412-3.292zm-1.6 3.617s.713 1.687 1.016 2.629l-2.043-.035 1.028-2.594zM30.35 1.14l.304 5.92-1.285-2.57.981-3.35zm-1.179 3.64l1.308 2.617-2.055.22.735-2.826.012-.011zm-2.206-3.268s.642 3.896.945 5.85l-1.552-2.408.607-3.442zm-.77 3.721L27.781 7.7l-1.985.454.397-2.92zm-2.569-2.965l1.588 5.664-1.821-2.129.233-3.535zm-.292 3.942l1.798 2.094c-.619.244-1.296.442-1.926.698l.128-2.792zm-.712 2.64l-2.066-1.895-.128-3.582 2.206 5.489-.012-.012zm-.035.407l-1.879.85-.187-2.78 2.066 1.93zM7.46 32.203c-.91-.302-1.821-.72-2.732-1.07.888-.36 1.845-.64 2.779-.953-.117.628-.035 1.384-.047 2.012v.011zm.152 2.733l-2.813-.825s1.774-.826 2.661-1.221l.152 2.047zM4.973 28.11l2.836-.64-.245 2-2.603-1.372.012.012zm2.72 7.466l.396 2.024-2.883-.5 2.486-1.524zm-2.137-10.42c.957-.14 1.95-.21 2.93-.303l-.525 1.977-2.405-1.674zM8.218 38.25c.222.605.408 1.291.642 1.93l-2.907-.15 2.265-1.78zm.408-13.968l-1.96-1.86 2.742-.117-.782 1.989v-.012zM17.883 8.71l2.323 1.698-1.844 1.093-.479-2.791zm.012 3.117l-1.67 1.29-.793-2.64 2.475 1.35h-.012zm-.572-6.99l2.813 5.199-2.3-1.698-.513-3.513v.012zM14.45 6.629l3.362 4.873-2.451-1.396-.91-3.477zm-2.685 2.07l3.888 4.524-2.58-1.151-1.308-3.361v-.012zm3.993 4.827l-1.53 1.465-1.085-2.559 2.615 1.094zm-6.444-2.443c1.436 1.384 2.93 2.664 4.378 4.048l-2.685-.838-1.681-3.221-.012.011zm4.46 4.385c-.433.535-.876 1.07-1.308 1.593l-1.32-2.372 2.639.779h-.012zM7.143 13.7c1.587 1.198 3.21 2.35 4.786 3.57l-2.79-.604L7.144 13.7zm4.926 3.873l-1.097 1.698-.024.058-1.646-2.35 2.779.594h-.012zm-6.759-1l5.136 2.989-2.801-.21-2.335-2.78zm5.288 3.28l-.922 1.825-1.856-2.035 2.778.198v.011zm-6.782-.245c1.821.791 3.549 1.605 5.37 2.384l-2.814.117-2.556-2.5zm-1.26 3.175l5.684 1.803-2.883.302-2.802-2.105zm-.83 3.28l5.837 1.174-2.872.605-2.965-1.78zm-.455 3.396l5.93.523-2.755.919-3.175-1.43v-.012zM1.18 32.83l5.965-.116L4.542 33.9 1.18 32.83zm.315 3.396l5.86-.802-2.405 1.5-3.455-.698zm.654 3.35l5.766-1.43-2.264 1.732-3.49-.302h-.012zm1.027 3.221l5.556-2.047-2.042 1.98-3.514.07zm5.895-1.977l.829 1.896-2.907.116 2.078-2v-.012zm-4.518 5.094l5.288-2.651-1.809 2.198-3.479.453zm5.615-2.593c.362.546.7 1.151 1.04 1.733l-2.884.476 1.832-2.22.012.01zM6.28 48.834l4.926-3.198-1.564 2.42-3.362.79v-.012zm5.3-3.163l1.225 1.617-2.766.732 1.54-2.337v-.012zm-3.304 5.908l4.623-3.745-1.284 2.559-3.35 1.186h.011zm4.95-3.756l1.377 1.465L12 50.31l1.226-2.477v-.011zm.536 4.663l-3.151 1.5 4.155-4.163-1.004 2.663zm1.343-2.675l1.53 1.303-2.51 1.256.98-2.57v.011zm1.004 4.629l-2.942 1.85 3.665-4.664-.723 2.802v.012zm1.062-2.896l1.646 1.152-2.346 1.57.7-2.733v.011zm1.588 4.524l-2.802 2.175 3.152-5.07-.35 2.884v.011zm.642-2.965l1.774.953-2.171 1.884.397-2.826v-.011zm-.42 6.733l2.544-5.326.035 2.768-2.591 2.57.011-.012zm3.058 1.303l2.043-5.629c.116.965.326 2.78.326 2.78l-2.37 2.837v.012zm-.21-4.047l.023-2.745 1.833.768-1.856 1.977zm2.848.919l-.315-2.652 1.926.546-1.611 2.105zm.7 4.058l1.366-5.838.584 2.721-1.95 3.106v.011zm2.172-3.407l-.56-2.605 1.96.325-1.4 2.28zm1.213 3.942l.713-5.92.817 2.745-1.53 3.175zm1.775-3.419l-.864-2.698 2.055.116-1.191 2.582zm1.692 3.594l.024-5.943 1.155 2.721-1.179 3.222zm1.378-3.547s-.724-1.78-1.18-2.629c.678-.035 2.032-.116 2.032-.116l-.852 2.745zm2.008 3.35l-.642-5.897 1.424 2.477-.794 3.42h.012zm.98-3.7l-1.436-2.465 1.985-.337-.549 2.803zm2.382 3.14l-1.284-5.814 1.715 2.35-.431 3.465zm.595-3.767l-1.716-2.326 1.926-.547-.198 2.873h-.012zm2.685 2.802l-1.903-5.605 1.984 2.163-.093 3.442h.012zm-1.775-5.896l1.833-.756.047 2.78-1.88-2.012v-.012zm-8.358-.105c-12.782 0-23.147-10.327-23.147-23.062 0-12.735 10.365-23.062 23.147-23.062 12.782 0 23.148 10.327 23.148 23.062 0 12.735-10.365 23.062-23.148 23.062zm25.04-12.153l-2.779-.14.806-1.814 1.972 1.954zm-1.355 2.64l-2.755-.372c.42-.698.98-1.745.98-1.745l1.775 2.117zm-1.622 2.535l-2.755-.697 1.19-1.617 1.565 2.314zm-1.903 2.408l-2.627-1.07 1.32-1.5 1.307 2.57zm-3.21-.593l1.039 2.675-2.51-1.373 1.47-1.302zm-2.078 1.744l.724 2.768-2.347-1.616 1.623-1.152zm-1.868 4.327l-2.136-1.861 1.751-.942.397 2.803h-.012zm.327 3.942l-2.556-5.5 2.24 1.988.316 3.524v-.012zm2.942-1.744l-3.082-5.071 2.323 1.617.759 3.454zm2.813-1.93l-3.642-4.723 2.545 1.407 1.097 3.315zm2.591-2.245l-4.144-4.269 2.65 1.093 1.483 3.175h.011zm2.323-2.501l-4.622-3.815 2.825.733 1.797 3.082zm1.973-2.745l-4.984-3.268 2.848.384 2.136 2.873v.011zm1.681-2.954L54.49 43.09l2.802.116 2.486 2.582zm1.378-3.117l-5.569-2.093 2.825-.233 2.744 2.326zm1.073-3.198l-5.848-1.523 2.907-.454 2.941 1.977zm-5.334-4.221l2.79-.78L62.8 36.1l-5.918-.85h.012z"/><path d="M25.274 12.642l.7 2.082.503-.163-.712-2.082.665-.22-.152-.443-1.81.617.14.43.666-.221zm-12.63 12.677c.058.058.128.116.198.162.082.047.163.093.257.128.093.035.187.082.303.117.105.046.21.081.304.116.093.035.187.058.268.081a.963.963 0 00.257.024.533.533 0 00.257-.07.902.902 0 00.315-.221.92.92 0 00.21-.337.962.962 0 00-.011-.803.879.879 0 00-.245-.302 1.735 1.735 0 00-.42-.233l-.363-.14-.373.93.408.164.175-.454.094.035c.07.023.117.058.175.093.047.035.082.093.117.14.023.058.046.116.046.186 0 .07-.011.14-.035.21a.395.395 0 01-.105.162.488.488 0 01-.14.093.33.33 0 01-.105.023c-.035 0-.082 0-.14-.011-.058 0-.117-.035-.198-.059-.082-.023-.176-.07-.304-.116-.117-.046-.21-.081-.292-.116-.081-.035-.14-.07-.187-.093-.046-.035-.081-.058-.104-.082a.252.252 0 01-.059-.093.678.678 0 01-.047-.163c0-.058 0-.127.035-.197a.43.43 0 01.21-.256.591.591 0 01.327-.047l.199-.488c-.117-.023-.222-.035-.339-.023a1.037 1.037 0 00-.327.081.97.97 0 00-.291.21 1.04 1.04 0 00-.222.348 1 1 0 00-.082.396c0 .128.035.256.082.372a.716.716 0 00.14.22m13.88-5.512c.128.268.314.5.548.663.233.175.502.302.794.384.292.081.618.128.957.128.233 0 .479-.023.7-.058a2.01 2.01 0 00.596-.186.198.198 0 00.07-.07c0-.023.011-.07.011-.151v-1.663s-.023-.07-.07-.07h-1.062c-.128 0-.152.046-.152.093 0 .023 0 .081.117.081a.84.84 0 01.198.012c.07.011.129.046.152.081a.359.359 0 01.047.186v1.198c0 .082-.023.14-.082.163a.73.73 0 01-.186.047h-.257a1.75 1.75 0 01-.747-.152 1.704 1.704 0 01-.584-.407 1.874 1.874 0 01-.374-.628 2.424 2.424 0 01-.128-.779c0-.314.047-.57.128-.78.082-.208.199-.371.35-.5.164-.127.327-.22.49-.255.398-.093.9-.081 1.262.07.21.081.361.174.443.279a.543.543 0 01.117.186c.023.07.035.14.058.233.012.081.059.093.094.093.046 0 .093-.024.093-.152v-.511c0-.117.012-.221.023-.291v-.058c0-.024 0-.093-.105-.105-.058 0-.117 0-.198-.023-.082 0-.152-.023-.222-.035-.023 0-.082-.012-.14-.023-.07 0-.152-.024-.245-.035-.105 0-.199-.023-.292-.023-.373-.024-.724 0-1.027.058-.234.046-.467.14-.7.279a1.948 1.948 0 00-.678.698 2.11 2.11 0 00-.268 1.07c0 .36.07.674.198.942m6.456.93h-.129a.31.31 0 01-.128-.07.435.435 0 01-.059-.163c0-.104-.011-.232-.023-.407v-2.512c0-.116 0-.22.012-.302 0-.093.023-.151.046-.198.024-.035.059-.058.117-.07.059 0 .117-.011.152-.011.105 0 .117-.058.117-.093 0-.082-.117-.082-.152-.082h-1.343c-.046 0-.163 0-.163.082 0 .023.012.093.117.093.07 0 .128 0 .187.023.093.023.14.105.151.267 0 .094.012.187.012.303v2.5c0 .175 0 .303-.023.407-.012.14-.059.221-.129.233a1.028 1.028 0 01-.187.023c-.105 0-.116.047-.116.082s.023.093.14.093h1.494c.117 0 .14-.047.14-.093 0-.035-.012-.082-.117-.082h-.128m.794.151h1.202c.105 0 .128-.058.128-.093 0-.023-.011-.081-.116-.081h-.082c-.07 0-.117 0-.14-.035a.131.131 0 01-.035-.093c0-.081.023-.186.081-.314l.304-.78h1.214l.42 1.14s.024.082.047.14c.023.058.047.105.105.105h1.144c.07-.012.082-.058.082-.082 0-.023 0-.081-.105-.081-.082 0-.152 0-.222-.023a.412.412 0 01-.21-.128c-.07-.07-.152-.221-.234-.43l-1.167-2.885a5.202 5.202 0 00-.163-.384c-.059-.127-.105-.197-.164-.197-.023 0-.058 0-.093.058a.843.843 0 00-.082.174l-1.342 3.338c-.059.151-.117.268-.187.337a.352.352 0 01-.245.117h-.164c-.093 0-.105.058-.105.081 0 .035.024.093.14.093l-.011.023zm1.937-3.012l.479 1.291h-.969l.49-1.29zm-5.605-4.094l-.082-.465-1.214.21-.105-.64 1.04-.175-.082-.453-1.04.174-.104-.616 1.225-.21-.082-.453-1.727.29.432 2.618 1.739-.28zM14.102 28.308a1.13 1.13 0 00.012-.396.66.66 0 00-.129-.337.69.69 0 00-.198-.21 1.194 1.194 0 00-.245-.127 1.616 1.616 0 00-.28-.082l-.292-.058-.292-.058a1.158 1.158 0 00-.28-.035c-.093 0-.175 0-.268.023a.899.899 0 00-.269.117.953.953 0 00-.397.64l-.187.941 2.615.524.187-.942h.023zm-.467-.047l-.081.384-1.705-.337.082-.384a.547.547 0 01.082-.221.323.323 0 01.152-.128.19.19 0 01.105-.035h.14c.058 0 .116 0 .186.023.07.012.164.024.257.047.199.035.35.081.456.116a.566.566 0 01.233.14c.047.058.07.116.093.186a.77.77 0 010 .232v-.023zm17.51-15.573c0 .105.012.198.035.28.012.093.047.162.082.244a.569.569 0 00.163.21.875.875 0 00.327.208c.117.047.257.07.397.07s.28-.023.397-.07a.872.872 0 00.35-.244.741.741 0 00.187-.337c.035-.128.058-.29.058-.477v-.384l-1.015.012v.43h.49v.105c0 .07 0 .128-.023.198a.331.331 0 01-.094.162.745.745 0 01-.152.117.941.941 0 01-.21.046c-.07 0-.14 0-.198-.035a.32.32 0 01-.14-.104.254.254 0 01-.059-.093c-.011-.035-.035-.082-.046-.128 0-.058-.024-.128-.024-.21v-.628c0-.081 0-.15.024-.209 0-.058.023-.105.035-.128.011-.035.035-.058.058-.093a.318.318 0 01.14-.105.828.828 0 01.199-.046c.128 0 .245.035.315.093.081.07.128.163.163.29h.526a1.522 1.522 0 00-.106-.325.89.89 0 00-.502-.454 1.112 1.112 0 00-.408-.07.865.865 0 00-.397.082.967.967 0 00-.315.221.68.68 0 00-.152.221.96.96 0 00-.07.244 2.243 2.243 0 00-.023.28v.651M49.82 37.1l.456.104.268-1.174 2.148.488.117-.5-2.592-.605-.397 1.687zm-36.068-3.699l-.455.058.151 1.198-2.182.28.058.511 2.65-.337-.222-1.71zm1.959 8.991c.082-.047.163-.105.234-.163a.878.878 0 00.175-.186.773.773 0 00.105-.245c.035-.128.046-.256.035-.383a.993.993 0 00-.129-.384 1.01 1.01 0 00-.268-.314.915.915 0 00-.607-.186.738.738 0 00-.257.058c-.082.035-.175.07-.257.116-.093.047-.187.093-.28.151a6.042 6.042 0 00-.28.163 1.669 1.669 0 00-.234.163.875.875 0 00-.175.186.773.773 0 00-.105.244c-.035.128-.046.256-.035.384a.996.996 0 00.129.384 1.01 1.01 0 00.618.488.702.702 0 00.269.024.739.739 0 00.257-.059c.081-.035.163-.07.256-.116.094-.046.187-.093.28-.151.106-.058.187-.105.28-.163m-.828-.151c-.07.035-.14.07-.187.081-.058.024-.093.024-.14.035h-.105a.494.494 0 01-.163-.07.42.42 0 01-.129-.15.386.386 0 01-.058-.187c0-.058 0-.116.023-.174 0-.035.024-.07.047-.105a.758.758 0 01.093-.105c.047-.035.105-.081.175-.116.07-.046.164-.093.269-.163.105-.058.198-.116.28-.15.07-.036.14-.07.187-.082.058-.024.093-.024.14-.024h.117a.494.494 0 01.163.07.421.421 0 01.129.151.385.385 0 01.058.187c0 .058 0 .116-.023.174-.012.035-.024.07-.047.093a.758.758 0 01-.094.105c-.046.034-.105.081-.175.116-.07.046-.163.093-.268.163-.105.058-.21.116-.28.15M14.8 38.24l-1.693.034 1.39-.965-.14-.419-2.755.163.175.512 1.727-.128-1.447.989.117.36 1.75-.058-1.47.907.175.523 2.311-1.511-.14-.407zm34.016 1.523l.432.175.467-1.14.596.244-.397.977.432.174.397-.977.583.233-.467 1.14.432.174.654-1.616-2.463-1-.666 1.616zm-.792 1.477l1.39.86-1.95.035-.245.396 2.264 1.396.269-.43-1.378-.861 1.938-.035.257-.396-2.276-1.407-.269.442zm-29.743 2.861l-1.26 1.035.583-1.849-.303-.36-2.043 1.697.327.408 1.26-1.047-.583 1.849.303.36 2.043-1.697-.327-.396zM34.6 51.707a.693.693 0 00-.258-.197.606.606 0 00.199-.221.648.648 0 00.058-.35.649.649 0 00-.082-.302.576.576 0 00-.186-.22.719.719 0 00-.269-.129c-.105-.023-.21-.035-.327-.023a.746.746 0 00-.315.081.934.934 0 00-.245.175.624.624 0 00-.152.256.953.953 0 00-.046.325l.49-.046c0-.105.023-.186.081-.244a.362.362 0 01.222-.105c.082 0 .164.012.234.07.07.046.105.128.117.244a.422.422 0 01-.059.244c-.046.07-.128.105-.245.117h-.07l.035.43h.07c.117-.012.21 0 .28.07.07.058.105.15.117.256 0 .116-.012.209-.082.279a.35.35 0 01-.245.116h-.14c-.047 0-.082-.023-.117-.058a.275.275 0 01-.093-.105.572.572 0 01-.047-.151l-.49.046c.012.14.047.256.105.35a.64.64 0 00.21.22.754.754 0 00.28.117c.105.023.21.023.315.011a.703.703 0 00.316-.081.632.632 0 00.256-.175.69.69 0 00.164-.267c.035-.105.047-.221.035-.349a.64.64 0 00-.129-.372m1.963-1.896l-.421.582.128.511.42-.593.514 2.082.467-.116-.642-2.582-.467.116zm-16.415-2.861l-.525.093.245-1.36-.467-.396-.303 1.837-1.355.245.49.407 1.46-.291-.735.895.396.326 1.705-2.035-.397-.337-.514.616zm11.125 3.57a.83.83 0 00-.257-.174.964.964 0 00-.327-.081c-.117 0-.222 0-.327.035a.792.792 0 00-.28.14.999.999 0 00-.198.243 1.02 1.02 0 00-.094.35c0 .127 0 .232.035.337a.768.768 0 00.35.43.51.51 0 00.257.07h.105c.035 0 .07 0 .105-.024L30 52.917l.525.035.642-1.105c.07-.117.129-.233.187-.338.047-.116.082-.232.094-.349 0-.127 0-.255-.035-.348a.669.669 0 00-.152-.268m-.292.582a.348.348 0 01-.117.279.328.328 0 01-.256.081.31.31 0 01-.246-.116.39.39 0 01-.07-.29c0-.129.047-.222.117-.28a.328.328 0 01.257-.081c.105 0 .175.046.233.116a.39.39 0 01.07.29m-3.805-.93l-.117.512.63-.337-.478 2.081.479.105.595-2.593-.479-.105-.63.337zm-4.414-.488l.409 1.21 1.214-.396-.397-1.21-1.226.396zM50.395 34.32l.466.035.082-1.198 2.206.151.035-.511-2.661-.198-.129 1.721zm-12.27 3.105l.269-.313-.199-.163.537-.628-.56-.465-.537.627-.198-.174-.234.28c.28.209.642.464.922.837zm12.41-5.989l.455-.035-.093-1.233.642-.046.081 1.046.467-.046-.082-1.047.62-.046.104 1.233.467-.047-.152-1.744-2.65.22.14 1.745zm-24.212 9.909l-1.343-2.78h-1.039v.128s1.506 1.675 2.393 2.652m9.888-2.187l.56-.663.257.221.186-.22c-.093-.326-.373-.547-.793-.861-.024-.023-.047-.035-.07-.058l-.28.325.256.21-.56.663.444.372v.011z"/><path d="M36.048 40.658l-.303.815h1.61l-.14-.733c.538-.268.958-.942 1.04-1.78v-.407c0-.034 0-.07-.012-.116v-.07a.414.414 0 00-.023-.116v-.046a.571.571 0 00-.047-.128v-.024a.43.43 0 00-.059-.127v-.012a1.27 1.27 0 00-.07-.128c-.023-.047-.058-.081-.081-.128-.257-.36-.607-.616-.9-.837 0 0-.01-.012-.022-.012a3.669 3.669 0 01-.222-.174l-.456.57c.07.046.14.104.21.162.024.012.036.035.059.047.339.244.665.488.829.837.035.07.058.14.07.21 0 .034.011.07.023.104v.302c-.07.71-.49 1.326-1.144 1.268l-1.599-1.337-.385.453 1.646 1.384-.024.023zM23.93 38.065v.093h2.568l-1.448-.93-1.12.837zm3.91.093h2.615v-.093l-1.086-.78-1.53.873zm-.897 3.605v-3.198H25.38l1.564 3.198zm1.014-.383l2.498-2.699v-.116h-1.004l-1.494 2.815zm-.664-2.827v3.292l1.75-3.291h-1.75z"/><path d="M35.568 40.635l-1.167-.977-.315.675.864.721.618-.419zM25.563 37.1l1.575 1.012 1.775-1.012h-3.35z"/></g><defs><clipPath id="clip0_143_5676"><path fill="#fff" d="M0 0h195v64H0z"/></clipPath></defs></svg>