<svg width="160" height="58" fill="none" xmlns="http://www.w3.org/2000/svg"><g clip-path="url(#clip0_143_5674)" fill="#000"><path d="M58.872 0v58H0V0h58.872zm-27.69 26.665c-.305-5.613-7.81-7.239-10.903-2.693-2.222 3.265-1.828 9.883 1.92 11.973 1.791 1 3.916.945 5.552-.31.145-.112.792-.892.937-.735v1.474h2.494v-7.987H25.57v2.335c.986.342 2.018-.095 2.993.124-.248 2.133-1.918 3.905-4.213 3.105-3.3-1.15-3.367-8.537-.15-9.802 1.25-.492 2.544-.225 3.367.857.394.52.466 1.135.81 1.66h2.807-.002zm25.695-.614c-.055-6.39-10.995-6.3-10.217.419.404 3.486 4.43 3.18 6.638 4.397 1.771.975 1.044 3.04-.858 3.285-1.537.197-2.645-.272-3.237-1.709-.11-.265.01-.629-.308-.806l-2.416-.04c-.481.154.064 1.817.232 2.197 1.789 4.022 9.172 3.818 10.26-.585.633-2.566-.755-4.27-3.09-5.127-1.32-.484-4.684-.822-4.482-2.695.247-2.29 4.754-2.079 4.633.457l.163.208h2.682v-.001zM6.985 21.627H1.746v14.746h5.239v-4.67h6.361v-5.406H6.985v-4.67zm38.042 14.746l-2.86-6.072c.689-.456 1.265-.795 1.718-1.506 1.134-1.78 1.069-4.802-.667-6.184-.447-.355-1.7-.984-2.244-.984H34.05v14.746h2.744v-5.53h2.62l2.619 5.53h2.993z"/><path d="M36.797 28.386v-4.24l.187-.184h2.744c.04 0 .677.18.777.217 1.49.587 1.61 3.297.19 3.929a9.981 9.981 0 01-.842.276h-3.056v.002z"/></g><path d="M107.138 30.607v1.864c0 .217-.007.431-.021.644a5.693 5.693 0 01-.042.494h.063c.153-.236.362-.437.627-.602.265-.168.608-.252 1.03-.252.655 0 1.187.252 1.594.757.408.504.612 1.244.612 2.22 0 .655-.094 1.207-.282 1.653-.188.443-.452.778-.79 1.004-.338.223-.73.335-1.176.335-.429 0-.767-.075-1.014-.226a2.308 2.308 0 01-.601-.51h-.11l-.267.633h-1.218v-8.014h1.595zm1.145 3.404c-.279 0-.501.057-.664.17a.971.971 0 00-.361.51 3.055 3.055 0 00-.12.86v.17c0 .56.083.99.25 1.288.168.295.473.443.915.443.328 0 .588-.15.779-.448.196-.299.293-.73.293-1.293s-.097-.987-.293-1.272a.918.918 0 00-.799-.428zm-6.818-1.267c.784 0 1.385.169 1.804.505.418.337.627.848.627 1.535v3.837h-1.114l-.308-.783h-.042a2.936 2.936 0 01-.512.505 1.77 1.77 0 01-.601.289 3.181 3.181 0 01-.826.092c-.346 0-.656-.065-.931-.195a1.47 1.47 0 01-.643-.598c-.157-.271-.235-.615-.235-1.03 0-.611.217-1.061.653-1.35.436-.291 1.089-.453 1.961-.484l1.014-.03v-.253c0-.302-.08-.524-.241-.664-.16-.141-.383-.212-.669-.212-.282 0-.559.04-.831.119a6.5 6.5 0 00-.816.299l-.528-1.061c.31-.162.657-.289 1.041-.382a5.158 5.158 0 011.197-.139zm.847 3.21l-.617.02c-.516.014-.875.105-1.077.273a.827.827 0 00-.298.664c0 .24.071.412.214.515.143.1.33.15.56.15.341 0 .629-.1.862-.299.237-.2.356-.483.356-.85v-.474zm-4.921 2.667h-1.594v-8.014h1.594v8.014zm-2.836-1.71c0 .392-.095.723-.283.994-.184.268-.462.472-.831.613-.37.138-.83.206-1.38.206-.408 0-.758-.025-1.051-.077a4.384 4.384 0 01-.879-.258v-1.297c.318.14.658.257 1.02.35.366.089.687.134.962.134.31 0 .531-.045.664-.134a.42.42 0 00.204-.36.422.422 0 00-.084-.258c-.052-.08-.167-.167-.345-.263a8.65 8.65 0 00-.836-.386 5.56 5.56 0 01-.905-.459 1.562 1.562 0 01-.523-.546c-.111-.213-.167-.482-.167-.808 0-.533.21-.933.628-1.2.421-.272.984-.407 1.688-.407.363 0 .708.036 1.035.108.331.072.671.187 1.02.345l-.481 1.133a8.225 8.225 0 00-.821-.304 2.612 2.612 0 00-.779-.118c-.234 0-.41.03-.528.092a.301.301 0 00-.178.284c0 .092.03.175.09.247.062.072.18.153.355.242.177.086.437.197.779.335.33.134.618.275.862.422a1.6 1.6 0 01.565.541c.132.213.199.49.199.83zm-5.321 0c0 .392-.094.723-.282.994-.185.268-.462.472-.831.613-.37.138-.83.206-1.38.206-.408 0-.759-.025-1.051-.077a4.384 4.384 0 01-.879-.258v-1.297c.317.14.657.257 1.02.35.366.089.686.134.962.134.31 0 .531-.045.664-.134a.42.42 0 00.204-.36.422.422 0 00-.084-.258c-.052-.08-.167-.167-.345-.263a8.65 8.65 0 00-.837-.386 5.56 5.56 0 01-.904-.459 1.562 1.562 0 01-.523-.546c-.112-.213-.167-.482-.167-.808 0-.533.209-.933.627-1.2.422-.272.985-.407 1.689-.407.362 0 .707.036 1.035.108.331.072.671.187 1.02.345l-.481 1.133a8.225 8.225 0 00-.821-.304 2.612 2.612 0 00-.78-.118c-.233 0-.409.03-.527.092a.301.301 0 00-.178.284c0 .092.03.175.089.247.063.072.181.153.355.242.178.086.438.197.78.335.33.134.618.275.862.422a1.6 1.6 0 01.565.541c.132.213.198.49.198.83zm-5.759-4.048v5.758h-1.594v-5.758h1.594zm-.795-2.256c.237 0 .441.055.612.165.17.106.256.307.256.602 0 .292-.085.495-.256.608-.17.11-.375.165-.612.165-.24 0-.446-.055-.617-.165-.167-.113-.25-.316-.25-.608 0-.295.083-.496.25-.602.171-.11.377-.165.617-.165zm-5.163 8.014l-.45-2.014c-.024-.12-.064-.297-.12-.53-.056-.237-.117-.49-.183-.757a71.276 71.276 0 00-.178-.752l-.115-.505h-.047l-.115.505c-.052.23-.111.48-.177.752a898.473 898.473 0 01-.304 1.308l-.47 1.993h-1.715l-1.662-5.758h1.589l.674 2.55c.046.178.09.39.131.638.042.244.078.48.11.71.035.227.06.408.078.542h.042c.007-.1.02-.232.042-.397.024-.165.05-.335.078-.51l.084-.479c.028-.144.049-.242.063-.294l.721-2.76h1.757l.685 2.76c.024.1.055.258.094.474.042.217.078.44.11.67.03.227.048.405.052.536h.042a25.988 25.988 0 01.194-1.241c.048-.255.097-.471.145-.65l.701-2.55h1.563l-1.683 5.76h-1.736zm-6.066-2.091c0 .447-.11.835-.33 1.164-.219.33-.54.584-.961.762-.418.18-.927.268-1.527.268a5.438 5.438 0 01-1.506-.2 4.572 4.572 0 01-.658-.253v-1.483c.362.158.739.3 1.129.427s.777.19 1.16.19c.266 0 .478-.034.639-.102a.727.727 0 00.355-.283.776.776 0 00.11-.413.673.673 0 00-.194-.484 2.019 2.019 0 00-.533-.376 21.669 21.669 0 00-.758-.376 8.742 8.742 0 01-.58-.299 3.393 3.393 0 01-.596-.437 2.114 2.114 0 01-.466-.623 2.033 2.033 0 01-.177-.886c0-.45.104-.835.313-1.154.21-.32.507-.563.894-.732.39-.171.85-.257 1.38-.257.398 0 .776.046 1.135.139.362.09.74.22 1.135.391l-.523 1.242a8.783 8.783 0 00-.947-.325 3.116 3.116 0 00-.852-.118 1.24 1.24 0 00-.517.098.695.695 0 00-.434.664c0 .179.052.33.157.453.108.12.268.237.48.35.217.114.485.246.806.397.39.182.723.373.998.572.28.196.493.427.643.695.15.265.225.594.225.99zM156.2 19.18v1.632c0 .285-.01.556-.031.814-.018.257-.032.44-.042.546h.084c.125-.2.273-.36.444-.484.174-.124.366-.215.575-.273.209-.059.434-.088.674-.088.422 0 .79.074 1.104.221.313.145.557.373.731.686.175.309.262.71.262 1.205v3.755h-1.595V23.83c0-.412-.076-.723-.23-.932-.153-.21-.39-.314-.711-.314-.32 0-.573.074-.758.221-.185.145-.315.36-.392.644a3.983 3.983 0 00-.115 1.035v2.71h-1.595v-8.015h1.595zm-4.733 8.117c-.578 0-1.071-.104-1.479-.31a2.076 2.076 0 01-.931-.968c-.212-.436-.319-.994-.319-1.674 0-.704.121-1.277.361-1.72.244-.447.58-.774 1.009-.984.432-.21.932-.314 1.501-.314a4.116 4.116 0 011.819.392l-.471 1.215a7.52 7.52 0 00-.7-.242 2.232 2.232 0 00-.648-.098c-.279 0-.511.065-.696.196-.185.127-.322.319-.413.577-.09.257-.136.58-.136.968 0 .381.049.697.147.948.097.25.238.437.423.561.185.12.41.18.675.18.331 0 .625-.043.883-.129.258-.089.509-.212.753-.37v1.344c-.244.151-.5.26-.769.325a4.112 4.112 0 01-1.009.103zm-3.974-5.97c.08 0 .172.005.277.015.108.007.195.018.261.031l-.12 1.473a.98.98 0 00-.225-.036 2.35 2.35 0 00-.847.062 1.478 1.478 0 00-.517.252 1.181 1.181 0 00-.366.454 1.607 1.607 0 00-.131.685v2.93h-1.595v-5.758h1.208l.235.968h.079c.115-.195.258-.374.429-.535a2.05 2.05 0 01.59-.392c.223-.1.464-.15.722-.15zm-7.341-.01c.785 0 1.386.168 1.804.504.418.337.628.849.628 1.535v3.837h-1.114l-.309-.782h-.041a2.94 2.94 0 01-.513.504 1.76 1.76 0 01-.601.289 3.171 3.171 0 01-.826.093 2.15 2.15 0 01-.931-.196 1.474 1.474 0 01-.643-.598c-.156-.27-.235-.614-.235-1.03 0-.611.218-1.06.654-1.35.435-.291 1.089-.453 1.96-.483l1.014-.031v-.253c0-.302-.08-.523-.24-.664-.16-.14-.383-.211-.669-.211-.283 0-.56.04-.832.118a6.54 6.54 0 00-.815.299l-.528-1.061c.31-.162.657-.289 1.04-.381a5.12 5.12 0 011.197-.14zm.847 3.209l-.617.02c-.515.014-.874.105-1.077.273a.83.83 0 00-.298.665c0 .24.072.412.215.515.143.1.329.149.559.149.342 0 .629-.1.863-.299.237-.199.355-.482.355-.85v-.473zm-7.155-3.199c.54 0 1.005.103 1.396.309.39.203.692.498.904.886.213.388.319.862.319 1.421v.763h-3.769c.017.443.151.791.402 1.045.255.251.607.376 1.056.376.373 0 .715-.037 1.025-.113a5.25 5.25 0 00.957-.34v1.216a3.85 3.85 0 01-.91.309 5.716 5.716 0 01-1.145.098c-.585 0-1.105-.107-1.558-.32a2.404 2.404 0 01-1.061-.973c-.255-.436-.382-.986-.382-1.649 0-.672.115-1.232.345-1.679.234-.45.558-.786.973-1.01.414-.226.897-.34 1.448-.34zm.01 1.118c-.31 0-.568.098-.773.293-.203.196-.319.503-.351.922h2.238a1.536 1.536 0 00-.131-.623.969.969 0 00-.366-.433c-.16-.106-.366-.16-.617-.16zm-3.667 3.038c0 .392-.094.723-.282.995-.185.267-.462.472-.831.612-.37.138-.83.207-1.38.207-.408 0-.759-.026-1.051-.078a4.382 4.382 0 01-.879-.257v-1.298c.318.14.657.257 1.02.35.366.09.686.134.962.134.31 0 .531-.045.664-.134a.42.42 0 00.204-.36.422.422 0 00-.084-.258c-.052-.08-.167-.167-.345-.263a8.732 8.732 0 00-.837-.386 5.586 5.586 0 01-.904-.459 1.558 1.558 0 01-.523-.545c-.111-.213-.167-.483-.167-.81 0-.531.209-.931.627-1.2.422-.27.985-.406 1.689-.406.362 0 .708.036 1.035.108.331.072.671.187 1.02.345l-.481 1.133a8.31 8.31 0 00-.821-.304 2.615 2.615 0 00-.779-.118c-.234 0-.41.03-.528.093a.3.3 0 00-.178.283c0 .093.03.175.089.247.063.072.181.153.355.242.178.086.438.198.779.335a6.1 6.1 0 01.863.422c.244.145.432.325.565.541.132.213.198.49.198.83zm-7.992-4.156c.541 0 1.006.103 1.396.309.391.203.692.498.905.886.212.388.319.862.319 1.421v.763h-3.77c.018.443.152.791.403 1.045.254.251.606.376 1.056.376a4.34 4.34 0 001.025-.113c.31-.075.629-.189.956-.34v1.216a3.9 3.9 0 01-.909.309 5.723 5.723 0 01-1.145.098c-.586 0-1.105-.107-1.558-.32a2.406 2.406 0 01-1.062-.973c-.254-.436-.381-.986-.381-1.649 0-.672.115-1.232.345-1.679.233-.45.557-.786.972-1.01.415-.226.898-.34 1.448-.34zm.011 1.118c-.31 0-.568.098-.774.293-.202.196-.319.503-.35.922h2.237a1.535 1.535 0 00-.13-.623.969.969 0 00-.366-.433c-.161-.106-.366-.16-.617-.16zm-4.022-1.118c.08 0 .173.005.277.015.108.007.196.018.262.031l-.121 1.473a.98.98 0 00-.224-.036 2.342 2.342 0 00-.847.062 1.475 1.475 0 00-.518.252 1.2 1.2 0 00-.366.454 1.607 1.607 0 00-.131.685v2.93h-1.594v-5.758h1.208l.235.968h.078c.115-.195.258-.374.429-.535.174-.165.371-.296.591-.392.223-.1.463-.15.721-.15zm-6.913 0c.662 0 1.162.168 1.5.505.342.333.513.868.513 1.607v3.755h-1.6V23.83c0-.412-.072-.723-.215-.932-.142-.21-.364-.314-.664-.314-.421 0-.721.149-.899.448-.178.295-.266.72-.266 1.272v2.89h-1.595V23.83a2.17 2.17 0 00-.094-.69.818.818 0 00-.288-.417.829.829 0 00-.496-.14c-.297 0-.53.075-.701.222-.167.144-.287.359-.361.644a4.418 4.418 0 00-.104 1.035v2.71h-1.595v-5.759h1.218l.215.737h.089c.118-.2.266-.36.444-.485a1.95 1.95 0 01.596-.273c.216-.058.436-.087.659-.087.428 0 .791.069 1.087.206.3.137.53.35.69.639h.141c.175-.296.42-.51.738-.644.32-.134.65-.201.988-.201zm-10.783 0c.541 0 1.006.103 1.396.309.391.203.692.498.905.886.212.388.319.862.319 1.421v.763h-3.77c.018.443.152.791.403 1.045.254.251.606.376 1.056.376a4.34 4.34 0 001.025-.113c.31-.075.629-.189.956-.34v1.216a3.9 3.9 0 01-.909.309 5.723 5.723 0 01-1.145.098c-.586 0-1.105-.107-1.558-.32a2.406 2.406 0 01-1.062-.973c-.254-.436-.381-.986-.381-1.649 0-.672.115-1.232.345-1.679a2.33 2.33 0 01.972-1.01c.415-.226.898-.34 1.448-.34zm.011 1.118c-.31 0-.568.098-.774.293-.202.196-.319.503-.35.922h2.237a1.535 1.535 0 00-.13-.623.969.969 0 00-.366-.433c-.161-.106-.366-.16-.617-.16zm-7.152.52h3.032v3.904c-.4.13-.817.235-1.25.314a8.593 8.593 0 01-1.468.114c-.76 0-1.405-.148-1.935-.443a2.866 2.866 0 01-1.207-1.309c-.276-.577-.413-1.286-.413-2.127 0-.79.153-1.473.46-2.05a3.22 3.22 0 011.354-1.339c.596-.316 1.322-.474 2.18-.474a5.934 5.934 0 012.269.463l-.539 1.278a4.157 4.157 0 00-.8-.293 3.679 3.679 0 00-.94-.119c-.471 0-.88.107-1.23.32a2.156 2.156 0 00-.804.896c-.189.38-.283.83-.283 1.35 0 .49.068.926.204 1.307.136.378.35.675.643.891.293.213.675.32 1.145.32.23 0 .424-.01.58-.031.16-.024.31-.048.45-.072v-1.571h-1.448v-1.33zm-7.067 2.137c0 .447-.11.835-.33 1.165-.22.33-.54.583-.962.762-.418.178-.927.268-1.527.268a5.88 5.88 0 01-.779-.052 5.423 5.423 0 01-.726-.15 4.56 4.56 0 01-.66-.252V25.36c.363.158.74.3 1.13.428.39.127.777.19 1.16.19.266 0 .478-.034.639-.103a.727.727 0 00.355-.283.776.776 0 00.11-.412.673.673 0 00-.194-.485 2.022 2.022 0 00-.533-.375 21.758 21.758 0 00-.758-.377 8.786 8.786 0 01-.58-.298 3.393 3.393 0 01-.596-.438 2.114 2.114 0 01-.465-.623 2.033 2.033 0 01-.178-.886c0-.45.104-.835.313-1.154.21-.32.508-.563.894-.731.39-.172.85-.258 1.38-.258.398 0 .776.047 1.135.14.363.088.74.219 1.135.39l-.523 1.242a8.77 8.77 0 00-.946-.325 3.112 3.112 0 00-.853-.118 1.24 1.24 0 00-.517.098.695.695 0 00-.434.664c0 .179.052.33.157.454.108.12.268.236.48.35.217.113.485.245.806.396.39.182.723.373.998.572.28.196.494.428.644.695.15.265.224.595.224.99zm-9.354-5.439c.694 0 1.266.083 1.715.248.453.164.79.413 1.01.746.219.334.329.754.329 1.262 0 .344-.067.644-.199.902a2.06 2.06 0 01-.523.654c-.216.178-.45.324-.7.438l2.248 3.28h-1.799l-1.824-2.889h-.863v2.89H74.7v-7.53h2.226zm-.115 1.309h-.491v2.034h.523c.536 0 .92-.087 1.15-.263.234-.178.35-.44.35-.782 0-.358-.125-.612-.376-.763-.248-.15-.633-.226-1.156-.226zm-6.968 1.993h3.032v3.904c-.4.13-.817.235-1.25.314a8.593 8.593 0 01-1.468.114c-.76 0-1.405-.148-1.935-.443a2.866 2.866 0 01-1.207-1.309c-.276-.577-.413-1.286-.413-2.127 0-.79.153-1.473.46-2.05a3.22 3.22 0 011.354-1.339c.596-.316 1.322-.474 2.18-.474a5.937 5.937 0 012.27.463l-.54 1.278a4.157 4.157 0 00-.8-.293 3.679 3.679 0 00-.94-.119c-.471 0-.88.107-1.23.32a2.156 2.156 0 00-.804.896c-.189.38-.283.83-.283 1.35 0 .49.068.926.204 1.307.136.378.35.675.643.891.293.213.675.32 1.145.32.23 0 .424-.01.58-.031.16-.024.31-.048.45-.072v-1.571h-1.448v-1.33z" fill="#000"/><defs><clipPath id="clip0_143_5674"><path fill="#fff" d="M0 0h58.872v58H0z"/></clipPath></defs></svg>