<svg width="320" height="151" fill="none" xmlns="http://www.w3.org/2000/svg"><path d="M129.909 109.744h-.21c-.227 1.226-.987 2.242-2.287 3.045-1.301.807-3.066 1.211-5.297 1.211-1.692 0-3.276-.265-4.746-.798a10.942 10.942 0 01-3.855-2.353c-1.101-1.04-1.964-2.33-2.583-3.88-.619-1.545-.931-3.337-.931-5.365s.324-3.833.976-5.401c.648-1.57 1.562-2.887 2.731-3.95 1.17-1.063 2.578-1.87 4.212-2.422 1.635-.553 3.458-.831 5.462-.831 2.651 0 4.939.469 6.863 1.401 1.919.933 3.429 2.34 4.531 4.205l-5.252 2.46c-.454-.947-1.158-1.75-2.117-2.409-.96-.659-2.299-.988-4.025-.988-2.004 0-3.599.473-4.786 1.42-1.186.947-1.777 2.436-1.777 4.464v3.88c0 2.009.591 3.49 1.777 4.45 1.187.956 2.782 1.439 4.786 1.439.789 0 1.538-.074 2.242-.223a6.223 6.223 0 001.862-.691c.534-.311.954-.687 1.249-1.123.295-.436.443-.956.443-1.56v-1.211h-5.507v-4.399h11.65v13.467h-3.707l-1.709-3.842.005.004zm17.537 3.843h-6.438v-24.17h14.017c1.357 0 2.583.186 3.684.553 1.101.371 2.038.896 2.816 1.573a7.046 7.046 0 011.8 2.441c.425.947.635 1.996.635 3.151 0 1.638-.442 3.073-1.334 4.293-.891 1.225-2.236 2.112-4.042 2.664l5.802 9.486h-7.159l-5.166-8.864h-4.615v8.873zm6.778-13.296c.96 0 1.715-.199 2.265-.608.551-.408.824-.998.824-1.782v-1.522c0-.784-.273-1.378-.824-1.782-.55-.404-1.305-.608-2.265-.608h-6.778v6.302h6.778zm32.95 13.296l-2.118-5.745h-9.866l-2.118 5.745h-6.523l9.742-24.17h7.965l9.617 24.17h-6.699zm-6.989-19.39h-.21l-3.258 9.176h6.778l-3.304-9.175h-.006zm26.217 7.964l-2.838-4.845h-.125v16.271h-6.058v-24.17h7.028l8.09 11.426 2.839 4.845h.125V89.413h6.057v24.169h-7.028l-8.09-11.425v.004zm-62.167 44.583h-.208c-.225 1.226-.978 2.242-2.266 3.045-1.288.807-3.036 1.211-5.246 1.211-1.681 0-3.245-.265-4.701-.798a10.833 10.833 0 01-3.818-2.353c-1.091-1.04-1.945-2.33-2.558-3.88-.613-1.545-.923-3.337-.923-5.365s.321-3.833.968-5.401c.641-1.569 1.546-2.887 2.704-3.95 1.159-1.063 2.553-1.87 4.173-2.422 1.619-.553 3.424-.831 5.409-.831 2.626 0 4.892.469 6.798 1.402 1.901.932 3.396 2.338 4.487 4.204l-5.201 2.46c-.45-.947-1.147-1.75-2.097-2.409-.951-.659-2.278-.988-3.987-.988-1.985 0-3.565.473-4.74 1.42-1.176.946-1.76 2.436-1.76 4.464v3.88c0 2.009.584 3.49 1.76 4.45 1.175.956 2.755 1.439 4.74 1.439.781 0 1.524-.074 2.221-.223a6.13 6.13 0 001.844-.691c.529-.311.945-.687 1.237-1.123.293-.436.439-.956.439-1.56v-1.211h-5.454v-4.399h11.538v13.467h-3.672l-1.692-3.842.005.004zm10.988 3.843v-24.169h19.927v4.673h-13.551v4.915h11.623v4.673h-11.623v5.23h13.551v4.673h-19.927v.005zm45.979-24.169l-7.091 16.02h-.084l-7.169-16.02h-6.759v24.169h5.999v-14.702h.13l7.13 14.702h1.36l7.159-14.461H202v14.461h6v-24.169h-6.798zM167.49 19.885l8.778 9.187 26.807.06-16.696 17.066-25.215-26.588 9.686-9.803 31.348-.01 5.158 5.327h12.482L205.424.056l-38.198.089-19.062 19.6L186.67 59.4l37.463-39.514H167.49z" fill="#860117"/><path d="M141.721 0h-12.754l-18.92 19.745 57.269 59.478 6.089-6.26-50.46-52.975L141.721 0z" fill="#860117"/><path d="M160.78.14l-12.616.14c-2.26 2.357-13.408 13.775-19.054 19.465l47.511 49.596 6.42-6.063-41.32-43.117L160.78.14z" fill="#860117"/></svg>