<svg width="268" height="72" fill="none" xmlns="http://www.w3.org/2000/svg"><path d="M5.074 56.06h3.14v10.337c0 2.276-.631 3.827-1.886 4.634-.745.457-1.622.69-2.63.69-1.416 0-2.651-.475-3.698-1.425l1.905-2.178c.406.556.924.824 1.575.824.575 0 .99-.179 1.236-.528.245-.341.358-1.166.358-2.484v-9.879.01zm34.546 0v2.573h-5.8v3.424h5.555v2.573H33.82v4.178h5.8v2.573h-8.94V56.06h8.94zm31.728 5.612l-3.697 9.718h-2.367l-5.602-15.321h3.338l3.603 10.426 3.942-10.56h1.736l3.716 10.56 3.867-10.426h3.338l-5.97 15.32h-2.367l-3.527-9.717h-.01zm41.48-5.612v2.573h-5.801v3.424h5.555v2.573h-5.555v4.178h5.801v2.573h-8.941V56.06h8.941zm21.842 0h3.141v12.748h4.979v2.573h-8.12V56.06zm29.096 0h3.14v12.748h4.98v2.573h-8.12V56.06zm38.026 0v2.573h-5.8v3.424h5.555v2.573h-5.555v4.178h5.8v2.573h-8.94V56.06h8.94zm21.842 0h4.66c1.773 0 3.14.386 4.102 1.148 1.066.86 1.594 2.008 1.594 3.442 0 1.596-.632 2.797-1.886 3.604-.481.323-1.075.547-1.764.663l5.027 6.455h-3.914l-4.301-6.159h-.386v6.159h-3.141v-15.32l.009.008zm3.141 2.439v4.616h.896c.255 0 .509-.018.764-.053.245-.036.575-.126.981-.251a1.91 1.91 0 00.981-.709c.245-.34.377-.78.377-1.3s-.123-.95-.358-1.3a1.848 1.848 0 00-.972-.708c-.405-.134-.726-.215-.962-.242a6.636 6.636 0 00-.745-.044h-.943l-.019-.01zm32.416 12.881v-7l-5.537-8.311h3.716l3.452 5.325 3.452-5.325h3.725l-5.677 8.31v7.001h-3.141.01zM25.408 35.613h-.268c-.29 2.063-1.26 3.775-2.92 5.127-1.659 1.36-3.912 2.04-6.76 2.04-2.158 0-4.18-.446-6.056-1.345-1.876-.89-3.514-2.211-4.92-3.962-1.405-1.75-2.506-3.923-3.296-6.533C.398 28.338 0 25.321 0 21.906c0-3.415.413-6.455 1.246-9.096.826-2.641 1.993-4.86 3.485-6.65a14.737 14.737 0 015.376-4.08c2.086-.93 4.412-1.398 6.97-1.398 3.383 0 6.303.789 8.759 2.36 2.449 1.57 4.376 3.938 5.781 7.08l-6.701 4.142c-.58-1.595-1.478-2.946-2.703-4.056-1.224-1.11-2.934-1.665-5.137-1.665-2.557 0-4.593.797-6.107 2.392C9.455 12.528 8.7 15.037 8.7 18.451v6.533c0 3.384.754 5.877 2.268 7.495 1.514 1.61 3.55 2.422 6.107 2.422 1.008 0 1.964-.125 2.862-.375a6.904 6.904 0 002.377-1.164 5.6 5.6 0 001.593-1.891c.377-.735.566-1.61.566-2.626v-2.04h-7.028v-7.408h14.867v22.678h-4.731l-2.181-6.47.007.007zm22.38 6.471h-8.216v-40.7H57.46c1.732 0 3.297.313 4.702.93a10.187 10.187 0 013.594 2.65c.992 1.149 1.753 2.516 2.296 4.11.544 1.595.812 3.36.812 5.307 0 2.758-.565 5.173-1.703 7.228-1.137 2.063-2.854 3.556-5.158 4.486l7.404 15.973h-9.136l-6.593-14.926h-5.89v14.942zm8.65-22.39c1.225 0 2.189-.335 2.891-1.023.703-.688 1.05-1.68 1.05-3v-2.564c0-1.32-.347-2.321-1.05-3.001-.702-.68-1.666-1.024-2.89-1.024h-8.65v10.613h8.65zm42.052 22.39l-2.703-9.675H83.195l-2.702 9.675h-8.325L84.6 1.384h10.165l12.273 40.7h-8.549zm-8.92-32.65h-.268l-4.158 15.45h8.65l-4.216-15.45h-.008zm33.458 13.41l-3.623-8.159h-.159v27.399h-7.73v-40.7h8.969l10.324 19.24 3.623 8.16h.159V1.376h7.73v40.699h-8.969l-10.324-19.24v.008zm62.814 12.769h-.268c-.29 2.063-1.261 3.775-2.92 5.127-1.659 1.36-3.912 2.04-6.76 2.04-2.166 0-4.18-.446-6.056-1.345-1.877-.89-3.514-2.211-4.92-3.962-1.405-1.75-2.507-3.923-3.296-6.533-.79-2.602-1.188-5.619-1.188-9.034 0-3.415.413-6.455 1.246-9.096.826-2.641 1.992-4.86 3.485-6.65a14.735 14.735 0 015.375-4.08c2.087-.93 4.413-1.398 6.97-1.398 3.383 0 6.303.789 8.759 2.36 2.449 1.57 4.376 3.938 5.782 7.08l-6.702 4.142c-.579-1.595-1.478-2.946-2.702-4.056-1.225-1.11-2.934-1.665-5.137-1.665-2.557 0-4.593.797-6.107 2.392-1.515 1.594-2.268 4.102-2.268 7.517v6.533c0 3.384.753 5.877 2.268 7.495 1.514 1.61 3.55 2.422 6.107 2.422 1.007 0 1.963-.125 2.862-.375a6.905 6.905 0 002.376-1.164 5.603 5.603 0 001.594-1.891c.377-.735.565-1.61.565-2.626v-2.04h-7.027v-7.408h14.866v22.678h-4.731l-2.18-6.47.007.007zm14.156 6.471v-40.7h25.676v7.87h-17.46v8.276h14.975v7.87h-14.975v8.807h17.46v7.869h-25.676v.008zm59.243-40.699l-9.136 26.976h-.108l-9.238-26.976h-8.708v40.699h7.73V17.327h.167l9.186 24.757h1.754l9.223-24.35h.159v24.35h7.731v-40.7h-8.76z" fill="#fff"/></svg>