<svg width="167" height="133" fill="none" xmlns="http://www.w3.org/2000/svg"><path d="M22.19 124.449h1.49v5.382c0 1.186-.3 1.993-.895 2.413-.353.238-.77.36-1.248.36-.671 0-1.257-.248-1.754-.743l.904-1.134c.192.29.438.43.747.43.273 0 .47-.094.586-.276.116-.177.17-.607.17-1.293v-5.144.005zm16.387 0v1.34h-2.751v1.783h2.635v1.339h-2.635v2.176h2.751v1.339h-4.241v-7.977h4.241zm15.051 2.922l-1.754 5.06h-1.123l-2.657-7.978h1.584l1.709 5.429 1.87-5.499h.823l1.762 5.499 1.835-5.429h1.583l-2.832 7.978h-1.122l-1.674-5.06h-.004zm19.676-2.922v1.34h-2.752v1.783h2.635v1.339h-2.635v2.176h2.752v1.339h-4.242v-7.977h4.242zm10.36 0h1.49v6.638h2.362v1.339h-3.852v-7.977zm13.803 0h1.49v6.638h2.362v1.339h-3.852v-7.977zm18.038 0v1.34h-2.752v1.783h2.636v1.339h-2.636v2.176h2.752v1.339h-4.241v-7.977h4.241zm10.361 0h2.21c.841 0 1.49.201 1.946.597.506.448.756 1.046.756 1.793 0 .831-.3 1.456-.895 1.876-.228.168-.51.285-.836.346l2.384 3.361h-1.856l-2.04-3.207h-.184v3.207h-1.49v-7.978l.005.005zm1.49 1.269v2.404h.425c.12 0 .241-.009.362-.028.116-.018.273-.065.465-.13a.919.919 0 00.466-.369 1.22 1.22 0 00.178-.677c0-.271-.058-.495-.17-.677a.882.882 0 00-.46-.368 2.35 2.35 0 00-.457-.127 2.868 2.868 0 00-.353-.023h-.447l-.009-.005zm15.376 6.708v-3.645l-2.627-4.328h1.763l1.638 2.773 1.637-2.773h1.767l-2.693 4.328v3.645h-1.49.005zm-126.267-22.33h-.166c-.178 1.232-.778 2.255-1.803 3.062-1.024.812-2.415 1.219-4.174 1.219a8.793 8.793 0 01-3.74-.803c-1.158-.532-2.17-1.321-3.037-2.367-.868-1.046-1.548-2.343-2.036-3.902-.488-1.555-.734-3.356-.734-5.396s.255-3.856.77-5.434c.51-1.578 1.23-2.903 2.152-3.972a9.076 9.076 0 013.32-2.437c1.288-.555 2.724-.835 4.303-.835 2.09 0 3.892.471 5.409 1.41 1.512.938 2.702 2.352 3.57 4.228l-4.138 2.474a5.955 5.955 0 00-1.669-2.422c-.756-.663-1.812-.995-3.172-.995-1.58 0-2.836.477-3.771 1.429-.935.952-1.4 2.45-1.4 4.49v3.903c0 2.021.465 3.51 1.4 4.476.935.962 2.192 1.447 3.771 1.447.622 0 1.213-.074 1.767-.224a4.31 4.31 0 001.468-.695c.42-.313.751-.691.984-1.13.233-.439.349-.961.349-1.568v-1.219h-4.34v-4.425h9.18v13.546h-2.92l-1.348-3.865.005.005zm13.819 3.865h-5.073v-24.31h11.046c1.069 0 2.035.187 2.903.555a6.28 6.28 0 012.22 1.583c.612.686 1.082 1.503 1.417 2.455.336.952.502 2.007.502 3.17 0 1.647-.35 3.09-1.052 4.317-.702 1.233-1.763 2.124-3.185 2.68l4.572 9.541h-5.641l-4.072-8.916h-3.637v8.925zm5.342-13.373c.756 0 1.351-.201 1.785-.612.434-.41.649-1.004.649-1.792v-1.531c0-.79-.215-1.387-.649-1.793-.434-.406-1.029-.611-1.785-.611h-5.342v6.339h5.342zm25.967 13.373l-1.669-5.779H52.15l-1.669 5.779h-5.14l7.677-24.31h6.277l7.578 24.31h-5.279zm-5.507-19.502h-.166l-2.568 9.228h5.342l-2.604-9.228h-.004zm20.66 8.01l-2.237-4.873h-.099v16.365h-4.773v-24.31h5.538l6.375 11.492 2.237 4.873h.099v-16.37h4.773v24.31h-5.538l-6.375-11.492v.005zm38.787 7.627h-.165c-.179 1.232-.779 2.255-1.803 3.062-1.025.812-2.416 1.219-4.174 1.219-1.338 0-2.582-.266-3.74-.803-1.159-.532-2.17-1.321-3.038-2.367-.868-1.046-1.548-2.343-2.036-3.902-.487-1.555-.733-3.356-.733-5.396s.255-3.856.769-5.434c.51-1.578 1.231-2.903 2.152-3.972a9.077 9.077 0 013.32-2.437c1.288-.555 2.724-.835 4.303-.835 2.09 0 3.893.471 5.409 1.41 1.512.938 2.702 2.352 3.57 4.228l-4.138 2.474a5.956 5.956 0 00-1.669-2.422c-.756-.663-1.811-.995-3.172-.995-1.579 0-2.836.477-3.771 1.429-.935.952-1.4 2.45-1.4 4.49v3.903c0 2.021.465 3.51 1.4 4.476.935.962 2.192 1.447 3.771 1.447a6.76 6.76 0 001.768-.224 4.309 4.309 0 001.467-.695c.421-.313.752-.691.984-1.13.233-.439.349-.961.349-1.568v-1.219h-4.339v-4.425h9.18v13.546h-2.921l-1.347-3.865.004.005zm8.742 3.865v-24.31h15.856v4.7h-10.782v4.944h9.247v4.7h-9.247v5.261h10.782v4.7h-15.856v.005zm36.582-24.311l-5.642 16.114h-.067l-5.704-16.113h-5.378v24.31h4.774V99.173h.103l5.673 14.788h1.082l5.695-14.545h.099v14.545h4.773v-24.31h-5.408zM83.49 19.885l8.779 9.187 26.806.06-16.696 17.066L77.165 19.61l9.686-9.803 31.348-.01 5.158 5.327h12.482L121.424.056 83.227.145l-19.063 19.6L102.67 59.4l37.464-39.514H83.491z" fill="#860117"/><path d="M57.721 0H44.967l-18.92 19.745 57.269 59.478 6.089-6.26-50.46-52.975L57.72 0z" fill="#860117"/><path d="M76.78.14L64.162.28C61.904 2.637 50.755 14.055 45.11 19.745l47.512 49.596 6.42-6.063-41.32-43.117L76.779.14z" fill="#860117"/></svg>