<svg width="234" height="41" fill="none" xmlns="http://www.w3.org/2000/svg"><path d="M82.854 31.47h1.806v5.71c0 1.257-.364 2.114-1.085 2.56-.428.252-.932.381-1.512.381a3.132 3.132 0 01-2.126-.787l1.096-1.204c.233.307.531.456.905.456.33 0 .57-.099.71-.292.141-.188.206-.644.206-1.372v-5.457.005zm19.86 0v1.421H99.38v1.892h3.193v1.421H99.38v2.308h3.334v1.421h-5.14V31.47h5.14zm18.239 3.1l-2.126 5.368h-1.36l-3.221-8.463h1.919l2.071 5.76 2.267-5.834h.997l2.136 5.833 2.223-5.76h1.92l-3.432 8.464h-1.361l-2.028-5.368h-.005zm23.844-3.1v1.421h-3.334v1.892h3.193v1.421h-3.193v2.308h3.334v1.421h-5.14V31.47h5.14zm12.557 0h1.805v7.042h2.863v1.421h-4.668V31.47zm16.725 0h1.806v7.042h2.862v1.421h-4.668V31.47zm21.861 0v1.421h-3.335v1.892h3.194v1.421h-3.194v2.308h3.335v1.421h-5.14V31.47h5.14zm12.556 0h2.678c1.019 0 1.805.213 2.358.634.613.475.917 1.11.917 1.901 0 .882-.364 1.545-1.085 1.991a2.64 2.64 0 01-1.014.366l2.89 3.566h-2.25l-2.472-3.402h-.222v3.402h-1.806v-8.463l.006.005zm1.805 1.347v2.55h.515c.147 0 .293-.01.439-.03.141-.02.331-.069.564-.138.233-.07.418-.203.564-.391.141-.189.217-.431.217-.718a1.22 1.22 0 00-.206-.719 1.058 1.058 0 00-.559-.39 3.032 3.032 0 00-.553-.134 3.977 3.977 0 00-.428-.025h-.542l-.011-.005zm18.634 7.116v-3.868l-3.182-4.59h2.136l1.984 2.941 1.985-2.941h2.141l-3.264 4.59v3.868h-1.805.005zM30.004 10.729l4.585 4.55 14.002.03-8.721 8.454-13.17-13.17 5.059-4.856 16.374-.005 2.694 2.638h6.52L49.817.907 29.868.95l-9.958 9.708L40.023 30.3 59.59 10.73H30.004z" fill="#000"/><path d="M16.544.879H9.882L0 10.659l29.913 29.462 3.18-3.1L6.737 10.78 16.544.879z" fill="#000"/><path d="M26.5.948l-6.59.07c-1.18 1.167-7.004 6.823-9.953 9.641l24.817 24.567 3.353-3.003-21.583-21.358L26.5.948zm68.044 19.227h-.154c-.167 1.14-.725 2.085-1.679 2.832-.954.751-2.249 1.127-3.886 1.127a8.23 8.23 0 01-3.481-.743c-1.08-.492-2.02-1.222-2.828-2.189-.808-.967-1.442-2.167-1.895-3.608-.454-1.438-.683-3.104-.683-4.99 0-1.887.237-3.566.716-5.025.475-1.46 1.145-2.685 2.003-3.674a8.445 8.445 0 013.09-2.253c1.2-.514 2.537-.773 4.007-.773 1.945 0 3.623.436 5.035 1.304 1.408.867 2.516 2.175 3.324 3.91L94.26 8.382a5.505 5.505 0 00-1.553-2.24c-.704-.613-1.687-.92-2.953-.92-1.47 0-2.64.44-3.51 1.322-.871.88-1.305 2.266-1.305 4.152v3.61c0 1.868.434 3.245 1.304 4.139.87.89 2.04 1.338 3.511 1.338.579 0 1.129-.069 1.645-.207a4.035 4.035 0 001.366-.643c.392-.29.7-.64.916-1.045.217-.406.325-.89.325-1.45V15.31h-4.04v-4.092h8.547v12.527h-2.72l-1.254-3.574.005.004zm12.864 3.575h-4.722V1.266h10.283c.995 0 1.895.173 2.703.514a5.839 5.839 0 012.065 1.463c.571.635 1.008 1.39 1.321 2.271.312.88.466 1.856.466 2.931 0 1.524-.325 2.858-.979 3.993-.654 1.14-1.641 1.964-2.965 2.478l4.256 8.824h-5.251l-3.79-8.245h-3.387v8.254zm4.973-12.368c.704 0 1.258-.186 1.662-.566.404-.38.604-.928.604-1.657V7.743c0-.73-.2-1.282-.604-1.658-.404-.376-.958-.566-1.662-.566h-4.973v5.863h4.973zm24.174 12.368l-1.554-5.345h-7.238l-1.554 5.344h-4.785l7.147-22.482h5.843l7.055 22.482h-4.914zm-5.127-18.036h-.154l-2.391 8.534h4.973l-2.424-8.534h-.004zm19.233 7.407l-2.083-4.506h-.091v15.134h-4.444V1.267h5.156l5.935 10.628 2.082 4.507h.092V1.263h4.444v22.482h-5.156l-5.935-10.628v.004zm36.109 7.054h-.154c-.166 1.14-.725 2.085-1.678 2.832-.954.751-2.249 1.127-3.886 1.127a8.219 8.219 0 01-3.482-.743c-1.079-.492-2.02-1.222-2.828-2.189-.808-.967-1.441-2.167-1.895-3.608-.454-1.438-.683-3.104-.683-4.99 0-1.887.237-3.566.716-5.025.475-1.46 1.146-2.685 2.004-3.674a8.45 8.45 0 013.09-2.253c1.2-.514 2.536-.773 4.007-.773 1.945 0 3.623.436 5.035 1.304 1.408.867 2.516 2.175 3.323 3.91l-3.852 2.288a5.511 5.511 0 00-1.553-2.24c-.704-.613-1.687-.92-2.953-.92-1.471 0-2.641.44-3.511 1.322-.871.88-1.304 2.266-1.304 4.152v3.61c0 1.868.433 3.245 1.304 4.139.87.89 2.04 1.338 3.511 1.338.579 0 1.128-.069 1.645-.207a4.043 4.043 0 001.366-.643c.391-.29.7-.64.916-1.045.217-.406.325-.89.325-1.45V15.31h-4.04v-4.092h8.546v12.527h-2.719l-1.254-3.574.004.004zm8.138 3.575V1.266h14.76v4.347h-10.037v4.572h8.609v4.347h-8.609v4.865h10.037v4.347h-14.76v.004zm34.057-22.483l-5.252 14.902h-.063l-5.31-14.902h-5.006V23.75h4.444V10.074h.096l5.281 13.675h1.008l5.301-13.45h.092v13.45H234V1.267h-5.035z" fill="#000"/></svg>