<svg width="77" height="54" fill="none" xmlns="http://www.w3.org/2000/svg"><path d="M38.77 13.322l5.925 6.154 18.093.04L51.519 30.95 34.501 13.137l6.537-6.567 21.158-.006 3.481 3.568h8.425L64.373.038l-25.78.059-12.866 13.13 25.988 26.566L77 13.322H38.77z" fill="#fff"/><path d="M21.378 0h-8.609L0 13.228l38.653 39.846 4.109-4.194L8.705 13.39 21.378 0z" fill="#fff"/><path d="M34.24.094l-8.515.094c-1.525 1.579-9.05 9.228-12.86 13.04l32.067 33.226 4.333-4.063-27.888-28.885L34.24.094z" fill="#fff"/></svg>