<svg width="161" height="27" fill="none" xmlns="http://www.w3.org/2000/svg"><path d="M57.007 21.048h1.242v3.928c0 .866-.25 1.455-.746 1.762a2.012 2.012 0 01-1.04.262c-.56 0-1.049-.18-1.463-.542l.754-.828c.16.212.365.314.623.314.227 0 .391-.068.488-.201.097-.13.142-.443.142-.944v-3.755.004zm13.664 0v.978h-2.294v1.301h2.197v.978h-2.197v1.588h2.294v.977h-3.536v-5.822h3.536zM83.22 23.18l-1.462 3.694h-.937l-2.215-5.823h1.32l1.425 3.963L82.911 21h.686l1.47 4.014 1.529-3.963h1.32l-2.361 5.823h-.936l-1.395-3.693h-.004zm16.405-2.132v.978h-2.294v1.301h2.197v.978h-2.197v1.588h2.294v.977H96.09v-5.822h3.536zm8.64 0h1.242v4.845h1.969v.977h-3.211v-5.822zm11.508 0h1.242v4.845h1.97v.977h-3.212v-5.822zm15.04 0v.978h-2.294v1.301h2.197v.978h-2.197v1.588h2.294v.977h-3.536v-5.822h3.536zm8.64 0h1.843c.701 0 1.242.146 1.622.436.422.327.631.763.631 1.308 0 .607-.25 1.063-.746 1.37-.19.123-.426.208-.698.252l1.988 2.453h-1.548l-1.701-2.34h-.153v2.34h-1.242v-5.823l.004.004zm1.242.926v1.755h.355c.1 0 .201-.007.302-.02a2.97 2.97 0 00.388-.096.756.756 0 00.388-.269.807.807 0 00.149-.494.839.839 0 00-.142-.494.73.73 0 00-.384-.27 2.092 2.092 0 00-.381-.091 2.732 2.732 0 00-.294-.017h-.373l-.008-.004zm12.821 4.896v-2.66l-2.19-3.159h1.47l1.365 2.024 1.365-2.024H161l-2.246 3.159v2.66h-1.242.004zM20.644 6.777l3.154 3.13 9.634.022-6 5.816-9.061-9.062 3.48-3.34 11.266-.004 1.854 1.815h4.486L34.276.02 20.548.05l-6.85 6.68 13.837 13.515L41 6.777H20.644z" fill="#fff"/><path d="M11.383 0H6.8L0 6.73 20.581 27l2.188-2.133L4.635 6.812 11.383 0z" fill="#fff"/><path d="M18.232.048l-4.534.047A958.28 958.28 0 016.851 6.73l17.074 16.903 2.307-2.066L11.382 6.87l6.85-6.823zM65.05 13.276h-.106c-.115.784-.5 1.435-1.155 1.949-.657.517-1.548.775-2.674.775a5.69 5.69 0 01-2.396-.51 5.487 5.487 0 01-1.945-1.507c-.556-.665-.992-1.49-1.304-2.483-.312-.989-.47-2.135-.47-3.433s.163-2.453.493-3.457c.327-1.004.788-1.848 1.378-2.528a5.811 5.811 0 012.127-1.55C59.823.178 60.742 0 61.754 0c1.338 0 2.493.3 3.465.897.968.597 1.73 1.497 2.286 2.69l-2.65 1.575a3.789 3.789 0 00-1.07-1.541c-.483-.422-1.16-.633-2.03-.633-1.012 0-1.818.303-2.416.909-.6.606-.898 1.56-.898 2.857v2.483c0 1.286.299 2.234.898 2.848.598.612 1.404.921 2.415.921.398 0 .777-.047 1.132-.142.355-.096.67-.244.94-.443.27-.199.481-.44.63-.719.15-.279.224-.612.224-.998V9.93H61.9V7.113h5.88v8.62h-1.87l-.863-2.46.002.003zm8.85 2.46h-3.249V.267h7.075c.685 0 1.304.12 1.86.354a4.023 4.023 0 011.421 1.007c.393.436.694.956.909 1.562.215.606.32 1.277.32 2.017 0 1.048-.223 1.966-.673 2.747-.45.784-1.129 1.351-2.04 1.705l2.929 6.07h-3.614l-2.607-5.672H73.9v5.679zm3.422-8.51c.485 0 .866-.127 1.144-.389.278-.261.415-.638.415-1.14v-.975c0-.501-.137-.882-.415-1.14-.278-.258-.66-.39-1.144-.39h-3.421v4.034h3.421zm16.632 8.51l-1.068-3.677h-4.98l-1.07 3.677h-3.292L88.46.267h4.02l4.855 15.469h-3.381zm-3.527-12.41h-.106l-1.645 5.872h3.422L90.43 3.327h-.003zm13.233 5.097l-1.433-3.1h-.063v10.413h-3.058V.267h3.548l4.083 7.313 1.433 3.1h.063V.264h3.058v15.469h-3.548L103.66 8.42v.003zm24.845 4.853h-.106c-.115.784-.499 1.435-1.155 1.949-.656.517-1.548.775-2.674.775-.857 0-1.653-.17-2.395-.51a5.482 5.482 0 01-1.946-1.507c-.556-.665-.992-1.49-1.304-2.483-.312-.989-.47-2.135-.47-3.433s.163-2.453.493-3.457c.327-1.004.788-1.848 1.378-2.528a5.814 5.814 0 012.127-1.55c.825-.354 1.745-.532 2.756-.532 1.338 0 2.493.3 3.465.897.968.597 1.73 1.497 2.286 2.69l-2.65 1.575a3.789 3.789 0 00-1.069-1.541c-.484-.422-1.161-.633-2.032-.633-1.011 0-1.817.303-2.415.909-.599.606-.897 1.56-.897 2.857v2.483c0 1.286.298 2.234.897 2.848.598.612 1.404.921 2.415.921.399 0 .777-.047 1.132-.142.355-.096.671-.244.94-.443.269-.199.481-.44.63-.719.149-.279.224-.612.224-.998V9.93h-2.78V7.113h5.88v8.62h-1.871l-.862-2.46.003.003zm5.599 2.46V.267h10.156v2.991h-6.906v3.146h5.923v2.99h-5.923v3.348h6.906v2.99h-10.156v.004zM157.536.267l-3.614 10.253h-.043L150.226.267h-3.445v15.469h3.058v-9.41h.066l3.633 9.41h.694l3.648-9.255h.063v9.255H161V.267h-3.464z" fill="#fff"/></svg>