<svg width="46" height="38" fill="none" xmlns="http://www.w3.org/2000/svg"><path d="M43.532 19.515C43.43 13.101 37.16 8.86 32.02 8.305c-5.14-.556-6.578 1.666-6.578 1.666S27.702 3.36 23 0c-4.702 3.361-2.44 9.971-2.44 9.971s-1.44-2.222-6.58-1.666c-5.139.555-11.409 4.798-11.513 11.21C2.364 25.928 0 38 0 38s1.284-.858 5.294-5.202c4.008-4.344 3.958-12.423 3.958-12.423 2.724 2.928 6.99 1.616 8.274-1.162 1.285-2.777-1.438-5.554-1.438-5.554s.41 2.322-1.696 3.283c-2.108.96-5.653-3.333-1.028-5.243 4.625-1.91 7.71.798 7.702 7.124-.008 6.326-7.702 18.824-7.702 18.824C20.867 33.556 23 25.159 23 25.159s2.133 8.397 9.638 12.487c0 0-7.694-12.497-7.702-18.824-.008-6.325 3.075-9.033 7.702-7.124 4.625 1.909 1.08 6.201-1.028 5.243-2.107-.96-1.697-3.283-1.697-3.283s-2.724 2.777-1.438 5.554c1.284 2.778 5.55 4.09 8.275 1.162 0 0-.052 8.08 3.958 12.423 4.008 4.344 5.293 5.202 5.293 5.202s-2.363-12.07-2.467-18.484h-.002z" fill="#fff"/></svg>