<svg width="46" height="37" fill="none" xmlns="http://www.w3.org/2000/svg"><path d="M37.557 7.843C30.068 6.42 25.48 12.518 25.48 12.518S29.177 5.43 23.018.015L23.001 0l-.017.015c-6.159 5.415-2.462 12.503-2.462 12.503S15.934 6.42 8.445 7.843C.955 9.266-.124 15.837.012 19.903c.135 4.065 5.6 9.89 11.2 7.452 5.6-2.44 3.508-6.91 3.508-6.91s.81 3.659-3.644 4.132c-4.453.475-8.029-6.978-2.227-10.296 5.802-3.32 10.255 1.016 11.275 4.447 1.02 3.431-.277 7.07-4.199 10.302-3.92 3.232-9.91 2.729-9.91 2.729 7.355 7.587 14.709-1.287 14.709-1.287-1.016 4.974 1.913 6.376 2.26 6.523l.017.008.017-.008c.347-.147 3.276-1.549 2.26-6.523 0 0 7.355 8.875 14.709 1.287 0 0-5.988.503-9.91-2.73-3.92-3.232-5.218-6.87-4.199-10.3 1.02-3.432 5.472-7.767 11.275-4.448 5.802 3.318 2.227 10.77-2.227 10.296-4.453-.474-3.644-4.132-3.644-4.132s-2.091 4.47 3.509 6.91c5.6 2.439 11.064-3.387 11.2-7.453.135-4.064-.945-10.635-8.434-12.058v-.001z" fill="#fff"/></svg>