<svg width="36" height="36" fill="none" xmlns="http://www.w3.org/2000/svg"><g stroke="#000" stroke-width="1.5" stroke-linecap="round" stroke-linejoin="round" clip-path="url(#clip0_343_4663)"><path d="M3.857 6.429A2.571 2.571 0 001.285 9v23.143a2.571 2.571 0 002.572 2.571h28.285a2.571 2.571 0 002.572-2.571V9a2.572 2.572 0 00-2.572-2.571H27M9 1.286V11.57M27 1.286V11.57M9 6.429h12.857"/><path d="M8.999 20.571a1.286 1.286 0 100-2.57 1.286 1.286 0 000 2.57zm9 0a1.286 1.286 0 100-2.57 1.286 1.286 0 000 2.57zm9 0a1.286 1.286 0 100-2.57 1.286 1.286 0 000 2.57zm-18 7.715a1.286 1.286 0 100-2.572 1.286 1.286 0 000 2.572z"/></g><defs><clipPath id="clip0_343_4663"><path fill="#fff" d="M0 0h36v36H0z"/></clipPath></defs></svg>