<svg width="36" height="36" fill="none" xmlns="http://www.w3.org/2000/svg"><path d="M33 15v7.5C33 30 30 33 22.5 33h-9C6 33 3 30 3 22.5v-9C3 6 6 3 13.5 3H21" stroke="#000" stroke-width="1.5" stroke-linecap="round" stroke-linejoin="round"/><path d="M33 15h-6c-4.5 0-6-1.5-6-6V3l12 12z" stroke="#000" stroke-width="1.5" stroke-linecap="round" stroke-linejoin="round"/><path clip-rule="evenodd" d="M12.48 18h3.975c.405 0 .915.27 1.125.6l1.695 2.55c.345.51.27 1.275-.165 1.71l-3.69 3.69a1.367 1.367 0 01-1.92 0l-3.69-3.69c-.435-.435-.51-1.2-.165-1.71l1.695-2.55c.24-.33.75-.6 1.14-.6z" stroke="#000" stroke-width="1.5" stroke-miterlimit="10" stroke-linecap="round" stroke-linejoin="round"/></svg>