<svg width="36" height="36" fill="none" xmlns="http://www.w3.org/2000/svg"><g clip-path="url(#clip0_343_4691)" stroke="#000" stroke-width="1.5"><path d="M18.925 34.534c-.596.23-1.256.23-1.851 0v0A24.608 24.608 0 011.285 11.546V4.834a1.311 1.311 0 01.926-1.26 55.466 55.466 0 0131.577 0 1.311 1.311 0 01.926 1.26v6.712a24.608 24.608 0 01-15.789 22.988v0z" stroke-linecap="round" stroke-linejoin="round"/><path d="M18 28a2 2 0 100-4 2 2 0 000 4z" stroke-linecap="round" stroke-linejoin="round"/><path d="M16 7h4v14h-4z"/></g><defs><clipPath id="clip0_343_4691"><path fill="#fff" d="M0 0h36v36H0z"/></clipPath></defs></svg>