<svg width="74" height="115" fill="none" xmlns="http://www.w3.org/2000/svg"><path d="M73.15 78.08c.06-.38.075-.624.075-.67.046-4.4-.287-8.676-.892-12.817 0-.06 0-.106-.03-.167-1.421-9.56-4.355-18.388-7.954-26.273a1.465 1.465 0 00-.348-.76c-3.917-8.419-8.56-15.68-12.854-21.51-.046-.106-.076-.227-.167-.319-.06-.076-.136-.122-.211-.182C43.812 6.035 37.915.57 37.763.449h-.03c-.045-.046-.12-.076-.166-.107-.046-.03-.076-.076-.121-.09-.015 0-.06 0-.076-.031-.03-.016-.075-.046-.12-.061-.076-.03-.152-.03-.228-.046-.075 0-.15-.03-.227-.046h-.105c-.076 0-.151.03-.227.046a.603.603 0 00-.227.046c-.045 0-.076.045-.121.06-.03 0-.06 0-.076.031-.045.03-.075.061-.12.091-.061.046-.121.061-.182.107h-.015c-.151.137-6.05 5.571-12.99 14.917-.076.061-.167.107-.227.198-.09.107-.121.229-.166.35-4.265 5.8-8.892 13.045-12.794 21.432l-.03.03a1.49 1.49 0 00-.363.853c-3.57 7.84-6.488 16.622-7.91 26.136-.06.152-.075.32-.075.502a83.114 83.114 0 00-.862 12.695c0 .03.03.228.076.548-.136.442-.06.898.196 1.294.409 2.466 1.407 7.154 3.524 12.345v.167c.06.213.151.38.287.548 1.648 3.836 3.917 7.885 7.047 11.493.106.243.303.441.514.593 2.722 2.999 6.08 5.617 10.178 7.489.045.031.09.076.136.107.06.015.106.015.151.03 3.871 1.72 8.408 2.755 13.746 2.755h1.165c5.338 0 9.86-1.05 13.746-2.755.06-.015.106 0 .151-.03.06-.031.091-.076.136-.107 4.099-1.872 7.44-4.49 10.178-7.474.212-.152.408-.35.514-.593 3.115-3.592 5.399-7.641 7.032-11.477a1.56 1.56 0 00.302-.564v-.182c2.103-5.13 3.1-9.772 3.509-12.3.272-.395.348-.867.196-1.324l.06-.045zm-6.125 11.538l-2.737-.761 4.612-5.008a53.872 53.872 0 01-1.875 5.769zm-15.651 18.951l-1.558-3.532 6.956-.152a27.911 27.911 0 01-5.398 3.669v.015zM16.622 104.9l7.138.153-1.603 3.592c-2.072-1.05-3.902-2.329-5.55-3.745h.015zM4.57 83.742l4.718 5.13-2.858.791a54.255 54.255 0 01-1.876-5.906l.016-.015zm51.144-55.574l-7.561-8.387 1.33-1.066a128.592 128.592 0 016.23 9.438v.015zm-21.217-1.522L24.198 37.834l4.295-15.664 5.989 4.476h.015zm2.283 71.633l-14.94-5.48-4.885-14.171 5.55-34.417 14.275-15.51 14.276 15.51 5.535 34.417-4.885 14.171-14.94 5.48h.014zM15.503 83.727l2.465 7.185-4.023-2.04 1.543-5.145h.015zm42.57 0l1.542 5.145-4.022 2.04 2.465-7.2.015.015zm.68-10.93l-3.342-20.746 6.548 12.04-3.206 8.692v.015zm-4.839-29.895l-4.809-17.505 12.28 13.624.544 18.616-8.015-14.735zM45.052 22.17l4.295 15.663L39.05 26.647l6.003-4.476zm-8.272 2.345l-7.198-5.374L36.78 4.97l7.2 14.17-7.199 5.374zM14.823 72.797l-3.206-8.692 6.548-12.04-3.342 20.747v-.015zm-1.029 6.012l-2.359 7.87-7.712-8.372L9.65 67.622l4.143 11.204v-.016zm5.762 16.364l3.856 6.773-9.119-.198-.514-9.513 5.777 2.922v.016zm7.229 6.515l-2.738-4.795 8.106 2.968-5.368 1.827zm9.995-.137l7.743 2.633-7.743 7.078-7.742-7.078 7.742-2.633zm4.628-1.69l8.105-2.968-2.737 4.81-5.368-1.827v-.015zm12.597-4.688l5.777-2.923-.514 9.514-9.12.198 3.872-6.774-.015-.015zm8.12-8.494l-2.358-7.87 4.143-11.203 5.928 10.686-7.712 8.372v.015zm2.526-39.942c1.89 5.145 3.433 10.61 4.4 16.364l-3.946-.487-.454-15.861v-.016zm-18.207-29.5l-3.448-6.773c1.436 1.69 3.01 3.623 4.657 5.8l-1.224.974h.015zm-19.312 0l-1.21-.974a123.07 123.07 0 014.658-5.8l-3.433 6.775h-.015zm-7.47 25.664l-8.015 14.735.544-18.616 12.28-13.624-4.81 17.505zM8.456 62.6l-3.932.487c.968-5.723 2.51-11.172 4.386-16.287l-.454 15.8zm-4.4 3.669l3.07-.38-3.63 6.53a80.3 80.3 0 01.56-6.15zm6.653 25.405l.378 6.986c-1.376-2.009-2.51-4.094-3.448-6.134l3.07-.852zm15.91 14.445l5.988 5.48c-2.813-.289-5.354-.883-7.652-1.751l1.648-3.729h.015zm20.324 0l1.633 3.684a29.001 29.001 0 01-7.622 1.781l5.989-5.48v.015zm15.909-14.445l2.948.806a42.476 42.476 0 01-3.296 5.891l.363-6.697h-.015zm3.584-25.801l3.1.38c.257 2.025.438 4.095.544 6.18l-3.644-6.56zM24.078 18.73l1.33 1.05-7.516 8.327a132.398 132.398 0 016.186-9.392v.015z" fill="#860117"/></svg>