<svg width="119" height="89" fill="none" xmlns="http://www.w3.org/2000/svg"><path d="M118.783 62.987V25.998c0-.198-.045-.38-.121-.563 0-.046-.03-.076-.045-.107a1.366 1.366 0 00-.303-.426L93.634 1.293a1.418 1.418 0 00-.982-.396H25.78c-.363 0-.726.153-.983.411L.692 24.918a1.543 1.543 0 00-.287.41c-.015.03-.03.076-.046.107a1.376 1.376 0 00-.12.548v37.019a1.758 1.758 0 00.15.654c.076.153.167.29.288.427l24.105 23.609c.272.258.62.41.983.41h66.871c.363 0 .711-.136.983-.395l24.68-23.61c.121-.12.227-.273.303-.425.015-.046.03-.076.045-.122.076-.183.121-.365.121-.563h.015zM3.112 61.175V27.78l6.593 1.248v30.9l-3.403.64-3.19.608zm14.593 4.947l-2.495-2.694 1.194.213 5.626.974 2.117 8.464-6.442-6.941v-.016zm30.048-47.278l-10.631 2.298L25.16 23.73l2.767-11.097 7.894 2.466 11.932 3.745zm0 51.282l-19.81 6.21-2.768-11.096 22.593 4.886h-.015zM20.865 27.61l-3.81 9.62-3.796-8.295 1.119-.198 6.487-1.127zM13.26 60.035l3.795-8.296 3.811 9.62-6.487-1.126-1.12-.198zm8.77-35.665l-6.82 1.188 8.938-9.651-2.117 8.463zm-9.45 10.047l3.145 6.865v6.423l-3.146 6.865V34.416zm41.178 33.929l-16.74-3.623-12.78-2.755-5.625-14.232v-6.5l5.626-14.232 10.933-2.36 18.586-4.018h11.478l18.812 4.064 10.707 2.314 5.625 14.232v6.5l-5.625 14.232-12.613 2.725-16.906 3.653H53.757zm38.683 2.48l-1.376 5.511-19.81-6.21 22.592-4.886-1.391 5.586h-.015zm13.293-41.89l-3.796 8.297-3.811-9.62 6.487 1.126 1.12.198zm-7.607 32.423l3.418-8.661.378-.96 3.795 8.297-1.119.198-6.487 1.126h.015zm5.671-35.801l-6.82-1.188-2.118-8.463 8.938 9.65zM91.064 12.633l1.421 5.693 1.346 5.404-22.593-4.886 11.508-3.608 8.318-2.603zM96.977 64.6l6.82-1.187-8.938 9.65 2.118-8.463zm9.451-10.046l-3.145-6.85v-6.423l3.145-6.865v20.138zM65.174 17.61H53.832l-17.118-5.358h45.564L65.159 17.61h.015zM53.832 71.359h11.342l17.119 5.373H36.729l17.118-5.373h-.015zm55.469-11.432v-30.9l6.594-1.248v33.396l-3.236-.608-3.342-.64h-.016zm4.93-34.873l-3.674.7-2.178.411-14.85-16.028V5.251l20.702 19.803zM90.641 9.24H28.365V3.866H90.64v5.373zM25.477 4.733v5.404l-14.85 16.028-.757-.137-5.141-.974 20.748-20.32zM4.73 63.931l3.886-.731 2.011-.38 14.85 16.028v5.419L4.73 63.946v-.015zm23.636 15.8H90.64v5.358H28.366V79.73zm65.148 3.988v-4.886l3.826-4.126 11.024-11.888.711.137 5.141.974-20.702 19.804v-.015z" fill="#860117"/></svg>