<svg width="100" height="107" fill="none" xmlns="http://www.w3.org/2000/svg"><path d="M99.188 30.751l-.212-.457c-.756-1.628-4.884-10.183-11.432-17.84C81.979 5.956 76.142 1.83 70.198.172h-.015s-.015-.015-.03-.015a2.595 2.595 0 00-.318-.107 1.483 1.483 0 00-.362-.046H29.867c-.121 0-.242.016-.363.046-.106.03-.212.06-.363.122-5.958 1.659-11.795 5.784-17.345 12.284C5.232 20.11 1.104 28.665.348 30.295l-.212.456c-.09.198-.136.426-.136.64v43.336c0 .213.045.41.121.608.106.244.212.488.333.716l.211.457c3.07 6.85 6.805 12.832 11.13 17.763l.258.274c8.559 9.666 16.468 12.284 16.8 12.391.137.045.288.061.424.061h40.755c.136 0 .287-.016.424-.061.332-.107 8.241-2.725 16.8-12.39 0 0 0-.031.03-.031l.061-.061.167-.183c4.31-4.931 8.06-10.914 11.13-17.763l.212-.472c.105-.229.211-.457.317-.7a1.68 1.68 0 00.121-.61V31.392c0-.229-.045-.442-.136-.64h.03zM96.33 73.615c-.484-.273-.953-.517-1.391-.76-.076-.031-.136-.077-.212-.107l-1.104-.579-.363-.182c-.287-.137-.56-.29-.816-.411-.136-.061-.258-.122-.394-.183a27.397 27.397 0 01-.665-.32l-.408-.182c-.182-.076-.363-.168-.545-.244a3.93 3.93 0 00-.378-.152c-.151-.06-.317-.137-.453-.183a6.513 6.513 0 01-.333-.137c-.136-.045-.272-.106-.393-.152-.091-.03-.197-.06-.288-.091a5.296 5.296 0 01-.257-.091l8.136-11.69v15.525s-.03 0-.03-.015c-.03 0-.046-.03-.076-.046h-.03zm-25.511 29.987c-.03-.122-.076-.228-.106-.35-.076-.274-.167-.548-.242-.822-.06-.167-.106-.35-.167-.517-.09-.274-.166-.533-.257-.807a4.517 4.517 0 00-.166-.487c-.09-.289-.197-.563-.287-.853-.046-.137-.091-.258-.137-.395-.136-.396-.287-.807-.423-1.188-.151-.396-.287-.791-.423-1.172-.03-.091-.076-.182-.106-.274-.106-.274-.197-.532-.303-.791a8.68 8.68 0 00-.136-.35c-.09-.214-.166-.427-.242-.624l-.136-.366c-.06-.167-.136-.32-.197-.472-.03-.076-.06-.167-.09-.243h.211c.681.015 1.407.045 2.133.06.212 0 .438.016.65.031l1.906.091c.18 0 .362.016.559.03.802.047 1.618.092 2.42.138.226 0 .453.03.68.046.605.045 1.21.076 1.815.121.287.016.59.046.877.061l1.875.137c.181 0 .378.03.56.046.665.046 1.3.106 1.95.152-5.292 5.312-10.056 7.839-12.203 8.798h-.016zm-17.059-3.379a7.47 7.47 0 00-.347.335c-.53.502-1.044 1.02-1.558 1.552l-.318.32c-.423.442-.846.883-1.255 1.324-.075.092-.166.168-.242.259h-.71c-.076-.091-.167-.167-.242-.259-.424-.441-.832-.882-1.256-1.324a96.17 96.17 0 01-.317-.32 152.277 152.277 0 00-1.558-1.552c-.12-.122-.242-.228-.363-.35a90.627 90.627 0 00-1.27-1.203c-.136-.121-.257-.243-.393-.365-.514-.472-1.029-.929-1.528-1.385a1.512 1.512 0 01-.166-.152c-.454-.396-.892-.792-1.33-1.157a6.925 6.925 0 00-.364-.305 55.866 55.866 0 00-1.225-1.035.713.713 0 01-.12-.106c-.424-.366-.832-.685-1.21-.99-.106-.091-.212-.167-.303-.259-.272-.213-.514-.426-.756-.608-.06-.046-.12-.107-.181-.153l12.93-8.235 12.929 8.235s-.121.107-.181.153c-.227.182-.484.395-.757.608a5.864 5.864 0 01-.317.26c-.378.304-.771.639-1.21 1.004-.03.03-.076.06-.106.091-.393.335-.817.685-1.24 1.05-.12.107-.242.198-.363.305-.423.365-.877.761-1.33 1.157a1.36 1.36 0 00-.167.152c-.499.441-1.013.913-1.512 1.385-.136.122-.257.244-.393.365-.424.396-.847.792-1.286 1.218l.015-.015zm-22.502-4.612c-.045.106-.09.213-.12.335a12.71 12.71 0 00-.303.806c-.03.092-.06.168-.106.26-.136.38-.287.76-.424 1.171-.136.38-.287.777-.423 1.188-.045.121-.09.258-.136.38-.09.289-.197.579-.287.868-.06.152-.106.319-.152.472-.09.274-.166.532-.257.806-.06.168-.106.35-.166.518-.09.274-.166.548-.242.822-.03.122-.076.228-.106.35-2.147-.959-6.91-3.486-12.204-8.798.635-.046 1.286-.107 1.951-.152.181 0 .363-.03.544-.046l1.876-.137c.287-.015.574-.046.877-.06.605-.047 1.21-.077 1.814-.123.227 0 .454-.03.681-.045l2.42-.137c.181 0 .363-.016.56-.03l1.904-.092c.212 0 .44-.015.65-.03.727-.031 1.452-.046 2.133-.061h.211s-.06.167-.09.243c-.06.152-.121.305-.197.472-.045.122-.09.228-.136.35-.075.213-.166.426-.257.64l-.015.03zm-19.72-6.287c-2.873-3.76-5.429-8.037-7.667-12.801l.03-.015a51.68 51.68 0 011.483-.807s.03 0 .045-.015c.423-.229.832-.442 1.21-.64l.363-.182c.257-.137.514-.26.756-.38.136-.062.272-.138.393-.199.212-.106.423-.198.62-.289.121-.06.242-.122.363-.167.197-.092.378-.168.56-.244.105-.046.211-.091.302-.137.257-.106.484-.213.71-.29l.228-.09c.136-.061.287-.107.408-.153.09-.03.166-.06.242-.091.106-.03.212-.076.302-.107.03 0 .06-.015.106-.03l-.227 7.84-.257 8.828.03-.03zM3.01 73.615s-.06.03-.075.046c0 0-.03 0-.046.015V58.15l5.339 7.672 2.797 4.019s-.166.06-.242.09a2.662 2.662 0 00-.302.107c-.136.046-.272.107-.424.153-.105.045-.196.076-.302.121-.166.061-.348.153-.544.229-.091.045-.182.076-.288.121-.211.092-.438.198-.665.29-.09.045-.182.076-.272.121-.257.122-.53.244-.802.381-.09.046-.166.076-.257.122-.302.137-.605.304-.938.456-.09.046-.166.092-.257.137-.347.183-.725.38-1.119.579a1.381 1.381 0 01-.211.106c-.439.229-.908.487-1.392.746v.016zm25.512-70.11c.045.136.09.273.12.41.077.244.152.503.228.761.06.183.12.366.166.564.076.243.151.502.242.745l.181.548c.091.244.167.503.258.746.06.168.12.335.166.487.106.29.197.579.302.853.046.106.076.228.121.335.137.38.273.746.409 1.096.045.137.106.274.15.41.092.214.167.442.243.64.06.152.12.29.166.441.076.183.136.35.212.518.06.152.12.29.166.426.06.152.121.29.167.426.03.076.06.168.09.244h-.272c-.695-.015-1.406-.046-2.147-.061-.197 0-.409 0-.605-.03l-2.072-.092c-.136 0-.272 0-.408-.015a159.45 159.45 0 01-2.601-.152c-.106 0-.212 0-.303-.015-.756-.046-1.527-.092-2.283-.153-.212 0-.409-.03-.62-.045-.756-.061-1.513-.107-2.269-.168-.09 0-.181 0-.257-.015-.726-.06-1.436-.107-2.132-.168 4.113-4.292 8.317-7.215 12.552-8.706l.03-.03zM45.58 6.792c.106-.106.227-.213.333-.32a76.676 76.676 0 001.572-1.567c.106-.107.197-.213.303-.305.438-.441.862-.883 1.27-1.34.076-.09.167-.167.242-.258h.711l.197.198c.453.487.892.959 1.36 1.43l.258.26c.529.532 1.058 1.065 1.587 1.583.106.106.212.197.318.304.439.426.877.837 1.316 1.248.136.122.257.244.393.35.514.472 1.028.944 1.527 1.385.046.046.091.092.151.137.47.411.908.807 1.346 1.188.121.106.227.198.348.289.454.396.892.761 1.316 1.111l.015.015c.454.38.877.731 1.27 1.05.06.046.106.092.167.138.378.304.725.578 1.028.837l-12.93 8.235-12.93-8.235c.303-.244.65-.533 1.029-.837.06-.046.106-.092.166-.137.393-.32.817-.67 1.286-1.05.423-.35.877-.746 1.346-1.142l.317-.274c.454-.396.907-.792 1.391-1.218.03-.03.076-.06.106-.107.5-.456 1.013-.913 1.543-1.4.12-.122.242-.228.378-.35a48.46 48.46 0 001.3-1.233l-.03.015zm22.457 4.719c.06-.137.106-.29.166-.441.076-.214.167-.427.242-.64.06-.137.106-.274.167-.41.136-.35.272-.716.408-1.097.045-.106.075-.228.12-.335.107-.274.198-.563.303-.852.06-.152.106-.32.167-.487.09-.259.166-.502.257-.761.06-.183.12-.35.181-.533.076-.244.167-.502.242-.746.06-.183.121-.365.166-.563.076-.244.152-.502.227-.761a3.99 3.99 0 00.121-.411c4.235 1.492 8.439 4.399 12.552 8.707-.696.06-1.406.106-2.132.167-.091 0-.167 0-.257.015-.741.061-1.497.107-2.269.168l-.62.045c-.756.046-1.527.107-2.283.153-.106 0-.197 0-.303.015-.877.06-1.739.106-2.6.152-.137 0-.273 0-.41.015l-2.07.092c-.197 0-.41.015-.606.03-.74.03-1.452.046-2.147.061h-.272c.03-.076.06-.167.106-.244.06-.137.105-.274.166-.426.06-.137.12-.274.166-.426.06-.167.136-.335.212-.518v.03zm15.228 80.294l-1.27-.09c-.378-.031-.756-.062-1.15-.092-.59-.046-1.179-.092-1.784-.122a13.16 13.16 0 01-.771-.06 131.96 131.96 0 00-2.586-.168c-.227 0-.454-.03-.68-.046-.65-.046-1.286-.076-1.921-.107l-.938-.045c-.529-.03-1.058-.046-1.572-.076-.333 0-.666-.03-.998-.03l-1.407-.046c-.332 0-.665-.016-.983-.03h-.348l2.178-14.325 15.425-3.82v.137l.544 19.073c-.12 0-.257-.016-.393-.03-.438-.031-.877-.077-1.33-.107l-.016-.016zm-52.112-.883c-.469 0-.937.031-1.421.046-.333 0-.666.03-.998.03-.515.016-1.044.046-1.573.077-.318 0-.62.03-.938.045-.635.03-1.27.076-1.905.107-.227 0-.454.03-.68.046-.863.045-1.725.106-2.587.167-.257.015-.514.03-.77.061-.606.046-1.196.091-1.785.122-.393.03-.771.06-1.15.091l-1.27.091c-.454.03-.892.076-1.33.107-.122 0-.258.015-.394.03l.545-19.072v-.137l13.186 3.272 2.238.548.44 2.938 1.723 11.386h-.348c-.317 0-.65.015-.983.03v.016zM15.697 15.195l1.754.137c.273.015.545.045.832.06l1.996.137c.212 0 .424.03.635.046.893.061 1.8.122 2.692.168h.242l2.374.136c.257 0 .5.031.756.031.62.03 1.225.06 1.83.076.273 0 .53.015.802.03.59.031 1.164.046 1.724.061.227 0 .453 0 .68.016h.469L30.789 27.28l-.469 3.135-3.704.914-11.72 2.907-.091-3.47-.454-15.74c.182 0 .393.03.575.046.257.015.514.045.786.06l-.015.062zm52.294.913c.56 0 1.134-.03 1.724-.061.257 0 .529-.015.801-.03.605-.03 1.21-.046 1.83-.077.257 0 .499-.03.756-.03l2.374-.137h.242c.892-.06 1.8-.107 2.692-.168l.635-.045c.665-.046 1.346-.091 1.996-.137.288-.015.545-.046.832-.061.59-.046 1.18-.091 1.754-.137.272-.015.53-.046.787-.06.196 0 .393-.031.574-.046l-.438 15.739-.091 3.47-15.425-3.82-2.178-14.324h.47c.226 0 .453 0 .68-.015l-.015-.061zM81.298 41.74l-4.355 8.342-3.735-9.042-2.98-7.2 13.46 3.334-2.375 4.551-.015.015zM34.797 86.95l-1.407-9.286 13.006 5.16-11.146 7.094-.453-2.968zM16.15 68.912l6.23-11.964 6.73 16.226-13.46-3.334.485-.928h.015zm-.484-31.722l13.459-3.334-2.873 6.926-3.857 9.316-4.536-8.707-2.193-4.186v-.015zM35.25 17.113l11.146 7.093-10.873 4.308-2.133.852 1.014-6.698.846-5.555zm-2.586 57.05l-8.559-20.64 8.56-20.64 16.982-6.729h.015l12.43 4.917 4.568 1.811 8.56 20.64-3.207 7.718-5.353 12.923-3.977 1.584-13.02 5.16-1.664-.655-15.335-6.088zm31.591 4.171l1.679-.67-1.86 12.254-11.145-7.093 11.326-4.49zm-.181-61.222l1.86 12.254-13.005-5.16 8.74-5.571 2.405-1.538v.015zm6.14 56.077l5.277-12.74 1.452-3.501 5.686 10.914 1.044 1.994-13.46 3.333zM3.22 53.523l9.739-14.004.363-.518 7.576 14.522-7.576 14.521-7.864-11.31-2.238-3.211zM86 68.044l-1.134-2.176-6.442-12.345L86.001 39l6.73 9.681 3.372 4.84-10.102 14.522zm10.435-34.69V48.88l-3.19-4.582L88.3 37.19l.363-.137c.076-.03.136-.046.197-.076.15-.061.317-.122.484-.183.09-.03.166-.06.257-.106.181-.077.378-.153.574-.244.09-.03.167-.076.272-.107.288-.121.59-.258.908-.41.015 0 .03 0 .045-.016.68-.32 1.452-.685 2.314-1.126.076-.03.166-.091.257-.137l1.104-.579c.12-.06.242-.137.363-.197.317-.168.62-.335.968-.518h.03zm-.756-2.983c-.514.289-1.013.563-1.482.822a.708.708 0 01-.151.076c-.409.213-.802.426-1.18.624-.121.06-.227.121-.348.182-.302.153-.59.305-.862.442-.106.06-.227.106-.332.167-.273.122-.515.244-.757.366-.09.045-.181.091-.272.121-.287.137-.56.26-.816.366a107.081 107.081 0 01-.877.365.607.607 0 00-.106.046c-.197.076-.378.152-.545.213-.06.015-.12.045-.166.06a11.63 11.63 0 00-.393.138c-.03 0-.06.015-.091.03l.484-16.911c3.962 5.22 6.714 10.381 7.97 12.877-.03 0-.061.03-.076.046v-.03zM67.854 3.23l-.272.867-.136.41c-.106.366-.227.716-.348 1.066-.015.061-.045.122-.06.183-.136.411-.287.822-.424 1.218-.045.122-.09.228-.12.35-.106.274-.197.548-.288.822-.06.137-.106.29-.166.426-.091.228-.167.457-.257.67-.06.152-.106.29-.167.441-.075.198-.15.396-.227.579-.06.137-.105.289-.166.41-.076.183-.136.35-.212.518-.045.122-.105.244-.15.366-.107.258-.197.487-.288.715a.115.115 0 01-.03.06c-.03-.014-.06-.045-.076-.06-.227-.183-.469-.365-.726-.578-.106-.092-.227-.183-.348-.274a22.146 22.146 0 00-.62-.503 5.95 5.95 0 00-.453-.365c-.227-.183-.454-.38-.68-.578-.152-.122-.288-.244-.455-.381-.332-.29-.68-.594-1.043-.898-.06-.061-.121-.107-.181-.168-.424-.365-.847-.745-1.286-1.126l-.408-.365-.953-.868c-.151-.137-.318-.29-.469-.441-.317-.305-.65-.61-.968-.914a11.43 11.43 0 01-.438-.426c-.408-.396-.817-.807-1.225-1.202-.045-.046-.09-.092-.151-.137H67.9s-.046.152-.06.213l.014-.03zm-22.683-.168c-.439.441-.877.867-1.316 1.294-.136.121-.272.258-.408.38-.333.32-.68.64-1.013.96-.152.136-.288.273-.439.395l-1.028.944a6.074 6.074 0 00-.333.304c-.907.807-1.77 1.568-2.586 2.253-.106.091-.212.167-.302.259-.288.243-.575.487-.862.715-.106.091-.212.183-.318.259-.272.228-.53.426-.771.624l-.227.183c-.287.228-.544.441-.771.624-.015 0-.046.03-.06.045a14.23 14.23 0 01-.318-.791c-.03-.061-.06-.137-.091-.213-.09-.213-.166-.426-.257-.655-.045-.122-.106-.259-.151-.38l-.227-.594a3.904 3.904 0 01-.166-.441c-.076-.213-.167-.427-.242-.655-.061-.152-.106-.29-.167-.457-.09-.258-.196-.517-.287-.791-.046-.122-.09-.244-.136-.38a58.991 58.991 0 00-.424-1.203c-.03-.061-.045-.137-.06-.198-.121-.35-.227-.7-.348-1.05-.045-.137-.076-.26-.121-.396-.09-.304-.181-.594-.272-.898-.015-.076-.046-.137-.06-.213h13.82l-.06.06v.016zM11.75 25.637l.241 8.722-.136-.046c-.09-.03-.197-.06-.302-.107a4.203 4.203 0 00-.242-.09c-.152-.062-.318-.123-.484-.184a.45.45 0 01-.151-.06c-.242-.092-.5-.214-.787-.335-.03 0-.045-.015-.076-.03-.257-.107-.529-.244-.816-.366-.076-.03-.166-.076-.242-.107a32.25 32.25 0 01-.786-.38c-.091-.046-.197-.092-.303-.152-.287-.137-.59-.305-.907-.457-.091-.046-.197-.091-.288-.152-.408-.213-.816-.426-1.27-.67a.114.114 0 01-.06-.03c-.47-.26-.983-.533-1.497-.822-.03 0-.046-.03-.076-.046 1.24-2.496 4.007-7.641 7.97-12.878l.226 8.174-.015.016zM4.233 34.1c.318.167.605.32.908.472.15.076.302.152.438.228.393.198.756.38 1.104.548.03.015.076.03.106.046.771.38 1.452.685 2.057.959a.73.73 0 00.166.06c.242.107.469.199.68.29.061.03.121.045.197.076.197.076.378.152.56.213.06.015.12.046.181.06.136.047.272.092.378.138l-4.93 7.108-3.19 4.582V33.354c.302.168.574.304.846.457.167.091.348.182.514.274l-.015.015zm27.22 69.746l.273-.914c.045-.121.075-.258.12-.38.122-.396.258-.776.379-1.157.03-.106.076-.213.106-.335.106-.319.212-.639.332-.944l.182-.502c.076-.213.166-.441.242-.654.06-.168.12-.35.197-.518l.226-.594c.06-.152.121-.32.182-.472l.227-.593c.045-.122.105-.259.15-.38.107-.275.213-.533.303-.777 0-.03.03-.06.046-.091.12-.29.227-.563.332-.822.03.03.076.06.121.091.212.168.424.335.666.533.136.106.272.228.408.335l.53.441.514.426c.181.153.393.32.59.487.18.153.362.305.544.472.257.213.514.442.771.67.212.183.438.38.65.578.333.29.666.579 1.013.883.182.153.363.32.545.487l.816.731c.197.168.379.35.575.533.287.274.575.533.862.807.182.167.348.334.53.502.377.365.74.731 1.118 1.096l.227.228H31.41s.03-.122.046-.167zm22.866-.046c.378-.365.756-.746 1.119-1.111.166-.168.333-.32.514-.487.302-.289.59-.563.892-.837l.545-.503c.287-.258.56-.517.847-.776.166-.152.347-.32.514-.457.378-.335.74-.654 1.104-.974.166-.152.348-.289.514-.441.287-.244.575-.487.847-.716.181-.152.363-.304.529-.456.212-.168.408-.35.605-.503l.499-.41c.197-.153.378-.305.544-.457.136-.107.273-.229.409-.335.242-.198.453-.365.665-.533.03-.03.09-.06.121-.091.106.243.212.533.333.822 0 .03.015.06.03.076.106.243.212.517.318.791.045.122.09.244.15.366.076.198.152.395.243.608.06.153.106.305.166.457.076.198.151.411.242.624.06.153.121.32.181.472.091.228.167.472.258.716.06.152.105.304.166.456.12.366.257.731.378 1.111 0 .031.03.061.03.092.136.411.272.837.409 1.248.045.122.075.243.12.365.091.305.197.609.288.929.015.061.03.122.045.167H54.123s.152-.152.227-.213h-.03zm32.997-31.128s.076.015.106.03c.09.03.197.061.287.107.091.03.167.06.257.091.136.046.273.107.424.152.075.03.136.061.212.092.226.09.453.182.71.304.091.046.197.091.288.122.181.076.378.167.574.259.121.045.227.106.348.167.197.091.423.198.635.304.121.061.257.122.378.183.257.122.514.259.787.396.12.06.226.122.347.182.394.198.802.411 1.24.655h.016c.468.244.967.518 1.482.807 0 0 .03 0 .045.015-2.223 4.75-4.794 9.042-7.667 12.802l-.469-16.653v-.015z" fill="#860117"/></svg>