<svg width="115" height="113" fill="none" xmlns="http://www.w3.org/2000/svg"><path d="M113.629 27.647C110.408 11.391 98.628 4.343 98.023 3.993 93.607 1.893 89.19.827 84.866.827a26.59 26.59 0 00-8.09 1.263h-.015c-9.89 3.12-16.484 11.203-19.145 15.039C54.954 13.293 48.346 5.21 38.47 2.09h-.016C35.96 1.314 33.27.827 30.365.827c-4.325 0-8.74 1.065-13.278 3.227-.499.289-12.264 7.336-15.5 23.593C.74 31.91.574 36.37 1.057 41.012a1.567 1.567 0 00-.075 1.568c.09.152.197.274.318.38 1.814 12.908 8.574 27.232 20.264 42.804 6.472 8.615 34.086 25.496 35.265 26.211h.03c.076.046.152.077.242.107.03.015.06.03.106.046h.015c.121.03.242.045.363.045h.06c.122 0 .243-.015.364-.045h.015c.03 0 .06-.031.09-.046.076-.03.167-.061.243-.107h.03c1.18-.715 28.793-17.596 35.265-26.211 11.69-15.572 18.45-29.896 20.265-42.804.12-.106.241-.228.317-.38a1.532 1.532 0 00-.076-1.568c.484-4.643.303-9.118-.529-13.365zm-2.374 11.508l-7.592-4.247 5.112-12.893a35.548 35.548 0 011.86 6.241c.68 3.486.877 7.124.605 10.899h.015zm-1.89 10.716l-4.507-10.747 6.049 3.38a57.588 57.588 0 01-1.542 7.382v-.015zM73.313 98.596l-3.16-2.786 13.17-4.536c-3.054 2.405-6.562 4.932-9.995 7.306l-.015.016zm-41.42-7.322l13.171 4.536-3.16 2.786c-3.449-2.375-6.957-4.902-10.012-7.322zm-27.6-48.786l6.035-3.379-4.492 10.747a56.901 56.901 0 01-1.542-7.383v.015zm54.835-20.61l5.58 1.264-5.58 4.094v-5.358zm-3.04 5.358l-5.58-4.094 5.58-1.264v5.358zm.635 4.262l.091.046a.5.5 0 00.106.076c.03 0 .06 0 .09.015.197.092.394.152.606.152.211 0 .423-.06.62-.152.03 0 .06 0 .075-.015.046-.015.076-.06.121-.076l.09-.046 10.163-7.443L85.23 28.27v22.376l-11.553 18.13L57.63 81.988 41.6 68.776 30.047 50.647V28.271l16.53-4.216 10.177 7.443h-.03zm44.264 1.903l-12.748-7.246V11.68L106.703 19l-5.716 14.415V33.4zm-34.48 58.68l-6.729-7.916 12.098-9.97-5.383 17.886h.015zm-17.799 0l-5.383-17.886 12.098 9.97-6.715 7.916zm-21.73-44.752l-11.04-11.37 11.04-6.272v17.642zm1.769 7.017l8.438 13.243-12.99-2.633 4.552-10.61zm10.48 16.805l6.502 21.645-19.432-6.682-2.465-18.068 15.38 3.12.015-.015zM57.6 86.327l7.667 9.026-7.666 12.391-7.652-12.39 7.651-9.027zM75.974 71.15l15.38-3.12-2.465 18.068-19.432 6.682 6.502-21.645.015.015zm2.042-3.562l8.438-13.243 4.552 10.61-12.99 2.633zm10.223-37.902l11.024 6.271-11.024 11.37V29.688zm-3.04-17.322v12.71l-13.232-3.38 13.232-9.346v.016zm-55.182 12.71v-12.71L43.25 21.71l-13.233 3.38v-.015zm-3.04 1.08L14.23 33.401 8.513 18.986l18.465-7.322v14.492zm-13.005 12.18L26.69 51.439l-5.278 12.299-13.867-10 6.442-15.405h-.015zM47.71 97.56l5.127 8.295a406.568 406.568 0 01-8.333-5.464l3.206-2.816v-.015zm19.78 0l3.207 2.816a406.568 406.568 0 01-8.333 5.464l5.127-8.28zm26.314-33.823l-5.278-12.3 12.718-13.105 6.442 15.404-13.882 10zm11.19-48.74L90.023 9.062l4.733-3.151c.62.243 1.255.517 1.876.806.075.046 4.415 2.649 8.377 8.266l-.015.015zM91.021 4.708l-4.34 2.877-5.535-3.364a22.711 22.711 0 013.72-.32c2.027 0 4.098.274 6.155.792v.015zm-14.049.579l6.942 4.216L68.02 20.721l-7.924-1.78c2.374-3.38 8.257-10.625 16.876-13.654zM55.105 18.94l-7.924 1.781L31.287 9.503l6.942-4.216c8.59 3.029 14.487 10.259 16.876 13.638v.015zM34.055 4.236L28.52 7.6l-4.325-2.877c2.072-.517 4.128-.791 6.155-.791 1.285 0 2.51.122 3.705.32v-.016zM18.479 6.794c.665-.32 1.33-.594 1.996-.853l4.718 3.136-14.956 5.921c3.947-5.586 8.257-8.204 8.257-8.204h-.015zM4.55 28.332a34.941 34.941 0 011.875-6.302l5.111 12.878-7.591 4.247c-.257-3.76-.076-7.367.605-10.823zm4.34 30.17l11.735 8.463 2.072 15.176c-6.064-8.28-10.677-16.18-13.807-23.64zM92.503 82.14l2.072-15.176 11.75-8.463c-3.145 7.458-7.758 15.343-13.807 23.639h-.015z" fill="#860117"/></svg>