<svg width="139" height="91" fill="none" xmlns="http://www.w3.org/2000/svg"><path d="M.43 45.401v.169c.03 6.85 2.389 13.334 6.578 19.148.03.061.03.122.06.168.046.06.106.091.152.152 4.022 5.465 9.678 10.305 16.544 14.293.015.016.03.03.045.061a1.7 1.7 0 00.469.244c5.807 3.303 12.46 5.982 19.735 7.884h.015c7.924 2.07 16.559 3.227 25.602 3.227s17.678-1.156 25.602-3.227h.03c7.259-1.902 13.913-4.581 19.72-7.884a1.7 1.7 0 00.469-.244.209.209 0 00.045-.06c6.851-3.974 12.507-8.83 16.529-14.294.046-.06.106-.091.152-.152.03-.046.03-.107.06-.168 4.189-5.814 6.548-12.283 6.578-19.118v-.183c-.015-6.85-2.389-13.334-6.578-19.149-.03-.045-.03-.106-.06-.152-.046-.06-.091-.091-.137-.137-4.022-5.464-9.678-10.32-16.544-14.308-.015-.015-.03-.03-.045-.061a1.611 1.611 0 00-.484-.244c-5.701-3.242-12.204-5.875-19.311-7.778a1.708 1.708 0 00-.378-.091C87.338 1.41 78.688.253 69.63.253S51.907 1.41 43.982 3.496a1.527 1.527 0 00-.378.091c-7.107 1.888-13.61 4.536-19.311 7.778a1.452 1.452 0 00-.484.244c-.015.015-.03.046-.045.06-6.866 3.989-12.522 8.845-16.544 14.31-.046.045-.106.075-.136.136-.03.046-.03.107-.06.152C2.818 32.082.46 38.567.443 45.401H.43zm8.302-16.53l10.555 6.651-15.772 7.565c.438-5.023 2.253-9.818 5.217-14.232v.015zm34.66-22.24l3.917 7.14-17.753-1.964C33.79 9.737 38.432 8 43.392 6.63zm66.282 5.176L91.936 13.77l3.916-7.139c4.945 1.37 9.588 3.12 13.822 5.176zm26.056 31.296l-15.772-7.566 10.57-6.651c2.949 4.414 4.764 9.209 5.202 14.232v-.015zm-5.202 18.996l-10.555-6.652 15.772-7.565c-.438 5.023-2.253 9.818-5.202 14.233l-.015-.016zM95.852 84.34l-3.916-7.14 17.738 1.964c-4.234 2.07-8.877 3.805-13.822 5.19v-.015zm-66.281-5.176L47.309 77.2l-3.916 7.14c-4.946-1.37-9.588-3.121-13.822-5.191v.015zM3.515 47.867l15.772 7.565-10.555 6.652c-2.949-4.414-4.779-9.21-5.217-14.232v.015zM64.17 20.864L44.345 26.48l6.276-9.27 13.55 3.654zm24.468-3.669l6.276 9.27-19.826-5.617 13.55-3.653zm-13.565 52.91L94.9 64.49l-6.276 9.285-13.55-3.668zm-24.453 3.67l-6.276-9.286 19.826 5.617-13.55 3.668zM41.744 30.24l27.886-7.9 27.886 7.9 12.43 15.237-12.43 15.252-27.886 7.9-27.886-7.9-12.43-15.252 12.43-15.237zM27.68 48.156l8.696 10.655-11.977-4.338 3.281-6.317zm41.95 23.487l16.257 4.4-16.257 11.43-16.272-11.43 16.272-4.4zm41.935-23.487l3.296 6.317-11.977 4.338 8.696-10.655h-.015zm6.049 5.176l-4.084-7.84 4.084-7.839 16.347 7.84-16.347 7.839zm-6.049-10.534l-8.696-10.655 11.977 4.338-3.297 6.317h.016zM69.63 19.311l-16.272-4.384L69.63 3.496l16.257 11.431-16.257 4.384zM27.68 42.798l-3.28-6.317 11.977-4.338-8.696 10.655zm-6.034-5.16l4.084 7.84-4.084 7.838L5.3 45.477l16.347-7.839zM39.9 63.18l7.486 11.097-21.323 2.344-2.026-19.18L39.9 63.18zm10.586 14.415l14.351 10.092a97.84 97.84 0 01-18.48-2.588l4.129-7.504zm38.29 0l4.113 7.504c-5.807 1.4-12.022 2.283-18.48 2.588L88.76 77.595h.015zm3.085-3.318l7.5-11.097 15.849-5.739-2.026 19.18-21.323-2.344zm7.5-46.503l-7.485-11.081 21.323-2.344 2.026 19.18-15.848-5.74-.015-.015zM88.776 13.36L74.424 3.267c6.457.29 12.657 1.188 18.464 2.588l-4.113 7.504zm-38.29 0l-4.128-7.504c5.822-1.4 12.022-2.283 18.48-2.588L50.484 13.36zm-3.1 3.334L39.9 27.775l-15.863 5.739 2.026-19.18 21.323 2.345v.015zM10.47 64.459l10.6-6.683 1.876 17.703c-5.036-3.196-9.255-6.926-12.476-11.005v-.015zm105.842 11.005l1.875-17.703 10.601 6.682c-3.221 4.095-7.44 7.81-12.476 11.006v.015zm12.476-48.953l-10.601 6.682-1.875-17.703c5.036 3.197 9.255 6.926 12.476 11.006v.015zM22.947 15.49l-1.875 17.702-10.601-6.682c3.221-4.095 7.44-7.809 12.476-11.005v-.016z" fill="#860117"/></svg>