<svg width="119" height="111" fill="none" xmlns="http://www.w3.org/2000/svg"><path d="M118.356 102.855s.015-.092.03-.153v-.319c0-.061-.015-.107-.03-.168v-.106c-1.225-4.75-2.843-9.712-4.96-15.176-4.582-11.873-11.191-24.979-19.614-38.968 0 0 0-.015-.015-.03-8.272-13.73-16.786-25.786-22.472-33.473C65.049 6.014 60.694.748 60.664.702c-.03-.03-.06-.046-.09-.076a2.849 2.849 0 00-.228-.198c-.015 0-.015-.03-.03-.03h-.015c-.046-.031-.09-.031-.121-.061a.742.742 0 00-.257-.092c-.03 0-.06-.03-.09-.03h-.122c-.045 0-.076-.015-.12-.015-.046 0-.092.015-.122.015h-.12c-.031 0-.061.03-.092.03-.09.015-.166.061-.242.092a.302.302 0 00-.12.06h-.016s-.015.03-.03.03a.967.967 0 00-.227.199c-.03.03-.06.045-.09.076-.046.046-4.401 5.327-10.632 13.76-5.686 7.688-14.184 19.728-22.47 33.473v.015l-.016.015C16.99 61.954 10.397 75.06 5.815 86.933c-2.118 5.464-3.736 10.442-4.96 15.176v.106c0 .061-.03.107-.03.168v.319c0 .046 0 .107.014.153 0 .045.03.091.046.152a.553.553 0 00.075.167c0 .031.015.061.03.092 0 .015.016.03.03.045.031.046.061.076.092.122.03.031.06.076.09.107l.106.106c.03.031.076.061.121.092.03.03.076.06.106.091 0 0 .03 0 .045.015l.091.046c.03 0 .06.03.076.045.226.092 5.761 2.147 18.66 4.004 11.252 1.613 24.439 2.587 39.213 2.861h.06c14.76-.289 27.947-1.248 39.213-2.861 12.9-1.857 18.435-3.912 18.661-4.004.031 0 .046-.03.076-.045l.091-.046c.015 0 .03 0 .045-.015 0 0 .076-.061.106-.091.045-.031.076-.061.121-.092l.106-.106a.465.465 0 00.075-.107c.031-.03.061-.076.091-.122 0 0 .03-.03.03-.045 0-.031.016-.061.031-.092.03-.061.045-.106.075-.167.015-.046.031-.091.046-.152h-.091zm-21.202 2.268c-7.773 1.065-16.468 1.826-25.965 2.283l17.618-5.221 8.347-2.466v5.404zm16.726-8.083l-2.889-3.105-3.735-4.004 3.902-.745a150.39 150.39 0 012.737 7.854h-.015zM53.51 23.002c.107.121.197.228.303.35.288.335.575.654.847.974l.378.426c.272.305.53.594.771.868.106.106.197.213.288.32.272.304.53.593.756.852.03.045.075.076.106.122.272.304.529.578.726.806l-8.409 12.574-4.536 6.788 8.74-24.096.03.016zm8.742 3.79c.226-.259.468-.533.74-.822.107-.122.227-.244.333-.38.227-.244.454-.503.68-.777.167-.183.334-.365.5-.563.196-.229.408-.457.62-.7.166-.183.317-.366.484-.548l8.756 24.11L61.42 27.737c.212-.229.454-.503.726-.807.03-.046.075-.076.106-.122v-.015zm-44.778 61.13l14.26-17.961-8.967 18.92-3.236-.578-2.057-.366v-.015zM59.56 30.217l7.228 10.807 12.567 18.814 13.913 29.317-33.693 1.507-33.708-1.507L39.78 59.838l11.977-17.916 7.818-11.705h-.015zM24.506 92.093l9.98.441 8.953.396-20.536 2.938 1.603-3.745v-.03zm59.613.472l10.495-.472 1.603 3.775L75.68 92.93l8.424-.38.015.015zm12.234-3.684l-8.968-18.92 14.261 17.961-1.77.32-3.508.64h-.015zm-77.246 2.39l2.405.441-2.027 4.734L6.707 99.78l8.574-9.194 3.826.685zm78.5.426l2.511-.456 3.72-.67 8.575 9.194-12.779-3.334-2.026-4.734zm-6.32-42.164l9.572 32.681L81.82 58.24l-1.391-2.923-10.465-28.86 18.661 20.184 2.662 2.877v.015zM64.475 19.835c-.091.092-.167.198-.257.29-.318.38-.65.746-.953 1.096-.136.167-.288.335-.424.487-.302.335-.574.654-.862.974-.136.152-.272.32-.393.457-.317.35-.605.685-.892.989a9.359 9.359 0 01-.363.396c-.272.304-.53.593-.756.837-.212-.244-.484-.533-.756-.837-.121-.137-.227-.259-.363-.396-.272-.32-.575-.64-.892-.99-.121-.152-.273-.304-.394-.456-.272-.304-.559-.64-.861-.974-.137-.168-.288-.335-.424-.487l-.953-1.096c-.075-.092-.166-.198-.242-.29L59.605 6l4.915 13.837h-.045zM27.833 49.534l21.323-23.06-10.42 28.723-1.452 3.06-19.023 23.958 5.61-19.18 3.947-13.5h.015zm39.62-33.199c-.18.229-.362.442-.544.655l-.257.305-2.767-7.81c1.3 1.675 2.782 3.639 4.416 5.83-.273.336-.545.67-.832 1.005l-.015.015zm-14.97.96c-.076-.092-.167-.183-.242-.29-.212-.243-.409-.487-.62-.73-.273-.32-.53-.64-.787-.96A478.093 478.093 0 0155.25 9.47l-2.767 7.808v.016zM27.546 98.227l32.014-4.566 32.014 4.566-7.062 2.101-24.952 7.382-24.952-7.382-7.062-2.1zm80.315-11.462l-2.51.472-7.985-27.292c5.157 9.315 9.406 18.16 12.703 26.394l-2.193.411-.015.015zm-39.772-66.64c.197-.229.378-.457.575-.685.332-.396.65-.777.983-1.172.136-.168.287-.335.438-.518a446.968 446.968 0 0112.703 18.266l-14.7-15.891zm-19.054-2.36c.136.168.287.335.438.518l.983 1.172c.197.228.378.457.575.685l-14.7 15.891a462.777 462.777 0 0112.704-18.266zm-27.266 42.18l-7.985 27.292-2.51-.472-2.193-.41c3.282-8.236 7.546-17.08 12.703-26.395l-.015-.015zM7.962 89.185l3.902.746L5.24 97.04a149.622 149.622 0 012.737-7.854h-.015zm11.115 10.458v5.054c-4.854-.746-8.56-1.507-11.19-2.147l11.19-2.907zm2.888.06l8.348 2.467 17.618 5.221c-9.482-.457-18.178-1.203-25.966-2.283v-5.404zm78.078 4.994v-5.054l11.19 2.907c-2.646.624-6.336 1.401-11.19 2.147z" fill="#860117"/></svg>