<svg width="110" height="115" fill="none" xmlns="http://www.w3.org/2000/svg"><path d="M110 16.866a.783.783 0 00-.045-.26c-.03-.106-.091-.212-.151-.319-.031-.045-.031-.106-.076-.152-.015-.03-.045-.03-.061-.06-.03-.031-.03-.062-.06-.092L94.969.472s-.106-.076-.167-.107c-.045-.045-.076-.091-.136-.137-.03-.015-.076-.015-.106-.03a1.603 1.603 0 00-.287-.107c-.106-.03-.197-.06-.303-.06-.03 0-.075-.031-.105-.031H16.649s-.075.015-.106.03a.971.971 0 00-.302.061c-.09.03-.182.061-.272.107a.47.47 0 00-.121.03c-.06.03-.091.092-.152.137-.045.046-.105.061-.15.107L.891 15.982s-.03.062-.06.092c-.016.03-.046.046-.077.061-.03.046-.045.107-.075.167-.045.092-.106.183-.136.29-.03.091-.046.182-.06.289 0 .06-.03.122-.03.183V98.88c0 .442.18.853.498 1.142l14.23 12.984c-.196.654.03 1.37.62 1.75.242.168.53.244.802.244.227 0 .469-.061.68-.167.212.106.424.167.65.167h74.554c.227 0 .454-.076.65-.167.212.106.44.167.681.167.272 0 .56-.076.802-.244.59-.38.816-1.096.62-1.75l14.23-12.984c.317-.29.499-.716.499-1.142V17.064s-.03-.137-.03-.198h.06zM3.523 20.123l6.639 4.978v64.814l-6.64 4.977V20.123zM16.407 4.05l4.855 7.9-9.754 10.336-7.214-5.404L16.392 4.064l.015-.015zm89.813 12.817l-7.214 5.403-9.754-10.335 4.855-7.9 12.097 12.816.016.016zm-8.892 40.626v30.124L91.702 83.4V31.585l5.626-4.216v30.123zm-42.071 43.824H25.919l2.994-4.856h52.702l2.995 4.856H55.256zM13.2 57.492V27.37l5.61 4.2V83.4l-5.61 4.217V57.492zm42.056-43.808h29.337L81.6 18.54H28.9l-2.995-4.856h29.353zm33.405 43.808v23.64l-3.417-2.558V36.426l3.417-2.573v23.64zM55.257 93.37H30.804l3.19-5.19h42.51l3.19 5.19H55.243h.015zm-33.39-35.878V33.853l3.417 2.572v42.15l-3.418 2.557v-23.64zm33.39-35.862H79.71l-3.19 5.19H34.01l-3.191-5.19h24.453-.015zm21.428 63.46H33.86l-5.52-6.333v-42.53l5.52-6.332h42.826l5.52 6.333v42.53l-5.52 6.331zm7.244-51.526l-4.688-5.358 3.297-5.373 5.504 7.64-4.128 3.09h.015zm-52.656-5.358l-4.688 5.358-4.129-3.09 5.505-7.641 3.297 5.373h.015zM26.6 81.436l4.688 5.358-3.297 5.358-5.505-7.641 4.129-3.09-.015.015zm52.656 5.358l4.688-5.358 4.129 3.09-5.505 7.641-3.297-5.358-.015-.015zm11.251-58.147l-6.215-8.63 3.312-5.374 8.937 9.483-6.034 4.521zm-64.27-8.63l-6.215 8.63-6.034-4.536 8.937-9.468 3.312 5.373zm-6.215 66.336l6.215 8.615-3.312 5.373-8.937-9.483 6.034-4.52v.015zm64.27 8.63l6.215-8.63 6.034 4.52-8.937 9.484-3.312-5.373zM86.5 10.595H24.014L19.386 3.09h71.726l-4.627 7.504h.015zM11.508 92.731l9.754 10.335-4.462 7.246L3.84 98.5l7.668-5.754v-.015zm12.506 11.675H86.5l4.627 7.504H19.402l4.627-7.504h-.015zm65.253-1.34l9.754-10.335 7.667 5.753-12.96 11.812-4.46-7.245v.015zm11.1-13.151V25.1l6.639-4.978v74.77l-6.639-4.978z" fill="#860117"/></svg>