<svg width="158" height="202" fill="none" xmlns="http://www.w3.org/2000/svg"><g fill="#000"><path d="M74.23 202c-3.175-.297-6.68-1.418-8.596-4.164-1.333-1.912-1.771-4.119-1.938-6.416.063-5.16-.338-10.575.062-15.705.231-2.97.8-4.849 3.068-6.855 3.793-3.354 11.822-3.535 16.31-1.696 4.088 1.676 5.992 4.826 6.204 9.213.025.513-.024 1.036-.003 1.549h-7.342c.018-2.271-.308-5.062-2.535-6.209-1.38-.711-3.714-.769-5.182-.322-2.167.657-3.048 2.325-3.238 4.5.045 5.028-.314 10.28.062 15.281.228 3.047 1.224 5.174 4.49 5.663 3.954.593 6.365-1.354 6.584-5.36l.062-1.089-.002-1.792h-6.08v-4.396c0-.006.085-.091.09-.091h13.332v17.403h-3.761l-1.384-2.971c-1.146 1.13-2.4 2.085-3.91 2.669-1.165.45-2.255.632-3.49.729-.05.004-.084.057-.094.057H74.23l-.001.002zm61.348-35v33.942l-8 .058v-34h8zM33.15 167l6.428 21.211L46.182 167h10.396v33.997h-6.87v-24.864L41.506 201l-3.995-.01-8.003-24.739v24.658a.672.672 0 01-.089.088h-6.752a.678.678 0 01-.089-.088V167h10.574-.001zm63.428.003l12.444-.003 1.754.121c4.403.365 8.949 2.586 10.013 7.246.531 2.328.284 5.077-.899 7.171-1.067 1.888-3.019 3.295-5.046 3.967v.087L121.578 201h-7.406l-6.207-13.964h-4.244V201h-7.143v-33.997zm7.144 15.143c3.297-.15 8.609.927 9.691-3.357.375-1.483.289-3.593-.591-4.887-1.05-1.543-2.81-1.887-4.563-2.009h-4.537v10.253zM50.706.268c.224-.058.246.051.375.148 1.55 1.166 3.03 2.77 4.44 4.107 2.618 2.48 5.12 5.076 7.82 7.472L47.997 27.386c-1.296 1.56-1.7 3.287-.867 5.188.445 1.018 1.278 1.568 1.995 2.35 6.572 7.18 14.077 14.215 20.989 21.148 2.896 2.904 5.845 5.757 8.733 8.67l.207.058 30.801-30.69c1.35-1.558 1.91-3.158 1.124-5.155-.556-1.413-1.581-2.085-2.56-3.136-3.93-4.218-8.64-9.195-12.937-13.003-.28-.248-.603-.525-.981-.597L106.917 0c.448-.028 1.951 1.898 2.331 2.287 10.146 10.414 21.287 20.264 30.937 31.142 8.32 9.38 14.511 20.881 17.158 33.167.331 1.54 1.163 4.604.224 5.905a122961.55 122961.55 0 00-67.125 67.232L79.207 151l-.36-.211L.882 72.953C-.45 71.642.047 69.989.33 68.363c1.205-6.923 4.06-13.961 7.454-20.09C18.018 29.774 35.686 16.934 49.805 1.54c.316-.346.743-.853.9-1.273zm-14.3 38.992L4.95 70.484h31.456V39.26zM70.57 70.484L39.116 39.26v31.224H70.57zm48.465-31.224l-.534.143c-9.409 9.763-19.397 19.025-28.738 28.843-.612.644-1.402 1.273-1.96 1.939-.125.151-.286.192-.224.448h30.779c.077 0 .678-.46.678-.523V39.26h-.001zm3.085 31.373h30.855c.026 0 .242-.15.152-.299-.295-.49-1.167-1.022-1.585-1.415-9.19-8.695-18.083-17.736-27.243-26.444-.909-.864-1.734-1.823-2.707-2.617v30.254c0 .17.35.493.528.523v-.002zM36.406 103.8V74.593c0-.038.128-.148.132-.293.006-.242-.273-1.126-.51-1.126H4.95L36.406 103.8zM70.42 73.172H39.34l-.383 1.115c.43 9.53-.55 19.522 0 28.996.027.474.233.924.16 1.413l31.16-30.994.144-.53h-.001zm48.615 30.628V73.546c0-.026-.35-.374-.377-.374H87.804c-.027 0-.243.15-.152.3.266.44 1.77 1.782 2.254 2.244 4.818 4.61 9.676 9.243 14.458 13.886 4.369 4.242 8.686 8.834 13.163 12.93.459.419 1.05.821 1.509 1.268zm34.015-30.628h-31.079c-.027 0-.377.348-.377.374v30.925c0 .017.219.301.301.151 2.191-2.208 4.435-4.365 6.627-6.571 6.492-6.535 13.027-13.088 19.484-19.653 1.507-1.532 3.477-3.175 4.82-4.777.125-.151.286-.193.224-.449zm-75.406 7.321L46.34 111.717h31.305V80.493zm34.166 31.374L80.355 81.091l.005 21.297c-.123 2.545-.361 5.526-.164 8.066.032.409.164 1.413.683 1.413h30.932zm-34.542 2.54H46.564l-.226.373c10.283 10.115 20.713 20.06 31.004 30.18l.452.223v-30.254c0-.169-.35-.493-.527-.523l.002.001zm3.086 30.925c4.32-4.107 8.512-8.326 12.789-12.478 4.61-4.475 9.325-8.881 13.928-13.364 1.57-1.529 3.092-3.11 4.665-4.636l-.147-.305-30.949.069c-.34.326-.411.75-.445 1.202-.167 2.17.143 4.542 0 6.736l.164 1.031-.005 21.745z"/><path d="M82.704 21.42l6.955-2.842-2.812 7.031c3.97 1.248 7.935 2.533 11.92 3.741.21.063.262-.1.22.3l-12.14 3.742 2.812 7.031-6.955-2.842L78.929 50l-3.777-12.42-6.955 2.843 2.812-7.03c-3.332-1.056-6.713-2-10.032-3.104-.53-.177-1.302-.37-1.77-.606-.184-.093-.242.002-.187-.331l11.989-3.744-2.812-7.031 6.955 2.842L78.93 9l3.775 12.42z"/></g></svg>