<svg width="152" height="204" fill="none" xmlns="http://www.w3.org/2000/svg"><path fill-rule="evenodd" clip-rule="evenodd" d="M102.851 38.56l3.698-1.962-1.104-.773-2.401 1.436.497-2.79-1.104-.745-.58 4.143-1.49 2.099 1.021.718 1.463-2.127zm-19.844-8.039l.883.166.773 2.68 1.408.248-.939-2.928c.166-.027.304-.083.47-.138a1.55 1.55 0 00.413-.276c.138-.11.249-.249.332-.415.082-.165.165-.359.193-.58a1.825 1.825 0 000-.773c-.056-.249-.138-.47-.304-.663a2.006 2.006 0 00-.552-.525 2.252 2.252 0 00-.828-.304l-2.428-.414-1.076 6.215 1.214.22.441-2.485v-.028zm.47-2.651l1.13.193c.277.055.47.166.608.332a.74.74 0 01.138.635c-.055.248-.165.442-.331.552-.193.11-.414.166-.69.11l-1.16-.193.277-1.657.028.028zm27.736 14.308l-3.036-.166-.165 3.038 3.035.166.166-3.038zM32.617 72.423l-1.103-.028-.083 2.9-1.518-.027.055-2.486-1.076-.055-.083 2.486-1.49-.028.083-2.928-1.076-.027-.139 4.143 6.293.193.138-4.143zm48.49 26.737l-.552 1.492h9.41l-.303-1.492h-8.555zm14.13-62.175l2.235-4.696 1.49.69.47-.994-4.085-1.933-.47.994 1.491.69-2.235 4.724 1.104.525zm6.536 74.218l.69.857 2.263-1.851.966 1.188-1.932 1.574.69.856 1.932-1.574.938 1.132-2.263 1.851.69.856 3.229-2.624-4.001-4.889-3.202 2.624zm13.274-54.552l.552 1.298 2.483.25-1.545 1.988.552 1.298 2.208-3.066 3.56.497-.552-1.298-2.291-.22 1.435-1.796-.552-1.298-2.125 2.9-3.725-.553z" fill="#000"/><path fill-rule="evenodd" clip-rule="evenodd" d="M105.943 54.027l-.055-.276h-59.94l-.055.276s-1.987 11.767.69 25.025c2.484 12.264 9.604 28.45 29.307 35.991l.11.055.139-.055c19.98-7.817 27.017-24.003 29.39-36.184 2.594-13.203.414-24.694.386-24.804l.028-.028zm-23.016 23.34s.249.083.276.221c0 .138.194.304.276.47.056.11.138.138.11.22 0 .056-.22.25-.303.277-.055 0-.138-.083-.303-.055-.166.055-.525 0-.607.11-.056.055-.304.138-.442.166l-.331-1.409c.414-.055.828-.11 1.242-.138 0 .055.055.138.082.166v-.028zm-21.608.525c0 .47-.855.69-.469.994.331.277.083.553-.193.884h-1.683c0-.47-.055-.939-.055-1.408a38.475 38.475 0 012.373-.967c0 .166.055.442.055.497h-.028zm34.055.304c.027.166.22.359.248.552.055.387-.055.801-.083.912v.083h-2.87c-.055-.304-.138-.636-.193-.94-.083-.386-.193-.8-.276-1.187.193.027.552.138.607.276.055.11-.083.249 0 .304.083.055.193.11.304.166.11.055 0 .193.11.248.166.083.166 0 .331.11.331.25.414-.33.497-.386.22-.138.386.138.662.138.166 0 .387-.387.607-.552.083-.056.138-.083.194-.083.055 0-.083.193-.056.359h-.082zm-28.7.386c-.194-.11-.608 0-.829-.055l-.607-.304c-.055-.027 0-.055.028-.082.055-.028.138-.083.165-.083.028 0-.082-.221-.138-.249-.055-.055-.11-.138-.165-.22a7.259 7.259 0 01-.138-.222c-.138-.248 0-.414-.359-.442-.083 0-.47.636-.745.636-.028-.387-.083-.746-.11-1.105a82.923 82.923 0 014.663-1.437c.194 1.299.442 2.68.718 4.06-.69.194-1.38.387-2.07.608.055-.11.138-.303.138-.359 0-.165-.497-.69-.552-.718v-.028zm-10.156-2.596h-.194c-.055 0-.082.028-.11.055v.249c0 .083-.331.608-.386.663-.028.028-.249.055-.414 0 .083-.442.165-.856.276-1.27l.58-.332c.358.166.248.552.248.58v.055zm-.58-1.188a21.05 21.05 0 01.662-1.85c.166.166.414.331.36.607-.056.221-.222.332-.277.525a1.632 1.632 0 01-.165.387c-.194.11-.387.22-.58.304v.027zm2.898-3.48c-.193.138-.055.194-.359.36-.028 0-.442.552-.359.69.083.138-.193.773-.027.856.165.083-.11.304-.11.36 0 .027-.387 0-.47-.167-.22-.359.083-.69.055-.8-.083-.194-.386-.387-.58-.415.084-.138.139-.304.222-.442.662-.387 1.38-.773 2.18-1.16a6.66 6.66 0 00-.221.69c-.083 0-.166-.055-.276 0l-.055.028zm1.407-1.132c.856-.387 1.794-.746 2.787-1.133.11-.027.194-.055.304-.11a26.844 26.844 0 00-.359 2.762 2.42 2.42 0 01-.414.138c-.138-.11-.165-.36-.22-.414-.11-.139-.304-.056-.36-.083-.082-.056-.082-.194-.192-.194-.056 0-.442-.11-.608-.22-.11-.083-.69-.387-.8-.387a.58.58 0 00-.303.11 8.96 8.96 0 00.165-.47zm-.027 6.85s-.194.083-.276.11c0-.359.082-.22.138-.47 0-.055-.304-.165-.414-.22-.414-.304-.249-.774-.138-.912.11-.138.828-.773.607-.884-.442-.193.358-1.077.634-.966.276.11.608-.553.911-.442.331.11.193.138.276.359.055.138-.055.331-.083.47-.027.137-.276.193-.22.441.055.249-.663 1.105-.718 1.16-.138.083-.166.636.166.47.276-.138.414.248.469.331-.47.194-.938.36-1.408.553h.056zm5.27-8.287s.11.249.11.36c0 .11.139.193.166.193.056 0 .083-.028.138-.056.166-.055.194.056.387.056.027 0 .138.027.22.083.111.055.083.22 0 .303a.469.469 0 01-.165.166c-.386.083-.773-.165-.662.58a.56.56 0 00.165.387c-.69.193-1.242.387-2.152.69.083-.994.193-1.933.386-2.79.662-.22 1.132-.386 1.573-.496-.11.193-.22.414-.193.552l.028-.028zm28.839 7.127c-.386-.083-.58.11-.8.303-.442-.027-.911-.082-1.408-.11v-.028c.166-.442 0-.966.193-1.436.055-.11.276-.331.47-.304.082 0 .11.194.248.249.055 0 .083.138.11.248 0 .056.138-.027.249 0 .138.056.33.194.441.11.193-.137.386-.303.525-.358h.027c.166.414.331.856.497 1.27-.193 0-.442.083-.58.056h.028zM89.33 78.25s.138.028.276 0c.055 0 .083-.193.083-.193-.138-.083-.497-.138-.773-.277-.055-.027-.028-.138-.11-.165-.304-.11-.608-.138-.69-.249-.166-.193-.11-.47.138-.497.193 0 .69.166 1.02.276h.553c.082.083.055.553.193.58.248.055.276.276.414.47.055.083.22.055.33.166.166.165.332.497.415.607.193.276.469.194.635.11.055.222.082.443.138.636h-2.594s-.083-.221-.056-.304c0-.055.083-.055.11-.11.056-.138.166-.276.194-.47 0-.138-.248-.497-.22-.608l-.056.028zm-4.664-5.662c.359.497.331.497-.138.746-.193.082-.662.386-.662.635 0 .22.248.331-.055.442-.138.027-.58.442-.69.193-.083-.193.083-.442 0-.608-.055-.082-.221-.082-.304-.055-.027 0-.083-.027-.083-.083-.165-.414-1.103-.773-1.38-.994-.11-.083-.082-.193-.055-.304a45.787 45.787 0 013.45-.304v.055c0 .139-.138.194-.083.304v-.027zm-10.652 1.105c.303 1.242.607 2.596.938 4.005a77.987 77.987 0 00-5.022 1.187c-.276-1.436-.525-2.79-.718-4.06 1.6-.414 3.229-.801 4.802-1.132zm-.828-8.95s.055-.165.055-.248c0-.138-.193-.304-.248-.387 0-.055-.11-.083-.221-.138.745-.138 1.49-.249 2.235-.36.387.415.773.94 1.132 1.52a39.457 39.457 0 00-3.063.525c-.056-.221-.138-.553.082-.884l.028-.028zm12.363 2.79c.083-.221.193-.332.138-.718 0 0 .083-.11.138-.194.276.277.525.58.773.912h-1.076.027zm-2.65 1.464s-.303.276-.358.497c-.165.525.47 1.077.414 1.105v.055c.055.083.138.304.249.415.11.11.22.138.303.138 0 0 .055 0 .083-.028h.11c.055 0 .11 0 .221-.055.083-.055.166-.138.248-.221.083.193.166.386.276.608-1.6.11-2.318.193-3.56.33-.027-.11-.138-.248-.248-.33-.055-.056-.47.193-.607.33a49.64 49.64 0 00-1.187-3.12 72.361 72.361 0 014.002-.387c.055.083.082.138.138.221-.194.249 0 .249-.083.442zm-13.825 4.696c.276-.056.304.138.58-.36.11-.193 0-.386.055-.662.027-.221.386-1.105.165-1.271-.248-.193.525-.635.718-.608.165 0 .165-.083.193-.193 0 0 .055-.276.083-.442a61.403 61.403 0 012.18-.47c.248.995.524 2.1.828 3.287-2.236.47-2.843.636-4.747 1.105a2.1 2.1 0 00-.055-.414h.028l-.028.028zm4.36-6.823s.083-.248 0-.304c-.055-.027-.165-.165-.248-.276a49.492 49.492 0 013.34-.552c.413.718.827 1.519 1.213 2.403a69.901 69.901 0 00-4.194.718c-.11-.442-.249-.884-.36-1.326.194-.221.36-.442.222-.663h.027zm8.997.801a84.403 84.403 0 00-3.891.387c-.414-.884-.8-1.685-1.215-2.403a91.82 91.82 0 013.367-.332c.607.663 1.187 1.464 1.739 2.348zm-1.435-3.038a14.823 14.823 0 00-1.573-1.437c.662 0 1.324-.027 1.931 0 .773.387 1.518.83 2.236 1.382-.828 0-1.684 0-2.594.055zm-.91.055a64.137 64.137 0 00-3.147.332 11.353 11.353 0 00-1.104-1.52c1.049-.138 1.463-.165 2.512-.248.579.386 1.159.884 1.738 1.436zm-7.231 4.309l-1.49.331c.358-.939.938-.994 1.241-1.215.083.276.166.58.249.912v-.028zm2.263.304c-.138.165-.36.359-.47.414-.055.028-.303.525-.193.69.11.139.194.332.332.443-.083.082.496-.304.469-.139-.083.36.469-.138.496-.165.332-.304.69-.718.994-.995.11-.082-.166-.303-.414-.47a32.632 32.632 0 011.739-.248 48.21 48.21 0 011.214 3.232c-1.518.22-3.091.47-4.692.773-.276-1.16-.552-2.265-.828-3.287.525-.11.966-.193 1.325-.248h.028zm11.232 1.326c.165-.194-.138-.387-.194-.525-.027-.11.442-.663.249-.829-.055-.055-.663-.331-.663-.387 0 0-.055-.47-.11-.635h1.242c0 .083 0 .194-.055.304-.083.331.524.36.552.36h.193c.165.248.303.469.469.717-.249.083-.414.774-.414.967 0 .801.276.276.303.552a.44.44 0 01-.138.277c-.662 0-1.324 0-1.987.055.056-.414.663-.221.69-.608 0-.055-.303-.083-.193-.22l.056-.028zm2.98-2.238s.028 0 .055.028c.028 0 .386.8.359.967-.055.165-.635.082-.938.11-.194-.304-.387-.608-.58-.884 0 0 .055-.027.083-.055.138-.083.331-.166.497-.193.165 0 .33.027.524.055v-.028zm-2.153-1.243c-.276-.359-.58-.69-.883-1.022.276-.248.856-.525 1.021-.276.194.249-.165 1.022-.138 1.298zm-3.228-1.574s0 .276.055.387c.165.414-.083.138-.193.69-.11.525.248.249-.194.69a.989.989 0 00-.165.304h-.193a22.215 22.215 0 00-1.684-2.347 25.77 25.77 0 012.512-.028c.082.138-.11.221-.138.331v-.027zm-5.41-2.983c-.275-.166-.551-.304-.827-.442h.358c.58.083 1.132.22 1.712.386-.36 0-.718 0-1.215.056h-.027zm-3.256.304c-.303-.277-.496-.47-.69-.608.47-.055.911-.083 1.325-.11.47.11.938.276 1.435.497-.662.055-1.352.138-2.042.22h-.028zm4.222 9.86c.11.332.221.663.304.995a.656.656 0 00-.193.083c-.138 0-.083.497-.083.525-.055.11 0 .276.028.414.055.138.22.027.248.083.138.193-.331.745.055.773a.733.733 0 00.387-.166l.33 1.243c-1.655.221-3.31.498-4.939.829-.359-1.575-.662-2.845-.938-4.005a94.618 94.618 0 014.746-.801l.055.027zm1.905 3.867c-.194-.718-.36-1.38-.552-2.044.717-.248.469.58.772.332.056-.055.414.193 0 .359-.248.11.083.304.166.359.248.166.552-.967 1.187-.442.055.055 0 .11-.056.194-.055.082-.027.11-.138.193-.138.083-.165.11-.275.138-.056 0 .027.304.055.331.055.139-.304.387-.525.553-.22 0-.413.055-.607.083l-.027-.056zm6.126 2.293c-.083-.414-.193-.801-.276-1.215.193.22.386.386.69.414.138 0 .248.028.359.055.138 0 .248.166.386.221.166.055.331.304.387.442 0 .055.082.387-.083.47-.138.082-.387.082-.58.082-.11 0-.248.083-.248.277v.11h-.47c-.054-.276-.11-.58-.192-.856h.027zm7.672-4.198c.497.082 1.573 0 1.932.856.303.718-.966.304-1.49.276-.139-.387-.276-.773-.442-1.132zM85.025 64.08s-.387-.11-.47-.027c0 .055-.055.22-.027.248 0 0-.028 0-.138.083-.69-.525-1.076-.8-1.573-1.105.359.028.718.083 1.049.138.386.166.745.332 1.131.525.055.056.083.138.028.166v-.028zm-11.48-1.657c.303.138.58.331.883.58-.525.083-1.076.166-1.6.276 0 0-.056 0-.056-.055 0 0-.083-.083-.166-.083-.165 0-.358.055-.469 0-.11 0-.082-.055-.055-.138.055-.138.386 0 .414-.359v-.11c.331-.056.69-.11 1.021-.166l.028.055zM68.356 74.3c-2.207.635-2.814.829-4.608 1.409 0-.166 0-.332-.028-.497.497-.11.387-.58.387-.608 0-.138.165-.552.165-.552.359-.056.166-.801.359-.967.193-.138-.028-.525-.193-.47a.556.556 0 00-.304.249c-.055.11-.248.055-.248 0s-.083-.249-.193-.304v-.359a90.129 90.129 0 012.842-.912c-.11.25-.138.608-.083.774.028.138.194.083.249.193.055.083 0 .36.055.442.083.138.276.332.276.36.166.193.276.524.414.552.083 0 .22.027.276.11.027.055.248.055.303.11.11.111.194.166.276.139 0 .11.028.22.055.304v.027zm-2.152-7.016c-.662.194-1.131.36-1.904.608.055-.22.138-.442.193-.635 1.076-.608 1.6.027 1.711.027zm-3.946.139c.248 0 .524.359.662.386.166 0 .497-.304.773-.331-.083.22-.138.47-.193.718l-.138.055c-.166.055-.332.11-.497.194-.8.303-1.546.58-2.236.883a12.4 12.4 0 011.27-2.126.21.21 0 00.138-.056c.055.166.083.332.22.332v-.055zm-2.815.966c.386-.248.828-.47 1.297-.69-.276.414-.497.856-.718 1.326-.11-.11-.276-.221-.358-.221a2.5 2.5 0 01-.387-.166 1.56 1.56 0 01.194-.221l-.028-.028zm-.773 1.078s.91-.139.966-.028c0 .028.083.083.138.083 0 .055-.055.083-.055.138-.663.304-1.325.608-1.904.939.22-.36.469-.718.717-1.077.055 0 .11-.055.138-.083v.028zM55 73.252c.524-.442.745-.608 1.131-.857a18.972 18.972 0 00-1.048 2.9c-.249.166-.442.277-.608.387.028-.11.056-.248 0-.359a1.306 1.306 0 01-.248-.525c.193-.386.442-.856.8-1.519L55 73.252zm3.173 5.441c0 .36 0 .718.028 1.077h-1.214s-.11-.276-.11-.442c.413-.22.855-.414 1.296-.635zm11.922 1.077s0-.083-.028-.138a96.239 96.239 0 015.05-1.188c.084.442.194.884.304 1.326h-5.326zm6.099 0c-.083-.386-.166-.745-.248-1.132l-.083-.36c2.346-.441 3.035-.552 4.967-.828.166.663.331 1.353.497 2.127 0 .055.028.11.028.193h-5.161zm8.224-.165c.165-.139.138-.332.276-.553.11-.166.386-.304.386-.442 0-.083-.165-.276-.165-.414 0-.138.137-.221.22-.276.221-.139.552.055.662-.056.221-.193.332-.58.553-.718.165.608.303 1.243.441 1.879.055.248.11.497.166.718h-2.622s.028-.11.11-.166l-.027.028zm-10.294 30.742c-12.335-5.579-19.593-14.004-23.043-26.82h23.043v26.82zm3.753 0V83.554H100.7c-3.091 10.275-9.632 20.578-22.823 26.793zm23.816-30.577h-.083c-3.339-11.02-13.577-19.086-25.692-19.086S53.565 68.722 50.226 79.77h-.028v-.11c-1.849-9.309-1.463-17.871-1.049-22.318h53.62c.58 5.303.884 13.645-1.076 22.428zm20.477-17.4c-.221 0-.442.055-.663.11-.22.056-.469.11-.745.166-.276.055-.496.138-.745.193a4.253 4.253 0 00-.634.221c-.194.083-.359.194-.525.304-.165.11-.276.276-.414.47-.165.276-.276.552-.303.856-.056.304-.028.635.055.967.055.276.165.525.303.773a2.134 2.134 0 001.242.94c.276.082.58.11.911.082l-.304-1.215c-.276 0-.496-.055-.69-.194-.22-.11-.358-.331-.413-.635-.028-.166-.056-.331 0-.47 0-.138.082-.276.165-.386.055-.083.111-.138.166-.193.055-.056.165-.11.276-.166.11-.055.276-.11.469-.166.193-.055.441-.11.717-.193.304-.083.525-.138.745-.166.194-.028.359-.055.497-.083h.331c.083 0 .166.055.249.083.11.055.22.138.303.276a.95.95 0 01.193.415c.083.303.056.552-.082.745a1.81 1.81 0 01-.525.498l.304 1.215a3.12 3.12 0 00.773-.497c.22-.194.358-.415.496-.636.111-.248.193-.497.193-.773s0-.552-.082-.829a2.858 2.858 0 00-.387-.884 2.429 2.429 0 00-1.269-.856c-.193-.027-.386-.055-.607-.027m-8.472 44.58c-.083-.193-.194-.359-.304-.524a3.897 3.897 0 00-.469-.498c-.166-.165-.359-.331-.552-.524a4.518 4.518 0 00-.58-.498 4.98 4.98 0 00-.524-.386 1.966 1.966 0 00-.552-.249 1.559 1.559 0 00-.635-.055c-.303 0-.607.083-.883.221a2.47 2.47 0 00-.745.58 3.836 3.836 0 00-.469.69 2.48 2.48 0 00-.193.774c0 .276.028.525.138.801.083.276.248.525.469.801l.828-.939a1.598 1.598 0 01-.248-.691c0-.248.082-.469.276-.718.11-.138.248-.221.358-.276a1.089 1.089 0 01.663-.055c.082 0 .193.055.303.138.111.055.249.165.414.304.166.138.331.303.58.497.22.193.414.359.552.497.138.138.248.248.331.359a1 1 0 01.165.276.8.8 0 01.056.249c0 .138 0 .276-.056.414-.055.138-.11.276-.22.414-.221.221-.442.359-.663.359-.248 0-.469-.055-.717-.165l-.828.939c.276.166.552.304.828.359.276.055.552.083.8.028.276-.028.497-.139.745-.277.221-.138.442-.303.635-.524.221-.249.386-.525.497-.829.11-.276.138-.58.11-.912 0-.221-.055-.442-.138-.607M114.853 54l-1.573-2.459 1.297-.828 1.325 2.099.938-.58-1.324-2.127 1.241-.773 1.573 2.458.911-.58-2.235-3.508-5.326 3.37 2.235 3.508.938-.58zM94.96 120.097l2.926.829.828-2.928-2.925-.829-.828 2.928zM91.923 28.81l-1.187-.388-1.931 5.994 1.159.387 1.96-5.994zM43.411 45.05l-.055-3.038-3.036.055.056 3.038 3.035-.055zm7.089-4.28l-3.753-5.056-.993.746 3.78 5.055.967-.746zm3.73-2.404l-1.85-3.425 4.03 2.21.965-.525-3.008-5.524-1.076.58 1.849 3.397-4.057-2.21-.966.525 3.008 5.552 1.104-.58zM39.905 51.707l-.938-.58-1.518 2.514-1.325-.801 1.297-2.127-.938-.58-1.297 2.154-1.27-.773L35.436 49l-.939-.552-2.152 3.563 5.409 3.26 2.152-3.564z" fill="#000"/><path fill-rule="evenodd" clip-rule="evenodd" d="M141.708 81.428c3.174-1.022 10.266-3.26 10.266-3.26l-10.073-3.977s6.789-3.038 9.852-4.447l-10.431-2.79c2.842-1.823 9.3-5.414 9.3-5.414l-10.68-1.767 8.527-6.464-10.707-.47 7.865-7.374-10.735.718c2.152-2.514 4.774-5.69 6.982-8.148l-10.597 1.85 5.988-8.921-10.293 3.065c1.462-2.983 4.967-9.584 4.967-9.584l-9.466 3.701 3.45-9.53-9.328 5.194c.856-3.232 2.042-7.1 2.843-10.358l-8.804 6.242s1.132-7.458 1.629-10.634l-8.059 7.154.552-10.773-.552.636c-2.235 2.43-4.387 5.165-6.705 7.347L96.864 2.79l-6.292 8.7c-.58-3.286-1.325-7.181-1.766-10.523l-5.41 9.28L80.39.027l-4.223 9.779L72.055 0l-3.119 10.248L63.748.883 61.816 11.38l-6.181-8.728-.828 10.69-7.093-7.983.36 10.744-8.004-7.098 1.573 10.579-8.638-6.298 2.622 10.44s-6.347-3.645-9.245-5.303l3.809 10.082-9.88-4.198 4.857 9.502-10.21-3.094 5.96 8.894-10.57-1.934 6.845 8.315-10.625-.857 7.672 7.54-10.68.277 8.5 6.657-10.597 1.491 9.217 5.607c-3.174.967-7.23 1.823-10.404 2.735l9.686 4.42C6.844 75.156 0 77.836 0 77.836s7.23 2.182 10.238 3.425L.635 86.178s7.34 1.547 10.597 2.238c-2.732 1.85-9.024 5.966-9.024 5.966l10.79 1.05c-2.484 2.182-8.307 6.96-8.307 6.96l10.846-.083-7.506 7.789 10.735-1.353c-2.015 2.652-6.596 8.59-6.596 8.59l10.597-2.43-5.63 9.225 10.294-3.591-4.609 9.723s6.817-3.453 9.77-4.668l-3.45 10.275 9.08-5.773-2.18 10.579 8.388-6.629-1.048 10.634 7.754-7.789-.082 10.911s4.774-6.05 6.871-8.453c.47 3.315 1.325 10.773 1.325 10.773l5.74-9.226 2.318 10.607.47-.829 4.497-9.06L75.863 152l3.753-10.027 4.664 9.585 2.511-10.607s4.03 6.381 5.713 9.254l1.352-10.856s4.58 5.994 6.733 8.563l.304-10.579 7.423 7.347-.883-10.551 8.252 6.657c-.663-3.039-2.208-10.717-2.208-10.717 2.76 1.906 6.347 4.088 9.134 5.911l-3.339-10.331 9.714 4.779s-3.256-6.878-4.526-9.861c2.981 1.077 7.175 2.569 10.156 3.756.359.277-5.299-9.336-5.299-9.336l10.321 2.542-6.374-8.673 10.569 1.408-7.479-7.899 10.846.248-8.251-7.043 10.762-.967-8.941-6.104 10.542-2.072-9.576-5.11-.028.11zm7.506-3.702l-14.101-.525 6.347-2.54c2.594.994 5.16 2.016 7.754 3.038v.027zm-16.695 13.452l5.215 4.005-6.65.47s1.021-2.984 1.435-4.503v.028zm-2.539-37.98l6.623.111c-1.656 1.52-3.229 3.038-5.023 4.392l-1.6-4.502zm2.097 5.94l6.54.994c-1.904 1.298-3.449 2.596-5.409 3.784l-1.159-4.779h.028zm1.794 25.687l5.767 3.618-6.706 1.078.939-4.696zm-.276-19.28l6.319 1.63-5.602 3.066-.717-4.696zm.883 12.9l6.209 2.9c-2.125.69-4.415 1.215-6.568 1.823l.359-4.696v-.027zm-.083-6.491l6.458 2.237c-2.015.884-4.195 1.74-6.292 2.596l-.138-4.806-.028-.027zm14.543-2.32l-14.046 1.076 5.988-3.203 8.031 2.099.027.027zm-1.214-7.928l-13.77 2.541 5.546-3.922 8.224 1.381zm-1.932-7.845l-13.384 4.089 5.161-4.475 8.223.359v.027zm-2.787-7.595L130.062 51.9l4.637-5.137s5.574-.332 8.306-.525v.028zm-13.688 5.413l-2.235-4.28c2.263-.25 6.623-.636 6.623-.636s-2.897 3.204-4.388 4.916zm9.825-12.54l-12.364 7.127 3.947-5.663c2.732-.47 5.685-.966 8.389-1.464h.028zm-12.915 6.823l-2.677-4.199 6.319-.966-3.615 5.165h-.027zm8.665-13.618l-11.37 8.232 3.45-5.911c2.649-.774 5.298-1.52 7.892-2.32h.028zm-12.143 8.232h-.165l-2.953-3.674 6.513-2.237-3.395 5.91zm6.927-14.474l-10.266 9.502 2.843-6.546 7.423-2.928v-.028zm-11.094 9.668l-3.504-3.343c2.014-1.05 4.167-2.044 6.292-2.955l-2.788 6.298zm-1.821-11.16l7.23-4.143-9.327 10.635 2.125-6.519-.028.028zm-2.843 6.657l-3.835-2.9 5.795-3.618c-.469 2.071-1.352 4.309-1.96 6.518zm-3.035-10.938l6.651-4.75-8.003 11.573 1.352-6.823zm-2.07 7.016c-1.352-.69-2.704-1.712-4.139-2.43l5.409-4.282a670.385 670.385 0 00-1.297 6.712h.027zm-4.277-10.386l6.154-5.579-6.734 12.374.58-6.795zm-6.568-2.9l5.491-6.16-5.353 13.038c-.028-2.072-.194-4.558-.11-6.878h-.028zm5.85 3.15l-.579 6.877-4.333-2.017 4.912-4.86zm-6.568-2.735l.11 6.933-4.47-1.52v-.22l4.333-5.221.027.028zm-1.463-9.115L91.87 18.865l-.883-6.877 4.801-6.63zm-5.408 7.153l.938 6.878-4.802-.994 3.864-5.884zm-2.457-8.645l-2.4 13.562-1.601-6.519 4.001-7.043zM83.26 11.38l1.738 6.712-4.857-.525 3.091-6.215.028.028zm-3.312-8.7l-.883 14.114-2.456-6.298 3.34-7.817zm-3.78 8.59s1.683 4.005 2.4 6.242l-4.83-.083 2.43-6.16zm-4.333-8.535l.717 14.059-3.035-6.105 2.318-7.954zm-2.788 8.645l3.091 6.215-4.857.525 1.739-6.712.027-.028zm-5.215-7.762s1.518 9.253 2.235 13.894l-3.67-5.718 1.435-8.176zm-1.822 8.84l3.754 5.855-4.692 1.077.938-6.933zm-6.07-7.044l3.752 13.451-4.305-5.054.552-8.397zm-.69 9.363l4.25 4.972c-1.464.58-3.064 1.05-4.554 1.658l.303-6.63zm-1.684 6.27l-4.885-4.502-.303-8.507 5.215 13.037-.027-.028zm-.083.967l-4.443 2.017-.442-6.602 4.885 4.585zM17.717 76.511c-2.153-.718-4.305-1.712-6.458-2.541 2.098-.856 4.36-1.52 6.568-2.265-.276 1.491-.082 3.287-.11 4.778v.028zm.359 6.491l-6.651-1.961s4.195-1.961 6.292-2.9l.359 4.861zm-6.237-16.214l6.706-1.519-.58 4.751-6.154-3.26.028.028zm6.43 17.733l.938 4.806-6.816-1.187 5.878-3.619zm-5.05-24.748c2.263-.332 4.608-.498 6.926-.719l-1.241 4.696-5.685-3.977zm6.292 31.101c.524 1.436.966 3.066 1.518 4.585l-6.872-.359 5.354-4.226zm.966-33.173l-4.637-4.42 6.486-.276-1.85 4.723v-.027zM42.36 20.716l5.491 4.033-4.36 2.596-1.131-6.629zm.027 7.402l-3.946 3.066-1.877-6.27 5.85 3.204h-.027zm-1.352-16.6l6.65 12.347-5.436-4.033-1.214-8.341v.027zm-6.789 4.254l7.948 11.573-5.795-3.314-2.153-8.26zM27.9 20.688l9.19 10.745-6.1-2.735-3.09-7.982v-.028zm9.438 11.463l-3.615 3.48-2.566-6.076 6.181 2.596zm-15.233-5.8c3.394 3.287 6.927 6.325 10.348 9.612l-6.347-1.989-3.974-7.65-.027.027zm10.542 10.413c-1.021 1.27-2.07 2.541-3.091 3.784l-3.119-5.635 6.237 1.851h-.027zm-15.675-4.199c3.753 2.846 7.589 5.58 11.314 8.48l-6.595-1.436-4.72-7.044zm11.646 9.198l-2.595 4.033-.055.138-3.89-5.58 6.567 1.41h-.027zm-15.979-2.375l12.143 7.099-6.623-.498-5.52-6.601zm12.501 7.79l-2.18 4.336-4.387-4.834 6.567.47v.027zm-16.033-.58c4.305 1.877 8.39 3.81 12.694 5.662l-6.65.276-6.044-5.939zm-2.98 7.54l13.439 4.281-6.816.718-6.624-5zm-1.96 7.789l13.798 2.79-6.788 1.436-7.01-4.226zm-1.076 8.065l14.019 1.243-6.513 2.182-7.506-3.397v-.028zm-.221 8.01l14.102-.276-6.154 2.818-7.948-2.541zm.745 8.066l13.854-1.906-5.685 3.563-8.169-1.657zm1.546 7.955l13.632-3.397-5.353 4.115-8.252-.718h-.027zm2.428 7.651l13.136-4.861-4.83 4.695-8.306.166zm13.936-4.696l1.96 4.503-6.872.276 4.912-4.751v-.028zm-10.68 12.098l12.502-6.297-4.278 5.22-8.224 1.077zm13.274-6.159c.856 1.298 1.656 2.734 2.457 4.116l-6.817 1.132 4.333-5.276.027.028zm-9.19 13.092l11.647-7.595-3.698 5.745-7.948 1.878v-.028zm12.53-7.513l2.897 3.84-6.54 1.74 3.643-5.552v-.028zm-7.81 14.032l10.928-8.894-3.036 6.077-7.92 2.817h.028zm11.7-8.922l3.257 3.481-6.154 2.43 2.898-5.883v-.028zm1.27 11.077l-7.451 3.563 9.824-9.889-2.373 6.326zm3.174-6.353l3.615 3.093-5.933 2.983 2.318-6.104v.028zm2.373 10.993l-6.954 4.392 8.665-11.076-1.711 6.656v.028zm2.511-6.878l3.891 2.735-5.546 3.729 1.655-6.491v.027zm3.753 10.745l-6.623 5.165 7.451-12.043-.828 6.85v.028zm1.518-7.044l4.195 2.265-5.133 4.475.938-6.712v-.028zm-.993 15.993l6.016-12.65.083 6.574-6.127 6.104.028-.028zm7.23 3.094l4.83-13.369c.275 2.293.772 6.602.772 6.602l-5.602 6.739v.028zm-.497-9.612l.055-6.519 4.333 1.823-4.388 4.696zm6.734 2.182l-.745-6.298 4.553 1.298-3.808 5zm1.656 9.639l3.228-13.865 1.38 6.463-4.608 7.375v.027zm5.133-8.093l-1.325-6.187 4.636.774-3.311 5.413zm2.87 9.364l1.683-14.059 1.932 6.518-3.615 7.541zm4.194-8.121l-2.042-6.408 4.857.276-2.815 6.132zm4.002 8.535l.055-14.114 2.732 6.463-2.787 7.651zm3.256-8.424s-1.71-4.226-2.787-6.243c1.6-.082 4.802-.276 4.802-.276l-2.015 6.519zm4.747 7.955l-1.518-14.004 3.367 5.883-1.877 8.121h.028zm2.318-8.784l-3.394-5.855 4.69-.801-1.296 6.656zm5.63 7.458l-3.036-13.811 4.057 5.58-1.021 8.231zm1.407-8.949l-4.057-5.525 4.554-1.298-.47 6.823h-.027zm6.347 6.656l-4.498-13.313 4.691 5.138-.22 8.175h.027zm-4.195-14.004l4.333-1.795.111 6.602-4.444-4.779v-.028zm-19.759-.248c-30.218 0-54.724-24.528-54.724-54.773 0-30.245 24.506-54.773 54.724-54.773 30.219 0 54.724 24.528 54.724 54.773 0 30.245-24.505 54.773-54.724 54.773zm59.195-28.864l-6.568-.332 1.904-4.309 4.664 4.641zm-3.201 6.27l-6.513-.884c.993-1.658 2.318-4.143 2.318-4.143l4.195 5.027zm-3.836 6.021l-6.513-1.657 2.815-3.84 3.698 5.497zm-4.498 5.718l-6.21-2.541 3.119-3.564 3.091 6.105zm-7.589-1.409l2.456 6.353-5.934-3.259 3.478-3.094zm-4.913 4.143l1.711 6.574-5.547-3.839 3.836-2.735zm-4.415 10.275l-5.05-4.419 4.139-2.237.939 6.656h-.028zm.773 9.364L101.5 129.24l5.299 4.723.745 8.37v-.028zm6.954-4.143l-7.285-12.043 5.491 3.839 1.794 8.204zm6.651-4.585l-8.61-11.215 6.016 3.343 2.594 7.872zm6.126-5.331l-9.797-10.137 6.265 2.596 3.505 7.541h.027zm5.492-5.939l-10.928-9.06 6.678 1.74 4.25 7.32zm4.664-6.519l-11.784-7.761 6.734.911 5.05 6.823v.027zm3.974-7.015l-12.502-6.408 6.624.276 5.878 6.132zm3.256-7.403l-13.164-4.972 6.679-.552 6.485 5.524zm2.539-7.596l-13.826-3.618 6.872-1.077 6.954 4.695zm-12.612-10.026l6.596-1.85 7.368 3.866-13.991-2.016h.027z" fill="#000"/><path fill-rule="evenodd" clip-rule="evenodd" d="M59.826 30.052l1.656 4.944 1.187-.387-1.684-4.944 1.573-.525-.359-1.05-4.277 1.465.331 1.022 1.573-.525zM29.97 60.16c.138.137.303.275.469.386.193.11.386.22.607.304.22.082.442.193.718.276.248.11.496.193.717.276.221.083.442.138.635.193.193.056.414.056.607.056s.414-.056.607-.166c.304-.138.552-.304.745-.525.221-.22.387-.497.497-.8.138-.305.193-.636.193-.94a2.135 2.135 0 00-.8-1.685 4.109 4.109 0 00-.994-.552l-.855-.332-.883 2.21.966.387.414-1.078.22.083c.166.056.276.138.414.221.11.083.194.221.276.332.055.138.11.276.11.442 0 .165-.027.331-.082.497a.938.938 0 01-.248.387c-.11.11-.221.165-.332.22a.788.788 0 01-.248.056c-.083 0-.193 0-.331-.028-.138 0-.276-.083-.47-.138-.192-.055-.413-.166-.717-.276-.276-.11-.496-.194-.69-.276-.193-.083-.33-.166-.441-.221-.11-.083-.193-.139-.249-.194a.603.603 0 01-.138-.22c-.055-.111-.082-.25-.11-.387 0-.139 0-.304.083-.47.11-.304.276-.497.497-.608.22-.11.469-.138.772-.11l.47-1.16a2.61 2.61 0 00-.8-.056 2.446 2.446 0 00-.774.194c-.248.11-.469.276-.69.497-.22.221-.386.497-.524.829a2.386 2.386 0 00-.193.939c0 .304.083.608.193.884.083.193.193.386.331.525m32.813-13.093c.303.635.745 1.188 1.297 1.574a5.646 5.646 0 001.876.912c.69.193 1.463.304 2.263.304.552 0 1.132-.056 1.656-.138a4.69 4.69 0 001.407-.442.469.469 0 00.166-.166c0-.055.028-.166.028-.36v-3.949s-.056-.166-.166-.166H68.77c-.303 0-.358.11-.358.221 0 .056 0 .194.276.194.22 0 .386 0 .469.027.166.028.303.11.359.194.055.083.11.248.11.442v2.844c0 .193-.055.331-.193.386-.11.055-.276.083-.442.11h-.607c-.635 0-1.242-.11-1.766-.358a4.029 4.029 0 01-1.38-.967c-.386-.414-.662-.912-.883-1.492a5.781 5.781 0 01-.303-1.85c0-.746.11-1.354.303-1.85.193-.498.47-.885.828-1.189.386-.303.773-.524 1.16-.607.937-.221 2.124-.194 2.98.166.496.193.855.414 1.048.662.138.139.221.304.276.442.055.166.083.332.138.553.028.193.138.22.22.22.111 0 .222-.054.222-.358v-1.216c0-.276.027-.525.055-.69v-.138c0-.056 0-.221-.248-.249-.139 0-.276 0-.47-.055-.193 0-.358-.055-.524-.083-.055 0-.193-.028-.331-.055-.166 0-.359-.055-.58-.083-.248 0-.469-.055-.69-.055a9.76 9.76 0 00-2.428.138 5.202 5.202 0 00-1.656.663 4.618 4.618 0 00-1.6 1.657c-.414.718-.635 1.574-.635 2.541 0 .856.165 1.602.469 2.237m15.26 2.21h-.303a.731.731 0 01-.303-.166 1.04 1.04 0 01-.138-.386c0-.249-.028-.553-.055-.967v-5.966c0-.276 0-.525.027-.718 0-.221.055-.36.11-.47.056-.083.139-.138.276-.166.139 0 .277-.027.36-.027.248 0 .275-.138.275-.221 0-.194-.276-.194-.358-.194h-3.174c-.11 0-.386 0-.386.194 0 .055.027.22.275.22.166 0 .304 0 .442.056.22.055.331.248.359.635 0 .221.027.442.027.718v5.939c0 .414 0 .718-.055.967-.027.331-.138.525-.303.552a2.414 2.414 0 01-.442.055c-.248 0-.276.11-.276.194 0 .083.055.22.331.22h3.533c.276 0 .33-.11.33-.22 0-.083-.027-.194-.275-.194h-.304m1.877.36h2.842c.249 0 .304-.139.304-.222 0-.055-.028-.193-.276-.193h-.193c-.166 0-.276 0-.332-.083a.314.314 0 01-.082-.22c0-.194.055-.443.193-.746l.717-1.851h2.87l.994 2.707s.055.193.11.331.11.249.249.249h2.704c.166-.028.193-.138.193-.194 0-.055 0-.193-.248-.193-.193 0-.359 0-.524-.055-.166-.028-.332-.138-.497-.304-.166-.166-.359-.525-.552-1.022l-2.76-6.85a12.354 12.354 0 00-.386-.912c-.138-.303-.248-.47-.386-.47-.056 0-.138 0-.221.139a1.99 1.99 0 00-.193.414l-3.175 7.93c-.138.359-.276.635-.442.8-.137.166-.33.25-.579.277h-.386c-.221 0-.249.138-.249.193 0 .083.056.221.331.221l-.027.055zm4.58-7.155l1.132 3.066h-2.29l1.159-3.066zm-13.248-9.721l-.193-1.105-2.87.497-.248-1.52 2.456-.413-.193-1.078-2.456.415-.249-1.464 2.898-.497-.193-1.078-4.085.69 1.022 6.216 4.111-.663zM33.42 67.258c.056-.331.083-.635.028-.94a1.573 1.573 0 00-.303-.8 1.635 1.635 0 00-.47-.497 2.918 2.918 0 00-.58-.304 3.78 3.78 0 00-.661-.194l-.69-.138-.69-.138a2.722 2.722 0 00-.662-.083c-.221 0-.415 0-.635.056a2.11 2.11 0 00-.635.276 2.22 2.22 0 00-.607.635 2.265 2.265 0 00-.331.884l-.442 2.237 6.182 1.243.441-2.237h.055zm-1.103-.11l-.194.91-4.029-.8.194-.912c.027-.22.11-.386.193-.524a.763.763 0 01.358-.304.445.445 0 01.249-.083h.331c.138 0 .276 0 .442.055.165.028.386.055.607.11.469.084.828.194 1.076.277.248.083.414.193.552.331.11.138.166.276.22.442a1.82 1.82 0 010 .553v-.056zm41.395-36.985c0 .248.027.47.082.662.028.221.11.387.193.58.083.194.221.36.387.498.22.22.469.386.773.497.275.11.607.166.938.166.33 0 .662-.056.938-.166.304-.11.58-.304.828-.58.22-.221.359-.497.442-.801.082-.304.137-.69.137-1.133v-.911l-2.4.027v1.022h1.159v.249c0 .166 0 .304-.056.47a.787.787 0 01-.22.386c-.11.11-.221.194-.36.276a2.219 2.219 0 01-.496.111c-.165 0-.331 0-.469-.083a.753.753 0 01-.331-.248.601.601 0 01-.138-.221c-.028-.083-.083-.194-.11-.304 0-.138-.056-.304-.056-.497v-1.492c0-.193 0-.36.055-.497 0-.138.056-.249.083-.304.028-.083.083-.138.138-.221a.753.753 0 01.331-.249c.138-.055.276-.082.47-.11.303 0 .58.083.745.22.193.167.303.388.386.691h1.242a3.617 3.617 0 00-.249-.773c-.11-.249-.275-.442-.469-.635-.193-.194-.441-.332-.717-.442a2.622 2.622 0 00-.966-.166c-.359 0-.662.055-.938.193-.276.11-.525.304-.745.525a1.618 1.618 0 00-.36.525 2.295 2.295 0 00-.165.58c-.027.221-.055.442-.055.663v1.547m44.124 57.922l1.077.248.634-2.79 5.078 1.16.276-1.187-6.126-1.436-.939 4.005zm-85.274-8.784l-1.076.138.358 2.845-5.16.663.138 1.215 6.264-.8-.524-4.061zm4.638 21.351c.193-.11.387-.248.552-.386a2.07 2.07 0 00.414-.442c.11-.166.193-.36.248-.58.083-.304.11-.608.083-.912-.027-.304-.138-.608-.303-.911a2.398 2.398 0 00-.635-.746 2.154 2.154 0 00-.8-.387c-.221-.055-.414-.083-.635-.055-.193 0-.386.055-.607.138-.193.083-.414.166-.607.276-.221.11-.442.221-.663.36a13.53 13.53 0 00-.662.386 3.95 3.95 0 00-.552.387 2.076 2.076 0 00-.414.442c-.11.165-.193.359-.248.58-.083.303-.11.607-.083.911.028.304.138.608.304.912a2.389 2.389 0 001.462 1.16c.221.055.414.083.635.055.193 0 .386-.055.607-.138.193-.083.386-.166.607-.276.221-.111.442-.221.663-.359.248-.138.441-.249.662-.387m-1.96-.359a2.622 2.622 0 01-.441.193c-.138.055-.22.055-.331.083h-.249a1.174 1.174 0 01-.386-.166.988.988 0 01-.303-.359.915.915 0 01-.139-.442c0-.138 0-.276.056-.414 0-.083.055-.166.11-.249.055-.082.138-.165.22-.248.111-.083.25-.194.415-.276.165-.11.386-.221.635-.387.248-.138.469-.276.662-.36.165-.082.331-.165.441-.193.138-.055.221-.055.331-.055h.276c.139.028.249.083.387.166.11.083.22.193.303.36a.917.917 0 01.138.441c0 .138 0 .276-.055.414a.555.555 0 01-.11.221 1.765 1.765 0 01-.221.249c-.11.083-.248.193-.414.276-.165.11-.386.221-.635.387-.248.138-.496.276-.662.359m-.246-9.53l-4.001.083 3.284-2.292-.332-.995-6.512.387.414 1.215 4.084-.303-3.422 2.347.276.857 4.14-.138-3.478 2.154.414 1.243 5.464-3.59-.33-.968zm80.415 3.619l1.021.414 1.104-2.707 1.408.58-.939 2.32 1.021.415.939-2.32 1.379.552-1.103 2.707 1.021.414 1.545-3.84-5.823-2.374-1.573 3.839zm-1.877 3.508l3.284 2.044-4.609.083-.579.939 5.354 3.314.634-1.022-3.256-2.044 4.581-.083.607-.939-5.381-3.342-.635 1.05zm-70.319 6.795l-2.98 2.458 1.38-4.392-.718-.856-4.83 4.032.773.967 2.98-2.486-1.38 4.392.718.856 4.83-4.032-.773-.939zm38.583 18.064c-.166-.221-.386-.359-.607-.47a1.44 1.44 0 00.469-.525c.11-.22.165-.497.138-.828 0-.276-.083-.497-.193-.718a1.366 1.366 0 00-.442-.525 1.691 1.691 0 00-.635-.304 2.375 2.375 0 00-.772-.055c-.276 0-.497.083-.745.193a2.24 2.24 0 00-.58.414 1.5 1.5 0 00-.359.608c-.082.221-.11.497-.11.774l1.159-.111c0-.249.055-.442.193-.58a.857.857 0 01.525-.249c.193 0 .386.028.552.166.165.111.248.304.275.58 0 .221-.027.415-.138.58-.11.166-.303.249-.58.276h-.165l.083 1.022h.166c.276-.027.496 0 .662.166.166.138.248.359.276.608 0 .276-.028.497-.193.663-.138.165-.331.248-.58.276h-.33c-.111 0-.194-.055-.277-.138a.648.648 0 01-.22-.249 1.363 1.363 0 01-.111-.359l-1.16.111c.028.331.111.607.25.828.137.221.303.415.496.525.193.138.414.221.662.276.249.056.497.056.746.028.275 0 .524-.083.745-.193a1.49 1.49 0 00.607-.415 1.63 1.63 0 00.386-.635c.083-.249.11-.525.083-.829-.028-.386-.138-.69-.304-.884m4.635-4.502l-.994 1.381.304 1.216.993-1.409 1.215 4.944 1.103-.276-1.517-6.132-1.104.276zm-38.801-6.795l-1.242.221.58-3.231-1.104-.939-.718 4.364-3.201.58 1.16.967 3.449-.691-1.739 2.127.938.773 4.03-4.834-.939-.801-1.214 1.464zm26.3 8.48a1.969 1.969 0 00-.607-.414c-.22-.111-.497-.166-.773-.193-.276 0-.524 0-.772.082-.249.056-.47.194-.663.332a2.408 2.408 0 00-.469.58c-.11.249-.193.497-.22.829 0 .303 0 .552.082.801.083.248.193.442.331.607.138.166.304.304.497.415.193.11.386.165.607.165h.249c.082 0 .165 0 .248-.055l-1.49 2.514 1.242.082 1.517-2.624c.166-.276.304-.552.442-.801.11-.276.193-.552.22-.828 0-.304 0-.608-.082-.829-.083-.248-.193-.469-.359-.635m-.69 1.381c0 .304-.11.525-.276.663a.772.772 0 01-.607.193.732.732 0 01-.58-.276c-.137-.166-.192-.414-.165-.691 0-.303.11-.524.276-.662a.772.772 0 01.607-.194c.249 0 .414.111.552.276.138.166.193.415.166.691m-8.996-2.21l-.276 1.216 1.49-.801-1.131 4.944 1.131.248 1.408-6.159-1.132-.249-1.49.801zm-10.432-1.16l.966 2.873 2.87-.94-.939-2.872-2.897.939zm65.379-36.543l1.104.083.193-2.845 5.216.36.082-1.216-6.292-.47-.303 4.088zm-29.008 7.375l.635-.746-.469-.386 1.27-1.492-1.325-1.105-1.27 1.492-.469-.415-.552.663c.663.497 1.518 1.105 2.18 1.989zm29.339-14.225l1.076-.083-.221-2.928 1.518-.11.193 2.486 1.104-.11-.193-2.487 1.463-.11.248 2.928 1.104-.11-.359-4.144-6.264.525.331 4.143zM62.31 98.221l-3.174-6.601H56.68v.304s3.56 3.977 5.657 6.297m23.374-5.193l1.325-1.574.607.525.442-.525c-.221-.773-.884-1.298-1.877-2.044-.055-.055-.11-.083-.166-.138l-.662.773.607.498-1.324 1.574 1.048.884v.027z" fill="#000"/><path fill-rule="evenodd" clip-rule="evenodd" d="M85.297 96.592l-.718 1.933h3.809l-.332-1.74c1.27-.635 2.263-2.237 2.457-4.226v-.967c0-.083 0-.165-.028-.276v-.166a.983.983 0 00-.055-.276v-.11a1.349 1.349 0 00-.11-.304v-.055a1.022 1.022 0 00-.139-.304v-.028a2.985 2.985 0 00-.165-.304c-.055-.11-.138-.193-.193-.304-.607-.856-1.435-1.464-2.125-1.988 0 0-.028-.028-.055-.028a8.296 8.296 0 01-.525-.414l-1.076 1.353c.165.11.331.249.497.387.055.027.082.083.138.11.8.58 1.573 1.16 1.959 1.989.083.166.138.332.166.497 0 .083.027.166.055.249v.718c-.166 1.685-1.16 3.149-2.705 3.01l-3.78-3.176-.911 1.078 3.891 3.286-.055.056zm-28.641-6.16v.221h6.072l-3.422-2.21-2.65 1.99zm9.242.221h6.182v-.22l-2.566-1.852-3.616 2.072zm-2.122 8.563V91.62h-3.698l3.698 7.596zm2.4-.912l5.905-6.408v-.276h-2.373l-3.532 6.684zm-1.574-6.712v7.817l4.139-7.817h-4.14z" fill="#000"/><path fill-rule="evenodd" clip-rule="evenodd" d="M84.169 96.537l-2.76-2.32-.745 1.601 2.042 1.713 1.463-.995zM60.516 88.14l3.725 2.403 4.195-2.404h-7.92zm63.156 84.23c-1.6 0-3.07-1.26-3.07-3.08s1.42-3.08 3.07-3.08 3.09 1.34 3.09 3.09c0 1.64-1.3 3.07-3.09 3.07zm0-5.89c-1.52 0-2.8 1.23-2.8 2.81s1.26 2.81 2.81 2.81c1.62 0 2.81-1.3 2.81-2.8 0-1.5-1.2-2.81-2.81-2.81l-.01-.01zm-.03.84c.4 0 .68 0 .91.09.42.15.62.54.62.9 0 .27-.1.74-.79.92.37.16.48.38.55.82.08.54.12.81.29 1.16h-.79c-.11-.23-.13-.37-.21-.85-.13-.82-.18-.9-1.16-.9v1.75h-.69v-3.89h1.27zm-.57 1.58h.57c.29 0 .83 0 .83-.54 0-.16-.07-.36-.28-.46-.14-.05-.26-.05-.68-.05h-.44v1.05zm-7.031 32.9c-.19-.54-.41-1.25-.41-1.25l-3.75-9.95c-.09-.22-.25-.33-.47-.33h-10.46c-.19 0-.33.12-.42.37l-2.53 6.71c-.47 1.16-.7 2.11-.7 2.86 0 .47.14.83.42 1.08.28.25.77.37 1.46.37h.7c.47 0 .7.13.7.38 0 .31-.27.47-.8.47-.59 0-1.44-.02-2.53-.05-1.22-.06-2.03-.09-2.44-.09-.09 0-.44.02-1.03.05-.47 0-1.13.02-1.99.05-.86.03-1.7.05-2.51.05-.59 0-.89-.16-.89-.47 0-.25.19-.38.56-.38.47 0 .96-.03 1.46-.09 1-.12 1.78-.52 2.35-1.2.56-.67 1.11-1.68 1.64-3.03l11.78-29.47c.28-.72.52-1.21.7-1.48.19-.27.39-.4.61-.4.35 0 .74.5 1.17 1.5.22.47.69 1.61 1.41 3.43l2.82 7.09 4.48 11.15 1.24 3.1 1.69 4.11c.78 1.88 1.5 3.16 2.16 3.85.66.69 1.32 1.11 1.97 1.27.63.12 1.28.19 1.97.19.41 0 .61.13.61.38 0 .19-.14.31-.42.37-.28.06-.86.09-1.74.09l-4.48-.1c-1.33 0-2.66.1-3.68.1-.29 0-.44-.18-.63-.71m-14.18-13.9h8.63c.16 0 .23-.09.23-.28l-4.22-11.59V176c-.06-.25-.14-.38-.23-.38-.13 0-.22.14-.28.42l-4.32 11.54c0 .22.06.33.19.33m-43.311-3.25l-.02 3.3c-.03.94-.05 3.47-.05 6.28v5.15c0 .62-.03 1.02-.09 1.19-.06.17-.23.34-.51.49-1.4.72-3.12 1.25-5.15 1.59-2.03.34-4.07.51-6.13.51-2.96 0-5.74-.36-8.33-1.08-2.59-.72-4.88-1.83-6.88-3.32-2-1.5-3.57-3.42-4.7-5.76-1.14-2.34-1.71-5.07-1.71-8.19 0-3.49.77-6.57 2.32-9.22 1.54-2.65 3.49-4.68 5.83-6.08 2.03-1.22 4.04-2.03 6.04-2.43 2-.41 4.18-.61 6.55-.61.78 0 1.58.02 2.39.07a63.029 63.029 0 014.68.47 15 15 0 011.22.21c.62.12 1.28.24 1.97.33.69.09 1.26.16 1.73.19.44.03.65.22.65.56 0 .09-.01.26-.05.51-.06.69-.12 1.55-.19 2.6s-.09 2.57-.09 4.56c0 .66-.17.98-.52.98-.25 0-.4-.2-.47-.61-.09-.75-.25-1.44-.47-2.08-.22-.64-.59-1.24-1.12-1.8-.84-.9-2.19-1.74-4.05-2.5-1.86-.77-3.99-1.15-6.39-1.15-1.72 0-3.32.18-4.82.54-1.5.36-2.98 1.15-4.45 2.36-1.37 1.15-2.43 2.66-3.18 4.52-.75 1.86-1.12 4.17-1.12 6.95 0 2.5.38 4.82 1.15 6.97.77 2.15 1.86 4.02 3.3 5.62a14.99 14.99 0 005.17 3.7c2.01.87 4.24 1.31 6.67 1.31.87 0 1.63-.03 2.27-.09a5.5 5.5 0 001.71-.42c.59-.28.89-.86.89-1.73v-4.4c0-2.75-.02-5.25-.05-6.19-.03-.81-.19-1.42-.47-1.82-.28-.41-.8-.69-1.55-.84-.37-.09-.98-.14-1.83-.14-.47 0-.7-.12-.7-.37 0-.31.33-.47.98-.47.84 0 2.26.03 4.26.09 1.37.03 2.22.05 2.53.05.35 0 1.18-.03 2.45-.08.27 0 .33.18.33.3m14.67 4.27V173.5c0-1.03-.03-1.93-.09-2.72-.09-1.53-.63-2.4-1.59-2.62-.47-.12-1.03-.19-1.68-.19-.5 0-.75-.16-.75-.47 0-.25.37-.37 1.12-.37.59 0 1.73.03 3.42.09 1.31.03 2.2.05 2.67.05.37 0 1.14-.01 2.29-.05 1.62-.06 2.76-.09 3.42-.09.66 0 .98.12.98.37 0 .31-.25.47-.75.47-.37 0-.84.05-1.4.14-.62.12-1.05.39-1.29.8-.23.4-.38 1.03-.44 1.87-.06.78-.09 1.69-.09 2.72v15.45c0 2.9 0 5.11.03 6.62.01 1.51.07 2.72.16 3.63.09.72.26 1.26.51 1.61.25.36.7.58 1.36.68.34.03.73.07 1.17.12.44.05.84.07 1.22.07.5 0 .75.12.75.37 0 .31-.3.47-.89.47-1.31 0-3.03-.03-5.15-.1-1-.03-1.72-.05-2.15-.05-.25 0-.98.02-2.2.05-1.81.06-3.04.1-3.7.1-.66 0-.94-.16-.94-.47 0-.25.25-.37.75-.37.56 0 1.12-.06 1.69-.19.75-.16 1.2-.94 1.36-2.34.09-.9.16-2.12.19-3.63.03-1.51.05-3.71.05-6.58" fill="#000"/></svg>