<svg width="162" height="211" fill="none" xmlns="http://www.w3.org/2000/svg"><path d="M51.885 170l.001 1.336c-1.815-.175-3.327.778-2.87 2.754 1.917 6.806 2.059 15.278 4.139 21.894.556 1.768 1.589 3.162 3.633 2.935l-.002 1.336H46.315l.208-1.238c1.426-.116 3.185-.113 3.141-1.976-1.352-7.119-2.608-14.259-4.025-21.364-.061-.308.217-.652-.325-.562l-8.459 21.818-1.317-.046-7.249-21.235-.466-.314-4.018 20.812c.024 1.852 1.289 2.976 3.128 2.768l-.002 1.335h-9.134l.096-1.127c2.23-.392 2.94-1.255 3.578-3.324 2.098-6.8 2.453-14.986 4.325-21.942.126-.997-.15-2.223-1.251-2.479-.838-.195-1.99.307-1.528-1.176l7.372.013 6.68 20.242L44.867 170h7.018zm40.103 0l-.212 1.234c-1.31.246-2.319.234-2.8 1.654-.054.159-.33 1.376-.33 1.45v16.796c.865-.306 1.69-1.319 2.343-1.999 4.318-4.503 8.294-9.367 12.639-13.852.743-2.075-.727-4.136-2.949-3.949l-.002-1.334h9.803v1.334c-1.884-.053-2.856.698-3.1 2.578.341 7.113-.517 14.739-.028 21.792.149 2.151.751 3.342 3.13 3.215l-.001 1.336h-9.803l-.001-1.336c1.201.336 3.12-.859 3.12-2.112v-19.021l-15.034 16.466c-.296 2.344.124 4.87 3.017 4.765l.208 1.238H81.962l.213-1.234c2.645-.166 2.986-1.678 3.139-3.985.37-5.571.421-14.493-.012-20.028-.196-2.504-.637-3.396-3.245-3.878l.24-1.13h9.691zm32.305 0l.002 1.336c-1.501-.171-2.613.528-3.026 1.984-.051.178-.318 1.6-.318 1.686v7.897h15.818v-8.565c0-.483-.6-1.971-.998-2.341-.926-.863-3.252-.378-2.009-1.997h9.691v1.334c-1.884-.053-2.856.698-3.1 2.578.341 7.113-.517 14.739-.028 21.792.094 1.368.222 2.501 1.63 3.044.992.383 1.722-.14 1.499 1.507h-10.026l.212-1.235c.86-.138 1.758-.273 2.341-.999.259-.322.789-1.764.789-2.104v-11.012h-15.818v10.344c0 .104.264 1.47.32 1.682.249.93.598 1.459 1.522 1.817.992.383 1.722-.142 1.499 1.506h-10.026l.209-1.237c2.283.061 2.9-1.585 3.106-3.572.705-6.786-.245-15.066-.257-21.935-.435-1.703-1.11-2.096-2.845-2.276l-.213-1.234h10.026zm-46.23 0l1.45 6.006-1.08-.036c-.644-1.891-2.924-3.627-4.884-3.91-1.262-.182-4.94-.236-6.167-.045-.704.11-1.22.58-1.414 1.258l-.028 22.846c.465 2.077 1.242 3.123 3.547 2.799l-.001 1.335H59.014l.213-1.233c2.564-.117 2.973-1.471 3.138-3.762.485-6.671-.36-13.941-.032-20.675-.29-1.984-1.087-3.407-3.318-3.25V170h19.049zm-39.366 40.908c-.14-.421.429-.282.528-.423l-.731-3.917-1.364 3.669-.455-.022-1.234-3.645c0 .692-.877 3.37-.615 3.795.113.181.56.178.477.542h-1.628c.047-.435.412-.352.588-.835.408-1.12.356-2.694.763-3.861.021-.683-.593-.196-.537-.726l1.41-.009 1.103 3.399.44-.781c.162-.437.715-2.276.913-2.477.27-.275 1.038-.077 1.428-.131.127.427-.345.195-.482.394-.118.172-.061.412-.047.603.045.611.497 3.13.7 3.643.188.471.66.34.644.782h-1.901zm-7.196 0c-.141-.421.428-.282.527-.423l-.73-4.052c-.246.502-1.21 3.666-1.497 3.794-.063.027-.343.057-.346-.078l-1.144-3.443-.728 3.776c.092.145.669.006.524.425h-1.628c-.002-.414.384-.326.544-.743.432-1.131.527-3.078.757-4.281-.159-.198-.607.027-.487-.397l1.427.132 1.018 3.392 1.439-3.533 1.274.009-.415.344c-.034.584.098 1.145.187 1.715.092.592.362 2.36.595 2.784.217.395.666.122.584.579h-1.9zm64.222-5.423v.27c-.337-.105-.678.337-.678.612v2.779l2.654-2.715-.481-.945h1.763c.102.416-.28.204-.482.396-.127.186-.109 4.291.008 4.484.11.182.557.178.474.542h-1.764c-.065-.367.543-.425.543-.746v-3.186c-.506.575-2.447 2.263-2.647 2.854-.2.586.657.922.474 1.077h-1.764c-.1-.375.295-.333.542-.406v-4.541l-.543-.205v-.269h1.9l.001-.001zm-32.857.475l-.543-.474h1.764c.097.365-.543.403-.543.745v2.915l2.51-2.578c.147-.325.154-.73-.246-.799l-.09-.282h1.763l-.542.474v4.541c.247.073.642.032.542.406h-1.764c.002-.374.543-.444.543-.88v-3.051c-.515.585-2.365 2.159-2.616 2.75-.323.756.666.991.443 1.181h-1.764c-.1-.375.295-.333.542-.406v-4.542zm25.797 0l-.542-.474h1.763c.097.365-.542.403-.542.745v2.915l2.51-2.578c.147-.325.154-.73-.247-.799l-.09-.282h1.764l-.543.474v4.541c.248.073.642.032.543.406h-1.764c0-.374.542-.444.542-.88v-3.051c-.515.585-2.364 2.159-2.616 2.75-.322.756.666.991.443 1.181H88.12c-.1-.375.295-.333.542-.406v-4.541l.001-.001zm-3.53-.475c.101.428-.29.188-.474.405-.276.327-.26 2.31-.136 2.308.21.033.28-.167.394-.285.264-.275 1.809-1.895 1.574-2.156-.268-.006-.485.107-.407-.271h1.763c.066.355-.052.21-.193.282-.937.481-1.314 1.034-1.966 1.838-.028.159 1.477 2.671 1.61 2.799.174.17.557.101.55.434l-1.63.069c-.168-.34.267-.231.282-.348.037-.284-.92-1.76-1.154-2.109-.095-.142-.014-.318-.28-.253-.626.443-.83 1.555-.478 2.203.158.291.658.064.544.507h-1.9c-.102-.403.344-.263.477-.539.121-.254.132-4.301.006-4.488-.204-.192-.584.021-.484-.396h1.902zm-33.265 0c.1.417-.28.204-.483.396-.127.187-.109 4.292.008 4.484.11.182.557.179.474.542h-1.764c-.066-.366.542-.424.542-.745v-4.068c-1.098-.502-1.49-.337-1.628.815-.111.931-.074 4.328-1.637 4.077-1.143-.185-.765-2.051.015-1.51.42.291-.174.792-.145.953.026.146.226.234.41.142.728-.359 1.128-3.694.89-4.416-.182-.551-.664-.194-.62-.671h3.938v.001zm2.68-.102c2.505-.421 3.923 2.544 2.592 4.486-.891 1.3-2.624 1.486-3.78.432-1.52-1.385-.94-4.561 1.188-4.918zm.134.404c-2.09.429-1.816 5.005.496 4.844 2.312-.16 2.272-5.413-.496-4.844z" fill="#000"/><path d="M43.142 205.383c.664-.112 1.108-.045 1.684.287 2.845 1.636.977 6.386-2.129 5.108-2.368-.975-1.997-4.985.445-5.395zm.135.404c-1.86.382-1.767 3.989-.371 4.646 3.062 1.443 3.562-5.302.371-4.646zm-17.614-.302l.135 1.084c-.466-.033-.391-.531-.91-.648-.543-.122-1.24.027-1.805-.029v1.898c.526-.038 1.187.143 1.63-.21.125-.101.122-.55.408-.264l-.001 1.287c-.393.116-.233-.306-.49-.388-.395-.126-1.102.05-1.547-.018v2.169c.637.173 1.577.27 2.162-.078.365-.217.29-.636.689-.6l-.136 1.22h-3.937c-.08-.348.303-.322.415-.501.201-.323.208-3.97.03-4.351-.152-.322-.526-.182-.445-.572h3.802v.001zm51.459 0l.135 1.084c-.463-.026-.327-.518-.91-.648-.545-.122-1.238.025-1.804-.03v1.899c.525-.039 1.187.142 1.629-.211.126-.101.122-.549.409-.264l-.002 1.287c-.393.116-.232-.305-.489-.388-.395-.126-1.102.051-1.547-.018v2.169c.53.153 1.114.204 1.665.104.595-.109.682-.521 1.185-.645l-.135 1.084H73.32c-.08-.348.304-.322.416-.501.18-.289.214-4.065.062-4.383-.133-.276-.579-.137-.478-.54h3.802v.001zm-7.468.001c.026.432-.399.254-.514.774-.082.373-.117 1.885.197 2.083.364.229 1.934.153 2.065-.232-.04-.537.17-1.873-.105-2.276-.129-.188-.53.092-.42-.349h1.764c.102.401-.345.262-.477.538-.152.318-.118 4.094.062 4.384.112.179.497.153.415.5h-1.765c-.087-.425.402-.248.518-.635.134-.452-.042-1.176.024-1.669-.58.335-2.29.552-2.722.039-.518-.786-.09-1.79-.326-2.626-.137-.487-.56-.041-.48-.531h1.764zm12.626 1.219c-.41.069-.278-.355-.548-.603-.462-.425-1.131-.417-1.678-.196-1.457.589-1.414 3.118-.55 4.184.569.703 1.817.625 2.444.012.306-.3.23-.706.604-.684l-.018 1.201c-1.634.703-3.43.519-4.177-1.283-1.02-2.457 1.43-4.863 3.861-3.72l.062 1.089zm-20.5-1.22l.134 1.084c-.463-.026-.327-.518-.91-.648-.437-.097-.948.005-1.397-.03v4.61l.543.138v.269h-1.9c-.145-.42.432-.28.524-.426l-.041-4.6c-.138-.202-.608.033-.484-.396h3.53v-.001zm41.004.475l-.543-.474h1.764c.097.365-.543.403-.543.745v2.915l2.51-2.578c.147-.325.155-.73-.246-.799l-.09-.282h1.763l-.542.474v4.541c.249-.016.599.061.542.406h-1.764c.002-.374.543-.444.543-.88v-3.051c-.515.585-2.365 2.159-2.616 2.75-.323.756.666.991.443 1.181h-1.764c-.1-.375.295-.333.542-.406v-4.541l.001-.001zm24.575 1.017l-2.509 2.713-.079.729c.046.157.673.072.551.489h-1.764c-.075-.346.291-.301.405-.511.225-.414.228-4.067-.01-4.429-.152-.229-.49-.109-.394-.482h1.763l-.542.474v3.187l2.516-2.714c.289-.624-.52-.455-.479-.946h1.763c.112.441-.291.161-.419.35-.175.255-.202 4.286-.055 4.529.111.183.557.179.474.542h-1.764c-.114-.337.543-.49.543-.609v-3.322zm-18.194 1.22c.048.641-.111 1.611.14 2.198.095.221.483.16.403.513l-1.63-.069c-.027-.278.298-.243.406-.442.235-.43.222-3.988-.021-4.418-.147-.258-.476-.117-.383-.493h1.628c-.014.429-.353.251-.484.805-.116.493-.04 1.001-.059 1.499h2.851c-.017-.498.058-1.006-.059-1.499-.13-.554-.469-.376-.484-.805.473.017.955-.025 1.427 0 .751.039.242.301-.145.396-.073.103-.052.226-.067.342-.071.549-.098 3.746.004 4.183.043.185.511.145.41.501h-1.629c-.075-.346.291-.301.405-.511.286-.528.069-1.591.138-2.2h-2.851zm26.205-2.711c.078.378-.139.264-.407.271l1.223 3.117 1.217-3.115c-.267-.016-.481.107-.403-.273l1.425-.002.067.27c-.368.043-.523.309-.704.587-.596.917-1.402 4.07-2.156 4.489-1.413.787-2.542-1.488-.952-1.538.289.474-.144.73-.125 1.208.635.283 1.386-.146 1.321-.859-.074-.824-1.388-2.591-1.61-3.527-.139-.36-.763-.19-.66-.628h1.764zm-17.38 1.219c-.41.069-.278-.355-.549-.603-.462-.425-1.131-.417-1.677-.196-1.457.589-1.415 3.118-.551 4.184.569.703 1.818.625 2.444.012.306-.3.231-.706.604-.684l-.018 1.201c-1.634.703-3.429.519-4.177-1.283-1.019-2.457 1.43-4.863 3.861-3.72l.063 1.089zm22.54-.61c-.69-.654-1.144.279-1.765.474l.218-1.092 3.766.002.362 1.021c-.111.211-.236.015-.343-.065-.462-.345-.669-.72-1.406-.524-.22.137-.253 4.132-.026 4.497.111.179.496.153.414.5h-1.764c-.115-.337.542-.49.542-.61v-4.202l.002-.001zm-8.961 4.203c.053.17.639.248.542.61h-1.764c-.076-.346.291-.301.405-.511.228-.422.212-4.343-.017-4.485-.738-.198-.944.181-1.406.524-.107.079-.231.276-.343.065l.359-.998 3.774-.025.213 1.092c-.42-.044-.453-.533-.915-.641-.283-.067-.565-.038-.85-.036v4.406l.002-.001zm-10.998-4.406c-.282.005-.57-.04-.85.034-.476.124-.499.625-.915.643l.218-1.092 3.765.003.225.954c-.597-.23-1.123-.942-1.765-.338v4.067c0 .32.608.379.542.745h-1.764c-.114-.337.543-.49.543-.609v-4.406l.001-.001zm-99.389-.407l.271 1.084c-.47-.007-.564-.587-1.02-.674-.362-.069-1.168-.087-1.423.201v4.202l.679.341v.27h-1.9c-.081-.348.303-.321.414-.501.18-.289.215-4.065.062-4.383-.132-.276-.578-.137-.477-.539h3.395v-.001zm74.948-1.355l-.134.813h.949l-.27-.813.659.018.06.62c-.226.62-1.759.594-1.92.086l-.022-.724.678.001v-.001z" fill="#000"/><path fill-rule="evenodd" clip-rule="evenodd" d="M108.499 33.23l-.239 1.33.679.442.894-.886-.888 1.547 1.775 1.333-3.775 5.534-2.016-1.762 1.232-.09 1.444-2.569-3.491.987-.078 1.226c-.141.3-2.678-.758-2.225-1.766 1.653-.469 2.904-3.278 3.123-4.886l2.222.89.005-1.334 1.34.003h-.002zm-.006 3.523l-.658-1.747-.069.03c-1.262.53-2.412 1.012-2.388 2.622l3.116-.905h-.001z" fill="#000"/><path d="M35.34 79.333l.001.001-.001.001v-.002z" fill="#000"/><path d="M35.34 76.676v2.657c-1.1-.611-2.317-.302-3.495-.003-.325.083-.648.165-.965.226l4.461 1.78c.352.68-1.047 1.01-2.197 1.28-.695.164-1.299.306-1.37.49-.493 1.28 3.166.573 3.567.218v2.216c-1.903-1.29-4.468-1.641-6.684-.887l.202-2.234 3.363-1.75-3.515-.942-.05-2.165c1.947.675 4.865.08 6.683-.886zm63.344-45.23c-1.4 0-1.503 1.503-1.566 2.66.325-.235.672-.403 1-.56.853-.411 1.58-.761 1.477-2.077l2.656 1.095c-1.496.914-2.085 3.742-2.23 5.543l-2.674-.452 1.78-3.539c-.28-.278-3.885 1.388-3.123 2.656l-2.226-.447 2.23-6.203 2.675 1.322.001.002zm34.22 42.9c.312.09.531.152.568.11h-.002l-.447-2.662-.524.159c-1.843.563-3.891 1.188-5.711.288v3.102l1.105-.903 2.903 2.015-4.008-.222.448 3.099c.403.105.425-.14.448-.402.019-.216.039-.444.276-.496 1.475-.325 4.464-.342 5.959.011l-.446-2.66c-1.074.707-1.601.301-2.224-.178-.369-.284-.772-.594-1.342-.713.279-1.327 2.06-.816 2.997-.548zM60.932 37.967c.04.067.156.088.288.112.318.059.732.135.439.904l-2.673.892c.678-1.195-.2-2.847-1.334-3.542.08.579-.047 1.142-.17 1.678-.215.947-.412 1.81.594 2.536l-2.209 1.107c-.17-2.253-1.64-3.997-3.01-5.624l-.115-.136 2.67-.891c-.027 1.134.134 2.603 1.338 3.102l.47-3.262-.909-.503 2.67-1.555c-.202 1.677.896 3.466 1.801 4.941l.149.242v-.001zm54.256 7.226c.488-1.034 1.472-1.851 2.676-1.773h.002l-1.778-2.213c-.618 1.617-2.602 3.89-4.471 3.996l1.564 2.203c.598-1.528 1.599-1.452 2.847-1.357.436.033.901.069 1.39.04-.687 1.11-1.681 2.292-3.122 2.217l2.009 2.21c.663-1.835 2.58-4.237 4.681-4.436l-2.009-2.21-.244 1.292-3.545.031zm-25.43-15.962l-.883 1.78c.629-.223 1.016-.8 1.361-1.316.56-.835 1.01-1.506 2.2-.233-2.93 1.117-1.637 3.644-.545 5.779l.102.199-2.677.002c.321-1.127.302-2.252-.67-3.099l-.71 1.952.931.702-3.119-.445c.9-1.804 1.8-4.298.892-6.198a9.25 9.25 0 00.712-.019c.98-.05 2.064-.105 2.406.895v.001zM39.73 54.6c-1.057-.604-2.17-1.24-2.152-2.306h.002c.776-.697 4.566 2.274 5.127 3.092l1.083-1.943c-.093-.406-.964-.842-1.946-1.333-1.385-.692-2.99-1.495-2.938-2.478l-3.114 4.428c2-.088 4.718 1.362 4.903 3.549-.395.031-.416-.147-.44-.351-.028-.235-.06-.506-.67-.535-.779-.036-.755.164-.701.611.017.14.036.305.035.494 1.252 1.612 3.05-.053 2.616-1.681-.186-.623-.978-1.075-1.805-1.548z" fill="#000"/><path fill-rule="evenodd" clip-rule="evenodd" d="M47.389 49.188c-2.527 3.178-6.585.609-5.702-3.23.877-3.811 7.974-2.346 6.506 2.5-.117.386-.395.514-.598.606-.092.042-.168.077-.206.126v-.002zm0 0c.28-1.5-.692-2.37-1.688-3.26-.347-.31-.697-.622-.997-.965-.83-.513-1.505-.006-2.025.687-.09 2.301 2.45 4.1 4.71 3.538z" fill="#000"/><path d="M64.787 30.791l2.671-1.108c-.258 1.908.472 3.58 1.202 5.253.202.462.403.924.584 1.392l-2.675.442-.005-2.657-3.276.852-2.072-3.507 2.675-.45.002.146c.015 1.826.034 4.07 2.265 2.239a12.642 12.642 0 01-.111-.61c-.148-.89-.276-1.667-1.26-1.992zM35.757 86.9l.922 5.291c-1.795-.85-4.408-.119-6.02.877-.68-.024-2.243-5.683.225-5.308l-.442 3.1 2.226-.448-.889-2.21 1.782.003-.444 1.766h2.23l-.894-3.096 1.303.023.001.001zm39.73-57.22l.004-1.327-5.351.443c-.283.727.085.814.431.896.21.05.414.097.458.286.344 1.474.645 4.1 0 5.462l5.355-.44-.007-1.773-3.115 1.329V31.9l1.777.441v-1.773l-2.224.884v-2.215l2.672.442zM30.964 67.253c.46.377 5.255.216 6.162-.332l-.445 2.663-4.009-.443c-.18.878.726 1.084 1.596 1.281.498.113.984.224 1.249.455l.251 1.335-4.435.477 3.718 1.324.289 1.773c-.372.045-.426-.137-.496-.374-.065-.217-.142-.48-.492-.652-1.33-.655-3.904-1.537-5.248-.746l.539-2.568 3.472-.54-3.094-1.809.422-2.618c.458-.115.448.136.438.39-.006.152-.012.305.082.382l.001.002zM132.58 69.12l-1.371-5.274-.002.002-1.3-.027c-.311.777.156.85.525.907.205.032.38.059.375.2-.051 1.48-4.56 2.231-5.806 1.552l1.115 3.1c-.028-1.376 4.85-2.055 5.127-1.775l.005 1.777 1.332-.463zM83.962 29.68l-2.387-1.294c-2.593.984-2.136 6.695.928 5.445l1.457-1.49-.413 2.02c-3.308.822-5.913-.203-5.36-3.98.636-4.356 7.132-2.002 5.777-.702h-.002zm48.618 54.977l-.442 2.212c1.23 1.434 1.576-3.95 1.598-4.436.006-.125.019-.234.03-.331.048-.4.073-.616-.521-.99l-.219 1.767-6.034-.456-.205 2.23 5.793.004zm-3.119 11.971l.443 1.766c-2.169-.266-4.17-1.279-5.79-2.657l-.893 3.103c1.739-.892 3.932.472 5.345 1.558.127.566-.154.609-.438.653-.286.044-.575.089-.453.666.066.312.375.277.681.242.158-.018.315-.036.437-.006l2.009-4.653-1.341-.672zm-1.341-7.098v-1.327l-.001.002c-3.745-.727-1.944 4.142.543 3.913.42-.039.829-.176 1.241-.315.833-.281 1.681-.567 2.677-.05l.446-2.662-6.239 1.325 1.333-.887zm-4.913-41.226l.902 2.21-1.596.408c-.593.757-.081 2.46.92 2.253l1.342-1.77 1.565 2.657c-1.596-.14-3.202 1.088-4.443 2.036-.195.15-.274.373-.348.584-.133.379-.251.713-1.002.483l-.9-2.21 2.622-.96-.396-2.148c-1.463.069-2.29 1.014-2.893 2.215l-1.562-2.654c1.591.135 3.176-1.073 4.419-2.022l.022-.017c.196-.148.275-.373.349-.584.133-.38.251-.713 1.001-.482l-.002.001zm-90.54 46.995v-.002h.001l-.001.002z" fill="#000"/><path d="M31.32 96.388l1.347-1.09-.442 2.21c.497.459 5.418-.951 5.572-2.212l1.114 3.102c-1.997-.865-4.536.686-6.235 1.772l-1.357-3.782zm20.081-58.281l-2.225 1.984 2.763 3.727 1.24-.176c-.444 1.05-1.124 1.338-2.008 1.712-.207.088-.425.18-.654.289-.313-2.091-1.925-3.91-3.566-5.1-.012-.26 3.635-3.041 4.45-2.436zm77.611 20.833c-2.51-.175-5.653-.127-5.354 3.105-3.606-3.246 4.044-7.501 5.354-3.106zm2.676 36.353l-2.674-2.654c1.77-.035 3.035.739 2.674 2.654zm-6.49-31.495l.693-.862-2.227-.446.002.656.688.653.844-.001zm3.372-2.199l.665-2.213.652.688.001.839-.658.683-.66.003z" fill="#000"/><path fill-rule="evenodd" clip-rule="evenodd" d="M82.686 43.808l4.398.062c.506.405-.607 1.117-1.633 1.773-.728.466-1.413.904-1.442 1.184l.837 3.917-3.703-1.932-3.206 2.14.63-4.125-2.631-2.512 3.576-.217 1.335-3.776 1.84 3.486zm-.966.52h-.865l-.314.877-1.484-.003.894 2.66h2.673l.894-2.66-1.483.004-.315-.877zM66.124 77.559l.444-2.214h-6.245c-.351.893.169 1.161.55 1.358.17.087.312.16.336.27.142.626.084 1.403.027 2.184-.05.68-.1 1.362-.02 1.951h16.057c-.063-.46-.021-.987.02-1.513.05-.62.099-1.238-.025-1.736-.044-.175-.27-.244-.486-.31-.205-.062-.401-.121-.422-.266-.067-.472.172-1.137.417-1.817.216-.598.436-1.209.455-1.712.043-1.1-1.822-6.777-2.428-7.708-.369-.568-.883-.836-1.542-.906l.31-.873 3.209-2.532-2.191-3.03-.661-.223c-1.33.25-2.022 1.517-2.627 2.626-.305.557-.587 1.074-.918 1.403-.279.275-.685.47-1.117.678-.47.225-.969.465-1.372.838-.847.788-6.071 5.864-6.186 6.31-.257 1 1.6 3.02 2.468 3.645l4.459-3.93c.803.692 1.729 1.029 2.543 1.325 1.625.592 2.804 1.022 1.665 3.78-.993 2.407-4.496 2.534-6.72 2.402zm7.959-17.618a1.28 1.28 0 011.283 1.275 1.28 1.28 0 01-1.283 1.275 1.28 1.28 0 01-1.284-1.275 1.28 1.28 0 011.284-1.275zm-3.838 4.424l1.78-1.77.68.676-1.78 1.77-.68-.676zm-7.505 6.546l6.495-6.47 1.603 1.589-6.495 6.471-1.603-1.59zm6.984-2.377c2.197-3.546 5.661-3.149 3.873 1.382h.001l-2.247.487-1.627-1.87zm5.097 1.498c1.994 2.006 1.096 5.148.16 7.467v-.001l-2.172-.164c.01-.4.278-.737.567-1.102.277-.35.574-.725.682-1.203.14-.614.102-1.282.065-1.944-.064-1.133-.126-2.25.698-3.053zm-12.269 7.529v-.889l2.234.003v.889l-2.234-.003zm.003.886h13.38v1.773h-13.38v-1.772zm41.035-13.742v.002c-1.682.323-3.067-.152-4.459-.628-1.313-.45-2.631-.901-4.21-.685-.372.05-.723.233-1.06.41-.389.203-.76.397-1.123.364-.263-.023-.538-.152-.858-.301-.487-.228-1.078-.504-1.889-.533-1.105-.039-2.172.347-3.26.74-1.437.52-2.909 1.053-4.55.631v12.856h8.252c.082 0 .233.16.443.381.703.744 2.071 2.192 3.79.702.304-.263.373-.703.41-.933.014-.092.023-.15.04-.15h8.474V64.706h.002l-.002-.001zm-18.734 1.33v8.424c.246-.09.487-.181.725-.27 2.29-.861 4.28-1.61 6.855-.618.016-.715.04-1.397.063-2.04.216-6.002.316-8.784-7.642-5.495zm14.616-.512c-1.588-.596-3.14-1.178-4.956-.748l-.739.594v8.202c2.02-1.006 3.821-.328 5.654.362.49.184.983.37 1.483.524v-8.422a28.19 28.19 0 01-1.442-.512zm-15.508.512h-.447V76.23h.447V66.035zm18.733 0h-.891V76.23h.891V66.035zm-14.726 8.638c1.49-.318 3.216-.686 4.021.666-.566-.012-1.135-.002-1.705.008a38.32 38.32 0 01-2.09-.003 3.515 3.515 0 00-.463.029c-.543.055-1.17.12-1.09-.468.392-.033.847-.13 1.327-.232zm11.154.233c-.129-.03-.266-.064-.412-.1-1.584-.39-4.018-.991-4.937.534.567-.01 1.137-.002 1.707.008.697.01 1.395.022 2.09-.003.128-.005.29.012.46.03.543.055 1.174.119 1.093-.469zm-4.905 1.328h-2.23l.004 1.77 1.71-.07.516-1.7zm1.358 18.394c-3.788-5.139-9.65-10.088-16.637-8.98l.002-.002c-4.874.773-9.458 5.316-12.343 9.04 7.6 10.113 20.706 10.489 28.754.6l.224-.658zM79.06 89.531h.89l-.005.878-.885.006v-.884zm.89 0l.268.014c1.19.066 2.446.135 2.409-1.344v.001l-1.556-.884-1.12 2.213zm3.566-1.333l-.89.003.003-.884h.887v.882zm-5.58-.438l.676.88-1.782-.214 1.106-.666zm6.03 0l.66.003.676.877-1.336.003v-.883zm-9.369 1.472c-1.327 3.35-2.125 5.364-.263 8.998.028.054.12.147.241.27.333.337.884.894.906 1.454-1.45-.054-7.154-4.24-7.062-5.248 1.393-2.584 3.929-4.527 6.407-6.052l-.229.578zm4.013.305l-2.225-.447v2.212c1.37.288 1.763-.655 2.2-1.703l.025-.062zm7.581-.447l-2.226.444c.449 2.42 2.593 2.337 2.226-.444zm.899 10.634c1.626-.021 6.704-3.771 6.704-5.095-1.435-2.293-3.666-4.292-6.043-5.532.166.66.442 1.274.716 1.887.448.999.895 1.995.865 3.182-.024 1-.9 3.877-1.374 4.789-.123.235-.343.276-.533.313-.235.044-.424.08-.335.456zm-12.045-9.748h.888v1.326h-.888v-1.326zm7.583.003h.888v.434h-.888v-.434zm4.467.325a.55.55 0 01.552.548.55.55 0 01-.552.547.55.55 0 01-.551-.547.55.55 0 01.551-.548zm-5.59.53c2.904.138 4.15 3.73 2.344 5.68-.374.404-2.11.998-2.739.981-4.258-.118-4.83-6.907.394-6.66zm-6.462 4.46a3.15 3.15 0 01.431.014c.28.023.561.046.83-.074.587-.426.364-2.672-.187-2.61l-1.52.448-.445-1.324c.062 1.04.4 2.06.726 3.047l.163.498h.002zm0 0a5.352 5.352 0 01-.439 0c-.15-.003-.3-.007-.45.002v.882l1.335-.003c.084-.053-.057-.258-.204-.472-.101-.147-.206-.3-.242-.41zm12.489-2.217l.904-.22-.682-1.102-.223 1.321v.001zm0 .001l-1.585.421-.199 1.795h1.337l.447-2.216zm-.446 2.217h1.34l-.005.883-1.117.013-.218-.896zm-2.218.005l.88-.006-.002.884h-.888l.01-.878zm-8.485 1.327c.197-.215 1.369.288 1.653.57h-.001c.284.282.79 1.448.573 1.643l-2.23.004.005-2.217zm9.36-.002l.45 2.213-2.004.006-.216-1.101 1.77-1.118zm-10.257.444v.883h-.437v-.883h.436zm11.157.001h.888l-.003.656-.883.672-.002-1.328zm-6.69 1.773h2.23l.017 1.488c-1.281 1.338-2.097.06-2.247-1.488zm-2.677.443h1.334v.882h-1.334v-.882zm6.69.444l1.336.002-.676.878-.66.002v-.882zm-.885.328c.304 0 .55.245.55.547a.55.55 0 01-.55.548.55.55 0 01-.552-.548c0-.302.246-.547.552-.547z" fill="#000"/><path fill-rule="evenodd" clip-rule="evenodd" d="M105.763 76.397c.847-7.058-.099-13.245-1.746-20.096H58.558c-5.37 17.849-.284 38.305 14.045 50.507 1.098.935 7.217 5.478 8.132 5.702 1.035.256 2.165-.578 3.133-1.291.24-.177.468-.345.684-.489 11.912-7.937 19.502-20.077 21.211-34.334zM60.1 57.166h20.294v22.39l-18.726 10.86c-2.933-7.424-4.627-15.17-3.965-23.218.254-3.087 1.021-7.306 2.397-10.031zm22.302 0h20.072c4.244 10.387 2.447 22.512-1.599 32.775L81.734 79.556V57.833l.668-.665zm-1.34 54.071c-7.826-4.703-15.009-11.35-18.483-19.896l18.897-10.23 18.51 10.457c-4.059 8.274-10.733 15.363-18.923 19.669zm-4.236 18.193c-3.346.803.669 3.424 2.564 1.657 1.181-1.101 1.637-5.106-.205-6.004-2.172-1.296-4.435.823-3.636 3.178.248.729 1.127.723 1.88.717 1.017-.008 1.806-.014.513 1.788l-1.116-1.336zm.45-.888c1.85.356 1.589-3.076.668-3.093l-.668 3.093z" fill="#000"/><path d="M91.99 123.669l-3.516.932.402 3.499 2.219-.884.08.259c.391 1.244.88 2.801-.963 2.84l-.004-1.776-1.334.006.052 1.495c5.114 3.253 6.49-5.407.394-3.272l.294-1.335 2.082-.43.294-1.334zm-6.388 4.296c.094-1.127.188-2.254.59-2.965h-4.015l.004 1.77 2.672-.439-1.333 5.315c1.756.214 1.919-1.732 2.082-3.681zm-12.345-3.853c-.023.783-.215 1.589-.407 2.395-.348 1.461-.696 2.922-.037 4.249l-3.12-.445c-.089-.385.097-.408.326-.437.198-.025.43-.055.546-.322.303-.687.365-2.382.41-3.597.026-.724.047-1.279.108-1.349l2.172-.494h.002z" fill="#000"/><path fill-rule="evenodd" clip-rule="evenodd" d="M124.987 116.339c31.79-36.931 2.637-95.026-46.021-92.735h-.001C34.403 25.702 9.3 75.039 34.352 112.02c1.156 1.707 6.763 8.766 8.378 9.003 1.517.221 2.39-.977 3.223-2.121.815-1.12 1.593-2.189 2.901-1.823l5.188 4.194c-.154.829-.71 1.687-1.276 2.56-.913 1.41-1.85 2.856-1.148 4.269 13.171 8.539 30.074 10.52 45.175 6.322 2.295-.638 13.803-4.839 14.321-6.637.317-1.104-.589-2.502-1.416-3.778-.689-1.063-1.323-2.041-1.151-2.696l5.525-4.732c5.2 6.036 6.07 5.388 10.915-.242zm-14.698-5.762l-.006-.645c2.841-1.706 5.524-5.64 7.211-8.576 18.707-32.551-10.418-70.845-46.916-61.705-31.865 7.98-41.734 48.558-18.291 70.938-1.216.774-2.68 2.597-4.13 4.405-1.574 1.962-3.134 3.905-4.345 4.465-1.61.744-3.999-2.236-5.352-3.923l-.002-.003-.001-.002c-.156-.193-.297-.37-.422-.522-27.195-32.993-7.168-83.751 35.058-89.701 53.784-7.58 85.168 57.113 46.994 94.617-.42.335-.638.16-.914-.062a3.796 3.796 0 00-.209-.159c-1.684-1.151-3.316-3.111-4.924-5.042l-.001-.001c-1.26-1.514-2.506-3.01-3.75-4.084zM69.914 44.755h-7.36l.003-.001c-.138-.722.152-.886.67-1.18l.06-.033.036-.021c1.896-1.085 4.476-.341 6.957.375 1.54.444 3.043.877 4.32.855l-.41-1.133.853-.852c-.153-.366-.717-.555-1.325-.76-.918-.307-1.936-.649-1.791-1.682l4.01 1.769-1.118-2.205 1.786 1.33c.981-2.072 4.586-2.102 6.593-1.682.683.143 4.052 2.207 4.202 2.647.04.117.02.318-.006.56-.069.665-.169 1.634.89 1.967.864.272 2.313-.186 3.94-.699 2.982-.94 6.561-2.07 8.246.745h-8.251c-.045 0-.157.05-.309.118-.27.122-.663.298-1.012.342-.291.037-.678 0-1.076-.039-1.02-.097-2.11-.202-1.839.906l14.471-.418 5.15 3.52-19.622-2.657c.15 8.052-13.3 8.018-13.392.007l-19.617 2.65 5.152-3.52 14.471.418c1.267-.958-1.598-.896-2.844-.87-.26.006-.45.01-.517.003-.358-.039-.747-.218-1.014-.34-.149-.069-.26-.12-.307-.12zm18.073-2.878l2.665-1.553c.273 1.057-1.127 1.287-2.094 1.446-.222.036-.42.069-.571.107zm-16.356.269c.632.315 1.295.645 2.071.84v.002c.087.665-.641.502-1.162.386a4.778 4.778 0 00-.282-.058c-1.026-.162-2.541-.585-3.554-.91a3.206 3.206 0 00-.379-.085c-.446-.084-.943-.177-.862-.665 1.73-.725 2.888-.148 4.168.49zm17.24 1.274c1.45-1.634 4.163-2.51 6.241-1.764.082.488-.415.581-.862.665-.137.026-.269.05-.378.086-1.55.495-3.372.921-5.002 1.013zm-35.345 7.213l20.177-2.77h.001l-12.91 4.67-4.425.258c-.131.196-.19.474-.248.75-.074.347-.147.691-.359.867-.435.36-2.163.8-3.884 1.239-1.48.377-2.954.753-3.595 1.075-.66-.625 4.367-5.727 5.243-6.089zm61.206 6.319l-7.911-2.55h-.001c-.176-.144-.262-.43-.358-.747-.153-.508-.33-1.094-.938-1.294-.691-.226-1.602-.158-2.531-.089-.932.07-1.882.14-2.646-.083l-11.92-4.327 20.634 2.76 5.671 6.33zm-40.59-7.546c-2.854 2.125-5.62 3.973-9.355 3.325.175-.587 1.211-.925 1.964-1.172.181-.059.346-.112.478-.163 2.208-.843 4.585-1.574 6.913-1.99zm23.204 3.323c-.094-.584-.563-.724-1.023-.862a3.926 3.926 0 01-.415-.14c-2.096-.89-4.793-1.6-7.037-2.092 2.39 2.105 5.19 3.646 8.475 3.094zm-22.79-1.477c-.835.92-1.594 1.756-3.08 1.479.667-1.102 2.303-1.892 3.56-1.995-.167.17-.325.344-.48.516zm15.598.58c.424.175.87.36.947.899-1.487.277-2.246-.56-3.082-1.482-.155-.17-.312-.344-.477-.514.624.16 1.67.602 2.204.909.123.07.264.129.408.188zm-33.003 2.046l48.179-.212h.001c6.594 18.807 2.69 39.166-12.21 52.724-1.851 1.683-9.015 7.488-10.965 8.186-1.69.604-5.634-2.305-7.544-3.714l-.177-.13-.245-.18C56.502 97.653 49.674 74.477 57.15 53.878zm-1.736 1.963l-8.79 2.786-4.142 8.732 11.131-6 1.801-5.518zm51.745 0l8.79 2.786h-.001c1.719 2.82 3.407 5.855 3.926 9.17-.919-.909-3.061-2.007-5.258-3.134-2.763-1.417-5.612-2.878-6.227-4.065-.358-.69-.546-1.683-.732-2.664-.142-.751-.283-1.496-.498-2.093zm-53.529 7.092l-11.802 6.663c-.852 3.487-1.35 7.03-1.126 10.624l12.253-10.648.675-6.639zm55.314 0l11.485 6.311h-.001c1.239 1.305 1.811 9.014 1.227 10.975l-12.037-10.646-.674-6.64zM43.831 92.437c-.362.403-.692.77-1.345.64h.001c-.16-.7-.333-1.4-.507-2.102-.74-2.987-1.488-6.006-1.207-9.132l11.965-10.045.717 8.436c-1.515 1.68-2.93 3.64-4.347 5.603-1.633 2.261-3.267 4.525-5.057 6.361-.076.079-.149.16-.22.24zm77.052-2.564c-.309 1.226-.616 2.443-.792 3.647l-1.326-.673-9.748-12.508.822-8.541 11.806 10.204c.562 2.621-.104 5.265-.762 7.871zM57.088 91.46l-4.354 8.71v-.001l-.922-.284c-1.487-3.12-3.564-1.618-5.56-.175-.215.156-.43.311-.642.459l-2.143-5.019 10.39-13.147 3.231 9.457zm61.915 3.405l-1.635 4.367c-.897-.1-1.7-.403-2.443-.683-1.814-.683-3.27-1.232-4.867 1.616l-4.502-8.632 2.946-9.535 10.501 12.867zm-55.2 7.405l-1.7 7.212c-3.043-1.631-5.416-4.164-7.753-6.66l-.006-.006c-.362-.387-.724-.774-1.087-1.156l4.396-9.022 6.15 9.632zm40.684-9.186c-.055 1.495-1.829 3.777-3.405 5.805-1.208 1.554-2.3 2.958-2.412 3.744-.123.847 1.433 6.257 2.046 6.396 1.879-.794 7.887-5.651 8.157-7.404l-4.386-8.54zm-43.841 19.123l-5.235 7.915v.001l-6.206-4.273c.402-1.023 1.586-2.09 2.806-3.19 2.009-1.811 4.114-3.709 2.985-5.637-.072-.123-.544-.517-1.202-1.067-2.392-1.997-7.251-6.053-4.392-6.667 1.02.303 1.601 1.255 2.179 2.201.292.479.584.957.931 1.348 3.199 3.602 7.242 7.118 11.526 9.381.423.223 1.339.606 2.372 1.037 2.008.839 4.457 1.862 4.578 2.255.15.516.088.988-.397 1.299-.986.633-2.937-.76-4.93-2.183-1.9-1.356-3.84-2.74-5.016-2.42zm48.966-9.274c1.24-1.823 3.182-4.68 4.234-3.646 1.295 1.273-2.288 4.059-4.421 5.717-.667.519-1.192.927-1.382 1.144-2.018 2.309.377 4.522 2.452 6.439 1.457 1.346 2.756 2.546 2.261 3.532l-5.558 3.975a40.238 40.238 0 01-.766-1.411l-.001-.002c-1.274-2.412-3.353-6.348-4.878-6.557-1.154-.158-2.925 1.112-4.695 2.381-1.427 1.024-2.854 2.047-3.955 2.32-1.647.409-1.85-1.275-.44-2.22.614-.411 1.817-.867 3.072-1.344 1.143-.434 2.331-.884 3.156-1.333 3.2-1.735 7.614-5.055 10.034-7.76.202-.227.513-.683.887-1.235zm6.119-1.121c-.504 1.263-5.791 8.657-7.233 7.224-.909-.904 2.027-3.453 4.158-5.303.871-.756 1.607-1.396 1.892-1.758.213-.272.394-.768.542-1.171.135-.369.241-.66.318-.63.773.581.704.741.446 1.344a13.14 13.14 0 00-.123.294zm-64.92 3.096c1.684 1.253 4.246 3.159 3.267 4.128-.196-.005-.399.006-.605.016-.453.023-.917.047-1.326-.088-.507-.165-4.639-5.958-5.113-6.893-.048-.095-.107-.19-.165-.285-.27-.439-.527-.859.298-1.169.097-.036.527.617 1.022 1.37.495.752 1.055 1.604 1.415 1.967.214.215.665.551 1.207.954zm23.13 11.199c-.222 1.338-.44 2.659-.233 3.574l-2.234-.004c-.027-.553.108-1.217.248-1.906.268-1.319.555-2.731-.243-3.639-.406-.462-1.815-.939-3.377-1.468-1.947-.66-4.132-1.4-4.91-2.292l1.599-6.652c1.33 1.006 2.49 2.209 3.649 3.41.7.727 1.401 1.453 2.139 2.135.323.299.973.724 1.617 1.145.788.515 1.568 1.025 1.73 1.291.586.962.298 2.699.015 4.406zm14.247-4.403l9.6-7.541c-.03.655.296 1.616.633 2.608.476 1.402.972 2.863.506 3.601-.445.703-2.262 1.336-4.041 1.957-1.498.521-2.968 1.034-3.574 1.572-1.389 1.234-1.025 2.437-.625 3.761.193.638.394 1.303.412 2.014l-2.207-.021-.704-7.951zm-6.707 4.427l5.603-3.1v.001l.398 7.043c-.622.729-11.776.717-12.39.002l.402-7.047 5.987 3.101zm-19.35-2.475l8.006 5.131c-2.223-.317-7.535-1.682-9.088-3.154-1.388-1.316-.623-2.533 1.081-1.977zm37.91.058c.431-.252 2.064-.391 2.21-.24h-.001c.067.07.078 1.365-.097 1.68-.491.889-8.545 4.029-10.159 3.635l8.047-5.075zm1.839 2.861c.55-.429 1.051-.82 1.704-.886l.002-.001c.59 1.901 1.837 3.691 3.071 5.463 1.124 1.613 2.237 3.212 2.834 4.864.04.11.087.217.133.323l.001.001c.188.43.365.835.014 1.323-17.05 10.168-40.064 10.42-56.852-.3l.303-1.797 6.165-9.403c12.948 6.88 28.095 7.798 41.382 1.245.478-.235.872-.542 1.243-.832z" fill="#000"/><path fill-rule="evenodd" clip-rule="evenodd" d="M37.571 23.025l-7.131-.437v6.65l-6.694.441.45 6.651-6.658 1.614 1.305 6.364-6.228 1.802 1.723 6.334-5.752 3.199 3.078 5.745-5.756 3.323 3.502 5.914-4.347 4.143.16 1.01 3.66 4.224L5 84.875l4.406 4.5-3.502 5.914 5.388 2.946-2.664 6.158 5.707 3.169-1.724 6.328 6.229 1.802-1.341 7.088 6.695.89-.45 6.65 6.693.442v6.649l7.132-.437.9 6.646 6.4-1.297 2.502 5.992 6.278-1.846 2.935 5.55 6.163-2.664 3.656 5.29 5.304-3.041L76.543 156l4.884-3.902L86.032 156l4.837-4.396 5.307 3.064 3.42-5.269 6.395 2.619 3.219-5.708 6.421 2.186 1.767-6.017 6.707 1.142.895-6.654 7.137.444v-6.649l7.135-.446-.893-6.644 6.696-.89-1.343-7.09 6.217-2.055-1.724-6.096 5.735-3.202-2.59-5.634 5.298-3.418-3.498-5.913 4.83-4.498L153.562 80 158 75.123l-4.83-4.498 3.499-5.914-5.3-3.416 2.597-5.634-5.728-3.216 1.725-6.334-6.23-1.802 1.343-7.09-6.695-.89.892-6.645-7.135-.446v-6.65l-7.137.445-.894-6.653-6.707 1.141-1.769-6.018-6.421 2.186-3.235-5.695-6.378 2.606-3.421-5.27-5.304 3.41L86.032 4l-4.595 3.882L76.543 4l-4.835 4.395-5.305-3.063-3.664 5.32-6.394-2.665-2.269 5.735-7.13-2.219-1.35 6.202-7.125-1.326-.9 6.646zm43.27-13.516v9.532c-1.003-.91-2.773-3.962-3.022-5.198-.233-1.152-.556-4.848-.562-6.097-.01-2.114 1.356-.59 2.473.655.444.495.849.947 1.112 1.108zm9.264.493l-1.239 9.48v.002c-.5-.01-.755-.786-.948-1.374-.052-.157-.1-.302-.146-.414-1.603-3.867-1.256-7.009-.682-11.067l3.014 3.373zM68.567 7.965c.2.057 2.691 1.75 2.783 1.89v.002c.535.823.706 3.166.873 5.456.135 1.848.267 3.661.586 4.614l-3.659-5.003a48.447 48.447 0 00-.439-1.908c-.33-1.357-.676-2.783-.757-4a3.215 3.215 0 00-.037-.283c-.075-.462-.16-.999.65-.768zm27.93.662c.041-.284.047-.325.84-.223l1.789 3.716-2.448 8.692c-1.978-3.691-1.641-7.985-.273-11.798a1.8 1.8 0 00.091-.387zm-31.718 12.63c-.136-.505-.3-1.28-.488-2.177-.581-2.757-1.407-6.679-2.455-7.527-.325-.262-3.106-1.571-3.294-1.376.738 4.397 2.529 8.404 6.237 11.08zm41.585-2.644c-.885 1.708-1.823 3.516-1.888 4.859l-.831-2.933c-.551-2.73.464-5.162 1.476-7.587.324-.775.647-1.55.919-2.333.485.81 1.971 3.406 1.909 4.135-.082.961-.814 2.372-1.585 3.859zm-49.38 5.297c-4.044-2.542-6.053-5.642-7.363-10.186 4.449.114 5.666 4.374 6.725 8.078.21.737.415 1.452.637 2.108zm59.01-4.746l-4.817 7.857-.001.001c.095-.765.129-1.715.164-2.692.053-1.478.108-3.017.382-4.075.114-.436 3.156-5.881 3.459-5.645l.813 4.554zm-39.162-4.111c.459-.359 2.939 4.634 2.67 4.873v.001l-4.457.443 1.787-5.317zm8.476 0c.62-.471 2.143 4.711 2.222 5.316l-4.456-.443 2.234-4.873zm-16.95.885c.783.391 3.49 4.506 3.117 4.874l-4.012.444.895-5.318zm25.644.446c.545.638 1.463 4.523 1.111 4.873l-4.013-.445c-.509-.503 2.335-3.842 2.902-4.428zm-50.604 2.242c.944.209 2.013.446 2.107.513.39.277 3.93 7.194 4.342 8.317-.622-.445-1.34-.829-2.064-1.216-1.033-.552-2.077-1.11-2.867-1.859-.57-.541-3.584-4.977-3.766-5.57-.253-.829.213-.693.715-.547.073.021.146.043.217.061.244.064.758.178 1.316.301zm16.482-.025c.463-.518 4.503 3.446 4.011 3.984l-4.01.889v-4.873zm38.804 3.982c-.294-.38 3.456-4.636 4.011-3.983v4.873l-4.011-.89zm24.103-2.848c.078-.251.134-.43.873-.248-.199.727.003 1.517.194 2.26.136.533.267 1.041.239 1.485-.058.95-3.226 4.805-4.406 6.241l-.217.265c-.119.144-.164.305-.205.45-.092.324-.161.57-.953.379-.327-4.36 1.814-7.3 4.329-10.521.081-.103.115-.213.146-.311zM52.3 21.7l4.007 2.668c.69.987-3.807 2.873-4.01 2.65L52.3 21.7zm57.759.003l.219 5.315-4.004-1.993 3.785-3.322zm-28.882.598c32.11 0 58.14 25.873 58.14 57.787 0 31.915-26.03 57.787-58.14 57.787s-58.14-25.872-58.14-57.787c0-31.914 26.03-57.787 58.14-57.787zM36.26 24.193c.551.113 1.103.227 1.655.278l5.457 7.423c-.416-.158-.898-.32-1.407-.493-1.545-.524-3.348-1.135-4.373-1.956-.373-.299-3.904-4.577-4.027-4.867-.345-.814.512-.72.997-.667l.103.011c.53.053 1.062.162 1.595.271zm8.462 1.714c.905.099 5.01 2.524 4.448 3.323l-3.564 1.779-.884-5.102zm85.492.148c.248-.272.464-.507 1.028-.361v.001c.817 3.57-1.613 5.691-4.07 7.836-1.021.892-2.047 1.788-2.846 2.793.537-4.217 2.19-7.385 5.577-9.97.122-.093.219-.198.311-.3zm-16.811 2.958c-.196-.789 3.953-3.327 4.459-2.875l-.894 4.874-3.565-2zm-78.348 5.941c.674.779 1.351 1.561 2.075 2.26-4.621-.508-7.997-3.047-10.705-6.641 4.025-.941 6.31 1.7 8.63 4.381zm4.31.932l3.555-2.436-4.895-2.436 1.34 4.872zm78.721-4.875v.444c.289-.149.289-.295 0-.444zm1.569 2.439l4.897-2.436a66.49 66.49 0 00-.684 2.398c-.208.762-.415 1.523-.645 2.268a.971.971 0 00-.024.393c.022.242.032.356-.647.255l-2.897-2.878zm10.024 9.08c.921-4.255 3.677-8.087 7.807-9.743-.057.422-.021.95.016 1.497.062.919.127 1.889-.239 2.488-.362.593-1.873 1.585-3.472 2.634-1.696 1.113-3.49 2.29-4.112 3.123zm-97.454-5.31l4.903 1.334c-.184.19-.436.557-.722.974-.682.991-1.558 2.266-2.17 2.122l-2.01-4.43zm93.782 1.233c.587-.297 4.084-1.48 4.343-1.233.178.169-1.501 4.315-2.014 4.432l-2.888-2.445c-.111-.614.004-.63.23-.663.093-.013.206-.03.329-.091zm-96.254 2.924c.82.724 1.634 1.444 2.47 2.043-4.511.035-7.634-1.653-11.034-4.302-.102-.08-.212-.113-.311-.143-.251-.077-.434-.132-.252-.866 3.745-1.49 6.466.915 9.127 3.268zm104.616 7.366c1.466-4.24 4.739-6.953 8.917-8.42-.038 1.304-.232 3.002-1.077 4.024l-7.84 4.396zm-105.037-.887l-2.46-3.984.024.001c1.025.037 5.13.183 4.848 1.5-.171.167-.38.484-.613.838-.53.803-1.183 1.796-1.799 1.645zm101.024-2.885l5.347-1.101-2.897 4.422-2.45-3.32zM23.793 47.6c1.233.77 2.507 1.566 3.966 2.038.081.585-.544.521-1.086.466a3.571 3.571 0 00-.466-.03c-3.79.151-6.886-.597-9.924-2.974-.103-.08-.213-.114-.312-.145-.25-.077-.434-.133-.252-.866 3.299-1.473 5.604-.032 8.074 1.51zm124.183.712l-1.227 4.318h.001l-8.815 3.204c-.225-.188 3.335-4.422 3.601-4.618.716-.527 1.95-.988 3.201-1.457 1.214-.454 2.446-.914 3.239-1.448zM22.858 50.963l4.903.443c.228.2-.983 2.544-1.24 2.98a.907.907 0 00-.081.25c-.061.266-.124.54-.679.311-.56-.232-3.58-3.338-2.903-3.984zm111.953.443l4.906-.443c.552.526-1.957 3.44-2.478 3.96-.072.071-.131.139-.184.2-.22.253-.347.4-.897.27l-1.347-3.987zM20.083 55.378c1.612.802 3.265 1.626 4.555 1.796l-6.345.801a80.827 80.827 0 00-2.972-1.044 79.832 79.832 0 01-2.99-1.05c-2.13-.814 2.47-2.266 3.505-2.168 1.118.107 2.662.876 4.248 1.665zm131.461 1.8c-.084.847-1.189 3.4-1.677 3.867-.876.84-5.525 1.661-8.061 2.11h-.001c-.492.087-.904.16-1.193.215 2.78-3.844 6.585-4.943 10.932-6.192zM19.291 59.16l5.348-.661-1.34 3.986c-.49.356-1.867-1.118-2.911-2.233-.472-.505-.875-.936-1.097-1.093zm118.645-.661l5.351.446c-.558.834-3.559 4.31-4.456 3.543l-.895-3.99zM18.032 63.694c1.298.42 2.613.844 3.93 1.016.082.502-.42.547-.891.59-.162.014-.32.029-.45.06-4.311 1.08-7.43 1.08-11.583-.877 2.75-2.804 5.821-1.813 8.994-.789zm1.716 2.8c.755-.123 1.516-.247 2.213-.458l-.447 3.989c-.308.256-4.286-2.036-4.453-2.226-.552-.627-.1-.725.365-.826.095-.02.191-.04.28-.066.635-.184 1.335-.298 2.042-.413zm120.42-.457l5.349.887h.001c.181.735.002.79-.25.868a.938.938 0 00-.314.144c-.691.535-2.165 1.621-2.869 2.005a2.987 2.987 0 00-.332.22c-.326.236-.551.4-.93-.123l-.655-4zm12.971.574l.851-.132-2.526 3.913-9.068.958c2.846-3.527 6.606-4.104 10.743-4.74zm-142.08 4.73l9.564 1.35-6.055 2.173-6.874-.408c-.577-.492 2.766-2.95 3.365-3.116zm5.674 3.9c.588-.29 4.087-1.472 4.337-1.225l-.447 3.986-4.456-1.778c-.124-.74-.072-.756.218-.848.091-.03.207-.066.348-.136zm124.773-1.226l4.905 1.334v-.002c.16.75.014.788-.241.855a1.09 1.09 0 00-.335.134c-.597.386-3.973 2.029-4.329 1.666v-3.987zm6.465 2.216h6.913l-.003.66c-.203.155-.697.68-1.19 1.205-.583.62-1.165 1.24-1.26 1.24h-9.589l5.129-3.105zM10.144 80.665h9.59c.336.274-4.826 3.104-5.13 3.104H7.691l.004-.66c.203-.155.697-.68 1.19-1.205.583-.62 1.165-1.24 1.26-1.24zm6.597 2.998c.427-.277 3.704-1.873 3.883-1.666v.001l.447 3.986-4.905-1.332c-.16-.75-.014-.788.24-.855.1-.026.215-.056.335-.134zm124.765-1.667l4.903 1.779v-.002c.124.743.057.764-.231.855-.09.028-.202.063-.335.13-.584.287-4.1 1.472-4.337 1.224v-3.986zm13.037 3.518l.339.029c-1.491 3.951-5.891 3.1-9.477 2.408-.344-.067-.68-.132-1.006-.19a3.721 3.721 0 00-.591-.045c-.522-.011-1.026-.022-1.41-.626 4.16-2.264 7.652-1.963 12.145-1.576zM17.261 88.95c1.158-.062 2.307-.123 3.363-.301h.002l-5.103 3.568-6.937 1.303c1.104-4.167 4.937-4.371 8.675-4.57zm123.802.583l4.451 2.667c.555.627.1.725-.364.825-.096.02-.192.042-.28.067-.939.273-2.019.439-3.07.6h-.001c-.561.087-1.113.172-1.631.27l.895-4.429zm-123.44 2.53c.475-.37 3.532-2.413 3.892-2.09l.446 3.99-4.902-.888c-.184-.736 0-.792.253-.868.1-.03.21-.063.311-.143zm126.921 4.241c-1.298-.419-2.613-.843-3.93-1.015l6.4-1.614 6.524 1.841c-2.75 2.804-5.822 1.813-8.994.788zm-122.58.325l-9.069 2.177-2.072 3.808c4.49-.706 8.496-2.107 11.14-5.985zm-2.675 4.424c.46-.711 3.371-4.006 4.008-3.54h.001l.897 3.986-4.906-.446zm120.214-3.542c.684-.153 3.274 2.814 3.784 3.542l-5.351.445 1.567-3.987zm4.796 4.528c.69.057 7.036 2.399 6.571 3.003h-.001c-.617-.007-1.198.344-1.755.68-.431.261-.847.512-1.254.582-1.181.203-6.755-2.117-8.133-2.816-.103-.052-.214-.1-.327-.149-.451-.194-.93-.399-1.018-.948 1.058.25 2.346.048 3.55-.14.874-.137 1.703-.267 2.367-.212zm-122.036 2.909a50.365 50.365 0 002.377-.782c-2.135 4.352-5.898 5.983-10.257 7.53.525-4.465 4.189-5.602 7.88-6.748zm113.859-.071l.913-.269 3.13 4.426-5.354-.442 1.311-3.715zM22.41 109.033c.23-.701 3.328-4.626 4.011-3.986l1.342 3.542-5.353.444zm118.325.992c.496.1 5.894 2.755 6.118 3.011v.001c.526.604.105.715-.318.827a3.027 3.027 0 00-.303.091c-.711.281-2.386.869-3.065.767l-8.351-4.792c.789.062 1.631.024 2.479-.015 1.181-.053 2.372-.107 3.44.11zM28.2 111.471c-1.615 4.01-4.773 6.922-8.909 8.205v-.001c-.19-.203.266-2.387.454-2.87.787-2.022 5.891-4.227 8.209-5.228l.246-.106zm104.606.235l2.897 4.423-4.905-.443c-.566-.515 1.437-3.456 2.008-3.98zm-103.697.438c.861-.612 3.21 3.034 2.668 3.542l-4.907.441 2.239-3.983zm101.243 4.434c4.86-.045 8.647 2.077 12.043 5.312-4.159 1.494-6.837-.855-9.641-3.315-.779-.684-1.568-1.376-2.402-1.997zm-97.46.883v.443c.29-.148.29-.295 0-.443zm-1.667 1.504c.426-.351.846-.697 1.442-.615-1.053 4.468-3.951 6.816-7.575 9.308-.968-4.017 1.992-5.943 4.972-7.88v-.001c.23-.15.462-.3.69-.451.163-.107.318-.235.47-.361zm5.458 2.257c-.138.575-4.196 1.802-4.458 1.557v-.002l2.004-4.428 2.454 2.873zm93.667 1.556l-2.014-4.433-2.879 2.887 4.893 1.546zm-4.904.008c4.737.515 7.937 2.968 10.705 6.641-4.026.941-6.31-1.699-8.631-4.381-.674-.779-1.351-1.561-2.074-2.26zm-93.663 11.521c3.772-2.728 5.964-5.925 6.466-10.631-.466.629-1.484 1.558-2.6 2.578-2.01 1.833-4.337 3.958-4.342 5.149l.476 2.904zm7.58-10.195c.511-.457 3.554 2.505 3.118 3.096l-4.457 1.777 1.34-4.873zm80.292 2.437c.443-.562 3.028-2.82 3.555-2.437l1.342 4.873-4.897-2.436zm-.45 1.556c4.924 1.004 7.556 4.058 10.256 7.972l-4.782-.564-5.474-7.408zm-75.73 6.965c-.247.638-3.88 5.752-4.558 4.998v-.001c.165-.625.011-1.316-.14-1.991-.156-.703-.309-1.388-.093-1.965.444-1.192 2.054-2.972 3.555-4.633.994-1.1 1.94-2.146 2.47-2.935-.24.866-.373 1.885-.505 2.909-.168 1.298-.337 2.605-.73 3.618zm70.56-4.475c.588-.415 2.641-1.868 2.933-1.606h.001l.89 5.318-4.452-2.887c-.141-.603.034-.634.26-.673.097-.017.203-.035.297-.102l.071-.05zm-69.104 3.704l.678-4.868c.627-.529 3.072 1.383 3.556 1.995l-4.234 2.873zm67.798-1.756c4.108 1.826 7.293 4.963 8.7 9.299-.414-.11-.85-.184-1.289-.259-1.164-.198-2.347-.399-3.18-1.28l-4.231-7.76zm-61.33.436c.38 4.651-.865 8.982-4.005 12.41v-.001l-.798-4.541 4.803-7.868zm.899.444l4.01 1.335v.001l-.284.917-3.724 2.623-.002-4.876zm53.969 1.332l4.011-1.333-.219 4.872-3.792-3.539zm-.675 1.334c3.954 2.447 6.194 5.705 7.362 10.186-4.334-.12-5.537-4.186-6.615-7.83-.244-.824-.481-1.626-.747-2.356zm-47.057.437c1.293 4.787-.107 8.487-1.785 12.851h-.001c-.575-.266-1.426-2.121-1.57-2.642-.18-.66-.346-1.278-.198-1.969l3.554-8.24zm1.346 0l3.566.889c.768.881-3.111 4.494-3.567 3.984v-4.873zm38.803.889l4.011-.889h.001c-.027.578-.009 1.163.01 1.749.021.678.042 1.357-.007 2.025-.008.1-.001.221.005.347.025.487.054 1.052-.669.751-.453-.188-3.752-3.544-3.351-3.983zm-27.22 2.432l-3.106 4.214-.895-5.318.343.045c1.085.138 3.627.462 3.659 1.059zm19.638-.66l4.01-.444v-.001c.354.378-.56 4.199-1.11 4.873-.664-.39-3.386-3.983-2.9-4.428zm6.694-.446c3.83 2.65 5.494 6.615 6.237 11.081-4.084-.548-4.714-3.949-5.352-7.391-.236-1.272-.473-2.549-.885-3.69zm-32.075 1.112c.036-.277.043-.326.844-.227h.002c1.206 4.513.823 8.04-.665 12.413l-2.416-3.745c.35-1.122.63-2.33.912-3.542.36-1.552.722-3.111 1.233-4.505a1.7 1.7 0 00.09-.394zm9.767.22H79.5l-2.45 4.866c-.55.007-1.917-4.509-1.563-4.866zm7.586 0h4.014c.354.357-1.013 4.874-1.563 4.866l-2.45-4.866zm6.693-.002c3.271 3.182 4.895 7.425 4.9 11.968-.176.197-3.36-1.706-3.462-1.874-.487-.805-.638-2.986-.79-5.177-.136-1.956-.272-3.92-.648-4.917zm-16.057.444c3.001 3.749 2.552 8.385 1.775 12.856-3.356-2.207-2.797-5.395-2.22-8.681.245-1.396.493-2.811.445-4.175zm8.024 9.973v-9.532c3.142 3.434 4.03 7.831 3.565 12.411-.397.446-3.565-2.648-3.565-2.879z" fill="#000"/><path fill-rule="evenodd" clip-rule="evenodd" d="M37.819 63.928c-2.527 3.178-6.585.608-5.702-3.23.877-3.812 7.974-2.347 6.506 2.5-.117.385-.396.513-.598.605-.092.043-.168.077-.206.126v-.001zm0 0c.28-1.5-.693-2.37-1.688-3.26-.347-.31-.697-.623-.997-.966-.83-.513-1.506-.006-2.025.687-.09 2.301 2.45 4.1 4.71 3.539z" fill="#000"/></svg>