<svg width="135" height="202" fill="none" xmlns="http://www.w3.org/2000/svg"><g clip-path="url(#clip0_147_5412)" fill="#000"><path d="M61.16 9.557c-.204-.224-.092-.587.205-.643l2.998-.588a.353.353 0 00.26-.196l1.453-2.685c.149-.27.53-.27.67 0l1.48 2.667a.394.394 0 00.27.196l2.998.55c.297.056.418.42.214.643l-2.076 2.238a.423.423 0 00-.103.317l.4 3.03c.038.298-.27.531-.54.4L66.626 14.2a.396.396 0 00-.326 0l-2.755 1.315a.386.386 0 01-.55-.392l.364-3.03a.413.413 0 00-.103-.308l-2.104-2.219.01-.009zM27.966 98.515c-.196-.848-.876-1.426-1.834-1.585.484-1.035 1.2-3.105.195-4.643-.847-1.296-2.56-.979-3.398-.718-.26-.662-.875-1.893-1.917-2.452-.69-.364-1.425-.382-2.207-.047-.782.336-1.303.895-1.554 1.66-.382 1.175 0 2.508.251 3.17-.773.438-2.206 1.464-1.964 3.012.298 1.846 2.178 2.797 3.211 3.179-.577.821-.68 1.734-.26 2.49.586 1.062 1.945 1.463 2.68 1.678a.07.07 0 01.047.018c-.018.392 1.965 4.233 4.59 3.115 2.625-1.129 1.6-5.39 1.34-5.651 0-.018.019-.028.028-.046.382-.69 1.09-1.968.81-3.17l-.018-.01zm31.892-38.973l-.074-13.725 3.426-.018-.047-8.634c-.01-1.995 2.662-2.387 2.662-2.387l-.595-2.788 1.07-13.52c0-.111.093-.177.186-.177s.177.056.186.178l1.22 13.51-.559 2.797s2.681.364 2.69 2.359c0 1.566.047 8.634.047 8.634l3.426-.019.075 13.725 6.87 3.394.093 17.155 17.128-.093 3.408-3.45-.038-6.862 3.407-3.45 3.426-.019 3.444 3.413.094 15.897a4.226 4.226 0 00-.298.15c-.885.484-1.583 1.146-2.132 1.855-1.853.13-3.444 1.044-4.403 2.536-.931 1.454-1.238 3.189-.913 5.072a5.378 5.378 0 00-1.117 2.284 5.99 5.99 0 00-.102 1.977 6.214 6.214 0 00-1.275-.364l-.066-12.223-3.425.018.074 12.662c-.81.373-1.49.895-2.048 1.464h-.363c-.344 0-.68.037-1.005.093l-.084-14.2-3.426.019.093 16.232c-.95 1.222-1.424 2.732-1.405 4.429l-12.242.065-.074-13.724-.019-3.431-3.426.018-3.528.019h.019s1.769-.998 3.044-5.25c.13-.428-.28-.83-.698-.67-2.44.904-5.735-1.632-5.735-1.632s-3.267 2.573-5.715 1.697a.54.54 0 00-.69.68c1.323 4.233 3.1 5.212 3.1 5.212h.02l-3.529.019-3.426.019.02 3.43.074 13.725-12.242.066c0-1.697-.493-3.198-1.461-4.411l-.093-16.232-3.426.018.084 14.201a5.13 5.13 0 00-1.006-.075c-.12 0-.242 0-.363.009a6.964 6.964 0 00-2.066-1.445l-.075-12.662-3.426.019.066 12.224a5.646 5.646 0 00-1.267.382 6.265 6.265 0 00-.12-1.977 5.337 5.337 0 00-1.146-2.266c.298-1.883-.027-3.617-.968-5.062-.977-1.483-2.569-2.369-4.43-2.48a6.812 6.812 0 00-2.45-1.977l-.092-15.897 3.407-3.45 3.426-.019 3.444 3.413.037 6.862 3.445 3.413 17.128-.094-.093-17.155 6.833-3.469.01-.037zm-30.04 16.177a2.45 2.45 0 00-2.467-2.443 2.45 2.45 0 00-2.439 2.47 2.45 2.45 0 002.467 2.444 2.45 2.45 0 002.439-2.471zm20.052 28.428L49.776 87l-3.426.02.093 17.146 3.426-.019zm53.918-28.839a2.45 2.45 0 002.467 2.443 2.45 2.45 0 002.439-2.47 2.45 2.45 0 00-2.467-2.443 2.449 2.449 0 00-2.439 2.47zm-19.82 11.497l.094 17.146 3.426-.019-.093-17.146-3.426.019zM70.182 66.274l.075 13.734 3.425-.019-.074-13.734-3.426.019zm-6.507-13.669c.102 1.427.856 2.49 1.545 3.18.363.363.112.978-.39.978h-1.136l.018 2.975 5.93-.038-.019-2.965h-1.135a.57.57 0 01-.41-.97c.68-.699 1.424-1.77 1.508-3.197.14-2.322-1.089-2.732-1.778-2.863-.689-.13-.112.811.354 1.222.456.41-.763.56-1.536.568-.773 0-1.992-.13-1.536-.55.456-.42 1.024-1.37.335-1.23-.689.14-1.908.568-1.75 2.88v.01zm-3.78 13.725l.075 13.734 3.426-.02-.075-13.733-3.425.019zM93.11 9.315c.745 1.92 1.834 3.524 2.858 4.755a18.957 18.957 0 002.523 2.508c.158.13.428.018.456-.187.093-.671.233-1.976.158-3.599-.074-1.622-.353-3.552-1.098-5.473-.745-1.92-1.834-3.524-2.858-4.755A19.55 19.55 0 0092.625.056c-.158-.13-.428-.019-.456.187a19.921 19.921 0 00-.158 3.599c.074 1.622.354 3.552 1.098 5.473zM56.72 111.037l20.564-.112-3.445-3.412-.102-13.64-3.398.018.075 13.64-6.852.038-.074-13.641-3.398.019.074 13.64h-.027l-3.407 3.45h-.01zm26.745-99.718c3.882 1.772 7.801 1.837 9.142 1.8.204 0 .307-.252.176-.41-.865-1.045-3.537-3.982-7.419-5.753-3.882-1.772-7.8-1.837-9.141-1.8-.205 0-.308.252-.177.41.865 1.045 3.537 3.982 7.42 5.753zm9.654 5.24c-1.965-.457-3.873-.447-5.446-.27a18.148 18.148 0 00-3.445.718c-.195.056-.26.354-.111.494a19.115 19.115 0 002.811 2.172c1.35.858 3.063 1.716 5.027 2.163 1.964.457 3.873.448 5.446.27a18.146 18.146 0 003.444-.717c.196-.056.261-.354.112-.494a19.12 19.12 0 00-2.811-2.173c-1.35-.858-3.063-1.715-5.027-2.163zm31.567 54.311a21.064 21.064 0 00-.55-3.776c-.4-1.669-1.07-3.617-2.225-5.464-1.154-1.836-2.606-3.282-3.919-4.345a19.953 19.953 0 00-3.127-2.079c-.187-.102-.457.075-.438.29.037.717.149 2.106.549 3.776.401 1.668 1.071 3.617 2.225 5.463 1.154 1.837 2.607 3.282 3.919 4.345a19.95 19.95 0 003.128 2.08c.186.102.456-.075.438-.29zm-10.389-20.11c1.517 1.361 3.211 2.284 4.691 2.9 1.471.615 2.728.923 3.38 1.053.195.037.391-.186.325-.382a19.755 19.755 0 00-1.47-3.291c-.792-1.418-1.909-3.012-3.435-4.383-1.518-1.36-3.212-2.284-4.692-2.9a18.39 18.39 0 00-3.379-1.053c-.196-.037-.391.187-.326.382a19.7 19.7 0 001.471 3.292c.791 1.417 1.908 3.011 3.435 4.382zm6.386 38.19c.242-.709.651-2.098.912-3.87.251-1.77.344-3.934-.074-6.162-.41-2.238-1.267-4.215-2.132-5.772a21.43 21.43 0 00-2.225-3.263c-.14-.168-.466-.112-.54.102a22.429 22.429 0 00-.912 3.87c-.252 1.771-.345 3.934.074 6.163.419 2.228 1.266 4.214 2.132 5.771a21.44 21.44 0 002.225 3.264c.139.167.465.112.54-.103zm-2.374 7.385c.233-1.558-1.21-2.565-1.992-2.993.242-.662.605-2.005.214-3.17-.261-.765-.791-1.315-1.573-1.642-.782-.326-1.527-.298-2.207.066-1.042.569-1.638 1.818-1.889 2.48-.847-.252-2.551-.55-3.389.755-.996 1.548-.251 3.609.242 4.634-.959.168-1.629.755-1.815 1.613-.27 1.203.456 2.471.847 3.161 0 .019.019.028.028.047-.261.27-1.238 4.54 1.396 5.631 2.644 1.1 4.571-2.778 4.552-3.161a.072.072 0 00.047-.018c.726-.224 2.076-.634 2.653-1.707.41-.755.298-1.669-.288-2.48 1.033-.4 2.904-1.37 3.174-3.216zm7.95-21.93c-.959 1.986-1.424 4.028-1.639 5.762a21.295 21.295 0 00-.13 3.87c.009.223.298.363.475.242a20.177 20.177 0 002.914-2.462c1.21-1.221 2.513-2.843 3.472-4.83.959-1.985 1.424-4.027 1.638-5.761a21.32 21.32 0 00.131-3.87c-.01-.224-.298-.363-.475-.242a20.13 20.13 0 00-2.914 2.461c-1.21 1.222-2.513 2.844-3.472 4.83zm.242-15.776c-.559 2.042-.652 4.056-.549 5.725.093 1.669.372 2.993.54 3.674.046.205.344.289.493.14a20.164 20.164 0 002.327-2.844c.931-1.371 1.881-3.142 2.439-5.184.559-2.042.652-4.056.549-5.725a20.326 20.326 0 00-.54-3.674c-.046-.205-.344-.289-.493-.14a20.155 20.155 0 00-2.327 2.844c-.931 1.37-1.881 3.142-2.439 5.184zm-24.772-33.286c-1.992-.457-3.928-.429-5.52-.242-1.592.186-2.858.54-3.49.746-.196.065-.261.363-.112.503a19.406 19.406 0 002.858 2.191c1.368.858 3.109 1.725 5.101 2.173 1.992.457 3.928.429 5.52.242a18.73 18.73 0 003.491-.746c.195-.065.261-.363.112-.503a19.517 19.517 0 00-2.858-2.191c-1.369-.858-3.109-1.725-5.102-2.173zm10.408 3.935a21.028 21.028 0 001.908 3.095c.121.168.419.121.494-.074a19.88 19.88 0 00.996-3.515c.307-1.613.475-3.59.195-5.66-.288-2.07-.986-3.916-1.722-5.389a20.52 20.52 0 00-1.908-3.096c-.121-.167-.419-.12-.494.075a19.872 19.872 0 00-.996 3.515c-.307 1.613-.474 3.59-.195 5.66.288 2.07.987 3.916 1.722 5.389zm-7.745-6.946a19.66 19.66 0 002.299 2.955c.149.159.447.075.503-.13.186-.68.503-2.023.633-3.72.14-1.697.093-3.749-.428-5.837-.522-2.098-1.443-3.916-2.356-5.333a20.174 20.174 0 00-2.299-2.956c-.149-.159-.447-.075-.503.13a20.368 20.368 0 00-.633 3.72c-.13 1.698-.093 3.749.429 5.837.521 2.098 1.443 3.916 2.355 5.334zm19.139 27.095a19.83 19.83 0 00.857 3.515c.065.195.363.251.493.093a20.251 20.251 0 002.002-2.984c.781-1.426 1.545-3.226 1.899-5.268.363-2.042.26-4 .018-5.613a19.928 19.928 0 00-.856-3.515c-.065-.196-.363-.251-.494-.093a20.26 20.26 0 00-2.001 2.984c-.782 1.426-1.545 3.226-1.899 5.268-.363 2.041-.261 4-.019 5.613zm-2.951-8.122c.103.178.401.178.494 0 .325-.587.912-1.752 1.424-3.29.503-1.54.931-3.441.922-5.502-.01-2.06-.457-3.962-.987-5.492-.531-1.529-1.127-2.694-1.462-3.272-.102-.177-.4-.177-.493 0a19.947 19.947 0 00-1.424 3.291c-.503 1.539-.931 3.44-.922 5.501.009 2.06.456 3.963.987 5.492a19.66 19.66 0 001.461 3.273zm-14.233-7.692c-1.583-.111-2.858 0-3.519.075-.196.028-.317.308-.196.466a19.83 19.83 0 002.384 2.648c1.172 1.091 2.708 2.247 4.561 3.049 1.852.811 3.733 1.147 5.306 1.259 1.583.112 2.858 0 3.519-.075.195-.028.316-.307.195-.466-.4-.54-1.21-1.557-2.383-2.648-1.173-1.09-2.709-2.247-4.561-3.049-1.853-.811-3.733-1.147-5.306-1.259zM32.163 21.78c.633.196 1.88.523 3.454.681 1.573.159 3.481.15 5.436-.326s3.659-1.352 4.999-2.229c1.34-.876 2.3-1.734 2.783-2.2.15-.14.075-.438-.111-.494a18.24 18.24 0 00-3.454-.68c-1.573-.16-3.482-.15-5.437.326-1.954.475-3.658 1.351-4.998 2.228a19.292 19.292 0 00-2.784 2.2c-.149.14-.074.439.112.494zm-7.83 93.994c.885-2.723-2.987-4.755-3.36-4.737a.07.07 0 00-.018-.046c-.27-.737-.764-2.117-1.843-2.695-.764-.41-1.648-.28-2.402.336-.466-1.054-1.536-2.956-3.36-3.208-1.537-.214-2.421 1.287-2.775 2.089-.67-.233-2.001-.597-3.11-.168-.725.28-1.228.83-1.489 1.632-.26.811-.186 1.566.224 2.265.624 1.063 1.88 1.651 2.541 1.902-.186.867-.363 2.63.968 3.46 1.574.997 3.529.205 4.506-.318.233.979.856 1.651 1.694 1.837 1.192.261 2.383-.503 3.026-.913.018-.01.028-.019.046-.028.28.27 4.478 1.314 5.362-1.408h-.01zM4.19 66.022a21.306 21.306 0 002.355 2.825c.15.15.438.056.494-.15.158-.68.419-2.004.493-3.682.075-1.669-.037-3.683-.614-5.725-.587-2.042-1.555-3.795-2.495-5.156a21.306 21.306 0 00-2.355-2.825c-.15-.15-.438-.056-.494.15a20.57 20.57 0 00-.493 3.682c-.075 1.669.037 3.683.614 5.725.587 2.042 1.555 3.795 2.495 5.156zm31.67 57.052s-.02-.028-.028-.046c-.42-.672-1.192-1.912-2.365-2.247-.838-.243-1.675.074-2.28.829-.67-.932-2.123-2.564-3.948-2.433-1.545.112-2.094 1.762-2.28 2.62-.698-.093-2.076-.159-3.072.485-.652.419-1.024 1.063-1.117 1.911-.093.849.14 1.576.688 2.163.838.905 2.188 1.222 2.886 1.324 0 .895.196 2.639 1.667 3.18 1.75.643 3.5-.541 4.338-1.259.428.904 1.182 1.436 2.038 1.436 1.22 0 2.225-.989 2.765-1.52l.037-.037c.326.205 4.655.354 4.953-2.499.298-2.844-3.91-4.028-4.273-3.925l-.01.018zM2.28 77.714c.977 1.977 2.3 3.58 3.519 4.792a19.727 19.727 0 002.941 2.425c.177.12.466-.028.475-.243.037-.727.056-2.144-.177-3.87-.233-1.724-.726-3.766-1.703-5.743-.978-1.976-2.3-3.58-3.52-4.792a19.726 19.726 0 00-2.94-2.424c-.178-.121-.466.028-.476.242-.037.727-.056 2.145.177 3.87.233 1.724.726 3.766 1.704 5.743zm7.41 21.52a22.083 22.083 0 003.789 1.743c.223.074.484-.159.437-.401a23.521 23.521 0 00-1.247-4.056c-.726-1.771-1.797-3.795-3.38-5.622-1.582-1.818-3.425-3.152-5.054-4.093a22.052 22.052 0 00-3.79-1.744c-.223-.075-.483.159-.437.401.159.783.531 2.294 1.248 4.056.726 1.771 1.796 3.795 3.379 5.622 1.582 1.818 3.426 3.152 5.055 4.093zm32.526 15.328c.297-.728.847-2.089.428-3.245-.298-.821-1.043-1.315-2.01-1.361.353-1.091.828-3.226-.364-4.634-.996-1.184-2.653-.662-3.463-.308-.335-.625-1.09-1.781-2.197-2.21-.726-.279-1.461-.205-2.197.224-.735.429-1.191 1.044-1.34 1.828-.242 1.212.298 2.489.623 3.114-.716.522-2.02 1.715-1.591 3.226.511 1.79 2.494 2.517 3.565 2.778-.475.886-.465 1.8.037 2.499.717.988 2.104 1.221 2.858 1.343h.056c.028.382 2.448 3.972 4.924 2.545 2.477-1.427.95-5.538.652-5.771a.07.07 0 01.019-.047v.019zm41.825-1.446l7.112 18.667a68.202 68.202 0 01-24.054 4.494c-8.471.046-16.598-1.445-24.11-4.224l6.897-18.75a48.374 48.374 0 0017.092 2.993 48.62 48.62 0 0017.063-3.189v.009zm49.227-28.8c-.736.26-2.151.829-3.771 1.79-1.619.96-3.444 2.312-5.008 4.148-1.564 1.837-2.616 3.88-3.314 5.66a23.696 23.696 0 00-1.201 4.075c-.046.242.214.475.438.391.735-.261 2.15-.83 3.77-1.79 1.62-.96 3.444-2.312 5.008-4.15 1.564-1.836 2.616-3.878 3.314-5.659a23.696 23.696 0 001.201-4.074c.047-.243-.214-.476-.437-.392zm-6.768 22.348c-1.117-.41-2.439-.037-3.109.205-.373-.801-1.276-2.284-2.802-2.06-1.816.27-2.868 2.191-3.324 3.245-.763-.606-1.638-.728-2.401-.308-1.08.587-1.555 1.977-1.816 2.722a.072.072 0 01-.018.047c-.373-.019-4.227 2.061-3.305 4.774.922 2.713 5.101 1.613 5.381 1.342.018 0 .027.019.046.028.642.401 1.843 1.147 3.035.877.838-.196 1.452-.877 1.675-1.856.978.513 2.942 1.278 4.506.271 1.322-.849 1.126-2.602.931-3.478.661-.261 1.908-.867 2.523-1.93.4-.699.465-1.454.195-2.266-.27-.811-.782-1.352-1.508-1.622l-.009.009zm-14.252 15.114c-1.006-.634-2.383-.55-3.082-.447-.195-.858-.763-2.499-2.308-2.602-1.834-.112-3.268 1.539-3.919 2.471-.615-.755-1.453-1.053-2.29-.802-1.173.355-1.937 1.604-2.346 2.275-.01.019-.019.028-.028.047-.363-.103-4.562 1.128-4.227 3.972.336 2.844 4.646 2.648 4.98 2.443l.038.037c.55.531 1.564 1.51 2.783 1.492.866-.01 1.602-.55 2.021-1.464.847.709 2.606 1.865 4.356 1.212 1.471-.559 1.648-2.312 1.639-3.198.698-.112 2.048-.448 2.867-1.361.54-.597.763-1.324.661-2.173-.103-.848-.484-1.482-1.136-1.902h-.009zm-14.783-4.279s.037 0 .056-.01c.744-.13 2.14-.382 2.839-1.38.493-.708.493-1.622 0-2.498 1.071-.271 3.044-1.017 3.537-2.816.41-1.52-.903-2.695-1.619-3.208.316-.634.847-1.92.586-3.123-.167-.783-.624-1.399-1.368-1.818-.745-.42-1.48-.485-2.207-.196-1.098.438-1.843 1.604-2.178 2.228-.81-.354-2.467-.848-3.453.345-1.173 1.418-.68 3.553-.308 4.634-.968.056-1.703.56-1.992 1.38-.41 1.156.158 2.508.456 3.236 0 .018.019.037.019.046-.298.233-1.769 4.354.717 5.762 2.495 1.408 4.868-2.209 4.896-2.592l.019.01zM25.842 25.613c.056.205.363.28.503.13a20.105 20.105 0 002.262-2.983c.893-1.436 1.796-3.264 2.3-5.362.502-2.098.511-4.149.362-5.846a21.123 21.123 0 00-.68-3.72c-.055-.205-.362-.28-.502-.13a20.107 20.107 0 00-2.262 2.983c-.894 1.436-1.797 3.263-2.3 5.361-.502 2.098-.511 4.15-.363 5.846.159 1.697.485 3.03.68 3.72zm-11.46 28.633c1.471-.634 3.147-1.576 4.655-2.956 1.508-1.38 2.607-2.993 3.38-4.42a19.922 19.922 0 001.433-3.31c.065-.195-.14-.419-.335-.381a19.3 19.3 0 00-3.37 1.09c-1.471.635-3.147 1.576-4.655 2.956-1.508 1.38-2.606 2.993-3.379 4.42a19.922 19.922 0 00-1.434 3.31c-.065.195.14.42.336.382.651-.14 1.899-.466 3.37-1.091zm-1.303 35.31c.075.214.4.27.54.102a21.383 21.383 0 002.188-3.292c.847-1.566 1.685-3.552 2.066-5.79.391-2.237.27-4.4 0-6.163a22.137 22.137 0 00-.95-3.86c-.074-.214-.4-.27-.539-.102a21.388 21.388 0 00-2.188 3.291c-.847 1.566-1.685 3.552-2.066 5.79-.391 2.238-.27 4.4 0 6.163.27 1.762.707 3.16.95 3.86zM8.872 71.522c0 .214.26.392.446.289a19.88 19.88 0 003.1-2.117c1.304-1.081 2.737-2.536 3.873-4.391 1.136-1.846 1.787-3.813 2.169-5.482.382-1.679.484-3.068.512-3.786 0-.214-.26-.392-.447-.289a19.865 19.865 0 00-3.1 2.117c-1.303 1.081-2.737 2.536-3.872 4.391-1.136 1.846-1.788 3.813-2.17 5.482a21.128 21.128 0 00-.511 3.786zM6.452 50.73a19.297 19.297 0 002.038 2.965c.13.158.428.102.493-.093.214-.644.587-1.912.81-3.525.224-1.613.298-3.58-.084-5.613-.381-2.032-1.163-3.832-1.964-5.24a19.289 19.289 0 00-2.038-2.965c-.13-.158-.429-.102-.494.094a20.181 20.181 0 00-.81 3.524c-.223 1.613-.298 3.58.084 5.613.382 2.032 1.164 3.832 1.964 5.24zm33.856-37.314c1.34.019 5.25-.084 9.123-1.902 3.863-1.818 6.498-4.783 7.354-5.837.13-.158.019-.4-.186-.41-1.34-.019-5.25.084-9.123 1.902-3.863 1.818-6.498 4.783-7.354 5.837-.13.158-.019.4.186.41zM14.82 41.621a18.49 18.49 0 003.519.038c1.582-.13 3.454-.494 5.297-1.315 1.843-.83 3.37-2.004 4.533-3.105a19.412 19.412 0 002.355-2.676c.121-.167 0-.438-.195-.466a18.495 18.495 0 00-3.519-.037c-1.582.13-3.453.494-5.297 1.315-1.843.82-3.37 2.004-4.533 3.104a19.405 19.405 0 00-2.355 2.676c-.121.168 0 .439.195.466zm-2.672.29c.103.177.4.177.494 0a19.18 19.18 0 001.424-3.292c.512-1.538.93-3.44.922-5.5-.01-2.061-.457-3.963-.978-5.492a19.473 19.473 0 00-1.461-3.282c-.103-.178-.4-.178-.494 0a19.177 19.177 0 00-1.424 3.29c-.512 1.54-.93 3.441-.922 5.502.01 2.06.457 3.962.978 5.492a19.471 19.471 0 001.461 3.282zm11.367-11.217c.642.196 1.899.532 3.5.7 1.601.167 3.537.167 5.52-.308 1.983-.476 3.724-1.352 5.083-2.229a19.138 19.138 0 002.83-2.219c.149-.14.084-.438-.112-.503a19.014 19.014 0 00-3.5-.7c-1.601-.167-3.537-.167-5.52.308-1.983.476-3.724 1.352-5.083 2.229a19.134 19.134 0 00-2.83 2.219c-.149.14-.084.438.112.503zm10.938-13.762a19.315 19.315 0 002.495-2.536c1.014-1.24 2.085-2.862 2.811-4.783.717-1.92.977-3.86 1.033-5.482a20.836 20.836 0 00-.195-3.6c-.028-.205-.307-.307-.466-.186a19.312 19.312 0 00-2.494 2.536c-1.015 1.24-2.086 2.863-2.812 4.783-.717 1.921-.977 3.86-1.033 5.483a20.835 20.835 0 00.195 3.599c.028.205.308.307.466.186zM18.58 32.83c.074.196.372.233.503.066a19.99 19.99 0 001.87-3.115c.718-1.473 1.397-3.328 1.658-5.408.26-2.07.065-4.046-.252-5.659a19.85 19.85 0 00-1.033-3.496c-.074-.196-.372-.234-.503-.066-.41.55-1.154 1.641-1.87 3.114-.718 1.474-1.397 3.329-1.658 5.408-.26 2.07-.065 4.047.252 5.66a19.859 19.859 0 001.033 3.496zm37.199 96.446l-.642.018v-8.895a.512.512 0 00-.512-.513h-.429a.494.494 0 00-.428.234c-.773 1.212-1.852 2.312-3.202 3.254a.506.506 0 00-.14.69l.373.596a.516.516 0 00.316.224c.13.028.27 0 .382-.065.41-.261.81-.55 1.191-.867v5.361l-.95-.028c-.427 0-.716.289-.716.718v.326c0 .429.289.718.726.718l2.067-.056 1.964.056c.428 0 .717-.289.717-.718v-.326c0-.429-.289-.718-.726-.718l.009-.009zm8.983-8.961a.5.5 0 00-.447-.27h-6.079a.511.511 0 00-.512.513v2.592c0 .429.29.718.717.718h.326c.428 0 .717-.289.717-.718v-.755l3.305-.019c-1.09 2.396-2.784 5.156-4.06 7.123a.557.557 0 00-.083.299l.019.382c0 .177.112.345.26.429l.847.466a.556.556 0 00.243.065c.046 0 .102 0 .148-.018l.345-.103a.511.511 0 00.307-.252c.931-1.818 3.221-6.358 4.32-9.361a.526.526 0 00-.028-.41l-.345-.653v-.028zm5.25 3.003c-.474 0-.903.065-1.294.195l.075-.923c.633 0 1.462 0 1.955-.028 1.629-.074 2.597-.951 2.886-2.62a.506.506 0 00-.326-.568l-.456-.168a.517.517 0 00-.624.242c-.248.473-.67.731-1.266.774-.707.047-1.89.037-2.746.028h-.633a.51.51 0 00-.512.504v.084l-.41 4.605c-.01.14.037.28.13.392a.513.513 0 00.373.168h.8a.521.521 0 00.41-.205l.14-.196c.186-.317.577-.457 1.294-.457.716 0 1.396.224 1.396 1.874 0 2.182-.866 2.48-1.797 2.48-.39 0-.689-.074-.884-.168.214-.279.326-.596.326-.932 0-.904-.55-1.492-1.396-1.492-.848 0-1.471.681-1.471 1.651 0 1.547 1.443 2.666 3.435 2.666 2.513 0 4.263-1.743 4.263-4.242 0-2.303-1.368-3.683-3.658-3.683l-.01.019zm9.57 0c-.475 0-.903.065-1.294.195l.075-.923c.623 0 1.47 0 1.955-.028 1.629-.074 2.597-.951 2.885-2.62a.502.502 0 00-.335-.568l-.465-.168a.497.497 0 00-.614.242c-.249.473-.67.731-1.267.774-.707.047-1.89.037-2.746.028h-.633a.51.51 0 00-.512.504v.084l-.419 4.605c-.009.14.038.28.13.392a.513.513 0 00.373.168h.8a.522.522 0 00.41-.205l.14-.187c.186-.317.586-.457 1.294-.457.707 0 1.396.224 1.396 1.874 0 2.182-.866 2.481-1.796 2.481-.391 0-.69-.084-.885-.168.214-.28.326-.597.326-.933 0-.904-.55-1.491-1.396-1.491-.847 0-1.471.68-1.471 1.65 0 1.548 1.443 2.667 3.435 2.667 2.513 0 4.263-1.744 4.263-4.243 0-2.303-1.368-3.683-3.658-3.683l.01.01zm-68.337 40.296h-1.34v34.47l5.371-.187c.614 0 .856.243.856.858v1.343c0 .615-.242.858-.856.858l-7.075-.243-7.075.243c-.614 0-.856-.243-.856-.858v-1.343c0-.615.242-.858.856-.858l5.13.187v-35.263H1.052c-.615 0-.857-.242-.857-.857v-1.343c0-.615.242-.858.913-.858h14.894l10.92 23.897 10.249-23.897h14.466c.615 0 .857.243.857.858v1.343c0 .615-.242.857-.857.857H46.63v35.207l4.757-.121c.614 0 .856.242.856.858v1.342c0 .616-.242.858-.856.858l-7.997-.242-7.382.242c-.614 0-.856-.242-.856-.858v-1.342c0-.616.242-.858.856-.858l4.515.121v-34.414h-1.461L26.977 190.69H24.11l-12.874-27.076h.01zm47.29 36.493v-1.342c0-.616.242-.858.856-.858l4.757.186v-35.449l-5.92.187c-.615 0-.857-.243-.857-.858v-1.343c0-.615.242-.858.856-.858h29.66c.614 4.588 1.647 12.839 1.647 13.688 0 .363-.121.914-.791.914h-1.34c-.485 0-.615-.364-.857-1.101a612.616 612.616 0 00-3.296-10.452H70.255v35.207l4.515-.121c.614 0 .856.242.856.858v1.342c0 .616-.242.858-.856.858l-7.997-.242-7.382.242c-.614 0-.856-.242-.856-.858zm45.464-1.837c0-2.135 1.219-4.037 4.087-4.037 1.163 0 2.746.429 3.481 1.464a304.041 304.041 0 012.681-6.237l-15.5-26.834-5.063.186c-.615 0-.857-.242-.857-.858v-1.342c0-.616.242-.858.857-.858l7.875.242 7.503-.242c.615 0 .857.242.857.858v1.342c0 .616-.242.858-.857.858l-4.031-.121 11.897 20.717c3.11-6.843 6.284-13.817 9.095-20.782l-4.822.186c-.614 0-.856-.242-.856-.858v-1.342c0-.616.242-.858.856-.858l7.075.242 5.855-.242c.615 0 .857.242.857.858v1.342c0 .616-.242.858-.857.858l-4.514-.186c-4.702 11.365-10.557 23.225-15.137 33.985-1.713 4.037-3.416 5.436-6.47 5.38-2.197-.066-4.031-1.651-4.031-3.73l.019.009z"/></g><defs><clipPath id="clip0_147_5412"><path fill="#fff" d="M0 0h135v202H0z"/></clipPath></defs></svg>