<svg width="736" height="545" viewBox="0 0 736 545" fill="none" xmlns="http://www.w3.org/2000/svg">
<rect width="1000" height="695" transform="translate(2 -9)" fill="transparent"/>
<path d="M505.511 165.446L582.449 246.035L817.42 246.568L671.073 396.28L450.062 163.03L534.96 77.0356L809.734 76.9537L854.948 123.677H964.355L838.007 -8.50854L503.197 -7.7305L336.105 164.218L673.622 512.086L1002 165.446H505.511Z" fill="transparent" stroke="#860117" stroke-width="1.5"/>
<path d="M279.636 -9H167.837L2 164.218L503.98 686L557.351 631.086L115.054 166.347L279.636 -9Z" fill="transparent" stroke="#860117" stroke-width="1.5"/>
<path d="M446.687 -7.77148L336.103 -6.54299C316.3 14.1367 218.578 114.3 169.09 164.218L585.544 599.309L641.816 546.116L279.635 167.862L446.687 -7.77148Z" fill="transparent" stroke="#860117" stroke-width="1.5"/>
</svg>
