<svg width="736" height="545" fill="none" xmlns="http://www.w3.org/2000/svg"><path fill="transparent" d="M2-9h1000v695H2z"/><path d="M505.511 165.446l76.938 80.589 234.971.533L671.073 396.28 450.062 163.03l84.898-85.994 274.774-.082 45.214 46.723h109.407L838.007-8.509l-334.81.779-167.092 171.948 337.517 347.868L1002 165.446H505.511z" fill="transparent" stroke="#860117" stroke-width="1.5"/><path d="M279.636-9H167.837L2 164.218 503.98 686l53.371-54.914-442.297-464.739L279.636-9z" fill="transparent" stroke="#860117" stroke-width="1.5"/><path d="M446.687-7.771L336.103-6.543C316.3 14.137 218.578 114.3 169.09 164.218l416.454 435.091 56.272-53.193-362.181-378.254L446.687-7.771z" fill="transparent" stroke="#860117" stroke-width="1.5"/></svg>